<?xml version="1.0" encoding="utf-8"?>
<!-- Generator: Adobe Illustrator 23.0.2, SVG Export Plug-In . SVG Version: 6.00 Build 0)  -->
<svg version="1.1" id="layer_1" xmlns="http://www.w3.org/2000/svg" xmlns:xlink="http://www.w3.org/1999/xlink" x="0px" y="0px"
	 viewBox="0 0 190 216.71" style="enable-background:new 0 0 190 216.71;" xml:space="preserve">
	 	 <style xmlns="http://www.w3.org/2000/svg" type="text/css">

.uptime_vector_lap {
	animation-name: upTime;
    animation-duration: 7s;
    animation-iteration-count: 1;
    transform-origin: 50% 50%;
}

@keyframes upTime {
	0% {transform: translate(-90px, 0);}
	20% {transform: translate(0, 5px);}
}

.uptime-use_bg {
	animation-name: uptimeUser;
    animation-duration: 4s;
    animation-iteration-count: infinite;
}

@keyframes uptimeUser {
	0% {opacity: 1;}
	50% {opacity: 0.5;}
	100% {opacity: 1;}
}

.uptime_third_block {
	animation-name: timeBlock-1;
    animation-duration: 3.5s;
    animation-iteration-count: 1;
    transform-origin: 50% 50%
}

@keyframes timeBlock-1 {
	0% {transform: translate(0, -50px);}
	50% {transform: translate(0, 0);}
}

.uptime_second_block {
	animation-name: timeBlock-2;
    animation-duration: 3.5s;
    animation-iteration-count: infinite;
    transform-origin: 50% 50%
}

@keyframes timeBlock-2 {
	0% {transform: translate(0, 0);}
	50% {transform: translate(3px, 0);}
}

.uptime_first_block {
	animation-name: timeBlock-3;
    animation-duration: 3.6s;
    animation-iteration-count: infinite;
    transform-origin: 50% 50%
}

@keyframes timeBlock-3 {
	0% {transform: translate(0, 0);}
	50% {transform: translate(-5px, 0);}
}

.uptime_clock {
	transform-origin: 55% 50%;
    -moz-transform-origin: 55% 50%;
    animation-count: 1;
    animation: clock-Flip 2.5s;
}

@keyframes clock-Flip {
	0% {transform: perspective(2000px) rotateY(90deg) skewY(-1deg);}
	30% {transform: perspective(2000px) rotateY(-25deg) skewY(-0.8deg);}
	50% {transform: perspective(2000px) rotateY(20deg) skewY(0.8deg);}
	70% {transform: perspective(2000px) rotateY(-10deg) skewY(-0.8deg);}
	100% {transform: perspective(2000px) rotateY(0deg);}
}


	 	 </style>




<style type="text/css">
	.st0{fill:#D1DDFF;}
	.st1{fill:#FFDB5A;}
	.st2{fill:#FFBD59;}
	.st3{fill:#FD9C3D;}
	.st4{fill:#FF65A7;}
	.st5{fill:#EE428C;}
	.st6{fill:#BC4274;}
	.st7{fill:#26E0BF;}
	.st8{fill:#09A88C;}
	.st9{fill:#00979C;}
	.st10{fill:#FFFFFF;}
	.st11{fill:#9899EF;}
	.st12{enable-background:new    ;}
	.st13{fill:#6E6FDA;}
	.st14{fill:#113A52;}
	.st15{fill:#F6F4F6;}
	.st16{fill:#2D4383;}
	.st17{fill:#4C4DC3;}
	.st18{fill-rule:evenodd;clip-rule:evenodd;fill:#FFFFFF;}
	.st19{fill-rule:evenodd;clip-rule:evenodd;fill:#4C4DC3;}
	.st20{fill-rule:evenodd;clip-rule:evenodd;fill:#D1DDFF;}
	.st21{clip-path:url(#SVGID_2_);}
	.st22{fill:#FFAA83;}
	.st23{fill:#D7D5D9;}
	.st24{fill:#7E7D7F;}
	.st25{fill:#F1EFF3;}
	.st26{fill:#C8C6CA;}
	.st27{fill:#CBCCD0;}
	.st28{fill:#D7D6D9;}
	.st29{fill:#7B7A7D;}
</style>





<g>
	<g>
		<g>
			<g>
				<g>
					<path class="st0" d="M139.57,94.01l28.22-15.86c1.87-1.05,4.15-1.05,6.01,0l13.07,7.37c4.16,2.35,4.16,8.34-0.01,10.68
						l-28.22,15.86c-1.87,1.05-4.15,1.05-6.01-0.01l-13.07-7.37C135.4,102.34,135.41,96.35,139.57,94.01z"/>
				</g>
			</g>
		</g>


		<g  class="uptime_third_block">
			<g>
				<g>
					<polygon class="st1" points="178.52,86.56 158.18,98.38 144.15,90.29 164.49,78.47 					"/>
				</g>


				<g>
					<g>
						<polygon class="st2" points="178.52,86.56 178.51,96.88 158.18,108.7 158.18,98.38 						"/>
					</g>
				</g>



				<g>
					<g>
						<polygon class="st1" points="166.06,97.87 158.18,99.83 169.71,93.12 						"/>
					</g>
				</g>


				<g>
					<g>
						<polygon class="st1" points="179.35,95.4 172.74,95.96 178.51,92.61 						"/>
					</g>
				</g>
				<g>
					<g>
						<polygon class="st3" points="158.18,98.38 158.18,108.7 144.15,100.6 144.15,90.29 						"/>
					</g>
				</g>
				<g>
					<g>
						<polygon class="st2" points="151.59,100.15 143.55,99.29 144.15,95.83 						"/>
					</g>
				</g>
			</g>
		</g>




		<g class="uptime_second_block">
			<g>
				<g>
					<polygon class="st4" points="185.42,75.55 165.08,87.37 151.05,79.27 171.39,67.45 					"/>
				</g>
				<g>
					<g>
						<polygon class="st5" points="185.42,75.55 185.41,85.87 165.07,97.69 165.08,87.37 						"/>
					</g>
				</g>
				<g>
					<g>
						<polygon class="st4" points="172.96,86.86 165.07,88.81 176.61,82.11 						"/>
					</g>
				</g>
				<g>
					<g>
						<polygon class="st4" points="186.24,84.39 179.64,84.95 185.4,81.6 						"/>
					</g>
				</g>
				<g>
					<g>
						<polygon class="st6" points="165.08,87.37 165.07,97.69 151.05,89.59 151.05,79.27 						"/>
					</g>
				</g>
				<g>
					<g>
						<polygon class="st5" points="158.49,89.14 150.45,88.28 151.05,84.82 						"/>
					</g>
				</g>
			</g>
		</g>



		<g class="uptime_first_block">
			<g>
				<g>
					<polygon class="st7" points="175.56,67.8 155.22,79.61 141.19,71.52 161.53,59.7 					"/>
				</g>
				<g>
					<g>
						<polygon class="st8" points="175.56,67.8 175.55,78.11 155.21,89.93 155.22,79.61 						"/>
					</g>
				</g>
				<g>
					<g>
						<polygon class="st7" points="163.1,79.1 155.21,81.06 166.75,74.35 						"/>
					</g>
				</g>
				<g>
					<g>
						<polygon class="st7" points="176.38,76.63 169.78,77.19 175.55,73.84 						"/>
					</g>
				</g>
				<g>
					<g>
						<polygon class="st9" points="155.22,79.61 155.21,89.93 141.19,81.83 141.19,71.52 						"/>
					</g>
				</g>
				<g>
					<g>
						<polygon class="st8" points="148.63,81.38 140.59,80.52 141.19,77.06 						"/>
					</g>
				</g>
			</g>
		</g>
	</g>








	<g class="uptime_vector_lap">
		<g>
			<path class="st0" d="M32.23,156.41l44.73-25.59c1.26-0.73,2.93-1.13,4.71-1.13c1.88,0,3.72,0.44,5.18,1.24l15.91,8.71
				c1.71,0.94,2.76,2.3,2.86,3.74c0.11,1.43-0.72,2.75-2.27,3.65l-44.73,25.59c-1.26,0.73-2.93,1.13-4.71,1.13
				c-1.88,0-3.72-0.44-5.17-1.24l-15.91-8.71c-1.71-0.94-2.76-2.3-2.86-3.74C29.86,158.64,30.69,157.31,32.23,156.41z"/>
		</g>
		<g>
			<g>
				<g>
					<path class="st10" d="M39.35,151.31l32.33-18.81c2.37-1.38,6.19-1.38,8.57,0l12.31,7.25c2.38,1.38,2.41,3.6,0.05,4.98
						l-32.33,18.81c-2.35,1.36-6.21,1.36-8.59-0.01l-12.31-7.25C36.99,154.9,37,152.68,39.35,151.31z"/>
				</g>
			</g>
			<g>
				<g>
					<path class="st11" d="M39.38,156.28l12.31,7.25c1.19,0.69,2.74,1.03,4.29,1.03c1.56,0,3.12-0.34,4.3-1.02l32.33-18.81
						c1.17-0.68,1.76-1.57,1.76-2.46l-0.01,2.47c0,0.89-0.59,1.78-1.76,2.46l-32.33,18.81c-1.18,0.68-2.73,1.02-4.29,1.02
						c-1.55,0-3.11-0.35-4.3-1.03l-12.31-7.25c-1.2-0.69-1.79-1.6-1.79-2.5l0.01-2.47C37.59,154.68,38.18,155.58,39.38,156.28z"/>
				</g>
			</g>
		</g>
		<g>
			<g class="st12">
				<g>
					<g>
						<g>
							<polygon class="st13" points="55.29,156.73 51.01,154.24 50.96,136.66 55.24,139.14 							"/>
						</g>
					</g>
				</g>
				<g>
					<g>
						<g>
							<polygon class="st14" points="81.21,124.1 55.24,139.14 50.96,136.66 76.93,121.61 							"/>
						</g>
					</g>
				</g>
				<g>
					<g>
						<g>
							<polygon class="st11" points="81.26,141.69 55.29,156.73 55.24,139.14 81.21,124.1 							"/>
						</g>
					</g>
				</g>
			</g>
		</g>
		<g>
			<g>
				<path class="st11" d="M3.82,61.71L111,0.52c1.07-0.61,2.05-0.67,2.75-0.27l3.81,2.19c-0.7-0.4-1.67-0.34-2.75,0.27L7.63,63.9
					c-2.11,1.2-3.83,4.13-3.82,6.54l0.18,93.93c0,1.2,0.43,2.05,1.13,2.44l-3.81-2.19c-0.69-0.4-1.12-1.24-1.13-2.44L0,68.25
					C-0.01,65.84,1.71,62.91,3.82,61.71z"/>
			</g>
		</g>
		<g>
			<g>
				<path class="st15" d="M7.63,63.9L114.81,2.71c2.12-1.21,3.86-0.25,3.86,2.16l0.18,93.93c0.01,2.41-1.71,5.36-3.84,6.57
					L7.83,166.56c-2.11,1.2-3.84,0.23-3.85-2.19L3.81,70.44C3.8,68.03,5.53,65.1,7.63,63.9z"/>
			</g>
		</g>
		<g>
			<g>
				<polygon class="st13" points="114.61,96.34 8.23,157.06 8.23,70.47 114.61,9.74 				"/>
			</g>
		</g>
		<g>
			<polygon class="st16" points="110.78,94.15 12.06,150.51 12.06,72.65 110.78,16.3 			"/>
		</g>
		<g>
			<g>
				<polygon class="st13" points="114.28,95.63 98.63,104.53 98.63,19.18 114.28,10.27 				"/>
			</g>
		</g>
		<g>
			<g>
				<polygon class="st17" points="110.6,28.93 101.74,34.04 101.74,24.7 110.6,19.58 				"/>
			</g>
		</g>
		<g>
			<g>
				<polygon class="st17" points="110.6,40.95 101.74,46.06 101.74,36.71 110.6,31.6 				"/>
			</g>
		</g>
		<g>
			<g>
				<polygon class="st17" points="110.6,80.29 101.74,85.4 101.74,76.05 110.6,70.94 				"/>
			</g>
		</g>
		<g>
			<g>
				<polygon class="st17" points="110.6,92.3 101.74,97.42 101.74,88.07 110.6,82.95 				"/>
			</g>
		</g>
		<g>
			<g>
				<polygon class="st17" points="110.6,68.18 101.74,73.29 101.74,48.73 110.6,43.61 				"/>
			</g>
		</g>
		<g>
			<g id="XMLID_53_">
				<g>
					<g>
						<g>
							<polygon class="st18" points="41.07,70.24 33.46,74.51 33.46,73.1 41.07,68.84 							"/>
						</g>
					</g>
				</g>
			</g>
			<g id="XMLID_52_">
				<g>
					<g>
						<g>
							<polygon class="st19" points="30.56,76.12 20.28,81.88 20.28,80.47 30.56,74.72 							"/>
						</g>
					</g>
				</g>
			</g>
			<g id="XMLID_51_">
				<g>
					<g>
						<g>
							<polygon class="st19" points="45.71,71.53 35.93,77 35.93,75.59 45.71,70.12 							"/>
						</g>
					</g>
				</g>
			</g>
			<g id="XMLID_50_">
				<g>
					<g>
						<g>
							<polygon class="st19" points="33.97,78.09 28.84,80.96 28.84,79.56 33.97,76.69 							"/>
						</g>
					</g>
				</g>
			</g>
			<g id="XMLID_49_">
				<g>
					<g>
						<g>
							<polygon class="st18" points="26.64,82.19 20.28,85.75 20.28,84.35 26.64,80.79 							"/>
						</g>
					</g>
				</g>
			</g>
			<g id="XMLID_48_">
				<g>
					<g>
						<g>
							<polygon class="st19" points="42.53,76.76 31.42,82.98 31.42,81.58 42.53,75.36 							"/>
						</g>
					</g>
				</g>
			</g>
			<g id="XMLID_47_">
				<g>
					<g>
						<g>
							<polygon class="st19" points="29.76,83.91 26.44,85.77 26.44,84.36 29.76,82.51 							"/>
						</g>
					</g>
				</g>
			</g>
			<g id="XMLID_46_">
				<g>
					<g>
						<g>
							<polygon class="st19" points="45.71,78.72 38.19,82.93 38.19,81.53 45.71,77.32 							"/>
						</g>
					</g>
				</g>
			</g>
			<g id="XMLID_45_">
				<g>
					<g>
						<g>
							<polygon class="st18" points="36.69,83.77 32.73,85.98 32.73,84.58 36.69,82.37 							"/>
						</g>
					</g>
				</g>
			</g>
			<g id="XMLID_44_">
				<g>
					<g>
						<g>
							<polygon class="st19" points="31.04,86.93 26.15,89.67 26.15,88.26 31.04,85.53 							"/>
						</g>
					</g>
				</g>
			</g>
			<g id="XMLID_43_">
				<g>
					<g>
						<g>
							<polygon class="st19" points="37.65,86.7 28.84,91.63 28.84,90.23 37.65,85.3 							"/>
						</g>
					</g>
				</g>
			</g>
			<g id="XMLID_42_">
				<g>
					<g>
						<g>
							<polygon class="st18" points="47.48,88.13 37.15,93.91 37.15,92.51 47.48,86.73 							"/>
						</g>
					</g>
				</g>
			</g>
			<g id="XMLID_41_">
				<g>
					<g>
						<g>
							<polygon class="st19" points="45.71,85.66 35.93,91.13 35.93,89.72 45.71,84.25 							"/>
						</g>
					</g>
				</g>
			</g>
			<g id="XMLID_40_">
				<g>
					<g>
						<g>
							<polygon class="st18" points="33.97,92.22 28.84,95.09 28.84,93.69 33.97,90.82 							"/>
						</g>
					</g>
				</g>
			</g>
			<g id="XMLID_39_">
				<g>
					<g>
						<g>
							<polygon class="st19" points="26.64,96.32 20.28,99.88 20.28,98.48 26.64,94.92 							"/>
						</g>
					</g>
				</g>
			</g>
			<g id="XMLID_38_">
				<g>
					<g>
						<g>
							<polygon class="st19" points="35.2,95.01 26.15,100.07 26.15,98.66 35.2,93.6 							"/>
						</g>
					</g>
				</g>
			</g>
			<g id="XMLID_37_">
				<g>
					<g>
						<g>
							<polygon class="st19" points="40.82,95.72 26.6,103.67 26.6,102.26 40.82,94.31 							"/>
						</g>
					</g>
				</g>
			</g>
			<g id="XMLID_36_">
				<g>
					<g>
						<g>
							<polygon class="st19" points="40.82,98.91 33.37,103.07 33.37,101.67 40.82,97.5 							"/>
						</g>
					</g>
				</g>
			</g>
			<g id="XMLID_35_">
				<g>
					<g>
						<g>
							<polygon class="st19" points="44.49,100.32 31.42,107.64 31.42,106.22 44.49,98.91 							"/>
						</g>
					</g>
				</g>
			</g>
			<g id="XMLID_34_">
				<g>
					<g>
						<g>
							<polygon class="st18" points="29.76,108.56 26.44,110.42 26.44,109.01 29.76,107.15 							"/>
						</g>
					</g>
				</g>
			</g>
			<g id="XMLID_33_">
				<g>
					<g>
						<g>
							<polygon class="st19" points="39.89,106.36 28.04,112.98 28.04,111.58 39.89,104.95 							"/>
						</g>
					</g>
				</g>
			</g>
			<g id="XMLID_32_">
				<g>
					<g>
						<g>
							<polygon class="st19" points="26.28,113.97 22.74,115.95 22.74,114.55 26.28,112.57 							"/>
						</g>
					</g>
				</g>
			</g>
			<g id="XMLID_15_">
				<g>
					<g>
						<g>
							<polygon class="st18" points="36.69,111.89 32.73,114.1 32.73,112.7 36.69,110.49 							"/>
						</g>
					</g>
				</g>
			</g>
			<g id="XMLID_10_">
				<g>
					<g>
						<g>
							<polygon class="st19" points="31.04,115.05 26.15,117.79 26.15,116.38 31.04,113.65 							"/>
						</g>
					</g>
				</g>
			</g>
			<g id="XMLID_9_">
				<g>
					<g>
						<g>
							<polygon class="st19" points="37.65,114.82 28.84,119.75 28.84,118.35 37.65,113.42 							"/>
						</g>
					</g>
				</g>
			</g>
			<g id="XMLID_8_">
				<g>
					<g>
						<g>
							<polygon class="st18" points="40.82,116.7 20.28,128.19 20.28,126.78 40.82,115.29 							"/>
						</g>
					</g>
				</g>
			</g>
			<g id="XMLID_7_">
				<g>
					<g>
						<g>
							<polygon class="st19" points="40.82,119.96 33.37,124.13 33.37,122.73 40.82,118.56 							"/>
						</g>
					</g>
				</g>
			</g>
			<g id="XMLID_6_">
				<g>
					<g>
						<g>
							<polygon class="st19" points="31.41,125.22 26.88,127.76 26.88,126.35 31.41,123.82 							"/>
						</g>
					</g>
				</g>
			</g>
			<g id="XMLID_2_">
				<g>
					<g>
						<g>
							<polygon class="st19" points="24.68,128.99 20.28,131.45 20.28,130.04 24.68,127.59 							"/>
						</g>
					</g>
				</g>
			</g>
			<g id="XMLID_1_">
				<g>
					<g>
						<g>
							<polygon class="st18" points="44.49,121.37 31.42,128.68 31.42,127.28 44.49,119.96 							"/>
						</g>
					</g>
				</g>
			</g>
			<g id="XMLID_3_">
				<g>
					<g>
						<g>
							<polygon class="st19" points="29.76,129.61 26.44,131.47 26.44,130.06 29.76,128.21 							"/>
						</g>
					</g>
				</g>
			</g>
		</g>
		<g>
			<path class="st10" d="M65.22,46.96c2.24-1.56,4.54-2.35,6.86-2.35c5.41,0,11.42,4.98,12.44,14.5c0.07,0.63,0.12,1.27,0.13,1.93
				c0.29,8.5-3.32,17.57-8.97,22.57c-0.51,0.44-1.03,0.86-1.57,1.23c-2.24,1.57-4.55,2.36-6.87,2.36c-5.4,0-11.41-4.98-12.44-14.49
				C53.77,63.06,58.35,51.75,65.22,46.96z"/>
		</g>
		<g id="XMLID_1431_">
			<g id="XMLID_1432_">
				<polygon class="st20" points="88.92,87.19 58.78,104.59 58.78,99.37 88.92,81.97 				"/>
			</g>
			<g>
				<path class="st10" d="M74.94,93.27c0.19,0,0.33,0.14,0.37,0.36c0.05,0.28-0.08,0.62-0.29,0.8c-0.09,0.08-0.19,0.12-0.29,0.12
					c-0.19,0-0.33-0.14-0.37-0.36c-0.05-0.28,0.08-0.62,0.29-0.8C74.74,93.31,74.84,93.27,74.94,93.27z"/>
			</g>
			<g>
				<path class="st10" d="M76.96,92.11c0.19,0,0.33,0.14,0.37,0.36c0.05,0.28-0.08,0.62-0.29,0.8c-0.09,0.08-0.19,0.12-0.29,0.12
					c-0.19,0-0.33-0.14-0.37-0.36c-0.05-0.28,0.08-0.62,0.29-0.8C76.77,92.15,76.87,92.11,76.96,92.11z"/>
			</g>
			<g>
				<path class="st10" d="M78.99,90.95c0.19,0,0.33,0.14,0.37,0.36c0.05,0.28-0.08,0.62-0.29,0.8c-0.09,0.08-0.19,0.12-0.29,0.12
					c-0.19,0-0.33-0.14-0.37-0.36c-0.05-0.28,0.08-0.62,0.29-0.8C78.79,90.99,78.89,90.95,78.99,90.95z"/>
			</g>
			<g>
				<path class="st10" d="M81.01,89.79c0.19,0,0.33,0.14,0.37,0.36c0.05,0.28-0.08,0.62-0.29,0.8c-0.09,0.08-0.19,0.12-0.28,0.12
					c-0.19,0-0.33-0.14-0.37-0.36c-0.05-0.28,0.08-0.62,0.29-0.8C80.82,89.83,80.92,89.79,81.01,89.79z"/>
			</g>
			<g>
				<path class="st10" d="M83.04,88.64c0.19,0,0.33,0.14,0.37,0.36c0.05,0.28-0.08,0.62-0.29,0.8c-0.09,0.08-0.19,0.12-0.29,0.12
					c-0.19,0-0.33-0.14-0.37-0.36c-0.05-0.28,0.08-0.62,0.29-0.8C82.84,88.68,82.94,88.64,83.04,88.64z"/>
			</g>
			<g>
				<path class="st10" d="M85.06,87.48c0.19,0,0.33,0.14,0.37,0.36c0.05,0.28-0.08,0.62-0.29,0.8c-0.09,0.08-0.19,0.12-0.29,0.12h0
					c-0.19,0-0.33-0.14-0.37-0.36c-0.05-0.28,0.08-0.62,0.29-0.8C84.87,87.52,84.97,87.48,85.06,87.48z"/>
			</g>
			<g>
				<path class="st10" d="M87.09,86.32c0.19,0,0.33,0.14,0.37,0.36c0.05,0.28-0.08,0.62-0.29,0.8c-0.09,0.08-0.19,0.12-0.29,0.12
					c-0.19,0-0.33-0.14-0.37-0.36c-0.05-0.28,0.08-0.62,0.29-0.8C86.89,86.36,86.99,86.32,87.09,86.32z"/>
			</g>
		</g>
		<g id="XMLID_1428_">
			<g id="XMLID_1429_">
				<polygon class="st20" points="88.92,98.19 58.78,115.59 58.78,110.37 88.92,92.97 				"/>
			</g>
			<g>
				<path class="st10" d="M81.01,100.4c0.19,0,0.33,0.14,0.37,0.36c0.05,0.28-0.08,0.62-0.29,0.8c-0.09,0.08-0.19,0.12-0.28,0.12
					c-0.19,0-0.33-0.14-0.37-0.36c-0.05-0.28,0.08-0.62,0.29-0.8C80.82,100.44,80.92,100.4,81.01,100.4z"/>
			</g>
			<g>
				<path class="st10" d="M83.04,99.24c0.19,0,0.33,0.14,0.37,0.36c0.05,0.28-0.08,0.62-0.29,0.8c-0.09,0.08-0.19,0.12-0.29,0.12
					c-0.19,0-0.33-0.14-0.37-0.36c-0.05-0.28,0.08-0.62,0.29-0.8C82.84,99.29,82.94,99.24,83.04,99.24z"/>
			</g>
			<g>
				<path class="st10" d="M85.06,98.09c0.19,0,0.33,0.14,0.37,0.36c0.05,0.28-0.08,0.62-0.29,0.8c-0.09,0.08-0.19,0.12-0.29,0.12h0
					c-0.19,0-0.33-0.14-0.37-0.36c-0.05-0.28,0.08-0.62,0.29-0.8C84.87,98.13,84.97,98.09,85.06,98.09z"/>
			</g>
			<g>
				<path class="st10" d="M87.09,96.93c0.19,0,0.33,0.14,0.37,0.36c0.05,0.28-0.08,0.62-0.29,0.8c-0.09,0.08-0.19,0.12-0.29,0.12
					c-0.19,0-0.33-0.14-0.37-0.36c-0.05-0.28,0.08-0.62,0.29-0.8C86.89,96.97,86.99,96.93,87.09,96.93z"/>
			</g>
		</g>






		<g class="uptime-use_bg">
			<defs>
				<path id="SVGID_1_" d="M54.81,72.7c1.02,9.51,7.03,14.49,12.44,14.49c2.32,0,4.63-0.79,6.87-2.36c0.54-0.37,1.06-0.79,1.57-1.23
					c5.65-5,9.26-14.07,8.97-22.57c-0.02-0.66-0.07-1.29-0.13-1.93c-1.02-9.52-7.03-14.5-12.44-14.5c-2.32,0-4.62,0.79-6.86,2.35
					C58.35,51.75,53.77,63.06,54.81,72.7z"/>
			</defs>
			<clipPath id="SVGID_2_">
				<use xlink:href="#SVGID_1_"  style="overflow:visible;"/>
			</clipPath>
			<g class="st21">
				<g id="Группа_1_">
					<g>
						<path class="st2" d="M75.84,65.16c0,0-4.3-2.46-6.42-2.52c-2.12-0.06,5.24-7.94,5.24-7.94S76.61,61.62,75.84,65.16z"/>
					</g>
					<g>
						<g>
							<g>
								<path class="st6" d="M76.91,66.47c0.91,1.65,3.38,9.51,3.71,11.19l6.16-0.18l3.13,2.11c0,0-10.28,3.41-11.41,2.56
									c-1.13-0.85-5.65-11.05-6.04-13.88c-0.39-2.83,0.65-3.77,1.4-4.58C74.62,62.88,75.79,64.45,76.91,66.47z"/>
							</g>
						</g>
					</g>
					<g>
						<g>
							<g>
								<path class="st7" d="M76.95,85.18l1.79,15.25c-1.19,1.01-8.94,6.56-18.55,4.13l2.8-17.32C67.78,88.5,72.45,87.6,76.95,85.18
									z"/>
							</g>
						</g>
					</g>
					<g>
						<g>
							<g>
								<path class="st6" d="M61.65,67.59c0-4.8,5.07-4.94,5.07-4.94l4.07-0.35c0,0,2.94,0.78,3.86,1.26
									c0.2,0.1,0.32,0.87,0.58,2.19c0.97,1.67,2.17,3.98,2.19,5.54c0.03,2.02-1.28,4.23-1.48,5.06l1.64,11.73
									c0,0-8.43,5.89-15.73,3.43c0,0,1.75-8.16,1.35-10.91C62.31,74.38,61.65,69.3,61.65,67.59z"/>
							</g>
						</g>
					</g>
					<g>
						<g>
							<g>
								<path class="st6" d="M63.78,63.74c1.17-0.43,2.13,2.02,2.41,4.45c0.23,1.99-0.68,10.61-1.08,12.36l9.19,3.38l-0.63,4.57
									c0,0-12-3.3-12.82-4.62c-0.82-1.32-1.03-13.1-0.18-15.98C61.52,65.02,62.62,64.17,63.78,63.74z"/>
							</g>
						</g>
					</g>
					<g>
						<g>
							<g>
								<path class="st22" d="M67.69,59.16l4.1,0.5c0,0-1.81,2.29-0.56,3.63c1.73,1.85,2.26,6.95,2.26,6.95s-9.23-2.94-7.16-6.95
									C67.24,61.52,67.69,59.16,67.69,59.16z"/>
							</g>
						</g>
					</g>
					<g>
						<g>
							<g>
								<path class="st22" d="M72.13,52.14c1.06,0.25,2.07,1.64,2.26,4.16c0.19,2.52-0.76,4.75-1.51,5.6c-0.76,0.85-2.46,0-2.46,0
									l-2.55-1.89l-0.28-0.94l-0.47-3.69C67.11,55.38,70.48,51.75,72.13,52.14z"/>
							</g>
						</g>
					</g>
					<g>
						<g>
							<g>
								<path class="st1" d="M66.84,50.23c1.8-1.17,4.03-0.76,5.04-0.21c1.26,0.69,1.1,1.48,1.1,1.48c3.31,0,3.72,6.86,3.57,10.02
									c-0.26,5.28-1.85,7.91-1.85,7.91c2.27-6.78,0.39-14.92-2.33-16.89c0,0-2.81,0.67-4.22,4.69c-0.72,2.06,0.62,9.85,2.98,13.35
									c-6.19-0.62-8.68-5.82-7.54-7.1C64.28,62.7,61.35,53.81,66.84,50.23z"/>
							</g>
						</g>
					</g>
					<g>
						<g>
							<g>
								<path class="st22" d="M72.69,84.19c0.23,0.11,0.23,0.11,0.5,0.45c0.49,0.6,1.52,0.83,1.68,1.63
									c0.13,0.61,0.12,0.84-0.62,1.03c-0.88,0.23-2.55-0.55-2.66-1.45c-0.12-0.9,0.07-1.19,0.37-1.51
									C72.15,84.14,72.4,84.05,72.69,84.19z"/>
							</g>
						</g>
					</g>
					<g>
						<g>
							<g>
								<path class="st22" d="M88.09,77.31c0.22,0.13,0.22,0.13,0.51,0.43c0.54,0.54,1.44,0.93,1.75,1.55
									c0.23,0.47,0.28,0.64-0.29,0.62c-0.69-0.02-2.24-0.95-2.52-1.63c-0.29-0.68-0.2-0.85-0.02-1.02
									C87.63,77.16,87.82,77.15,88.09,77.31z"/>
							</g>
						</g>
					</g>
				</g>
			</g>
		</g>
	</g>










	<g class="uptime_clock">
		<g>
			<g>
				<g>
					<g>
						<path class="st0" d="M104.91,183.7c11.03-7.74,29.29-7.95,40.78-0.48c11.49,7.47,11.87,19.81,0.84,27.54
							c-11.03,7.74-29.29,7.95-40.78,0.48C94.26,203.77,93.88,191.44,104.91,183.7z"/>
					</g>
				</g>
			</g>
		</g>
		<g>
			<g class="st12">
				<g>
					<g>
						<polygon class="st23" points="151.35,136.09 149.31,139.89 142.55,135.2 144.59,131.4 						"/>
					</g>
				</g>
				<g>
					<g>
						<polygon class="st24" points="155.71,138.05 151.35,136.09 144.59,131.4 148.95,133.36 						"/>
					</g>
				</g>
				<g>
					<g>
						<polygon class="st10" points="155.71,138.05 153.67,141.85 149.31,139.89 151.35,136.09 						"/>
					</g>
				</g>
			</g>
		</g>
		<g class="st12">
			<g>
				<path class="st2" d="M143.5,130.68c0-0.01,0-0.01,0-0.01c0,0,0,0,0-0.01c0.01-0.06,0.02-0.13,0.03-0.2
					c0-0.02,0.01-0.04,0.02-0.07c0.01-0.03,0.02-0.07,0.03-0.1c0.01-0.03,0.01-0.06,0.02-0.09c0.01-0.02,0.02-0.04,0.03-0.07
					c0.03-0.1,0.08-0.2,0.12-0.3c0.01-0.03,0.02-0.05,0.03-0.08c0.01-0.02,0.02-0.05,0.04-0.07l0.17-0.33
					c0.06-0.11,0.12-0.21,0.19-0.31c0.02-0.03,0.05-0.06,0.07-0.09c0.05-0.06,0.1-0.13,0.15-0.19c0.01-0.01,0.02-0.03,0.04-0.04
					c0.01-0.01,0.03-0.02,0.04-0.04c0.09-0.09,0.17-0.18,0.27-0.25c0,0,0.01-0.01,0.01-0.01c0,0,0,0,0,0
					c0.01-0.01,0.03-0.02,0.04-0.03c0.05-0.04,0.1-0.07,0.15-0.11c0.01,0,0.01-0.01,0.02-0.01c0.01-0.01,0.03-0.02,0.04-0.02
					c0.03-0.02,0.06-0.03,0.08-0.05c0.03-0.02,0.07-0.03,0.1-0.05c0,0,0.01,0,0.01-0.01c0,0,0,0,0.01,0
					c0.03-0.01,0.07-0.03,0.1-0.04c0.03-0.01,0.06-0.02,0.09-0.03c0.01,0,0.01,0,0.02,0c0,0,0.01,0,0.01,0
					c0.02,0,0.03-0.01,0.05-0.01c0.02-0.01,0.05-0.01,0.07-0.01c0.02,0,0.04,0,0.07-0.01c0.01,0,0.01,0,0.02,0c0.01,0,0.03,0,0.04,0
					c0.02,0,0.04,0,0.06,0c0.02,0,0.04,0,0.06,0c0.01,0,0.02,0,0.03,0.01c0,0,0.01,0,0.01,0c0.01,0,0.02,0,0.02,0
					c0.02,0,0.04,0.01,0.06,0.02c0.03,0.01,0.05,0.02,0.08,0.03c0.01,0,0.01,0,0.02,0.01l4.93,2.22c0.04,0.02,0.08,0.04,0.11,0.07
					l6.76,4.69c-0.04-0.02-0.07-0.05-0.11-0.07l-4.93-2.22c-0.06-0.03-0.12-0.04-0.18-0.05c0,0-0.01,0-0.01,0
					c-0.06-0.01-0.13-0.01-0.19-0.01c-0.07,0-0.14,0.02-0.21,0.03c0,0-0.01,0-0.01,0c-0.07,0.02-0.14,0.04-0.21,0.07
					c0,0-0.01,0-0.01,0.01c-0.06,0.03-0.12,0.06-0.19,0.1c-0.01,0.01-0.03,0.01-0.04,0.02c-0.06,0.04-0.11,0.08-0.17,0.12
					c-0.01,0.01-0.03,0.02-0.04,0.03c-0.01,0-0.01,0.01-0.02,0.02c-0.09,0.07-0.18,0.16-0.27,0.25c-0.03,0.03-0.05,0.05-0.07,0.08
					c-0.05,0.06-0.1,0.12-0.15,0.19c-0.02,0.03-0.05,0.06-0.07,0.09c-0.07,0.1-0.13,0.2-0.19,0.31l-0.17,0.32
					c-0.03,0.05-0.05,0.1-0.07,0.15c-0.05,0.1-0.09,0.2-0.12,0.3c-0.02,0.05-0.04,0.1-0.05,0.16c-0.01,0.03-0.02,0.07-0.03,0.1
					c-0.02,0.09-0.04,0.18-0.05,0.27c0,0,0,0.01,0,0.01c-0.01,0.1-0.02,0.19-0.02,0.29c0,0.01,0,0.01,0,0.02
					c0,0.09,0.01,0.18,0.03,0.26c0,0,0,0,0,0c0.02,0.08,0.04,0.16,0.07,0.24c0,0,0,0,0,0.01c0.03,0.07,0.07,0.13,0.11,0.19
					c0,0,0.01,0.01,0.01,0.01c0.05,0.06,0.1,0.11,0.16,0.15l0,0v0l-6.76-4.69c-0.05-0.04-0.1-0.08-0.15-0.13
					c0-0.01-0.01-0.01-0.01-0.02c0,0-0.01-0.01-0.01-0.01c-0.01-0.01-0.02-0.03-0.03-0.04c-0.01-0.02-0.03-0.04-0.04-0.06
					c-0.01-0.02-0.02-0.04-0.03-0.06c0-0.01-0.01-0.02-0.01-0.02c0,0,0-0.01,0-0.01c0-0.01-0.01-0.02-0.01-0.03
					c-0.01-0.02-0.02-0.04-0.02-0.07c-0.01-0.02-0.01-0.05-0.02-0.07c-0.01-0.02-0.01-0.04-0.01-0.07c0,0,0,0,0,0c0,0,0-0.01,0-0.01
					c-0.01-0.03-0.01-0.06-0.01-0.09c0-0.03-0.01-0.06-0.01-0.1c0-0.02,0-0.05,0-0.08c0-0.01,0-0.01,0-0.02c0-0.01,0-0.02,0-0.02
					c0-0.04,0-0.09,0-0.13C143.49,130.78,143.5,130.73,143.5,130.68z"/>
			</g>
			<g>
				<g>
					<path class="st1" d="M150.77,134.06c0.42-0.77,1.08-1.28,1.64-1.31c0.14-0.01,0.27,0.01,0.38,0.07l4.93,2.22
						c0.6,0.27,0.67,1.27,0.16,2.23l-0.17,0.32c-0.41,0.77-1.08,1.28-1.64,1.31c-0.14,0.01-0.27-0.01-0.39-0.07l-4.93-2.22
						c-0.6-0.27-0.68-1.27-0.16-2.23L150.77,134.06z"/>
				</g>
			</g>
		</g>
		<g>
			<path class="st5" d="M98.3,177.93c0-0.37,0.01-0.74,0.02-1.11c0-0.15,0.01-0.29,0.02-0.44c0.01-0.12,0.01-0.24,0.02-0.37
				c0.01-0.2,0.03-0.4,0.05-0.6c0.01-0.19,0.03-0.38,0.04-0.58c0.03-0.34,0.07-0.68,0.11-1.02c0.02-0.16,0.03-0.33,0.06-0.49
				c0-0.04,0.01-0.07,0.01-0.11c0.03-0.19,0.06-0.37,0.09-0.56c0.05-0.34,0.1-0.68,0.15-1.01c0.04-0.23,0.09-0.47,0.13-0.7
				c0.06-0.32,0.12-0.65,0.19-0.97c0.01-0.07,0.02-0.13,0.04-0.2c0.08-0.39,0.17-0.78,0.27-1.17c0.01-0.05,0.03-0.09,0.04-0.14
				c0.11-0.44,0.22-0.87,0.34-1.31c0.04-0.13,0.07-0.26,0.11-0.4c0.12-0.42,0.25-0.84,0.38-1.26c0.02-0.06,0.04-0.12,0.06-0.19
				c0.01-0.02,0.01-0.04,0.02-0.06c0.03-0.1,0.07-0.2,0.1-0.29c0.16-0.48,0.32-0.96,0.5-1.43c0.07-0.2,0.15-0.41,0.23-0.61
				c0.15-0.39,0.3-0.77,0.45-1.16c0.09-0.22,0.18-0.44,0.27-0.66c0.16-0.37,0.32-0.75,0.49-1.12c0.1-0.21,0.19-0.43,0.29-0.64
				c0.18-0.4,0.38-0.79,0.57-1.18c0.07-0.14,0.13-0.28,0.2-0.41c0.02-0.04,0.05-0.09,0.07-0.13c0.16-0.31,0.32-0.61,0.48-0.91
				c0.12-0.22,0.23-0.44,0.35-0.65c0.18-0.32,0.36-0.64,0.54-0.95c0.11-0.2,0.22-0.39,0.34-0.59c0.22-0.37,0.45-0.73,0.67-1.1
				c0.09-0.14,0.17-0.28,0.26-0.42c0.32-0.5,0.64-0.99,0.98-1.48c0.07-0.1,0.15-0.21,0.22-0.31c0.27-0.38,0.53-0.76,0.81-1.14
				c0.13-0.17,0.26-0.34,0.39-0.52c0.23-0.3,0.45-0.6,0.68-0.9c0.15-0.19,0.3-0.37,0.45-0.56c0.22-0.27,0.44-0.54,0.66-0.81
				c0.16-0.19,0.33-0.38,0.5-0.57c0.22-0.25,0.44-0.51,0.66-0.76c0.04-0.04,0.08-0.09,0.12-0.13c0.11-0.13,0.23-0.25,0.35-0.37
				c0.26-0.28,0.52-0.56,0.79-0.84c0.17-0.18,0.34-0.35,0.52-0.52c0.26-0.26,0.52-0.52,0.78-0.77c0.18-0.17,0.36-0.34,0.54-0.51
				c0.27-0.25,0.53-0.49,0.8-0.73c0.18-0.16,0.37-0.33,0.55-0.49c0.28-0.24,0.57-0.48,0.85-0.71c0.13-0.1,0.25-0.22,0.38-0.32
				c0.07-0.06,0.14-0.11,0.21-0.17c0.09-0.07,0.19-0.15,0.28-0.22c0.34-0.27,0.69-0.53,1.04-0.78c0.06-0.04,0.11-0.09,0.17-0.13
				c0.39-0.28,0.79-0.56,1.19-0.82c0.1-0.07,0.2-0.13,0.3-0.19c0.13-0.09,0.27-0.18,0.4-0.26c0.18-0.11,0.36-0.22,0.54-0.33
				c0.13-0.08,0.26-0.16,0.4-0.24c0.43-0.25,0.86-0.5,1.29-0.74c0.2-0.11,0.39-0.21,0.58-0.31c0.22-0.11,0.44-0.22,0.66-0.33
				c0.12-0.06,0.25-0.12,0.37-0.19c0.44-0.21,0.87-0.41,1.3-0.59c0.02-0.01,0.04-0.02,0.06-0.02c0.06-0.03,0.11-0.05,0.17-0.07
				c0.39-0.16,0.78-0.32,1.17-0.46c0.11-0.04,0.22-0.08,0.33-0.12c0.09-0.03,0.18-0.07,0.27-0.1c0.33-0.12,0.66-0.22,0.99-0.32
				c0.06-0.02,0.12-0.03,0.18-0.05c0.2-0.06,0.4-0.12,0.6-0.17c0.21-0.06,0.43-0.11,0.64-0.16c0.04-0.01,0.07-0.02,0.11-0.03
				c0.29-0.07,0.58-0.13,0.86-0.19c0.09-0.02,0.17-0.03,0.25-0.04c0.27-0.05,0.53-0.1,0.8-0.14c0.15-0.02,0.29-0.05,0.44-0.07
				c0.07-0.01,0.15-0.01,0.22-0.02c0.24-0.03,0.48-0.05,0.72-0.08c0.16-0.01,0.31-0.04,0.47-0.05c0.14-0.01,0.28-0.02,0.42-0.03
				c0.29-0.02,0.57-0.02,0.85-0.03c0.02,0,0.05,0,0.07,0c0.04,0,0.07,0,0.11,0c0.39,0,0.78,0.01,1.17,0.03c0.01,0,0.02,0,0.03,0
				c0,0,0.01,0,0.01,0c0.4,0.02,0.79,0.06,1.19,0.11c0.03,0,0.07,0.01,0.11,0.01c0.02,0,0.04,0.01,0.06,0.01
				c0.4,0.05,0.79,0.12,1.17,0.2c0.03,0.01,0.07,0.01,0.1,0.02c0.04,0.01,0.08,0.02,0.13,0.03c0.13,0.03,0.25,0.06,0.37,0.09
				c0.11,0.03,0.22,0.05,0.33,0.08c0.12,0.03,0.25,0.07,0.37,0.1c0.07,0.02,0.15,0.04,0.22,0.06c0.03,0.01,0.06,0.02,0.09,0.03
				c0.22,0.07,0.44,0.14,0.66,0.22c0.03,0.01,0.07,0.02,0.1,0.03c0.25,0.09,0.5,0.19,0.74,0.29c0.02,0.01,0.04,0.01,0.06,0.02
				c0.06,0.02,0.11,0.05,0.17,0.08c0.16,0.07,0.32,0.14,0.48,0.22c0.09,0.04,0.17,0.08,0.26,0.12c0.15,0.07,0.29,0.15,0.44,0.23
				c0.08,0.04,0.17,0.09,0.25,0.13c0.15,0.09,0.3,0.17,0.45,0.26c0.07,0.04,0.14,0.08,0.21,0.12c0.22,0.14,0.43,0.27,0.64,0.42
				l8.33,5.78c-0.21-0.14-0.42-0.28-0.64-0.42c-0.07-0.04-0.14-0.08-0.21-0.13c-0.15-0.09-0.3-0.18-0.45-0.26
				c-0.08-0.05-0.17-0.09-0.25-0.14c-0.15-0.08-0.29-0.15-0.44-0.23c-0.09-0.04-0.17-0.08-0.26-0.12c-0.16-0.07-0.32-0.15-0.48-0.22
				c-0.08-0.03-0.15-0.07-0.23-0.1c-0.24-0.1-0.49-0.2-0.74-0.29c-0.03-0.01-0.07-0.02-0.11-0.04c-0.22-0.08-0.43-0.15-0.66-0.22
				c-0.1-0.03-0.2-0.06-0.31-0.09c-0.12-0.03-0.24-0.07-0.37-0.1c-0.11-0.03-0.22-0.05-0.33-0.08c-0.12-0.03-0.25-0.06-0.37-0.08
				c-0.08-0.02-0.15-0.03-0.23-0.05c-0.39-0.08-0.78-0.15-1.17-0.2c-0.05-0.01-0.11-0.01-0.16-0.02c-0.39-0.05-0.79-0.09-1.19-0.11
				c-0.01,0-0.03,0-0.04,0c-0.39-0.02-0.78-0.03-1.17-0.03c-0.06,0-0.12,0-0.18,0c-0.28,0-0.57,0.01-0.85,0.03
				c-0.29,0.02-0.59,0.05-0.88,0.08c-0.24,0.02-0.48,0.05-0.72,0.08c-0.22,0.03-0.44,0.06-0.66,0.1c-0.26,0.04-0.53,0.08-0.8,0.14
				c-0.37,0.07-0.74,0.15-1.12,0.24c-0.04,0.01-0.07,0.02-0.11,0.03c-0.41,0.1-0.82,0.21-1.24,0.34c-0.06,0.02-0.12,0.04-0.19,0.05
				c-0.42,0.13-0.84,0.27-1.26,0.42c-0.11,0.04-0.22,0.08-0.33,0.12c-0.39,0.14-0.78,0.3-1.17,0.46c-0.06,0.02-0.11,0.05-0.17,0.07
				c-0.45,0.19-0.91,0.4-1.36,0.62c-0.12,0.06-0.25,0.12-0.37,0.19c-0.41,0.21-0.83,0.41-1.24,0.64c-0.43,0.24-0.86,0.48-1.29,0.74
				c-0.13,0.08-0.26,0.16-0.39,0.24c-0.32,0.19-0.63,0.39-0.94,0.6c-0.1,0.06-0.2,0.13-0.29,0.19c-0.4,0.27-0.8,0.54-1.2,0.83
				c-0.06,0.04-0.11,0.08-0.17,0.12c-0.35,0.25-0.69,0.51-1.04,0.78c-0.09,0.07-0.19,0.15-0.28,0.22c-0.2,0.16-0.4,0.32-0.6,0.49
				c-0.29,0.23-0.57,0.47-0.85,0.71c-0.19,0.16-0.37,0.32-0.55,0.49c-0.27,0.24-0.54,0.48-0.8,0.73c-0.18,0.17-0.37,0.34-0.55,0.51
				c-0.26,0.25-0.52,0.51-0.78,0.77c-0.17,0.17-0.35,0.35-0.52,0.52c-0.27,0.28-0.53,0.56-0.79,0.84c-0.16,0.17-0.31,0.34-0.47,0.51
				c-0.22,0.25-0.44,0.5-0.66,0.75c-0.17,0.19-0.33,0.38-0.5,0.58c-0.22,0.27-0.44,0.54-0.66,0.81c-0.15,0.19-0.31,0.37-0.46,0.57
				c-0.23,0.29-0.45,0.59-0.68,0.89c-0.13,0.17-0.26,0.35-0.39,0.52c-0.27,0.37-0.54,0.75-0.8,1.13c-0.07,0.1-0.15,0.21-0.22,0.31
				c-0.33,0.49-0.66,0.98-0.98,1.48c-0.09,0.14-0.17,0.28-0.26,0.41c-0.23,0.36-0.46,0.73-0.67,1.1c-0.12,0.19-0.22,0.39-0.34,0.59
				c-0.18,0.32-0.37,0.64-0.54,0.96c-0.12,0.22-0.23,0.43-0.35,0.65c-0.16,0.31-0.32,0.61-0.48,0.92c-0.09,0.18-0.18,0.36-0.27,0.55
				c-0.19,0.39-0.39,0.79-0.57,1.18c-0.1,0.21-0.2,0.43-0.29,0.64c-0.17,0.37-0.33,0.74-0.49,1.11c-0.09,0.22-0.18,0.44-0.27,0.66
				c-0.16,0.38-0.31,0.77-0.45,1.16c-0.08,0.2-0.16,0.41-0.23,0.61c-0.17,0.48-0.34,0.96-0.5,1.44c-0.04,0.12-0.08,0.23-0.12,0.35
				c-0.02,0.06-0.04,0.12-0.06,0.19c-0.13,0.42-0.26,0.84-0.38,1.26c-0.04,0.13-0.08,0.26-0.11,0.39c-0.12,0.43-0.24,0.87-0.34,1.3
				c-0.01,0.05-0.03,0.09-0.04,0.14c-0.11,0.46-0.21,0.91-0.31,1.37c-0.07,0.32-0.13,0.64-0.19,0.97c-0.04,0.23-0.09,0.47-0.13,0.7
				c-0.06,0.34-0.11,0.68-0.16,1.01c-0.03,0.22-0.07,0.44-0.1,0.66c-0.02,0.17-0.04,0.33-0.06,0.49c-0.04,0.34-0.08,0.68-0.11,1.02
				c-0.02,0.19-0.03,0.38-0.04,0.58c-0.02,0.33-0.05,0.65-0.06,0.97c-0.01,0.15-0.01,0.29-0.02,0.44c-0.01,0.37-0.02,0.74-0.02,1.11
				c0,0.11,0,0.22,0,0.33c0,0.46,0.01,0.91,0.03,1.36c0,0.11,0.01,0.21,0.02,0.31c0.03,0.45,0.05,0.9,0.1,1.35
				c0.04,0.39,0.09,0.78,0.14,1.16c0.07,0.51,0.15,1.01,0.24,1.5c0.02,0.11,0.05,0.22,0.07,0.34c0.07,0.36,0.15,0.72,0.24,1.07
				c0.04,0.16,0.08,0.31,0.12,0.46c0.08,0.29,0.16,0.59,0.25,0.87c0.05,0.15,0.09,0.3,0.14,0.45c0.1,0.31,0.21,0.61,0.32,0.91
				c0.04,0.11,0.08,0.22,0.12,0.32c0.16,0.4,0.33,0.79,0.5,1.17c0.04,0.08,0.08,0.15,0.11,0.23c0.15,0.32,0.31,0.63,0.48,0.93
				c0.06,0.11,0.12,0.22,0.19,0.33c0.19,0.33,0.39,0.66,0.6,0.98c0.05,0.07,0.09,0.15,0.14,0.22c0.06,0.1,0.13,0.19,0.2,0.28
				c0.12,0.17,0.25,0.35,0.38,0.52c0.08,0.1,0.16,0.2,0.24,0.3c0.12,0.15,0.23,0.29,0.35,0.43c0.14,0.16,0.27,0.31,0.41,0.46
				c0.1,0.11,0.2,0.22,0.3,0.33c0.15,0.16,0.3,0.3,0.46,0.45c0.1,0.09,0.2,0.19,0.3,0.29c0.17,0.16,0.35,0.31,0.53,0.46
				c0.09,0.08,0.17,0.15,0.26,0.22c0.27,0.21,0.55,0.42,0.83,0.62l-8.33-5.78c-0.28-0.2-0.56-0.41-0.83-0.62
				c-0.09-0.07-0.18-0.15-0.26-0.22c-0.18-0.15-0.36-0.3-0.53-0.46c-0.1-0.09-0.2-0.19-0.3-0.29c-0.15-0.15-0.31-0.29-0.46-0.45
				c-0.1-0.11-0.2-0.22-0.3-0.33c-0.14-0.15-0.28-0.31-0.41-0.46c-0.04-0.05-0.08-0.09-0.12-0.13c-0.08-0.1-0.16-0.2-0.23-0.3
				c-0.08-0.1-0.16-0.2-0.24-0.3c-0.13-0.17-0.25-0.34-0.38-0.52c-0.07-0.09-0.13-0.19-0.2-0.28c-0.02-0.02-0.03-0.05-0.05-0.07
				c-0.03-0.05-0.06-0.1-0.09-0.15c-0.21-0.32-0.41-0.65-0.6-0.98c-0.03-0.06-0.07-0.11-0.11-0.17c-0.03-0.05-0.05-0.11-0.08-0.16
				c-0.17-0.3-0.32-0.61-0.48-0.93c-0.03-0.06-0.06-0.12-0.09-0.18c-0.01-0.02-0.01-0.03-0.02-0.05c-0.18-0.38-0.34-0.77-0.5-1.18
				c-0.01-0.02-0.02-0.04-0.03-0.06c-0.03-0.08-0.06-0.17-0.09-0.26c-0.11-0.3-0.22-0.6-0.32-0.91c-0.02-0.06-0.04-0.11-0.06-0.17
				c-0.03-0.09-0.05-0.19-0.08-0.28c-0.09-0.29-0.17-0.58-0.25-0.87c-0.02-0.09-0.05-0.18-0.08-0.27c-0.02-0.06-0.03-0.13-0.04-0.2
				c-0.09-0.35-0.16-0.7-0.24-1.06c-0.02-0.09-0.04-0.17-0.06-0.26c0-0.03-0.01-0.05-0.01-0.07c-0.09-0.49-0.17-0.99-0.24-1.5
				c0-0.03-0.01-0.07-0.02-0.1c-0.05-0.35-0.09-0.7-0.12-1.05c-0.03-0.28-0.05-0.55-0.07-0.83c-0.01-0.17-0.02-0.35-0.03-0.52
				c-0.01-0.1-0.01-0.21-0.02-0.31c-0.02-0.41-0.03-0.83-0.03-1.24c0-0.04,0-0.08,0-0.12C98.3,178.15,98.3,178.04,98.3,177.93z"/>
		</g>
		<g>
			<path class="st4" d="M131.46,142.43c4.06-2.21,8-3.36,11.63-3.56c9.98-0.53,17.6,6.19,18.75,18.19
				c1.58,16.36-9.47,36.35-24.67,44.63c-4.06,2.21-8,3.36-11.63,3.56c-9.98,0.53-17.6-6.19-18.76-18.19
				C105.2,170.7,116.25,150.72,131.46,142.43z"/>
		</g>
		<g>
			<path class="st25" d="M134.52,147.27c3.28-1.79,6.57-2.81,9.52-2.97c0.27-0.01,0.54-0.02,0.81-0.02c2.96,0,5.41,0.87,7.29,2.59
				c2.36,2.15,3.83,5.63,4.26,10.06c1.38,14.31-8.83,32.6-22.29,39.94c-3.28,1.79-6.57,2.81-9.52,2.97
				c-0.27,0.02-0.54,0.02-0.81,0.02c-2.96,0-5.41-0.87-7.3-2.59c-2.36-2.15-3.83-5.63-4.26-10.05
				C110.84,172.89,121.05,154.6,134.52,147.27z"/>
		</g>
		<g>
			<g>
				<path class="st11" d="M117.3,176.19l0.32-2.39l-3.99,0.67c1.24-4.23,3.18-8.44,5.65-12.33l2.47,1.75l1.46-2.15l-2.48-1.76
					c2.88-4.07,6.34-7.68,10.16-10.43l0.51,4.14l1.15-0.55l0.65,5.34c-0.04,0.01-0.08,0.01-0.13,0.03
					c-0.48,0.23-0.83,0.83-0.76,1.34l1.23,10.06c0,0.01,0.01,0.03,0.01,0.04c-0.86,0.79-1.39,2.01-1.28,3.09l-20.11,9.58
					c0.12-1.87,0.4-3.79,0.84-5.71L117.3,176.19z"/>
			</g>
			<g>
				<path class="st11" d="M133.09,174.48c0.38,0.24,0.86,0.32,1.39,0.2l-5.6,15.72c-0.17,0.48-0.61,0.82-1,0.76
					c-0.38-0.05-0.56-0.48-0.39-0.95L133.09,174.48z"/>
			</g>
			<g>
				<path class="st11" d="M134.56,170.62c0.69-0.33,1.33-0.01,1.41,0.71c0.09,0.73-0.4,1.58-1.09,1.91
					c-0.69,0.33-1.33,0.01-1.41-0.72C133.38,171.8,133.87,170.95,134.56,170.62z"/>
			</g>
			<g>
				<path class="st13" d="M133.56,169.96c-0.86,0.79-1.39,2.01-1.28,3.09c0,0.02,0,0.03,0,0.05c0.08,0.64,0.38,1.11,0.81,1.39
					c0.38,0.24,0.86,0.32,1.39,0.2c0.18-0.04,0.37-0.1,0.55-0.19c1.35-0.64,2.3-2.31,2.13-3.73c-0.13-1.09-0.9-1.71-1.86-1.64
					c0-0.01,0-0.03,0-0.04l-1.23-10.06c-0.06-0.46-0.43-0.67-0.86-0.53c-0.04,0.01-0.08,0.01-0.13,0.03
					c-0.48,0.23-0.83,0.83-0.76,1.34l1.23,10.06C133.55,169.94,133.55,169.95,133.56,169.96z M134.56,170.62
					c0.69-0.33,1.33-0.01,1.41,0.71c0.09,0.73-0.4,1.58-1.09,1.91c-0.69,0.33-1.33,0.01-1.41-0.72
					C133.38,171.8,133.87,170.95,134.56,170.62z"/>
			</g>
			<g>
				<path class="st13" d="M133.5,152.7l-0.94,0.45l-1.15,0.55l-0.51-4.14c0.67-0.48,1.36-0.94,2.05-1.37L133.5,152.7z"/>
			</g>
			<g>
				<path class="st13" d="M123.21,161.74l-1.46,2.15l-2.47-1.75c0.47-0.73,0.95-1.45,1.45-2.16L123.21,161.74z"/>
			</g>
			<g>
				<path class="st13" d="M117.62,173.81l-0.32,2.39l-4.29,0.72c0.19-0.81,0.39-1.63,0.63-2.44L117.62,173.81z"/>
			</g>
			<g>
				<path class="st13" d="M116.93,187.94l-3.91,3.42c-0.2-0.68-0.37-1.38-0.51-2.13l3.48-3.05L116.93,187.94z"/>
			</g>
			<g>
				<path class="st13" d="M125.97,195.1l-2.04,4.75c-0.05,0-0.1,0-0.15,0c-0.64,0-1.26-0.05-1.85-0.13l2.2-5.1L125.97,195.1z"/>
			</g>
			<g>
				<path class="st13" d="M138.15,194.25c-0.67,0.5-1.36,0.97-2.05,1.42l-0.47-4.57l2.1-0.96L138.15,194.25z"/>
			</g>
			<g>
				<path class="st13" d="M148.84,182.74c-0.48,0.73-0.97,1.44-1.49,2.14l-2.46-2.24l1.59-2.05L148.84,182.74z"/>
			</g>
			<g>
				<path class="st13" d="M155.05,169.41c-0.23,0.81-0.49,1.62-0.77,2.43l-3.3,0.23l0.5-2.41L155.05,169.41z"/>
			</g>
			<g>
				<path class="st13" d="M156.39,156.92L156.39,156.92l-3.58,2.73l-0.77-1.89l4.02-3.05C156.2,155.41,156.32,156.15,156.39,156.92z
					"/>
			</g>
			<g>
				<path class="st13" d="M148.95,144.95l-2.63,5.18l-1.76-0.69l2.53-4.97C147.74,144.57,148.36,144.73,148.95,144.95z"/>
			</g>
		</g>
		<g>
			<g class="st12">
				<g>
					<g>
						<polygon class="st26" points="134.52,133.64 125.72,138.43 119.24,133.93 128.04,129.14 						"/>
					</g>
				</g>
				<g>
					<g>
						<polygon class="st27" points="126.27,144.09 119.79,139.59 119.24,133.93 125.72,138.43 						"/>
					</g>
				</g>
				<g>
					<g>
						<polygon class="st10" points="135.06,139.3 126.27,144.09 125.72,138.43 134.52,133.64 						"/>
					</g>
				</g>
			</g>
		</g>
		<g class="st12">
			<g>
				<path class="st2" d="M116.09,132.77c0-0.05,0-0.1,0-0.15c0-0.02,0-0.03,0-0.05c0-0.03,0.01-0.07,0.01-0.1
					c0-0.03,0-0.06,0.01-0.09c0-0.02,0.01-0.04,0.01-0.06c0.01-0.05,0.02-0.1,0.03-0.15c0-0.03,0.01-0.05,0.01-0.08
					c0-0.01,0.01-0.03,0.01-0.04c0.03-0.11,0.05-0.22,0.09-0.34l0,0c0-0.01,0.01-0.02,0.01-0.03c0.03-0.09,0.06-0.18,0.1-0.27
					c0.01-0.03,0.03-0.06,0.04-0.1c0.03-0.07,0.06-0.13,0.09-0.19c0.01-0.01,0.01-0.03,0.02-0.04c0.01-0.01,0.01-0.02,0.02-0.03
					c0.08-0.16,0.17-0.31,0.27-0.46c0.01-0.02,0.03-0.04,0.04-0.06c0.1-0.15,0.21-0.29,0.33-0.42c0.01-0.01,0.01-0.02,0.02-0.03
					c0.01-0.01,0.02-0.02,0.04-0.04c0.04-0.05,0.09-0.09,0.13-0.13c0.03-0.03,0.06-0.06,0.09-0.08c0.05-0.05,0.1-0.09,0.15-0.13
					c0.02-0.02,0.04-0.04,0.06-0.06c0,0,0.01-0.01,0.01-0.01c0.09-0.07,0.18-0.13,0.27-0.19c0.01,0,0.01-0.01,0.02-0.01
					c0.06-0.04,0.12-0.08,0.19-0.11l9.75-5.32c0.02-0.01,0.03-0.02,0.05-0.03c0.07-0.03,0.13-0.07,0.2-0.09c0,0,0,0,0.01,0
					c0.01,0,0.01,0,0.02-0.01c0.05-0.02,0.1-0.04,0.14-0.06c0.02-0.01,0.04-0.01,0.06-0.02c0.01,0,0.03-0.01,0.04-0.01
					c0.01,0,0.03-0.01,0.04-0.01c0.05-0.01,0.09-0.02,0.14-0.03c0.01,0,0.02,0,0.03-0.01c0.01,0,0.02,0,0.03-0.01
					c0.02,0,0.04-0.01,0.06-0.01c0.04-0.01,0.08-0.01,0.12-0.01c0.01,0,0.02,0,0.04,0c0.03,0,0.05,0,0.08,0c0.04,0,0.07,0,0.11,0
					c0.02,0,0.03,0,0.05,0c0.01,0,0.02,0,0.02,0c0.01,0,0.02,0,0.04,0c0.04,0,0.07,0.01,0.11,0.02c0.02,0,0.04,0.01,0.06,0.02
					c0.01,0,0.02,0,0.03,0.01c0.01,0,0.02,0,0.03,0.01c0.05,0.01,0.09,0.03,0.14,0.05c0.01,0,0.01,0.01,0.02,0.01
					c0.08,0.03,0.15,0.08,0.22,0.12l6.48,4.5c-0.07-0.05-0.15-0.09-0.22-0.12c-0.06-0.03-0.12-0.05-0.18-0.07
					c-0.01,0-0.02,0-0.03-0.01c-0.07-0.02-0.14-0.03-0.21-0.04c-0.01,0-0.02,0-0.02,0c-0.08-0.01-0.16-0.01-0.24-0.01
					c-0.07,0-0.14,0.01-0.21,0.03c-0.01,0-0.02,0-0.03,0c-0.07,0.01-0.14,0.03-0.21,0.05c-0.01,0.01-0.03,0.01-0.04,0.01
					c-0.07,0.02-0.14,0.05-0.21,0.08c-0.01,0-0.01,0-0.02,0.01c-0.08,0.03-0.17,0.07-0.25,0.12l-9.75,5.32
					c-0.07,0.04-0.14,0.08-0.21,0.12c-0.09,0.06-0.18,0.12-0.27,0.19c-0.03,0.02-0.05,0.04-0.07,0.06c-0.05,0.04-0.1,0.09-0.15,0.13
					c-0.03,0.03-0.06,0.06-0.08,0.08c-0.04,0.04-0.09,0.09-0.13,0.13c-0.02,0.02-0.04,0.04-0.06,0.07
					c-0.12,0.13-0.23,0.27-0.33,0.42c-0.01,0.02-0.03,0.04-0.04,0.06c-0.1,0.15-0.19,0.3-0.27,0.46c-0.01,0.03-0.03,0.05-0.04,0.08
					c-0.03,0.06-0.06,0.13-0.09,0.19c-0.01,0.03-0.03,0.06-0.04,0.1c-0.04,0.09-0.07,0.17-0.1,0.26c0,0.01-0.01,0.02-0.01,0.03
					c-0.04,0.11-0.07,0.22-0.09,0.34c-0.01,0.04-0.02,0.08-0.02,0.12c-0.01,0.05-0.02,0.1-0.03,0.15c-0.01,0.05-0.01,0.09-0.02,0.14
					c0,0.03-0.01,0.07-0.01,0.1c0,0.07-0.01,0.13-0.01,0.2c0,0.01,0,0.03,0,0.04c0,0.08,0,0.17,0.01,0.25l0.07,0.71
					c0.01,0.14,0.04,0.28,0.07,0.4c0,0.01,0,0.01,0.01,0.02c0.03,0.12,0.08,0.23,0.13,0.34c0,0,0.01,0.01,0.01,0.01
					c0.05,0.1,0.12,0.19,0.18,0.27c0.08,0.09,0.16,0.17,0.26,0.24l-6.48-4.5c-0.1-0.07-0.18-0.15-0.26-0.24c0,0-0.01-0.01-0.01-0.01
					c-0.03-0.04-0.06-0.08-0.09-0.12c-0.02-0.03-0.05-0.07-0.07-0.11c0-0.01-0.01-0.02-0.01-0.03c0,0,0-0.01-0.01-0.02
					c-0.01-0.02-0.02-0.04-0.03-0.06c-0.02-0.04-0.03-0.07-0.05-0.11c-0.01-0.04-0.03-0.07-0.04-0.11
					c-0.01-0.02-0.01-0.03-0.01-0.05c0-0.01,0-0.01-0.01-0.02c0-0.02-0.01-0.03-0.01-0.05c-0.01-0.04-0.02-0.08-0.03-0.13
					c-0.01-0.04-0.02-0.09-0.02-0.14c0-0.03-0.01-0.06-0.01-0.09l-0.07-0.71c0-0.02,0-0.05,0-0.07c0-0.06-0.01-0.12-0.01-0.17
					c0,0,0-0.01,0-0.01C116.09,132.8,116.09,132.79,116.09,132.77z"/>
			</g>
			<g>
				<g>
					<path class="st1" d="M124.65,133.83l9.75-5.32c0.34-0.19,0.67-0.28,0.97-0.3c0.83-0.04,1.47,0.52,1.57,1.52l0.07,0.71
						c0.13,1.37-0.79,3.04-2.07,3.73l-9.75,5.32c-0.34,0.18-0.67,0.28-0.97,0.3c-0.83,0.04-1.47-0.52-1.57-1.52l-0.07-0.71
						C122.45,136.2,123.38,134.52,124.65,133.83z"/>
				</g>
			</g>
		</g>
		<g>
			<g class="st12">
				<g>
					<g>
						<polygon class="st28" points="111.27,154.57 106.88,162.3 98.55,156.52 102.94,148.79 						"/>
					</g>
				</g>
				<g>
					<g>
						<polygon class="st29" points="114.4,156.18 111.27,154.57 102.94,148.79 106.07,150.39 						"/>
					</g>
				</g>
				<g>
					<g>
						<polygon class="st10" points="114.4,156.18 110.01,163.91 106.88,162.3 111.27,154.57 						"/>
					</g>
				</g>
			</g>
		</g>
		<g>
			<g class="st12">
				<g>
					<path class="st2" d="M95.12,156.62c0-0.01,0-0.01,0-0.02c0-0.01,0-0.01,0-0.01c0.01-0.08,0.02-0.15,0.04-0.23
						c0.01-0.03,0.02-0.06,0.02-0.09c0.01-0.04,0.02-0.07,0.03-0.11c0.01-0.03,0.02-0.07,0.03-0.1c0.01-0.03,0.03-0.06,0.04-0.1
						c0.04-0.1,0.08-0.2,0.12-0.3c0.02-0.03,0.03-0.07,0.04-0.1c0.03-0.05,0.06-0.11,0.09-0.16l4.85-8.54
						c0.07-0.11,0.14-0.22,0.21-0.32c0.02-0.03,0.05-0.07,0.08-0.1c0.05-0.07,0.1-0.13,0.16-0.19c0.01-0.01,0.01-0.01,0.02-0.02
						c0.01-0.02,0.03-0.03,0.04-0.04c0.09-0.1,0.18-0.18,0.28-0.26c0.02-0.01,0.03-0.03,0.05-0.04c0.01-0.01,0.03-0.02,0.04-0.03
						c0.03-0.03,0.07-0.05,0.1-0.07c0.03-0.02,0.06-0.04,0.09-0.06c0.02-0.02,0.05-0.03,0.07-0.04c0.02-0.01,0.04-0.02,0.06-0.04
						c0.02-0.01,0.03-0.02,0.05-0.03c0.05-0.03,0.1-0.05,0.15-0.07c0.01,0,0.02-0.01,0.03-0.01c0.01-0.01,0.02-0.01,0.03-0.01
						c0.03-0.01,0.05-0.02,0.07-0.03c0.04-0.01,0.08-0.03,0.12-0.04c0.02,0,0.03-0.01,0.05-0.01c0.01,0,0.01,0,0.02-0.01
						c0.01,0,0.02-0.01,0.04-0.01c0.03-0.01,0.06-0.01,0.09-0.02c0.03,0,0.06-0.01,0.09-0.01c0.01,0,0.02,0,0.03,0
						c0.02,0,0.04,0,0.06,0c0.03,0,0.05,0,0.08,0c0.03,0,0.05,0,0.08,0.01c0.02,0,0.05,0.01,0.07,0.01c0,0,0,0,0.01,0
						c0,0,0,0,0.01,0c0.03,0.01,0.06,0.01,0.09,0.02c0.03,0.01,0.07,0.02,0.1,0.04c0.02,0.01,0.05,0.02,0.07,0.03l0.41,0.22
						c0.04,0.02,0.08,0.04,0.11,0.07l8.33,5.78c-0.04-0.02-0.07-0.05-0.11-0.07l-0.41-0.22c-0.09-0.04-0.18-0.08-0.27-0.09
						c0,0,0,0,0,0c-0.09-0.02-0.19-0.02-0.29-0.02c-0.08,0-0.16,0.02-0.25,0.04c-0.01,0-0.01,0-0.02,0
						c-0.08,0.02-0.16,0.05-0.23,0.08c-0.01,0-0.02,0.01-0.03,0.01c-0.08,0.03-0.15,0.07-0.22,0.11c-0.02,0.01-0.04,0.02-0.06,0.03
						c-0.05,0.03-0.11,0.07-0.16,0.1c-0.03,0.02-0.07,0.05-0.1,0.07c-0.03,0.02-0.06,0.05-0.09,0.07c-0.1,0.08-0.19,0.17-0.28,0.26
						c-0.02,0.02-0.04,0.04-0.06,0.06c-0.05,0.06-0.11,0.13-0.16,0.19c-0.03,0.03-0.05,0.06-0.08,0.1c-0.07,0.1-0.14,0.21-0.21,0.32
						l-4.85,8.54c-0.05,0.09-0.09,0.17-0.13,0.26c-0.05,0.1-0.09,0.2-0.12,0.3c-0.02,0.07-0.05,0.13-0.07,0.19
						c-0.01,0.04-0.02,0.07-0.03,0.11c-0.03,0.11-0.05,0.22-0.07,0.33c0,0.01,0,0.01,0,0.02c-0.01,0.12-0.02,0.23-0.02,0.35
						c0,0.01,0,0.02,0,0.03c0,0.11,0.02,0.22,0.04,0.32c0,0,0,0.01,0,0.01c0.02,0.1,0.05,0.2,0.1,0.29c0,0,0,0,0,0.01
						c0.04,0.09,0.09,0.17,0.15,0.25c0,0,0.01,0.01,0.01,0.01c0.06,0.07,0.13,0.14,0.21,0.2l-8.33-5.78
						c-0.07-0.05-0.14-0.12-0.2-0.18c0,0-0.01-0.01-0.01-0.01c0,0-0.01-0.01-0.01-0.01c-0.02-0.02-0.04-0.05-0.05-0.07
						c-0.02-0.03-0.04-0.06-0.05-0.08c-0.01-0.03-0.03-0.05-0.04-0.08c0,0,0-0.01,0-0.01c0,0,0-0.01,0-0.01
						c-0.01-0.02-0.02-0.04-0.03-0.06c-0.01-0.03-0.02-0.06-0.03-0.09c-0.01-0.03-0.02-0.06-0.03-0.09c0-0.02-0.01-0.03-0.01-0.05
						c0,0,0-0.01,0-0.01c0-0.01,0-0.02-0.01-0.03c-0.01-0.04-0.01-0.07-0.02-0.11c-0.01-0.04-0.01-0.08-0.01-0.12
						c0-0.02,0-0.04,0-0.07c0-0.01,0-0.02,0-0.03c0-0.02,0-0.03,0-0.04c0-0.05,0-0.1,0-0.16C95.11,156.72,95.12,156.67,95.12,156.62
						z"/>
				</g>
				<g>
					<g>
						<path class="st1" d="M108.71,152.65c0.49-0.87,1.27-1.43,1.95-1.46c0.2-0.01,0.4,0.03,0.57,0.11l0.41,0.22
							c0.75,0.38,0.84,1.61,0.2,2.74l-4.85,8.54c-0.49,0.86-1.27,1.42-1.94,1.46c-0.2,0.01-0.39-0.02-0.57-0.11l-0.42-0.21
							c-0.75-0.38-0.83-1.61-0.19-2.74L108.71,152.65z"/>
					</g>
				</g>
			</g>
		</g>
	</g>
</g>
</svg>
