<?xml version="1.0" encoding="utf-8"?>
<!-- Generator: Adobe Illustrator 16.0.0, SVG Export Plug-In . SVG Version: 6.00 Build 0)  -->
<!DOCTYPE svg PUBLIC "-//W3C//DTD SVG 1.1//EN" "http://www.w3.org/Graphics/SVG/1.1/DTD/svg11.dtd">
<svg version="1.1" id="Layer_1" xmlns="http://www.w3.org/2000/svg" xmlns:xlink="http://www.w3.org/1999/xlink" x="0px" y="0px"
	 viewBox="0 0 190 216.711" enable-background="new 0 0 190 216.711" xml:space="preserve">
	 <style xmlns="http://www.w3.org/2000/svg" type="text/css">

.guarantee_mac {
	animation-name: macAnimate;
   	animation-duration: 7s;
   	animation-iteration-count: 1;
   	transform-origin: 50% 50%;
}

@keyframes macAnimate {
	0%   { transform: translate(100px, 0); }
	20%  { transform: translate(0, 5px); }

}

.mac_user {
	animation-name: userAnimate;
	animation-duration: 4s;
	animation-iteration-count: infinite;
}

@keyframes userAnimate {
	0%   { opacity: 1; }
	50%  { opacity: 0.5; }
	100% { opacity: 1; }
}

.clock_flip {
	transform-origin:55% 50%;
	-moz-transform-origin:55% 50%;
	animation-count: 1;
	animation: flip_left 2.5s;
}
@keyframes flip_left {
  0% {transform: perspective(2000px) rotateY(90deg) skewY(-1deg)}
  30% {transform:perspective(2000px) rotateY(-25deg) skewY(-0.8deg)}
  50% {transform:perspective(2000px) rotateY(20deg) skewY(0.8deg)}
  70% {transform:perspective(2000px) rotateY(-10deg) skewY(-0.8deg)}
  100% {transform:perspective(2000px) rotateY(0deg)}
}

.first_block {
	animation-name: block-1;
   	animation-duration: 5.3s;
   	animation-iteration-count: infinite;
   	transform-origin: 50% 50%;
}

@keyframes block-1 {
	0%   { transform: translate(0, 0); }
	50%  { transform: translate(5px, 0); }
}

.second_block {
	animation-name: block-2;
   	animation-duration: 5.3s;
   	animation-iteration-count: infinite;
   	transform-origin: 50% 50%;
}

@keyframes block-2 {
	0%   { transform: translate(0, 0); }
	50%  { transform: translate(-4px, 0); }
}

.third_block {
	animation-name: block-3;
   	animation-duration: 3.6s;
   	animation-iteration-count: 1;
   	transform-origin: 50% 50%;
}

@keyframes block-3 {
	0%   { transform: translate(0, -50px); }
	50%  { transform: translate(0, 0); }
}


	 </style>


<g>
	<path fill="#D1DDFF" d="M50.426,94.008l-28.22-15.857c-1.868-1.05-4.149-1.048-6.015,0.003L3.118,85.529
		c-4.162,2.347-4.157,8.343,0.009,10.684l28.22,15.857c1.868,1.05,4.149,1.048,6.015-0.004l13.073-7.374
		C54.597,102.345,54.592,96.349,50.426,94.008"/>
	<polygon class="third_block" fill="#FFDB5A" points="11.482,86.564 31.819,98.384 45.846,90.286 25.508,78.466 	"/>
	<polygon class="third_block" fill="#FFBD59" points="11.482,86.564 11.485,96.879 31.823,108.699 31.82,98.384 	"/>
	<polygon class="third_block" fill="#FFDB5A" points="23.936,97.874 31.824,99.826 20.286,93.12 	"/>
	<polygon class="third_block" fill="#FFDB5A" points="10.653,95.403 17.261,95.965 11.492,92.611 	"/>
	<polygon class="third_block" fill="#FD9C3D" points="31.82,98.385 31.823,108.699 45.85,100.601 45.846,90.286 	"/>
	<polygon class="third_block" fill="#FFBD59" points="38.41,100.152 46.447,99.291 45.846,95.832 	"/>


	<polygon class="second_block" fill="#FF65A7" points="4.585,75.551 24.922,87.371 38.949,79.272 18.611,67.453 	"/>
	<polygon class="second_block" fill="#EE428C" points="4.585,75.551 4.588,85.867 24.926,97.686 24.922,87.371 	"/>
	<polygon class="second_block" fill="#FF65A7" points="17.038,86.86 24.926,88.813 13.388,82.106 	"/>
	<polygon class="second_block" fill="#FF65A7" points="3.756,84.389 10.364,84.951 4.595,81.598 	"/>
	<polygon class="second_block" fill="#BC4274" points="24.922,87.371 24.926,97.685 38.952,89.587 38.949,79.272 	"/>
	<polygon class="second_block" fill="#EE428C" points="31.513,89.139 39.55,88.277 38.95,84.818 	"/>


	<polygon class="first_block" fill="#26E0BF" points="14.444,67.794 34.781,79.615 48.808,71.517 28.47,59.697 	"/>
	<polygon class="first_block" fill="#09A88C" points="14.444,67.794 14.447,78.11 34.785,89.929 34.781,79.615 	"/>
	<polygon class="first_block" fill="#26E0BF" points="26.897,79.104 34.785,81.056 23.248,74.351 	"/>
	<polygon class="first_block" fill="#26E0BF" points="13.615,76.634 20.223,77.194 14.454,73.842 	"/>
	<polygon class="first_block" fill="#00979C" points="34.782,79.615 34.785,89.928 48.812,81.832 48.808,71.516 	"/>
	<polygon class="first_block" fill="#09A88C" points="41.372,81.385 49.408,80.521 48.808,77.063 	"/>


	<path class="guarantee_mac" fill="#D1DDFF" d="M157.765,156.413l-44.726-25.588c-1.256-0.726-2.929-1.126-4.707-1.126c-1.88,0-3.719,0.44-5.177,1.237
		l-15.908,8.71c-1.713,0.94-2.757,2.304-2.864,3.744c-0.105,1.424,0.721,2.753,2.266,3.646l44.725,25.587
		c1.258,0.727,2.931,1.126,4.71,1.126c1.879,0,3.717-0.439,5.174-1.236l15.91-8.711c1.712-0.938,2.755-2.301,2.862-3.741
		C160.136,158.636,159.311,157.307,157.765,156.413"/>

	<path  class="guarantee_mac" fill="#FFFFFF" d="M150.651,151.31l-32.331-18.812c-2.368-1.376-6.191-1.376-8.574-0.001l-12.307,7.253
		c-2.384,1.375-2.415,3.603-0.047,4.978l32.33,18.812c2.349,1.366,6.21,1.366,8.593-0.011l12.308-7.251
		C153.005,154.9,152.999,152.675,150.651,151.31"/>

	<path  class="guarantee_mac" fill="#9899EF" d="M150.622,156.277l-12.307,7.251c-1.187,0.686-2.741,1.027-4.293,1.031c-1.561,0.005-3.121-0.336-4.3-1.02
		l-32.33-18.813c-1.172-0.679-1.756-1.568-1.758-2.46l0.007,2.475c0.002,0.89,0.586,1.778,1.758,2.46l32.331,18.812
		c1.176,0.684,2.732,1.025,4.292,1.022c1.554-0.004,3.111-0.347,4.3-1.032l12.308-7.253c1.196-0.691,1.791-1.597,1.788-2.499
		l-0.008-2.474C152.413,154.679,151.819,155.585,150.622,156.277"/>

	<polygon  class="guarantee_mac" fill="#6E6FDA" points="134.714,156.729 138.991,154.244 139.041,136.657 134.765,139.144 	"/>

	<polygon  class="guarantee_mac" fill="#113A52" points="108.787,124.102 134.765,139.144 139.042,136.657 113.065,121.615 	"/>

	<polygon  class="guarantee_mac" fill="#9899EF" points="108.738,141.687 134.715,156.729 134.764,139.144 108.788,124.102 	"/>

	<path  class="guarantee_mac" fill="#9899EF" d="M186.18,61.708L78.999,0.524c-1.073-0.612-2.046-0.67-2.747-0.267l-3.811,2.19
		c0.7-0.403,1.673-0.344,2.746,0.268l107.182,61.184c2.105,1.203,3.827,4.13,3.819,6.542l-0.176,93.931
		c-0.004,1.2-0.435,2.046-1.127,2.443l3.812-2.189c0.691-0.397,1.123-1.242,1.126-2.442L190,68.251
		C190.008,65.839,188.286,62.911,186.18,61.708"/>

	<path  class="guarantee_mac" fill="#F6F4F6" d="M182.368,63.899L75.187,2.714c-2.123-1.211-3.855-0.254-3.862,2.158l-0.177,93.931
		c-0.008,2.412,1.713,5.36,3.837,6.572l107.181,61.185c2.105,1.2,3.838,0.226,3.846-2.187l0.176-93.932
		C186.195,68.029,184.474,65.101,182.368,63.899"/>

	<polygon  class="guarantee_mac" fill="#6E6FDA" points="75.389,96.339 181.769,157.065 181.769,70.465 75.389,9.737 	"/>

	<polygon  class="guarantee_mac" fill="#2D4383" points="79.221,94.151 177.938,150.505 177.938,72.654 79.221,16.298 	"/>

	<polygon  class="guarantee_mac" fill="#6E6FDA" points="75.722,95.626 91.367,104.527 91.367,19.178 75.722,10.273 	"/>

	<polygon  class="guarantee_mac" fill="#4C4DC3" points="79.404,28.931 88.263,34.044 88.263,24.696 79.404,19.581 	"/>

	<polygon  class="guarantee_mac" fill="#4C4DC3" points="79.404,40.947 88.263,46.061 88.263,36.713 79.404,31.596 	"/>

	<polygon  class="guarantee_mac" fill="#4C4DC3" points="79.404,80.287 88.263,85.4 88.263,76.053 79.404,70.937 	"/>

	<polygon  class="guarantee_mac" fill="#4C4DC3" points="79.404,92.303 88.263,97.417 88.263,88.069 79.404,82.954 	"/>

	<polygon  class="guarantee_mac" fill="#4C4DC3" points="79.404,68.176 88.263,73.29 88.263,48.729 79.404,43.614 	"/>

	<polygon  class="guarantee_mac" fill-rule="evenodd" clip-rule="evenodd" fill="#FFFFFF" points="148.927,70.245 156.543,74.507 156.543,73.103 
		148.927,68.842 	"/>

	<polygon  class="guarantee_mac" fill-rule="evenodd" clip-rule="evenodd" fill="#4C4DC3" points="159.436,76.125 169.717,81.878 169.717,80.474 
		159.436,74.721 	"/>

	<polygon  class="guarantee_mac" fill-rule="evenodd" clip-rule="evenodd" fill="#4C4DC3" points="144.293,71.525 154.071,76.997 154.071,75.592 
		144.293,70.122 	"/>

	<polygon  class="guarantee_mac" fill-rule="evenodd" clip-rule="evenodd" fill="#4C4DC3" points="156.026,78.09 161.156,80.96 161.156,79.558 
		156.026,76.688 	"/>

	<polygon  class="guarantee_mac" fill-rule="evenodd" clip-rule="evenodd" fill="#FFFFFF" points="163.36,82.194 169.716,85.751 169.716,84.346 
		163.36,80.791 	"/>

	<polygon  class="guarantee_mac" fill-rule="evenodd" clip-rule="evenodd" fill="#4C4DC3" points="147.468,76.762 158.581,82.982 158.581,81.579 
		147.468,75.36 	"/>

	<polygon  class="guarantee_mac" fill-rule="evenodd" clip-rule="evenodd" fill="#4C4DC3" points="160.241,83.911 163.56,85.767 163.56,84.364 
		160.241,82.507 	"/>

	<polygon  class="guarantee_mac" fill-rule="evenodd" clip-rule="evenodd" fill="#4C4DC3" points="144.293,78.724 151.813,82.932 151.813,81.527 
		144.293,77.32 	"/>

	<polygon  class="guarantee_mac" fill-rule="evenodd" clip-rule="evenodd" fill="#FFFFFF" points="153.313,83.771 157.267,85.983 157.267,84.579 
		153.313,82.368 	"/>

	<polygon  class="guarantee_mac" fill-rule="evenodd" clip-rule="evenodd" fill="#4C4DC3" points="158.96,86.931 163.85,89.667 163.85,88.264 
		158.96,85.527 	"/>

	<polygon  class="guarantee_mac" fill-rule="evenodd" clip-rule="evenodd" fill="#4C4DC3" points="152.35,86.702 161.156,91.63 161.156,90.225 
		152.35,85.299 	"/>

	<polygon  class="guarantee_mac" fill-rule="evenodd" clip-rule="evenodd" fill="#FFFFFF" points="142.52,88.135 152.845,93.912 152.845,92.507 
		142.52,86.731 	"/>

	<polygon  class="guarantee_mac" fill-rule="evenodd" clip-rule="evenodd" fill="#4C4DC3" points="144.293,85.656 154.071,91.127 154.071,89.723 144.293,84.253 	"/>

	<polygon  class="guarantee_mac" fill-rule="evenodd" clip-rule="evenodd" fill="#FFFFFF" points="156.026,92.222 161.156,95.09 161.156,93.688 
		156.026,90.817 	"/>

	<polygon  class="guarantee_mac" fill-rule="evenodd" clip-rule="evenodd" fill="#4C4DC3" points="163.36,96.325 169.716,99.882 169.716,98.477 
		163.36,94.921 	"/>

	<polygon  class="guarantee_mac" fill-rule="evenodd" clip-rule="evenodd" fill="#4C4DC3" points="154.802,95.005 163.85,100.068 163.85,98.665 
		154.802,93.602 	"/>

	<polygon  class="guarantee_mac" fill-rule="evenodd" clip-rule="evenodd" fill="#4C4DC3" points="149.182,95.715 163.396,103.668 163.396,102.265 
		149.182,94.313 	"/>

	<polygon  class="guarantee_mac" fill-rule="evenodd" clip-rule="evenodd" fill="#4C4DC3" points="149.182,98.906 156.633,103.074 156.633,101.672 
		149.182,97.502 	"/>

	<polygon  class="guarantee_mac" fill-rule="evenodd" clip-rule="evenodd" fill="#4C4DC3" points="145.512,100.322 158.582,107.635 158.582,106.223 
		145.512,98.911 	"/>

	<polygon  class="guarantee_mac" fill-rule="evenodd" clip-rule="evenodd" fill="#FFFFFF" points="160.241,108.564 163.56,110.42 163.56,109.008 
		160.241,107.152 	"/>

	<polygon  class="guarantee_mac" fill-rule="evenodd" clip-rule="evenodd" fill="#4C4DC3" points="150.111,106.357 161.955,112.985 161.955,111.582 
		150.111,104.954 	"/>

	<polygon  class="guarantee_mac" fill-rule="evenodd" clip-rule="evenodd" fill="#4C4DC3" points="163.719,113.972 167.259,115.951 167.259,114.549 
		163.719,112.568 	"/>

	<polygon  class="guarantee_mac" fill-rule="evenodd" clip-rule="evenodd" fill="#FFFFFF" points="153.313,111.891 157.267,114.103 157.267,112.698 
		153.313,110.487 	"/>

	<polygon  class="guarantee_mac" fill-rule="evenodd" clip-rule="evenodd" fill="#4C4DC3" points="158.96,115.05 163.85,117.785 163.85,116.382 
		158.96,113.646 	"/>

	<polygon  class="guarantee_mac" fill-rule="evenodd" clip-rule="evenodd" fill="#4C4DC3" points="152.35,114.821 161.156,119.75 161.156,118.345 
		152.35,113.418 	"/>

	<polygon  class="guarantee_mac" fill-rule="evenodd" clip-rule="evenodd" fill="#FFFFFF" points="149.182,116.697 169.716,128.187 169.716,126.783 
		149.182,115.293 	"/>

	<polygon  class="guarantee_mac" fill-rule="evenodd" clip-rule="evenodd" fill="#4C4DC3" points="149.182,119.961 156.633,124.128 156.633,122.726 
		149.182,118.556 	"/>

	<polygon  class="guarantee_mac" fill-rule="evenodd" clip-rule="evenodd" fill="#4C4DC3" points="158.589,125.223 163.119,127.758 163.119,126.354 
		158.589,123.818 	"/>

	<polygon  class="guarantee_mac" fill-rule="evenodd" clip-rule="evenodd" fill="#4C4DC3" points="165.323,128.991 169.716,131.449 169.716,130.045 
		165.323,127.588 	"/>

	<polygon  class="guarantee_mac" fill-rule="evenodd" clip-rule="evenodd" fill="#FFFFFF" points="145.512,121.368 158.582,128.68 158.582,127.277 
		145.512,119.965 	"/>

	<polygon  class="guarantee_mac" fill-rule="evenodd" clip-rule="evenodd" fill="#4C4DC3" points="160.241,129.609 163.56,131.466 163.56,130.063 
		160.241,128.205 	"/>

	<path  class="guarantee_mac" fill="#FFFFFF" d="M124.776,46.958c-2.239-1.558-4.541-2.349-6.863-2.349c-5.412,0-11.416,4.98-12.439,14.5
		c-0.065,0.634-0.114,1.268-0.132,1.927c-0.291,8.5,3.317,17.572,8.97,22.57c0.509,0.44,1.027,0.863,1.569,1.232
		c2.238,1.566,4.549,2.358,6.872,2.358c5.402,0,11.415-4.98,12.437-14.492C136.227,63.061,131.647,51.754,124.776,46.958"/>

	<polygon  class="guarantee_mac" fill-rule="evenodd" clip-rule="evenodd" fill="#D1DDFF" points="101.08,87.193 131.221,104.594 131.221,99.375 
		101.08,81.974 	"/>

	<path  class="guarantee_mac" fill="#FFFFFF" d="M115.062,93.268c-0.187,0-0.331,0.144-0.369,0.365c-0.048,0.277,0.077,0.621,0.289,0.8
		c0.09,0.077,0.188,0.116,0.285,0.116c0.188,0,0.332-0.142,0.369-0.364c0.047-0.276-0.077-0.62-0.289-0.8
		C115.257,93.308,115.159,93.268,115.062,93.268"/>

	<path  class="guarantee_mac" fill="#FFFFFF" d="M113.037,92.109c-0.188,0-0.332,0.145-0.37,0.365c-0.047,0.278,0.078,0.621,0.289,0.801
		c0.09,0.076,0.188,0.116,0.286,0.116c0.186,0,0.331-0.142,0.369-0.364c0.047-0.277-0.077-0.621-0.289-0.801
		C113.232,92.15,113.134,92.109,113.037,92.109"/>

	<path  class="guarantee_mac" fill="#FFFFFF" d="M111.012,90.952c-0.188,0-0.332,0.144-0.369,0.364c-0.047,0.278,0.077,0.62,0.288,0.801
		c0.09,0.076,0.188,0.116,0.286,0.116c0.187,0,0.332-0.142,0.369-0.364c0.047-0.277-0.077-0.621-0.289-0.801
		C111.208,90.992,111.108,90.952,111.012,90.952"/>

	<path  class="guarantee_mac" fill="#FFFFFF" d="M108.986,89.793c-0.187,0-0.331,0.144-0.369,0.364c-0.048,0.278,0.077,0.621,0.289,0.802
		c0.09,0.075,0.188,0.115,0.285,0.115c0.188,0,0.332-0.142,0.369-0.364c0.047-0.276-0.077-0.621-0.289-0.801
		C109.182,89.834,109.084,89.793,108.986,89.793"/>

	<path  class="guarantee_mac" fill="#FFFFFF" d="M106.962,88.635c-0.188,0-0.332,0.144-0.37,0.364c-0.047,0.278,0.078,0.622,0.289,0.801
		c0.09,0.076,0.188,0.116,0.286,0.116c0.186,0,0.332-0.142,0.369-0.364c0.047-0.276-0.077-0.621-0.289-0.8
		C107.157,88.676,107.059,88.635,106.962,88.635"/>

	<path  class="guarantee_mac" fill="#FFFFFF" d="M104.937,87.478c-0.187,0-0.333,0.143-0.369,0.364c-0.048,0.277,0.077,0.621,0.289,0.801
		c0.09,0.075,0.188,0.116,0.285,0.116c0.188,0,0.331-0.143,0.369-0.364c0.047-0.276-0.077-0.621-0.289-0.801
		C105.132,87.518,105.034,87.478,104.937,87.478"/>

	<path  class="guarantee_mac" fill="#FFFFFF" d="M102.912,86.32c-0.188,0-0.332,0.143-0.37,0.364c-0.047,0.277,0.078,0.621,0.289,0.801
		c0.089,0.076,0.188,0.116,0.286,0.116c0.186,0,0.331-0.143,0.369-0.364c0.047-0.276-0.077-0.621-0.289-0.801
		C103.107,86.36,103.009,86.32,102.912,86.32"/>

	<polygon  class="guarantee_mac" fill-rule="evenodd" clip-rule="evenodd" fill="#D1DDFF" points="101.08,98.187 131.221,115.587 131.221,110.368 
		101.08,92.967 	"/>

	<path  class="guarantee_mac" fill="#FFFFFF" d="M108.986,100.402c-0.187,0-0.331,0.145-0.369,0.365c-0.048,0.276,0.077,0.621,0.289,0.801
		c0.09,0.076,0.188,0.115,0.285,0.115c0.188,0,0.332-0.143,0.369-0.365c0.047-0.275-0.077-0.619-0.289-0.799
		C109.182,100.443,109.084,100.402,108.986,100.402"/>

	<path  class="guarantee_mac" fill="#FFFFFF" d="M106.962,99.244c-0.188,0-0.332,0.144-0.37,0.365c-0.047,0.276,0.078,0.619,0.289,0.801
		c0.09,0.076,0.188,0.115,0.286,0.115c0.186,0,0.332-0.142,0.369-0.363c0.047-0.277-0.077-0.621-0.289-0.801
		C107.157,99.285,107.059,99.244,106.962,99.244"/>

	<path  class="guarantee_mac" fill="#FFFFFF" d="M104.937,98.086c-0.187,0-0.333,0.144-0.369,0.364c-0.048,0.278,0.077,0.622,0.289,0.801
		c0.09,0.076,0.188,0.115,0.285,0.115c0.188,0,0.331-0.142,0.369-0.363c0.047-0.276-0.077-0.621-0.289-0.801
		C105.132,98.126,105.034,98.086,104.937,98.086"/>

	<path  class="guarantee_mac" fill="#FFFFFF" d="M102.912,96.928c-0.188,0-0.332,0.144-0.37,0.364c-0.047,0.278,0.078,0.622,0.289,0.801
		c0.089,0.076,0.188,0.116,0.286,0.116c0.186,0,0.331-0.142,0.369-0.364c0.047-0.276-0.077-0.62-0.289-0.801
		C103.107,96.969,103.009,96.928,102.912,96.928"/>

</g>

<g class="mac_user">
	<defs>
		<path id="SVGID_1_" d="M105.474,59.109c-0.065,0.634-0.114,1.267-0.132,1.927c-0.291,8.5,3.317,17.572,8.97,22.57
			c0.509,0.44,1.027,0.863,1.569,1.232c2.238,1.567,4.549,2.359,6.872,2.359c5.403,0,11.414-4.981,12.438-14.493
			c1.036-9.644-3.543-20.95-10.414-25.746c-2.239-1.558-4.54-2.349-6.864-2.349C112.501,44.609,106.497,49.589,105.474,59.109"/>
	</defs>
	<clipPath id="SVGID_2_">
		<use xlink:href="#SVGID_1_"  overflow="visible"/>
	</clipPath>
	<path clip-path="url(#SVGID_2_)" fill="#FFBD59" d="M114.158,65.157c0,0,4.299-2.465,6.419-2.521
		c2.121-0.058-5.244-7.94-5.244-7.94S113.385,61.619,114.158,65.157"/>
	<path clip-path="url(#SVGID_2_)" fill="#BC4274" d="M113.089,66.468c-0.914,1.651-3.385,9.51-3.713,11.194l-6.158-0.183
		l-3.133,2.112c0,0,10.281,3.409,11.412,2.564c1.132-0.846,5.648-11.048,6.04-13.879c0.393-2.829-0.646-3.773-1.402-4.584
		C115.379,62.877,114.208,64.451,113.089,66.468"/>
	<path clip-path="url(#SVGID_2_)" fill="#26E0BF" d="M113.047,85.181l-1.787,15.251c1.188,1.007,8.944,6.557,18.552,4.127
		l-2.801-17.317C122.221,88.502,117.551,87.601,113.047,85.181"/>
	<path clip-path="url(#SVGID_2_)" fill="#BC4274" d="M128.347,67.59c0-4.804-5.067-4.942-5.067-4.942l-4.075-0.353
		c0,0-2.942,0.776-3.857,1.261c-0.196,0.101-0.316,0.868-0.581,2.192c-0.97,1.674-2.174,3.985-2.193,5.545
		c-0.027,2.021,1.281,4.232,1.476,5.055l-1.637,11.728c0,0,8.427,5.892,15.732,3.432c0,0-1.75-8.159-1.352-10.908
		C127.693,74.38,128.347,69.298,128.347,67.59"/>
	<path clip-path="url(#SVGID_2_)" fill="#BC4274" d="M126.216,63.737c-1.167-0.433-2.132,2.019-2.411,4.453
		c-0.229,1.987,0.677,10.606,1.086,12.361l-9.191,3.38l0.634,4.571c0,0,11.999-3.303,12.821-4.623
		c0.821-1.318,1.031-13.1,0.177-15.979C128.479,65.021,127.382,64.173,126.216,63.737"/>
	<path clip-path="url(#SVGID_2_)" fill="#FFAA83" d="M122.314,59.16l-4.099,0.496c0,0,1.813,2.285,0.557,3.628
		c-1.728,1.845-2.264,6.946-2.264,6.946s9.234-2.936,7.164-6.946C122.763,61.52,122.314,59.16,122.314,59.16"/>
	<path clip-path="url(#SVGID_2_)" fill="#FFAA83" d="M117.869,52.139c-1.056,0.248-2.066,1.636-2.255,4.161
		c-0.19,2.525,0.755,4.751,1.511,5.602c0.757,0.85,2.457,0,2.457,0l2.552-1.891l0.283-0.944l0.473-3.686
		C122.89,55.38,119.516,51.751,117.869,52.139"/>
	<path clip-path="url(#SVGID_2_)" fill="#FFDB5A" d="M123.156,50.226c-1.798-1.172-4.033-0.762-5.043-0.206
		c-1.264,0.694-1.104,1.481-1.104,1.481c-3.311,0-3.724,6.864-3.568,10.017c0.261,5.284,1.849,7.91,1.849,7.91
		c-2.27-6.78-0.388-14.918,2.333-16.889c0,0,2.811,0.668,4.219,4.685c0.721,2.059-0.617,9.854-2.984,13.351
		c6.189-0.623,8.68-5.822,7.545-7.102C125.722,62.703,128.65,53.807,123.156,50.226"/>
	<path clip-path="url(#SVGID_2_)" fill="#FFAA83" d="M117.313,84.185c-0.23,0.11-0.23,0.11-0.503,0.444
		c-0.491,0.602-1.517,0.835-1.682,1.635c-0.126,0.605-0.122,0.843,0.616,1.032c0.885,0.231,2.55-0.549,2.664-1.448
		c0.116-0.897-0.065-1.188-0.364-1.508C117.854,84.137,117.599,84.045,117.313,84.185"/>
	<path clip-path="url(#SVGID_2_)" fill="#FFAA83" d="M101.911,77.307c-0.216,0.132-0.216,0.132-0.514,0.434
		c-0.537,0.543-1.438,0.931-1.747,1.55c-0.234,0.467-0.282,0.639,0.29,0.619c0.687-0.024,2.236-0.948,2.524-1.626
		c0.289-0.678,0.2-0.851,0.021-1.02C102.372,77.158,102.179,77.146,101.911,77.307"/>
</g>


<g class="clock_flip">
	<path fill="#D1DDFF" d="M85.091,183.701c-11.029-7.736-29.287-7.953-40.782-0.481c-11.494,7.475-11.873,19.807-0.845,27.543
		c11.029,7.738,29.288,7.955,40.782,0.483C95.741,203.77,96.118,191.439,85.091,183.701"/>
	<polygon fill="#D7D5D9" points="38.648,136.091 40.692,139.892 47.453,135.196 45.41,131.398 	"/>
	<polygon fill="#7E7D7F" points="34.291,138.05 38.647,136.091 45.411,131.398 41.051,133.356 	"/>
	<polygon fill="#FFFFFF" points="34.291,138.05 36.334,141.848 40.691,139.892 38.647,136.091 	"/>
	<path fill="#FFBD59" d="M46.497,130.684c0-0.005,0-0.01-0.001-0.015c0-0.001,0-0.004-0.001-0.006
		c-0.008-0.063-0.019-0.129-0.034-0.194c-0.005-0.023-0.012-0.044-0.018-0.067c-0.008-0.035-0.018-0.069-0.028-0.104
		c-0.009-0.03-0.014-0.059-0.025-0.091c-0.007-0.021-0.018-0.044-0.026-0.064c-0.035-0.103-0.077-0.2-0.125-0.304
		c-0.012-0.023-0.019-0.05-0.032-0.075c-0.012-0.023-0.025-0.051-0.039-0.073l-0.174-0.326c-0.059-0.109-0.123-0.211-0.191-0.31
		c-0.022-0.032-0.045-0.06-0.068-0.091c-0.048-0.063-0.097-0.128-0.15-0.186c-0.011-0.014-0.023-0.031-0.035-0.044
		c-0.012-0.013-0.026-0.023-0.037-0.036c-0.086-0.091-0.174-0.177-0.267-0.248c-0.003-0.005-0.007-0.01-0.012-0.013
		c-0.002-0.002-0.003-0.003-0.005-0.003c-0.013-0.013-0.025-0.021-0.04-0.03c-0.048-0.036-0.098-0.074-0.148-0.106
		c-0.007-0.005-0.015-0.008-0.022-0.012c-0.013-0.009-0.026-0.016-0.039-0.022c-0.028-0.018-0.056-0.034-0.084-0.05
		c-0.035-0.017-0.069-0.033-0.103-0.05c-0.004-0.001-0.007-0.002-0.011-0.004c-0.002,0-0.004-0.002-0.006-0.002
		c-0.034-0.014-0.068-0.028-0.101-0.039c-0.029-0.011-0.058-0.019-0.087-0.027c-0.006-0.003-0.012-0.004-0.018-0.005
		c-0.004-0.002-0.008-0.002-0.012-0.003c-0.018-0.004-0.033-0.009-0.05-0.011c-0.023-0.005-0.048-0.009-0.072-0.014
		c-0.022-0.003-0.043-0.004-0.065-0.005c-0.007-0.002-0.014-0.002-0.02-0.002c-0.015-0.001-0.03-0.001-0.044-0.001
		c-0.02,0-0.04,0-0.06,0.001c-0.021,0.002-0.041,0.003-0.06,0.004c-0.01,0.002-0.02,0.005-0.029,0.006
		c-0.004,0-0.007,0.002-0.01,0.002c-0.007,0.001-0.015,0.002-0.022,0.004c-0.022,0.004-0.043,0.01-0.064,0.016
		c-0.025,0.008-0.05,0.018-0.076,0.027c-0.006,0.003-0.011,0.004-0.018,0.008l-4.933,2.215c-0.041,0.02-0.079,0.041-0.114,0.066
		l-6.761,4.692c0.036-0.024,0.073-0.047,0.114-0.065l4.933-2.215c0.057-0.025,0.117-0.044,0.18-0.056
		c0.003,0,0.006-0.001,0.009-0.003c0.063-0.009,0.127-0.013,0.193-0.009c0.068,0.003,0.137,0.016,0.207,0.032
		c0.004,0.001,0.009,0.001,0.013,0.003c0.07,0.017,0.14,0.043,0.211,0.073c0.004,0.001,0.007,0.004,0.011,0.006
		c0.063,0.027,0.125,0.06,0.188,0.098c0.013,0.007,0.026,0.015,0.039,0.022c0.058,0.036,0.114,0.076,0.172,0.12
		c0.013,0.011,0.025,0.018,0.038,0.026c0.006,0.004,0.012,0.012,0.018,0.017c0.091,0.074,0.179,0.159,0.265,0.249
		c0.025,0.025,0.05,0.052,0.073,0.081c0.051,0.058,0.102,0.122,0.15,0.186c0.023,0.029,0.046,0.059,0.067,0.09
		c0.068,0.098,0.134,0.2,0.192,0.309l0.174,0.323c0.027,0.053,0.047,0.103,0.071,0.154c0.048,0.101,0.09,0.202,0.124,0.301
		c0.019,0.054,0.038,0.105,0.052,0.157c0.01,0.034,0.02,0.069,0.028,0.104c0.022,0.092,0.042,0.181,0.052,0.27
		c0.001,0.004,0.001,0.007,0.001,0.011c0.012,0.1,0.017,0.195,0.016,0.287c-0.001,0.005-0.001,0.012-0.001,0.017
		c-0.002,0.092-0.011,0.181-0.027,0.264c-0.001,0.002-0.001,0.003-0.002,0.004c-0.016,0.085-0.041,0.164-0.072,0.236
		c-0.001,0.003-0.002,0.004-0.004,0.009c-0.03,0.07-0.068,0.133-0.112,0.188c-0.002,0.005-0.005,0.01-0.009,0.013
		c-0.046,0.06-0.098,0.108-0.157,0.148l-0.001,0.001v0.002l6.761-4.693c0.055-0.039,0.104-0.083,0.147-0.134
		c0.004-0.007,0.008-0.013,0.012-0.018c0.003-0.004,0.005-0.007,0.008-0.011c0.011-0.014,0.022-0.027,0.033-0.043
		c0.013-0.021,0.026-0.042,0.039-0.064c0.011-0.019,0.022-0.041,0.031-0.062c0.004-0.007,0.006-0.017,0.01-0.023
		c0.001-0.002,0.002-0.005,0.004-0.008c0.003-0.011,0.008-0.021,0.013-0.031c0.009-0.022,0.016-0.044,0.024-0.066
		c0.007-0.024,0.014-0.046,0.02-0.071c0.006-0.023,0.009-0.043,0.014-0.066c0.001-0.001,0.001-0.003,0.002-0.004
		c0.001-0.004,0.001-0.006,0.001-0.007c0.006-0.03,0.01-0.058,0.014-0.087c0.004-0.032,0.008-0.063,0.01-0.096
		c0.001-0.024,0.003-0.048,0.003-0.074c0-0.006,0-0.01,0-0.016c0-0.008,0.002-0.016,0.001-0.021c0.001-0.042,0-0.086-0.003-0.129
		C46.507,130.775,46.503,130.729,46.497,130.684"/>
	<path fill="#FFDB5A" d="M39.233,134.056c-0.416-0.77-1.084-1.282-1.644-1.313c-0.135-0.006-0.265,0.016-0.382,0.068l-4.933,2.215
		c-0.602,0.275-0.673,1.271-0.157,2.231l0.175,0.322c0.414,0.772,1.08,1.284,1.639,1.315c0.136,0.007,0.267-0.015,0.387-0.069
		l4.93-2.216c0.604-0.271,0.676-1.269,0.159-2.23L39.233,134.056z"/>
	<path fill="#EE428C" d="M91.696,177.928c-0.002-0.369-0.009-0.739-0.023-1.111c-0.005-0.146-0.011-0.294-0.018-0.443
		c-0.006-0.122-0.009-0.243-0.016-0.365c-0.012-0.202-0.031-0.403-0.047-0.604c-0.014-0.194-0.026-0.385-0.044-0.58
		c-0.03-0.338-0.068-0.679-0.108-1.021c-0.019-0.163-0.035-0.326-0.056-0.489c-0.004-0.036-0.006-0.073-0.011-0.108
		c-0.025-0.185-0.059-0.371-0.086-0.555c-0.049-0.339-0.097-0.678-0.154-1.015c-0.041-0.233-0.088-0.47-0.132-0.702
		c-0.06-0.323-0.12-0.646-0.188-0.967c-0.014-0.066-0.025-0.134-0.038-0.198c-0.085-0.393-0.175-0.781-0.27-1.173
		c-0.012-0.046-0.025-0.092-0.037-0.14c-0.107-0.435-0.223-0.871-0.343-1.306c-0.037-0.132-0.074-0.263-0.112-0.396
		c-0.121-0.42-0.247-0.841-0.38-1.261c-0.02-0.062-0.038-0.124-0.057-0.186c-0.006-0.019-0.012-0.037-0.018-0.058
		c-0.032-0.098-0.069-0.194-0.102-0.293c-0.158-0.479-0.322-0.959-0.495-1.434c-0.074-0.204-0.153-0.407-0.229-0.612
		c-0.147-0.387-0.297-0.772-0.453-1.158c-0.089-0.222-0.182-0.439-0.274-0.66c-0.158-0.373-0.32-0.745-0.487-1.117
		c-0.096-0.214-0.191-0.427-0.291-0.642c-0.184-0.396-0.376-0.79-0.57-1.185c-0.068-0.137-0.13-0.276-0.2-0.413
		c-0.022-0.044-0.048-0.089-0.07-0.133c-0.155-0.306-0.318-0.609-0.481-0.912c-0.115-0.218-0.228-0.437-0.347-0.654
		c-0.176-0.319-0.36-0.636-0.543-0.953c-0.112-0.194-0.222-0.394-0.338-0.59c-0.218-0.366-0.445-0.731-0.672-1.095
		c-0.087-0.14-0.169-0.28-0.258-0.417c-0.318-0.5-0.644-0.994-0.979-1.483c-0.072-0.104-0.147-0.207-0.219-0.309
		c-0.266-0.383-0.532-0.765-0.807-1.14c-0.128-0.173-0.26-0.344-0.39-0.517c-0.226-0.301-0.45-0.601-0.682-0.896
		c-0.149-0.189-0.303-0.375-0.454-0.563c-0.218-0.27-0.437-0.542-0.661-0.809c-0.163-0.194-0.331-0.383-0.497-0.573
		c-0.218-0.254-0.436-0.508-0.66-0.756c-0.04-0.045-0.078-0.091-0.119-0.135c-0.114-0.127-0.233-0.247-0.35-0.372
		c-0.261-0.283-0.524-0.565-0.792-0.841c-0.171-0.177-0.344-0.351-0.517-0.523c-0.258-0.261-0.52-0.518-0.783-0.77
		c-0.181-0.173-0.363-0.344-0.545-0.513c-0.266-0.249-0.534-0.489-0.805-0.729c-0.184-0.162-0.368-0.326-0.554-0.485
		c-0.282-0.242-0.566-0.478-0.854-0.711c-0.128-0.104-0.254-0.216-0.383-0.319c-0.072-0.056-0.143-0.11-0.214-0.167
		c-0.095-0.073-0.19-0.146-0.284-0.22c-0.344-0.267-0.689-0.526-1.038-0.779c-0.056-0.043-0.113-0.086-0.17-0.126
		c-0.394-0.282-0.792-0.556-1.194-0.823c-0.099-0.065-0.197-0.132-0.295-0.194c-0.134-0.087-0.266-0.178-0.401-0.262
		c-0.178-0.114-0.361-0.224-0.542-0.333c-0.132-0.081-0.264-0.164-0.396-0.245c-0.426-0.253-0.856-0.502-1.289-0.739
		c-0.195-0.105-0.389-0.209-0.583-0.311c-0.221-0.113-0.441-0.22-0.662-0.329c-0.124-0.062-0.248-0.125-0.372-0.187
		c-0.436-0.208-0.87-0.408-1.302-0.592c-0.019-0.01-0.039-0.015-0.06-0.024c-0.057-0.025-0.114-0.047-0.172-0.07
		c-0.391-0.163-0.781-0.315-1.169-0.46c-0.112-0.042-0.222-0.082-0.334-0.122c-0.09-0.032-0.181-0.068-0.271-0.101
		c-0.333-0.114-0.664-0.22-0.993-0.321c-0.062-0.02-0.123-0.035-0.184-0.054c-0.201-0.059-0.402-0.121-0.602-0.175
		c-0.214-0.058-0.427-0.111-0.64-0.164c-0.037-0.007-0.073-0.019-0.11-0.026c-0.289-0.069-0.578-0.136-0.865-0.193
		c-0.086-0.018-0.169-0.028-0.254-0.043c-0.267-0.053-0.532-0.096-0.796-0.137c-0.146-0.022-0.295-0.056-0.44-0.074
		c-0.074-0.011-0.146-0.014-0.22-0.024c-0.24-0.029-0.477-0.052-0.715-0.076c-0.155-0.013-0.314-0.036-0.469-0.049
		c-0.139-0.009-0.277-0.019-0.415-0.025c-0.287-0.016-0.571-0.023-0.855-0.027c-0.024,0-0.047-0.002-0.071-0.002
		c-0.036,0-0.07,0.003-0.106,0.003c-0.394-0.001-0.785,0.006-1.169,0.029H53.01c-0.003,0-0.006,0.002-0.01,0.002
		c-0.4,0.022-0.795,0.062-1.185,0.109c-0.035,0.006-0.072,0.007-0.107,0.011c-0.018,0.002-0.038,0.007-0.056,0.01
		c-0.397,0.053-0.787,0.119-1.172,0.195c-0.034,0.008-0.069,0.012-0.102,0.019c-0.042,0.007-0.084,0.02-0.127,0.029
		c-0.126,0.025-0.251,0.056-0.375,0.086c-0.109,0.025-0.219,0.051-0.327,0.08c-0.125,0.032-0.248,0.065-0.37,0.102
		c-0.074,0.021-0.149,0.039-0.221,0.062c-0.03,0.009-0.058,0.019-0.086,0.026c-0.222,0.068-0.442,0.143-0.659,0.219
		c-0.035,0.013-0.069,0.022-0.104,0.033c-0.249,0.089-0.496,0.188-0.74,0.289c-0.019,0.007-0.038,0.015-0.057,0.021
		c-0.057,0.022-0.113,0.053-0.169,0.076c-0.16,0.068-0.32,0.142-0.477,0.217c-0.087,0.039-0.171,0.082-0.256,0.124
		c-0.148,0.073-0.295,0.148-0.441,0.227c-0.083,0.044-0.166,0.088-0.248,0.134c-0.153,0.087-0.304,0.175-0.453,0.267
		c-0.071,0.041-0.14,0.082-0.209,0.125c-0.216,0.136-0.43,0.273-0.64,0.42l-8.33,5.782c0.21-0.146,0.423-0.285,0.64-0.419
		c0.069-0.045,0.14-0.085,0.21-0.127c0.149-0.091,0.3-0.18,0.452-0.265c0.082-0.046,0.165-0.091,0.249-0.135
		c0.145-0.078,0.292-0.153,0.44-0.228c0.085-0.042,0.17-0.083,0.256-0.123c0.157-0.075,0.317-0.147,0.477-0.218
		c0.075-0.031,0.15-0.065,0.225-0.097c0.245-0.101,0.491-0.199,0.741-0.288c0.035-0.013,0.071-0.023,0.106-0.037
		c0.217-0.076,0.436-0.146,0.657-0.214c0.102-0.033,0.204-0.062,0.307-0.091c0.122-0.034,0.245-0.068,0.369-0.101
		c0.109-0.028,0.219-0.056,0.329-0.081c0.124-0.029,0.248-0.06,0.373-0.084c0.077-0.017,0.153-0.032,0.23-0.049
		c0.385-0.076,0.775-0.145,1.171-0.195c0.055-0.007,0.109-0.014,0.164-0.021c0.39-0.048,0.785-0.087,1.185-0.11
		c0.014-0.001,0.029-0.001,0.043-0.001c0.386-0.022,0.777-0.031,1.171-0.029c0.06,0,0.118-0.002,0.177,0
		c0.283,0.003,0.569,0.011,0.855,0.025c0.291,0.016,0.588,0.048,0.884,0.075c0.238,0.024,0.476,0.047,0.716,0.077
		c0.218,0.027,0.438,0.063,0.659,0.097c0.264,0.042,0.529,0.085,0.796,0.138c0.371,0.069,0.743,0.145,1.119,0.236
		c0.036,0.009,0.074,0.019,0.11,0.028c0.411,0.099,0.825,0.213,1.24,0.337c0.063,0.019,0.124,0.036,0.187,0.052
		c0.418,0.131,0.84,0.273,1.263,0.423c0.111,0.039,0.222,0.082,0.334,0.124c0.388,0.143,0.778,0.295,1.169,0.459
		c0.057,0.023,0.115,0.046,0.172,0.068c0.452,0.194,0.906,0.402,1.362,0.618c0.124,0.059,0.248,0.125,0.372,0.186
		c0.415,0.205,0.829,0.413,1.245,0.642c0.433,0.236,0.863,0.483,1.29,0.739c0.132,0.078,0.262,0.163,0.394,0.242
		c0.317,0.195,0.632,0.393,0.945,0.598c0.098,0.063,0.196,0.126,0.293,0.19c0.401,0.271,0.8,0.542,1.195,0.826
		c0.057,0.043,0.113,0.084,0.171,0.125c0.348,0.253,0.694,0.515,1.037,0.78c0.095,0.073,0.189,0.146,0.284,0.219
		c0.201,0.161,0.398,0.325,0.598,0.488c0.286,0.232,0.571,0.468,0.853,0.711c0.187,0.159,0.37,0.321,0.554,0.485
		c0.271,0.237,0.539,0.481,0.804,0.728c0.184,0.17,0.365,0.34,0.547,0.514c0.263,0.252,0.523,0.51,0.782,0.77
		c0.174,0.173,0.347,0.346,0.517,0.521c0.267,0.277,0.531,0.561,0.792,0.842c0.156,0.169,0.315,0.337,0.471,0.509
		c0.221,0.247,0.438,0.5,0.656,0.752c0.167,0.191,0.335,0.382,0.499,0.576c0.223,0.267,0.441,0.536,0.658,0.808
		c0.152,0.188,0.307,0.375,0.457,0.566c0.23,0.293,0.454,0.591,0.678,0.889c0.131,0.175,0.265,0.347,0.395,0.522
		c0.274,0.373,0.539,0.755,0.804,1.136c0.073,0.104,0.149,0.207,0.222,0.312c0.333,0.489,0.66,0.984,0.979,1.484
		c0.087,0.137,0.169,0.275,0.256,0.413c0.227,0.364,0.455,0.729,0.674,1.101c0.115,0.194,0.223,0.389,0.336,0.585
		c0.183,0.318,0.367,0.635,0.544,0.958c0.119,0.214,0.232,0.433,0.348,0.649c0.161,0.305,0.325,0.609,0.48,0.916
		c0.093,0.18,0.18,0.363,0.27,0.545c0.195,0.393,0.386,0.788,0.57,1.184c0.099,0.214,0.195,0.43,0.292,0.645
		c0.167,0.371,0.329,0.74,0.486,1.113c0.093,0.222,0.184,0.442,0.273,0.662c0.158,0.386,0.308,0.772,0.454,1.161
		c0.076,0.204,0.155,0.405,0.23,0.607c0.172,0.478,0.336,0.957,0.495,1.436c0.039,0.117,0.081,0.233,0.118,0.352
		c0.02,0.063,0.038,0.124,0.058,0.187c0.133,0.419,0.259,0.838,0.38,1.26c0.037,0.132,0.075,0.264,0.112,0.395
		c0.12,0.434,0.236,0.869,0.343,1.305c0.012,0.046,0.025,0.094,0.037,0.142c0.111,0.454,0.211,0.912,0.308,1.368
		c0.068,0.323,0.129,0.646,0.189,0.969c0.044,0.232,0.09,0.467,0.13,0.702c0.058,0.338,0.106,0.677,0.155,1.014
		c0.032,0.222,0.069,0.441,0.097,0.662c0.022,0.165,0.038,0.329,0.056,0.49c0.04,0.342,0.078,0.684,0.108,1.023
		c0.018,0.191,0.03,0.383,0.045,0.576c0.024,0.326,0.046,0.649,0.061,0.973c0.008,0.146,0.014,0.294,0.019,0.443
		c0.013,0.371,0.021,0.741,0.023,1.109c0,0.11,0.003,0.22,0.003,0.329c-0.002,0.456-0.013,0.91-0.033,1.361
		c-0.005,0.105-0.012,0.21-0.017,0.313c-0.025,0.453-0.054,0.902-0.097,1.351c-0.038,0.392-0.086,0.777-0.137,1.157
		c-0.069,0.511-0.149,1.012-0.242,1.501c-0.022,0.113-0.048,0.224-0.071,0.336c-0.073,0.359-0.151,0.716-0.237,1.064
		c-0.039,0.156-0.079,0.312-0.121,0.466c-0.078,0.294-0.162,0.586-0.25,0.87c-0.046,0.151-0.091,0.301-0.139,0.448
		c-0.101,0.307-0.209,0.609-0.321,0.906c-0.04,0.105-0.077,0.218-0.119,0.323c-0.158,0.399-0.326,0.793-0.503,1.174
		c-0.036,0.077-0.076,0.152-0.113,0.228c-0.152,0.318-0.311,0.629-0.476,0.933c-0.062,0.112-0.125,0.223-0.188,0.334
		c-0.192,0.334-0.392,0.663-0.601,0.979c-0.048,0.074-0.093,0.15-0.142,0.225c-0.065,0.096-0.133,0.187-0.199,0.28
		c-0.124,0.176-0.249,0.351-0.377,0.521c-0.08,0.102-0.16,0.202-0.24,0.302c-0.115,0.146-0.234,0.292-0.353,0.43
		c-0.135,0.159-0.275,0.313-0.413,0.466c-0.101,0.109-0.201,0.219-0.304,0.324c-0.148,0.157-0.302,0.303-0.456,0.451
		c-0.099,0.093-0.197,0.192-0.299,0.286c-0.174,0.156-0.352,0.305-0.532,0.455c-0.088,0.074-0.174,0.15-0.264,0.222
		c-0.271,0.216-0.548,0.424-0.831,0.621l8.33-5.782c0.283-0.197,0.56-0.404,0.831-0.622c0.091-0.069,0.177-0.147,0.264-0.221
		c0.18-0.149,0.358-0.298,0.531-0.457c0.103-0.091,0.201-0.189,0.3-0.286c0.155-0.146,0.307-0.294,0.457-0.447
		c0.102-0.105,0.202-0.218,0.302-0.326c0.14-0.152,0.279-0.308,0.414-0.465c0.039-0.046,0.081-0.087,0.119-0.136
		c0.081-0.096,0.156-0.197,0.234-0.295c0.08-0.101,0.161-0.2,0.239-0.302c0.129-0.169,0.253-0.344,0.377-0.519
		c0.066-0.094,0.135-0.187,0.199-0.282c0.016-0.024,0.034-0.046,0.049-0.068c0.033-0.05,0.062-0.104,0.094-0.154
		c0.209-0.318,0.409-0.646,0.601-0.981c0.035-0.061,0.074-0.114,0.107-0.175c0.028-0.053,0.053-0.106,0.081-0.158
		c0.166-0.303,0.324-0.614,0.477-0.933c0.029-0.06,0.063-0.117,0.092-0.18c0.007-0.015,0.013-0.033,0.02-0.048
		c0.178-0.381,0.345-0.772,0.503-1.175c0.009-0.022,0.019-0.042,0.027-0.063c0.033-0.083,0.06-0.174,0.092-0.258
		c0.111-0.298,0.22-0.601,0.321-0.909c0.019-0.056,0.041-0.11,0.059-0.168c0.03-0.091,0.053-0.187,0.08-0.276
		c0.088-0.286,0.172-0.577,0.25-0.871c0.024-0.092,0.053-0.177,0.077-0.271c0.016-0.062,0.028-0.131,0.044-0.196
		c0.086-0.349,0.164-0.703,0.238-1.064c0.017-0.09,0.041-0.173,0.059-0.263c0.004-0.025,0.007-0.049,0.011-0.072
		c0.093-0.491,0.173-0.992,0.242-1.503c0.005-0.035,0.011-0.067,0.017-0.104c0.045-0.346,0.085-0.695,0.119-1.053
		c0.027-0.275,0.05-0.552,0.069-0.83c0.012-0.171,0.019-0.346,0.028-0.52c0.006-0.104,0.012-0.208,0.017-0.313
		c0.018-0.413,0.032-0.828,0.035-1.244c0.001-0.04-0.001-0.078-0.001-0.118C91.699,178.147,91.696,178.038,91.696,177.928"/>
	<path fill="#FF65A7" d="M58.544,142.435c-4.056-2.21-7.998-3.364-11.628-3.56c-9.976-0.532-17.599,6.188-18.754,18.187
		c-1.576,16.364,9.469,36.346,24.674,44.63c4.056,2.209,7.998,3.363,11.628,3.557c9.978,0.535,17.602-6.187,18.758-18.185
		C84.798,170.7,73.748,150.72,58.544,142.435"/>
	<path fill="#F1EFF3" d="M55.485,147.269c-3.28-1.787-6.572-2.813-9.519-2.975c-0.271-0.013-0.541-0.02-0.808-0.02
		c-2.955,0-5.409,0.871-7.295,2.592c-2.359,2.15-3.83,5.628-4.257,10.055c-1.38,14.313,8.829,32.602,22.29,39.937
		c3.278,1.787,6.57,2.813,9.519,2.971c0.272,0.015,0.541,0.022,0.808,0.022c2.956,0,5.411-0.871,7.297-2.593
		c2.36-2.149,3.832-5.629,4.258-10.053C79.157,172.893,68.948,154.604,55.485,147.269"/>
	<path fill="#9899EF" d="M72.7,176.192l-0.321-2.388l3.985,0.672c-1.239-4.232-3.179-8.444-5.645-12.33l-2.469,1.75l-1.461-2.155
		l2.476-1.755c-2.882-4.066-6.341-7.677-10.163-10.432l-0.506,4.144l-1.154-0.55l-0.653,5.343c0.043,0.012,0.084,0.011,0.129,0.033
		c0.485,0.229,0.826,0.828,0.764,1.336l-1.229,10.061c-0.002,0.016-0.006,0.026-0.008,0.039c0.859,0.794,1.391,2.008,1.279,3.087
		l20.111,9.576c-0.118-1.874-0.404-3.786-0.842-5.708L72.7,176.192z"/>
	<path fill="#9899EF" d="M56.908,174.483c-0.381,0.241-0.862,0.32-1.387,0.202l5.596,15.723c0.168,0.476,0.614,0.819,0.998,0.764
		c0.382-0.052,0.56-0.479,0.392-0.954L56.908,174.483z"/>
	<path fill="#9899EF" d="M55.44,170.622c-0.693-0.331-1.325-0.011-1.414,0.714c-0.088,0.725,0.4,1.58,1.093,1.911
		c0.691,0.328,1.325,0.01,1.413-0.717C56.622,171.805,56.131,170.95,55.44,170.622"/>
	<path fill="#6E6FDA" d="M56.453,169.922l1.229-10.062c0.062-0.509-0.279-1.107-0.764-1.336c-0.045-0.022-0.086-0.021-0.129-0.033
		c-0.43-0.135-0.804,0.073-0.861,0.534l-1.229,10.062c-0.002,0.013,0,0.027,0,0.042c-0.963-0.069-1.73,0.55-1.863,1.642
		c-0.173,1.414,0.781,3.08,2.13,3.725c0.189,0.089,0.374,0.147,0.555,0.189c0.525,0.119,1.006,0.039,1.387-0.201
		c0.43-0.272,0.735-0.743,0.814-1.388c0.002-0.014,0-0.03,0.002-0.048c0.112-1.08-0.421-2.294-1.279-3.088
		C56.447,169.947,56.451,169.937,56.453,169.922 M56.532,172.53c-0.088,0.727-0.722,1.045-1.413,0.717
		c-0.692-0.331-1.181-1.186-1.093-1.911c0.089-0.725,0.721-1.045,1.414-0.714C56.131,170.95,56.621,171.804,56.532,172.53"/>
	<path fill="#6E6FDA" d="M56.5,152.701l0.941,0.446l1.155,0.551l0.506-4.144c-0.672-0.483-1.357-0.938-2.05-1.368L56.5,152.701z"/>
	<path fill="#6E6FDA" d="M66.789,161.741l1.461,2.154l2.469-1.75c-0.465-0.731-0.951-1.451-1.454-2.159L66.789,161.741z"/>
	<path fill="#6E6FDA" d="M72.379,173.806l0.321,2.387l4.294,0.722c-0.185-0.812-0.391-1.626-0.63-2.438L72.379,173.806z"/>
	<path fill="#6E6FDA" d="M73.07,187.94l3.91,3.417c0.202-0.677,0.371-1.386,0.507-2.127l-3.484-3.045L73.07,187.94z"/>
	<path fill="#6E6FDA" d="M64.029,195.102l2.042,4.745c0.05,0.001,0.102,0.004,0.152,0.004c0.644,0,1.259-0.049,1.854-0.131
		l-2.195-5.104L64.029,195.102z"/>
	<path fill="#6E6FDA" d="M51.853,194.253c0.673,0.501,1.357,0.973,2.053,1.417l0.473-4.566l-2.1-0.956L51.853,194.253z"/>
	<path fill="#6E6FDA" d="M41.161,182.744c0.48,0.727,0.975,1.442,1.49,2.143l2.46-2.236l-1.588-2.053L41.161,182.744z"/>
	<path fill="#6E6FDA" d="M34.952,169.409c0.232,0.809,0.493,1.617,0.775,2.425l3.302,0.229l-0.503-2.406L34.952,169.409z"/>
	<path fill="#6E6FDA" d="M33.605,156.922L33.605,156.922l3.58,2.725l0.766-1.893l-4.016-3.054
		C33.798,155.415,33.681,156.148,33.605,156.922"/>
	<path fill="#6E6FDA" d="M41.054,144.947l2.631,5.18l1.756-0.692l-2.526-4.972C42.264,144.574,41.643,144.735,41.054,144.947"/>
	<polygon fill="#C8C6CA" points="55.483,133.637 64.277,138.431 70.758,133.931 61.964,129.139 	"/>
	<polygon fill="#CBCCD0" points="63.731,144.093 70.212,139.595 70.758,133.931 64.277,138.431 	"/>
	<polygon fill="#FFFFFF" points="54.938,139.299 63.731,144.093 64.277,138.431 55.483,133.637 	"/>
	<path fill="#FFBD59" d="M73.909,132.775c-0.001-0.051-0.001-0.1-0.004-0.15c-0.001-0.016-0.004-0.031-0.004-0.046
		c-0.003-0.033-0.007-0.068-0.011-0.102c-0.002-0.028-0.003-0.057-0.008-0.086c-0.002-0.019-0.007-0.038-0.01-0.057
		c-0.007-0.051-0.017-0.103-0.026-0.155c-0.005-0.025-0.008-0.051-0.014-0.076c-0.002-0.014-0.007-0.025-0.01-0.039
		c-0.025-0.112-0.055-0.225-0.091-0.336v-0.001c-0.003-0.012-0.008-0.021-0.011-0.029c-0.029-0.089-0.061-0.177-0.096-0.265
		c-0.013-0.031-0.028-0.063-0.043-0.096c-0.028-0.065-0.056-0.131-0.089-0.194c-0.007-0.015-0.013-0.031-0.021-0.046
		c-0.005-0.01-0.013-0.02-0.018-0.031c-0.082-0.157-0.173-0.313-0.273-0.462c-0.013-0.018-0.025-0.037-0.039-0.058
		c-0.101-0.145-0.212-0.286-0.33-0.417c-0.008-0.009-0.014-0.021-0.023-0.03c-0.012-0.013-0.024-0.023-0.036-0.036
		c-0.043-0.046-0.086-0.091-0.131-0.134c-0.027-0.027-0.057-0.055-0.085-0.083c-0.05-0.046-0.101-0.089-0.152-0.132
		c-0.021-0.019-0.041-0.039-0.062-0.055c-0.005-0.003-0.01-0.006-0.014-0.009c-0.087-0.067-0.176-0.133-0.269-0.192
		c-0.006-0.004-0.012-0.01-0.019-0.014c-0.061-0.041-0.124-0.077-0.188-0.111l-9.753-5.317c-0.016-0.009-0.032-0.017-0.047-0.024
		c-0.066-0.033-0.131-0.066-0.196-0.092c-0.002-0.001-0.004-0.003-0.006-0.004c-0.006-0.003-0.012-0.004-0.02-0.006
		c-0.047-0.021-0.095-0.04-0.142-0.056c-0.021-0.008-0.043-0.014-0.064-0.021c-0.015-0.004-0.03-0.011-0.045-0.014
		c-0.013-0.004-0.026-0.009-0.041-0.013c-0.045-0.013-0.089-0.022-0.135-0.033c-0.01-0.001-0.02-0.001-0.031-0.004
		c-0.011-0.002-0.021-0.003-0.032-0.006c-0.021-0.003-0.041-0.007-0.061-0.01c-0.04-0.006-0.079-0.011-0.118-0.015
		c-0.012,0-0.024,0-0.035-0.002c-0.026-0.001-0.052-0.001-0.078-0.001c-0.036-0.001-0.074,0-0.11,0.001
		c-0.017,0.002-0.033,0.006-0.05,0.006c-0.008,0.001-0.016,0.003-0.024,0.004c-0.012,0.001-0.023,0.001-0.035,0.003
		c-0.038,0.004-0.074,0.011-0.111,0.018c-0.021,0.005-0.042,0.011-0.062,0.017c-0.01,0.003-0.019,0.005-0.028,0.006
		c-0.01,0.003-0.02,0.004-0.03,0.008c-0.046,0.015-0.092,0.031-0.137,0.049c-0.006,0.004-0.011,0.007-0.018,0.009
		c-0.078,0.036-0.154,0.076-0.224,0.125l-6.481,4.499c0.07-0.05,0.145-0.09,0.224-0.125c0.059-0.024,0.12-0.047,0.184-0.064
		c0.009-0.003,0.019-0.005,0.029-0.008c0.067-0.016,0.137-0.031,0.208-0.037c0.008-0.001,0.016-0.001,0.023-0.001
		c0.078-0.01,0.157-0.013,0.239-0.007c0.07,0.003,0.141,0.014,0.214,0.026c0.01,0.001,0.021,0.003,0.031,0.004
		c0.069,0.013,0.138,0.03,0.208,0.049c0.014,0.006,0.03,0.011,0.045,0.015c0.068,0.022,0.137,0.048,0.207,0.075
		c0.007,0.004,0.012,0.006,0.018,0.009c0.083,0.033,0.165,0.073,0.249,0.12l9.754,5.317c0.071,0.038,0.139,0.08,0.207,0.124
		c0.092,0.059,0.182,0.124,0.269,0.192c0.026,0.021,0.05,0.043,0.075,0.063c0.051,0.043,0.103,0.086,0.153,0.132
		c0.029,0.027,0.057,0.057,0.085,0.083c0.044,0.045,0.088,0.089,0.131,0.136c0.019,0.021,0.039,0.043,0.059,0.065
		c0.118,0.131,0.228,0.273,0.33,0.418c0.013,0.021,0.026,0.038,0.039,0.057c0.1,0.149,0.191,0.304,0.273,0.462
		c0.013,0.025,0.026,0.051,0.039,0.077c0.032,0.064,0.061,0.128,0.089,0.194c0.014,0.032,0.029,0.064,0.042,0.096
		c0.036,0.088,0.068,0.175,0.097,0.264c0.003,0.012,0.008,0.02,0.011,0.032c0.036,0.11,0.065,0.224,0.09,0.336
		c0.009,0.038,0.017,0.077,0.025,0.115c0.009,0.051,0.019,0.103,0.026,0.153c0.008,0.048,0.014,0.094,0.018,0.144
		c0.003,0.033,0.008,0.067,0.01,0.101c0.005,0.065,0.008,0.132,0.008,0.197c0.001,0.012,0.002,0.024,0.002,0.037
		c-0.001,0.085-0.005,0.171-0.013,0.253l-0.068,0.709c-0.014,0.143-0.04,0.276-0.075,0.403c-0.002,0.006-0.003,0.013-0.005,0.019
		c-0.035,0.121-0.08,0.232-0.133,0.336c-0.003,0.004-0.005,0.01-0.008,0.014c-0.053,0.1-0.115,0.188-0.184,0.27
		c-0.077,0.092-0.163,0.172-0.258,0.237l6.481-4.5c0.096-0.065,0.181-0.145,0.259-0.234c0.003-0.004,0.007-0.009,0.011-0.014
		c0.032-0.036,0.063-0.076,0.091-0.121c0.024-0.034,0.047-0.072,0.068-0.108c0.004-0.01,0.008-0.019,0.013-0.028
		c0.003-0.003,0.005-0.009,0.008-0.015c0.011-0.021,0.022-0.041,0.033-0.063c0.016-0.035,0.031-0.071,0.046-0.108
		c0.014-0.036,0.027-0.073,0.039-0.111c0.006-0.017,0.01-0.035,0.014-0.051c0.003-0.007,0.005-0.013,0.006-0.02
		c0.005-0.016,0.01-0.032,0.015-0.048c0.01-0.043,0.02-0.084,0.028-0.128c0.008-0.045,0.016-0.092,0.022-0.141
		c0.005-0.027,0.007-0.058,0.011-0.088l0.068-0.707c0.001-0.022,0.003-0.046,0.005-0.069c0.005-0.057,0.006-0.116,0.007-0.174
		c0-0.003-0.001-0.007-0.001-0.01C73.909,132.8,73.909,132.787,73.909,132.775"/>
	<path fill="#FFDB5A" d="M65.351,133.834l-9.753-5.317c-0.34-0.186-0.67-0.282-0.973-0.297c-0.835-0.044-1.473,0.516-1.569,1.519
		l-0.069,0.709c-0.132,1.368,0.793,3.04,2.065,3.731l9.754,5.317c0.339,0.185,0.669,0.279,0.973,0.297
		c0.835,0.044,1.472-0.518,1.569-1.521l0.068-0.709C67.547,136.195,66.623,134.523,65.351,133.834"/>
	<polygon fill="#D7D6D9" points="78.727,154.571 83.118,162.304 91.447,156.523 87.058,148.791 	"/>
	<polygon fill="#7B7A7D" points="75.604,156.178 78.727,154.571 87.057,148.79 83.934,150.395 	"/>
	<polygon fill="#FFFFFF" points="75.604,156.178 79.995,163.909 83.117,162.305 78.727,154.571 	"/>
	<path fill="#FFBD59" d="M94.878,156.625c0-0.008-0.001-0.016-0.003-0.022c0-0.006,0-0.01-0.001-0.014
		c-0.009-0.077-0.023-0.151-0.04-0.23c-0.006-0.028-0.017-0.059-0.023-0.088c-0.009-0.037-0.019-0.073-0.03-0.109
		c-0.009-0.033-0.015-0.065-0.027-0.099c-0.009-0.033-0.027-0.063-0.039-0.096c-0.035-0.099-0.076-0.198-0.122-0.298
		c-0.015-0.034-0.025-0.065-0.041-0.1c-0.027-0.052-0.055-0.106-0.086-0.159l-4.849-8.537c-0.065-0.113-0.135-0.223-0.209-0.324
		c-0.024-0.035-0.051-0.066-0.076-0.098c-0.051-0.066-0.102-0.133-0.156-0.194c-0.007-0.005-0.013-0.014-0.019-0.022
		c-0.013-0.016-0.029-0.025-0.043-0.041c-0.09-0.095-0.183-0.182-0.278-0.261c-0.017-0.013-0.03-0.031-0.046-0.043
		c-0.014-0.012-0.029-0.02-0.043-0.033c-0.035-0.023-0.068-0.048-0.102-0.071c-0.029-0.02-0.058-0.043-0.086-0.061
		c-0.025-0.016-0.049-0.029-0.073-0.042c-0.02-0.013-0.041-0.024-0.061-0.037c-0.016-0.007-0.031-0.019-0.047-0.026
		c-0.05-0.025-0.1-0.051-0.149-0.071c-0.01-0.004-0.018-0.007-0.028-0.01c-0.01-0.005-0.019-0.009-0.028-0.012
		c-0.025-0.01-0.05-0.02-0.074-0.028c-0.039-0.014-0.076-0.024-0.116-0.036c-0.015-0.004-0.03-0.007-0.044-0.01
		c-0.008-0.003-0.015-0.005-0.022-0.006c-0.012-0.003-0.024-0.008-0.037-0.009c-0.031-0.006-0.063-0.012-0.094-0.016
		c-0.03-0.004-0.06-0.008-0.089-0.011H87.67c-0.019-0.002-0.038-0.002-0.058-0.002c-0.027-0.001-0.054,0-0.082,0.002
		c-0.027,0.001-0.054,0.003-0.08,0.008c-0.024,0.003-0.048,0.007-0.071,0.01c-0.002,0.002-0.004,0.002-0.005,0.003h-0.007
		c-0.03,0.006-0.058,0.013-0.088,0.022c-0.035,0.011-0.069,0.021-0.102,0.037c-0.025,0.01-0.05,0.021-0.074,0.034l-0.413,0.216
		c-0.039,0.021-0.078,0.043-0.113,0.067l-8.331,5.782c0.036-0.024,0.074-0.047,0.114-0.067l0.414-0.217
		c0.084-0.043,0.175-0.076,0.27-0.094c0.001,0,0.003,0,0.005-0.001c0.093-0.02,0.192-0.025,0.292-0.021
		c0.08,0.004,0.163,0.02,0.247,0.037c0.006,0.002,0.013,0.002,0.02,0.003c0.078,0.021,0.156,0.046,0.234,0.077
		c0.01,0.003,0.02,0.007,0.029,0.009c0.075,0.033,0.15,0.069,0.223,0.112c0.022,0.009,0.043,0.022,0.063,0.035
		c0.053,0.031,0.105,0.065,0.158,0.102c0.034,0.024,0.068,0.048,0.102,0.074c0.03,0.022,0.059,0.048,0.088,0.073
		c0.096,0.079,0.188,0.168,0.279,0.263c0.021,0.022,0.042,0.041,0.062,0.063c0.053,0.062,0.105,0.127,0.156,0.192
		c0.025,0.032,0.052,0.063,0.076,0.098c0.075,0.103,0.144,0.211,0.209,0.324l4.849,8.537c0.049,0.086,0.086,0.172,0.126,0.259
		c0.047,0.1,0.088,0.2,0.124,0.3c0.022,0.064,0.047,0.129,0.065,0.193c0.011,0.036,0.021,0.073,0.029,0.11
		c0.028,0.112,0.052,0.223,0.065,0.332c0.001,0.007,0.002,0.013,0.003,0.021c0.013,0.118,0.019,0.234,0.016,0.347
		c0,0.007-0.001,0.017-0.001,0.024c-0.005,0.113-0.018,0.222-0.039,0.324c-0.001,0.003-0.002,0.007-0.003,0.013
		c-0.023,0.105-0.056,0.201-0.096,0.294c-0.001,0.001-0.002,0.004-0.003,0.007c-0.041,0.089-0.091,0.172-0.15,0.245
		c-0.003,0.005-0.005,0.007-0.008,0.012c-0.061,0.074-0.131,0.14-0.209,0.195l8.33-5.781c0.075-0.053,0.142-0.115,0.2-0.186
		c0.003-0.003,0.006-0.008,0.008-0.011c0.003-0.004,0.006-0.007,0.01-0.011c0.018-0.024,0.036-0.046,0.052-0.071
		c0.018-0.026,0.036-0.055,0.051-0.083c0.014-0.027,0.028-0.054,0.041-0.08c0.002-0.004,0.003-0.007,0.005-0.012
		c0.001-0.002,0.002-0.005,0.003-0.008c0.01-0.021,0.019-0.042,0.027-0.063c0.012-0.028,0.021-0.056,0.031-0.085
		c0.009-0.031,0.019-0.06,0.026-0.092c0.004-0.017,0.008-0.034,0.012-0.053c0.001-0.004,0.002-0.011,0.003-0.015
		c0.002-0.01,0.004-0.02,0.007-0.031c0.007-0.036,0.013-0.07,0.017-0.106c0.005-0.039,0.009-0.079,0.012-0.118
		c0.001-0.022,0.002-0.044,0.003-0.065c0-0.009,0-0.018,0-0.026c0.001-0.015,0.002-0.029,0.003-0.044
		c0-0.052-0.002-0.104-0.005-0.155C94.888,156.723,94.883,156.675,94.878,156.625"/>
	<path fill="#FFDB5A" d="M81.287,152.655c-0.493-0.87-1.273-1.427-1.946-1.463c-0.202-0.012-0.395,0.025-0.567,0.113l-0.413,0.219
		c-0.75,0.384-0.839,1.609-0.197,2.735l4.852,8.542c0.492,0.865,1.271,1.421,1.944,1.457c0.202,0.013,0.394-0.023,0.567-0.112
		l0.417-0.214c0.745-0.383,0.834-1.608,0.192-2.74L81.287,152.655z"/>
</g>
</svg>
