<?xml version="1.0" encoding="utf-8"?>
<!-- Generator: Adobe Illustrator 16.0.0, SVG Export Plug-In . SVG Version: 6.00 Build 0)  -->
<!DOCTYPE svg PUBLIC "-//W3C//DTD SVG 1.1//EN" "http://www.w3.org/Graphics/SVG/1.1/DTD/svg11.dtd">
<svg version="1.1" id="Layer_1" xmlns="http://www.w3.org/2000/svg" xmlns:xlink="http://www.w3.org/1999/xlink" x="0px" y="0px"
	 width="64px" height="62px" viewBox="0 0 64 62" enable-background="new 0 0 64 62" xml:space="preserve">
<g>
	<g>
		<linearGradient id="SVGID_1_" gradientUnits="userSpaceOnUse" x1="39.042" y1="53" x2="43.958" y2="53">
			<stop  offset="0" style="stop-color:#9D1F61"/>
			<stop  offset="1" style="stop-color:#EB222A"/>
		</linearGradient>
		<line fill="none" stroke="url(#SVGID_1_)" stroke-width="2" stroke-miterlimit="10" x1="40" y1="48" x2="43" y2="58"/>
		<linearGradient id="SVGID_2_" gradientUnits="userSpaceOnUse" x1="36" y1="58" x2="46" y2="58">
			<stop  offset="0" style="stop-color:#9D1F61"/>
			<stop  offset="1" style="stop-color:#EB222A"/>
		</linearGradient>
		<line fill="none" stroke="url(#SVGID_2_)" stroke-width="2" stroke-miterlimit="10" x1="36" y1="58" x2="46" y2="58"/>
		<linearGradient id="SVGID_3_" gradientUnits="userSpaceOnUse" x1="0" y1="34" x2="34" y2="34">
			<stop  offset="0" style="stop-color:#9D1F61"/>
			<stop  offset="1" style="stop-color:#EB222A"/>
		</linearGradient>
		<rect x="1" y="10" fill="none" stroke="url(#SVGID_3_)" stroke-width="2" stroke-miterlimit="10" width="32" height="48"/>
		<linearGradient id="SVGID_4_" gradientUnits="userSpaceOnUse" x1="1" y1="14" x2="33" y2="14">
			<stop  offset="0" style="stop-color:#9D1F61"/>
			<stop  offset="1" style="stop-color:#EB222A"/>
		</linearGradient>
		<line fill="none" stroke="url(#SVGID_4_)" stroke-width="2" stroke-miterlimit="10" x1="1" y1="14" x2="33" y2="14"/>
		<linearGradient id="SVGID_5_" gradientUnits="userSpaceOnUse" x1="6" y1="20" x2="14" y2="20">
			<stop  offset="0" style="stop-color:#9D1F61"/>
			<stop  offset="1" style="stop-color:#EB222A"/>
		</linearGradient>
		<line fill="none" stroke="url(#SVGID_5_)" stroke-width="2" stroke-miterlimit="10" x1="6" y1="20" x2="14" y2="20"/>
		<linearGradient id="SVGID_6_" gradientUnits="userSpaceOnUse" x1="14" y1="24" x2="22" y2="24">
			<stop  offset="0" style="stop-color:#9D1F61"/>
			<stop  offset="1" style="stop-color:#EB222A"/>
		</linearGradient>
		<line fill="none" stroke="url(#SVGID_6_)" stroke-width="2" stroke-miterlimit="10" x1="14" y1="24" x2="22" y2="24"/>
		<linearGradient id="SVGID_7_" gradientUnits="userSpaceOnUse" x1="6" y1="24" x2="12" y2="24">
			<stop  offset="0" style="stop-color:#9D1F61"/>
			<stop  offset="1" style="stop-color:#EB222A"/>
		</linearGradient>
		<line fill="none" stroke="url(#SVGID_7_)" stroke-width="2" stroke-miterlimit="10" x1="6" y1="24" x2="12" y2="24"/>
		<linearGradient id="SVGID_8_" gradientUnits="userSpaceOnUse" x1="12" y1="36" x2="20" y2="36">
			<stop  offset="0" style="stop-color:#9D1F61"/>
			<stop  offset="1" style="stop-color:#EB222A"/>
		</linearGradient>
		<line fill="none" stroke="url(#SVGID_8_)" stroke-width="2" stroke-miterlimit="10" x1="12" y1="36" x2="20" y2="36"/>
		<linearGradient id="SVGID_9_" gradientUnits="userSpaceOnUse" x1="6" y1="36" x2="10" y2="36">
			<stop  offset="0" style="stop-color:#9D1F61"/>
			<stop  offset="1" style="stop-color:#EB222A"/>
		</linearGradient>
		<line fill="none" stroke="url(#SVGID_9_)" stroke-width="2" stroke-miterlimit="10" x1="6" y1="36" x2="10" y2="36"/>
		<linearGradient id="SVGID_10_" gradientUnits="userSpaceOnUse" x1="10" y1="28" x2="20" y2="28">
			<stop  offset="0" style="stop-color:#9D1F61"/>
			<stop  offset="1" style="stop-color:#EB222A"/>
		</linearGradient>
		<line fill="none" stroke="url(#SVGID_10_)" stroke-width="2" stroke-miterlimit="10" x1="10" y1="28" x2="20" y2="28"/>
		<linearGradient id="SVGID_11_" gradientUnits="userSpaceOnUse" x1="22" y1="28" x2="28" y2="28">
			<stop  offset="0" style="stop-color:#9D1F61"/>
			<stop  offset="1" style="stop-color:#EB222A"/>
		</linearGradient>
		<line fill="none" stroke="url(#SVGID_11_)" stroke-width="2" stroke-miterlimit="10" x1="22" y1="28" x2="28" y2="28"/>
		<linearGradient id="SVGID_12_" gradientUnits="userSpaceOnUse" x1="10" y1="32" x2="24" y2="32">
			<stop  offset="0" style="stop-color:#9D1F61"/>
			<stop  offset="1" style="stop-color:#EB222A"/>
		</linearGradient>
		<line fill="none" stroke="url(#SVGID_12_)" stroke-width="2" stroke-miterlimit="10" x1="10" y1="32" x2="24" y2="32"/>
		<linearGradient id="SVGID_13_" gradientUnits="userSpaceOnUse" x1="10" y1="40" x2="16" y2="40">
			<stop  offset="0" style="stop-color:#9D1F61"/>
			<stop  offset="1" style="stop-color:#EB222A"/>
		</linearGradient>
		<line fill="none" stroke="url(#SVGID_13_)" stroke-width="2" stroke-miterlimit="10" x1="10" y1="40" x2="16" y2="40"/>
		<linearGradient id="SVGID_14_" gradientUnits="userSpaceOnUse" x1="18" y1="40" x2="28" y2="40">
			<stop  offset="0" style="stop-color:#9D1F61"/>
			<stop  offset="1" style="stop-color:#EB222A"/>
		</linearGradient>
		<line fill="none" stroke="url(#SVGID_14_)" stroke-width="2" stroke-miterlimit="10" x1="18" y1="40" x2="28" y2="40"/>
		<linearGradient id="SVGID_15_" gradientUnits="userSpaceOnUse" x1="10" y1="44" x2="24" y2="44">
			<stop  offset="0" style="stop-color:#9D1F61"/>
			<stop  offset="1" style="stop-color:#EB222A"/>
		</linearGradient>
		<line fill="none" stroke="url(#SVGID_15_)" stroke-width="2" stroke-miterlimit="10" x1="10" y1="44" x2="24" y2="44"/>
		<linearGradient id="SVGID_16_" gradientUnits="userSpaceOnUse" x1="10" y1="48" x2="20" y2="48">
			<stop  offset="0" style="stop-color:#9D1F61"/>
			<stop  offset="1" style="stop-color:#EB222A"/>
		</linearGradient>
		<line fill="none" stroke="url(#SVGID_16_)" stroke-width="2" stroke-miterlimit="10" x1="10" y1="48" x2="20" y2="48"/>
		<linearGradient id="SVGID_17_" gradientUnits="userSpaceOnUse" x1="22" y1="48" x2="28" y2="48">
			<stop  offset="0" style="stop-color:#9D1F61"/>
			<stop  offset="1" style="stop-color:#EB222A"/>
		</linearGradient>
		<line fill="none" stroke="url(#SVGID_17_)" stroke-width="2" stroke-miterlimit="10" x1="22" y1="48" x2="28" y2="48"/>
		<linearGradient id="SVGID_18_" gradientUnits="userSpaceOnUse" x1="6" y1="52" x2="14" y2="52">
			<stop  offset="0" style="stop-color:#9D1F61"/>
			<stop  offset="1" style="stop-color:#EB222A"/>
		</linearGradient>
		<line fill="none" stroke="url(#SVGID_18_)" stroke-width="2" stroke-miterlimit="10" x1="6" y1="52" x2="14" y2="52"/>
		<linearGradient id="SVGID_19_" gradientUnits="userSpaceOnUse" x1="16" y1="52" x2="20" y2="52">
			<stop  offset="0" style="stop-color:#9D1F61"/>
			<stop  offset="1" style="stop-color:#EB222A"/>
		</linearGradient>
		<line fill="none" stroke="url(#SVGID_19_)" stroke-width="2" stroke-miterlimit="10" x1="16" y1="52" x2="20" y2="52"/>
		<linearGradient id="SVGID_20_" gradientUnits="userSpaceOnUse" x1="44" y1="13" x2="46" y2="13">
			<stop  offset="0" style="stop-color:#9D1F61"/>
			<stop  offset="1" style="stop-color:#EB222A"/>
		</linearGradient>
		<line fill="none" stroke="url(#SVGID_20_)" stroke-width="2" stroke-miterlimit="10" x1="45" y1="9" x2="45" y2="17"/>
		<linearGradient id="SVGID_21_" gradientUnits="userSpaceOnUse" x1="36" y1="23" x2="38" y2="23">
			<stop  offset="0" style="stop-color:#9D1F61"/>
			<stop  offset="1" style="stop-color:#EB222A"/>
		</linearGradient>
		<line fill="none" stroke="url(#SVGID_21_)" stroke-width="2" stroke-miterlimit="10" x1="37" y1="19" x2="37" y2="27"/>
		<linearGradient id="SVGID_22_" gradientUnits="userSpaceOnUse" x1="36" y1="33" x2="38" y2="33">
			<stop  offset="0" style="stop-color:#9D1F61"/>
			<stop  offset="1" style="stop-color:#EB222A"/>
		</linearGradient>
		<line fill="none" stroke="url(#SVGID_22_)" stroke-width="2" stroke-miterlimit="10" x1="37" y1="29" x2="37" y2="37"/>
		<linearGradient id="SVGID_23_" gradientUnits="userSpaceOnUse" x1="40" y1="33" x2="42" y2="33">
			<stop  offset="0" style="stop-color:#9D1F61"/>
			<stop  offset="1" style="stop-color:#EB222A"/>
		</linearGradient>
		<line fill="none" stroke="url(#SVGID_23_)" stroke-width="2" stroke-miterlimit="10" x1="41" y1="29" x2="41" y2="37"/>
		<linearGradient id="SVGID_24_" gradientUnits="userSpaceOnUse" x1="44" y1="33" x2="46" y2="33">
			<stop  offset="0" style="stop-color:#9D1F61"/>
			<stop  offset="1" style="stop-color:#EB222A"/>
		</linearGradient>
		<line fill="none" stroke="url(#SVGID_24_)" stroke-width="2" stroke-miterlimit="10" x1="45" y1="29" x2="45" y2="37"/>
		<linearGradient id="SVGID_25_" gradientUnits="userSpaceOnUse" x1="56" y1="33" x2="58" y2="33">
			<stop  offset="0" style="stop-color:#9D1F61"/>
			<stop  offset="1" style="stop-color:#EB222A"/>
		</linearGradient>
		<line fill="none" stroke="url(#SVGID_25_)" stroke-width="2" stroke-miterlimit="10" x1="57" y1="29" x2="57" y2="37"/>
		<linearGradient id="SVGID_26_" gradientUnits="userSpaceOnUse" x1="48" y1="13" x2="50" y2="13">
			<stop  offset="0" style="stop-color:#9D1F61"/>
			<stop  offset="1" style="stop-color:#EB222A"/>
		</linearGradient>
		<line fill="none" stroke="url(#SVGID_26_)" stroke-width="2" stroke-miterlimit="10" x1="49" y1="9" x2="49" y2="17"/>
		<linearGradient id="SVGID_27_" gradientUnits="userSpaceOnUse" x1="48" y1="23" x2="50" y2="23">
			<stop  offset="0" style="stop-color:#9D1F61"/>
			<stop  offset="1" style="stop-color:#EB222A"/>
		</linearGradient>
		<line fill="none" stroke="url(#SVGID_27_)" stroke-width="2" stroke-miterlimit="10" x1="49" y1="19" x2="49" y2="27"/>
		<linearGradient id="SVGID_28_" gradientUnits="userSpaceOnUse" x1="36" y1="13" x2="42" y2="13">
			<stop  offset="0" style="stop-color:#9D1F61"/>
			<stop  offset="1" style="stop-color:#EB222A"/>
		</linearGradient>
		<path fill="none" stroke="url(#SVGID_28_)" stroke-width="2" stroke-miterlimit="10" d="M41,15c0,0.553-0.447,1-1,1h-2
			c-0.553,0-1-0.447-1-1v-4c0-0.553,0.447-1,1-1h2c0.553,0,1,0.447,1,1V15z"/>
		<linearGradient id="SVGID_29_" gradientUnits="userSpaceOnUse" x1="52" y1="13" x2="58" y2="13">
			<stop  offset="0" style="stop-color:#9D1F61"/>
			<stop  offset="1" style="stop-color:#EB222A"/>
		</linearGradient>
		<path fill="none" stroke="url(#SVGID_29_)" stroke-width="2" stroke-miterlimit="10" d="M57,15c0,0.553-0.447,1-1,1h-2
			c-0.553,0-1-0.447-1-1v-4c0-0.553,0.447-1,1-1h2c0.553,0,1,0.447,1,1V15z"/>
		<linearGradient id="SVGID_30_" gradientUnits="userSpaceOnUse" x1="40" y1="23" x2="46" y2="23">
			<stop  offset="0" style="stop-color:#9D1F61"/>
			<stop  offset="1" style="stop-color:#EB222A"/>
		</linearGradient>
		<path fill="none" stroke="url(#SVGID_30_)" stroke-width="2" stroke-miterlimit="10" d="M45,25c0,0.553-0.447,1-1,1h-2
			c-0.553,0-1-0.447-1-1v-4c0-0.553,0.447-1,1-1h2c0.553,0,1,0.447,1,1V25z"/>
		<linearGradient id="SVGID_31_" gradientUnits="userSpaceOnUse" x1="52" y1="23" x2="58" y2="23">
			<stop  offset="0" style="stop-color:#9D1F61"/>
			<stop  offset="1" style="stop-color:#EB222A"/>
		</linearGradient>
		<path fill="none" stroke="url(#SVGID_31_)" stroke-width="2" stroke-miterlimit="10" d="M57,25c0,0.553-0.447,1-1,1h-2
			c-0.553,0-1-0.447-1-1v-4c0-0.553,0.447-1,1-1h2c0.553,0,1,0.447,1,1V25z"/>
		<linearGradient id="SVGID_32_" gradientUnits="userSpaceOnUse" x1="48" y1="33" x2="54" y2="33">
			<stop  offset="0" style="stop-color:#9D1F61"/>
			<stop  offset="1" style="stop-color:#EB222A"/>
		</linearGradient>
		<path fill="none" stroke="url(#SVGID_32_)" stroke-width="2" stroke-miterlimit="10" d="M53,35c0,0.553-0.447,1-1,1h-2
			c-0.553,0-1-0.447-1-1v-4c0-0.553,0.447-1,1-1h2c0.553,0,1,0.447,1,1V35z"/>
		<linearGradient id="SVGID_33_" gradientUnits="userSpaceOnUse" x1="0" y1="26" x2="64" y2="26">
			<stop  offset="0" style="stop-color:#9D1F61"/>
			<stop  offset="1" style="stop-color:#EB222A"/>
		</linearGradient>
		<path fill="none" stroke="url(#SVGID_33_)" stroke-width="2" stroke-miterlimit="10" d="M1,7V5c0-0.552,0.448-1,1-1h60
			c0.553,0,1,0.448,1,1v42c0,0.553-0.447,1-1,1H36"/>
		<linearGradient id="SVGID_34_" gradientUnits="userSpaceOnUse" x1="36" y1="42" x2="63" y2="42">
			<stop  offset="0" style="stop-color:#9D1F61"/>
			<stop  offset="1" style="stop-color:#EB222A"/>
		</linearGradient>
		<line fill="none" stroke="url(#SVGID_34_)" stroke-width="2" stroke-miterlimit="10" x1="63" y1="42" x2="36" y2="42"/>
	</g>
</g>
</svg>
