<?xml version="1.0" encoding="utf-8"?>
<!-- Generator: Adobe Illustrator 16.0.0, SVG Export Plug-In . SVG Version: 6.00 Build 0)  -->
<!DOCTYPE svg PUBLIC "-//W3C//DTD SVG 1.1//EN" "http://www.w3.org/Graphics/SVG/1.1/DTD/svg11.dtd">
<svg version="1.1" id="Layer_1" xmlns="http://www.w3.org/2000/svg" xmlns:xlink="http://www.w3.org/1999/xlink" x="0px" y="0px"
	 width="205px" height="205px" viewBox="0 0 205 205" enable-background="new 0 0 205 205" xml:space="preserve">
<path fill="#CDD6D5" d="M192.096,178.104V61.229c0-7.396-5.881-13.392-13.135-13.392H26.742c-7.254,0-13.135,5.996-13.135,13.392
	v116.797"/>
<path fill="#484756" d="M84.542,106.563l-0.003,0.04c-0.007,0.121-0.016,0.24-0.029,0.367c-0.305,2.967-2.463,5.418-5.369,6.098
	l-13.233,3.097c-13.691,3.204-23.255,15.262-23.255,29.323v31.672h125.676v-31.672c0-14.061-9.561-26.119-23.252-29.322
	l-13.234-3.097c-3.006-0.703-5.225-3.346-5.396-6.425c-0.008-0.131-0.014-0.263-0.014-0.395v-3.053
	c1.625-1.112,3.16-2.348,4.596-3.699h1.332c11.084,0,20.1-9.017,20.1-20.101v-0.072c2.063-2.18,3.252-5.087,3.252-8.212V53.732
	c0-2.141-0.566-4.152-1.555-5.894h-23.346v6.18h12.635v16.809h-6.502v0.834h-6.133c0,3.941-0.859,7.722-2.555,11.238
	c-0.189,0.395-0.416,0.829-0.693,1.327l-1.67,3.006h-0.109l-1.82,1.98c-1.92,2.085-4.146,3.831-6.619,5.189l-3.178,1.747v10.854
	l0.02,0.081c0.004,0.08,0.008,0.161,0.014,0.243c0.473,8.478,6.578,15.75,14.848,17.686l13.234,3.096
	c8.113,1.898,13.781,9.046,13.781,17.381v11.076H54.918V145.49c0-8.335,5.667-15.482,13.782-17.381l13.234-3.096
	c7.999-1.872,13.938-8.619,14.775-16.782c0.031-0.3,0.055-0.601,0.074-0.938l-0.002,0.045l0.005-0.09
	c0.018-0.33,0.027-0.662,0.027-1v-9.644l-3.413-1.689c-0.248-0.123-0.495-0.248-0.738-0.378c-0.117-0.063-0.233-0.129-0.35-0.194
	l-0.121-0.068c-0.166-0.094-0.332-0.188-0.488-0.281c-0.163-0.097-0.326-0.195-0.481-0.292c-0.163-0.101-0.323-0.206-0.481-0.309
	c-7.386-4.816-11.794-12.941-11.794-21.734h-6.133v-0.834h-6.504V54.58l-3.257-1.729c-2.451-1.301-4.593-3.01-6.364-5.014H42.13
	c2.632,5.544,6.712,10.357,11.915,13.887v9.388c0,6.605,5.374,11.979,11.979,11.979h2.397c2.61,8.347,8.055,15.643,15.62,20.577
	c0.168,0.109,0.336,0.219,0.508,0.327v2.256C84.549,106.352,84.546,106.451,84.542,106.563z"/>
<path fill="#DFE2EA" d="M120.361,177.16L120.361,177.16c-14.84,0-20.917,0-35.125,0l0,0H3.795v6.327
	c0,10.448,8.469,18.917,18.916,18.917h160.281c10.447,0,18.916-8.469,18.916-18.917v-6.327H120.361z"/>
<path fill="#C6C9D2" d="M4.872,189.782c2.595,7.352,9.601,12.622,17.84,12.622h160.281c8.238,0,15.244-5.271,17.838-12.622h-80.469
	c-14.84,0-20.917,0-35.125,0H4.872z"/>
<rect x="28.53" y="62.554" fill="#FFFFFF" width="150.074" height="100.144"/>
<circle fill="#FFDE00" cx="73.626" cy="32.88" r="28.732"/>
<linearGradient id="SVGID_1_" gradientUnits="userSpaceOnUse" x1="48.7856" y1="141.9189" x2="162.1973" y2="141.9189">
	<stop  offset="0" style="stop-color:#9D1F61"/>
	<stop  offset="1" style="stop-color:#EB242B"/>
</linearGradient>
<path fill="url(#SVGID_1_)" d="M143.678,122.137l-4.26-0.997H71.564l-4.26,0.997c-10.848,2.538-18.519,12.211-18.519,23.352v17.21
	h113.412v-17.21C162.197,134.348,154.525,124.675,143.678,122.137z"/>
<path fill="#F9D7A5" d="M105.492,141.949c14.809,0,27.633-8.463,33.926-20.81l-8.973-2.1c-5.943-1.39-10.146-6.69-10.146-12.793
	V91.246H90.683v15.001c0,6.103-4.203,11.402-10.146,12.793l-8.974,2.1C77.858,133.487,90.682,141.949,105.492,141.949z"/>
<path fill="#F1C891" d="M120.299,106.247V91.246H90.682v15.001c0,0.455-0.026,0.905-0.071,1.351c4.298,2.139,9.141,3.35,14.268,3.35
	l0,0c5.6,0,10.861-1.439,15.443-3.962C120.309,106.74,120.299,106.494,120.299,106.247z"/>
<path fill="#FFE1B3" d="M104.879,103.725L104.879,103.725c-17.708,0-32.065-14.356-32.065-32.065V45.446
	c0-17.709,14.356-32.064,32.065-32.064l0,0c17.709,0,32.064,14.355,32.064,32.064V71.66
	C136.943,89.369,122.588,103.725,104.879,103.725z"/>
<path fill="#F9D7A5" d="M110.209,13.831c8.461,5.772,14.02,15.488,14.02,26.504v26.214c0,17.708-14.355,32.064-32.065,32.064l0,0
	c-1.817,0-3.596-0.159-5.33-0.449c5.141,3.507,11.353,5.56,18.045,5.56l0,0c17.709,0,32.064-14.356,32.064-32.064V45.446
	C136.943,29.554,125.379,16.37,110.209,13.831z"/>
<g>
	<g>
		<rect x="65.799" y="42.964" fill="#FFDE00" width="7.015" height="12.402"/>
		<path fill="#FFDE00" d="M71.533,23.77c-1.62,2.596-3.797,6.779-4.948,12.329c-0.999,4.813-0.872,8.941-0.56,11.785
			c3.9-0.962,6.945-2.341,9.055-3.475c0.832-0.447,4.946-2.699,9.238-6.857l0,0L71.533,23.77z"/>
	</g>
</g>
<path fill="#212121" d="M145.736,41.915c-2.73-10.115-7.264-19.747-14.639-26.88c-2.393-2.312-11.373-11.001-24.67-11.688
	c0,0-13.874-0.716-25.853,9.478c-3.614,3.076-6.591,6.804-9.042,10.947c11.15,15.953,27.878,26.098,46.583,26.098
	c4.605,0,14.229-1.405,18.828-4.423L145.736,41.915z"/>
<path fill="#212121" d="M131.098,15.035c-2.393-2.312-11.375-11.001-24.67-11.688c0,0-3.363-0.17-8.205,0.868
	c10.001,2.404,16.691,8.874,18.705,10.821c7.375,7.134,11.908,16.765,14.639,26.88l-8.793,3.53
	c-2.918,1.917-7.863,3.181-12.264,3.85c2.492,0.374,5.029,0.573,7.605,0.573c4.605,0,14.23-1.405,18.828-4.423l8.793-3.53
	C143.006,31.8,138.471,22.168,131.098,15.035z"/>
<linearGradient id="SVGID_2_" gradientUnits="userSpaceOnUse" x1="136.9434" y1="62.4209" x2="149.5801" y2="62.4209">
	<stop  offset="0" style="stop-color:#9D1F61"/>
	<stop  offset="1" style="stop-color:#EB242B"/>
</linearGradient>
<path fill="url(#SVGID_2_)" d="M143.732,76.958h-6.789V47.884h6.789c3.23,0,5.848,2.618,5.848,5.847v17.38
	C149.58,74.34,146.963,76.958,143.732,76.958z"/>
<linearGradient id="SVGID_3_" gradientUnits="userSpaceOnUse" x1="136.9434" y1="62.4219" x2="142.3398" y2="62.4219">
	<stop  offset="0" style="stop-color:#9D1F61"/>
	<stop  offset="1" style="stop-color:#EB242B"/>
</linearGradient>
<rect x="136.943" y="47.886" fill="url(#SVGID_3_)" width="5.396" height="29.073"/>
<linearGradient id="SVGID_4_" gradientUnits="userSpaceOnUse" x1="60.1782" y1="62.4214" x2="72.814" y2="62.4214">
	<stop  offset="0" style="stop-color:#9D1F61"/>
	<stop  offset="1" style="stop-color:#EB242B"/>
</linearGradient>
<path fill="url(#SVGID_4_)" d="M66.025,47.884h6.789v29.074h-6.789c-3.229,0-5.847-2.618-5.847-5.847v-17.38
	C60.178,50.502,62.795,47.884,66.025,47.884z"/>
<linearGradient id="SVGID_5_" gradientUnits="userSpaceOnUse" x1="67.8071" y1="62.4219" x2="72.8149" y2="62.4219">
	<stop  offset="0" style="stop-color:#9D1F61"/>
	<stop  offset="1" style="stop-color:#EB242B"/>
</linearGradient>
<rect x="67.807" y="47.886" fill="url(#SVGID_5_)" width="5.008" height="29.073"/>
<g>
	<path fill="#CDD6D5" d="M56.219,133.727h-4.35c-1.973,3.501-3.084,7.524-3.084,11.762v17.209H70.31v-14.879
		C70.31,140.035,64.001,133.727,56.219,133.727z"/>
	<path fill="#CDD6D5" d="M154.764,133.727c-7.783,0-14.092,6.309-14.092,14.092v14.88h21.525v-17.21
		c0-4.237-1.113-8.261-3.086-11.762H154.764L154.764,133.727z"/>
</g>
<path fill="#212121" d="M201.908,174.094H16.674V61.229c0-5.693,4.516-10.325,10.067-10.325h20.689
	c2.508,3.646,5.787,6.778,9.681,9.147v11.061c0,4.915,3.999,8.913,8.914,8.913h4.737c2.332,9.508,8.542,17.503,16.854,22.214v4.008
	c0,4.702-3.198,8.735-7.777,9.808l-13.233,3.097c-12.298,2.877-20.886,13.708-20.886,26.337v14.145H31.596V65.622h13.301
	c1.694,0,3.066-1.373,3.066-3.066c0-1.693-1.372-3.066-3.066-3.066H28.529c-1.693,0-3.066,1.373-3.066,3.066v100.142
	c0,1.692,1.373,3.066,3.066,3.066h150.075c1.693,0,3.066-1.372,3.066-3.066V62.556c0-1.693-1.373-3.066-3.066-3.066h-25.957v-5.759
	c0-0.988-0.164-1.938-0.463-2.828h26.777c5.551,0,10.068,4.632,10.068,10.325v100.096c0,1.693,1.373,3.066,3.066,3.066
	s3.066-1.373,3.066-3.066V61.229c0-9.075-7.268-16.458-16.201-16.458h-32.109c1.441-0.561,2.258-2.128,1.846-3.654
	c-0.588-2.178-1.25-4.304-1.969-6.319c-3.217-9.022-7.758-16.413-13.5-21.966C125.135,5,116.172,0.779,106.586,0.284
	c-0.467-0.023-9-0.383-18.663,4.186c-4.408-2.219-9.33-3.388-14.296-3.388c-17.534,0-31.798,14.264-31.798,31.797
	c0,4.147,0.811,8.172,2.311,11.892H26.742c-8.933,0-16.2,7.383-16.2,16.458v112.866H3.795c-1.694,0-3.067,1.372-3.067,3.065v6.327
	c0,12.122,9.862,21.983,21.983,21.983h160.281c12.121,0,21.982-9.861,21.982-21.983v-6.327
	C204.975,175.467,203.602,174.094,201.908,174.094z M73.628,41.708c-0.487,0.261-0.982,0.507-1.481,0.746
	c-0.422,0.094-0.809,0.274-1.145,0.521c-0.702,0.305-1.413,0.591-2.138,0.852c-0.005-2.385,0.236-4.764,0.723-7.105
	c0.522-2.516,1.319-4.949,2.377-7.276c2.392,2.982,4.964,5.708,7.689,8.16C76.974,39.807,74.66,41.154,73.628,41.708z
	 M69.748,73.892h-3.723c-1.533,0-2.781-1.247-2.781-2.78v-17.38c0-1.533,1.248-2.78,2.781-2.78h3.723V71.66V73.892z M75.88,71.66
	V47.884v-0.437c0.218-0.112,0.436-0.221,0.651-0.336c1.326-0.713,4.464-2.544,7.952-5.559c9.979,7.369,21.577,11.383,33.631,11.383
	c3.902,0,10.521-0.868,15.762-2.697V71.66c0,5.729-1.676,11.07-4.555,15.572h-21.127c-1.693,0-3.066,1.373-3.066,3.066
	s1.373,3.066,3.066,3.066h15.885c-5.119,4.533-11.842,7.293-19.201,7.293C88.889,100.658,75.88,87.649,75.88,71.66z M143.732,50.951
	c1.533,0,2.781,1.247,2.781,2.78v17.38c0,1.533-1.248,2.78-2.781,2.78h-3.723V71.66V50.951H143.732z M138.996,80.024h1.168
	c-0.182,2.274-1.338,4.272-3.051,5.586C137.893,83.82,138.523,81.954,138.996,80.024z M51.852,145.488
	c0-9.766,6.642-18.141,16.15-20.365l2-0.469c2.284,3.902,5.171,7.383,8.62,10.363c0.579,0.502,1.293,0.746,2.004,0.746
	c0.859,0,1.715-0.359,2.32-1.061c1.108-1.281,0.967-3.219-0.314-4.326c-2.448-2.115-4.561-4.53-6.325-7.197l4.93-1.154
	c7.367-1.725,12.513-8.213,12.513-15.779v-1.273c3.5,1.173,7.24,1.817,11.129,1.817c4.348,0,8.51-0.799,12.354-2.248v1.705
	c0,7.566,5.146,14.055,12.514,15.779l4.938,1.155c-6.445,9.773-17.303,15.701-29.193,15.701c-5.375,0-10.528-1.186-15.318-3.525
	c-1.521-0.742-3.358-0.111-4.101,1.411c-0.743,1.522-0.112,3.358,1.41,4.101c5.636,2.752,11.694,4.146,18.008,4.146
	c14.732,0,28.117-7.744,35.492-20.36l1.998,0.467c9.508,2.226,16.148,10.6,16.148,20.366v13.928H51.852V145.488z M175.537,65.622
	v94.01h-10.275v-14.144c0-12.63-8.588-23.46-20.885-26.338l-13.234-3.096c-4.578-1.072-7.777-5.105-7.777-9.808v-4.731
	c3.492-2.17,6.574-4.937,9.109-8.154c7.568-0.061,13.717-6.17,13.848-13.722c3.656-1.112,6.324-4.514,6.324-8.528v-5.49H175.537
	L175.537,65.622z M106.27,6.409c8.061,0.417,15.697,4.06,22.695,10.83c5.057,4.892,9.09,11.492,11.988,19.617
	c0.664,1.864,1.277,3.835,1.822,5.858c0.266,0.979,0.977,1.715,1.854,2.057h-0.895c-0.178,0-0.35,0.019-0.52,0.047h-3.271
	c-0.076-0.366-0.219-0.724-0.436-1.055c-0.93-1.417-2.83-1.81-4.246-0.881c-3.701,2.429-12.48,3.92-17.146,3.92
	c-11.41,0-22.397-4.076-31.719-11.52L75.378,23.407c2.124-3.222,4.532-5.992,7.185-8.248C93.406,5.931,106.15,6.403,106.27,6.409z
	 M73.627,7.214c2.604,0,5.189,0.399,7.657,1.168c-0.904,0.65-1.806,1.347-2.696,2.105c-3.667,3.12-6.913,7.041-9.652,11.652
	c-0.001,0.002-0.003,0.004-0.005,0.006c-0.004,0.008-0.009,0.016-0.014,0.024c-0.008,0.013-0.016,0.025-0.023,0.038
	c-0.001,0.003-0.003,0.006-0.004,0.009c-2.546,4.095-4.331,8.555-5.308,13.259c-0.68,3.279-0.947,6.617-0.809,9.958
	c-2.971,1.168-5.165,3.885-5.586,7.152c-5.782-4.826-9.225-12.012-9.225-19.708C47.962,18.727,59.475,7.214,73.627,7.214z
	 M198.842,183.487c0,8.739-7.109,15.851-15.85,15.851H22.711c-8.739,0-15.851-7.111-15.851-15.851v-3.261h191.981V183.487z"/>
<circle fill="#212121" cx="92.163" cy="57.957" r="3.006"/>
<circle fill="#212121" cx="116.33" cy="57.957" r="3.006"/>
<path fill="#212121" d="M104.648,85.52c-3.924,0-7.847-1.494-10.834-4.48c-1.174-1.174-1.174-3.077,0-4.251
	c1.175-1.174,3.077-1.174,4.252,0c3.629,3.63,9.536,3.63,13.165,0c1.174-1.174,3.078-1.174,4.25,0c1.176,1.174,1.176,3.077,0,4.251
	C112.494,84.026,108.57,85.52,104.648,85.52z"/>
</svg>
