<?xml version="1.0" encoding="utf-8"?>
<!-- Generator: Adobe Illustrator 16.0.0, SVG Export Plug-In . SVG Version: 6.00 Build 0)  -->
<!DOCTYPE svg PUBLIC "-//W3C//DTD SVG 1.1//EN" "http://www.w3.org/Graphics/SVG/1.1/DTD/svg11.dtd">
<svg version="1.1" id="Layer_1" xmlns="http://www.w3.org/2000/svg" xmlns:xlink="http://www.w3.org/1999/xlink" x="0px" y="0px"
	 width="280px" height="286px" viewBox="0 0 280 286" enable-background="new 0 0 280 286" xml:space="preserve">
<path fill="#56ABDA" d="M84.383,42.32c60.271-0.063,140.461-0.127,189.177,0.128c-0.256-14.876-0.639-25.921-1.149-30.646
	C254.597,9.823,156.082,8.993,84.128,9.567C84.511,17.42,85.148,32.552,84.383,42.32z M98.748,21.379h160.063v8.875H98.748V21.379z"
	/>
<path fill="#FFDE00" d="M75.125,9.632c-32.369,0.319-57.973,0.894-66.081,1.787c-0.191,5.3-0.511,16.409-0.766,30.966
	c9.769,0,35.052-0.064,67.103-0.128C76.21,33.957,75.636,18.762,75.125,9.632z M28.964,30.317h-9.193v-8.874h9.193V30.317z
	 M46.075,30.317h-9.193v-8.874h9.193V30.317z M53.992,30.317v-8.874h9.194v8.874H53.992z"/>
<g>
	<path fill="#212121" d="M193.113,155.073c-5.683-5.555-13.472-11.046-23.751-14.749c4.532,5.491,8.363,12.323,11.301,20.048
		C184.94,158.904,189.09,157.18,193.113,155.073z"/>
	<path fill="#212121" d="M139.29,211.13h-30.519c0.064,12.45,2.107,25.22,5.875,36.201c7.725-2.618,15.897-4.278,24.644-4.979
		V211.13L139.29,211.13z"/>
	<path fill="#212121" d="M139.29,173.972c-8.619-0.702-16.854-2.299-24.644-4.789c-3.129,10.472-4.98,22.155-5.619,33.009h30.263
		V173.972z"/>
	<path fill="#212121" d="M149.314,165.544c7.917,0,15.515-0.894,22.856-2.618c-5.171-13.535-13.088-24.197-24.006-26.496v29.114
		C148.548,165.544,148.932,165.544,149.314,165.544z"/>
	<path fill="#212121" d="M117.902,255.566c5.235,11.109,12.449,19.282,21.388,21.325v-25.603
		C131.757,251.928,124.605,253.396,117.902,255.566z"/>
	<path fill="#212121" d="M188.707,211.13c-0.446,11.173-2.682,23.56-6.512,35.052c5.172,1.469,10.088,3.256,14.748,5.427
		c10.407-12.322,16.601-27.263,17.75-40.479H188.707z"/>
	<path fill="#212121" d="M148.165,250.843v25.921c8.747-2.426,16.409-11.747,22.027-24.134c-6.641-1.149-13.6-1.787-20.941-1.787
		C148.932,250.778,148.548,250.843,148.165,250.843z"/>
	<path fill="#212121" d="M148.165,241.968c0.383,0,0.702-0.063,1.086-0.063c8.491,0,16.6,0.766,24.261,2.298
		c3.576-10.279,5.747-21.899,6.193-33.072h-31.604v30.838H148.165z"/>
	<path fill="#212121" d="M139.29,136.43c-9.577,2.299-16.791,11.875-21.771,24.39c6.895,2.171,14.174,3.575,21.771,4.214V136.43z"/>
	<path fill="#212121" d="M188.707,202.255h26.05c-0.894-12.642-5.683-27.772-15.451-40.351c-5.044,2.746-10.279,5.108-15.706,6.959
		C186.601,179.271,188.324,190.763,188.707,202.255z"/>
	<path fill="#212121" d="M190.432,258.439c-3.64-1.531-7.534-2.745-11.429-3.83c-2.81,6.64-6.257,12.769-10.279,17.749
		C176.576,269.166,183.919,264.505,190.432,258.439z"/>
	<path fill="#212121" d="M98.621,152.52c3.384,2.043,7.022,3.83,10.726,5.362c2.682-6.768,6.001-12.896,9.96-17.877
		C111.709,142.814,104.75,146.965,98.621,152.52z"/>
	<path fill="#212121" d="M99.897,211.13H73.784c0.128,16.855,7.087,33.902,19.729,46.544c4.085-2.682,8.363-5.107,12.832-7.087
		C102.196,238.584,99.897,224.793,99.897,211.13z"/>
	<path fill="#212121" d="M149.314,174.418c-0.383,0-0.767-0.063-1.086-0.063v27.837h31.604c-0.383-9.96-1.916-20.878-4.789-30.965
		C166.681,173.333,158.062,174.418,149.314,174.418z"/>
	<path fill="#212121" d="M100.536,263.611c5.554,4.214,11.684,7.406,18.26,9.769c-3.448-4.149-6.513-9.066-9.066-14.557
		C106.537,260.229,103.473,261.76,100.536,263.611z"/>
	<path fill="#212121" d="M106.409,166.246c-4.979-2.043-9.704-4.469-14.109-7.278c-10.79,12.896-16.408,29.178-18.068,43.287h25.857
		C100.791,190.827,102.771,177.994,106.409,166.246z"/>
</g>
<path fill="#616262" d="M278.986,4.588c-1.277-1.086-4.277-3.703-135.354-4.214C104.239,0.246,11.854,0.246,3.617,3.502
	C1,4.523,0.489,6.631,0.425,7.461c-0.319,2.873-1.532,65.379-2.106,125.33C-2.831,256.27-0.533,258.887,1.383,260.93l1.469,1.597
	H4.83c4.598,0,66.72-1.341,79.553-1.66c-2.49-2.745-4.725-5.683-6.768-8.747c-17.749,0.383-57.206,1.213-69.337,1.469
	C6.044,233.349,7.129,116.255,8.214,51.323c-2.617,0-4.085,0-4.213,0v-8.875c0.191,0,1.724,0,4.404,0
	c0.256-14.62,0.512-25.666,0.767-30.966c8.108-0.893,33.711-1.531,66.081-1.787c-0.128-1.66-0.191-3.192-0.255-4.342l8.874-0.639
	c0.064,0.703,0.191,2.427,0.319,4.917c71.955-0.575,170.469,0.255,188.282,2.234c0.511,4.725,0.894,15.771,1.149,30.646
	c1.532,0,3.064,0,4.533,0l-0.064,8.874c-1.404,0-2.873,0-4.341,0c0.958,63.654,0.383,179.344-0.639,201.243
	c-9.896,0.575-41.5,0.447-65.762,0.192c-0.702,0.957-1.468,1.915-2.234,2.873l0.255,0.127l-3.958,4.342
	c-0.384,0.447-0.83,0.766-1.213,1.213c-0.063,0.064-0.191,0.191-0.256,0.256c78.53,1.086,79.297-0.064,81.021-2.618
	c0.575-0.894,1.916-2.873,2.044-126.097C283.072,8.163,281.156,6.503,278.986,4.588z"/>
<path fill="#616262" d="M273.687,51.323c-0.063-3.064-0.063-6.065-0.127-8.875c-48.716-0.191-128.906-0.191-189.177-0.128
	c-0.191,2.043-0.383,3.895-0.702,5.363l-8.683-1.915c0.191-0.958,0.383-2.106,0.511-3.448c-32.115,0.064-57.334,0.064-67.103,0.128
	c-0.064,2.81-0.128,5.811-0.128,8.875C36.052,51.259,195.539,51.004,273.687,51.323z"/>
<path fill="#616262" d="M3.937,42.448v8.875c0.128,0,1.66,0,4.214,0c0.063-3.064,0.128-6.065,0.128-8.875
	C5.597,42.448,4.064,42.448,3.937,42.448z"/>
<path fill="#616262" d="M278.028,51.323l0.063-8.875c-1.468,0-3,0-4.532,0c0.063,2.81,0.127,5.811,0.127,8.875
	C275.155,51.323,276.56,51.323,278.028,51.323z"/>
<path fill="#616262" d="M75.444,42.32c2.938,0,5.874,0,8.938,0c0.83-9.769,0.128-24.9-0.319-32.753c-3,0-6.001,0.064-8.874,0.064
	C75.636,18.762,76.21,33.957,75.444,42.32z"/>
<path fill="#616262" d="M83.744,4.651L74.87,5.289c0.063,1.15,0.191,2.683,0.255,4.343c2.938,0,5.874-0.064,8.875-0.064
	C83.872,7.142,83.744,5.354,83.744,4.651z"/>
<path fill="#616262" d="M74.934,45.769l8.684,1.915c0.319-1.469,0.574-3.32,0.702-5.363c-3.001,0-6.002,0-8.938,0
	C75.317,43.662,75.125,44.874,74.934,45.769z"/>
<path fill="#212121" d="M98.748,21.379h160.063v8.875H98.748V21.379z"/>
<path fill="#212121" d="M19.834,21.379h9.194v8.875h-9.194V21.379z"/>
<path fill="#212121" d="M36.882,21.379h9.193v8.875h-9.193V21.379z"/>
<path fill="#212121" d="M53.992,21.379h9.194v8.875h-9.194V21.379z"/>
<path fill="#194757" d="M151.996,127.491c0.383,0.063,0.83,0.063,1.277,0.128C152.826,127.555,152.379,127.491,151.996,127.491z"/>
<path fill="#194757" d="M196.05,265.271c1.341-1.213,2.617-2.49,3.831-3.767l0,0C198.604,262.781,197.391,264.059,196.05,265.271z"
	/>
<path fill="#194757" d="M135.779,127.363c2.426-0.191,4.916-0.318,7.47-0.318C140.695,127.045,138.205,127.172,135.779,127.363z"/>
<path fill="#194757" d="M200.072,253.077l4.979,2.489c0.767-0.957,1.469-1.915,2.234-2.873c-2.873,0-5.618-0.063-8.235-0.127
	C199.37,252.758,199.753,252.886,200.072,253.077z"/>
<path fill="#194757" d="M199.881,261.505L199.881,261.505c0.128-0.064,0.191-0.192,0.256-0.256
	C200.072,261.313,199.944,261.44,199.881,261.505z"/>
<path fill="#194757" d="M134.885,127.428c0.32,0,0.574-0.064,0.895-0.064C135.459,127.428,135.205,127.428,134.885,127.428z"/>
<path fill="#194757" d="M143.568,127.045c-0.128,0-0.191,0-0.319,0c0.064,0,0.191,0,0.256,0
	C143.505,127.045,143.505,127.045,143.568,127.045z"/>
<path fill="#194757" d="M151.996,127.491c-2.554-0.255-5.235-0.383-7.98-0.383c0.127,0,0.255,0.063,0.383,0.063
	C146.952,127.108,149.506,127.236,151.996,127.491z"/>
<path fill="#194757" d="M196.05,265.271c-0.511,0.447-1.021,0.895-1.532,1.341C195.028,266.166,195.539,265.719,196.05,265.271z"/>
<path fill="#194757" d="M201.349,260.036l3.959-4.342l-0.256-0.128c-1.532,1.916-3.192,3.831-4.915,5.619
	C200.52,260.803,200.966,260.482,201.349,260.036z"/>
<path fill="#194757" d="M143.76,127.045c-0.063,0-0.127,0-0.191,0c0.128,0,0.319,0,0.447,0
	C143.888,127.045,143.824,127.045,143.76,127.045z"/>
<path fill="#194757" d="M144.398,127.108c-0.128,0-0.256-0.063-0.383-0.063c-0.128,0-0.319,0-0.447,0h-0.063
	C143.824,127.045,144.079,127.108,144.398,127.108z"/>
<path fill="#56ABDA" d="M214.693,211.13h4.724v-8.875h-4.597c0.128,1.532,0.191,3.001,0.191,4.47
	C214.948,208.129,214.82,209.598,214.693,211.13z"/>
<g>
	<path fill="#56ABDA" d="M199.051,252.63c-0.319,0-0.639,0-0.958,0l-0.128,8.875c0.639,0,1.214,0,1.853,0
		c0.063-0.128,0.191-0.192,0.255-0.256c1.724-1.852,3.384-3.703,4.916-5.618l-4.979-2.49
		C199.753,252.886,199.37,252.758,199.051,252.63z"/>
	<path fill="#56ABDA" d="M74.231,202.255h-4.979v8.875h4.469c0-0.128,0-0.256,0-0.383C73.721,208.001,73.912,205.192,74.231,202.255
		z"/>
	<g>
		<path fill="#56ABDA" d="M194.518,266.612c-1.724,1.532-3.512,3.001-5.363,4.342C191.006,269.613,192.794,268.145,194.518,266.612z
			"/>
		<path fill="#56ABDA" d="M176.96,133.685c0.894,0.383,1.788,0.83,2.682,1.277C178.748,134.515,177.854,134.067,176.96,133.685z"/>
		<path fill="#56ABDA" d="M169.554,130.939c0.511,0.127,0.958,0.319,1.468,0.511C170.575,131.259,170.064,131.066,169.554,130.939z"
			/>
		<path fill="#56ABDA" d="M161.126,128.769c0.447,0.063,0.83,0.191,1.276,0.256C161.956,128.96,161.51,128.832,161.126,128.769z"/>
		<path fill="#56ABDA" d="M182.706,136.493c9.13,4.917,16.025,11.11,20.941,16.792l3.512,4.022l-4.597,2.745
			c-1.086,0.639-2.171,1.214-3.32,1.788c9.769,12.642,14.557,27.709,15.451,40.351h4.597v8.875h-4.725
			c-1.149,13.279-7.343,28.156-17.749,40.479c0.702,0.318,1.404,0.638,2.106,0.957c2.617,0.064,5.363,0.064,8.236,0.128
			c10.727-14.557,16.536-31.54,16.536-46.032C223.823,179.335,209.585,150.859,182.706,136.493z"/>
		<path fill="#56ABDA" d="M144.462,286.277c2.235-0.064,4.47-0.191,6.64-0.384c-1.404,0.128-2.873,0.192-4.341,0.256
			C145.994,286.213,145.229,286.277,144.462,286.277z"/>
		<path fill="#56ABDA" d="M120.584,283.276c-2.107-0.575-4.15-1.214-6.129-1.979C116.434,281.999,118.477,282.638,120.584,283.276z"
			/>
		<path fill="#56ABDA" d="M127.671,128.513c2.361-0.446,4.788-0.83,7.214-1.021C132.395,127.683,130.032,128.066,127.671,128.513z"
			/>
		<path fill="#56ABDA" d="M135.014,285.894c-1.277-0.127-2.49-0.319-3.768-0.511C132.523,285.574,133.736,285.767,135.014,285.894z"
			/>
		<path fill="#56ABDA" d="M143.249,286.341c0.128,0,0.256,0,0.384,0h-0.064C143.44,286.277,143.313,286.341,143.249,286.341z"/>
		<path fill="#56ABDA" d="M127.479,284.872c-1.723-0.319-3.384-0.702-5.043-1.149C124.095,284.17,125.756,284.553,127.479,284.872z"
			/>
		<path fill="#56ABDA" d="M188.516,271.528c-11.045,7.98-23.687,12.897-36.967,14.365
			C165.723,284.361,178.109,279.063,188.516,271.528z"/>
		<path fill="#56ABDA" d="M86.043,262.846l4.469-3.256c0.958-0.703,1.979-1.342,3.002-1.98
			c-12.643-12.641-19.666-29.688-19.729-46.543h-4.469v-8.875h4.979c1.597-14.109,7.279-30.391,18.068-43.287
			c-1.085-0.703-2.234-1.342-3.256-2.044l-4.277-2.937l3.511-3.767c10.599-11.302,23.879-18.644,38.946-21.645
			c-40.67,7.98-62.441,46.033-62.441,82.17c0,14.43,4.47,28.987,12.706,41.437c5.299-0.128,8.619-0.191,8.811-0.191l0.191,8.875
			c-0.256,0-1.086,0-2.234,0.063c7.853,8.811,18.005,15.897,30.071,20.366c-8.938-3.319-17.111-8.3-24.262-14.748L86.043,262.846z"
			/>
		<path fill="#56ABDA" d="M86.362,251.991c-0.128,0-3.512,0.063-8.811,0.191c2.042,3.064,4.277,6.002,6.768,8.747
			c1.148,0,1.979-0.063,2.234-0.063L86.362,251.991z"/>
		<path fill="#56ABDA" d="M109.347,157.882c-3.703-1.596-7.342-3.384-10.726-5.362c6.065-5.555,13.088-9.705,20.686-12.515
			c0.064-0.063,0.064-0.127,0.128-0.191c-11.364,4.022-20.304,10.854-27.198,19.091c4.469,2.809,9.193,5.235,14.109,7.277
			C107.304,163.373,108.262,160.563,109.347,157.882z"/>
		<path fill="#56ABDA" d="M179.642,134.962c1.021,0.511,2.043,1.021,3.064,1.531C181.685,135.982,180.663,135.473,179.642,134.962z"
			/>
		<path fill="#56ABDA" d="M162.402,129.024c2.49,0.511,4.854,1.148,7.215,1.915C167.256,130.236,164.893,129.599,162.402,129.024z"
			/>
		<path fill="#56ABDA" d="M153.209,127.555c2.682,0.256,5.363,0.703,7.917,1.214C158.572,128.258,155.955,127.874,153.209,127.555z"
			/>
		<path fill="#56ABDA" d="M171.021,131.45c2.044,0.702,4.022,1.404,5.938,2.234C175.108,132.854,173.065,132.152,171.021,131.45z"/>
		<path fill="#56ABDA" d="M127.287,128.577c0.128,0,0.256-0.064,0.384-0.064C127.543,128.513,127.415,128.513,127.287,128.577z"/>
		<path fill="#56ABDA" d="M148.165,165.544v8.874c0.383,0,0.702,0.064,1.086,0.064c8.747,0,17.366-1.085,25.729-3.192
			c-0.83-2.873-1.787-5.683-2.81-8.364c-7.342,1.788-15.004,2.618-22.856,2.618C148.932,165.544,148.548,165.544,148.165,165.544z"
			/>
		<path fill="#56ABDA" d="M169.171,140.069c0.063,0.063,0.127,0.191,0.191,0.255c10.279,3.703,18.068,9.194,23.751,14.749
			c-4.023,2.106-8.173,3.831-12.45,5.299c1.021,2.682,1.979,5.491,2.809,8.428c5.427-1.852,10.663-4.214,15.707-6.959
			C192.092,152.583,182.195,144.666,169.171,140.069z"/>
		<path fill="#56ABDA" d="M139.29,165.098c-7.597-0.639-14.876-2.044-21.771-4.215c-1.086,2.682-2.044,5.491-2.873,8.364
			c7.789,2.489,16.024,4.086,24.644,4.788V165.098z"/>
		<path fill="#56ABDA" d="M169.171,140.069c13.024,4.532,22.921,12.45,30.071,21.771c1.086-0.574,2.234-1.149,3.32-1.788
			l4.597-2.745l-3.512-4.022c-4.916-5.682-11.812-11.875-20.941-16.792c-1.021-0.511-1.979-1.085-3.064-1.532
			c-0.895-0.446-1.788-0.83-2.682-1.277c-1.916-0.829-3.895-1.596-5.938-2.234c-0.51-0.191-0.957-0.319-1.468-0.511
			c-2.299-0.702-4.725-1.34-7.215-1.915c-0.446-0.063-0.83-0.191-1.277-0.255c-2.554-0.512-5.171-0.895-7.917-1.214
			c-0.383-0.063-0.829-0.063-1.276-0.127c-2.49-0.256-4.979-0.319-7.598-0.383C154.23,127.3,162.53,132.217,169.171,140.069z"/>
		<path fill="#56ABDA" d="M119.435,139.813c6.257-7.789,14.174-12.705,24.006-12.769c-0.063,0-0.191,0-0.255,0
			c-2.554,0-4.98,0.127-7.471,0.318c-0.318,0-0.574,0.064-0.894,0.064c-2.427,0.255-4.853,0.574-7.215,1.021
			c-0.128,0-0.255,0.063-0.383,0.063c-15.067,3.001-28.348,10.279-38.946,21.645l-3.512,3.767l4.278,2.937
			c1.085,0.702,2.17,1.341,3.256,2.044C99.131,150.731,108.134,143.9,119.435,139.813z"/>
		<path fill="#56ABDA" d="M189.154,271.018c-0.256,0.191-0.447,0.319-0.702,0.511C188.707,271.337,188.963,271.146,189.154,271.018z
			"/>
		<path fill="#56ABDA" d="M131.246,285.447c-1.277-0.192-2.554-0.319-3.768-0.575C128.692,285.063,129.969,285.255,131.246,285.447z
			"/>
		<path fill="#56ABDA" d="M139.29,242.352c-8.746,0.701-16.982,2.361-24.644,4.979c0.957,2.873,2.043,5.618,3.256,8.235
			c6.703-2.17,13.854-3.639,21.388-4.277V242.352z"/>
		<path fill="#56ABDA" d="M100.536,263.611c2.937-1.787,6.001-3.383,9.193-4.853c-1.213-2.617-2.362-5.362-3.384-8.235
			c-4.469,2.043-8.811,4.404-12.832,7.086c6.83,6.832,15.322,12.322,25.346,15.771l-0.063-0.063
			C112.22,271.018,106.09,267.825,100.536,263.611z"/>
		<path fill="#56ABDA" d="M148.165,241.968v8.875c0.383,0,0.702-0.064,1.086-0.064c7.278,0,14.301,0.639,20.941,1.788
			c1.213-2.682,2.362-5.491,3.319-8.428c-7.661-1.469-15.77-2.299-24.261-2.299C148.932,241.904,148.548,241.968,148.165,241.968z"
			/>
		<path fill="#56ABDA" d="M122.436,283.723c-0.639-0.127-1.214-0.318-1.852-0.51C121.158,283.404,121.797,283.596,122.436,283.723z"
			/>
		<path fill="#56ABDA" d="M114.455,281.297C114.455,281.297,114.391,281.297,114.455,281.297
			C114.391,281.297,114.455,281.297,114.455,281.297z"/>
		<path fill="#56ABDA" d="M151.485,285.83c-0.128,0-0.256,0-0.447,0.063C151.229,285.894,151.357,285.894,151.485,285.83z"/>
		<path fill="#56ABDA" d="M179.003,254.609c3.958,1.085,7.789,2.299,11.429,3.83c-6.513,6.065-13.855,10.727-21.708,13.982l0,0
			c11.364-4.597,20.878-12.002,28.284-20.813c-4.725-2.171-9.641-4.022-14.748-5.427
			C181.237,249.055,180.152,251.863,179.003,254.609z"/>
		<path fill="#56ABDA" d="M143.249,286.341c-2.809,0-5.491-0.191-8.173-0.383C137.758,286.149,140.44,286.341,143.249,286.341z"/>
		<path fill="#56ABDA" d="M118.859,273.38c-10.023-3.448-18.516-8.938-25.346-15.771c-1.022,0.639-2.044,1.277-3.002,1.98
			l-4.469,3.256l4.086,3.703c7.15,6.448,15.323,11.428,24.262,14.748l0,0c1.979,0.766,4.086,1.404,6.129,1.979
			c0.639,0.191,1.213,0.319,1.852,0.511c1.66,0.447,3.32,0.83,5.044,1.148c1.214,0.256,2.49,0.384,3.768,0.575
			c1.276,0.191,2.489,0.383,3.767,0.511c2.682,0.256,5.363,0.384,8.173,0.384c0.127,0,0.191,0,0.319,0
			C133.863,286.213,125.563,281.297,118.859,273.38z"/>
		<path fill="#56ABDA" d="M198.029,261.505l0.127-8.875c0.319,0,0.639,0,0.958,0c-0.702-0.319-1.404-0.639-2.106-0.958
			c-7.406,8.811-16.92,16.218-28.284,20.814c-6.065,7.598-13.407,12.705-21.899,13.727c1.469-0.063,2.873-0.063,4.342-0.255
			c0.127,0,0.255,0,0.446-0.064c13.28-1.468,25.922-6.385,36.968-14.365c0.255-0.191,0.446-0.319,0.701-0.511
			c1.853-1.341,3.64-2.809,5.363-4.342c0.512-0.446,1.021-0.894,1.533-1.34c1.277-1.214,2.554-2.49,3.767-3.768
			C199.242,261.505,198.667,261.505,198.029,261.505z"/>
		<path fill="#56ABDA" d="M148.165,276.764v0.384c0.767-0.064,1.532-0.064,2.234-0.128c1.149-0.128,2.299-0.319,3.448-0.511
			c1.085-0.192,2.107-0.319,3.192-0.575c1.532-0.319,3.064-0.702,4.533-1.085c0.511-0.128,0.957-0.319,1.468-0.447
			c1.916-0.574,3.768-1.213,5.618-1.979c4.023-5.044,7.407-11.109,10.28-17.749c-2.873-0.766-5.746-1.468-8.811-1.979
			C164.574,265.017,156.912,274.338,148.165,276.764z"/>
		<path fill="#56ABDA" d="M173.576,244.202c2.938,0.575,5.811,1.214,8.619,1.979c3.83-11.492,6.065-23.942,6.512-35.052h-8.938
			C179.322,222.303,177.088,233.923,173.576,244.202z"/>
		<path fill="#56ABDA" d="M143.76,286.341c0.256,0,0.447,0,0.702-0.063c-0.255,0-0.574,0-0.829,0
			C143.633,286.277,143.696,286.341,143.76,286.341z"/>
		<path fill="#56ABDA" d="M108.771,211.13h-8.874c0.063,13.663,2.299,27.454,6.512,39.457c2.682-1.213,5.427-2.298,8.237-3.256
			C110.879,236.35,108.836,223.58,108.771,211.13z"/>
		<path fill="#56ABDA" d="M139.29,136.43v-0.383c-0.702,0.063-1.403,0.063-2.106,0.063c-0.255,0-0.511,0.063-0.83,0.063
			c-6.002,0.512-11.684,1.789-17.047,3.768c-3.959,4.98-7.278,11.109-9.96,17.877c2.618,1.086,5.362,2.107,8.173,2.937
			C122.499,148.305,129.713,138.729,139.29,136.43z"/>
		<path fill="#56ABDA" d="M151.805,136.366c-1.149-0.128-2.426-0.128-3.64-0.192v0.192c10.918,2.298,18.771,12.961,24.006,26.496
			c2.873-0.702,5.746-1.532,8.556-2.554c-3.001-7.726-6.768-14.558-11.301-20.048c-5.171-1.852-10.917-3.32-17.43-3.959
			C151.933,136.366,151.868,136.366,151.805,136.366z"/>
		<path fill="#56ABDA" d="M114.646,169.247c-2.811-0.894-5.556-1.915-8.237-3.001c-3.639,11.748-5.618,24.581-6.32,36.009h8.874
			C109.666,191.401,111.518,179.718,114.646,169.247z"/>
		<path fill="#56ABDA" d="M179.77,202.255h8.874c-0.383-11.492-2.107-22.984-5.107-33.455c-2.81,0.958-5.683,1.725-8.556,2.49
			C177.854,181.378,179.45,192.295,179.77,202.255z"/>
		<path fill="#56ABDA" d="M139.29,276.892c-8.874-2.043-16.152-10.151-21.388-21.325c-2.81,0.895-5.555,1.979-8.173,3.192
			c2.554,5.491,5.618,10.472,9.066,14.558c1.724,0.639,3.512,1.149,5.299,1.596c0.767,0.191,1.533,0.447,2.299,0.574
			c1.085,0.256,2.171,0.447,3.256,0.639c1.277,0.256,2.618,0.447,3.959,0.575c0.83,0.128,1.724,0.191,2.554,0.319
			c1.021,0.063,2.043,0.128,3.128,0.128V276.892L139.29,276.892z"/>
		<path fill="#56ABDA" d="M151.805,136.366c0.063,0,0.128,0,0.191,0C151.933,136.366,151.868,136.366,151.805,136.366z"/>
		<path fill="#56ABDA" d="M137.184,136.174c-0.255,0-0.511,0.064-0.83,0.064C136.673,136.238,136.929,136.174,137.184,136.174z"/>
		<path fill="#56ABDA" d="M143.568,286.277h0.064c0.255,0,0.574,0,0.829,0c0.767,0,1.532-0.064,2.299-0.128
			C145.675,286.149,144.653,286.277,143.568,286.277z"/>
		<path fill="#56ABDA" d="M126.394,275.551c-0.766-0.191-1.532-0.383-2.299-0.574C124.861,275.168,125.628,275.359,126.394,275.551z
			"/>
		<path fill="#56ABDA" d="M148.165,277.211c0.767-0.063,1.532-0.128,2.234-0.191C149.697,277.083,148.932,277.083,148.165,277.211
			L148.165,277.211z"/>
		<path fill="#56ABDA" d="M133.608,276.764c-1.341-0.191-2.682-0.383-3.959-0.574C130.99,276.444,132.268,276.636,133.608,276.764z"
			/>
		<path fill="#56ABDA" d="M163.105,274.401c-0.512,0.128-0.958,0.319-1.469,0.447C162.084,274.657,162.594,274.529,163.105,274.401z
			"/>
		<path fill="#56ABDA" d="M136.162,277.083c1.021,0.064,2.043,0.128,3.128,0.191v-0.063
			C138.27,277.147,137.184,277.147,136.162,277.083z"/>
		<path fill="#56ABDA" d="M157.104,275.934c-1.021,0.191-2.106,0.383-3.192,0.575C154.933,276.316,156.018,276.189,157.104,275.934z
			"/>
		<path fill="#56ABDA" d="M119.435,139.813c-0.063,0.064-0.063,0.128-0.128,0.191c5.363-1.979,11.109-3.192,17.047-3.767
			C130.225,136.749,124.605,138.026,119.435,139.813z"/>
		<path fill="#56ABDA" d="M174.98,171.29c2.873-0.702,5.746-1.532,8.556-2.49c-0.83-2.873-1.788-5.683-2.81-8.428
			c-2.81,0.958-5.618,1.853-8.556,2.554C173.193,165.607,174.15,168.354,174.98,171.29z"/>
		<path fill="#56ABDA" d="M151.805,136.366c-1.214-0.128-2.362-0.192-3.64-0.319v0.127
			C149.379,136.238,150.655,136.238,151.805,136.366z"/>
		<path fill="#56ABDA" d="M169.426,140.324c-0.063-0.063-0.128-0.191-0.191-0.255c-5.235-1.852-10.918-3.129-17.175-3.703
			C158.509,137.005,164.255,138.473,169.426,140.324z"/>
		<path fill="#56ABDA" d="M137.184,136.174c0.703-0.063,1.404-0.063,2.106-0.063v-0.063
			C138.588,136.047,137.887,136.11,137.184,136.174z"/>
		<path fill="#56ABDA" d="M117.52,160.819c-2.811-0.894-5.555-1.852-8.173-2.938c-1.085,2.682-2.043,5.491-2.938,8.364
			c2.682,1.086,5.427,2.107,8.237,3.001C115.476,166.31,116.498,163.501,117.52,160.819z"/>
		<path fill="#56ABDA" d="M137.184,136.174c0.703-0.063,1.404-0.127,2.106-0.127v-4.533h8.875v4.597
			c1.214,0.063,2.426,0.191,3.64,0.319c0.063,0,0.128,0,0.191,0c6.257,0.639,12.003,1.916,17.175,3.703
			c-6.641-7.853-14.94-12.77-24.772-13.024c-0.319,0-0.574-0.063-0.894-0.063c-9.833,0.063-17.749,5.044-24.007,12.769
			c5.172-1.851,10.79-3.064,16.919-3.575C136.673,136.238,136.929,136.174,137.184,136.174z"/>
		<path fill="#56ABDA" d="M118.796,273.316l0.063,0.063c1.725,0.575,3.448,1.086,5.235,1.532
			C122.308,274.466,120.52,273.955,118.796,273.316z"/>
		<path fill="#56ABDA" d="M161.637,274.849c-1.469,0.446-3,0.766-4.533,1.085C158.637,275.614,160.104,275.231,161.637,274.849z"/>
		<path fill="#56ABDA" d="M136.162,277.083c-0.895-0.063-1.724-0.191-2.554-0.319C134.502,276.892,135.332,277.02,136.162,277.083z"
			/>
		<path fill="#56ABDA" d="M170.192,252.63c3.001,0.511,5.938,1.214,8.811,1.979c1.149-2.746,2.234-5.555,3.192-8.428
			c-2.809-0.766-5.682-1.404-8.619-1.979C172.555,247.14,171.405,249.948,170.192,252.63z"/>
		<path fill="#56ABDA" d="M129.649,276.189c-1.085-0.192-2.171-0.384-3.256-0.639C127.479,275.806,128.564,275.997,129.649,276.189z
			"/>
		<path fill="#56ABDA" d="M153.911,276.509c-1.149,0.191-2.298,0.383-3.448,0.511C151.613,276.892,152.762,276.7,153.911,276.509z"
			/>
		<path fill="#56ABDA" d="M163.105,274.401c1.915-0.574,3.767-1.213,5.618-1.979l0,0
			C166.872,273.124,164.957,273.827,163.105,274.401z"/>
		<path fill="#56ABDA" d="M114.646,247.331c-2.811,0.958-5.556,2.043-8.237,3.256c1.022,2.873,2.171,5.555,3.385,8.236
			c2.617-1.214,5.362-2.299,8.172-3.192C116.689,252.949,115.604,250.204,114.646,247.331z"/>
		<path fill="#56ABDA" d="M161.637,274.849c-1.469,0.446-3,0.766-4.533,1.085c-1.086,0.191-2.106,0.383-3.192,0.575
			c-1.149,0.191-2.298,0.383-3.448,0.511c-0.766,0.063-1.531,0.128-2.234,0.191v4.66h-8.874v-4.596
			c-1.021-0.064-2.106-0.128-3.129-0.192c-0.894-0.063-1.724-0.191-2.554-0.319c-1.34-0.191-2.682-0.383-3.959-0.574
			c-1.084-0.192-2.17-0.384-3.256-0.639c-0.766-0.191-1.532-0.383-2.298-0.574c-1.788-0.447-3.512-0.958-5.235-1.533
			c6.704,7.918,15.004,12.834,24.709,12.897c1.084,0,2.17-0.128,3.191-0.191c8.556-0.958,15.897-6.129,21.899-13.728
			c-1.787,0.767-3.703,1.405-5.618,1.979C162.594,274.529,162.084,274.657,161.637,274.849z"/>
		<path fill="#56ABDA" d="M99.834,210.747c0-2.682,0.063-5.555,0.255-8.492H74.231c-0.319,2.938-0.511,5.811-0.511,8.492
			c0,0.127,0,0.255,0,0.383h26.113C99.897,211.002,99.834,210.874,99.834,210.747z"/>
		<path fill="#56ABDA" d="M188.771,206.661c0,1.468-0.064,2.937-0.128,4.469h25.985c0.128-1.468,0.256-3.001,0.256-4.469
			c0-1.469-0.064-2.937-0.191-4.47h-25.986C188.707,203.725,188.771,205.192,188.771,206.661z"/>
		<path fill="#56ABDA" d="M139.29,202.255h-30.263c-0.191,2.873-0.256,5.746-0.256,8.492c0,0.127,0,0.255,0,0.383h30.519V202.255z"
			/>
		<path fill="#56ABDA" d="M148.165,211.13h31.604c0.063-1.468,0.127-3.001,0.127-4.469c0-1.469-0.063-2.937-0.127-4.47h-31.604
			V211.13z"/>
		<path fill="#56ABDA" d="M188.707,202.255h-8.938c0.063,1.532,0.127,3.001,0.127,4.47s-0.063,2.938-0.127,4.469h8.938
			c0.064-1.531,0.128-3,0.128-4.469C188.771,205.192,188.707,203.725,188.707,202.255z"/>
		<path fill="#56ABDA" d="M108.771,210.747c0-2.746,0.064-5.619,0.256-8.492h-8.875c-0.191,2.938-0.255,5.811-0.255,8.492
			c0,0.127,0,0.255,0,0.383h8.874C108.771,211.002,108.771,210.874,108.771,210.747z"/>
		<path fill="#56ABDA" d="M148.165,165.544V136.43c-1.276-0.256-2.617-0.383-3.958-0.383c-0.256,0-0.447-0.064-0.702-0.064
			c-1.469,0-2.873,0.191-4.215,0.511v28.604C142.228,165.353,145.164,165.48,148.165,165.544z"/>
		<path fill="#56ABDA" d="M139.29,251.289v25.603c1.405,0.319,2.81,0.511,4.278,0.511c0.256,0,0.447-0.063,0.702-0.063
			c1.341-0.064,2.618-0.256,3.895-0.639v-25.922C145.164,250.843,142.228,251.034,139.29,251.289z"/>
		<path fill="#56ABDA" d="M139.29,202.255h8.875v-27.837c-3.001,0-5.938-0.191-8.875-0.383V202.255z"/>
		<path fill="#56ABDA" d="M139.29,242.352c2.938-0.256,5.874-0.384,8.875-0.384V211.13h-8.875V242.352z"/>
		<path fill="#56ABDA" d="M143.568,277.402c0.191,0,0.383,0,0.511,0c0.063,0,0.128,0,0.128,0
			C144.016,277.339,143.76,277.402,143.568,277.402L143.568,277.402z"/>
		<path fill="#56ABDA" d="M139.29,165.098v8.938c2.938,0.256,5.874,0.383,8.875,0.383v-8.874
			C145.164,165.48,142.228,165.353,139.29,165.098z"/>
		<path fill="#56ABDA" d="M143.568,135.919h-0.063c0.255,0,0.446,0.063,0.702,0.063c-0.128,0-0.191,0-0.319,0
			C143.824,135.919,143.696,135.919,143.568,135.919z"/>
		<path fill="#56ABDA" d="M143.76,135.919c-0.063,0-0.127,0-0.191,0c0.128,0,0.256,0,0.319,0
			C143.824,135.919,143.824,135.919,143.76,135.919z"/>
		<path fill="#56ABDA" d="M139.29,251.289c2.938-0.255,5.874-0.446,8.875-0.446v-8.875c-3.001,0-6.002,0.191-8.875,0.384V251.289z"
			/>
		<path fill="#56ABDA" d="M143.76,277.402c0.128,0,0.256-0.063,0.383-0.063c-0.191,0-0.383,0-0.51,0
			C143.633,277.402,143.696,277.402,143.76,277.402z"/>
		<path fill="#56ABDA" d="M148.165,136.366v-0.192c-1.341-0.063-2.617-0.191-3.958-0.191
			C145.548,135.982,146.889,136.11,148.165,136.366z"/>
		<path fill="#56ABDA" d="M148.165,277.147v-0.384c-1.276,0.384-2.617,0.575-3.895,0.639
			C145.611,277.339,146.889,277.211,148.165,277.147z"/>
		<path fill="#56ABDA" d="M139.29,276.892v0.383c1.342,0.064,2.554,0.192,3.896,0.192c0.128,0,0.191,0,0.319,0
			C142.1,277.402,140.695,277.211,139.29,276.892z"/>
		<path fill="#56ABDA" d="M143.249,135.919c-1.341,0-2.617,0.128-3.895,0.191v0.383c1.341-0.319,2.745-0.511,4.214-0.511
			C143.377,135.919,143.313,135.919,143.249,135.919z"/>
		<path fill="#56ABDA" d="M139.29,277.211L139.29,277.211c1.277,0.128,2.618,0.191,3.896,0.191
			C141.844,277.402,140.632,277.274,139.29,277.211z"/>
		<path fill="#56ABDA" d="M143.249,277.402c0.128,0,0.256,0,0.384,0l0,0C143.44,277.402,143.313,277.402,143.249,277.402z"/>
		<path fill="#56ABDA" d="M144.271,277.339c-0.063,0-0.128,0-0.128,0c1.341,0,2.746-0.128,4.086-0.191v-0.064
			C146.889,277.211,145.611,277.339,144.271,277.339z"/>
		<path fill="#56ABDA" d="M143.249,135.919c0.128,0,0.191,0,0.256,0h0.063C143.44,135.919,143.313,135.919,143.249,135.919z"/>
		<path fill="#56ABDA" d="M139.29,136.047L139.29,136.047c1.277,0,2.618-0.128,3.896-0.128
			C141.908,135.919,140.567,135.982,139.29,136.047z"/>
		<path fill="#56ABDA" d="M144.207,135.982c1.341,0,2.682,0.128,3.958,0.191v-0.127c-1.404-0.064-2.81-0.128-4.277-0.128
			C144.016,135.919,144.079,135.982,144.207,135.982z"/>
		<path fill="#56ABDA" d="M143.568,135.919c0.064,0,0.128,0,0.191,0c0.064,0,0.128,0,0.191,0c1.469,0,2.873,0.063,4.277,0.128
			v-4.597h-8.874v4.532c1.277-0.063,2.617-0.127,3.895-0.127C143.313,135.919,143.44,135.919,143.568,135.919z"/>
		<path fill="#56ABDA" d="M143.76,277.402c-0.063,0-0.127,0-0.191,0c-0.128,0-0.255,0-0.383,0c-1.342,0-2.618-0.063-3.896-0.128
			v4.597h8.875v-4.66c-1.341,0.128-2.682,0.191-4.086,0.191C144.016,277.402,143.888,277.402,143.76,277.402z"/>
		<path fill="#56ABDA" d="M139.29,202.255h8.875v8.875h-8.875V202.255z"/>
	</g>
</g>
<path fill="#212121" d="M273.814,51.323c-78.084-0.319-237.571-0.063-265.536,0c-1.149,64.932-2.171,182.025,0.063,202.265
	c12.195-0.191,51.589-1.086,69.338-1.469c-8.236-12.449-12.706-27.07-12.706-41.437c-0.128-36.073,21.644-74.125,62.313-82.105
	c0.128,0,0.256-0.064,0.384-0.064c2.361-0.446,4.724-0.83,7.214-1.021c0.32,0,0.574-0.063,0.895-0.063
	c2.426-0.191,4.916-0.319,7.47-0.319c0.128,0,0.191,0,0.319,0c0.064,0,0.128,0,0.191,0c0.064,0,0.191,0,0.256,0
	c2.745,0,5.427,0.191,7.98,0.383c0.383,0.063,0.83,0.063,1.277,0.128c2.744,0.319,5.363,0.702,7.917,1.213
	c0.446,0.064,0.829,0.192,1.276,0.256c2.49,0.511,4.916,1.148,7.215,1.915c0.511,0.128,0.957,0.319,1.469,0.511
	c2.043,0.703,4.022,1.469,5.938,2.234c0.894,0.384,1.787,0.831,2.682,1.277c1.021,0.511,2.043,1.021,3.064,1.532
	c26.879,14.365,41.117,42.841,41.117,70.167c0,14.493-5.811,31.477-16.536,46.033c24.262,0.256,55.801,0.383,65.762-0.191
	C274.197,230.667,274.772,114.978,273.814,51.323z M17.472,70.796c0-5.107,7.917-5.427,7.917,0.128
	c0.128,33.008,1.916,65.953,1.086,98.962c-0.128,5.107-7.98,5.427-7.917-0.128C18.94,136.749,17.6,103.805,17.472,70.796z
	 M27.624,227.666c-0.128,5.172-7.917,5.428-7.917-0.127c0-11.493-1.532-22.985-0.064-34.478c0.639-5.107,8.747-5.491,7.981,0.128
	C26.219,204.682,28.007,216.109,27.624,227.666z M152.315,102.91c0-2.49,0-6.001,0.063-9.704c0.064-6.065,0.128-15.259,0-16.601
	l0.131-0.025c0.123,1.452,0.061,10.545-0.003,16.563c0,3.703-0.063,7.215-0.063,9.705c0,0.94-0.534,1.532-1.124,1.868
	C151.86,104.371,152.315,103.796,152.315,102.91z M148.783,103.694c0.01,0.077,0.02,0.151,0.031,0.22
	c-0.264,3.356-1.543,5.799-3.307,7.443C147.317,109.67,148.613,107.148,148.783,103.694z M114.901,93.206
	c0.063-6.065,0.128-15.259,0-16.601l0.067-0.013c0.123,1.489,0.06,10.548-0.004,16.55c0,3.703-0.063,7.215-0.063,9.705
	c0,0.546-0.182,0.973-0.448,1.303c0.232-0.32,0.385-0.729,0.385-1.24C114.838,100.42,114.838,96.909,114.901,93.206z
	 M102.388,75.904h8.874v0.063h-8.874V75.904z M111.296,103.614c-0.21,3.511-1.514,6.05-3.329,7.743
	c1.943-1.813,3.295-4.588,3.295-8.447C111.262,103.176,111.274,103.408,111.296,103.614z M101.175,105.082
	c0.383,0,1.213,0,1.213-2.234v0.063c0,0.285,0.009,0.562,0.023,0.832c-0.17,1.465-0.841,1.467-1.173,1.467
	c-0.629,0-1.813-0.387-2.221-1.442C99.482,104.724,100.622,105.082,101.175,105.082z M89.746,102.91c0-2.49,0-5.938-0.063-9.64
	c0-15.643,0.063-17.366,0.319-18.452l4.341,1.086l4.405,0.638c-0.003,0.033-0.006,0.075-0.009,0.117l-4.333-0.628l-4.341-1.085
	c-0.256,1.085-0.319,2.809-0.191,18.388c-0.064,3.575,0,7.086,0,9.576c0,6.873,5.835,11.143,11.246,11.171
	c-0.024,0-0.049,0.003-0.073,0.003C95.62,114.084,89.746,109.806,89.746,102.91z M112.411,114.084c-2.08,0-4.034-0.624-5.619-1.685
	c0.021-0.014,0.044-0.025,0.064-0.04c-0.12-0.09-0.229-0.184-0.343-0.274c0.093,0.07,0.186,0.141,0.279,0.211
	c1.66,1.149,3.575,1.725,5.682,1.725c3.026,0,6.188-1.333,8.396-3.705C118.66,112.729,115.465,114.084,112.411,114.084z
	 M127.224,102.91c0-2.49,0-5.938-0.064-9.64c0.064-15.643,0.064-17.366,0.319-18.452l4.342,1.086l4.405,0.638
	c-0.003,0.033-0.006,0.075-0.009,0.117l-4.332-0.628l-4.342-1.085c-0.256,1.085-0.319,2.809-0.191,18.388c0,3.575,0,7.086,0,9.576
	c0,6.873,5.834,11.143,11.246,11.171c-0.024,0-0.049,0.003-0.073,0.003C133.098,114.084,127.224,109.806,127.224,102.91z
	 M149.889,114.084c-2.08,0-4.033-0.624-5.619-1.685c0.021-0.014,0.044-0.025,0.064-0.04c-0.51-0.383-0.957-0.766-1.404-1.212
	c-1.341-1.405-3.001-3.959-3.001-8.173c0,2.234-0.83,2.234-1.213,2.234c-0.628,0-1.813-0.387-2.22-1.442
	c0.464,0.957,1.604,1.315,2.156,1.315c0.383,0,1.213,0,1.213-2.234V75.904h8.875v0.063h-8.812v26.942
	c0,4.214,1.66,6.768,3.001,8.173c0.384,0.447,0.895,0.83,1.404,1.213c1.66,1.149,3.575,1.725,5.683,1.725
	c1.675,0,3.392-0.411,4.966-1.177C153.374,113.651,151.609,114.084,149.889,114.084z M189.921,93.206
	c0.063-6.065,0.127-15.259,0-16.601l0.067-0.013c0.123,1.489,0.059,10.548-0.004,16.55c0,3.703-0.063,7.215-0.063,9.705
	c0,0.546-0.183,0.973-0.448,1.303c0.231-0.32,0.384-0.729,0.384-1.24C189.856,100.42,189.856,96.909,189.921,93.206z
	 M177.406,75.904h8.875v0.063h-8.875V75.904z M186.315,103.614c-0.21,3.511-1.515,6.05-3.33,7.743
	c1.944-1.813,3.296-4.588,3.296-8.447C186.281,103.176,186.294,103.408,186.315,103.614z M176.193,105.082
	c0.383,0,1.213,0,1.213-2.234v0.063c0,0.285,0.009,0.562,0.024,0.832c-0.171,1.465-0.84,1.467-1.173,1.467
	c-0.629,0-1.813-0.387-2.22-1.442C174.502,104.724,175.642,105.082,176.193,105.082z M164.766,102.91c0-2.49,0-5.938-0.064-9.64
	c0-15.643,0.064-17.366,0.319-18.452l4.342,1.086l4.405,0.638c-0.004,0.033-0.007,0.075-0.009,0.117l-4.333-0.628l-4.342-1.085
	c-0.255,1.085-0.318,2.809-0.191,18.388c0,3.575,0,7.086,0,9.576c0,6.873,5.835,11.143,11.246,11.171
	c-0.023,0-0.049,0.003-0.072,0.003C170.639,114.084,164.766,109.806,164.766,102.91z M187.431,114.084
	c-2.08,0-4.034-0.624-5.619-1.685c0.021-0.014,0.043-0.025,0.064-0.04c-0.511-0.383-0.958-0.766-1.405-1.212
	c-0.01-0.012-0.021-0.024-0.032-0.035c0.438,0.434,0.875,0.81,1.374,1.184c1.659,1.149,3.575,1.725,5.682,1.725
	c3.025,0,6.188-1.333,8.396-3.705C193.68,112.729,190.484,114.084,187.431,114.084z M216.289,121.745
	c-4.15,3.895-8.556-2.362-4.916-6.129c5.49-5.619,11.109-11.109,16.663-16.664c4.023-4.022,8.684,2.362,4.917,6.13
	C227.398,110.636,221.907,116.255,216.289,121.745z M229.569,147.221c-4.15,3.83-8.683-2.428-4.853-6.066
	c10.216-9.832,18.579-21.388,28.858-31.157c4.149-3.83,8.747,2.49,4.916,6.13C248.148,125.896,239.976,137.579,229.569,147.221z
	 M260.726,162.862c-6.513,7.023-13.79,13.344-19.281,21.324c-3.128,4.598-9.513,0.256-6.448-4.341
	c5.81-8.684,13.663-15.579,20.75-23.177C259.705,152.455,264.365,158.968,260.726,162.862z"/>
<path fill="#44A147" d="M26.538,169.821c0.767-33.009-0.958-65.953-1.085-98.962c0-5.555-7.917-5.235-7.917-0.127
	c0.127,33.008,1.469,65.953,1.149,98.961C18.558,175.248,26.41,174.993,26.538,169.821z"/>
<path fill="#44A147" d="M27.688,193.189c0.702-5.619-7.343-5.235-7.98-0.128c-1.469,11.492,0.063,22.921,0.063,34.478
	c0,5.555,7.789,5.299,7.917,0.127C28.007,216.109,26.219,204.682,27.688,193.189z"/>
<g>
	<path fill="#FFDE00" d="M216.225,121.682c5.619-5.491,11.109-11.109,16.664-16.664c3.768-3.767-0.894-10.088-4.916-6.129
		c-5.555,5.555-11.173,11.045-16.663,16.663C207.733,119.383,212.139,125.64,216.225,121.682z"/>
	<path fill="#FFDE00" d="M229.569,147.284c10.406-9.641,18.579-21.389,28.922-31.094c3.896-3.64-0.767-9.96-4.916-6.129
		c-10.343,9.769-18.643,21.324-28.858,31.157C220.887,144.857,225.419,151.051,229.569,147.284z"/>
	<path fill="#FFDE00" d="M255.746,156.669c-7.087,7.598-14.94,14.493-20.75,23.177c-3.064,4.597,3.256,8.938,6.448,4.341
		c5.491-7.98,12.769-14.301,19.281-21.324C264.365,158.968,259.705,152.455,255.746,156.669z"/>
</g>
<text transform="matrix(1 0 0 1 80.5293 109.7285)" fill="#FFDE00" font-family="'Gungsuh'" font-size="58.9808">SSL</text>
</svg>
