<?xml version="1.0" encoding="utf-8"?>
<!-- Generator: Adobe Illustrator 16.0.0, SVG Export Plug-In . SVG Version: 6.00 Build 0)  -->
<!DOCTYPE svg PUBLIC "-//W3C//DTD SVG 1.1//EN" "http://www.w3.org/Graphics/SVG/1.1/DTD/svg11.dtd">
<svg version="1.1" id="Layer_1" xmlns="http://www.w3.org/2000/svg" xmlns:xlink="http://www.w3.org/1999/xlink" x="0px" y="0px"
	 width="64px" height="62px" viewBox="0 0 64 62" enable-background="new 0 0 64 62" xml:space="preserve">
<g>
	<g>
		<g>
			<g>
				<linearGradient id="SVGID_1_" gradientUnits="userSpaceOnUse" x1="18" y1="24" x2="20" y2="24">
					<stop  offset="0" style="stop-color:#9D1F61"/>
					<stop  offset="1" style="stop-color:#EB222A"/>
				</linearGradient>
				
					<line fill="none" stroke="url(#SVGID_1_)" stroke-width="2" stroke-linejoin="round" stroke-miterlimit="10" x1="20" y1="24" x2="18" y2="24"/>
				<linearGradient id="SVGID_2_" gradientUnits="userSpaceOnUse" x1="14" y1="24" x2="16" y2="24">
					<stop  offset="0" style="stop-color:#9D1F61"/>
					<stop  offset="1" style="stop-color:#EB222A"/>
				</linearGradient>
				
					<line fill="none" stroke="url(#SVGID_2_)" stroke-width="2" stroke-linejoin="round" stroke-miterlimit="10" x1="16" y1="24" x2="14" y2="24"/>
				<linearGradient id="SVGID_3_" gradientUnits="userSpaceOnUse" x1="4" y1="18.5" x2="23.0771" y2="18.5">
					<stop  offset="0" style="stop-color:#9D1F61"/>
					<stop  offset="1" style="stop-color:#EB222A"/>
				</linearGradient>
				<path fill="none" stroke="url(#SVGID_3_)" stroke-width="2" stroke-linejoin="round" stroke-miterlimit="10" d="M4,9h17.75
					C22.289,9,22,9.095,22,9.628v17.371C22,27.533,22.289,28,21.75,28H8"/>
				<linearGradient id="SVGID_4_" gradientUnits="userSpaceOnUse" x1="35" y1="11.3286" x2="52" y2="11.3286">
					<stop  offset="0" style="stop-color:#9D1F61"/>
					<stop  offset="1" style="stop-color:#EB222A"/>
				</linearGradient>
				<path fill="none" stroke="url(#SVGID_4_)" stroke-width="2" stroke-linejoin="round" stroke-miterlimit="10" d="M35,9h13.141
					C49.22,9,51,9.527,51,10.594v0.964c0,1.066-1.544,2.099-2.623,2.099"/>
				<linearGradient id="SVGID_5_" gradientUnits="userSpaceOnUse" x1="46" y1="16" x2="53" y2="16">
					<stop  offset="0" style="stop-color:#9D1F61"/>
					<stop  offset="1" style="stop-color:#EB222A"/>
				</linearGradient>
				<path fill="none" stroke="url(#SVGID_5_)" stroke-width="2" stroke-linejoin="round" stroke-miterlimit="10" d="M46,14h3.117
					C50.197,14,52,14.353,52,15.418v0.965C52,17.449,50.197,18,49.117,18H46"/>
				<linearGradient id="SVGID_6_" gradientUnits="userSpaceOnUse" x1="45" y1="20.6221" x2="52" y2="20.6221">
					<stop  offset="0" style="stop-color:#9D1F61"/>
					<stop  offset="1" style="stop-color:#EB222A"/>
				</linearGradient>
				<path fill="none" stroke="url(#SVGID_6_)" stroke-width="2" stroke-linejoin="round" stroke-miterlimit="10" d="M48.489,18.245
					c1.079,0,2.511,0.933,2.511,1.999v0.965C51,22.275,49.22,23,48.141,23H45"/>
				<linearGradient id="SVGID_7_" gradientUnits="userSpaceOnUse" x1="22" y1="25.561" x2="51" y2="25.561">
					<stop  offset="0" style="stop-color:#9D1F61"/>
					<stop  offset="1" style="stop-color:#EB222A"/>
				</linearGradient>
				<path fill="none" stroke="url(#SVGID_7_)" stroke-width="2" stroke-linejoin="round" stroke-miterlimit="10" d="M22,26h5.613
					l7.819,2h11.729C48.242,28,50,27.1,50,26.034v-0.965c0-1.065-1.68-1.947-2.76-1.947l0,0"/>
				<linearGradient id="SVGID_8_" gradientUnits="userSpaceOnUse" x1="22" y1="7.5332" x2="36.2695" y2="7.5332">
					<stop  offset="0" style="stop-color:#9D1F61"/>
					<stop  offset="1" style="stop-color:#EB222A"/>
				</linearGradient>
				<polyline fill="none" stroke="url(#SVGID_8_)" stroke-width="2" stroke-linejoin="round" stroke-miterlimit="10" points="
					36.049,4.041 31.342,5.108 25.659,11 22,11 				"/>
				<linearGradient id="SVGID_9_" gradientUnits="userSpaceOnUse" x1="35.4111" y1="5" x2="47.1846" y2="5">
					<stop  offset="0" style="stop-color:#9D1F61"/>
					<stop  offset="1" style="stop-color:#EB222A"/>
				</linearGradient>
				<polygon fill="none" stroke="url(#SVGID_9_)" stroke-width="2" stroke-linejoin="round" stroke-miterlimit="10" points="
					44.229,9 38.365,9 36.411,1 46.185,1 				"/>
			</g>
			<g>
				<linearGradient id="SVGID_10_" gradientUnits="userSpaceOnUse" x1="21.7266" y1="44.5654" x2="58.9141" y2="44.5654">
					<stop  offset="0" style="stop-color:#9D1F61"/>
					<stop  offset="1" style="stop-color:#EB222A"/>
				</linearGradient>
				<path fill="none" stroke="url(#SVGID_10_)" stroke-width="2" stroke-miterlimit="10" d="M47.16,27.866
					c2.935,4.924,10.754,10.713,10.754,18.435c0,9.593-7.877,14.476-17.594,14.476s-17.594-4.883-17.594-14.476
					c0-7.722,7.819-13.511,10.75-18.434"/>
			</g>
			<g>
				<linearGradient id="SVGID_11_" gradientUnits="userSpaceOnUse" x1="36.3887" y1="44.3691" x2="44.252" y2="44.3691">
					<stop  offset="0" style="stop-color:#9D1F61"/>
					<stop  offset="1" style="stop-color:#EB222A"/>
				</linearGradient>
				<path fill="none" stroke="url(#SVGID_11_)" stroke-width="2" stroke-miterlimit="10" d="M37.389,47.265
					c0,1.599,1.313,2.896,2.932,2.896c1.618,0,2.932-1.297,2.932-2.896c0-1.598-2.932-2.894-2.932-2.894s-2.932-1.298-2.932-2.896
					c0-1.598,1.313-2.896,2.932-2.896c1.618,0,2.932,1.298,2.932,2.896"/>
				<linearGradient id="SVGID_12_" gradientUnits="userSpaceOnUse" x1="39" y1="36.5" x2="41" y2="36.5">
					<stop  offset="0" style="stop-color:#9D1F61"/>
					<stop  offset="1" style="stop-color:#EB222A"/>
				</linearGradient>
				<line fill="none" stroke="url(#SVGID_12_)" stroke-width="2" stroke-miterlimit="10" x1="40" y1="38" x2="40" y2="35"/>
				<linearGradient id="SVGID_13_" gradientUnits="userSpaceOnUse" x1="39" y1="51.5" x2="41" y2="51.5">
					<stop  offset="0" style="stop-color:#9D1F61"/>
					<stop  offset="1" style="stop-color:#EB222A"/>
				</linearGradient>
				<line fill="none" stroke="url(#SVGID_13_)" stroke-width="2" stroke-miterlimit="10" x1="40" y1="50" x2="40" y2="53"/>
				<linearGradient id="SVGID_14_" gradientUnits="userSpaceOnUse" x1="46" y1="45" x2="49" y2="45">
					<stop  offset="0" style="stop-color:#9D1F61"/>
					<stop  offset="1" style="stop-color:#EB222A"/>
				</linearGradient>
				<line fill="none" stroke="url(#SVGID_14_)" stroke-width="2" stroke-miterlimit="10" x1="46" y1="45" x2="49" y2="45"/>
				<linearGradient id="SVGID_15_" gradientUnits="userSpaceOnUse" x1="32" y1="45" x2="34" y2="45">
					<stop  offset="0" style="stop-color:#9D1F61"/>
					<stop  offset="1" style="stop-color:#EB222A"/>
				</linearGradient>
				<line fill="none" stroke="url(#SVGID_15_)" stroke-width="2" stroke-miterlimit="10" x1="32" y1="45" x2="34" y2="45"/>
			</g>
		</g>
	</g>
</g>
</svg>
