<?xml version="1.0" encoding="utf-8"?>
<!-- Generator: Adobe Illustrator 16.0.0, SVG Export Plug-In . SVG Version: 6.00 Build 0)  -->
<!DOCTYPE svg PUBLIC "-//W3C//DTD SVG 1.1//EN" "http://www.w3.org/Graphics/SVG/1.1/DTD/svg11.dtd">
<svg version="1.1" id="Layer_1" xmlns="http://www.w3.org/2000/svg" xmlns:xlink="http://www.w3.org/1999/xlink" x="0px" y="0px"
	 width="294px" height="264px" viewBox="0 0 294 264" enable-background="new 0 0 294 264" xml:space="preserve">
<path fill="#212121" d="M264.957,216.045V60.376c0-5.42-4.391-9.808-9.806-9.808H43.768c-5.417,0-9.808,4.388-9.808,9.808v155.669
	l-21.776,24.146v17.16h274.55v-17.16L264.957,216.045z"/>
<rect x="52.565" y="69.174" fill="#212121" width="193.786" height="127.92"/>
<path fill="#616262" d="M246.352,200.12H52.565c-1.673,0-3.026-1.356-3.026-3.026V69.174c0-1.676,1.354-3.027,3.026-3.027h193.786
	c1.673,0,3.026,1.352,3.026,3.027v127.92C249.378,198.764,248.024,200.12,246.352,200.12z M55.592,194.066h187.732V72.2H55.592
	V194.066z"/>
<path fill="#616262" d="M289.727,240.028c-0.016-0.288-0.071-0.57-0.17-0.843c-0.026-0.073-0.037-0.152-0.068-0.226
	c-0.129-0.282-0.291-0.555-0.508-0.796l-20.999-23.281V60.376c0-7.08-5.755-12.835-12.83-12.835H43.766
	c-7.075,0-12.83,5.755-12.83,12.835v154.507L9.937,238.164c-0.217,0.241-0.38,0.514-0.508,0.796
	c-0.031,0.073-0.042,0.152-0.067,0.226c-0.1,0.272-0.155,0.55-0.171,0.843c-0.005,0.058-0.034,0.104-0.034,0.163v17.16
	c0,1.676,1.354,3.026,3.027,3.026h274.55c1.673,0,3.026-1.351,3.026-3.026v-17.16C289.76,240.133,289.731,240.086,289.727,240.028z
	 M36.989,60.376c0-3.739,3.04-6.781,6.776-6.781h211.386c3.736,0,6.776,3.042,6.776,6.781v152.642H36.989V60.376z M35.306,219.071
	h228.306l16.314,18.093H18.991L35.306,219.071z M283.707,254.324H15.21v-11.106h268.497V254.324z"/>
<path fill="#FFDE00" d="M178.014,102.164c-6.155-9.211-16.642-15.285-28.553-15.285c-18.954,0-34.318,15.369-34.318,34.32
	c0,12.939,7.167,24.193,17.739,30.043c-1.872-2.556-2.972-5.698-2.972-9.358c0-7.692,4.786-16.218,11.639-20.15
	c-2.514-2.723-4.111-6.582-4.111-10.452c0-7.133,5.384-12.914,12.023-12.914c6.641,0,12.023,5.781,12.023,12.914
	c0,3.87-1.598,7.729-4.113,10.452c1.898,1.089,3.613,2.55,5.135,4.226c3.841,4.231,6.294,9.939,6.462,15.338
	c0.005,0.194,0.044,0.394,0.044,0.587c0,3.66-1.1,6.803-2.975,9.358c4.426-2.446,8.198-5.876,11.154-9.945
	c4.111-5.655,6.588-12.572,6.588-20.098C183.779,114.156,181.65,107.615,178.014,102.164z"/>
<path fill="#FFFFFF" d="M157.371,121.733c-2.115,2.288-4.878,3.78-7.91,3.78c-3.034,0-5.797-1.492-7.912-3.78
	c-6.853,3.933-11.639,12.458-11.639,20.15c0,3.66,1.1,6.803,2.972,9.358c4.915,2.717,10.563,4.277,16.579,4.277
	c6.015,0,11.662-1.561,16.576-4.277c1.875-2.556,2.975-5.698,2.975-9.358C169.012,134.191,164.226,125.666,157.371,121.733z"/>
<path fill="#FFFFFF" d="M157.371,121.733c2.516-2.723,4.113-6.582,4.113-10.452c0-7.133-5.383-12.914-12.023-12.914
	c-6.64,0-12.023,5.781-12.023,12.914c0,3.87,1.598,7.729,4.111,10.452c2.115,2.288,4.878,3.78,7.912,3.78
	C152.493,125.514,155.256,124.021,157.371,121.733z"/>
<path fill="#44A147" d="M134.324,183.237h-18.163c-3.969,0-7.218-3.247-7.218-7.222v-1.858c0-3.975,3.249-7.222,7.218-7.222h18.163
	c3.973,0,7.219,3.247,7.219,7.222v1.858C141.543,179.99,138.297,183.237,134.324,183.237z"/>
<path fill="#5CB55B" d="M133.393,186.264h-16.299c-6.164,0-11.181-5.011-11.181-11.174c0-6.164,5.017-11.181,11.181-11.181h16.299
	c6.163,0,11.18,5.017,11.18,11.181C144.572,181.253,139.556,186.264,133.393,186.264z M117.094,169.963
	c-2.825,0-5.127,2.299-5.127,5.127c0,2.822,2.302,5.121,5.127,5.121h16.299c2.828,0,5.127-2.299,5.127-5.121
	c0-2.828-2.299-5.127-5.127-5.127H117.094z"/>
<path fill="#56ABDA" d="M182.756,183.237h-18.164c-3.972,0-7.221-3.247-7.221-7.222v-1.858c0-3.975,3.249-7.222,7.221-7.222h18.164
	c3.972,0,7.219,3.247,7.219,7.222v1.858C189.975,179.99,186.728,183.237,182.756,183.237z"/>
<path fill="#6EC0E2" d="M181.823,186.264h-16.299c-6.163,0-11.181-5.011-11.181-11.174c0-6.164,5.018-11.181,11.181-11.181h16.299
	c6.163,0,11.181,5.017,11.181,11.181C193.004,181.253,187.986,186.264,181.823,186.264z M165.524,169.963
	c-2.828,0-5.127,2.299-5.127,5.127c0,2.822,2.299,5.121,5.127,5.121h16.299c2.825,0,5.127-2.299,5.127-5.121
	c0-2.828-2.302-5.127-5.127-5.127H165.524z"/>
<rect x="7.79" y="86.926" fill="#212121" width="70.807" height="64.363"/>
<path fill="#56ABDA" d="M62.496,107.003H23.887c-1.673,0-3.026-1.356-3.026-3.026c0-1.676,1.354-3.027,3.026-3.027h38.609
	c1.674,0,3.027,1.352,3.027,3.027C65.523,105.646,64.17,107.003,62.496,107.003z"/>
<path fill="#56ABDA" d="M62.496,122.137H23.887c-1.673,0-3.026-1.356-3.026-3.027c0-1.676,1.354-3.026,3.026-3.026h38.609
	c1.674,0,3.027,1.351,3.027,3.026C65.523,120.78,64.17,122.137,62.496,122.137z"/>
<path fill="#56ABDA" d="M52.565,137.271H23.887c-1.673,0-3.026-1.351-3.026-3.026c0-1.671,1.354-3.027,3.026-3.027h28.679
	c1.673,0,3.026,1.356,3.026,3.027C55.592,135.92,54.238,137.271,52.565,137.271z"/>
<rect x="220.325" y="109.354" fill="#44A147" width="58.182" height="23.691"/>
<rect x="220.325" y="151.729" fill="#FFDE00" width="58.182" height="23.69"/>
<path fill="#FFDE00" d="M235.99,23.279c0,8.656-7.014,15.668-15.665,15.668c-8.65,0-15.665-7.012-15.665-15.668
	c0-8.65,7.015-15.662,15.665-15.662C228.977,7.617,235.99,14.629,235.99,23.279z"/>
<path fill="#616262" d="M220.325,136.071h58.179c1.674,0,3.027-1.351,3.027-3.026v-23.691c0-1.67-1.354-3.026-3.027-3.026h-58.179
	c-1.673,0-3.026,1.356-3.026,3.026v8.819h-30.658c-0.366-4.52-1.5-8.907-3.438-12.981h18.85c1.673,0,3.026-1.352,3.026-3.027V85.485
	h15.246c1.673,0,3.027-1.356,3.027-3.026V41.707c8.87-1.455,15.665-9.153,15.665-18.428c0-10.305-8.384-18.689-18.692-18.689
	c-10.306,0-18.692,8.385-18.692,18.689c0,9.274,6.798,16.973,15.666,18.428v37.725h-15.246c-1.674,0-3.024,1.352-3.024,3.027v16.679
	h-19.52c-7.038-9.573-18.116-15.28-30.048-15.28c-19.572,0-35.643,15.139-37.193,34.315H81.623V86.931
	c0-1.676-1.354-3.026-3.026-3.026H7.787c-1.673,0-3.027,1.351-3.027,3.026v64.358c0,1.676,1.354,3.026,3.027,3.026h70.81
	c1.673,0,3.026-1.351,3.026-3.026v-27.063h30.629c1.008,12.39,8.148,23.574,19.161,29.665c0.005,0,0.008,0,0.008,0
	c5.509,3.042,11.746,4.655,18.04,4.655c6.289,0,12.521-1.607,18.024-4.65c0.005,0,0.013,0,0.019-0.005
	c4.747-2.624,8.829-6.263,12.136-10.813c0.084-0.115,0.154-0.236,0.235-0.352l37.424,22.56v10.133c0,1.676,1.354,3.027,3.026,3.027
	h58.179c1.674,0,3.027-1.352,3.027-3.027v-23.69c0-1.67-1.354-3.026-3.027-3.026h-58.179c-1.673,0-3.026,1.356-3.026,3.026v6.488
	l-34.32-20.689c2.063-4.18,3.322-8.667,3.701-13.301h30.619v8.818C217.299,134.721,218.652,136.071,220.325,136.071z
	 M207.688,23.279c0-6.969,5.668-12.635,12.638-12.635s12.639,5.666,12.639,12.635c0,6.971-5.669,12.642-12.639,12.642
	S207.688,30.25,207.688,23.279z M75.57,148.262H10.814V89.958H75.57V148.262z M223.353,154.756h52.125v17.637h-52.125V154.756z
	 M165.839,143.89c-0.029,0.215-0.089,0.419-0.132,0.628c-0.08,0.43-0.164,0.854-0.287,1.263c-0.074,0.24-0.176,0.477-0.265,0.712
	c-0.134,0.355-0.265,0.712-0.43,1.058c-0.12,0.241-0.262,0.477-0.397,0.718c-0.131,0.23-0.272,0.455-0.419,0.676
	c-8.897,4.639-20.007,4.639-28.898,0.005c-0.154-0.235-0.304-0.477-0.44-0.718c-0.125-0.22-0.259-0.439-0.371-0.67
	c-0.173-0.361-0.314-0.733-0.453-1.11c-0.081-0.22-0.176-0.435-0.244-0.659c-0.128-0.425-0.214-0.865-0.298-1.31
	c-0.037-0.194-0.095-0.388-0.123-0.592c-0.095-0.649-0.144-1.319-0.144-2.006c0-0.796,0.067-1.603,0.188-2.409
	c0.037-0.271,0.11-0.544,0.163-0.812c0.102-0.539,0.209-1.078,0.361-1.618c0.089-0.319,0.204-0.633,0.309-0.953
	c0.162-0.481,0.327-0.969,0.523-1.445c0.137-0.33,0.288-0.648,0.44-0.974c0.209-0.456,0.432-0.9,0.673-1.341
	c0.175-0.319,0.358-0.639,0.55-0.947c0.259-0.424,0.531-0.838,0.816-1.246c0.21-0.299,0.419-0.592,0.639-0.88
	c0.31-0.394,0.637-0.771,0.967-1.142c0.23-0.262,0.455-0.523,0.696-0.77c0.372-0.378,0.765-0.723,1.16-1.063
	c0.225-0.194,0.444-0.409,0.678-0.592c0.056-0.042,0.112-0.068,0.168-0.11c0.058,0.042,0.12,0.074,0.178,0.115
	c0.22,0.168,0.45,0.293,0.673,0.445c0.479,0.324,0.961,0.623,1.461,0.88c0.408,0.21,0.825,0.388,1.246,0.555
	c0.262,0.1,0.527,0.188,0.794,0.272c1.251,0.408,2.532,0.691,3.841,0.691c1.31,0,2.587-0.283,3.841-0.691
	c0.268-0.084,0.532-0.173,0.796-0.277c0.422-0.168,0.836-0.34,1.244-0.55c0.498-0.251,0.974-0.556,1.448-0.869
	c0.228-0.157,0.466-0.288,0.688-0.456c0.05-0.041,0.104-0.068,0.154-0.104c0.115,0.089,0.235,0.151,0.351,0.246
	c0.126,0.1,0.243,0.215,0.366,0.319c0.592,0.508,1.176,1.058,1.747,1.676c0.134,0.142,0.267,0.288,0.397,0.435
	c0.289,0.33,0.571,0.665,0.841,1.011c0.188,0.246,0.366,0.498,0.545,0.749c0.228,0.319,0.463,0.639,0.673,0.969
	c0.348,0.55,0.676,1.11,0.979,1.687c0.179,0.34,0.333,0.691,0.493,1.042c0.131,0.282,0.265,0.565,0.385,0.858
	c0.167,0.408,0.321,0.816,0.463,1.23c0.071,0.204,0.134,0.403,0.196,0.607c0.514,1.655,0.822,3.336,0.872,4.965
	c0.003,0.078,0.034,0.419,0.045,0.497C165.985,142.57,165.933,143.24,165.839,143.89z M140.465,111.275
	c0-5.445,4.037-9.881,8.996-9.881s8.996,4.436,8.996,9.881c0,3.021-1.238,6.164-3.309,8.405c-3.347,3.624-8.025,3.613-11.377,0
	C141.7,117.439,140.465,114.297,140.465,111.275z M172.018,142.806c0.014-0.304,0.021-0.612,0.021-0.922
	c0-0.209-0.019-0.424-0.045-0.681c-0.008-0.215-0.042-0.435-0.055-0.654c-0.073-1.23-0.241-2.461-0.503-3.687
	c-0.026-0.121-0.05-0.235-0.079-0.356c-1.196-5.227-4.019-10.195-7.896-13.893c-0.354-0.341-0.715-0.66-1.078-0.975
	c-0.233-0.198-0.445-0.429-0.687-0.617c0.542-0.869,0.984-1.797,1.378-2.739c0.114-0.282,0.206-0.56,0.309-0.849
	c0.259-0.723,0.474-1.455,0.642-2.199c0.065-0.298,0.139-0.586,0.19-0.885c0.179-1.016,0.296-2.042,0.296-3.074
	c0-8.787-6.75-15.935-15.05-15.935s-15.05,7.147-15.05,15.935c0,1.032,0.118,2.053,0.296,3.064c0.053,0.303,0.125,0.602,0.193,0.9
	c0.168,0.743,0.377,1.466,0.637,2.184c0.102,0.288,0.193,0.576,0.312,0.858c0.39,0.942,0.833,1.87,1.372,2.739
	c-0.83,0.654-1.615,1.372-2.367,2.137c-0.246,0.251-0.469,0.528-0.707,0.79c-0.492,0.54-0.977,1.084-1.427,1.665
	c-0.257,0.336-0.489,0.682-0.733,1.027c-0.388,0.549-0.765,1.104-1.115,1.686c-0.228,0.377-0.439,0.76-0.652,1.146
	c-0.313,0.582-0.609,1.174-0.885,1.775c-0.184,0.398-0.361,0.797-0.523,1.205c-0.252,0.628-0.469,1.256-0.673,1.896
	c-0.126,0.403-0.262,0.796-0.369,1.199c-0.191,0.701-0.33,1.408-0.458,2.12c-0.061,0.346-0.146,0.691-0.194,1.037
	c-0.146,1.059-0.233,2.121-0.233,3.179c0,0.335,0.009,0.665,0.024,0.995c-5.524-5.75-8.737-13.489-8.737-21.68
	c0-17.255,14.036-31.289,31.291-31.289c10.474,0,20.205,5.211,26.034,13.936c3.44,5.152,5.26,11.153,5.26,17.354
	c0,5.598-1.521,11.018-4.398,15.852c-0.003,0.005-0.008,0.005-0.013,0.01c-0.003,0.006-0.003,0.016-0.008,0.021
	c-0.493,0.827-1.017,1.645-1.59,2.435C173.893,140.689,172.984,141.784,172.018,142.806z M223.353,112.381h52.125v17.637h-52.125
	V112.381z"/>
</svg>
