<?xml version="1.0" encoding="utf-8"?>
<!-- Generator: Adobe Illustrator 16.0.0, SVG Export Plug-In . SVG Version: 6.00 Build 0)  -->
<!DOCTYPE svg PUBLIC "-//W3C//DTD SVG 1.1//EN" "http://www.w3.org/Graphics/SVG/1.1/DTD/svg11.dtd">
<svg version="1.1" id="Layer_1" xmlns="http://www.w3.org/2000/svg" xmlns:xlink="http://www.w3.org/1999/xlink" x="0px" y="0px"
	 width="64px" height="62px" viewBox="0 0 64 62" enable-background="new 0 0 64 62" xml:space="preserve">
<g>
	<g>
		<g>
			<g>
				<linearGradient id="SVGID_1_" gradientUnits="userSpaceOnUse" x1="14" y1="23.4609" x2="22.6631" y2="23.4609">
					<stop  offset="0" style="stop-color:#9D1F61"/>
					<stop  offset="1" style="stop-color:#EB222A"/>
				</linearGradient>
				<path fill="none" stroke="url(#SVGID_1_)" stroke-width="2" stroke-miterlimit="10" d="M22.663,14.922
					c-4.231,0-7.663,3.554-7.663,7.786V33"/>
				<linearGradient id="SVGID_2_" gradientUnits="userSpaceOnUse" x1="40.3369" y1="23.4609" x2="49" y2="23.4609">
					<stop  offset="0" style="stop-color:#9D1F61"/>
					<stop  offset="1" style="stop-color:#EB222A"/>
				</linearGradient>
				<path fill="none" stroke="url(#SVGID_2_)" stroke-width="2" stroke-miterlimit="10" d="M40.337,14.922
					c4.232,0,7.663,3.554,7.663,7.786V33"/>
			</g>
			<g>
				<linearGradient id="SVGID_3_" gradientUnits="userSpaceOnUse" x1="48" y1="52" x2="62" y2="52">
					<stop  offset="0" style="stop-color:#9D1F61"/>
					<stop  offset="1" style="stop-color:#EB222A"/>
				</linearGradient>
				<polyline fill="none" stroke="url(#SVGID_3_)" stroke-width="2" stroke-miterlimit="10" points="48,43 61,43 61,61 51,61 				
					"/>
				<linearGradient id="SVGID_4_" gradientUnits="userSpaceOnUse" x1="1" y1="52" x2="15" y2="52">
					<stop  offset="0" style="stop-color:#9D1F61"/>
					<stop  offset="1" style="stop-color:#EB222A"/>
				</linearGradient>
				<polyline fill="none" stroke="url(#SVGID_4_)" stroke-width="2" stroke-miterlimit="10" points="12,61 2,61 2,43 15,43 				"/>
			</g>
			<g>
				<g>
					<linearGradient id="SVGID_5_" gradientUnits="userSpaceOnUse" x1="14" y1="49.5" x2="49" y2="49.5">
						<stop  offset="0" style="stop-color:#9D1F61"/>
						<stop  offset="1" style="stop-color:#EB222A"/>
					</linearGradient>
					<path fill="none" stroke="url(#SVGID_5_)" stroke-width="2" stroke-linejoin="round" stroke-miterlimit="10" d="M48,40.909V61
						H15V40.909C15,39.322,16.516,38,18.102,38h26.822C46.511,38,48,39.322,48,40.909z"/>
					<linearGradient id="SVGID_6_" gradientUnits="userSpaceOnUse" x1="46.6494" y1="54.583" x2="51" y2="54.583">
						<stop  offset="0" style="stop-color:#9D1F61"/>
						<stop  offset="1" style="stop-color:#EB222A"/>
					</linearGradient>
					<polyline fill="none" stroke="url(#SVGID_6_)" stroke-width="2" stroke-linejoin="round" stroke-miterlimit="10" points="
						47.563,60.76 50,55.277 50,49 48,49 					"/>
					<linearGradient id="SVGID_7_" gradientUnits="userSpaceOnUse" x1="12" y1="54.583" x2="16.3501" y2="54.583">
						<stop  offset="0" style="stop-color:#9D1F61"/>
						<stop  offset="1" style="stop-color:#EB222A"/>
					</linearGradient>
					<polyline fill="none" stroke="url(#SVGID_7_)" stroke-width="2" stroke-linejoin="round" stroke-miterlimit="10" points="
						15.437,60.76 13,55.277 13,49 15,49 					"/>
				</g>
				<linearGradient id="SVGID_8_" gradientUnits="userSpaceOnUse" x1="27.6387" y1="49.5303" x2="35.3867" y2="49.5303">
					<stop  offset="0" style="stop-color:#9D1F61"/>
					<stop  offset="1" style="stop-color:#EB222A"/>
				</linearGradient>
				
					<circle fill="none" stroke="url(#SVGID_8_)" stroke-width="2" stroke-linejoin="round" stroke-miterlimit="10" cx="31.513" cy="49.53" r="2.874"/>
			</g>
			<g>
				<linearGradient id="SVGID_9_" gradientUnits="userSpaceOnUse" x1="38.2188" y1="29.4136" x2="38.2188" y2="29.4136">
					<stop  offset="0" style="stop-color:#9D1F61"/>
					<stop  offset="1" style="stop-color:#EB222A"/>
				</linearGradient>
				<path fill="none" stroke="url(#SVGID_9_)" stroke-width="2" stroke-miterlimit="10" d="M38.219,29.414"/>
				<linearGradient id="SVGID_10_" gradientUnits="userSpaceOnUse" x1="10" y1="35.5771" x2="24.9067" y2="35.5771">
					<stop  offset="0" style="stop-color:#9D1F61"/>
					<stop  offset="1" style="stop-color:#EB222A"/>
				</linearGradient>
				<path fill="none" stroke="url(#SVGID_10_)" stroke-width="2" stroke-miterlimit="10" d="M11,43v-1.133
					c0-9.579,6.705-9.014,13.411-12.845"/>
				<linearGradient id="SVGID_11_" gradientUnits="userSpaceOnUse" x1="38.0928" y1="35.5771" x2="53" y2="35.5771">
					<stop  offset="0" style="stop-color:#9D1F61"/>
					<stop  offset="1" style="stop-color:#EB222A"/>
				</linearGradient>
				<path fill="none" stroke="url(#SVGID_11_)" stroke-width="2" stroke-miterlimit="10" d="M38.589,29.022
					C45.294,32.854,52,31.33,52,40.909V43"/>
				<linearGradient id="SVGID_12_" gradientUnits="userSpaceOnUse" x1="22.562" y1="29.9546" x2="40.4639" y2="29.9546">
					<stop  offset="0" style="stop-color:#9D1F61"/>
					<stop  offset="1" style="stop-color:#EB222A"/>
				</linearGradient>
				<polygon fill="none" stroke="url(#SVGID_12_)" stroke-width="2" stroke-miterlimit="10" points="35.345,33.245 31.513,31.33 
					27.681,33.245 23.849,29.414 25.765,26.54 31.513,27.498 37.261,26.54 39.177,29.414 				"/>
				<linearGradient id="SVGID_13_" gradientUnits="userSpaceOnUse" x1="35" y1="25" x2="37" y2="25">
					<stop  offset="0" style="stop-color:#9D1F61"/>
					<stop  offset="1" style="stop-color:#EB222A"/>
				</linearGradient>
				<line fill="none" stroke="url(#SVGID_13_)" stroke-width="2" stroke-miterlimit="10" x1="36" y1="23" x2="36" y2="27"/>
				<linearGradient id="SVGID_14_" gradientUnits="userSpaceOnUse" x1="26" y1="25" x2="28" y2="25">
					<stop  offset="0" style="stop-color:#9D1F61"/>
					<stop  offset="1" style="stop-color:#EB222A"/>
				</linearGradient>
				<line fill="none" stroke="url(#SVGID_14_)" stroke-width="2" stroke-miterlimit="10" x1="27" y1="27" x2="27" y2="23"/>
				<linearGradient id="SVGID_15_" gradientUnits="userSpaceOnUse" x1="22" y1="12.6499" x2="41" y2="12.6499">
					<stop  offset="0" style="stop-color:#9D1F61"/>
					<stop  offset="1" style="stop-color:#EB222A"/>
				</linearGradient>
				<path fill="none" stroke="url(#SVGID_15_)" stroke-width="2" stroke-miterlimit="10" d="M40,10.255c0-5.82-2.68-8.622-8.5-8.622
					c-5.82,0-8.5,2.802-8.5,8.622v3.832c1,6.706,3.778,8.621,3.778,8.621c1.916,0.958,4.762,0.958,4.762,0.958s2.793,0,4.709-0.958
					c0,0,2.751-1.916,3.751-8.621V10.255z"/>
				<linearGradient id="SVGID_16_" gradientUnits="userSpaceOnUse" x1="22.4438" y1="10.2549" x2="40.582" y2="10.2549">
					<stop  offset="0" style="stop-color:#9D1F61"/>
					<stop  offset="1" style="stop-color:#EB222A"/>
				</linearGradient>
				<polyline fill="none" stroke="url(#SVGID_16_)" stroke-width="2" stroke-miterlimit="10" points="22.891,10.255 26.723,8.339 
					31.513,10.255 36.303,12.171 40.135,10.255 				"/>
			</g>
		</g>
	</g>
</g>
</svg>
