<?xml version="1.0" encoding="utf-8"?>
<!-- Generator: Adobe Illustrator 16.0.0, SVG Export Plug-In . SVG Version: 6.00 Build 0)  -->
<!DOCTYPE svg PUBLIC "-//W3C//DTD SVG 1.1//EN" "http://www.w3.org/Graphics/SVG/1.1/DTD/svg11.dtd">
<svg version="1.1" id="Layer_1" xmlns="http://www.w3.org/2000/svg" xmlns:xlink="http://www.w3.org/1999/xlink" x="0px" y="0px"
	 width="64px" height="62px" viewBox="0 0 64 62" enable-background="new 0 0 64 62" xml:space="preserve">
<g>
	<g>
		<g>
			<linearGradient id="SVGID_1_" gradientUnits="userSpaceOnUse" x1="16" y1="28.25" x2="48" y2="28.25">
				<stop  offset="0" style="stop-color:#9D1F61"/>
				<stop  offset="1" style="stop-color:#EB222A"/>
			</linearGradient>
			<ellipse fill="none" stroke="url(#SVGID_1_)" stroke-width="2" stroke-miterlimit="10" cx="32" cy="28.25" rx="15" ry="3.801"/>
			<g>
				<linearGradient id="SVGID_2_" gradientUnits="userSpaceOnUse" x1="0" y1="20.7593" x2="64" y2="20.7593">
					<stop  offset="0" style="stop-color:#9D1F61"/>
					<stop  offset="1" style="stop-color:#EB222A"/>
				</linearGradient>
				<path fill="none" stroke="url(#SVGID_2_)" stroke-width="2" stroke-miterlimit="10" d="M50,40h1c6.627,0,12-5.279,12-11.577
					c0-5.652-4-10.663-10-10.663C53,13.01,50,9,44,9h-1c-2.728-4-7.972-7.481-14-7.481c-8.836,0-16,6.869-16,15.267
					c-6.627,0-12,5.31-12,11.608C1,34.691,6.373,40,13,40h1"/>
				<linearGradient id="SVGID_3_" gradientUnits="userSpaceOnUse" x1="18" y1="12.0693" x2="29" y2="12.0693">
					<stop  offset="0" style="stop-color:#9D1F61"/>
					<stop  offset="1" style="stop-color:#EB222A"/>
				</linearGradient>
				<path fill="none" stroke="url(#SVGID_3_)" stroke-width="2" stroke-miterlimit="10" d="M19,17.796c0-5.773,5-10.453,10-10.453"
					/>
			</g>
			<linearGradient id="SVGID_4_" gradientUnits="userSpaceOnUse" x1="16" y1="37.7773" x2="48" y2="37.7773">
				<stop  offset="0" style="stop-color:#9D1F61"/>
				<stop  offset="1" style="stop-color:#EB222A"/>
			</linearGradient>
			<path fill="none" stroke="url(#SVGID_4_)" stroke-width="2" stroke-miterlimit="10" d="M47,33v4.754
				c0,2.099-6.716,3.802-15,3.802s-15-1.703-15-3.802V33"/>
			<linearGradient id="SVGID_5_" gradientUnits="userSpaceOnUse" x1="16" y1="47.0293" x2="48" y2="47.0293">
				<stop  offset="0" style="stop-color:#9D1F61"/>
				<stop  offset="1" style="stop-color:#EB222A"/>
			</linearGradient>
			<path fill="none" stroke="url(#SVGID_5_)" stroke-width="2" stroke-miterlimit="10" d="M47,42v5.257c0,2.1-6.716,3.803-15,3.803
				s-15-1.703-15-3.803V42"/>
			<linearGradient id="SVGID_6_" gradientUnits="userSpaceOnUse" x1="16" y1="56.2813" x2="48" y2="56.2813">
				<stop  offset="0" style="stop-color:#9D1F61"/>
				<stop  offset="1" style="stop-color:#EB222A"/>
			</linearGradient>
			<path fill="none" stroke="url(#SVGID_6_)" stroke-width="2" stroke-miterlimit="10" d="M47,51v5.761c0,2.1-6.716,3.802-15,3.802
				s-15-1.702-15-3.802V51"/>
			<linearGradient id="SVGID_7_" gradientUnits="userSpaceOnUse" x1="31" y1="37" x2="33" y2="37">
				<stop  offset="0" style="stop-color:#9D1F61"/>
				<stop  offset="1" style="stop-color:#EB222A"/>
			</linearGradient>
			<line fill="none" stroke="url(#SVGID_7_)" stroke-width="2" stroke-miterlimit="10" x1="31" y1="37" x2="33" y2="37"/>
			<linearGradient id="SVGID_8_" gradientUnits="userSpaceOnUse" x1="27" y1="37" x2="29" y2="37">
				<stop  offset="0" style="stop-color:#9D1F61"/>
				<stop  offset="1" style="stop-color:#EB222A"/>
			</linearGradient>
			<line fill="none" stroke="url(#SVGID_8_)" stroke-width="2" stroke-miterlimit="10" x1="27" y1="37" x2="29" y2="37"/>
			<linearGradient id="SVGID_9_" gradientUnits="userSpaceOnUse" x1="35" y1="37" x2="37" y2="37">
				<stop  offset="0" style="stop-color:#9D1F61"/>
				<stop  offset="1" style="stop-color:#EB222A"/>
			</linearGradient>
			<line fill="none" stroke="url(#SVGID_9_)" stroke-width="2" stroke-miterlimit="10" x1="35" y1="37" x2="37" y2="37"/>
			<linearGradient id="SVGID_10_" gradientUnits="userSpaceOnUse" x1="31" y1="46" x2="33" y2="46">
				<stop  offset="0" style="stop-color:#9D1F61"/>
				<stop  offset="1" style="stop-color:#EB222A"/>
			</linearGradient>
			<line fill="none" stroke="url(#SVGID_10_)" stroke-width="2" stroke-miterlimit="10" x1="31" y1="46" x2="33" y2="46"/>
			<linearGradient id="SVGID_11_" gradientUnits="userSpaceOnUse" x1="27" y1="46" x2="29" y2="46">
				<stop  offset="0" style="stop-color:#9D1F61"/>
				<stop  offset="1" style="stop-color:#EB222A"/>
			</linearGradient>
			<line fill="none" stroke="url(#SVGID_11_)" stroke-width="2" stroke-miterlimit="10" x1="27" y1="46" x2="29" y2="46"/>
			<linearGradient id="SVGID_12_" gradientUnits="userSpaceOnUse" x1="35" y1="46" x2="37" y2="46">
				<stop  offset="0" style="stop-color:#9D1F61"/>
				<stop  offset="1" style="stop-color:#EB222A"/>
			</linearGradient>
			<line fill="none" stroke="url(#SVGID_12_)" stroke-width="2" stroke-miterlimit="10" x1="35" y1="46" x2="37" y2="46"/>
			<linearGradient id="SVGID_13_" gradientUnits="userSpaceOnUse" x1="31" y1="56" x2="33" y2="56">
				<stop  offset="0" style="stop-color:#9D1F61"/>
				<stop  offset="1" style="stop-color:#EB222A"/>
			</linearGradient>
			<line fill="none" stroke="url(#SVGID_13_)" stroke-width="2" stroke-miterlimit="10" x1="31" y1="56" x2="33" y2="56"/>
			<linearGradient id="SVGID_14_" gradientUnits="userSpaceOnUse" x1="27" y1="56" x2="29" y2="56">
				<stop  offset="0" style="stop-color:#9D1F61"/>
				<stop  offset="1" style="stop-color:#EB222A"/>
			</linearGradient>
			<line fill="none" stroke="url(#SVGID_14_)" stroke-width="2" stroke-miterlimit="10" x1="27" y1="56" x2="29" y2="56"/>
			<linearGradient id="SVGID_15_" gradientUnits="userSpaceOnUse" x1="35" y1="56" x2="37" y2="56">
				<stop  offset="0" style="stop-color:#9D1F61"/>
				<stop  offset="1" style="stop-color:#EB222A"/>
			</linearGradient>
			<line fill="none" stroke="url(#SVGID_15_)" stroke-width="2" stroke-miterlimit="10" x1="35" y1="56" x2="37" y2="56"/>
		</g>
	</g>
</g>
</svg>
