<?xml version="1.0" encoding="utf-8"?>
<!-- Generator: Adobe Illustrator 23.0.3, SVG Export Plug-In . SVG Version: 6.00 Build 0)  -->
<svg version="1.1" id="Capa_1" xmlns="http://www.w3.org/2000/svg" xmlns:xlink="http://www.w3.org/1999/xlink" x="0px" y="0px"
	 viewBox="0 0 70 70" style="enable-background:new 0 0 70 70;" xml:space="preserve">
<style type="text/css">
	.st0{fill:#FF4F7B;}
</style>
<g transform="translate(-1)">
	<g>
		<g>
			<path class="st0" d="M2.6,21.9C3,23.5,4.4,24.5,6,24.5c0.2,0,0.5,0,0.7-0.1l7.1-1.4l5.4-1.2c1.8-0.3,3-2,2.8-3.8L21.3,13
				c-0.1-0.6,1.4-1.3,2.7-1.5c7.9-1.3,15.9-1.3,23.7-0.1c2.2,0.4,2.6,0.7,2.7,0.8c0.2,0.5,0.2,1.1,0.1,1.7l-0.5,3.4
				c-0.3,1.1-0.1,2.2,0.5,3.2c0.8,0.9,2,1.4,3.2,1.6c0.8,0.2,1.4,0.3,2.1,0.5c0.7,0.2,1.3,0.3,2.2,0.5l6.3,1.2
				c1.1,0.3,2.3,0.3,3.3-0.2c1.1-0.7,1.8-1.9,1.9-3.2l0-0.2c0.1-0.5,0.3-1.1,0.4-1.6c0.5-1.3,0.7-2.6,0.7-4
				c-0.2-2.4-1.3-4.6-3.1-6.2C59.8,0.9,45.8,0,36,0C13.6,0,5.1,6.4,1.9,11.8c-0.9,1.5-1.1,3.3-0.7,5L2.6,21.9z M3.9,13
				C6.8,8.2,14.7,2.3,36,2.3c9.4,0,22.7,0.8,30.2,8.2c1.4,1.2,2.2,2.8,2.4,4.6c0,1.1-0.3,2.2-0.6,3.3c-0.2,0.6-0.3,1.2-0.5,1.8
				l0,0.2c-0.2,0.9-0.3,1.5-0.8,1.7c-0.6,0.2-1.2,0.2-1.8,0l-6.3-1.2c-0.8-0.2-1.4-0.3-2.1-0.5c-0.7-0.2-1.3-0.3-2.2-0.5
				c-0.6-0.1-1.5-0.3-1.8-0.7c-0.2-0.5-0.2-1-0.1-1.5l0.5-3.4c0.3-1.1,0.1-2.3-0.5-3.3c-0.8-1.1-2.5-1.5-4.3-1.8
				C40,7.8,31.8,7.9,23.7,9.2c-2.6,0.4-5,1.8-4.7,4.1l0.7,5.1c0,0.6-0.4,1.1-1,1.2l-5.4,1.2l-7,1.3c-0.6,0.1-1.2-0.2-1.4-0.8
				l-1.3-5.1C3.2,15.1,3.3,14,3.9,13z"/>
			<path class="st0" d="M70.8,53.3C70.8,53.2,70.8,53.2,70.8,53.3c-0.1-0.4-0.3-0.7-0.5-0.9L55.5,32.2c-0.9-1.2-2.3-1.9-3.8-1.9h-3
				l-1-8.3c0-1.3-1.1-2.2-2.3-2.2h-3.5c-1.3,0-2.3,1-2.3,2.3v9.3c0,0.6,0.5,1.2,1.2,1.2s1.2-0.5,1.2-1.2v-9.3h3.5c0,0,0,0.1,0,0.1
				l1.2,9.3c0.1,0.6,0.6,1,1.2,1h4.1c0.7,0,1.4,0.4,1.9,0.9l13.9,18.9h-9.4c-0.6,0-1.2,0.5-1.2,1.2c0,0.6,0.5,1.2,1.2,1.2h10.5v9.3
				c0,1.9-1.6,3.5-3.5,3.5H6.8c-1.9,0-3.5-1.6-3.5-3.5v-9.3h49c0.6,0,1.2-0.5,1.2-1.2c0-0.6-0.5-1.2-1.2-1.2H4.5l13.9-18.9
				c0.4-0.6,1.1-0.9,1.9-0.9h4.1c0.6,0,1.1-0.4,1.2-1l1.2-9.3c0,0,0-0.1,0-0.1h3.5v9.3c0,0.6,0.5,1.2,1.2,1.2H36
				c0.6,0,1.2-0.5,1.2-1.2s-0.5-1.2-1.2-1.2h-3.5v-8.2c0-1.3-1-2.3-2.3-2.3h-3.5c-1.3,0-2.3,1-2.3,2.2l-1,8.3h-3
				c-1.5,0-2.9,0.7-3.8,1.9L1.7,52.4c-0.2,0.3-0.3,0.5-0.4,0.8c0,0,0,0.1,0,0.1C1.1,53.6,1,54,1,54.4v9.7C1,67.4,3.6,70,6.8,70h58.3
				c3.2,0,5.8-2.6,5.8-5.8v-9.7C71,54,70.9,53.6,70.8,53.3z"/>
			<path class="st0" d="M28.3,39.1c1.1-0.6,2.2-1,3.4-1.3c2.8-0.6,5.7-0.6,8.6,0c0.4,0.1,0.8,0,1.1-0.3c0.3-0.3,0.4-0.7,0.3-1.1
				c-0.1-0.4-0.4-0.7-0.9-0.8c-3.2-0.7-6.4-0.7-9.6,0c-1.4,0.3-2.7,0.8-4,1.5c-1.1,0.6-2.1,1.4-2.9,2.4c-1.5,1.9-1.5,4.6,0,6.4
				c0.8,1,1.8,1.8,2.9,2.4c1.3,0.7,2.6,1.2,4,1.5c3.2,0.7,6.4,0.7,9.6,0c1.4-0.3,2.7-0.8,4-1.5c1.1-0.6,2.1-1.4,2.9-2.4
				c1.5-1.9,1.5-4.6,0-6.4c-0.3-0.3-0.7-0.5-1.1-0.5c-0.4,0.1-0.8,0.3-0.9,0.7c-0.2,0.4-0.1,0.8,0.2,1.2c0.9,1,0.9,2.6,0,3.6
				c-0.6,0.7-1.3,1.3-2.1,1.7c-1.1,0.6-2.2,1-3.4,1.3c-2.8,0.6-5.7,0.6-8.6,0c-1.2-0.3-2.3-0.7-3.4-1.3c-0.8-0.4-1.5-1-2.1-1.7
				c-0.9-1-0.9-2.6,0-3.6C26.8,40.1,27.5,39.5,28.3,39.1z"/>
		</g>
	</g>
</g>
</svg>
