<?xml version="1.0" encoding="utf-8"?>
<!-- Generator: Adobe Illustrator 23.0.3, SVG Export Plug-In . SVG Version: 6.00 Build 0)  -->
<svg version="1.1" id="Layer_1" xmlns="http://www.w3.org/2000/svg" xmlns:xlink="http://www.w3.org/1999/xlink" x="0px" y="0px"
	 viewBox="0 0 70 73.3" style="enable-background:new 0 0 70 73.3;" xml:space="preserve">
<style type="text/css">
	.st0{fill:#FF4F7B;}
</style>
<g>
	<path class="st0" d="M70,21.8V0H29.5v2.1h38.4v17.7h-3.3v7.1H50.3v2.1h17.6v17.7H2.1V28.9h3.3v-7.1h15.4v-2.1H2.1V2.1h24.2V0H0
		v21.8h3.3v5.1H0v21.8h3.3v7.1h28.5v2.3h-2.3v2.1h2.3v3.4H15.5c-1.1-2-3.3-3.3-5.7-3.3c-3.6,0-6.5,2.9-6.5,6.5s2.9,6.5,6.5,6.5
		c2.4,0,4.5-1.3,5.7-3.3H24v-2.1h-9.9l-0.3,0.6c-0.7,1.6-2.3,2.7-4.1,2.7c-2.5,0-4.4-2-4.4-4.4s2-4.4,4.4-4.4c1.8,0,3.4,1,4.1,2.7
		l0.3,0.6h19.7v-5.5h2.3v5.5h19.7l0.3-0.6c0.7-1.6,2.3-2.7,4.1-2.7c2.5,0,4.4,2,4.4,4.4s-2,4.4-4.4,4.4c-1.8,0-3.4-1-4.1-2.7
		l-0.3-0.6H27.3V70h27.2c1.1,2,3.3,3.3,5.7,3.3c3.6,0,6.5-2.9,6.5-6.5s-2.9-6.5-6.5-6.5c-2.4,0-4.5,1.3-5.7,3.3H38.2v-3.4h2.3v-2.1
		h-2.3v-2.3h11v-2.1H5.4v-5.1h59.3v5.1H52.5v2.1h14.2v-7.1H70V26.8h-3.3v-5.1H70z M36.2,55.7v2.3h-2.3v-2.3H36.2z"/>
	<path class="st0" d="M24,19.7h23v2.1H24V19.7z"/>
	<path class="st0" d="M49.2,19.7h2.2v2.1h-2.2V19.7z"/>
	<path class="st0" d="M53.6,19.7h2.2v2.1h-2.2V19.7z"/>
	<path class="st0" d="M58,19.7h2.2v2.1H58V19.7z"/>
	<path class="st0" d="M22.9,26.8h24.1v2.1H22.9V26.8z"/>
	<path class="st0" d="M18.6,26.8h2.2v2.1h-2.2V26.8z"/>
	<path class="st0" d="M14.2,26.8h2.2v2.1h-2.2V26.8z"/>
	<path class="st0" d="M9.8,26.8H12v2.1H9.8V26.8z"/>
	<path class="st0" d="M6.6,5.4h2.1v11H6.6V5.4z"/>
	<path class="st0" d="M12.1,5.4h2.1v11h-2.1V5.4z"/>
	<path class="st0" d="M17.5,5.4h2.1v11h-2.1V5.4z"/>
	<path class="st0" d="M23,5.4h2.1v11H23V5.4z"/>
	<path class="st0" d="M32.8,9.9h14.2v2.1H32.8V9.9z"/>
	<path class="st0" d="M61.4,32.3h2.1v11h-2.1V32.3z"/>
	<path class="st0" d="M55.9,32.3h2.1v11h-2.1V32.3z"/>
	<path class="st0" d="M50.4,32.3h2.1v11h-2.1V32.3z"/>
	<path class="st0" d="M44.9,32.3H47v11h-2.1V32.3z"/>
	<path class="st0" d="M22.9,36.7h14.2v2.1H22.9V36.7z"/>
	<path class="st0" d="M51.4,5.5h-7.6v2.1h5.5v6.7H30.6V7.5h9.9V5.5h-12v10.8h22.9V5.5z"/>
	<path class="st0" d="M63.4,10.9c0-2.4-1.9-4.3-4.3-4.3c-2.4,0-4.3,1.9-4.3,4.3c0,2.4,1.9,4.3,4.3,4.3
		C61.5,15.2,63.4,13.3,63.4,10.9z M59.1,13.1c-1.2,0-2.3-1-2.3-2.3c0-1.2,1-2.3,2.3-2.3c1.2,0,2.3,1,2.3,2.3
		C61.4,12.1,60.4,13.1,59.1,13.1z"/>
	<path class="st0" d="M41.5,32.3H18.6v10.8H24v-2.1h-3.4v-6.7h18.8v6.7H27.3v2.1h14.2V32.3z"/>
	<path class="st0" d="M6.6,37.7c0,2.4,1.9,4.3,4.3,4.3c2.4,0,4.3-1.9,4.3-4.3s-1.9-4.3-4.3-4.3C8.5,33.4,6.6,35.4,6.6,37.7z
		 M10.9,35.5c1.2,0,2.3,1,2.3,2.3s-1,2.3-2.3,2.3c-1.2,0-2.3-1-2.3-2.3S9.6,35.5,10.9,35.5z"/>
	<path class="st0" d="M8.7,65.7h2.2v2.1H8.7V65.7z"/>
	<path class="st0" d="M59.1,65.7h2.2v2.1h-2.2V65.7z"/>
</g>
</svg>
