<?xml version="1.0" encoding="utf-8"?>
<!-- Generator: Adobe Illustrator 23.0.3, SVG Export Plug-In . SVG Version: 6.00 Build 0)  -->
<svg version="1.1" id="Icon_Set" xmlns="http://www.w3.org/2000/svg" xmlns:xlink="http://www.w3.org/1999/xlink" x="0px" y="0px"
	 viewBox="0 0 70 66.4" style="enable-background:new 0 0 70 66.4;" xml:space="preserve">
<style type="text/css">
	.st0{fill:#FF4F7B;}
</style>
<g>
	<g>
		<path class="st0" d="M35,42.9c8.5,0,15.3-6.9,15.3-15.3c0-7.8-12.2-23.6-13.6-25.4L35,0l-1.7,2.2C31.9,4,19.7,19.8,19.7,27.6
			C19.7,36.1,26.5,42.9,35,42.9z M35,5.8c4.8,6.5,12.3,17.6,12.3,21.8C47.3,33.7,41,40,35,40s-12.3-6.3-12.3-12.3
			C22.7,23.4,30.2,12.3,35,5.8z"/>
		<rect x="32.8" y="27.6" class="st0" width="4.4" height="4.4"/>
	</g>
	<g>
		<rect y="47.3" class="st0" width="70" height="3"/>
		<rect y="56.1" class="st0" width="4.4" height="3"/>
		<rect x="4.4" y="63.4" class="st0" width="4.4" height="3"/>
		<rect x="8.8" y="56.1" class="st0" width="4.4" height="3"/>
		<rect x="13.1" y="63.4" class="st0" width="4.4" height="3"/>
		<rect x="17.5" y="56.1" class="st0" width="4.4" height="3"/>
		<rect x="21.9" y="63.4" class="st0" width="4.4" height="3"/>
		<rect x="26.3" y="56.1" class="st0" width="4.4" height="3"/>
		<rect x="30.6" y="63.4" class="st0" width="4.4" height="3"/>
		<rect x="35" y="56.1" class="st0" width="4.4" height="3"/>
		<rect x="39.4" y="63.4" class="st0" width="4.4" height="3"/>
		<rect x="43.8" y="56.1" class="st0" width="4.4" height="3"/>
		<rect x="48.1" y="63.4" class="st0" width="4.4" height="3"/>
		<rect x="52.5" y="56.1" class="st0" width="4.4" height="3"/>
		<rect x="56.9" y="63.4" class="st0" width="4.4" height="3"/>
		<rect x="61.3" y="56.1" class="st0" width="4.4" height="3"/>
		<rect x="65.6" y="63.4" class="st0" width="4.4" height="3"/>
	</g>
	<polygon class="st0" points="60.5,20.1 60.5,38.7 63.3,38.7 63.3,20.1 65.7,23.4 67.8,21.2 61.9,13.2 55.9,21.2 58,23.4 	"/>
	<polygon class="st0" points="6.7,20 6.7,38.9 9.6,38.9 9.6,20 12,23.3 14.2,21.1 8.1,13.1 2.1,21.1 4.2,23.3 	"/>
</g>
</svg>
