<?xml version="1.0" encoding="utf-8"?>
<!-- Generator: Adobe Illustrator 23.0.3, SVG Export Plug-In . SVG Version: 6.00 Build 0)  -->
<svg version="1.1" id="Layer_1" xmlns="http://www.w3.org/2000/svg" xmlns:xlink="http://www.w3.org/1999/xlink" x="0px" y="0px"
	 viewBox="0 0 70 70" style="enable-background:new 0 0 70 70;" xml:space="preserve">
<style type="text/css">
	.st0{fill:#FF4F7B;}
</style>
<g>
	<g>
		<g>
			<path class="st0" d="M8,8.8C7.4,8.3,6.6,8.4,6.1,9l0,0.1C5.6,9.6,5.7,10.5,6.3,11c0.2,0.2,0.5,0.3,0.8,0.3c0.4,0,0.8-0.2,1.1-0.5
				l0-0.1C8.7,10.1,8.6,9.2,8,8.8z"/>
		</g>
	</g>
	<g>
		<g>
			<path class="st0" d="M59.4,42.5h-7.8c-0.8,0-1.4,0.6-1.4,1.4s0.6,1.4,1.4,1.4h7.8c0.8,0,1.4-0.6,1.4-1.4S60.1,42.5,59.4,42.5z"/>
		</g>
	</g>
	<g>
		<g>
			<path class="st0" d="M60.4,48h-9.8c-0.8,0-1.4,0.6-1.4,1.4c0,0.8,0.6,1.4,1.4,1.4h9.8c0.8,0,1.4-0.6,1.4-1.4
				C61.8,48.6,61.2,48,60.4,48z"/>
		</g>
	</g>
	<g>
		<g>
			<path class="st0" d="M57.9,36.9h-4.8c-0.8,0-1.4,0.6-1.4,1.4s0.6,1.4,1.4,1.4h4.8c0.8,0,1.4-0.6,1.4-1.4S58.6,36.9,57.9,36.9z"/>
		</g>
	</g>
	<g>
		<g>
			<path class="st0" d="M36.4,31.2c-0.8,0-1.4,0.6-1.4,1.4v25.7c0,5-4,9-9,9s-9-4-9-9v-10c1-0.8,4-3.2,7-6.8
				c4.8-5.7,7.3-11.7,7.2-17.2C31,11.4,17.9,1.2,16.8,0.3C16.5,0.1,16.2,0,15.9,0c-0.3,0-0.6,0.1-0.9,0.3C14.5,0.7,12.2,2.4,9.6,5
				c-0.5,0.5-0.5,1.4,0,1.9c0.5,0.5,1.4,0.5,1.9,0c1.8-1.8,3.4-3.1,4.3-3.8c1.2,1,3.6,3.1,5.9,5.9c3,3.6,6.6,9.2,6.6,15.3
				C28.5,30.4,25,36,22,39.6c-1.8,2.2-3.7,4-5,5.2v-3.4c0-0.8-0.6-1.4-1.4-1.4s-1.4,0.6-1.4,1.4v2.9c-4-3.5-11.4-11.1-11.5-19.8
				c0-3.1,0.9-6.3,2.7-9.6c0.4-0.7,0.1-1.5-0.5-1.9c-0.7-0.4-1.5-0.1-1.9,0.5C1,17.2,0,20.9,0,24.5C0.1,30,2.7,35.9,7.6,41.6
				c2.6,3,5.3,5.2,6.6,6.3v10.4C14.2,64.7,19.5,70,26,70s11.8-5.3,11.8-11.8V32.6C37.7,31.8,37.1,31.2,36.4,31.2z"/>
		</g>
	</g>
	<g>
		<g>
			<path class="st0" d="M36.4,26.4c-0.8,0-1.4,0.6-1.4,1.4v0.1c0,0.8,0.6,1.4,1.4,1.4s1.4-0.6,1.4-1.4v-0.1
				C37.7,27,37.1,26.4,36.4,26.4z"/>
		</g>
	</g>
	<g>
		<g>
			<path class="st0" d="M68.4,53.9V44c0-5.2-3.1-9.6-7.5-11.7v-2.8c0-1.7-1.3-3-3-3h-1v-8.2c0-6-4.9-10.9-10.9-10.9S35,12.3,35,18.3
				v4.7c0,0.8,0.6,1.4,1.4,1.4c0.8,0,1.4-0.6,1.4-1.4v-4.7c0-4.5,3.7-8.2,8.2-8.2s8.2,3.7,8.2,8.2v8.2h-1c-1.7,0-3,1.3-3,3v2.8
				c-4.4,2-7.5,6.5-7.5,11.7v9.9c-1,0.7-1.6,1.9-1.6,3.3c0,2.1,1.6,3.8,3.6,4.1v4.7c0,2.3,1.8,4.1,4.1,4.1c2.3,0,4.1-1.8,4.1-4.1
				v-4.6h5.4v4.6c0,2.3,1.8,4.1,4.1,4.1s4.1-1.8,4.1-4.1v-4.7c2-0.3,3.6-2,3.6-4.1C70,55.8,69.4,54.6,68.4,53.9z M53.1,29.3h4.8
				c0.1,0,0.3,0.1,0.3,0.3v1.9c-0.9-0.2-1.7-0.3-2.7-0.3s-1.8,0.1-2.7,0.3v-1.9h0C52.9,29.4,53,29.3,53.1,29.3z M45.4,44
				c0-5.6,4.5-10.1,10.1-10.1S65.6,38.4,65.6,44V53H45.4V44z M50,65.9c0,0.8-0.6,1.4-1.4,1.4c-0.8,0-1.4-0.6-1.4-1.4v-4.6H50V65.9z
				 M63.7,65.9c0,0.8-0.6,1.4-1.4,1.4s-1.4-0.6-1.4-1.4v-4.6h2.7V65.9z M65.9,58.5H45.1c-0.8,0-1.4-0.6-1.4-1.4s0.6-1.4,1.4-1.4
				h20.8c0.8,0,1.4,0.6,1.4,1.4C67.3,57.9,66.7,58.5,65.9,58.5z"/>
		</g>
	</g>
	<g>
		<g>
			<path class="st0" d="M23.6,21.5c-0.2-0.4-0.7-0.7-1.2-0.7h-5v-7.5c0-0.6-0.4-1.2-1.1-1.3c-0.6-0.1-1.3,0.2-1.5,0.8l-6.6,14
				c-0.2,0.4-0.2,0.9,0.1,1.3s0.7,0.6,1.2,0.6h3.7v6.8c0,0.6,0.4,1.2,1,1.3c0.1,0,0.2,0,0.4,0c0.5,0,0.9-0.2,1.2-0.7l7.9-13.3
				C23.8,22.4,23.8,21.9,23.6,21.5z M15.9,30.5v-3.1c0-0.8-0.6-1.4-1.4-1.4h-2.9l3-6.5v2.7c0,0.8,0.6,1.4,1.4,1.4H20L15.9,30.5z"/>
		</g>
	</g>
</g>
</svg>
