<?xml version="1.0" encoding="utf-8"?>
<!-- Generator: Adobe Illustrator 23.0.3, SVG Export Plug-In . SVG Version: 6.00 Build 0)  -->
<svg version="1.1" id="Capa_1" xmlns="http://www.w3.org/2000/svg" xmlns:xlink="http://www.w3.org/1999/xlink" x="0px" y="0px"
	 viewBox="0 0 70 70" style="enable-background:new 0 0 70 70;" xml:space="preserve">
<style type="text/css">
	.st0{fill:#FF4F7B;}
</style>
<g>
	<g>
		<g>
			<path class="st0" d="M68.8,60.7h-1.2V24.5c0-0.6-0.5-1.2-1.2-1.2h-63c-0.6,0-1.2,0.5-1.2,1.2v36.2H1.2c-0.6,0-1.2,0.5-1.2,1.2
				v2.3C0,67.4,2.6,70,5.8,70h58.3c3.2,0,5.8-2.6,5.8-5.8v-2.3C70,61.2,69.5,60.7,68.8,60.7z M4.7,25.7h60.7v35h-21
				c-0.3,0-0.6,0.1-0.8,0.3l-2,2h-13l-2-2c-0.2-0.2-0.5-0.3-0.8-0.3h-21V25.7z M67.7,64.2c0,1.9-1.6,3.5-3.5,3.5H5.8
				c-1.9,0-3.5-1.6-3.5-3.5V63h22.9l2,2c0.2,0.2,0.5,0.3,0.8,0.3h14c0.3,0,0.6-0.1,0.8-0.3l2-2h22.9V64.2z"/>
			<path class="st0" d="M25.8,48.5l14.1-12.9l14,8.2l10.3-10.3v-6.6H5.8v24.9l11.7-9.1L25.8,48.5z M8.2,46.9V29.2h53.7v3.3l-8.4,8.4
				l-13.9-8.1L25.6,45.5l-8.1-5.8L8.2,46.9z"/>
			<path class="st0" d="M16.3,22.2c0.6,0,1.2-0.5,1.2-1.2v-2.5l4.1-0.7c0.5-0.1,0.8-0.4,0.9-0.9c0.3-1.4,0.9-2.7,1.6-3.9
				c0.3-0.4,0.2-0.9,0-1.3l-2.4-3.3l1.9-1.9l3.3,2.4c0.4,0.3,0.9,0.3,1.3,0c1.2-0.7,2.5-1.3,3.9-1.6c0.5-0.1,0.8-0.5,0.9-0.9
				l0.7-4.1h2.7L37,6.4c0.1,0.5,0.4,0.8,0.9,0.9c1.4,0.3,2.7,0.9,3.9,1.6c0.4,0.3,0.9,0.2,1.3,0l3.3-2.4l1.9,1.9l-2.4,3.3
				c-0.3,0.4-0.3,0.9,0,1.3c0.7,1.2,1.3,2.5,1.6,3.9c0.1,0.5,0.5,0.8,0.9,0.9l4.1,0.7V21c0,0.6,0.5,1.2,1.2,1.2s1.2-0.5,1.2-1.2
				v-3.5c0-0.6-0.4-1.1-1-1.2l-4.3-0.7c-0.3-1.1-0.7-2.2-1.3-3.1L50.8,9c0.3-0.5,0.3-1.1-0.1-1.5l-3.3-3.3c-0.4-0.4-1-0.5-1.5-0.1
				l-3.5,2.5c-1-0.6-2.1-1-3.2-1.3L38.5,1c-0.1-0.6-0.6-1-1.2-1h-4.7c-0.6,0-1.1,0.4-1.2,1l-0.7,4.3c-1.1,0.3-2.2,0.7-3.2,1.3
				L24.1,4c-0.5-0.3-1.1-0.3-1.5,0.1l-3.3,3.3c-0.4,0.4-0.5,1-0.1,1.5l2.5,3.5c-0.6,1-1,2.1-1.3,3.1l-4.3,0.7c-0.6,0.1-1,0.6-1,1.2
				V21C15.2,21.6,15.7,22.2,16.3,22.2z"/>
			<path class="st0" d="M42,19.8c0,0.6,0.5,1.2,1.2,1.2s1.2-0.5,1.2-1.2c0-5.2-4.2-9.3-9.3-9.3s-9.3,4.2-9.3,9.3
				c0,0.6,0.5,1.2,1.2,1.2c0.6,0,1.2-0.5,1.2-1.2c0-3.9,3.1-7,7-7S42,16,42,19.8z"/>
			<path class="st0" d="M30.3,19.8c0,0.6,0.5,1.2,1.2,1.2s1.2-0.5,1.2-1.2c0-1.3,1-2.3,2.3-2.3s2.3,1,2.3,2.3c0,0.6,0.5,1.2,1.2,1.2
				s1.2-0.5,1.2-1.2c0-2.6-2.1-4.7-4.7-4.7S30.3,17.3,30.3,19.8z"/>
			<polygon class="st0" points="64.2,58.3 64.2,57.2 64.2,40.7 61.8,40.7 61.8,57.2 59.5,57.2 59.5,45.3 57.2,45.3 57.2,57.2 
				54.8,57.2 54.8,48.8 52.5,48.8 52.5,57.2 50.2,57.2 50.2,46.5 47.8,46.5 47.8,57.2 45.5,57.2 45.5,44.2 43.2,44.2 43.2,57.2 
				40.8,57.2 40.8,41.8 38.5,41.8 38.5,57.2 36.2,57.2 36.2,46.5 33.8,46.5 33.8,57.2 31.5,57.2 31.5,51.2 29.2,51.2 29.2,57.2 
				26.8,57.2 26.8,53.5 24.5,53.5 24.5,57.2 22.2,57.2 22.2,51.2 19.8,51.2 19.8,57.2 17.5,57.2 17.5,50 15.2,50 15.2,57.2 
				12.8,57.2 12.8,53.5 10.5,53.5 10.5,57.2 8.2,57.2 8.2,56 5.8,56 5.8,57.2 5.8,58.3 5.8,59.5 64.2,59.5 			"/>
		</g>
	</g>
</g>
</svg>
