<?xml version="1.0" encoding="utf-8"?>
<!-- Generator: Adobe Illustrator 23.0.3, SVG Export Plug-In . SVG Version: 6.00 Build 0)  -->
<svg version="1.1" id="Layer_1" xmlns="http://www.w3.org/2000/svg" xmlns:xlink="http://www.w3.org/1999/xlink" x="0px" y="0px"
	 viewBox="0 0 160 160" style="enable-background:new 0 0 160 160;" xml:space="preserve">
<style type="text/css">
	.st0{fill:#FF4F7A;}
</style>
<g>
	<path class="st0" d="M116.1,149.7c4.3,0,7.7-3.5,7.7-7.7s-3.5-7.7-7.7-7.7c-4.3,0-7.7,3.5-7.7,7.7S111.9,149.7,116.1,149.7z
		 M116.1,139.4c1.4,0,2.6,1.2,2.6,2.6s-1.2,2.6-2.6,2.6c-1.4,0-2.6-1.2-2.6-2.6S114.7,139.4,116.1,139.4z"/>
	<path class="st0" d="M72.3,134.2H36.1v15.5h36.1V134.2z M56.8,139.4v5.2h-5.2v-5.2H56.8z M41.3,139.4h5.2v5.2h-5.2V139.4z
		 M67.1,144.5h-5.2v-5.2h5.2V144.5z"/>
	<path class="st0" d="M36.1,56.8h36.1V41.3H36.1V56.8z M51.6,51.6v-5.2h5.2v5.2H51.6z M67.1,51.6h-5.2v-5.2h5.2V51.6z M41.3,46.5
		h5.2v5.2h-5.2V46.5z"/>
	<path class="st0" d="M116.1,87.7c-4.3,0-7.7,3.5-7.7,7.7s3.5,7.7,7.7,7.7c4.3,0,7.7-3.5,7.7-7.7S120.4,87.7,116.1,87.7z
		 M116.1,98.1c-1.4,0-2.6-1.2-2.6-2.6c0-1.4,1.2-2.6,2.6-2.6c1.4,0,2.6,1.2,2.6,2.6C118.7,96.9,117.6,98.1,116.1,98.1z"/>
	<path class="st0" d="M36.1,103.2h36.1V87.7H36.1V103.2z M51.6,98.1v-5.2h5.2v5.2H51.6z M67.1,98.1h-5.2v-5.2h5.2V98.1z M41.3,92.9
		h5.2v5.2h-5.2V92.9z"/>
	<path class="st0" d="M118.7,18.1c-12.8,0-23.2,10.4-23.2,23.2s10.4,23.2,23.2,23.2s23.2-10.4,23.2-23.2S131.5,18.1,118.7,18.1z
		 M118.7,59.4c-10,0-18.1-8.1-18.1-18.1s8.1-18.1,18.1-18.1s18.1,8.1,18.1,18.1S128.7,59.4,118.7,59.4z"/>
	<path class="st0" d="M118.7,28.4c-7.1,0-12.9,5.8-12.9,12.9s5.8,12.9,12.9,12.9c7.1,0,12.9-5.8,12.9-12.9S125.8,28.4,118.7,28.4z
		 M118.7,49c-4.3,0-7.7-3.5-7.7-7.7s3.5-7.7,7.7-7.7s7.7,3.5,7.7,7.7S123,49,118.7,49z"/>
	<path class="st0" d="M160,51V31.6l-10.2-2.7c-0.1-0.3-0.2-0.6-0.3-0.8l5.3-9.1L141,5.2l-9.1,5.3c-0.3-0.1-0.6-0.2-0.8-0.3L128.4,0
		H109l-2.7,10.1c-0.3,0.1-0.6,0.2-0.8,0.3l-9.1-5.3L82.6,19l5.3,9.1c-0.1,0.3-0.2,0.6-0.3,0.8L79.7,31H33.5c-4.3,0-7.7,3.5-7.7,7.7
		v20.6c0,4.3,3.5,7.7,7.7,7.7h2.6v10.3h-2.6c-4.3,0-7.7,3.5-7.7,7.7v2.6H10.3V46c3-1.1,5.2-3.9,5.2-7.3c0-4.3-3.5-7.7-7.7-7.7
		S0,34.4,0,38.7c0,3.4,2.2,6.2,5.2,7.3v46.9h20.6v5.2H5.2V145c-3,1.1-5.2,3.9-5.2,7.3c0,4.3,3.5,7.7,7.7,7.7s7.7-3.5,7.7-7.7
		c0-3.4-2.2-6.2-5.2-7.3v-41.8h15.5v2.6c0,4.3,3.5,7.7,7.7,7.7h2.6v10.3h-2.6c-4.3,0-7.7,3.5-7.7,7.7v20.6c0,4.3,3.5,7.7,7.7,7.7
		h92.9c4.3,0,7.7-3.5,7.7-7.7v-20.6c0-4.3-3.5-7.7-7.7-7.7h-2.6v-10.3h2.6c4.3,0,7.7-3.5,7.7-7.7V85.2c0-3.1-1.9-5.8-4.6-7l1.5-5.7
		c0.3-0.1,0.6-0.2,0.8-0.3l9.1,5.3l13.8-13.8l-5.3-9.1c0.1-0.3,0.2-0.6,0.3-0.8L160,51z M7.7,36.1c1.4,0,2.6,1.2,2.6,2.6
		s-1.2,2.6-2.6,2.6s-2.6-1.2-2.6-2.6S6.3,36.1,7.7,36.1z M7.7,154.8c-1.4,0-2.6-1.2-2.6-2.6c0-1.4,1.2-2.6,2.6-2.6s2.6,1.2,2.6,2.6
		C10.3,153.7,9.2,154.8,7.7,154.8z M31,59.4V38.7c0-1.4,1.2-2.6,2.6-2.6h43.9V51l10.2,2.7c0.1,0.3,0.2,0.6,0.3,0.8l-4.3,7.4H33.5
		C32.1,61.9,31,60.8,31,59.4z M41.3,67.1h44.8l10.3,10.3l9.1-5.3c0.3,0.1,0.6,0.2,0.8,0.3l1.3,5H41.3V67.1z M129,131.6v20.6
		c0,1.4-1.2,2.6-2.6,2.6H33.5c-1.4,0-2.6-1.2-2.6-2.6v-20.6c0-1.4,1.2-2.6,2.6-2.6h92.9C127.9,129,129,130.2,129,131.6z
		 M118.7,123.9H41.3v-10.3h77.4V123.9z M129,105.8c0,1.4-1.2,2.6-2.6,2.6H33.5c-1.4,0-2.6-1.2-2.6-2.6V85.2c0-1.4,1.2-2.6,2.6-2.6
		h92.9c1.4,0,2.6,1.2,2.6,2.6V105.8z M148.3,62.8l-8.1,8.1l-8-4.6l-1.2,0.6c-0.9,0.5-1.9,0.9-2.9,1.2l-1.3,0.5l-2.4,8.9H113
		l-2.4-8.9l-1.3-0.5c-1-0.3-1.9-0.7-2.9-1.2l-1.2-0.6l-8,4.6l-8.1-8.1l4.6-8l-0.6-1.2c-0.5-0.9-0.9-1.9-1.2-2.9l-0.5-1.3L82.6,47
		V35.5l8.9-2.4l0.5-1.3c0.3-1,0.7-1.9,1.2-2.9l0.6-1.2l-4.6-8l8.1-8.1l8,4.6l1.2-0.6c0.9-0.5,1.9-0.9,2.9-1.2l1.3-0.5l2.4-8.9h11.5
		l2.4,8.9l1.3,0.5c1,0.3,1.9,0.7,2.9,1.2l1.2,0.6l8-4.6l8.1,8.1l-4.6,8l0.6,1.2c0.5,0.9,0.9,1.9,1.2,2.9l0.5,1.3l8.9,2.4V47
		l-8.9,2.4l-0.5,1.3c-0.3,1-0.7,1.9-1.2,2.9l-0.6,1.2L148.3,62.8z"/>
</g>
</svg>
