<?xml version="1.0" encoding="utf-8"?>
<!-- Generator: Adobe Illustrator 23.0.3, SVG Export Plug-In . SVG Version: 6.00 Build 0)  -->
<svg version="1.1" id="Layer_1" xmlns="http://www.w3.org/2000/svg" xmlns:xlink="http://www.w3.org/1999/xlink" x="0px" y="0px"
	 viewBox="0 0 71.2 70" style="enable-background:new 0 0 71.2 70;" xml:space="preserve">
<style type="text/css">
	.st0{fill:#FFFFFF;}
</style>
<g>
	<g>
		<g>
			<path class="st0" d="M70.1,12.9c0.6,0,1.1-0.5,1.1-1.1V5.9c0-3.2-2.6-5.9-5.9-5.9h-38c-3.2,0-5.9,2.6-5.9,5.9v2.5H5.9
				C2.6,8.3,0,11,0,14.2V38c0,3.2,2.6,5.9,5.9,5.9h2.5v10.8c0,0.9,1.1,1.5,1.8,0.9l14-11.6h19.8c3,0,5.4-2.2,5.8-5.1l10.1,8.4
				c0.7,0.6,1.8,0.1,1.8-0.9V35.5h3.6c3.2,0,5.9-2.6,5.9-5.9V16.6c0-0.6-0.5-1.1-1.1-1.1c-0.6,0-1.1,0.5-1.1,1.1v13.1
				c0,2-1.6,3.6-3.6,3.6h-4.8c-0.6,0-1.1,0.5-1.1,1.1v9.5l-9.6-8c0,0,0,0-0.1-0.1v-6.3h6c0.6,0,1.1-0.5,1.1-1.1s-0.5-1.1-1.1-1.1h-6
				v-7.3h1.3c0.6,0,1.1-0.5,1.1-1.1c0-0.6-0.5-1.1-1.1-1.1h-1.3v-3.6c0-3.2-2.6-5.9-5.9-5.9H23.6V5.9c0-2,1.6-3.6,3.6-3.6h38
				c2,0,3.6,1.6,3.6,3.6v5.9C69,12.4,69.5,12.9,70.1,12.9z M43.9,10.6c2,0,3.6,1.6,3.6,3.6V38c0,2-1.6,3.6-3.6,3.6H23.7
				c-0.3,0-0.5,0.1-0.7,0.3L10.6,52.2v-9.5c0-0.6-0.5-1.1-1.1-1.1H5.9c-2,0-3.6-1.6-3.6-3.6V14.2c0-2,1.6-3.6,3.6-3.6H43.9z"/>
		</g>
	</g>
	<g>
		<g>
			<path class="st0" d="M60.6,8.3H49.9c-0.6,0-1.1,0.5-1.1,1.1c0,0.6,0.5,1.1,1.1,1.1h10.7c0.6,0,1.1-0.5,1.1-1.1
				C61.7,8.8,61.2,8.3,60.6,8.3z"/>
		</g>
	</g>
	<g>
		<g>
			<path class="st0" d="M60.6,17.8h-5.9c-0.6,0-1.1,0.5-1.1,1.1c0,0.6,0.5,1.1,1.1,1.1h5.9c0.6,0,1.1-0.5,1.1-1.1
				C61.7,18.3,61.2,17.8,60.6,17.8z"/>
		</g>
	</g>
	<g>
		<g>
			<path class="st0" d="M14.2,22.6c-1.9,0-3.5,1.6-3.5,3.5s1.6,3.5,3.5,3.5s3.5-1.6,3.5-3.5C17.7,24.2,16.1,22.6,14.2,22.6z
				 M14.2,27.3c-0.7,0-1.3-0.6-1.3-1.3s0.6-1.3,1.3-1.3s1.3,0.6,1.3,1.3S14.9,27.3,14.2,27.3z"/>
		</g>
	</g>
	<g>
		<g>
			<path class="st0" d="M24.9,22.6c-1.9,0-3.5,1.6-3.5,3.5s1.6,3.5,3.5,3.5s3.5-1.6,3.5-3.5C28.4,24.2,26.8,22.6,24.9,22.6z
				 M24.9,27.3c-0.7,0-1.3-0.6-1.3-1.3s0.6-1.3,1.3-1.3c0.7,0,1.3,0.6,1.3,1.3C26.2,26.8,25.6,27.3,24.9,27.3z"/>
		</g>
	</g>
	<g>
		<g>
			<path class="st0" d="M35.6,22.6c-1.9,0-3.5,1.6-3.5,3.5s1.6,3.5,3.5,3.5s3.5-1.6,3.5-3.5C39.1,24.2,37.5,22.6,35.6,22.6z
				 M35.6,27.3c-0.7,0-1.3-0.6-1.3-1.3s0.6-1.3,1.3-1.3c0.7,0,1.3,0.6,1.3,1.3S36.3,27.3,35.6,27.3z"/>
		</g>
	</g>
	<g>
		<g>
			<path class="st0" d="M25.5,64.2h-5.4v-9c0-1.6-1.3-2.9-2.9-2.9s-2.9,1.3-2.9,2.9v11.9c0,1.6,1.3,2.9,2.9,2.9h8.3
				c1.6,0,2.9-1.3,2.9-2.9C28.4,65.5,27.1,64.2,25.5,64.2z M25.5,67.8h-8.3c-0.4,0-0.7-0.3-0.7-0.7V55.2c0-0.4,0.3-0.7,0.7-0.7
				c0.4,0,0.7,0.3,0.7,0.7v10.1c0,0.6,0.5,1.1,1.1,1.1h6.5c0.4,0,0.7,0.3,0.7,0.7S25.9,67.8,25.5,67.8z"/>
		</g>
	</g>
	<g>
		<g>
			<path class="st0" d="M32,52.3c-1.6,0-2.9,1.3-2.9,2.9v11.9c0,1.6,1.3,2.9,2.9,2.9c1.6,0,2.9-1.3,2.9-2.9V55.2
				C34.9,53.6,33.6,52.3,32,52.3z M32.7,67.1c0,0.4-0.3,0.7-0.7,0.7c-0.4,0-0.7-0.3-0.7-0.7V55.2c0-0.4,0.3-0.7,0.7-0.7
				c0.4,0,0.7,0.3,0.7,0.7V67.1z"/>
		</g>
	</g>
	<g>
		<g>
			<path class="st0" d="M49.7,52.5c-1.5-0.6-3.2,0.1-3.8,1.6l-2.1,5.2l-2.1-5.2c-0.6-1.5-2.3-2.2-3.8-1.6c-1.5,0.6-2.2,2.3-1.6,3.8
				l4.8,11.9c0.4,1.1,1.5,1.8,2.7,1.8s2.2-0.7,2.7-1.8l4.8-11.9C52,54.8,51.2,53.1,49.7,52.5z M49.3,55.5l-4.8,11.9
				c-0.2,0.5-1,0.5-1.2,0l-4.8-11.9c-0.1-0.4,0.1-0.8,0.4-0.9c0.3-0.1,0.7,0.1,0.8,0.4l3.1,7.7c0.4,0.9,1.7,0.9,2.1,0l3.1-7.7
				c0.1-0.3,0.5-0.5,0.8-0.4C49.2,54.7,49.4,55.1,49.3,55.5z"/>
		</g>
	</g>
	<g>
		<g>
			<path class="st0" d="M62.3,64.2h-4.2v-0.1H60c1.6,0,2.9-1.3,2.9-2.9s-1.3-2.9-2.9-2.9h-1.9v-0.1h4.2c1.6,0,2.9-1.3,2.9-2.9
				c0-1.6-1.3-2.9-2.9-2.9h-7.1c-1.6,0-2.9,1.3-2.9,2.9v11.9c0,1.6,1.3,2.9,2.9,2.9h7.1c1.6,0,2.9-1.3,2.9-2.9
				C65.2,65.5,63.9,64.2,62.3,64.2z M62.3,67.8h-7.1c-0.4,0-0.7-0.3-0.7-0.7V55.2c0-0.4,0.3-0.7,0.7-0.7h7.1c0.4,0,0.7,0.3,0.7,0.7
				s-0.3,0.7-0.7,0.7H57c-0.6,0-1.1,0.5-1.1,1.1v2.4c0,0.6,0.5,1.1,1.1,1.1h3c0.4,0,0.7,0.3,0.7,0.7s-0.3,0.7-0.7,0.7h-3
				c-0.6,0-1.1,0.5-1.1,1.1v2.4c0,0.6,0.5,1.1,1.1,1.1h5.4c0.4,0,0.7,0.3,0.7,0.7S62.7,67.8,62.3,67.8z"/>
		</g>
	</g>
</g>
</svg>
