<?xml version="1.0" encoding="utf-8"?>
<!-- Generator: Adobe Illustrator 23.0.3, SVG Export Plug-In . SVG Version: 6.00 Build 0)  -->
<svg version="1.1" id="Capa_1" xmlns="http://www.w3.org/2000/svg" xmlns:xlink="http://www.w3.org/1999/xlink" x="0px" y="0px"
	 viewBox="0 0 69 70" style="enable-background:new 0 0 69 70;" xml:space="preserve">
<style type="text/css">
	.st0{fill:#FFFFFF;}
</style>
<g>
	<g>
		<g>
			<g>
				<path class="st0" d="M68.3,9.2c-0.1-0.3-0.4-0.6-0.8-0.6c-0.3-0.1-0.7,0-0.9,0.3l-4.9,4.9c-0.1,0.1-0.4,0.1-0.5,0l-3.2-3.2
					c-0.1-0.1-0.1-0.4,0-0.5L63,5.1c0.2-0.2,0.4-0.6,0.3-0.9c-0.1-0.3-0.3-0.6-0.6-0.8C58.9,2,54.8,2.9,52,5.7
					c-2.6,2.6-3.5,6.4-2.5,9.9l-3.6,3.3c-0.5-0.3-1.1-0.5-1.7-0.8l0.1-1.9c0.1-1-0.6-1.9-1.6-2.1l-2.5-0.4c-1-0.2-1.9,0.4-2.2,1.4
					L37.5,17c-0.5,0-1.1,0.1-1.6,0.1l-0.5-1v-2.3c0,0,0,0,0,0v0c0,0,0,0,0,0c0,0,0,0,0-0.1c0,0,0,0,0,0c0-0.2-0.1-0.3-0.2-0.5
					c-0.3-0.5-1-0.6-1.4-0.3C32.7,13.6,30,14,28.6,14c-3.4,0-6.7-1.2-9.5-3.4l-3.3-3.5c0.6-0.9,1.3-1.7,2.1-2.4
					c3.2-2.8,7-2.6,7.1-2.6c2.4,0.1,4.7,1.2,6.8,3.2c1.9,1.8,3.3,4.4,4.1,7.6c0.1,0.6,0.7,0.9,1.3,0.7c0.6-0.1,0.9-0.7,0.7-1.3
					c-1-3.6-2.6-6.5-4.7-8.6c-2.5-2.4-5.2-3.7-8.1-3.8c-0.2,0-4.6-0.2-8.5,3.1c-1.1,0.9-2.1,2.1-2.9,3.5c0,0,0,0,0,0c0,0,0,0,0,0
					c0,0,0,0,0,0c0,0,0,0,0,0c-0.8,1.2-1.3,2.6-1.6,4c-0.3,1.3-0.3,2.6-0.2,3.9c0,0.3,0.2,0.6,0.4,0.7c0.2,0.1,0.4,0.2,0.6,0.2
					c0.1,0,0.2,0,0.2,0c0.3-0.1,0.5-0.1,0.8-0.2v6.4c0,3.6,1.8,6.8,4.5,8.7v1.7c0,0.8-0.5,1.6-1.2,2.2c0,0-0.1,0-0.1,0.1
					c-0.4,0.3-0.9,0.5-1.5,0.6l-4.8,0.9c-4.4,0.9-7.5,4.2-7.5,8.1v14.5c0,2.6,1,5,2.8,6.8l2.6,2.7H1c-0.6,0-1,0.5-1,1s0.5,1,1,1
					h10.1h0.7h25.9h1.4h9c0.6,0,1-0.5,1-1s-0.5-1-1-1h-6.8l2.5-3.1c1.6-1.9,2.4-4.3,2.4-6.8V47.7c0.6-0.3,1.2-0.7,1.7-1.1l1.6,1.1
					c0.3,0.2,0.7,0.4,1.1,0.4c0.5,0,1.1-0.2,1.5-0.7l1.7-1.9c0.7-0.8,0.6-1.9-0.1-2.6l-1.3-1.4c0.4-0.6,0.7-1.3,0.9-2l1.9,0.1
					c1,0.1,1.9-0.6,2.1-1.6l0.4-2.5c0.2-1-0.4-1.9-1.4-2.2l-1.9-0.5c0-0.5-0.1-1.1-0.1-1.6l1.8-0.8c0.9-0.4,1.3-1.5,1-2.4l-0.9-2.4
					c-0.3-0.8-1.1-1.4-2-1.3l1.7-1.9c3.5,1.1,7.4,0.2,10.1-2.5C68.9,17,69.7,12.9,68.3,9.2z M35.4,21.7v-2.4c0,0,0.1,0,0.1,0
					c0.9-0.2,1.9-0.3,2.8-0.3c0,0,0,0,0,0c0.5,0,0.9-0.3,1-0.8l0.7-2.5l2.3,0.4L42,18.7c0,0.5,0.3,0.9,0.7,1.1
					c0.5,0.2,1,0.4,1.5,0.6l-2,1.8c-0.7-0.2-1.3-0.4-2-0.5c-1.6-0.3-3.3-0.2-4.9,0.2C35.4,21.8,35.4,21.7,35.4,21.7z M35.1,24.1
					c1.5-0.5,3.2-0.7,4.8-0.4c0.2,0,0.4,0.1,0.6,0.1l-9.3,8.5c0-0.1,0-0.1,0-0.2v-2C33.1,28.6,34.5,26.5,35.1,24.1z M14.7,12.7
					c-0.1,0-0.3,0.1-0.4,0.2c-0.2,0.1-0.3,0.1-0.5,0.2c0-0.7,0.1-1.3,0.2-2c0.1-0.7,0.4-1.4,0.6-2c0.7,0.8,1.4,1.6,2.1,2.3
					c-0.8,0.6-1.4,1-1.7,1.1C15,12.6,14.9,12.7,14.7,12.7z M16,21.7v-7.2c0,0,0.1,0,0.1-0.1c0.4-0.2,1.3-0.8,2.4-1.6
					c3,2.2,6.5,3.4,10.1,3.4c1.1,0,3.1-0.2,4.6-0.7l0,6.3c0,4.8-3.9,8.6-8.6,8.6S16,26.4,16,21.7z M44.2,58L44.2,58
					c0,2-0.7,3.9-2,5.5l-1.6,2V49.1c0-1.6-1.2-3-2.7-3.3c0.1-0.6,0.4-1.1,0.8-1.5l1.1-0.9c0.4-0.4,0.5-1,0.2-1.5
					c-0.4-0.4-1-0.5-1.5-0.2l-1.1,0.9c-0.9,0.8-1.5,1.8-1.6,3H19.5c-0.6,0-1,0.5-1,1c0,0.6,0.5,1,1,1h17.8c0.7,0,1.3,0.6,1.3,1.3v18
					c0,0.5-0.4,0.8-0.8,0.8H11.9c-0.1,0-0.2,0-0.4-0.1l-0.4-0.4c0-0.1-0.1-0.2-0.1-0.3v-18c0-0.7,0.6-1.3,1.3-1.3h3.1
					c0.6,0,1-0.5,1-1s-0.5-1-1-1h-2.1c-0.1-1.2-0.6-2.3-1.6-3l-1.1-0.9c-0.4-0.4-1.1-0.3-1.5,0.2c-0.4,0.4-0.3,1.1,0.2,1.5l1.1,0.9
					c0.5,0.4,0.8,1,0.8,1.6C10,46.4,9,47.6,9,49.1v16.1l-1.4-1.5c-1.4-1.4-2.2-3.4-2.2-5.4V43.9c0-2.9,2.4-5.4,5.8-6L16,37
					c0.6-0.1,1.2-0.3,1.7-0.6c0.6,0.5,1.3,0.9,2,1.2c0.1,0.1,0.3,0.1,0.5,0.1c0.4,0,0.8-0.2,0.9-0.6c0.3-0.5,0-1.1-0.5-1.4
					c-0.4-0.2-0.8-0.4-1.2-0.7c0.7-0.8,1.1-1.9,1.1-3v-0.6c1.3,0.5,2.7,0.8,4.1,0.8c1.6,0,3.1-0.4,4.5-1v0.7c0,1.1,0.4,2.1,1.1,3
					c-1.6,1.1-3.5,1.7-5.4,1.7c-0.4,0-0.8,0-1.2-0.1c-0.6-0.1-1.1,0.3-1.2,0.9c-0.1,0.6,0.3,1.1,0.9,1.2c0.5,0.1,1,0.1,1.4,0.1
					c2.6,0,5.1-0.9,7.1-2.4c0.5,0.3,1.1,0.5,1.7,0.6l4.8,0.9c0.7,0.1,1.3,0.3,1.9,0.6c0,0,0.1,0,0.1,0.1c2.3,1.1,3.8,3.1,3.8,5.4
					L44.2,58L44.2,58z M42.4,37.3l5.5-6.1c0.3,1.2,0.3,2.5,0.1,3.8c-0.3,2-1.3,3.8-2.7,5.3C44.7,39.1,43.7,38.1,42.4,37.3z
					 M54.4,26.3l0.8,2.2l-2.4,1.1c-0.4,0.2-0.7,0.7-0.6,1.1c0.2,0.9,0.3,1.9,0.3,2.8c0,0.5,0.3,0.9,0.8,1l2.5,0.7l-0.4,2.3l-2.6-0.2
					c-0.5,0-0.9,0.3-1.1,0.7c-0.4,1.1-0.8,2.1-1.4,3c-0.3,0.4-0.2,0.9,0.1,1.3l1.8,1.9l-1.5,1.8l-2.1-1.5c-0.4-0.3-0.9-0.3-1.3,0
					c-0.3,0.3-0.7,0.5-1,0.8v-1.3c0-0.5-0.1-1-0.2-1.5c2.1-1.8,3.4-4.3,3.9-7c0.3-2,0.2-4.1-0.5-6l2.3-2.5c0,0,0.1,0,0.1,0
					L54.4,26.3z M64.6,18.3c-2.2,2.2-5.6,2.9-8.5,1.8c-0.4-0.2-0.9-0.1-1.2,0.3l-7.3,8.1c0,0-0.1,0.1-0.1,0.1l-7,7.8
					c-0.5-0.2-1.1-0.4-1.7-0.5L34,34.9c-0.6-0.1-1.1-0.3-1.5-0.6c0,0-0.1,0-0.1-0.1c-0.1,0-0.1-0.1-0.2-0.1l19.1-17.5
					c0.3-0.3,0.4-0.7,0.3-1.1c-1.1-2.9-0.4-6.2,1.8-8.4c1.8-1.8,4.3-2.6,6.8-2.2l-3.6,3.6c-0.5,0.5-0.7,1.1-0.7,1.7
					c0,0.6,0.3,1.3,0.7,1.7l3.2,3.2c0.9,0.9,2.5,0.9,3.4,0l3.6-3.6C67.2,14,66.4,16.5,64.6,18.3z"/>
				<path class="st0" d="M24.6,25.9c1.2,0,2.2-0.5,3.1-1.3c0.4-0.4,0.4-1.1,0-1.5c-0.4-0.4-1.1-0.4-1.5,0c-0.4,0.4-1,0.7-1.6,0.7
					c-0.6,0-1.2-0.2-1.6-0.7c-0.4-0.4-1.1-0.4-1.5,0c-0.4,0.4-0.4,1.1,0,1.5C22.3,25.4,23.4,25.9,24.6,25.9z"/>
			</g>
		</g>
	</g>
	<g>
		<g>
			<circle class="st0" cx="20.8" cy="17.5" r="1.1"/>
		</g>
	</g>
	<g>
		<g>
			<circle class="st0" cx="28.1" cy="17.5" r="1.1"/>
		</g>
	</g>
	<g>
		<g>
			<path class="st0" d="M24.8,54.3c-2,0-3.5,1.6-3.5,3.5s1.6,3.5,3.5,3.5s3.5-1.6,3.5-3.5S26.8,54.3,24.8,54.3z M24.8,59.4
				c-0.8,0-1.5-0.7-1.5-1.5s0.7-1.5,1.5-1.5c0.8,0,1.5,0.7,1.5,1.5C26.3,58.7,25.6,59.4,24.8,59.4z"/>
		</g>
	</g>
</g>
</svg>
