<?xml version="1.0" encoding="utf-8"?>
<!-- Generator: Adobe Illustrator 23.0.3, SVG Export Plug-In . SVG Version: 6.00 Build 0)  -->
<svg version="1.1" id="layer_1" xmlns="http://www.w3.org/2000/svg" xmlns:xlink="http://www.w3.org/1999/xlink" x="0px" y="0px"
	 viewBox="0 0 80.2 80.2" style="enable-background:new 0 0 80.2 80.2;" xml:space="preserve">
<style type="text/css">
	.st0{fill:none;stroke:#FF4F7B;stroke-width:2.2;stroke-miterlimit:10;}
	.st1{fill:none;stroke:#FF4F7B;stroke-width:2.2;stroke-linejoin:round;stroke-miterlimit:10;}
</style>
<g>
	<g>
		<g>
			<g>
				<path class="st0" d="M28.8,18.7c-5.6,0-10.1,4.5-10.1,10.1v13.8"/>
				<path class="st0" d="M51.4,18.7c5.6,0,10.1,4.5,10.1,10.1v13.8"/>
			</g>
			<g>
				<polyline class="st0" points="61.5,56.5 79.1,56.5 79.1,79.1 66.5,79.1 				"/>
				<polyline class="st0" points="13.7,79.1 1.1,79.1 1.1,56.5 18.7,56.5 				"/>
			</g>
			<g>
				<g>
					<path class="st1" d="M61.5,52.7v26.4H18.7V52.7c0-2.1,1.7-3.8,3.8-3.8h35.2C59.8,48.9,61.5,50.6,61.5,52.7z"/>
					<polyline class="st1" points="61.5,79.1 65.3,71.6 65.3,64 61.5,64 					"/>
					<polyline class="st1" points="18.7,79.1 14.9,71.6 14.9,64 18.7,64 					"/>
				</g>
				<circle class="st1" cx="40.1" cy="64" r="3.8"/>
			</g>
			<g>
				<path class="st0" d="M48.9,37.6"/>
				<path class="st0" d="M12.4,56.5v-2.5c0-12.6,8.8-11.3,17.6-16.4"/>
				<path class="st0" d="M50.2,37.6c8.8,5,17.6,2.5,17.6,15.1v3.8"/>
				<polygon class="st0" points="45.1,42.6 40.1,40.1 35.1,42.6 30,37.6 32.6,33.8 40.1,35.1 47.6,33.8 50.2,37.6 				"/>
				<line class="st0" x1="46.4" y1="28.8" x2="46.4" y2="33.8"/>
				<line class="st0" x1="33.8" y1="33.8" x2="33.8" y2="28.8"/>
				<path class="st0" d="M51.4,12.4c0-7.6-3.7-11.3-11.3-11.3S28.8,4.8,28.8,12.4v5c1.3,8.8,5,11.3,5,11.3c2.5,1.3,6.3,1.3,6.3,1.3
					s3.8,0,6.3-1.3c0,0,3.8-2.5,5-11.3V12.4z"/>
				<polyline class="st0" points="28.8,12.4 33.8,9.9 40.1,12.4 46.4,14.9 51.4,12.4 				"/>
			</g>
		</g>
	</g>
</g>
</svg>
