<?xml version="1.0" encoding="utf-8"?>
<!-- Generator: Adobe Illustrator 23.0.3, SVG Export Plug-In . SVG Version: 6.00 Build 0)  -->
<svg version="1.1" id="Layer_1" xmlns="http://www.w3.org/2000/svg" xmlns:xlink="http://www.w3.org/1999/xlink" x="0px" y="0px"
	 viewBox="0 0 70 71.1" style="enable-background:new 0 0 70 71.1;" xml:space="preserve">
<style type="text/css">
	.st0{fill:#FF4F7B;}
</style>
<g>
	<path class="st0" d="M66.6,64.4c-1.9,0-3.4,1.5-3.4,3.4s1.5,3.4,3.4,3.4c1.9,0,3.4-1.5,3.4-3.4S68.5,64.4,66.6,64.4z M66.6,68.9
		c-0.6,0-1.1-0.5-1.1-1.1s0.5-1.1,1.1-1.1c0.6,0,1.1,0.5,1.1,1.1S67.2,68.9,66.6,68.9z"/>
	<path class="st0" d="M6.8,3.4C6.8,1.5,5.3,0,3.4,0S0,1.5,0,3.4s1.5,3.4,3.4,3.4S6.8,5.3,6.8,3.4z M2.3,3.4c0-0.6,0.5-1.1,1.1-1.1
		s1.1,0.5,1.1,1.1S4,4.5,3.4,4.5S2.3,4,2.3,3.4z"/>
	<path class="st0" d="M60.7,44.7l-2.2-4.5c0.5-1,0.9-1.9,1.2-2.9l4.7-1.6V22.9l-4.7-1.6c-0.3-1-0.7-1.9-1.2-2.9l2.2-4.5l-9.1-9.1
		l-4.5,2.2c-1-0.5-1.9-0.9-2.9-1.2l-1.6-4.7H29.7l-1.6,4.7c-1,0.3-1.9,0.7-2.9,1.2l-4.5-2.2L11.6,14l2.2,4.5c-0.5,1-0.9,1.9-1.2,2.9
		l-4.7,1.6v12.9l4.7,1.6c0.3,1,0.7,1.9,1.2,2.9l-1.5,2.6H5.6v22.6h7.9v-3.4h8.6l3.4,3.4h6.1v1.1c0,2.5,2,4.5,4.5,4.5s4.5-2,4.5-4.5
		v-1.1h7.9c1.9,0,3.4-1.5,3.4-3.4c0-0.9-0.3-1.7-0.9-2.3c0.5-0.6,0.9-1.4,0.9-2.3s-0.3-1.7-0.9-2.3c0.4-0.5,0.7-1.1,0.8-1.7
		L60.7,44.7z M16.1,39.8c-0.6-1.2-1.1-2.4-1.5-3.6l-0.2-0.5l-4.3-1.4v-9.7l4.3-1.4l0.2-0.5c0.4-1.2,0.9-2.4,1.5-3.6l0.3-0.5l-2-4
		l6.8-6.8l4,2l0.5-0.3c1.2-0.6,2.4-1.1,3.6-1.5l0.5-0.2l1.4-4.3H41l1.4,4.3l0.5,0.2c1.2,0.4,2.4,0.9,3.6,1.5L47,9.6l4-2l6.8,6.8
		l-2,4l0.3,0.5c0.6,1.2,1.1,2.4,1.5,3.6l0.2,0.5l4.3,1.4v9.7l-4.3,1.4l-0.2,0.5c-0.4,1.2-0.9,2.4-1.5,3.6l-0.3,0.5l2,4L51.2,51
		c-0.1-0.1-0.1-0.1-0.2-0.2c0.5-0.6,0.9-1.4,0.9-2.3c0-1.8-1.4-3.2-3.1-3.4c4.8-3.8,7.6-9.6,7.6-15.8C56.5,18.1,47.3,9,36.1,9
		s-20.3,9.1-20.3,20.3c0,6.2,2.8,12,7.6,15.8h-9.7l2.7-4.9L16.1,39.8z M49.7,57.6c0,0.6-0.5,1.1-1.1,1.1h-9c-0.6,0-1.1-0.5-1.1-1.1
		c0-0.6,0.5-1.1,1.1-1.1h9C49.2,56.5,49.7,57,49.7,57.6z M33.4,29.4h5.5l1.8-1.8v-5c1.2,0,2.3,1,2.3,2.3V30L39,33.9h-5.8L29.4,30
		v-5.2c0-1.2,1-2.3,2.3-2.3v5L33.4,29.4z M33.9,36.1h4.5v4.5h-4.5V36.1z M40.6,35.5l4.5-4.5v-6.1c0-2.5-2-4.5-4.5-4.5h-2.3v6.3
		l-0.5,0.5h-3.6l-0.5-0.5v-6.3h-2.3c-2.5,0-4.5,2-4.5,4.5V31l4.5,4.5v5.2h-2.7l-0.1,0.1c-3.9-2.5-6.2-6.8-6.2-11.4
		c0-7.5,6.1-13.5,13.5-13.5s13.5,6.1,13.5,13.5c0,4.6-2.3,8.8-6.1,11.3h-2.9V35.5z M51.9,29.4c0-8.7-7.1-15.8-15.8-15.8
		s-15.8,7.1-15.8,15.8c0,5.2,2.6,10.1,6.8,13L25.5,44c-4.7-3.4-7.5-8.8-7.5-14.6c0-10,8.1-18.1,18.1-18.1s18.1,8.1,18.1,18.1
		c0,5.6-2.5,10.7-6.8,14.1c-0.1-0.8-0.5-1.5-1.1-2C49.8,38.5,51.9,34.1,51.9,29.4z M48.5,47.4c0.6,0,1.1,0.5,1.1,1.1
		c0,0.6-0.5,1.1-1.1,1.1h-9c-0.6,0-1.1-0.5-1.1-1.1c0-0.6,0.5-1.1,1.1-1.1H48.5z M39.5,54.2c-0.6,0-1.1-0.5-1.1-1.1
		c0-0.6,0.5-1.1,1.1-1.1h9c0.6,0,1.1,0.5,1.1,1.1c0,0.6-0.5,1.1-1.1,1.1H39.5z M11.3,63.2H7.9V45.2h3.4V63.2z M26.4,63.2L23,59.8
		h-9.5V47.4h11.8l4.5-4.5H44c0.6,0,1.1,0.5,1.1,1.1s-0.5,1.1-1.1,1.1H32.3L27.4,50l1.6,1.6l2.6-2.6v14.2H26.4z M36.1,68.9
		c-1.2,0-2.3-1-2.3-2.3V47.4h2.5c-0.1,0.4-0.2,0.7-0.2,1.1c0,0.9,0.3,1.7,0.9,2.3c-0.5,0.6-0.9,1.4-0.9,2.3c0,0.9,0.3,1.7,0.9,2.3
		c-0.5,0.6-0.9,1.4-0.9,2.3s0.3,1.7,0.9,2.3c-0.5,0.6-0.9,1.4-0.9,2.3c0,1.5,0.9,2.7,2.3,3.2v1.3C38.4,67.9,37.4,68.9,36.1,68.9z
		 M48.5,63.2h-9c-0.6,0-1.1-0.5-1.1-1.1s0.5-1.1,1.1-1.1h9c0.6,0,1.1,0.5,1.1,1.1S49.2,63.2,48.5,63.2z"/>
	<path class="st0" d="M2.3,10.2h2.3v2.3H2.3V10.2z"/>
	<path class="st0" d="M2.3,15.8h2.3v2.3H2.3V15.8z"/>
	<path class="st0" d="M2.3,21.5h2.3v2.3H2.3V21.5z"/>
	<path class="st0" d="M65.5,47.4h2.3v2.3h-2.3V47.4z"/>
	<path class="st0" d="M65.5,53.1h2.3v2.3h-2.3V53.1z"/>
	<path class="st0" d="M65.5,58.7h2.3V61h-2.3V58.7z"/>
</g>
</svg>
