<?xml version="1.0" encoding="utf-8"?>
<!-- Generator: Adobe Illustrator 23.0.3, SVG Export Plug-In . SVG Version: 6.00 Build 0)  -->
<svg version="1.1" id="Layer_1" xmlns="http://www.w3.org/2000/svg" xmlns:xlink="http://www.w3.org/1999/xlink" x="0px" y="0px"
	 viewBox="0 0 70 70" style="enable-background:new 0 0 70 70;" xml:space="preserve">
<style type="text/css">
	.st0{fill:#FF4F7B;}
</style>
<g>
	<path class="st0" d="M16.9,29.4h36.1v2.3H16.9V29.4z"/>
	<path class="st0" d="M38.4,33.9h14.7v2.3H38.4V33.9z"/>
	<path class="st0" d="M16.9,33.9h14.7v2.3H16.9V33.9z"/>
	<path class="st0" d="M38.4,24.8h14.7v2.3H38.4V24.8z"/>
	<path class="st0" d="M16.9,24.8h14.7v2.3H16.9V24.8z"/>
	<path class="st0" d="M16.9,20.3h36.1v2.3H16.9V20.3z"/>
	<path class="st0" d="M59.8,26.2v-5.8c0-3.7-3-6.8-6.8-6.8v2.3c2.5,0,4.5,2,4.5,4.5v5.8c0,2,0.7,3.9,1.9,5.5
		c-1.2,1.5-1.9,3.5-1.9,5.5v5.8c0,2.5-2,4.5-4.5,4.5v2.3c3.7,0,6.8-3,6.8-6.8v-5.8c0-1.8,0.7-3.4,1.9-4.7l0.8-0.8l-0.8-0.8
		C60.5,29.6,59.8,27.9,59.8,26.2z"/>
	<path class="st0" d="M12.4,42.9v-5.8c0-2-0.7-3.9-1.9-5.5c1.2-1.5,1.9-3.5,1.9-5.5v-5.8c0-2.5,2-4.5,4.5-4.5v-2.3
		c-3.7,0-6.8,3-6.8,6.8v5.8c0,1.8-0.7,3.4-1.9,4.7l-0.8,0.8l0.8,0.8c1.2,1.2,1.9,2.9,1.9,4.7v5.8c0,3.7,3,6.8,6.8,6.8v-2.3
		C14.4,47.4,12.4,45.4,12.4,42.9z"/>
	<path class="st0" d="M35,49.7c-2.5,0-4.5,2-4.5,4.5c0,2.5,2,4.5,4.5,4.5s4.5-2,4.5-4.5C39.5,51.7,37.5,49.7,35,49.7z M35,56.5
		c-1.2,0-2.3-1-2.3-2.3c0-1.2,1-2.3,2.3-2.3s2.3,1,2.3,2.3C37.3,55.4,36.2,56.5,35,56.5z"/>
	<path class="st0" d="M35,45.2c-1.5,0-3,0.4-4.3,1.1l1.1,2c1-0.5,2.1-0.8,3.2-0.8c3.7,0,6.8,3,6.8,6.8c0,1.1-0.3,2.2-0.8,3.2l2,1.1
		c0.7-1.3,1.1-2.8,1.1-4.3C44,49.2,40,45.2,35,45.2z"/>
	<path class="st0" d="M35,61c-3.7,0-6.8-3-6.8-6.8c0-1.1,0.3-2.2,0.8-3.2l-2-1.1c-0.7,1.3-1.1,2.8-1.1,4.3c0,5,4.1,9,9,9
		c1.5,0,3-0.4,4.3-1.1l-1.1-2C37.2,60.7,36.1,61,35,61z"/>
	<path class="st0" d="M70,3.4C70,1.5,68.5,0,66.6,0H3.4C1.5,0,0,1.5,0,3.4v51.9h19.2v2L22,58c0.3,0.9,0.6,1.8,1.1,2.6l-1.5,2.5
		l4.4,4.4l2.5-1.5c0.8,0.5,1.7,0.8,2.6,1.1l0.7,2.8h6.3l0.7-2.8c0.9-0.3,1.8-0.6,2.6-1.1l2.5,1.5l4.4-4.4l-1.5-2.5
		c0.5-0.8,0.8-1.7,1.1-2.6l2.8-0.7v-2H70V3.4z M3.4,2.3h63.2c0.6,0,1.1,0.5,1.1,1.1V9H2.3V3.4C2.3,2.8,2.8,2.3,3.4,2.3z M48.5,55.6
		l-2.4,0.6L46,56.8c-0.3,1.1-0.7,2.2-1.3,3.2l-0.4,0.6l1.3,2.1l-1.9,1.9l-2.1-1.3l-0.6,0.4c-1,0.6-2.1,1.1-3.2,1.3L37,65.3l-0.6,2.4
		h-2.8L33,65.3l-0.7-0.2c-1.1-0.3-2.2-0.7-3.2-1.3l-0.6-0.4l-2.1,1.3l-1.9-1.9l1.3-2.1l-0.4-0.6c-0.6-1-1.1-2.1-1.3-3.2l-0.2-0.7
		l-2.4-0.6v-2.8l2.4-0.6l0.2-0.7c0.3-1.1,0.7-2.2,1.3-3.2l0.4-0.6l-1.3-2.1l1.9-1.9l2.1,1.3l0.6-0.4c1-0.6,2.1-1.1,3.2-1.3l0.7-0.2
		l0.6-2.4h2.8l0.6,2.4l0.7,0.2c1.1,0.3,2.2,0.7,3.2,1.3l0.6,0.4l2.1-1.3l1.9,1.9l-1.3,2.1l0.4,0.6c0.6,1,1.1,2.1,1.3,3.2l0.2,0.7
		l2.4,0.6V55.6z M50.8,53.1v-2L48,50.3c-0.3-0.9-0.6-1.8-1.1-2.6l1.5-2.5L44,40.8l-2.5,1.5c-0.8-0.5-1.7-0.8-2.6-1.1l-0.7-2.8h-6.3
		l-0.7,2.8c-0.9,0.3-1.8,0.6-2.6,1.1L26,40.8l-4.4,4.4l1.5,2.5c-0.5,0.8-0.8,1.7-1.1,2.6l-2.8,0.7v2H2.3V11.3h65.5v41.8H50.8z"/>
	<path class="st0" d="M4.5,4.5h2.3v2.3H4.5V4.5z"/>
	<path class="st0" d="M9,4.5h2.3v2.3H9V4.5z"/>
	<path class="st0" d="M13.5,4.5h2.3v2.3h-2.3V4.5z"/>
</g>
</svg>
