<?xml version="1.0" encoding="utf-8"?>
<!-- Generator: Adobe Illustrator 23.0.3, SVG Export Plug-In . SVG Version: 6.00 Build 0)  -->
<svg version="1.1" id="Capa_1" xmlns="http://www.w3.org/2000/svg" xmlns:xlink="http://www.w3.org/1999/xlink" x="0px" y="0px"
	 viewBox="0 0 55.4 70" style="enable-background:new 0 0 55.4 70;" xml:space="preserve">
<style type="text/css">
	.st0{fill:#FF4F7B;}
</style>
<g>
	<g>
		<g>
			<path class="st0" d="M18.4,32c0-0.6,0.6-1,1.6-1c1.2,0,1.5,0.5,2,0.5c0.5,0,0.7-0.6,0.7-0.9c0-0.9-1.9-1-2.7-1
				c-1.6,0-3.4,0.7-3.4,2.6c0,3.1,4.6,2.5,4.6,4.4c0,0.8-0.7,1.1-1.6,1.1c-1.4,0-1.8-1-2.4-1c-0.4,0-0.8,0.5-0.8,0.9
				c0,0.8,1.4,1.6,3.3,1.6c2,0,3.4-1,3.4-2.8C23,33,18.4,33.6,18.4,32z"/>
		</g>
	</g>
	<g>
		<g>
			<path class="st0" d="M25.8,32c0-0.6,0.6-1,1.6-1c1.2,0,1.5,0.5,2,0.5c0.5,0,0.7-0.6,0.7-0.9c0-0.9-1.9-1-2.7-1
				c-1.6,0-3.4,0.7-3.4,2.6c0,3.1,4.6,2.5,4.6,4.4c0,0.8-0.7,1.1-1.6,1.1c-1.4,0-1.8-1-2.4-1c-0.4,0-0.8,0.5-0.8,0.9
				c0,0.8,1.4,1.6,3.3,1.6c2,0,3.4-1,3.4-2.8C30.4,33,25.8,33.6,25.8,32z"/>
		</g>
	</g>
	<g>
		<g>
			<path class="st0" d="M35,29.6h-2.5c-0.5,0-0.8,0.2-0.8,0.5v8.5c0,0.3,0.3,0.5,0.8,0.5H35c1.9,0,3.3-0.8,3.3-3v-3.6
				C38.3,30.4,36.8,29.6,35,29.6z M36.5,36.1c0,1-0.6,1.5-1.5,1.5h-1.5v-6.5H35c0.9,0,1.5,0.5,1.5,1.5V36.1z"/>
		</g>
	</g>
	<g>
		<g>
			<path class="st0" d="M54.4,20.8c-0.6,0-1,0.5-1,1v43.3c0,1.5-1.3,2.8-2.8,2.8H4.9c-1.5,0-2.8-1.3-2.8-2.8V51.5c0-0.6-0.5-1-1-1
				c-0.6,0-1,0.5-1,1v13.7C0,67.8,2.2,70,4.9,70h45.7c2.7,0,4.9-2.2,4.9-4.9V21.8C55.4,21.3,55,20.8,54.4,20.8z"/>
		</g>
	</g>
	<g>
		<g>
			<path class="st0" d="M50.6,0H4.9C2.2,0,0,2.2,0,4.9V46c0,0.6,0.5,1,1,1c0.6,0,1-0.5,1-1V4.9c0-1.5,1.3-2.8,2.8-2.8h45.7
				c1.5,0,2.8,1.3,2.8,2.8v11.5c0,0.6,0.5,1,1,1c0.6,0,1-0.5,1-1V4.9C55.4,2.2,53.3,0,50.6,0z"/>
		</g>
	</g>
	<g>
		<g>
			<path class="st0" d="M42,15h-1.3v-3c0-0.6-0.5-1-1-1c-0.6,0-1,0.5-1,1v3h-3.9v-3c0-0.6-0.5-1-1-1c-0.6,0-1,0.5-1,1v3h-3.9v-3
				c0-0.6-0.5-1-1-1c-0.6,0-1,0.5-1,1v3h-3.9v-3c0-0.6-0.5-1-1-1c-0.6,0-1,0.5-1,1v3h-3.9v-3c0-0.6-0.5-1-1-1s-1,0.5-1,1v3h-1.3
				c-1.5,0-2.7,1.2-2.7,2.7v34.5c0,1.5,1.2,2.7,2.7,2.7h1.3v3c0,0.6,0.5,1,1,1s1-0.5,1-1v-3h3.9v3c0,0.6,0.5,1,1,1c0.6,0,1-0.5,1-1
				v-3h3.9v3c0,0.6,0.5,1,1,1c0.6,0,1-0.5,1-1v-3h3.9v3c0,0.6,0.5,1,1,1c0.6,0,1-0.5,1-1v-3h3.9v3c0,0.6,0.5,1,1,1c0.6,0,1-0.5,1-1
				v-3H42c1.5,0,2.7-1.2,2.7-2.7V17.7C44.7,16.3,43.4,15,42,15z M42.6,52.3c0,0.4-0.3,0.6-0.6,0.6H13.5c-0.4,0-0.6-0.3-0.6-0.6V17.7
				c0-0.4,0.3-0.6,0.6-0.6H42c0.4,0,0.6,0.3,0.6,0.6L42.6,52.3L42.6,52.3z"/>
		</g>
	</g>
	<g>
		<g>
			<path class="st0" d="M8.4,4.7c-2.1,0-3.8,1.7-3.8,3.8s1.7,3.8,3.8,3.8s3.8-1.7,3.8-3.8S10.5,4.7,8.4,4.7z M8.4,10.2
				c-1,0-1.8-0.8-1.8-1.8s0.8-1.8,1.8-1.8c1,0,1.8,0.8,1.8,1.8C10.2,9.4,9.4,10.2,8.4,10.2z"/>
		</g>
	</g>
	<g>
		<g>
			<path class="st0" d="M47.1,4.7c-2.1,0-3.8,1.7-3.8,3.8s1.7,3.8,3.8,3.8c2.1,0,3.8-1.7,3.8-3.8S49.2,4.7,47.1,4.7z M47.1,10.2
				c-1,0-1.8-0.8-1.8-1.8s0.8-1.8,1.8-1.8c1,0,1.8,0.8,1.8,1.8C48.8,9.4,48,10.2,47.1,10.2z"/>
		</g>
	</g>
	<g>
		<g>
			<path class="st0" d="M8.4,57.7c-2.1,0-3.8,1.7-3.8,3.8c0,2.1,1.7,3.8,3.8,3.8c2.1,0,3.8-1.7,3.8-3.8
				C12.2,59.4,10.5,57.7,8.4,57.7z M8.4,63.3c-1,0-1.8-0.8-1.8-1.8c0-1,0.8-1.8,1.8-1.8c1,0,1.8,0.8,1.8,1.8
				C10.2,62.5,9.4,63.3,8.4,63.3z"/>
		</g>
	</g>
	<g>
		<g>
			<path class="st0" d="M47.1,57.7c-2.1,0-3.8,1.7-3.8,3.8c0,2.1,1.7,3.8,3.8,3.8c2.1,0,3.8-1.7,3.8-3.8
				C50.9,59.4,49.2,57.7,47.1,57.7z M47.1,63.3c-1,0-1.8-0.8-1.8-1.8c0-1,0.8-1.8,1.8-1.8c1,0,1.8,0.8,1.8,1.8
				C48.8,62.5,48,63.3,47.1,63.3z"/>
		</g>
	</g>
</g>
</svg>
