<?xml version="1.0" encoding="utf-8"?>
<!-- Generator: Adobe Illustrator 23.0.3, SVG Export Plug-In . SVG Version: 6.00 Build 0)  -->
<svg version="1.1" id="Layer_1" xmlns="http://www.w3.org/2000/svg" xmlns:xlink="http://www.w3.org/1999/xlink" x="0px" y="0px"
	 viewBox="0 0 77 77" style="enable-background:new 0 0 77 77;" xml:space="preserve">
<path class="st0" d="M27.1,36.8c-0.7,0-1.3,0.6-1.3,1.3V44c0,0.7,0.6,1.3,1.3,1.3s1.3-0.6,1.3-1.3v-5.9
	C28.3,37.4,27.8,36.8,27.1,36.8z"/>
<path class="st0" d="M22.3,36.8c-0.7,0-1.3,0.6-1.3,1.3V44c0,0.7,0.6,1.3,1.3,1.3c0.7,0,1.3-0.6,1.3-1.3v-5.9
	C23.6,37.4,23,36.8,22.3,36.8z"/>
<path class="st0" d="M17.5,36.8c-0.7,0-1.3,0.6-1.3,1.3V44c0,0.7,0.6,1.3,1.3,1.3c0.7,0,1.3-0.6,1.3-1.3v-5.9
	C18.8,37.4,18.2,36.8,17.5,36.8z"/>
<path class="st0" d="M12.7,36.8c-0.7,0-1.3,0.6-1.3,1.3V44c0,0.7,0.6,1.3,1.3,1.3S14,44.7,14,44v-5.9C14,37.4,13.4,36.8,12.7,36.8z"
	/>
<path class="st0" d="M60.3,22.3c0-0.7-0.6-1.3-1.3-1.3H36.6c-0.7,0-1.3,0.6-1.3,1.3v5.9c0,0.7,0.6,1.3,1.3,1.3H59
	c0.7,0,1.3-0.6,1.3-1.3V22.3z M57.8,26.9H37.9v-3.3h19.9V26.9z"/>
<path class="st0" d="M27.1,20.9c-0.7,0-1.3,0.6-1.3,1.3v5.9c0,0.7,0.6,1.3,1.3,1.3s1.3-0.6,1.3-1.3v-5.9
	C28.3,21.5,27.8,20.9,27.1,20.9z"/>
<path class="st0" d="M22.3,20.9c-0.7,0-1.3,0.6-1.3,1.3v5.9c0,0.7,0.6,1.3,1.3,1.3c0.7,0,1.3-0.6,1.3-1.3v-5.9
	C23.6,21.5,23,20.9,22.3,20.9z"/>
<path class="st0" d="M17.5,20.9c-0.7,0-1.3,0.6-1.3,1.3v5.9c0,0.7,0.6,1.3,1.3,1.3c0.7,0,1.3-0.6,1.3-1.3v-5.9
	C18.8,21.5,18.2,20.9,17.5,20.9z"/>
<path class="st0" d="M12.7,20.9c-0.7,0-1.3,0.6-1.3,1.3v5.9c0,0.7,0.6,1.3,1.3,1.3s1.3-0.6,1.3-1.3v-5.9
	C14,21.5,13.4,20.9,12.7,20.9z"/>
<path class="st0" d="M27.1,52.7c-0.7,0-1.3,0.6-1.3,1.3v5.9c0,0.7,0.6,1.3,1.3,1.3s1.3-0.6,1.3-1.3V54
	C28.3,53.3,27.8,52.7,27.1,52.7z"/>
<path class="st0" d="M22.3,52.7c-0.7,0-1.3,0.6-1.3,1.3v5.9c0,0.7,0.6,1.3,1.3,1.3c0.7,0,1.3-0.6,1.3-1.3V54
	C23.6,53.3,23,52.7,22.3,52.7z"/>
<path class="st0" d="M17.5,52.7c-0.7,0-1.3,0.6-1.3,1.3v5.9c0,0.7,0.6,1.3,1.3,1.3c0.7,0,1.3-0.6,1.3-1.3V54
	C18.8,53.3,18.2,52.7,17.5,52.7z"/>
<path class="st0" d="M12.7,52.7c-0.7,0-1.3,0.6-1.3,1.3v5.9c0,0.7,0.6,1.3,1.3,1.3s1.3-0.6,1.3-1.3V54C14,53.3,13.4,52.7,12.7,52.7z
	"/>
<path class="st0" d="M60.3,6.4c0-0.7-0.6-1.3-1.3-1.3H36.6c-0.7,0-1.3,0.6-1.3,1.3v5.9c0,0.7,0.6,1.3,1.3,1.3H59
	c0.7,0,1.3-0.6,1.3-1.3V6.4z M57.8,11H37.9V7.6h19.9V11z"/>
<path class="st0" d="M27.1,5c-0.7,0-1.3,0.6-1.3,1.3v5.9c0,0.7,0.6,1.3,1.3,1.3s1.3-0.6,1.3-1.3V6.3C28.3,5.6,27.8,5,27.1,5z"/>
<path class="st0" d="M22.3,5C21.6,5,21,5.6,21,6.3v5.9c0,0.7,0.6,1.3,1.3,1.3c0.7,0,1.3-0.6,1.3-1.3V6.3C23.6,5.6,23,5,22.3,5z"/>
<path class="st0" d="M17.5,5c-0.7,0-1.3,0.6-1.3,1.3v5.9c0,0.7,0.6,1.3,1.3,1.3c0.7,0,1.3-0.6,1.3-1.3V6.3C18.8,5.6,18.2,5,17.5,5z"
	/>
<path class="st0" d="M12.7,5c-0.7,0-1.3,0.6-1.3,1.3v5.9c0,0.7,0.6,1.3,1.3,1.3s1.3-0.6,1.3-1.3V6.3C14,5.6,13.4,5,12.7,5z"/>
<path class="st0" d="M66.3,56.3h-0.6v-1.4c0-1.7-0.7-3.4-1.9-4.6c-1.2-1.2-2.8-1.9-4.5-1.8c-3.6,0-6.4,2.9-6.4,6.4v1.4h-0.6
	c-0.7,0-1.3,0.6-1.3,1.3v11.2c0,0.7,0.6,1.3,1.3,1.3h14.1c0.7,0,1.3-0.6,1.3-1.3V57.6C67.6,56.9,67,56.3,66.3,56.3z M55.4,54.9
	c0-2.1,1.7-3.9,3.9-3.9c1,0,2,0.4,2.7,1.1c0.8,0.7,1.2,1.7,1.2,2.8v1.4h-7.8V54.9z M65.1,67.6H53.5v-8.7h11.6V67.6z"/>
<path class="st0" d="M59.2,66c0.7,0,1.3-0.6,1.3-1.3v-1.7c0-0.7-0.6-1.3-1.3-1.3s-1.3,0.6-1.3,1.3v1.7C57.9,65.5,58.5,66,59.2,66
	L59.2,66z"/>
<path class="st0" d="M66.2,43v-6.7c0-1.2-0.5-2.3-1.3-3.2c0.9-0.8,1.3-2,1.3-3.2v-9.5c0-1.2-0.5-2.3-1.3-3.2c0.9-0.8,1.3-2,1.3-3.2
	V4.5c0-2.5-2-4.5-4.5-4.5H4.5C2,0,0,2,0,4.5V14c0,1.2,0.5,2.3,1.3,3.2C0.5,18,0,19.2,0,20.4v9.5c0,1.2,0.5,2.3,1.3,3.2
	c-0.9,0.8-1.3,2-1.3,3.2v9.5C0,47,0.5,48.2,1.4,49C0.5,49.8,0,51,0,52.2v9.5c0,2.5,2,4.5,4.5,4.5H43c3.8,9,14.2,13.2,23.2,9.4
	c9-3.8,13.2-14.2,9.4-23.2C73.8,48.1,70.4,44.8,66.2,43z M2.6,14V4.5c0-1.1,0.9-1.9,1.9-1.9h57.3c1.1,0,1.9,0.9,1.9,1.9V14
	c0,1.1-0.9,1.9-1.9,1.9H4.5C3.4,15.9,2.6,15.1,2.6,14z M2.6,29.9v-9.5c0-1.1,0.9-1.9,1.9-1.9h57.3c1.1,0,1.9,0.9,1.9,1.9v9.5
	c0,1.1-0.9,1.9-1.9,1.9H4.5C3.4,31.8,2.6,31,2.6,29.9z M2.6,45.8v-9.5c0-1.1,0.9-1.9,1.9-1.9h57.3c1.1,0,1.9,0.9,1.9,1.9v5.8
	c-1.1-0.3-2.2-0.4-3.3-0.5v-3.5c0-0.7-0.6-1.2-1.3-1.2H36.6c-0.7,0-1.3,0.5-1.3,1.2V44c0,0.7,0.6,1.4,1.3,1.4h11.9
	c-1,0.7-1.8,1.5-2.6,2.4H4.5C3.4,47.7,2.6,46.9,2.6,45.8z M53,42.8H37.9v-3.3h19.9v2.2C56.1,41.8,54.5,42.2,53,42.8z M4.5,63.6
	c-1.1,0-1.9-0.9-1.9-1.9v-9.5c0-1.1,0.9-1.9,1.9-1.9H44c-0.5,0.8-0.9,1.7-1.2,2.5h-6.2c-0.7,0-1.3,0.5-1.3,1.2v5.9
	c0,0.7,0.6,1.4,1.3,1.4h5.1c0.1,0.8,0.2,1.6,0.4,2.4H4.5z M37.9,58.7v-3.3H42c-0.3,1.1-0.4,2.2-0.4,3.3H37.9z M59.3,74.5
	c-6.3,0-11.9-3.9-14.2-9.7c0-0.2-0.1-0.3-0.2-0.5c-2.7-7.9,1.4-16.6,9.4-19.3c7.9-2.7,16.6,1.4,19.3,9.4c2.7,7.9-1.4,16.6-9.4,19.3
	C62.7,74.2,61,74.5,59.3,74.5z"/>
</svg>
