<?xml version="1.0" encoding="utf-8"?>
<!-- Generator: Adobe Illustrator 23.0.3, SVG Export Plug-In . SVG Version: 6.00 Build 0)  -->
<svg version="1.1" id="Layer_1" xmlns="http://www.w3.org/2000/svg" xmlns:xlink="http://www.w3.org/1999/xlink" x="0px" y="0px"
	 viewBox="0 0 76 76" style="enable-background:new 0 0 76 76;" xml:space="preserve">
<path class="st0" d="M64.9,54.4h-0.6V53c0-1.8-0.7-3.5-2-4.8c-1.3-1.2-2.9-1.9-4.7-1.9c-3.7,0-6.7,3-6.7,6.7v1.5h-0.6
	c-0.7,0-1.3,0.6-1.4,1.3v11.7c0,0.7,0.6,1.3,1.4,1.3H65c0.7,0,1.4-0.5,1.4-1.3V55.8C66.2,55,65.6,54.4,64.9,54.4z M53.5,53
	c0-2.2,1.8-4.1,4.1-4.1c1.1,0,2.1,0.4,2.8,1.1c0.8,0.8,1.2,1.8,1.2,2.9v1.5h-8.1V53z M63.6,66.1H51.5v-9h12.1V66.1z"/>
<path class="st0" d="M57.4,64.6c0.7,0,1.3-0.6,1.3-1.3v-1.7c0-0.7-0.6-1.3-1.3-1.3c-0.7,0-1.3,0.6-1.3,1.3v1.7
	C56.1,64,56.7,64.6,57.4,64.6z"/>
<path class="st0" d="M66.1,41.1c0.6-2.5,0.9-5.1,0.9-7.6C67,15,52,0,33.5,0S0,15,0,33.5S15,67,33.5,67c2.6,0,5.1-0.3,7.6-0.9
	c4.7,9,15.9,12.5,25,7.8c9-4.7,12.5-15.9,7.8-25C72.1,45.6,69.4,42.9,66.1,41.1z M57.5,39c-1.6,0-3.2,0.2-4.7,0.6
	c0.2-1.6,0.3-3.2,0.4-4.8h11.1c-0.1,1.8-0.3,3.5-0.7,5.2C61.7,39.4,59.6,39,57.5,39L57.5,39z M9.4,52.7c-4-5.1-6.4-11.3-6.7-17.8
	h11.1c0.1,4.3,0.8,8.5,2.1,12.5C13.5,48.9,11.3,50.6,9.4,52.7z M15.9,19.6c-1.3,4.1-2,8.3-2.1,12.6H2.7C3,25.7,5.3,19.4,9.4,14.4
	C11.3,16.4,13.5,18.2,15.9,19.6z M57.6,14.4c4.1,5.1,6.4,11.3,6.7,17.8H53.2c-0.1-4.3-0.8-8.5-2-12.5C53.5,18.2,55.7,16.4,57.6,14.4
	z M50.5,32.2H34.8v-7.6c4.8-0.2,9.6-1.4,13.9-3.6C49.8,24.6,50.4,28.4,50.5,32.2z M34.9,21.9V3.1c6,3.2,10.4,8.6,13.1,15.4
	C43.9,20.6,39.4,21.8,34.9,21.9z M32.2,21.9c-4.6-0.2-9-1.4-13-3.5c2.6-6.8,7.1-12.1,13-15.3V21.9z M32.2,24.6v7.6H16.5
	c0.1-3.8,0.7-7.6,1.8-11.2C22.6,23.2,27.3,24.4,32.2,24.6z M16.5,34.9h15.7v7.6c-4.9,0.2-9.6,1.4-13.9,3.6
	C17.2,42.4,16.6,38.7,16.5,34.9z M32.2,45.1v18.8c-6-3.2-10.4-8.5-13-15.3C23.2,46.5,27.6,45.3,32.2,45.1z M39,57.5
	c0,1.1,0.1,2.2,0.3,3.3c-1.4,1.1-2.9,2.2-4.5,3V45c2.7,0.1,5.3,0.6,7.9,1.3C40.3,49.6,39,53.5,39,57.5L39,57.5z M44.6,44.2
	c-3.1-1.1-6.4-1.7-9.8-1.8v-7.6h15.6c0,1.9-0.2,3.9-0.5,5.8C48,41.5,46.2,42.7,44.6,44.2L44.6,44.2z M55.9,12.3
	c-1.7,1.8-3.6,3.4-5.7,4.8C48,11.5,44.6,6.8,40.1,3.4C46.2,4.7,51.7,7.8,55.9,12.3z M26.9,3.4c-4.4,3.4-7.8,8.1-10,13.7
	c-2.1-1.3-4-2.9-5.7-4.7C15.3,7.8,20.8,4.7,26.9,3.4z M11.1,54.7c1.7-1.8,3.6-3.4,5.7-4.7c2.2,5.6,5.6,10.2,10,13.7
	C20.8,62.3,15.3,59.2,11.1,54.7z M57.5,73.3c-8.7,0-15.8-7.1-15.8-15.8c0-8.7,7.1-15.8,15.8-15.8c8.7,0,15.8,7.1,15.8,15.8l0,0
	C73.3,66.3,66.3,73.3,57.5,73.3L57.5,73.3z"/>
</svg>
