<?xml version="1.0" encoding="utf-8"?>
<!-- Generator: Adobe Illustrator 23.0.3, SVG Export Plug-In . SVG Version: 6.00 Build 0)  -->
<svg version="1.1" id="Layer_1" xmlns="http://www.w3.org/2000/svg" xmlns:xlink="http://www.w3.org/1999/xlink" x="0px" y="0px"
	 viewBox="0 0 80 67.5" style="enable-background:new 0 0 80 67.5;" xml:space="preserve">
<title>Web Password</title>
<path class="st0" d="M73.3,0H6.7C3,0,0,3,0,6.9v53.7c0,3.8,3,6.9,6.7,6.9h66.6c3.7,0,6.7-3,6.7-6.9V17.9c0,0,0,0,0,0c0,0,0,0,0,0
	v-11C80,3,77,0,73.3,0z M77.3,60.6c0,2.3-1.8,4.2-4,4.2H6.7c-2.2,0-4-1.8-4-4.2V19.2h74.6V60.6z M77.3,16.4H2.7V6.9
	c0-2.3,1.8-4.2,4-4.2h66.6c2.2,0,4,1.8,4,4.2V16.4z"/>
<path class="st0" d="M20.9,4.6c-2.7,0-4.9,2.3-4.9,5.1s2.2,5.1,4.9,5.1c2.7,0,4.9-2.3,4.9-5.1S23.6,4.6,20.9,4.6z M20.9,12
	c-1.2,0-2.2-1.1-2.2-2.4s1-2.4,2.2-2.4c1.2,0,2.2,1.1,2.2,2.4S22.1,12,20.9,12z"/>
<path class="st0" d="M32.4,4.6c-2.7,0-4.9,2.3-4.9,5.1s2.2,5.1,4.9,5.1c2.7,0,4.9-2.3,4.9-5.1S35.2,4.6,32.4,4.6z M32.4,12
	c-1.2,0-2.2-1.1-2.2-2.4s1-2.4,2.2-2.4c1.2,0,2.2,1.1,2.2,2.4S33.7,12,32.4,12z"/>
<path class="st0" d="M9.4,4.6c-2.7,0-4.9,2.3-4.9,5.1s2.2,5.1,4.9,5.1c2.7,0,4.9-2.3,4.9-5.1S12.1,4.6,9.4,4.6z M9.4,12
	C8.1,12,7.2,11,7.2,9.7s1-2.4,2.2-2.4c1.2,0,2.2,1.1,2.2,2.4S10.6,12,9.4,12z"/>
<path class="st0" d="M32.5,54.1C32.5,54.1,32.5,54.1,32.5,54.1l15,0c0.7,0,1.3-0.6,1.3-1.3c0,0,0,0,0,0V40.8c0-0.7-0.6-1.3-1.3-1.3
	h-0.7v-1.6c0-1.8-0.7-3.6-2-4.9c-1.2-1.3-2.9-2-4.7-2h0c-3.8,0-6.8,3.1-6.8,6.9c0,0,0,0,0,0v1.6h-0.7c-0.7,0-1.3,0.5-1.3,1.3v11.9
	C31.2,53.4,31.8,54.1,32.5,54.1z M35.9,37.9c0-2.3,1.8-4.1,4.1-4.2c0,0,0,0,0,0h0c1.1,0,2.1,0.4,2.8,1.2c0.8,0.8,1.2,1.9,1.2,3v1.6
	h-8.1V37.9z M33.9,42.2h12.2v9.2H33.9V42.2z"/>
<path class="st0" d="M39.8,45.3c-0.7,0-1.4,0.6-1.4,1.4v1.8c0,0.7,0.6,1.4,1.4,1.4s1.4-0.6,1.4-1.4v-1.8
	C41.2,45.9,40.6,45.3,39.8,45.3z"/>
<path class="st0" d="M40,61.4c10.4,0,18.9-8.5,18.9-18.9c0-10.4-8.5-18.9-18.9-18.9c-10.4,0-18.9,8.5-18.9,18.9
	C21.1,53,29.6,61.4,40,61.4z M40,26.4c8.9,0,16.2,7.2,16.2,16.2c0,8.9-7.2,16.2-16.2,16.2c-8.9,0-16.2-7.2-16.2-16.2
	C23.8,33.6,31.1,26.4,40,26.4z"/>
</svg>
