<?xml version="1.0" encoding="utf-8"?>
<!-- Generator: Adobe Illustrator 23.0.2, SVG Export Plug-In . SVG Version: 6.00 Build 0)  -->
<svg version="1.1" id="Capa_1" xmlns="http://www.w3.org/2000/svg" xmlns:xlink="http://www.w3.org/1999/xlink" x="0px" y="0px"
	 viewBox="-49 141 512 512" style="enable-background:new -49 141 512 512;" xml:space="preserve">
	 <style xmlns="http://www.w3.org/2000/svg" type="text/css">


.dedicated_globe {
    animation-name: dedicatedGlobe;
    animation-duration: 2.8s;
    animation-iteration-count: infinite;
    transform-origin: 50% 50%;
}

@keyframes dedicatedGlobe {
	0% {transform: translate(0, 0);}
	50% {transform: translate(0, -18px);}
}

.dedicated-dots {
	animation-name: dedicated-dot1;
    animation-duration: 2s;
    animation-iteration-count: infinite;
}

@keyframes dedicated-dot1 {
	0% {opacity: 1;}
	50% {opacity: 0.3;}
	100% {opacity: 1;}
}

.dedicated-dots-sec {
	animation-name: dedicated-dot2;
    animation-duration: 2.1s;
    animation-iteration-count: infinite;
}

@keyframes dedicated-dot2 {
	0% {opacity: 1;}
	50% {opacity: 0.3;}
	100% {opacity: 1;}
}

.dedicated-dots-third {
	animation-name: dedicated-dot3;
    animation-duration: 2.2s;
    animation-iteration-count: infinite;
}

@keyframes dedicated-dot3 {
	0% {opacity: 1;}
	50% {opacity: 0.3;}
	100% {opacity: 1;}
}





	 </style>



<style type="text/css">
	.st0{fill:#E9DB00;}
	.st1{fill:#076D4D;}
</style>


<circle class="st0 dedicated_globe" cx="207" cy="381" r="96"/>

<rect x="-1" y="509" class="st0" width="80" height="128"/>
<rect x="335" y="509" class="st0" width="80" height="128"/>


<rect x="-9" y="469" class="st1 dedicated-dots" width="16" height="16"/>
<rect x="31" y="469" class="st1 dedicated-dots-sec" width="16" height="16"/>
<rect x="71" y="469" class="st1 dedicated-dots-third" width="16" height="16"/>
<rect x="327" y="469" class="st1 dedicated-dots" width="16" height="16"/>
<rect x="367" y="469" class="st1 dedicated-dots-sec" width="16" height="16"/>
<rect x="407" y="469" class="st1 dedicated-dots-third" width="16" height="16"/>


<path class="st1 dedicated_globe" d="M335,381c0-70.58-57.42-128-128-128S79,310.42,79,381s57.42,128,128,128S335,451.58,335,381z M215,486.19
	v-40.86c11.05,0.9,21.05,3.58,29.78,6.96C235.07,468.78,223.47,479.68,215,486.19z M215,429.32V389h47.65
	c-0.93,19.25-5,35.42-10.73,48.84C241.29,433.6,228.9,430.27,215,429.32z M215,373v-40.32c13.9-0.95,26.29-4.28,36.93-8.52
	c5.72,13.42,9.8,29.59,10.73,48.84H215L215,373z M215,316.67v-40.86c8.48,6.52,20.09,17.43,29.8,33.95
	C236.08,313.12,226.08,315.78,215,316.67z M235.98,272.94c14.49,3.89,27.81,10.59,39.36,19.53c-3.75,2.94-9.18,6.75-16.04,10.53
	C252.02,290.32,243.71,280.43,235.98,272.94z M199,275.81v40.87c-11.05-0.9-21.06-3.58-29.78-6.96
	C178.93,293.22,190.53,282.32,199,275.81z M154.72,302.95c-6.84-3.77-12.28-7.58-16.04-10.5c11.54-8.93,24.86-15.62,39.34-19.51
	C170.3,280.42,162.01,290.3,154.72,302.95z M199,332.68V373h-47.65c0.93-19.25,5-35.42,10.73-48.84
	C172.71,328.4,185.1,331.73,199,332.68z M199,389v40.32c-13.9,0.95-26.29,4.28-36.93,8.52c-5.72-13.42-9.8-29.59-10.73-48.84H199z
	 M199,445.33v40.86c-8.48-6.52-20.09-17.43-29.8-33.94C177.92,448.88,187.92,446.22,199,445.33z M178.02,489.06
	c-14.49-3.89-27.81-10.59-39.36-19.53c3.75-2.94,9.18-6.75,16.03-10.53C161.98,471.68,170.29,481.57,178.02,489.06z M259.28,459.06
	c6.84,3.77,12.28,7.57,16.04,10.5c-11.54,8.93-24.86,15.62-39.34,19.51C243.7,481.58,251.99,471.7,259.28,459.06z M266.44,444.64
	c6.59-15.27,11.26-33.7,12.21-55.64h39.95c-1.92,27.01-13.4,51.38-31.14,69.73C283.03,455.07,275.9,449.79,266.44,444.64z
	 M318.59,373h-39.95c-0.95-21.94-5.62-40.36-12.21-55.64c9.46-5.15,16.6-10.43,21.02-14.1C305.2,321.62,316.67,345.99,318.59,373z
	 M126.54,303.26c4.42,3.66,11.56,8.94,21.02,14.1c-6.59,15.27-11.26,33.7-12.21,55.64H95.41
	C97.33,345.99,108.8,321.62,126.54,303.26z M95.41,389h39.95c0.95,21.94,5.62,40.36,12.21,55.64c-9.46,5.15-16.6,10.43-21.02,14.1
	C108.8,440.38,97.33,416.01,95.41,389z"/>


<path class="st1" d="M103,621c0,4.42-3.58,8-8,8h-8V501H-9v128h-8c-4.42,0-8-3.58-8-8V397c0-4.41,3.58-8,8-8h80v-16h-80
	c-13.23,0-24,10.77-24,24v224c0,13.23,10.77,24,24,24H95c13.23,0,24-10.77,24-24V493h-16V621z M7,517h64v112H7V517z"/>

<polygon class="st1" points="63,421 63,405 -9,405 -9,453 79,453 79,437 7,437 7,421 "/>
<rect x="23" y="533" class="st1" width="32" height="16"/>
<rect x="23" y="565" class="st1" width="32" height="16"/>
<rect x="23" y="597" class="st1" width="32" height="16"/>


<path class="st1" d="M431,373h-80v16h80c4.42,0,8,3.59,8,8v224c0,4.42-3.58,8-8,8h-8V501h-96v128h-8c-4.42,0-8-3.58-8-8V493h-16v128
	c0,13.23,10.77,24,24,24h112c13.23,0,24-10.77,24-24V397C455,383.77,444.23,373,431,373z M343,517h64v112h-64V517z"/>

<polygon class="st1" points="335,437 335,453 423,453 423,405 351,405 351,421 407,421 407,437 "/>
<rect x="359" y="533" class="st1" width="32" height="16"/>
<rect x="359" y="565" class="st1" width="32" height="16"/>
<rect x="359" y="597" class="st1" width="32" height="16"/>


<path class="st1" d="M67.99,351.72l6.02-14.83C52.74,328.27,39,307.9,39,285c0-30.88,25.13-56,56-56c5.24,0,10.52,0.77,15.7,2.27
	l7.69,2.24l2.23-7.69C125.55,208.86,141.34,197,159,197c6.38,0,12.5,1.49,18.22,4.43l7.43,3.82l3.5-7.59
	C197.28,177.82,217.24,165,239,165c30.87,0,56,25.12,55.96,56.66l-0.42,11.89l10.37-2.69C341.77,221.3,375,249.54,375,285
	c0,22.9-13.74,43.27-35.01,51.89l6.02,14.83C373.34,340.65,391,314.46,391,285c0-42.46-37.17-76.74-80.38-71.48
	C306.86,177.32,276.18,149,239,149c-25.38,0-48.84,13.54-61.74,35.07C171.4,182.03,165.29,181,159,181
	c-22.17,0-42.21,13.32-51.11,33.18C103.62,213.4,99.3,213,95,213c-39.7,0-72,32.3-72,72C23,314.46,40.66,340.65,67.99,351.72z"/>
</svg>

