<?xml version="1.0" encoding="utf-8"?>
<!-- Generator: Adobe Illustrator 23.0.2, SVG Export Plug-In . SVG Version: 6.00 Build 0)  -->
<svg version="1.1" id="Icon_Set" xmlns="http://www.w3.org/2000/svg" xmlns:xlink="http://www.w3.org/1999/xlink" x="0px" y="0px"
	 viewBox="0 0 86.61 115.45" style="enable-background:new 0 0 86.61 115.45;" xml:space="preserve">
	 <style xmlns="http://www.w3.org/2000/svg" type="text/css">



.dollar_icon {
	animation-name: dollarIcon;
    animation-iteration-count: infinite;
    transform-origin: 50% 50%;
    animation-duration: 5s;
}

@keyframes dollarIcon {
	0% {transform: scale(0.80);}
	50% { transform: scale(1.2);}
	100% {transform: scale(0.80);}
}




	 </style>





<style type="text/css">
	.st0{fill:#076D4D;}
	.st1{fill:none;stroke:#076D4D;stroke-width:4;stroke-miterlimit:10;}
	.st2{fill:#E9DB00;stroke:#076D4D;stroke-width:4;stroke-miterlimit:10;}
</style>



<path class="st0 dollar_icon" d="M43.58,75.75c-0.99-0.06-1.87-0.27-2.58-0.45c-0.73-0.19-1.44-0.38-2.16-0.72l0.04-3.99
	c1.25,0.46,1.76,0.63,3.03,0.92c1.42,0.32,2.41,0.42,3.37,0.42c1.68,0,3.04-0.46,4.06-1.38c1.02-0.92,1.53-2.09,1.53-3.52
	c0-0.89-0.15-1.68-0.44-2.37c-0.3-0.69-0.7-1.25-1.21-1.67c-0.51-0.42-1.67-1.06-3.48-1.91l-2.55-1.19
	c-2.16-1.01-3.67-2.2-4.52-3.58c-0.86-1.38-1.28-3.04-1.28-4.98c0-2,0.63-3.74,1.89-5.22c1.26-1.48,2.53-2.11,4.31-2.64l0.02-3.62
	h4.12l-0.02,3.39c1.96,0.05,3.49,0.68,4.63,1.32l0,4.02c-0.58-0.42-1.45-0.82-2.63-1.21c-1.18-0.39-2.27-0.58-3.28-0.58
	c-1.47,0-2.62,0.42-3.46,1.25c-0.84,0.83-1.26,1.91-1.26,3.22c0,0.81,0.15,1.54,0.45,2.2c0.3,0.66,0.73,1.22,1.29,1.68
	c0.56,0.46,1.65,1.08,3.28,1.85l1.99,0.93c2.25,1.05,3.88,2.34,4.92,3.85c1.04,1.52,1.55,3.46,1.55,5.84c0,1.96-0.69,3.67-2.08,5.15
	c-1.39,1.47-2.87,2.29-5.33,2.71l-0.01,3.66h-4.16L43.58,75.75z"/>
<path class="st1" d="M75.01,87.85c7.48-5.58,9.58-13.51,9.6-20.64c0.02-8.2-2.83-16.14-7.72-22.72L61.56,23.87H46.28H31L15.67,44.49
	c-4.89,6.58-7.74,14.53-7.72,22.72c0.02,7.88,2.59,16.75,12.16,22.32"/>



<path class="st2" d="M62.42,17.71H30.14c-1.3,0-2.37,1.07-2.37,2.37v1.42c0,1.3,1.07,2.37,2.37,2.37h32.28
	c1.3,0,2.37-1.07,2.37-2.37v-1.42C64.79,18.78,63.72,17.71,62.42,17.71z"/>
<path class="st2" d="M56.91,4.07l-2.97,2.97l-1.31-1.31c-3.41-3.41-8.94-3.41-12.35,0l-1.31,1.31l-2.97-2.97
	c-2.76-2.76-7.24-2.76-10,0l-3.69,3.69l10.27,9.95h13.88h13.88L70.6,7.76l-3.68-3.69C64.15,1.31,59.67,1.31,56.91,4.07z"/>
<path class="st1" d="M33.09,105.47h5.35c5.11,0,10.1-1.53,14.32-4.4l3.91-2.65c0.64-0.44,0.87-1.32,0.44-1.97
	c-0.63-0.94-1.42-1.61-2.24-2.09c-1.91-1.12-4.25-1.02-6.24-0.05c-7.24,3.54-13.7,0.55-13.7,0.55c-2.35-1.47-4.59-2.61-6.72-3.48
	c-8.94-3.67-19.17-2.3-27.04,3.31l0,0"/>
<path class="st1" d="M1.17,113.49c0,0,12.1-2.35,33.26-1.14c5.58,0.32,11.15-0.93,16.09-3.54L82.7,91.83
	c0.7-0.37,0.89-1.28,0.4-1.91c-1.15-1.48-3.77-3.52-9.02-2.13c-0.6,0.16-1.17,0.38-1.74,0.62l-16.19,6.9"/>
</svg>
