<?xml version="1.0" encoding="utf-8"?>
<!-- Generator: Adobe Illustrator 23.0.2, SVG Export Plug-In . SVG Version: 6.00 Build 0)  -->
<svg version="1.1" id="Capa_1" xmlns="http://www.w3.org/2000/svg" xmlns:xlink="http://www.w3.org/1999/xlink" x="0px" y="0px"
	 viewBox="-49 141 512 512" style="enable-background:new -49 141 512 512;" xml:space="preserve">
	 <style xmlns="http://www.w3.org/2000/svg" type="text/css">


.reseller_circle {
	animation-name: resellerCircle-1;
    animation-duration: 3s;
    animation-iteration-count: infinite;
    animation-delay: 1s
}

@keyframes  resellerCircle-1 {
	0% {opacity: 1;}
	50% {opacity: 0.3;}
	100% {opacity: 1;}
}

.hostimg_server {
	animation-name: hostimgServer;
    animation-duration: 2.8s;
    animation-iteration-count: infinite;
    transform-origin: 50% 50%;
}

@keyframes hostimgServer {
	0% {transform: translate(0, 0);}
	50% {transform: translate(0, 20px);}
}


	 </style>



<style type="text/css">
	.st0{fill:#FFFFFF;}
	.st1{fill:#E9DB00;}
	.st2{fill:#076D4D;}
</style>


<path class="st0" d="M175,429H-17c-8.84,0-16,7.16-16,16v104h224V445C191,436.16,183.84,429,175,429z"/>


<path class="st0" d="M431,429H239c-8.84,0-16,7.16-16,16v104h224V445C447,436.16,439.84,429,431,429z"/>



<path class="st1 hostimg_server" d="M127,317h160c4.42,0,8,3.58,8,8v32c0,4.42-3.58,8-8,8H127c-4.42,0-8-3.58-8-8v-32
	C119,320.58,122.58,317,127,317z"/>
<path class="st1 hostimg_server" d="M127,237h160c4.42,0,8,3.58,8,8v32c0,4.42-3.58,8-8,8H127c-4.42,0-8-3.58-8-8v-32
	C119,240.58,122.58,237,127,237z"/>
<path class="st1 hostimg_server" d="M127,157h160c4.42,0,8,3.58,8,8v32c0,4.42-3.58,8-8,8H127c-4.42,0-8-3.58-8-8v-32
	C119,160.58,122.58,157,127,157z"/>


<path class="st1 reseller_circle" d="M375,405c-13.23,0-24-10.77-24-24s10.77-24,24-24s24,10.77,24,24S388.23,405,375,405z M375,373
	c-4.41,0-8,3.59-8,8s3.59,8,8,8s8-3.59,8-8S379.41,373,375,373z"/>
<path class="st1 reseller_circle" d="M431,373c-13.23,0-24-10.77-24-24s10.77-24,24-24s24,10.77,24,24S444.23,373,431,373z M431,341
	c-4.41,0-8,3.59-8,8s3.59,8,8,8s8-3.59,8-8S435.41,341,431,341z"/>

<path class="st1 reseller_circle" d="M39,405c-13.23,0-24-10.77-24-24s10.77-24,24-24s24,10.77,24,24S52.23,405,39,405z M39,373c-4.41,0-8,3.59-8,8
	s3.59,8,8,8s8-3.59,8-8S43.41,373,39,373z"/>
<path class="st1 reseller_circle" d="M-17,373c-13.23,0-24-10.77-24-24s10.77-24,24-24s24,10.77,24,24S-3.77,373-17,373z M-17,341
	c-4.41,0-8,3.59-8,8s3.59,8,8,8s8-3.59,8-8S-12.59,341-17,341z"/>



<path class="st2" d="M-41,589c0,13.23,10.77,24,24,24h40v16H-9v16h176v-16h-32v-16h40c13.23,0,24-10.77,24-24v-24H-41V589z M119,629
	H39v-16h80V629z M-25,581h208v8c0,4.41-3.59,8-8,8H-17c-4.41,0-8-3.59-8-8V581z"/>
<path class="st2" d="M175,421H-17c-13.23,0-24,10.77-24,24v104h16V445c0-4.41,3.59-8,8-8h192c4.41,0,8,3.59,8,8v104h16V445
	C199,431.77,188.23,421,175,421z"/>


<path class="st2" d="M215,589c0,13.23,10.77,24,24,24h40v16h-32v16h176v-16h-32v-16h40c13.23,0,24-10.77,24-24v-24H215V589z
	 M375,629h-80v-16h80V629z M231,581h208v8c0,4.41-3.59,8-8,8H239c-4.41,0-8-3.59-8-8V581z"/>

<path class="st2" d="M431,421H239c-13.23,0-24,10.77-24,24v104h16V445c0-4.41,3.59-8,8-8h192c4.41,0,8,3.59,8,8v104h16V445
	C455,431.77,444.23,421,431,421z"/>



<path class="st2 hostimg_server" d="M127,373h160c8.82,0,16-7.18,16-16v-32c0-8.82-7.18-16-16-16h-8v-16h8c8.82,0,16-7.18,16-16v-32
	c0-8.82-7.18-16-16-16h-8v-16h8c8.82,0,16-7.18,16-16v-32c0-8.82-7.18-16-16-16H127c-8.82,0-16,7.18-16,16v32c0,8.82,7.18,16,16,16
	h8v16h-8c-8.82,0-16,7.18-16,16v32c0,8.82,7.18,16,16,16h8v16h-8c-8.82,0-16,7.18-16,16v32C111,365.82,118.18,373,127,373z
	 M126.99,165L126.99,165H287v32H127L126.99,165z M151,213h112v16H151V213z M126.99,245L126.99,245H287v32H127L126.99,245z M151,293
	h112v16H151V293z M127,325h160v32H127V325L127,325z"/>

<path class="st2" d="M423,237v72h16v-72c0-22.06-17.94-40-40-40h-80v16h80C412.23,213,423,223.77,423,237z"/>
<path class="st2" d="M367,253v88h16v-88c0-13.23-10.77-24-24-24h-40v16h40C363.41,245,367,248.59,367,253z"/>


<path class="st2" d="M-9,237c0-13.23,10.77-24,24-24h80v-16H15c-22.06,0-40,17.94-40,40v72h16V237z"/>
<path class="st2" d="M31,253v88h16v-88c0-4.41,3.59-8,8-8h40v-16H55C41.77,229,31,239.77,31,253z"/>
</svg>
