<?xml version="1.0" encoding="utf-8"?>
<!-- Generator: Adobe Illustrator 23.0.2, SVG Export Plug-In . SVG Version: 6.00 Build 0)  -->
<svg version="1.1" id="Capa_1" xmlns="http://www.w3.org/2000/svg" xmlns:xlink="http://www.w3.org/1999/xlink" x="0px" y="0px"
	 viewBox="-49 141 512 512" style="enable-background:new -49 141 512 512;" xml:space="preserve">
	 <style xmlns="http://www.w3.org/2000/svg" type="text/css">

.shared_setting {
	animation-name: sharedSetting;
    animation-duration: 8s;
    animation-iteration-count: infinite;
    transform-origin: 40.5% 108.5%;
    animation-timing-function: linear;
}

@keyframes sharedSetting {
	0% {transform: rotate(0deg);}
	100% {transform: rotate(360deg);}
}



	 </style>




<style type="text/css">
	.st0{fill:#E9DB00;}
	.st1{fill:#076D4D;}
</style>



<rect x="95" y="237" class="st0" width="224" height="192"/>
<path class="st0 shared_setting" d="M231,645h-48v-20.18c-2.38-0.84-4.71-1.81-6.98-2.89l-14.27,14.26l-28.28-28.29l11.31-11.31l16.97,16.98
	l11.52-11.52l5.34,3.16c4.47,2.64,9.31,4.64,14.39,5.95l6,1.54V629h16v-16.3l6-1.54c5.08-1.31,9.92-3.31,14.39-5.95l5.34-3.16
	l11.52,11.52l11.31-11.32l-11.52-11.52l3.15-5.34c2.65-4.48,4.66-9.33,5.97-14.4l1.54-5.99H279v-16h-16.29l-1.54-6
	c-1.31-5.07-3.32-9.92-5.97-14.4l13.78-8.14c2.34,3.98,4.3,8.17,5.84,12.53H295v48h-20.18c-0.84,2.38-1.82,4.71-2.89,6.98
	l14.26,14.27l-33.94,33.94l-14.27-14.26c-2.27,1.08-4.6,2.05-6.98,2.89L231,645L231,645z"/>
<path class="st0 shared_setting" d="M145.02,593.53c-2.34-3.98-4.3-8.17-5.84-12.53H119v-48h20.18c0.84-2.38,1.82-4.71,2.89-6.98l-14.26-14.27
	l33.94-33.94l14.27,14.26c2.27-1.08,4.6-2.05,6.98-2.89V469h48v20.18c2.38,0.84,4.71,1.81,6.98,2.89l14.27-14.26l28.28,28.29
	l-11.31,11.31l-16.97-16.98l-11.52,11.52l-5.34-3.16c-4.47-2.64-9.31-4.64-14.39-5.95L215,501.3V485h-16v16.3l-6,1.54
	c-5.08,1.31-9.92,3.31-14.39,5.95l-5.34,3.16l-11.52-11.52l-11.31,11.32l11.52,11.52l-3.15,5.34c-2.65,4.48-4.66,9.33-5.97,14.4
	l-1.54,5.99H135v16h16.29l1.54,6c1.31,5.07,3.32,9.92,5.97,14.4L145.02,593.53z"/>


<rect x="279" y="261" class="st1" width="16" height="16"/>
<rect x="247" y="261" class="st1" width="16" height="16"/>
<rect x="119" y="261" class="st1" width="64" height="16"/>
<rect x="279" y="325" class="st1" width="16" height="16"/>
<rect x="247" y="325" class="st1" width="16" height="16"/>
<rect x="119" y="325" class="st1" width="64" height="16"/>
<rect x="279" y="389" class="st1" width="16" height="16"/>
<rect x="247" y="389" class="st1" width="16" height="16"/>
<rect x="119" y="389" class="st1" width="64" height="16"/>
<rect x="-41" y="533" class="st1" width="144" height="16"/>
<rect x="-41" y="565" class="st1" width="144" height="16"/>
<rect x="311" y="565" class="st1" width="144" height="16"/>
<rect x="311" y="533" class="st1" width="144" height="16"/>



<path class="st1" d="M231,453v-16h96V229H87v208h96v16h16v-16h16v16H231z M311,357H103v-48h208V357z M311,245v48H103v-48H311z
	 M103,373h208v48H103V373z"/>
<path class="st1" d="M207,525c-17.65,0-32,14.35-32,32s14.35,32,32,32s32-14.35,32-32S224.65,525,207,525z M207,573
	c-8.82,0-16-7.18-16-16s7.18-16,16-16s16,7.18,16,16S215.82,573,207,573z"/>


<path class="st1" d="M71,389v-16c-39.7,0-72-32.3-72-72s32.3-72,72-72c0.94,0,1.87,0.07,2.81,0.14l7.09,0.42l2.14-5.34
	C91.61,202.82,112.01,189,135,189c8.34,0,16.46,1.86,24.1,5.52l4.93,2.36l3.99-3.74C187.41,175,212.62,165,239,165
	c39.9,0,76.77,23.38,93.92,59.57l2.26,4.76L343,229c39.7,0,72,32.3,72,72s-32.3,72-72,72v16c48.52,0,88-39.48,88-88
	c0-47.85-38.38-86.9-85.98-87.98C324.34,173.97,283.3,149,239,149c-28.7,0-56.18,10.23-77.96,28.93C152.7,174.66,143.96,173,135,173
	c-27.64,0-52.36,15.52-64.47,40C22.22,213.26-17,252.63-17,301C-17,349.52,22.48,389,71,389z"/>
</svg>
