<?xml version="1.0" encoding="utf-8"?>
<!-- Generator: Adobe Illustrator 23.0.3, SVG Export Plug-In . SVG Version: 6.00 Build 0)  -->
<svg version="1.1" id="Layer_1" xmlns="http://www.w3.org/2000/svg" xmlns:xlink="http://www.w3.org/1999/xlink" x="0px" y="0px"
	 viewBox="0 0 152 27" style="enable-background:new 0 0 152 27;" xml:space="preserve">
<style type="text/css">
	.st0{fill:#00B2F2;}
	.st1{fill:#FCB100;}
</style>
<g>
	<path class="st0" d="M16.7,0.4h7.6v26.3h-7.6v-9.9H7.2v9.9H0v-19l7.2-7.2v10.1h9.4V0.4H16.7z M52.4,7.8c0.7,1.6,1,3.5,1,5.7
		c0,4.2-1.3,7.6-4,9.9c-2.7,2.4-5.9,3.6-9.6,3.6c-3.7,0-6.8-1.2-9.5-3.5c-2.7-2.4-4-5.7-4-10c0-4.2,1.3-7.5,4-9.9
		C33,1.2,36.2,0,39.9,0s6.5,0.9,8.5,2.7C50.4,4.4,51.8,6.1,52.4,7.8z M46.4,13.5c0-2.1-0.7-3.7-2-4.9s-2.9-1.7-4.7-1.7
		s-3.3,0.6-4.6,1.7s-2,2.8-2,4.9s0.7,3.7,2,4.8c1.3,1.2,2.9,1.8,4.7,1.8s3.3-0.6,4.6-1.7C45.7,17.2,46.4,15.6,46.4,13.5z M64.4,10.5
		c-0.8,0-1.5-0.1-2-0.4c-0.6-0.3-0.8-0.8-0.8-1.6c-0.1-0.5,0.1-0.8,0.4-1s0.6-0.3,1.1-0.3h9.6l6.9-6.8H63.3c-2.3,0-4.2,0.8-5.9,2.3
		s-2.5,3.4-2.5,5.6c0,2.5,0.8,4.6,2.5,6.2c1.7,1.7,3.8,2.5,6.4,2.5c1.3,0,1.9,0.5,1.9,1.5c0,0.5-0.1,0.9-0.4,1.2
		c-0.3,0.3-0.7,0.5-1.1,0.5l-9.6-0.1v6.6h4.1H65c2.2,0,4.1-0.8,5.7-2.5s2.4-3.6,2.4-5.8c0-2.3-0.8-4.2-2.4-5.7
		C68.9,11.3,66.9,10.5,64.4,10.5z M81.9,0.4l-6.8,6.8h6.5v19.5h7.2V7.2h2.4L98,0.4H81.9z M93.6,26.8h7.2V0.4l-7.2,7.2V26.8z"/>
	<path class="st1" d="M129.4,0.4h-9.2l-10.5,10.4V0.4l-7.2,7.2v19.1h7.2v-6.3l3.5-3.5l9.8,9.7v-9.2l-5.3-5.3L129.4,0.4z M152,13.5
		c0,4.2-1.3,7.6-4,9.9c-2.7,2.4-5.9,3.6-9.6,3.6c-3.7,0-6.8-1.2-9.5-3.5c-2.7-2.4-4-5.7-4-10c0-4.2,1.3-7.5,4-9.9s5.9-3.6,9.6-3.6
		c3.7,0,6.5,0.9,8.5,2.7s3.3,3.5,4,5.1S152,11.3,152,13.5z M145,13.5c0-2.1-0.7-3.7-2-4.9c-1.3-1.2-2.9-1.7-4.7-1.7
		s-3.3,0.6-4.6,1.7s-2,2.8-2,4.9s0.7,3.7,2,4.8c1.3,1.2,2.9,1.8,4.7,1.8s3.3-0.6,4.6-1.7C144.3,17.2,145,15.6,145,13.5z"/>
</g>
</svg>
