<?xml version="1.0" encoding="utf-8"?>
<!-- Generator: Adobe Illustrator 23.0.3, SVG Export Plug-In . SVG Version: 6.00 Build 0)  -->
<svg version="1.1" id="layer_1" xmlns="http://www.w3.org/2000/svg" xmlns:xlink="http://www.w3.org/1999/xlink" x="0px" y="0px"
	 viewBox="0 0 98.3 97.8" style="enable-background:new 0 0 98.3 97.8;" xml:space="preserve">
<style type="text/css">
	.st0{fill:#274242;}
	.st1{fill:#76C5D4;}
	.st2{fill:#FFFFFF;}
</style>
<g>
	<path class="st0" d="M16.9,14.4c0.3,0,0.5-0.1,0.8-0.3c0.5-0.4,0.5-1.1,0.1-1.6s-1.1-0.5-1.6-0.1c-0.5,0.4-0.5,1.1-0.1,1.6
		C16.3,14.3,16.6,14.4,16.9,14.4z"/>
	<path class="st0" d="M25,8.5c0.2,0,0.4-0.1,0.6-0.2c0.5-0.3,0.7-1,0.4-1.5c-0.3-0.5-1-0.7-1.5-0.4c-0.5,0.3-0.7,1-0.4,1.5
		C24.2,8.3,24.6,8.5,25,8.5z"/>
	<path class="st0" d="M25.7,89.5L25.7,89.5c-0.5-0.3-1.2-0.1-1.5,0.4c-0.3,0.5-0.1,1.2,0.4,1.5c0.2,0.1,0.4,0.2,0.6,0.2
		c0.4,0,0.8-0.2,1-0.6C26.5,90.5,26.3,89.8,25.7,89.5z"/>
	<path class="st0" d="M44.3,95.5c-0.6-0.1-1.2,0.4-1.2,1c-0.1,0.6,0.4,1.2,1,1.2c0,0,0.1,0,0.1,0c0.6,0,1.1-0.4,1.1-1
		C45.3,96.1,44.9,95.6,44.3,95.5z"/>
	<path class="st0" d="M34.2,4.4c0.1,0,0.2,0,0.3-0.1c0.6-0.2,0.9-0.8,0.7-1.4C35,2.3,34.4,2,33.8,2.2c-0.6,0.2-0.9,0.8-0.7,1.4
		C33.2,4.1,33.7,4.4,34.2,4.4z"/>
	<path class="st0" d="M44,2.3c0,0,0.1,0,0.1,0c0.6-0.1,1.1-0.6,1-1.2C45,0.4,44.5,0,43.8,0c-0.6,0.1-1.1,0.6-1,1.2
		C42.9,1.9,43.4,2.3,44,2.3z"/>
	<path class="st0" d="M34.7,93.5c-0.6-0.2-1.2,0.1-1.4,0.7c-0.2,0.6,0.1,1.2,0.7,1.4c0.1,0,0.2,0,0.3,0c0.5,0,0.9-0.3,1.1-0.8
		C35.6,94.3,35.3,93.7,34.7,93.5z"/>
	<path class="st0" d="M17.8,83.8c-0.5-0.4-1.2-0.4-1.6,0.1c-0.4,0.5-0.4,1.2,0.1,1.6c0,0,0,0,0,0c0.2,0.2,0.5,0.3,0.8,0.3
		c0.3,0,0.6-0.1,0.8-0.4C18.3,84.9,18.3,84.2,17.8,83.8L17.8,83.8z"/>
	<path class="st0" d="M10.2,21.9c0.4,0,0.7-0.2,0.9-0.5c0.4-0.5,0.2-1.2-0.3-1.6c-0.5-0.4-1.2-0.2-1.6,0.3c-0.4,0.5-0.3,1.2,0.2,1.6
		C9.8,21.8,10,21.9,10.2,21.9z"/>
	<path class="st0" d="M1.9,40.1c0.1,0,0.1,0,0.2,0c0.5,0,1-0.4,1.1-0.9C3.4,38.6,3,38,2.4,37.9c-0.6-0.1-1.2,0.3-1.3,0.9
		C0.9,39.4,1.3,40,1.9,40.1z"/>
	<circle class="st0" cx="1.1" cy="49" r="1.1"/>
	<path class="st0" d="M4.8,30.5c0.1,0.1,0.3,0.1,0.5,0.1c0.4,0,0.8-0.2,1-0.7c0.2-0.6,0-1.2-0.6-1.5c-0.6-0.3-1.2,0-1.5,0.6
		C3.9,29.6,4.2,30.2,4.8,30.5z"/>
	<path class="st0" d="M92.9,30.3c0.1,0,0.3,0,0.5-0.1c0.6-0.3,0.8-0.9,0.6-1.5c-0.3-0.6-0.9-0.8-1.5-0.6c-0.6,0.3-0.8,0.9-0.6,1.5
		C92.1,30.1,92.5,30.3,92.9,30.3z"/>
	<path class="st0" d="M96,39.8c0.1,0,0.2,0,0.2,0c0.6-0.1,1-0.7,0.9-1.3c-0.1-0.6-0.7-1-1.3-0.9c-0.6,0.1-1,0.7-0.9,1.3
		C95.1,39.5,95.5,39.8,96,39.8z"/>
	<path class="st0" d="M98.3,48.7c0-0.6-0.5-1.1-1.1-1.1c-0.6,0-1.1,0.5-1.1,1.1c0,0,0,0.1,0,0.1s0,0.1,0,0.1c0,0.6,0.5,1.1,1.1,1.1
		s1.1-0.5,1.1-1.1c0,0,0-0.1,0-0.1C98.3,48.8,98.3,48.7,98.3,48.7z"/>
	<path class="st0" d="M87.9,21.7c0.2,0,0.5-0.1,0.7-0.2c0.5-0.4,0.6-1.1,0.2-1.6c-0.4-0.5-1.1-0.6-1.6-0.2c-0.5,0.4-0.6,1.1-0.2,1.6
		C87.2,21.5,87.5,21.7,87.9,21.7z"/>
	<path class="st0" d="M72.4,8.2c0.2,0.1,0.4,0.1,0.6,0.1c0.4,0,0.8-0.2,1-0.6c0.3-0.5,0.1-1.2-0.4-1.5C73,5.9,72.3,6.1,72,6.7
		C71.7,7.2,71.9,7.9,72.4,8.2z"/>
	<path class="st0" d="M63.5,4.3c0.1,0,0.2,0.1,0.3,0.1c0.5,0,0.9-0.3,1.1-0.8c0.2-0.6-0.1-1.2-0.7-1.4c-0.6-0.2-1.2,0.1-1.4,0.7
		C62.6,3.4,62.9,4.1,63.5,4.3z"/>
	<path class="st0" d="M54.1,95.5c-0.6,0.1-1.1,0.6-1,1.2c0.1,0.6,0.6,1,1.1,1c0,0,0.1,0,0.1,0c0.6-0.1,1.1-0.6,1-1.2
		C55.2,95.9,54.7,95.4,54.1,95.5z"/>
	<path class="st0" d="M63.6,93.5c-0.6,0.2-0.9,0.8-0.7,1.4c0.2,0.5,0.6,0.8,1.1,0.8c0.1,0,0.2,0,0.3-0.1c0.6-0.2,0.9-0.8,0.7-1.4
		C64.9,93.6,64.2,93.3,63.6,93.5z"/>
	<path class="st0" d="M81.1,14.2c0.3,0,0.6-0.1,0.8-0.4c0.4-0.5,0.4-1.2-0.1-1.6c-0.5-0.4-1.2-0.4-1.6,0.1c-0.4,0.5-0.4,1.2,0.1,1.6
		C80.6,14.1,80.9,14.2,81.1,14.2z"/>
	<path class="st0" d="M53.9,2.3c0,0,0.1,0,0.1,0c0.6,0,1.1-0.4,1.1-1c0.1-0.6-0.4-1.2-1-1.2c-0.6-0.1-1.2,0.4-1.2,1
		C52.8,1.6,53.3,2.2,53.9,2.3z"/>
	<path class="st0" d="M80.5,83.7c-0.5,0.4-0.5,1.1-0.1,1.6c0.2,0.2,0.5,0.4,0.8,0.4c0.3,0,0.5-0.1,0.8-0.3c0.5-0.4,0.5-1.1,0.1-1.6
		C81.7,83.3,81,83.3,80.5,83.7z"/>
	<path class="st0" d="M72.6,89.5c-0.5,0.3-0.7,1-0.4,1.5c0.2,0.4,0.6,0.6,1,0.6c0.2,0,0.4-0.1,0.6-0.2c0.5-0.3,0.7-1,0.4-1.5
		C73.8,89.3,73.1,89.2,72.6,89.5z"/>
	<path class="st1" d="M85,52.1L85,52.1c-0.8-0.1-1.6-0.2-2.5-0.2c-3.6,4.3-7.5,4.3-11.1,0c-0.9,0-1.7,0.1-2.5,0.2
		c-6.8,1.1-11.7,11.4-12.1,17.3c5.5,5.3,14.5,6.4,18.3,6.7c1.1,0.1,1.8,0.1,1.8,0.1s0.7,0,1.8-0.1c3.8-0.3,12.8-1.5,18.3-6.7
		C96.7,63.6,91.8,53.2,85,52.1z"/>
	<path class="st0" d="M77,77.4c0,0-0.7,0-1.9-0.1c-3.8-0.3-13.2-1.5-19-7c-0.2-0.2-0.4-0.6-0.3-0.9C56.2,63.6,61,52.2,68.8,51
		c0.9-0.1,1.8-0.2,2.6-0.2c0.3,0,0.7,0.1,0.9,0.4c3.1,3.8,6.2,3.8,9.3,0c0.2-0.3,0.5-0.4,0.9-0.4c0.9,0,1.7,0.1,2.6,0.2
		c7.8,1.2,12.7,12.6,13.1,18.4c0,0.3-0.1,0.7-0.3,0.9c-5.8,5.5-15.3,6.8-19,7C77.7,77.4,77,77.4,77,77.4z M58,69
		c5.3,4.7,13.8,5.8,17.2,6c1.1,0.1,1.7,0.1,1.7,0.1c0,0,0.7,0,1.7-0.1c3.5-0.2,11.9-1.3,17.2-6c-0.7-5.9-5.4-14.9-11.1-15.8
		c-0.6-0.1-1.2-0.2-1.8-0.2c-3.8,4.3-8.3,4.3-12.1,0c-0.6,0-1.2,0.1-1.8,0.2C63.5,54.1,58.7,63.1,58,69z"/>
	<path class="st2" d="M86.2,37c0,5.2-4.1,9.5-9.2,9.5c-5.1,0-9.2-4.2-9.2-9.5c0-5.2,4.1-9.5,9.2-9.5C82.1,27.5,86.2,31.8,86.2,37z"
		/>
	<path class="st0" d="M77,47.6c-5.7,0-10.3-4.8-10.3-10.6c0-5.8,4.6-10.6,10.3-10.6c5.7,0,10.3,4.8,10.3,10.6
		C87.3,42.9,82.7,47.6,77,47.6z M77,28.7c-4.4,0-8,3.7-8,8.3c0,4.6,3.6,8.3,8,8.3c4.4,0,8-3.7,8-8.3C85,32.4,81.4,28.7,77,28.7z"/>
	<path class="st1" d="M29.3,52.1L29.3,52.1c-0.8-0.1-1.6-0.2-2.5-0.2c-3.6,4.3-7.5,4.3-11.1,0c-0.9,0-1.7,0.1-2.5,0.2
		C6.4,53.2,1.6,63.6,1.1,69.5c5.5,5.3,14.5,6.4,18.3,6.7c1.1,0.1,1.8,0.1,1.8,0.1s0.7,0,1.8-0.1c3.8-0.3,12.8-1.5,18.3-6.7
		C41,63.6,36.1,53.2,29.3,52.1z"/>
	<path class="st0" d="M21.3,77.4c0,0-0.7,0-1.9-0.1c-3.8-0.3-13.2-1.5-19-7C0.1,70,0,69.7,0,69.4C0.4,63.6,5.3,52.2,13.1,51
		c0.9-0.1,1.8-0.2,2.6-0.2c0.3,0,0.7,0.1,0.9,0.4c3.1,3.8,6.2,3.8,9.3,0c0.2-0.3,0.5-0.4,0.9-0.4c0.9,0,1.7,0.1,2.6,0.2
		c7.8,1.2,12.7,12.6,13.1,18.4c0,0.3-0.1,0.7-0.3,0.9c-5.8,5.5-15.3,6.8-19,7C22,77.4,21.3,77.4,21.3,77.4z M2.3,69
		c5.3,4.7,13.8,5.8,17.2,6c1.1,0.1,1.7,0.1,1.7,0.1c0,0,0.7,0,1.7-0.1c3.4-0.2,11.9-1.3,17.2-6c-0.7-5.9-5.4-14.9-11.1-15.8
		c-0.6-0.1-1.2-0.2-1.8-0.2c-3.8,4.3-8.3,4.3-12.1,0c-0.6,0-1.2,0.1-1.8,0.2C7.8,54.1,3,63.1,2.3,69z"/>
	<path class="st2" d="M30.4,37c0,5.2-4.1,9.5-9.2,9.5s-9.2-4.2-9.2-9.5c0-5.2,4.1-9.5,9.2-9.5S30.4,31.8,30.4,37z"/>
	<path class="st0" d="M21.3,47.6C15.6,47.6,11,42.9,11,37c0-5.8,4.6-10.6,10.3-10.6c5.7,0,10.3,4.8,10.3,10.6
		C31.6,42.9,26.9,47.6,21.3,47.6z M21.3,28.7c-4.4,0-8,3.7-8,8.3c0,4.6,3.6,8.3,8,8.3c4.4,0,8-3.7,8-8.3
		C29.3,32.4,25.7,28.7,21.3,28.7z"/>
	<path class="st2" d="M61.5,36.3c0,7.1-5.5,12.8-12.4,12.8c-6.8,0-12.4-5.7-12.4-12.8c0-7.1,5.5-12.8,12.4-12.8
		C56,23.5,61.5,29.2,61.5,36.3z"/>
	<path class="st0" d="M49.1,50.2c-7.5,0-13.5-6.2-13.5-13.9c0-7.7,6.1-13.9,13.5-13.9s13.5,6.2,13.5,13.9
		C62.6,44,56.6,50.2,49.1,50.2z M49.1,24.6c-6.2,0-11.3,5.2-11.3,11.7c0,6.4,5.1,11.7,11.3,11.7c6.2,0,11.3-5.2,11.3-11.7
		C60.4,29.9,55.3,24.6,49.1,24.6z"/>
	<path class="st2" d="M60.2,54.5c-1.1-0.2-2.2-0.3-3.4-0.3l-7.7,7.3c0,0,6.1,5.3,6.1,5.3L60.2,54.5z"/>
	<path class="st2" d="M49.1,61.6l-7.7-7.3c-1.2,0-2.3,0.1-3.4,0.3l5,12.3L49.1,61.6z"/>
	<path class="st1" d="M46.4,63.9L46.4,63.9L43,66.8l-5-12.3C28.6,56,21.9,70,21.3,77.9c7.7,7.1,20.1,8.7,25.4,9.1V63.7L46.4,63.9z"
		/>
	<path class="st2" d="M49.1,61.6l-2.5,2.2V87c1.6,0.1,2.5,0.1,2.5,0.1s0.9,0,2.5-0.1V63.7L49.1,61.6z"/>
	<path class="st1" d="M60.2,54.5l-5,12.3l-3.4-2.9l0,0l-0.3-0.2V87c5.3-0.4,17.7-2,25.4-9.1C76.4,70,69.6,56,60.2,54.5z"/>
	<path class="st0" d="M60.4,53.4c-1.3-0.2-2.4-0.3-3.6-0.3c-0.3,0-0.6,0.1-0.8,0.3L49.1,60l-6.9-6.6c-0.2-0.2-0.5-0.3-0.8-0.3
		c-1.2,0-2.3,0.1-3.6,0.3C27.3,55,20.7,70.2,20.1,77.9c0,0.3,0.1,0.7,0.4,0.9c8,7.4,20.9,9,26.1,9.4h0c1.6,0.1,2.5,0.1,2.6,0.1
		c0,0,1,0,2.6-0.1c0,0,0,0,0,0c5.2-0.4,18.1-2,26.1-9.4c0.3-0.2,0.4-0.6,0.4-0.9C77.5,70.2,70.9,55,60.4,53.4z M57.2,55.4
		c0.5,0,0.9,0,1.4,0.1l-3.8,9.5l-2.4-2.1c0,0,0,0,0,0l-1.6-1.3L57.2,55.4z M41,55.4l6.4,6.1l-1.6,1.3c0,0,0,0,0,0l-0.3,0.2l-2.2,1.9
		l-3.8-9.5C40.1,55.4,40.6,55.4,41,55.4z M37.3,55.8L42,67.3c0.1,0.3,0.4,0.6,0.8,0.7c0.2,0.1,0.4,0,0.6,0c0,0,0,0,0.1,0
		c0.1,0,0.2-0.1,0.3-0.2l1.8-1.5v19.6c-5.4-0.5-16.2-2.2-23.1-8.3C23.3,69.7,29.4,57.8,37.3,55.8z M47.8,86V64.2l1.3-1.1l0.1-0.1
		l0.3,0.3c0.3,0.2,0.6,0.5,1.1,0.9V86c-0.9,0-1.4,0-1.4,0C49.1,86,48.6,86,47.8,86z M52.8,85.8V66.2l1.8,1.5
		c0.1,0.1,0.2,0.1,0.3,0.2c0,0,0,0,0.1,0c0.2,0.1,0.4,0.1,0.6,0c0.4-0.1,0.6-0.3,0.8-0.7l4.6-11.4c8,2,14.1,13.9,14.9,21.7
		C68.9,83.6,58.2,85.3,52.8,85.8z"/>
</g>
</svg>
