<?xml version="1.0" encoding="utf-8"?>
<!-- Generator: Adobe Illustrator 23.0.3, SVG Export Plug-In . SVG Version: 6.00 Build 0)  -->
<svg version="1.1" id="layer_1" xmlns="http://www.w3.org/2000/svg" xmlns:xlink="http://www.w3.org/1999/xlink" x="0px" y="0px"
	 viewBox="0 0 82.7 74.5" style="enable-background:new 0 0 82.7 74.5;" xml:space="preserve">
<style type="text/css">
	.st0{fill:#BA4D9B;}
	.st1{fill:#703407;}
	.st2{fill:#FFFFFF;}
	.st3{fill:#F7BE56;}
</style>
<g>
	<path class="st0" d="M30.1,56.4v9.9c0,3.9,11.5,7.1,25.7,7.1c14.2,0,25.7-3.2,25.7-7.1v-9.9H30.1z"/>
	<path class="st1" d="M55.8,74.5c-13.3,0-26.8-2.8-26.8-8.3v-9.9c0-0.6,0.5-1.1,1.1-1.1h51.4c0.6,0,1.1,0.5,1.1,1.1v9.9
		C82.7,71.7,69.2,74.5,55.8,74.5z M31.3,57.5v8.7c0,2.5,9.4,6,24.6,6c15.2,0,24.6-3.5,24.6-6v-8.7H31.3z"/>
	<path class="st0" d="M81.5,56.4c0,3.9-11.5,7.1-25.7,7.1c-14.2,0-25.7-3.2-25.7-7.1s11.5-7.1,25.7-7.1C70,49.3,81.5,52.5,81.5,56.4
		z"/>
	<path class="st1" d="M55.8,64.7c-13.3,0-26.8-2.8-26.8-8.3c0-5.4,13.5-8.3,26.8-8.3c13.3,0,26.8,2.8,26.8,8.3
		C82.7,61.8,69.2,64.7,55.8,64.7z M55.8,50.4c-15.2,0-24.6,3.5-24.6,6c0,2.5,9.4,6,24.6,6c15.2,0,24.6-3.5,24.6-6
		C80.4,53.9,71.1,50.4,55.8,50.4z"/>
	<path class="st0" d="M30.1,40.4v9.9c0,3.9,11.5,7.1,25.7,7.1c14.2,0,25.7-3.2,25.7-7.1v-9.9H30.1z"/>
	<path class="st1" d="M55.8,58.5c-13.3,0-26.8-2.8-26.8-8.3v-9.9c0-0.6,0.5-1.1,1.1-1.1h51.4c0.6,0,1.1,0.5,1.1,1.1v9.9
		C82.7,55.7,69.2,58.5,55.8,58.5z M31.3,41.5v8.7c0,2.5,9.4,6,24.6,6c15.2,0,24.6-3.5,24.6-6v-8.7H31.3z"/>
	<path class="st0" d="M81.5,40.4c0,3.9-11.5,7.1-25.7,7.1c-14.2,0-25.7-3.2-25.7-7.1c0-3.9,11.5-7.1,25.7-7.1
		C70,33.2,81.5,36.4,81.5,40.4z"/>
	<path class="st1" d="M55.8,48.6c-13.3,0-26.8-2.8-26.8-8.3c0-5.4,13.5-8.3,26.8-8.3c13.3,0,26.8,2.8,26.8,8.3
		C82.7,45.8,69.2,48.6,55.8,48.6z M55.8,34.3c-15.2,0-24.6,3.5-24.6,6c0,2.5,9.4,6,24.6,6c15.2,0,24.6-3.5,24.6-6
		C80.4,37.8,71.1,34.3,55.8,34.3z"/>
	<path class="st2" d="M1.1,52.4v7.9c0,3.1,9.2,5.7,20.5,5.7c11.3,0,20.5-2.6,20.5-5.7v-7.9H1.1z"/>
	<path class="st1" d="M21.7,67.1C10.9,67.1,0,64.8,0,60.3v-7.9c0-0.6,0.5-1.1,1.1-1.1h41.1c0.6,0,1.1,0.5,1.1,1.1v7.9
		C43.3,64.8,32.4,67.1,21.7,67.1z M2.3,53.5v6.8c0,1.6,6.8,4.6,19.4,4.6c12.6,0,19.4-3,19.4-4.6v-6.8H2.3z"/>
	<ellipse class="st0" cx="21.7" cy="52.4" rx="20.5" ry="5.7"/>
	<path class="st1" d="M21.7,59.2C10.9,59.2,0,56.9,0,52.4c0-4.5,10.9-6.8,21.7-6.8c10.8,0,21.7,2.3,21.7,6.8
		C43.3,56.9,32.4,59.2,21.7,59.2z M21.7,47.8c-12.6,0-19.4,3-19.4,4.6C2.3,54,9.1,57,21.7,57c12.6,0,19.4-3,19.4-4.6
		C41.1,50.9,34.2,47.8,21.7,47.8z"/>
	<path class="st0" d="M1.1,39.6v7.9c0,3.2,9.2,5.7,20.5,5.7c11.3,0,20.5-2.6,20.5-5.7v-7.9H1.1z"/>
	<path class="st1" d="M21.7,54.3C10.9,54.3,0,52,0,47.5v-7.9c0-0.6,0.5-1.1,1.1-1.1h41.1c0.6,0,1.1,0.5,1.1,1.1v7.9
		C43.3,52,32.4,54.3,21.7,54.3z M2.3,40.7v6.8c0,1.6,6.8,4.6,19.4,4.6c12.6,0,19.4-3,19.4-4.6v-6.8H2.3z"/>
	<path class="st0" d="M42.2,39.6c0,3.1-9.2,5.7-20.5,5.7c-11.3,0-20.5-2.6-20.5-5.7c0-3.1,9.2-5.7,20.5-5.7
		C33,33.9,42.2,36.5,42.2,39.6z"/>
	<path class="st1" d="M21.7,46.4C10.9,46.4,0,44.1,0,39.6c0-4.5,10.9-6.8,21.7-6.8c10.8,0,21.7,2.3,21.7,6.8
		C43.3,44.1,32.4,46.4,21.7,46.4z M21.7,35C9.1,35,2.3,38,2.3,39.6c0,1.6,6.8,4.6,19.4,4.6c12.6,0,19.4-3,19.4-4.6
		C41.1,38,34.2,35,21.7,35z"/>
	<path class="st0" d="M1.1,26.8v7.9c0,3.1,9.2,5.7,20.5,5.7c11.3,0,20.5-2.6,20.5-5.7v-7.9H1.1z"/>
	<path class="st1" d="M21.7,41.5C10.9,41.5,0,39.2,0,34.7v-7.9c0-0.6,0.5-1.1,1.1-1.1h41.1c0.6,0,1.1,0.5,1.1,1.1v7.9
		C43.3,39.2,32.4,41.5,21.7,41.5z M2.3,27.9v6.8c0,1.6,6.8,4.6,19.4,4.6c12.6,0,19.4-3,19.4-4.6v-6.8H2.3z"/>
	<path class="st0" d="M42.2,26.8c0,3.1-9.2,5.7-20.5,5.7c-11.3,0-20.5-2.6-20.5-5.7s9.2-5.7,20.5-5.7C33,21.1,42.2,23.6,42.2,26.8z"
		/>
	<path class="st1" d="M21.7,33.6C10.9,33.6,0,31.3,0,26.8C0,22.3,10.9,20,21.7,20c10.8,0,21.7,2.3,21.7,6.8
		C43.3,31.3,32.4,33.6,21.7,33.6z M21.7,22.2c-12.6,0-19.4,3-19.4,4.6c0,1.6,6.8,4.6,19.4,4.6c12.6,0,19.4-3,19.4-4.6
		C41.1,25.2,34.2,22.2,21.7,22.2z"/>
	<path class="st3" d="M1.1,52.4v7.9c0,3.1,9.2,5.7,20.5,5.7c11.3,0,20.5-2.6,20.5-5.7v-7.9H1.1z"/>
	<path class="st1" d="M21.7,67.1C10.9,67.1,0,64.8,0,60.3v-7.9c0-0.6,0.5-1.1,1.1-1.1h41.1c0.6,0,1.1,0.5,1.1,1.1v7.9
		C43.3,64.8,32.4,67.1,21.7,67.1z M2.3,53.5v6.8c0,1.6,6.8,4.6,19.4,4.6c12.6,0,19.4-3,19.4-4.6v-6.8H2.3z"/>
	<ellipse class="st2" cx="21.7" cy="52.4" rx="20.5" ry="5.7"/>
	<path class="st1" d="M21.7,59.2C10.9,59.2,0,56.9,0,52.4c0-4.5,10.9-6.8,21.7-6.8c10.8,0,21.7,2.3,21.7,6.8
		C43.3,56.9,32.4,59.2,21.7,59.2z M21.7,47.8c-12.6,0-19.4,3-19.4,4.6C2.3,54,9.1,57,21.7,57c12.6,0,19.4-3,19.4-4.6
		C41.1,50.9,34.2,47.8,21.7,47.8z"/>
	<path class="st3" d="M1.1,39.6v7.9c0,3.2,9.2,5.7,20.5,5.7c11.3,0,20.5-2.6,20.5-5.7v-7.9H1.1z"/>
	<path class="st1" d="M21.7,54.3C10.9,54.3,0,52,0,47.5v-7.9c0-0.6,0.5-1.1,1.1-1.1h41.1c0.6,0,1.1,0.5,1.1,1.1v7.9
		C43.3,52,32.4,54.3,21.7,54.3z M2.3,40.7v6.8c0,1.6,6.8,4.6,19.4,4.6c12.6,0,19.4-3,19.4-4.6v-6.8H2.3z"/>
	<path class="st2" d="M42.2,39.6c0,3.1-9.2,5.7-20.5,5.7c-11.3,0-20.5-2.6-20.5-5.7c0-3.1,9.2-5.7,20.5-5.7
		C33,33.9,42.2,36.5,42.2,39.6z"/>
	<path class="st1" d="M21.7,46.4C10.9,46.4,0,44.1,0,39.6c0-4.5,10.9-6.8,21.7-6.8c10.8,0,21.7,2.3,21.7,6.8
		C43.3,44.1,32.4,46.4,21.7,46.4z M21.7,35C9.1,35,2.3,38,2.3,39.6c0,1.6,6.8,4.6,19.4,4.6c12.6,0,19.4-3,19.4-4.6
		C41.1,38,34.2,35,21.7,35z"/>
	<path class="st3" d="M1.1,26.8v7.9c0,3.1,9.2,5.7,20.5,5.7c11.3,0,20.5-2.6,20.5-5.7v-7.9H1.1z"/>
	<path class="st1" d="M21.7,41.5C10.9,41.5,0,39.2,0,34.7v-7.9c0-0.6,0.5-1.1,1.1-1.1h41.1c0.6,0,1.1,0.5,1.1,1.1v7.9
		C43.3,39.2,32.4,41.5,21.7,41.5z M2.3,27.9v6.8c0,1.6,6.8,4.6,19.4,4.6c12.6,0,19.4-3,19.4-4.6v-6.8H2.3z"/>
	<path class="st2" d="M42.2,26.8c0,3.1-9.2,5.7-20.5,5.7c-11.3,0-20.5-2.6-20.5-5.7s9.2-5.7,20.5-5.7C33,21.1,42.2,23.6,42.2,26.8z"
		/>
	<path class="st1" d="M21.7,33.6C10.9,33.6,0,31.3,0,26.8C0,22.3,10.9,20,21.7,20c10.8,0,21.7,2.3,21.7,6.8
		C43.3,31.3,32.4,33.6,21.7,33.6z M21.7,22.2c-12.6,0-19.4,3-19.4,4.6c0,1.6,6.8,4.6,19.4,4.6c12.6,0,19.4-3,19.4-4.6
		C41.1,25.2,34.2,22.2,21.7,22.2z"/>
	<path class="st3" d="M1.1,14v7.9c0,3.2,9.2,5.7,20.5,5.7c11.3,0,20.5-2.6,20.5-5.7V14H1.1z"/>
	<path class="st1" d="M21.7,28.7C10.9,28.7,0,26.3,0,21.9V14c0-0.6,0.5-1.1,1.1-1.1h41.1c0.6,0,1.1,0.5,1.1,1.1v7.9
		C43.3,26.3,32.4,28.7,21.7,28.7z M2.3,15.1v6.8c0,1.6,6.8,4.6,19.4,4.6c12.6,0,19.4-3,19.4-4.6v-6.8H2.3z"/>
	<ellipse class="st3" cx="21.7" cy="14" rx="20.5" ry="5.7"/>
	<path class="st1" d="M21.7,20.8C10.9,20.8,0,18.5,0,14s10.9-6.8,21.7-6.8c10.8,0,21.7,2.3,21.7,6.8S32.4,20.8,21.7,20.8z M21.7,9.4
		c-12.6,0-19.4,3-19.4,4.6c0,1.6,6.8,4.6,19.4,4.6c12.6,0,19.4-3,19.4-4.6C41.1,12.4,34.2,9.4,21.7,9.4z"/>
	<path class="st0" d="M30.1,24.3v9.9c0,3.9,11.5,7.1,25.7,7.1c14.2,0,25.7-3.2,25.7-7.1v-9.9H30.1z"/>
	<path class="st1" d="M55.8,42.5c-13.3,0-26.8-2.8-26.8-8.3v-9.9c0-0.6,0.5-1.1,1.1-1.1h51.4c0.6,0,1.1,0.5,1.1,1.1v9.9
		C82.7,39.6,69.2,42.5,55.8,42.5z M31.3,25.4v8.7c0,2.5,9.4,6,24.6,6c15.2,0,24.6-3.5,24.6-6v-8.7H31.3z"/>
	<path class="st0" d="M81.5,24.3c0,3.9-11.5,7.1-25.7,7.1c-14.2,0-25.7-3.2-25.7-7.1c0-3.9,11.5-7.1,25.7-7.1
		C70,17.2,81.5,20.4,81.5,24.3z"/>
	<path class="st1" d="M55.8,32.6c-13.3,0-26.8-2.8-26.8-8.3c0-5.4,13.5-8.3,26.8-8.3c13.3,0,26.8,2.8,26.8,8.3
		C82.7,29.7,69.2,32.6,55.8,32.6z M55.8,18.3c-15.2,0-24.6,3.5-24.6,6c0,2.5,9.4,6,24.6,6c15.2,0,24.6-3.5,24.6-6
		C80.4,21.8,71.1,18.3,55.8,18.3z"/>
	<path class="st3" d="M30.1,56.4v9.9c0,3.9,11.5,7.1,25.7,7.1c14.2,0,25.7-3.2,25.7-7.1v-9.9H30.1z"/>
	<path class="st1" d="M55.8,74.5c-13.3,0-26.8-2.8-26.8-8.3v-9.9c0-0.6,0.5-1.1,1.1-1.1h51.4c0.6,0,1.1,0.5,1.1,1.1v9.9
		C82.7,71.7,69.2,74.5,55.8,74.5z M31.3,57.5v8.7c0,2.5,9.4,6,24.6,6c15.2,0,24.6-3.5,24.6-6v-8.7H31.3z"/>
	<path class="st2" d="M81.5,56.4c0,3.9-11.5,7.1-25.7,7.1c-14.2,0-25.7-3.2-25.7-7.1s11.5-7.1,25.7-7.1C70,49.3,81.5,52.5,81.5,56.4
		z"/>
	<path class="st1" d="M55.8,64.7c-13.3,0-26.8-2.8-26.8-8.3c0-5.4,13.5-8.3,26.8-8.3c13.3,0,26.8,2.8,26.8,8.3
		C82.7,61.8,69.2,64.7,55.8,64.7z M55.8,50.4c-15.2,0-24.6,3.5-24.6,6c0,2.5,9.4,6,24.6,6c15.2,0,24.6-3.5,24.6-6
		C80.4,53.9,71.1,50.4,55.8,50.4z"/>
	<path class="st3" d="M30.1,40.4v9.9c0,3.9,11.5,7.1,25.7,7.1c14.2,0,25.7-3.2,25.7-7.1v-9.9H30.1z"/>
	<path class="st1" d="M55.8,58.5c-13.3,0-26.8-2.8-26.8-8.3v-9.9c0-0.6,0.5-1.1,1.1-1.1h51.4c0.6,0,1.1,0.5,1.1,1.1v9.9
		C82.7,55.7,69.2,58.5,55.8,58.5z M31.3,41.5v8.7c0,2.5,9.4,6,24.6,6c15.2,0,24.6-3.5,24.6-6v-8.7H31.3z"/>
	<path class="st2" d="M81.5,40.4c0,3.9-11.5,7.1-25.7,7.1c-14.2,0-25.7-3.2-25.7-7.1c0-3.9,11.5-7.1,25.7-7.1
		C70,33.2,81.5,36.4,81.5,40.4z"/>
	<path class="st1" d="M55.8,48.6c-13.3,0-26.8-2.8-26.8-8.3c0-5.4,13.5-8.3,26.8-8.3c13.3,0,26.8,2.8,26.8,8.3
		C82.7,45.8,69.2,48.6,55.8,48.6z M55.8,34.3c-15.2,0-24.6,3.5-24.6,6c0,2.5,9.4,6,24.6,6c15.2,0,24.6-3.5,24.6-6
		C80.4,37.8,71.1,34.3,55.8,34.3z"/>
	<path class="st3" d="M30.1,24.3v9.9c0,3.9,11.5,7.1,25.7,7.1c14.2,0,25.7-3.2,25.7-7.1v-9.9H30.1z"/>
	<path class="st1" d="M55.8,42.5c-13.3,0-26.8-2.8-26.8-8.3v-9.9c0-0.6,0.5-1.1,1.1-1.1h51.4c0.6,0,1.1,0.5,1.1,1.1v9.9
		C82.7,39.6,69.2,42.5,55.8,42.5z M31.3,25.4v8.7c0,2.5,9.4,6,24.6,6c15.2,0,24.6-3.5,24.6-6v-8.7H31.3z"/>
	<path class="st2" d="M81.5,24.3c0,3.9-11.5,7.1-25.7,7.1c-14.2,0-25.7-3.2-25.7-7.1c0-3.9,11.5-7.1,25.7-7.1
		C70,17.2,81.5,20.4,81.5,24.3z"/>
	<path class="st1" d="M55.8,32.6c-13.3,0-26.8-2.8-26.8-8.3c0-5.4,13.5-8.3,26.8-8.3c13.3,0,26.8,2.8,26.8,8.3
		C82.7,29.7,69.2,32.6,55.8,32.6z M55.8,18.3c-15.2,0-24.6,3.5-24.6,6c0,2.5,9.4,6,24.6,6c15.2,0,24.6-3.5,24.6-6
		C80.4,21.8,71.1,18.3,55.8,18.3z"/>
	<path class="st3" d="M30.1,8.3v9.9c0,3.9,11.5,7.1,25.7,7.1c14.2,0,25.7-3.2,25.7-7.1V8.3H30.1z"/>
	<path class="st1" d="M55.8,26.4c-13.3,0-26.8-2.8-26.8-8.3V8.3c0-0.6,0.5-1.1,1.1-1.1h51.4c0.6,0,1.1,0.5,1.1,1.1v9.9
		C82.7,23.6,69.2,26.4,55.8,26.4z M31.3,9.4v8.7c0,2.5,9.4,6,24.6,6c15.2,0,24.6-3.5,24.6-6V9.4H31.3z"/>
	<path class="st3" d="M81.5,8.3c0,3.9-11.5,7.1-25.7,7.1c-14.2,0-25.7-3.2-25.7-7.1c0-3.9,11.5-7.1,25.7-7.1
		C70,1.1,81.5,4.3,81.5,8.3z"/>
	<path class="st1" d="M55.8,16.5C42.5,16.5,29,13.7,29,8.3C29,2.8,42.5,0,55.8,0c13.3,0,26.8,2.8,26.8,8.3
		C82.7,13.7,69.2,16.5,55.8,16.5z M55.8,2.3c-15.2,0-24.6,3.5-24.6,6c0,2.5,9.4,6,24.6,6c15.2,0,24.6-3.5,24.6-6
		C80.4,5.8,71.1,2.3,55.8,2.3z"/>
</g>
</svg>
