<?xml version="1.0" encoding="utf-8"?>
<!-- Generator: Adobe Illustrator 23.0.3, SVG Export Plug-In . SVG Version: 6.00 Build 0)  -->
<svg version="1.1" id="layer_1" xmlns="http://www.w3.org/2000/svg" xmlns:xlink="http://www.w3.org/1999/xlink" x="0px" y="0px"
	 viewBox="0 0 88.7 88.7" style="enable-background:new 0 0 88.7 88.7;" xml:space="preserve">
<style type="text/css">
	.st0{fill:#FFFFFF;}
	.st1{fill:#AA8FA2;}
	.st2{fill:#3D2139;}
</style>
<path class="st0" d="M38.1,56.9c-2.4-1.8-4.5-4-6.4-6.4c-1.5-1.9-2.9-3.9-4.1-6c-0.9,2.2-1.7,4.5-2.3,7.1c0.2,0.4,0.5,0.8,0.8,1.2
	c2.5,3.8,5.9,7.2,9.7,9.7c0.4,0.3,0.8,0.5,1.2,0.8c2.5-0.6,4.9-1.4,7.1-2.3C42,59.8,40,58.5,38.1,56.9z"/>
<path class="st0" d="M83,21.2c3.8-11.2,4.5-20,4.5-20s-8.8,0.7-20.1,4.5C69.3,13.3,75.3,19.3,83,21.2z"/>
<g>
	<path class="st1" d="M26.1,52.9c-9.4,4.2-8.7,18.3-8.7,18.4c0.1,0,14.2,0.6,18.4-8.7C32,60,28.6,56.7,26.1,52.9z"/>
	<path class="st1" d="M83,21.2c-7.7-1.9-13.7-7.9-15.5-15.5c-14.5,4.9-33,14.9-41.8,35.1c0.6,1.3,1.2,2.6,1.9,3.8
		c1.2,2.1,2.6,4.1,4.1,6c1.8,2.4,4,4.5,6.4,6.4c1.9,1.5,3.9,2.9,6,4.1c1.3,0.7,2.5,1.4,3.8,1.9C68.1,54.1,78.1,35.7,83,21.2z"/>
	<path class="st1" d="M44.4,17.5c0,0-23.9-1.7-43.3,15.8c15.5,0.2,24.6,7.4,24.6,7.4C30.1,30.7,36.9,23.1,44.4,17.5L44.4,17.5z"/>
	<path class="st1" d="M71.1,44.2L71.1,44.2C65.5,51.7,58,58.5,47.9,62.9c0,0,7.2,9.1,7.4,24.6C72.8,68.2,71.1,44.2,71.1,44.2z"/>
</g>
<path class="st2" d="M88.7,1.2c0-0.3-0.1-0.7-0.3-0.9C88.1,0.1,87.8,0,87.4,0c-0.4,0-9.1,0.8-20.3,4.6C60,7,51.7,10.7,44.1,16.4
	c-3.2-0.1-25.6-0.3-43.7,16.1c-0.3,0.3-0.5,0.8-0.3,1.2c0.2,0.4,0.6,0.7,1,0.7c13.7,0.2,22.4,6,23.7,7c0.5,1,1,2.1,1.6,3.2
	c-0.9,2.2-1.6,4.4-2.2,6.7c-0.1,0.3,0,0.6,0.1,0.8c0,0.1,0.1,0.2,0.1,0.2c-8.8,5.1-8.3,18.7-8.2,18.9c0,0.6,0.5,1,1.1,1.1
	c0,0,0.2,0,0.6,0c2.6,0,13.8-0.5,18.3-8.3c0.1,0.1,0.2,0.1,0.3,0.2c0.2,0.1,0.4,0.2,0.6,0.2c0.1,0,0.2,0,0.3,0
	c2.3-0.5,4.6-1.3,6.7-2.2c1.1,0.6,2.1,1.1,3.2,1.6c1,1.3,6.8,10,7,23.7c0,0.5,0.3,0.9,0.7,1c0.1,0,0.3,0.1,0.4,0.1
	c0.3,0,0.6-0.1,0.8-0.4c16.4-18.1,16.2-40.5,16.1-43.7c5.6-7.6,9.4-15.9,11.8-23C87.9,10.3,88.6,1.6,88.7,1.2z M82.3,19.8
	c-0.1,0-0.1,0-0.2-0.1c-0.2-0.1-0.3-0.1-0.5-0.2c-0.3-0.1-0.5-0.2-0.7-0.3c-0.2-0.1-0.3-0.1-0.5-0.2c-0.2-0.1-0.5-0.2-0.7-0.3
	c-0.2-0.1-0.3-0.2-0.5-0.2c-0.2-0.1-0.5-0.2-0.7-0.3c-0.2-0.1-0.3-0.2-0.5-0.3c-0.2-0.1-0.4-0.3-0.7-0.4c-0.2-0.1-0.3-0.2-0.4-0.3
	c-0.2-0.1-0.4-0.3-0.7-0.5c-0.1-0.1-0.3-0.2-0.4-0.3c-0.2-0.2-0.5-0.4-0.7-0.6c-0.1-0.1-0.2-0.2-0.3-0.3c-0.6-0.6-1.3-1.2-1.8-1.8
	c-0.1-0.1-0.2-0.2-0.3-0.3c-0.2-0.2-0.4-0.4-0.5-0.7c-0.1-0.1-0.2-0.3-0.3-0.4c-0.2-0.2-0.3-0.4-0.5-0.6c-0.1-0.2-0.2-0.3-0.3-0.5
	c-0.1-0.2-0.3-0.4-0.4-0.6c-0.1-0.2-0.2-0.3-0.3-0.5c-0.1-0.2-0.2-0.4-0.3-0.7C70,9.4,69.9,9.2,69.9,9c-0.1-0.2-0.2-0.5-0.3-0.7
	c-0.1-0.2-0.1-0.3-0.2-0.5c-0.1-0.2-0.2-0.5-0.3-0.7C69,6.9,69,6.8,68.9,6.6c0-0.1,0-0.1-0.1-0.2c8-2.6,14.6-3.6,17.4-4
	C85.9,5.2,84.9,11.8,82.3,19.8z M41.2,18.6c-1,0.8-1.9,1.6-2.8,2.5c-0.1,0.1-0.3,0.2-0.4,0.4c-0.7,0.7-1.4,1.4-2.1,2.1
	c-0.2,0.2-0.5,0.5-0.7,0.8c-0.6,0.6-1.1,1.3-1.7,1.9c-0.3,0.3-0.5,0.6-0.8,0.9c-0.5,0.6-1,1.3-1.5,1.9c-0.3,0.3-0.5,0.7-0.7,1
	c-0.5,0.7-1,1.5-1.5,2.3c-0.2,0.3-0.3,0.5-0.5,0.8c-0.6,1-1.3,2.1-1.8,3.2c-0.1,0.3-0.3,0.5-0.4,0.8c-0.3,0.6-0.6,1.2-0.9,1.9
	c-2.7-1.8-10.1-5.9-21.2-6.7C18.2,20.7,34.5,18.9,41.2,18.6z M18.5,70.1c0.1-3.1,0.9-12.2,7.2-15.8c0,0.1,0.1,0.1,0.1,0.2
	c0.5,0.7,1,1.4,1.6,2.1c0.1,0.1,0.2,0.2,0.3,0.4c0.6,0.7,1.1,1.3,1.7,1.9c0.1,0.1,0.1,0.1,0.2,0.2c0.6,0.6,1.2,1.1,1.8,1.7
	c0.2,0.1,0.3,0.3,0.5,0.4c0.6,0.5,1.3,1,2,1.5c0.1,0.1,0.1,0.1,0.2,0.2C30.7,69.3,21.6,70.1,18.5,70.1z M37.2,62.1
	c-0.3-0.2-0.5-0.3-0.8-0.5c-1.4-0.9-2.7-1.9-3.9-3c-2.1-1.9-3.9-4-5.4-6.3h0L27,52.1c-0.1-0.2-0.3-0.4-0.4-0.7
	c0.4-1.5,0.8-2.9,1.3-4.3c0.1,0.1,0.1,0.2,0.2,0.3c0.3,0.5,0.7,1,1,1.5c0.1,0.2,0.2,0.3,0.4,0.5c0.5,0.6,0.9,1.2,1.4,1.8
	c0.4,0.6,0.9,1.1,1.3,1.6c0,0.1,0.1,0.1,0.1,0.2c1.5,1.8,3.2,3.3,5.1,4.7c0,0,0,0,0,0c0,0,0,0,0,0c0,0,0,0,0,0
	c0.6,0.5,1.2,0.9,1.8,1.4c0.2,0.1,0.4,0.3,0.5,0.4c0.5,0.3,1,0.7,1.5,1c0.1,0.1,0.2,0.2,0.3,0.2C40.1,61.3,38.7,61.8,37.2,62.1z
	 M70,47.5c-0.2,6.7-2.1,22.9-13.7,37.1c-0.8-11.1-4.9-18.5-6.7-21.2c0.6-0.3,1.3-0.6,1.9-0.9c0.3-0.1,0.5-0.3,0.8-0.4
	c1.1-0.6,2.1-1.2,3.2-1.8c0.3-0.2,0.5-0.4,0.8-0.5c0.8-0.5,1.5-1,2.2-1.5c0.4-0.3,0.7-0.5,1-0.8c0.6-0.5,1.3-1,1.9-1.5
	c0.3-0.3,0.7-0.5,1-0.8c0.6-0.5,1.2-1.1,1.9-1.7c0.3-0.2,0.5-0.5,0.8-0.7c0.7-0.7,1.4-1.4,2.1-2.1c0.1-0.1,0.3-0.3,0.4-0.4
	C68.4,49.4,69.2,48.5,70,47.5z M66.2,48.4c-0.2,0.2-0.4,0.4-0.6,0.7c-0.5,0.6-1.1,1.1-1.7,1.7c-0.3,0.3-0.6,0.6-0.9,0.9
	c-0.5,0.5-1.1,1-1.6,1.4c-0.4,0.3-0.8,0.7-1.2,1c-0.5,0.4-1.1,0.8-1.6,1.2c-0.4,0.3-0.9,0.7-1.3,1c-0.5,0.4-1.1,0.7-1.6,1.1
	c-0.5,0.3-0.9,0.6-1.4,0.9c-0.6,0.4-1.2,0.7-1.8,1c-0.5,0.3-1,0.6-1.4,0.8c-0.7,0.3-1.3,0.7-2,1c-0.4,0.2-0.8,0.4-1.2,0.5
	c-1.1-0.5-2.2-1-3.3-1.7c-1.5-0.9-3-1.8-4.4-2.9c-0.5-0.4-0.9-0.7-1.4-1.1c0,0,0,0,0,0c-2.3-1.8-4.4-3.8-6.2-6.2
	c-1.5-1.9-2.9-3.8-4-5.8c0,0,0,0,0,0c-0.6-1.1-1.2-2.2-1.7-3.3c0.2-0.4,0.4-0.8,0.5-1.1c0.3-0.7,0.6-1.4,1-2c0.3-0.5,0.5-1,0.8-1.4
	c0.3-0.6,0.7-1.2,1-1.8c0.3-0.5,0.6-0.9,0.9-1.4c0.4-0.6,0.7-1.1,1.1-1.7c0.3-0.4,0.7-0.9,1-1.3c0.4-0.5,0.8-1.1,1.3-1.6
	c0.3-0.4,0.7-0.8,1-1.1c0.5-0.5,0.9-1.1,1.4-1.6c0.3-0.3,0.6-0.6,0.9-0.9c0.6-0.6,1.1-1.1,1.7-1.7c0.2-0.2,0.4-0.4,0.6-0.5
	c8.3-7.6,18.1-12.4,26.5-15.4c0,0.1,0,0.1,0.1,0.2c0.1,0.2,0.1,0.3,0.2,0.5c0.1,0.3,0.2,0.6,0.3,0.9c0.1,0.2,0.1,0.4,0.2,0.5
	c0.1,0.3,0.2,0.5,0.4,0.8c0.1,0.2,0.2,0.4,0.3,0.5c0.1,0.3,0.3,0.5,0.4,0.8c0.1,0.2,0.2,0.3,0.3,0.5c0.1,0.3,0.3,0.5,0.5,0.7
	c0.1,0.2,0.2,0.3,0.3,0.5c0.2,0.3,0.3,0.5,0.5,0.7c0.1,0.1,0.2,0.3,0.3,0.4c0.2,0.3,0.4,0.5,0.6,0.8c0.1,0.1,0.2,0.2,0.3,0.3
	c0.6,0.7,1.3,1.4,2,2c0.1,0.1,0.2,0.2,0.4,0.3c0.2,0.2,0.5,0.4,0.7,0.6c0.1,0.1,0.3,0.2,0.5,0.3c0.2,0.2,0.5,0.3,0.7,0.5
	c0.2,0.1,0.3,0.2,0.5,0.3c0.2,0.2,0.5,0.3,0.7,0.4c0.2,0.1,0.4,0.2,0.5,0.3c0.2,0.1,0.5,0.3,0.7,0.4c0.2,0.1,0.4,0.2,0.6,0.3
	c0.3,0.1,0.5,0.2,0.8,0.3c0.2,0.1,0.4,0.2,0.6,0.2c0.3,0.1,0.5,0.2,0.8,0.3c0.2,0.1,0.4,0.1,0.6,0.2c0.1,0,0.1,0,0.2,0.1
	C78.6,30.3,73.8,40.1,66.2,48.4z"/>
<circle class="st0" cx="63.8" cy="24.8" r="5.6"/>
<path class="st2" d="M63.8,31.5c-1.7,0-3.4-0.7-4.7-2c-1.3-1.3-2-3-2-4.7c0-1.8,0.7-3.5,2-4.7c2.6-2.6,6.9-2.6,9.5,0
	c1.3,1.3,2,3,2,4.7c0,1.8-0.7,3.5-2,4.7l0,0l0,0C67.3,30.9,65.6,31.5,63.8,31.5z M63.8,20.4c-1.1,0-2.3,0.4-3.2,1.3
	c-0.8,0.8-1.3,2-1.3,3.2c0,1.2,0.5,2.3,1.3,3.2c1.7,1.7,4.6,1.7,6.3,0l0,0c0.8-0.8,1.3-2,1.3-3.2c0-1.2-0.5-2.3-1.3-3.2
	C66.1,20.8,65,20.4,63.8,20.4z"/>
<circle class="st0" cx="49" cy="39.7" r="7.4"/>
<path class="st2" d="M49,48.3c-2.2,0-4.4-0.8-6.1-2.5c-3.3-3.3-3.3-8.8,0-12.1c3.3-3.3,8.8-3.3,12.1,0c3.3,3.3,3.3,8.8,0,12.1
	C53.4,47.4,51.2,48.3,49,48.3z M49,33.4c-1.7,0-3.3,0.7-4.5,1.9c-2.5,2.5-2.5,6.5,0,8.9c1.2,1.2,2.8,1.9,4.5,1.9
	c1.7,0,3.3-0.7,4.5-1.9c2.5-2.5,2.5-6.5,0-8.9C52.2,34,50.7,33.4,49,33.4z"/>
</svg>
