<?xml version="1.0" encoding="utf-8"?>
<!-- Generator: Adobe Illustrator 23.0.3, SVG Export Plug-In . SVG Version: 6.00 Build 0)  -->
<svg version="1.1" id="layer_1" xmlns="http://www.w3.org/2000/svg" xmlns:xlink="http://www.w3.org/1999/xlink" x="0px" y="0px"
	 viewBox="0 0 98.3 80.7" style="enable-background:new 0 0 98.3 80.7;" xml:space="preserve">
<style type="text/css">
	.st0{fill:#E66673;}
	.st1{fill:#FFFFFF;}
	.st2{fill:#3F232C;}
</style>
<path class="st0" d="M93.3,1.1H5C2.8,1.1,1.1,2.8,1.1,5v55c0,2.1,1.7,3.8,3.8,3.8h88.3c2.1,0,3.8-1.7,3.8-3.8V5
	C97.1,2.8,95.4,1.1,93.3,1.1z"/>
<rect x="7.8" y="7.8" class="st1" width="82.8" height="46.5"/>
<path class="st2" d="M90.5,55.4H7.8c-0.6,0-1.1-0.5-1.1-1.1V7.8c0-0.6,0.5-1.1,1.1-1.1h82.8c0.6,0,1.1,0.5,1.1,1.1v46.5
	C91.6,54.9,91.1,55.4,90.5,55.4z M8.9,53.1h80.5V8.9H8.9V53.1z"/>
<rect x="17.1" y="74.7" class="st0" width="64.1" height="4.9"/>
<path class="st2" d="M46.5,60.1h-5.6c-0.6,0-1.1-0.5-1.1-1.1c0-0.6,0.5-1.1,1.1-1.1h5.6c0.6,0,1.1,0.5,1.1,1.1
	C47.6,59.6,47.1,60.1,46.5,60.1z"/>
<path class="st2" d="M57.4,60.1h-5.6c-0.6,0-1.1-0.5-1.1-1.1c0-0.6,0.5-1.1,1.1-1.1h5.6c0.6,0,1.1,0.5,1.1,1.1
	C58.5,59.6,58,60.1,57.4,60.1z"/>
<polygon class="st0" points="36.7,74.7 30,74.7 35.6,63.8 42.3,63.8 "/>
<polygon class="st0" points="61.6,74.7 68.3,74.7 62.7,63.8 55.9,63.8 "/>
<path class="st2" d="M93.3,0H5C2.2,0,0,2.2,0,5v55c0,2.7,2.2,5,5,5h28.8l-4.5,8.7H17.1c-0.6,0-1.1,0.5-1.1,1.1v4.9
	c0,0.6,0.5,1.1,1.1,1.1h64.1c0.6,0,1.1-0.5,1.1-1.1v-4.9c0-0.6-0.5-1.1-1.1-1.1H69l-4.5-8.7h28.8c2.7,0,5-2.2,5-5V5
	C98.3,2.2,96,0,93.3,0z M36.3,64.9h4.2L36,73.6h-4.2L36.3,64.9z M55.2,64.9l4.5,8.7H38.6l4.5-8.7H55.2z M80,78.5H18.2v-2.6H30h6.7
	h24.9h6.7H80V78.5z M66.5,73.6h-4.2l-4.5-8.7H62L66.5,73.6z M96,60c0,1.5-1.2,2.7-2.7,2.7H62.7h-6.7H42.3h-6.7H5
	c-1.5,0-2.7-1.2-2.7-2.7V5c0-1.5,1.2-2.7,2.7-2.7h88.3C94.8,2.3,96,3.5,96,5V60z"/>
<path class="st0" d="M36,26.5c0.1-0.6,0.2-1.2,0.2-1.9c0-0.6-0.1-1.2-0.2-1.9l-3.9-0.6c-0.1-0.3-0.3-0.7-0.4-1L34,18
	c-0.7-1-1.6-1.9-2.6-2.6l-3.2,2.3c-0.3-0.2-0.7-0.3-1-0.4l-0.6-3.9c-0.6-0.1-1.2-0.2-1.9-0.2c-0.6,0-1.3,0.1-1.9,0.2l-0.6,3.9
	c-0.3,0.1-0.7,0.3-1,0.4l-3.2-2.3c-1,0.7-1.9,1.6-2.6,2.6l2.3,3.2c-0.2,0.3-0.3,0.7-0.4,1l-3.9,0.6c-0.1,0.6-0.2,1.2-0.2,1.9
	c0,0.6,0.1,1.2,0.2,1.9l3.9,0.6c0.1,0.3,0.3,0.7,0.4,1l-2.3,3.2c0.7,1,1.6,1.9,2.6,2.6l3.2-2.3c0.3,0.2,0.7,0.3,1,0.4l0.6,3.9
	c0.6,0.1,1.2,0.1,1.9,0.1c0.6,0,1.3-0.1,1.9-0.1l0.6-3.9c0.3-0.1,0.7-0.3,1-0.4l3.2,2.3c1-0.7,1.9-1.6,2.6-2.6l-2.3-3.2
	c0.2-0.3,0.3-0.7,0.4-1L36,26.5z"/>
<path class="st2" d="M24.7,37.2c-0.7,0-1.4-0.1-2-0.2c-0.5-0.1-0.9-0.5-0.9-0.9L21.3,33l-2.5,1.8c-0.4,0.3-0.9,0.3-1.3,0
	c-1.1-0.8-2.1-1.8-2.9-2.9c-0.3-0.4-0.3-0.9,0-1.3l1.8-2.5l-3.1-0.5c-0.5-0.1-0.9-0.4-0.9-0.9c-0.1-0.7-0.2-1.4-0.2-2
	c0-0.7,0.1-1.4,0.2-2c0.1-0.5,0.5-0.9,0.9-0.9l3.1-0.5l-1.8-2.5c-0.3-0.4-0.3-0.9,0-1.3c0.8-1.1,1.8-2.1,2.9-2.9
	c0.4-0.3,0.9-0.3,1.3,0l2.5,1.8l0.5-3.1c0.1-0.5,0.4-0.9,0.9-0.9c1.3-0.2,2.7-0.2,4.1,0c0.5,0.1,0.9,0.5,0.9,0.9l0.5,3.1l2.5-1.8
	c0.4-0.3,0.9-0.3,1.3,0c1.1,0.8,2.1,1.8,2.9,2.9c0.3,0.4,0.3,0.9,0,1.3l-1.8,2.5l3.1,0.5c0.5,0.1,0.9,0.5,0.9,0.9
	c0.1,0.7,0.2,1.4,0.2,2s-0.1,1.3-0.2,2c-0.1,0.5-0.5,0.9-0.9,0.9l-3.1,0.5l1.8,2.5c0.3,0.4,0.3,0.9,0,1.3c-0.8,1.1-1.8,2.1-2.9,2.9
	c-0.4,0.3-0.9,0.3-1.3,0L28.2,33l-0.5,3.1c-0.1,0.5-0.5,0.9-0.9,0.9C26.1,37.2,25.4,37.2,24.7,37.2z M23.9,34.9c0.6,0,1.2,0,1.7,0
	l0.5-3c0.1-0.4,0.4-0.8,0.8-0.9c0.3-0.1,0.6-0.2,0.9-0.4c0.4-0.2,0.8-0.2,1.2,0.1l2.5,1.8c0.4-0.4,0.9-0.8,1.2-1.2l-1.8-2.5
	c-0.2-0.3-0.3-0.8-0.1-1.2c0.1-0.3,0.3-0.6,0.4-0.9c0.1-0.4,0.5-0.7,0.9-0.8l3-0.5c0-0.3,0-0.6,0-0.9c0-0.3,0-0.6,0-0.9l-3-0.5
	c-0.4-0.1-0.8-0.4-0.9-0.8c-0.1-0.3-0.2-0.6-0.4-0.9c-0.2-0.4-0.2-0.8,0.1-1.2l1.8-2.5c-0.4-0.4-0.8-0.9-1.2-1.2l-2.5,1.8
	c-0.3,0.2-0.8,0.3-1.2,0.1c-0.3-0.1-0.6-0.3-0.9-0.4c-0.4-0.1-0.7-0.5-0.8-0.9l-0.5-3c-0.6-0.1-1.2-0.1-1.7,0l-0.5,3
	c-0.1,0.4-0.4,0.8-0.8,0.9c-0.3,0.1-0.6,0.2-0.9,0.4c-0.4,0.2-0.8,0.1-1.2-0.1l-2.5-1.8c-0.4,0.4-0.9,0.8-1.2,1.2l1.8,2.5
	c0.2,0.3,0.3,0.8,0.1,1.2c-0.1,0.3-0.3,0.6-0.4,0.8c-0.1,0.4-0.5,0.7-0.9,0.8l-3,0.5c0,0.3,0,0.6,0,0.9c0,0.3,0,0.6,0,0.9l3,0.5
	c0.4,0.1,0.8,0.4,0.9,0.8c0.1,0.3,0.2,0.6,0.3,0.8c0.2,0.4,0.2,0.8-0.1,1.2l-1.8,2.5c0.4,0.4,0.8,0.9,1.2,1.2l2.5-1.8
	c0.3-0.2,0.8-0.3,1.2-0.1c0.3,0.1,0.5,0.2,0.8,0.4c0.4,0.1,0.7,0.5,0.8,0.9L23.9,34.9z M36,26.5L36,26.5L36,26.5z"/>
<path class="st1" d="M28.5,24.7c0,2.1-1.7,3.7-3.7,3.7c-2.1,0-3.7-1.7-3.7-3.7c0-2.1,1.7-3.7,3.7-3.7C26.8,21,28.5,22.6,28.5,24.7z"
	/>
<path class="st2" d="M24.7,29.5c-2.7,0-4.9-2.2-4.9-4.9c0-2.7,2.2-4.9,4.9-4.9c2.7,0,4.9,2.2,4.9,4.9C29.6,27.4,27.4,29.5,24.7,29.5
	z M24.7,22.1c-1.4,0-2.6,1.2-2.6,2.6c0,1.4,1.2,2.6,2.6,2.6c1.4,0,2.6-1.2,2.6-2.6C27.3,23.3,26.2,22.1,24.7,22.1z"/>
<path class="st0" d="M58.6,39c0.1-0.6,0.2-1.2,0.2-1.9c0-0.6-0.1-1.2-0.2-1.9l-3.9-0.6c-0.1-0.3-0.3-0.7-0.4-1l2.3-3.2
	c-0.7-1-1.6-1.9-2.6-2.6l-3.2,2.3c-0.3-0.2-0.7-0.3-1-0.4l-0.6-3.9c-0.6-0.1-1.2-0.2-1.9-0.2c-0.6,0-1.3,0.1-1.9,0.2l-0.6,3.9
	c-0.3,0.1-0.7,0.3-1,0.4l-3.2-2.3c-1,0.7-1.9,1.6-2.6,2.6l2.3,3.2c-0.2,0.3-0.3,0.7-0.4,1l-3.9,0.6c-0.1,0.6-0.2,1.2-0.2,1.9
	c0,0.6,0.1,1.2,0.2,1.9l3.9,0.6c0.1,0.3,0.3,0.7,0.4,1L38,43.8c0.7,1,1.6,1.9,2.6,2.6l3.2-2.3c0.3,0.2,0.7,0.3,1,0.4l0.6,3.9
	c0.6,0.1,1.2,0.2,1.9,0.2c0.6,0,1.2-0.1,1.9-0.2l0.6-3.9c0.3-0.1,0.7-0.3,1-0.4l3.2,2.3c1-0.7,1.9-1.6,2.6-2.6l-2.3-3.2
	c0.2-0.3,0.3-0.7,0.4-1L58.6,39z"/>
<path class="st2" d="M47.3,49.6c-0.7,0-1.4-0.1-2-0.2c-0.5-0.1-0.9-0.5-0.9-0.9l-0.5-3.1l-2.5,1.8c-0.4,0.3-0.9,0.3-1.3,0
	c-1.1-0.8-2.1-1.8-2.9-2.9c-0.3-0.4-0.3-0.9,0-1.3l1.8-2.5l-3.1-0.5c-0.5-0.1-0.9-0.4-0.9-0.9c-0.1-0.7-0.2-1.4-0.2-2
	c0-0.7,0.1-1.4,0.2-2c0.1-0.5,0.5-0.9,0.9-0.9l3.1-0.5l-1.8-2.5c-0.3-0.4-0.3-0.9,0-1.3c0.8-1.1,1.8-2.1,2.9-2.9
	c0.4-0.3,0.9-0.3,1.3,0l2.5,1.8l0.5-3.1c0.1-0.5,0.4-0.9,0.9-0.9c1.3-0.2,2.7-0.2,4.1,0c0.5,0.1,0.9,0.5,0.9,0.9l0.5,3.1l2.5-1.8
	c0.4-0.3,0.9-0.3,1.3,0c1.1,0.8,2.1,1.8,2.9,2.9c0.3,0.4,0.3,0.9,0,1.3l-1.8,2.5l3.1,0.5c0.5,0.1,0.9,0.5,0.9,0.9
	c0.1,0.7,0.2,1.4,0.2,2c0,0.7-0.1,1.3-0.2,2c-0.1,0.5-0.5,0.9-0.9,0.9l-3.1,0.5l1.8,2.5c0.3,0.4,0.3,0.9,0,1.3
	c-0.8,1.1-1.8,2.1-2.9,2.9c-0.4,0.3-0.9,0.3-1.3,0l-2.5-1.8l-0.5,3.1c-0.1,0.5-0.5,0.9-0.9,0.9C48.7,49.6,48,49.6,47.3,49.6z
	 M46.4,47.4c0.6,0,1.2,0,1.7,0l0.5-3c0.1-0.4,0.4-0.8,0.8-0.9c0.3-0.1,0.6-0.2,0.9-0.4c0.4-0.2,0.8-0.2,1.2,0.1l2.5,1.8
	c0.4-0.4,0.9-0.8,1.2-1.2l-1.8-2.5c-0.2-0.3-0.3-0.8-0.1-1.2c0.1-0.3,0.3-0.6,0.4-0.9c0.1-0.4,0.5-0.7,0.9-0.8l3-0.5
	c0-0.3,0-0.6,0-0.9c0-0.3,0-0.6,0-0.9l-3-0.5c-0.4-0.1-0.8-0.4-0.9-0.8c-0.1-0.3-0.2-0.6-0.4-0.9c-0.2-0.4-0.2-0.8,0.1-1.2l1.8-2.5
	c-0.4-0.4-0.8-0.9-1.2-1.2l-2.5,1.8c-0.3,0.2-0.8,0.3-1.2,0.1c-0.3-0.1-0.6-0.3-0.9-0.4c-0.4-0.1-0.7-0.5-0.8-0.9l-0.5-3
	c-0.6-0.1-1.2-0.1-1.7,0l-0.5,3c-0.1,0.4-0.4,0.8-0.8,0.9c-0.3,0.1-0.6,0.2-0.9,0.4c-0.4,0.2-0.8,0.1-1.2-0.1l-2.5-1.8
	c-0.4,0.4-0.9,0.8-1.2,1.2l1.8,2.5c0.2,0.3,0.3,0.8,0.1,1.2c-0.1,0.3-0.3,0.6-0.3,0.8c-0.1,0.4-0.5,0.7-0.9,0.8l-3,0.5
	c0,0.3,0,0.6,0,0.9c0,0.3,0,0.6,0,0.9l3,0.5c0.4,0.1,0.8,0.4,0.9,0.8c0.1,0.3,0.2,0.6,0.3,0.8c0.2,0.4,0.2,0.8-0.1,1.2l-1.8,2.5
	c0.4,0.4,0.8,0.9,1.2,1.2l2.5-1.8c0.3-0.2,0.8-0.3,1.2-0.1c0.3,0.1,0.5,0.2,0.8,0.4c0.4,0.1,0.7,0.5,0.8,0.9L46.4,47.4z M58.6,39
	L58.6,39L58.6,39z"/>
<path class="st2" d="M84.1,46.8V15.2c0.5-0.1,1-0.5,1-1.1c0-0.6-0.5-1.1-1.1-1.1H82c-0.6,0-1.1,0.5-1.1,1.1c0,0.6,0.4,1,1,1.1v31.6
	c-0.6,0.1-1,0.5-1,1.1c0,0.6,0.5,1.1,1.1,1.1h2c0.6,0,1.1-0.5,1.1-1.1C85.1,47.3,84.6,46.8,84.1,46.8z"/>
<path class="st2" d="M75.6,46.8V15.2c0.5-0.1,1-0.5,1-1.1c0-0.6-0.5-1.1-1.1-1.1h-1.9c-0.6,0-1.1,0.5-1.1,1.1c0,0.6,0.4,1,1,1.1
	v31.6c-0.6,0.1-1,0.5-1,1.1c0,0.6,0.5,1.1,1.1,1.1h2c0.6,0,1.1-0.5,1.1-1.1C76.6,47.3,76.1,46.8,75.6,46.8z"/>
<path class="st2" d="M67.1,46.8V15.2c0.5-0.1,1-0.5,1-1.1c0-0.6-0.5-1.1-1.1-1.1H65c-0.6,0-1.1,0.5-1.1,1.1c0,0.6,0.4,1,1,1.1v31.6
	c-0.6,0.1-1,0.5-1,1.1c0,0.6,0.5,1.1,1.1,1.1h2c0.6,0,1.1-0.5,1.1-1.1C68.1,47.3,67.7,46.8,67.1,46.8z"/>
<path class="st1" d="M51,37.1c0,2.1-1.7,3.7-3.7,3.7c-2.1,0-3.7-1.7-3.7-3.7c0-2.1,1.7-3.7,3.7-3.7C49.4,33.4,51,35.1,51,37.1z"/>
<path class="st2" d="M47.3,42c-2.7,0-4.9-2.2-4.9-4.8c0-2.7,2.2-4.9,4.9-4.9s4.9,2.2,4.9,4.9C52.2,39.8,50,42,47.3,42z M47.3,34.5
	c-1.4,0-2.6,1.2-2.6,2.6c0,1.4,1.2,2.6,2.6,2.6c1.4,0,2.6-1.2,2.6-2.6C49.9,35.7,48.7,34.5,47.3,34.5z"/>
<path class="st0" d="M85.5,29c0,1.4-1.1,2.6-2.6,2.6c-1.4,0-2.6-1.1-2.6-2.6c0-1.4,1.1-2.6,2.6-2.6C84.4,26.5,85.5,27.6,85.5,29z"/>
<path class="st2" d="M83,32.7c-2,0-3.7-1.7-3.7-3.7s1.7-3.7,3.7-3.7c2,0,3.7,1.7,3.7,3.7S85,32.7,83,32.7z M83,27.6
	c-0.8,0-1.4,0.6-1.4,1.4c0,0.8,0.6,1.4,1.4,1.4c0.8,0,1.4-0.6,1.4-1.4C84.4,28.3,83.7,27.6,83,27.6z"/>
<path class="st0" d="M77,36.8c0,1.4-1.1,2.6-2.6,2.6c-1.4,0-2.6-1.1-2.6-2.6c0-1.4,1.1-2.6,2.6-2.6C75.9,34.2,77,35.4,77,36.8z"/>
<path class="st2" d="M74.5,40.5c-2,0-3.7-1.7-3.7-3.7c0-2,1.7-3.7,3.7-3.7c2,0,3.7,1.7,3.7,3.7C78.2,38.8,76.5,40.5,74.5,40.5z
	 M74.5,35.4c-0.8,0-1.4,0.6-1.4,1.4c0,0.8,0.6,1.4,1.4,1.4c0.8,0,1.4-0.6,1.4-1.4C75.9,36,75.3,35.4,74.5,35.4z"/>
<path class="st0" d="M68.5,20.7c0,1.4-1.1,2.6-2.6,2.6c-1.4,0-2.6-1.1-2.6-2.6c0-1.4,1.1-2.6,2.6-2.6C67.4,18.2,68.5,19.3,68.5,20.7
	z"/>
<path class="st2" d="M66,24.4c-2,0-3.7-1.7-3.7-3.7c0-2,1.7-3.7,3.7-3.7c2,0,3.7,1.7,3.7,3.7C69.7,22.8,68,24.4,66,24.4z M66,19.3
	c-0.8,0-1.4,0.6-1.4,1.4c0,0.8,0.6,1.4,1.4,1.4c0.8,0,1.4-0.6,1.4-1.4C67.4,19.9,66.8,19.3,66,19.3z"/>
</svg>
