<?xml version="1.0" encoding="utf-8"?>
<!-- Generator: Adobe Illustrator 23.0.3, SVG Export Plug-In . SVG Version: 6.00 Build 0)  -->
<svg version="1.1" id="layer_1" xmlns="http://www.w3.org/2000/svg" xmlns:xlink="http://www.w3.org/1999/xlink" x="0px" y="0px"
	 viewBox="0 0 91.2 85.5" style="enable-background:new 0 0 91.2 85.5;" xml:space="preserve">
<style type="text/css">
	.st0{fill:#94D0B7;}
	.st1{fill:#253F31;}
	.st2{fill:#FFFFFF;}
</style>
<g>
	<path class="st0" d="M1.1,40.5c0-5.1,5-9.2,6.5-9.2c1.5,0,2.7,4.1,2.7,9.2c0,5.1-1.2,9.2-2.7,9.2C6.1,49.6,1.1,45.5,1.1,40.5z"/>
	<path class="st1" d="M7.6,50.8C5.5,50.8,0,46.2,0,40.5c0-5.7,5.5-10.3,7.6-10.3c3,0,3.8,6.5,3.8,10.3C11.4,44.3,10.6,50.8,7.6,50.8
		z M7.6,48.5L7.6,48.5L7.6,48.5z M7.5,32.5c-1,0.2-5.3,3.7-5.3,8c0,4.3,4.2,7.7,5.3,8c0.5-0.4,1.6-3.1,1.6-8
		C9.2,35.6,8.1,32.9,7.5,32.5z"/>
	<path class="st0" d="M9.9,26.2c-2.3,0-4.2,6.4-4.2,14.3c0,7.9,1.9,14.3,4.2,14.3h5.9V26.2H9.9z"/>
	<path class="st1" d="M15.8,55.9H9.9c-3.7,0-5.3-8-5.3-15.4S6.2,25,9.9,25h5.9c0.6,0,1.1,0.5,1.1,1.1v28.6
		C17,55.4,16.4,55.9,15.8,55.9z M9.9,27.3c-0.9,0-3.1,4.5-3.1,13.2c0,8.7,2.1,13.2,3.1,13.2h4.8V27.3H9.9z"/>
	<path class="st1" d="M45.1,81c-0.6,0-1.1-0.5-1.1-1.1c0-0.6,0.5-1.1,1.1-1.1c17.1,0,31.1-17.2,31.1-38.2
		c0-21.1-13.9-38.2-31.1-38.2C27.9,2.3,14,19.4,14,40.5c0,0.6-0.5,1.1-1.1,1.1c-0.6,0-1.1-0.5-1.1-1.1C11.7,18.2,26.7,0,45.1,0
		c18.4,0,33.3,18.2,33.3,40.5C78.4,62.8,63.5,81,45.1,81z"/>
	<path class="st0" d="M49.5,79.9c0,2.5-2,4.5-4.5,4.5s-4.5-2-4.5-4.5c0-2.5,2-4.5,4.5-4.5S49.5,77.4,49.5,79.9z"/>
	<path class="st1" d="M45.1,85.5c-3.1,0-5.6-2.5-5.6-5.6c0-3.1,2.5-5.6,5.6-5.6c3.1,0,5.6,2.5,5.6,5.6
		C50.7,82.9,48.2,85.5,45.1,85.5z M45.1,76.5c-1.8,0-3.3,1.5-3.3,3.3c0,1.8,1.5,3.3,3.3,3.3c1.8,0,3.3-1.5,3.3-3.3
		C48.4,78,46.9,76.5,45.1,76.5z"/>
	<path class="st0" d="M20,40.5c0,7.9-1.9,14.3-4.2,14.3c-2.3,0-4.2-6.4-4.2-14.3c0-7.9,1.9-14.3,4.2-14.3C18.1,26.2,20,32.6,20,40.5
		z"/>
	<path class="st1" d="M15.8,55.9c-3.7,0-5.3-8-5.3-15.4S12.2,25,15.8,25c3.7,0,5.3,8,5.3,15.4S19.5,55.9,15.8,55.9z M15.8,27.3
		c-0.9,0-3.1,4.5-3.1,13.2c0,8.7,2.2,13.2,3.1,13.2c0.9,0,3.1-4.5,3.1-13.2C18.9,31.8,16.7,27.3,15.8,27.3z"/>
	<path class="st0" d="M74.3,26.2c-2.3,0-4.2,6.4-4.2,14.3c0,7.9,1.9,14.3,4.2,14.3h5.9V26.2H74.3z"/>
	<path class="st1" d="M80.2,55.9h-5.9c-3.7,0-5.3-8-5.3-15.4S70.7,25,74.3,25h5.9c0.6,0,1.1,0.5,1.1,1.1v28.6
		C81.4,55.4,80.9,55.9,80.2,55.9z M74.3,27.3c-0.9,0-3.1,4.5-3.1,13.2c0,8.7,2.2,13.2,3.1,13.2h4.8V27.3H74.3z"/>
	<path class="st2" d="M84.4,40.5c0,7.9-1.9,14.3-4.2,14.3c-2.3,0-4.2-6.4-4.2-14.3c0-7.9,1.9-14.3,4.2-14.3
		C82.6,26.2,84.4,32.6,84.4,40.5z"/>
	<path class="st1" d="M80.2,55.9c-3.7,0-5.3-8-5.3-15.4S76.6,25,80.2,25c3.7,0,5.3,8,5.3,15.4S83.9,55.9,80.2,55.9z M80.2,27.3
		c-0.9,0-3.1,4.5-3.1,13.2c0,8.7,2.1,13.2,3.1,13.2c0.9,0,3.1-4.5,3.1-13.2C83.3,31.8,81.2,27.3,80.2,27.3z"/>
	<path class="st0" d="M90,40.5c0,5.1-5,9.2-6.5,9.2c-1.5,0-2.7-4.1-2.7-9.2c0-5.1,1.2-9.2,2.7-9.2C85,31.3,90,35.4,90,40.5z"/>
	<path class="st1" d="M83.6,50.8c-3,0-3.8-6.5-3.8-10.3c0-3.8,0.8-10.3,3.8-10.3c2.1,0,7.6,4.6,7.6,10.3
		C91.2,46.2,85.7,50.8,83.6,50.8z M83.7,48.5L83.7,48.5L83.7,48.5z M83.6,32.5c-0.5,0.4-1.6,3.1-1.6,8c0,4.9,1.1,7.6,1.6,8
		c1-0.2,5.3-3.7,5.3-8C88.9,36.2,84.7,32.8,83.6,32.5z"/>
	<path class="st0" d="M63,45.6c0-7.9-8-14.3-17.9-14.3c-9.9,0-17.9,6.4-17.9,14.3c0,7.9,8,14.3,17.9,14.3v6.8l6-5.8
		c1.5-1.5,3.1-2.8,4.9-4C60.2,54.3,63,50.2,63,45.6z"/>
	<path class="st1" d="M45.1,67.8c-0.1,0-0.3,0-0.4-0.1c-0.4-0.2-0.7-0.6-0.7-1V61C34,60.6,26,53.8,26,45.6c0-8.5,8.5-15.4,19-15.4
		c10.5,0,19,6.9,19,15.4c0,4.8-2.7,9.3-7.5,12.3c-1.5,0.9-3,2.2-4.7,3.8l-6,5.8C45.6,67.7,45.4,67.8,45.1,67.8z M45.1,32.4
		c-9.2,0-16.8,5.9-16.8,13.2c0,7.3,7.5,13.2,16.8,13.2c0.6,0,1.1,0.5,1.1,1.1V64l4.1-4c1.8-1.8,3.5-3.1,5.1-4.1
		c4.1-2.5,6.4-6.3,6.4-10.3C61.8,38.4,54.3,32.4,45.1,32.4z"/>
	<path class="st1" d="M54.5,43.6H35.6c-0.6,0-1.1-0.5-1.1-1.1c0-0.6,0.5-1.1,1.1-1.1h18.9c0.6,0,1.1,0.5,1.1,1.1
		C55.7,43.1,55.2,43.6,54.5,43.6z"/>
	<path class="st1" d="M49.4,51.1H35.6c-0.6,0-1.1-0.5-1.1-1.1c0-0.6,0.5-1.1,1.1-1.1h13.8c0.6,0,1.1,0.5,1.1,1.1
		C50.5,50.6,50,51.1,49.4,51.1z"/>
</g>
</svg>
