<?xml version="1.0" encoding="utf-8"?>
<!-- Generator: Adobe Illustrator 23.0.3, SVG Export Plug-In . SVG Version: 6.00 Build 0)  -->
<svg version="1.1" id="layer_1" xmlns="http://www.w3.org/2000/svg" xmlns:xlink="http://www.w3.org/1999/xlink" x="0px" y="0px"
	 viewBox="0 0 98.3 86.7" style="enable-background:new 0 0 98.3 86.7;" xml:space="preserve">
<style type="text/css">
	.st0{fill:#BA4D9B;}
	.st1{fill:#3A1A35;}
	.st2{fill:#FFFFFF;}
	.st3{fill:#703407;}
</style>
<g>
	<polygon class="st0" points="49.1,85.5 1.1,61.5 49.1,37.5 97.1,61.5 	"/>
	<path class="st1" d="M49.1,86.7c-0.2,0-0.3,0-0.5-0.1l-48-24C0.2,62.4,0,62,0,61.5c0-0.4,0.2-0.8,0.6-1l48-24c0.3-0.2,0.7-0.2,1,0
		l48,24c0.4,0.2,0.6,0.6,0.6,1c0,0.4-0.2,0.8-0.6,1l-48,24C49.5,86.6,49.3,86.7,49.1,86.7z M3.7,61.5l45.5,22.7l45.5-22.7L49.1,38.8
		L3.7,61.5z"/>
	<polygon class="st2" points="49.1,79.6 12.9,61.5 49.1,43.4 85.3,61.5 	"/>
	<path class="st1" d="M49.1,80.8c-0.2,0-0.3,0-0.5-0.1L12.4,62.6c-0.4-0.2-0.6-0.6-0.6-1c0-0.4,0.2-0.8,0.6-1l36.2-18.1
		c0.3-0.2,0.7-0.2,1,0l36.2,18.1c0.4,0.2,0.6,0.6,0.6,1c0,0.4-0.2,0.8-0.6,1L49.6,80.7C49.5,80.7,49.3,80.8,49.1,80.8z M15.4,61.5
		l33.7,16.8l33.7-16.8L49.1,44.7L15.4,61.5z"/>
	<polygon class="st2" points="49.1,73.2 25.7,61.5 49.1,49.8 72.5,61.5 	"/>
	<path class="st1" d="M49.1,74.4c-0.2,0-0.3,0-0.5-0.1L25.2,62.6c-0.4-0.2-0.6-0.6-0.6-1c0-0.4,0.2-0.8,0.6-1l23.4-11.7
		c0.3-0.2,0.7-0.2,1,0L73,60.5c0.4,0.2,0.6,0.6,0.6,1c0,0.4-0.2,0.8-0.6,1L49.6,74.3C49.5,74.3,49.3,74.4,49.1,74.4z M28.3,61.5
		L49.1,72L70,61.5L49.1,51.1L28.3,61.5z"/>
	<polygon class="st2" points="49.1,66.8 38.5,61.5 49.1,56.2 59.7,61.5 	"/>
	<path class="st1" d="M49.1,68c-0.2,0-0.3,0-0.5-0.1L38,62.6c-0.4-0.2-0.6-0.6-0.6-1c0-0.4,0.2-0.8,0.6-1l10.6-5.3
		c0.3-0.2,0.7-0.2,1,0l10.6,5.3c0.4,0.2,0.6,0.6,0.6,1c0,0.4-0.2,0.8-0.6,1l-10.6,5.3C49.5,67.9,49.3,68,49.1,68z M41.1,61.5l8.1,4
		l8.1-4l-8.1-4L41.1,61.5z"/>
	<polygon class="st0" points="49.1,66.8 1.1,42.8 49.1,18.8 97.1,42.8 	"/>
	<path class="st1" d="M49.1,68c-0.2,0-0.3,0-0.5-0.1l-48-24c-0.4-0.2-0.6-0.6-0.6-1c0-0.4,0.2-0.8,0.6-1l48-24c0.3-0.2,0.7-0.2,1,0
		l48,24c0.4,0.2,0.6,0.6,0.6,1c0,0.4-0.2,0.8-0.6,1l-48,24C49.5,67.9,49.3,68,49.1,68z M3.7,42.8l45.5,22.7l45.5-22.7L49.1,20.1
		L3.7,42.8z"/>
	<polygon class="st2" points="49.1,60.9 12.9,42.8 49.1,24.7 85.3,42.8 	"/>
	<path class="st1" d="M49.1,62.1c-0.2,0-0.3,0-0.5-0.1L12.4,43.8c-0.4-0.2-0.6-0.6-0.6-1c0-0.4,0.2-0.8,0.6-1l36.2-18.1
		c0.3-0.2,0.7-0.2,1,0l36.2,18.1c0.4,0.2,0.6,0.6,0.6,1c0,0.4-0.2,0.8-0.6,1L49.6,61.9C49.5,62,49.3,62.1,49.1,62.1z M15.4,42.8
		l33.7,16.8l33.7-16.8L49.1,26L15.4,42.8z"/>
	<path class="st3" d="M55.1,38.9c-0.4,0-0.8-0.2-1-0.6c-0.3-0.6,0-1.2,0.5-1.5c0.6-0.3,1.3,0,1.5,0.5c0.3,0.6,0.1,1.2-0.5,1.5
		l-0.1,0C55.4,38.9,55.3,38.9,55.1,38.9z"/>
	<path class="st1" d="M49.1,50.3c-0.2,0-0.3,0-0.5-0.1l-48-24c-0.4-0.2-0.6-0.6-0.6-1c0-0.4,0.2-0.8,0.6-1l48-24
		c0.3-0.2,0.7-0.2,1,0l48,24c0.4,0.2,0.6,0.6,0.6,1c0,0.4-0.2,0.8-0.6,1l-48,24C49.5,50.2,49.3,50.3,49.1,50.3z M3.7,25.1l45.5,22.7
		l45.5-22.7L49.1,2.4L3.7,25.1z"/>
	<polygon class="st2" points="49.1,47.2 12.9,29.1 49.1,11 85.3,29.1 	"/>
	<polygon class="st0" points="49.1,49.1 1.1,25.1 49.1,1.1 97.1,25.1 	"/>
	<path class="st1" d="M85.8,24.1L49.6,6c-0.3-0.2-0.7-0.2-1,0L12.4,24.1c-0.4,0.2-0.6,0.6-0.6,1c0,0.4,0.2,0.8,0.6,1l36.2,18.1
		c0.2,0.1,0.3,0.1,0.5,0.1c0.2,0,0.3,0,0.5-0.1l36.2-18.1c0.4-0.2,0.6-0.6,0.6-1C86.5,24.7,86.2,24.3,85.8,24.1z M39.6,37.2
		l33.7-16.8l3.5,1.8L43.1,39L39.6,37.2z M33.6,34.2l33.7-16.8l3.5,1.8L37.1,35.9L33.6,34.2z M27.5,31.2l33.7-16.8l3.5,1.8L31,32.9
		L27.5,31.2z M21.5,28.1l33.7-16.8l3.5,1.8L25,29.9L21.5,28.1z M49.1,8.3l3.5,1.8L19,26.9l-3.5-1.8L49.1,8.3z M49.1,42l-3.5-1.8
		l33.7-16.8l3.5,1.8L49.1,42z"/>
</g>
</svg>
