<?xml version="1.0" encoding="utf-8"?>
<!-- Generator: Adobe Illustrator 23.0.3, SVG Export Plug-In . SVG Version: 6.00 Build 0)  -->
<svg version="1.1" id="layer_1" xmlns="http://www.w3.org/2000/svg" xmlns:xlink="http://www.w3.org/1999/xlink" x="0px" y="0px"
	 viewBox="0 0 98.52 78.96" style="enable-background:new 0 0 98.52 78.96;" xml:space="preserve">
<style type="text/css">
	.st0{fill:#E66673;}
	.st1{fill:#3F232C;}
</style>
<g>
	<g>
		<path class="st0" d="M9.24,74.98H5.89c-2.62,0-4.76-2.14-4.76-4.76V47.55c0-2.62,2.14-4.76,4.76-4.76h3.36
			c2.62,0,4.76,2.14,4.76,4.76v22.67C14,72.84,11.86,74.98,9.24,74.98z"/>
		<path class="st1" d="M8.63,76.11H6.5c-3.58,0-6.5-2.91-6.5-6.5V48.17c0-3.58,2.91-6.5,6.5-6.5h2.13c3.58,0,6.5,2.91,6.5,6.5v21.44
			C15.13,73.19,12.21,76.11,8.63,76.11z M6.5,43.93c-2.34,0-4.24,1.9-4.24,4.24v21.44c0,2.34,1.9,4.24,4.24,4.24h2.13
			c2.34,0,4.24-1.9,4.24-4.24V48.17c0-2.34-1.9-4.24-4.24-4.24H6.5z"/>
		<path class="st1" d="M7.56,50.37c-0.29,0-0.59-0.13-0.8-0.34c-0.2-0.2-0.33-0.5-0.33-0.8c0-0.29,0.12-0.59,0.33-0.79
			c0.43-0.43,1.18-0.42,1.6,0c0.2,0.2,0.33,0.5,0.33,0.79c0,0.31-0.13,0.6-0.33,0.8C8.15,50.24,7.86,50.37,7.56,50.37z"/>
		<path class="st1" d="M6.44,58.89c0-0.63,0.51-1.13,1.13-1.13l0,0c0.62,0,1.13,0.5,1.13,1.13l0,0c0,0.62-0.51,1.13-1.13,1.13l0,0
			C6.94,60.02,6.44,59.51,6.44,58.89z"/>
		<path class="st1" d="M7.56,69.67c-0.29,0-0.59-0.13-0.8-0.33c-0.2-0.21-0.33-0.51-0.33-0.8c0-0.29,0.12-0.59,0.33-0.8
			c0.42-0.42,1.17-0.42,1.6,0c0.2,0.21,0.33,0.51,0.33,0.8c0,0.29-0.11,0.59-0.33,0.8C8.15,69.54,7.86,69.67,7.56,69.67z"/>
	</g>
	<g>
		<path class="st0" d="M96.18,54.15c-2.31-2.08-10.93,2.43-29.64,8.63c2.55-1,3.46-2.46,3.54-3.92c0.41-6.59-5.19-6.26-5.19-6.26
			c-28.74,0.48-6.79-6.58-45.87-6.58v25.37c0,0,29.85,20.34,75.57-10.71C94.6,60.68,99.63,57.26,96.18,54.15z"/>
		<path class="st1" d="M96.94,53.31c-2.08-1.87-6.41-0.29-15.89,3.17c-2.85,1.04-6.2,2.27-10.05,3.6c0.13-0.4,0.19-0.79,0.21-1.15
			c0.15-2.47-0.44-4.39-1.76-5.71c-1.88-1.88-4.51-1.75-4.58-1.75c-13.04,0.22-15.28-1.09-17.86-2.6
			c-3.18-1.87-6.79-3.98-27.99-3.98c-0.62,0-1.13,0.51-1.13,1.13v25.37c0,0.38,0.18,0.72,0.49,0.93c0.17,0.12,10.08,6.64,26.96,6.64
			c12.95,0,29.99-3.84,49.89-17.34c0.32-0.21,3.1-2.18,3.27-4.82C98.57,55.91,98.35,54.58,96.94,53.31z M93.97,59.75
			C52.61,87.82,24.2,73.13,20.16,70.76V47.15c19.59,0.07,22.84,1.98,25.72,3.67c2.87,1.69,5.33,3.13,19.08,2.91
			c0.02-0.01,1.76-0.07,2.92,1.1c0.83,0.85,1.2,2.18,1.09,3.97c-0.08,1.25-0.99,2.21-2.78,2.92c-0.01,0-0.02,0.01-0.02,0.01
			c-0.01,0-0.02,0.01-0.04,0.02c-0.01,0-0.01,0-0.02,0c-3.88,1.51-11.05,1.61-21.31,0.28c-0.61-0.07-1.18,0.36-1.26,0.97
			c-0.08,0.62,0.36,1.19,0.97,1.27c4.84,0.63,9.03,0.94,12.57,0.94c4.25,0,7.54-0.45,9.86-1.35c0.01,0,0.02-0.01,0.03-0.01
			c5.94-1.97,10.89-3.78,14.87-5.23c7-2.56,12.53-4.57,13.6-3.61c0.6,0.54,0.87,1.07,0.83,1.64C96.17,57.96,94.57,59.33,93.97,59.75
			z"/>
	</g>
	<g>
		<g>
			
				<ellipse transform="matrix(0.973 -0.2308 0.2308 0.973 -4.7546 9.5634)" class="st0" cx="38.49" cy="25.1" rx="10.88" ry="10.88"/>
			<path class="st1" d="M38.49,37.11c-6.62,0-12.01-5.39-12.01-12.01c0-6.62,5.39-12.01,12.01-12.01c6.62,0,12.01,5.39,12.01,12.01
				C50.5,31.72,45.12,37.11,38.49,37.11z M38.49,15.35c-5.38,0-9.75,4.38-9.75,9.75c0,5.38,4.38,9.75,9.75,9.75
				c5.38,0,9.75-4.37,9.75-9.75C48.25,19.72,43.87,15.35,38.49,15.35z"/>
			<path class="st1" d="M38.49,23.97c-1.23,0-1.81-0.49-1.81-1.54c0-0.85,0.81-1.54,1.81-1.54s1.81,0.69,1.81,1.54
				c0,0.63,0.5,1.13,1.13,1.13c0.62,0,1.13-0.5,1.13-1.13c0-1.72-1.25-3.17-2.94-3.63V18.3c0-0.62-0.51-1.13-1.13-1.13
				c-0.62,0-1.13,0.51-1.13,1.13v0.51c-1.69,0.46-2.94,1.9-2.94,3.63c0,2.31,1.6,3.8,4.06,3.8c1.62,0,1.81,0.88,1.81,1.54
				c0,0.85-0.81,1.54-1.81,1.54s-1.81-0.69-1.81-1.54c0-0.63-0.51-1.13-1.13-1.13c-0.62,0-1.13,0.5-1.13,1.13
				c0,1.72,1.25,3.17,2.94,3.63v0.51c0,0.62,0.51,1.13,1.13,1.13c0.62,0,1.13-0.51,1.13-1.13V31.4c1.69-0.46,2.94-1.9,2.94-3.63
				C42.56,25.46,40.96,23.97,38.49,23.97z"/>
		</g>
		<g>
			<path class="st1" d="M38.49,11.06c-0.62,0-1.13-0.5-1.13-1.13V4.54c0-0.62,0.51-1.13,1.13-1.13c0.62,0,1.13,0.5,1.13,1.13v5.39
				C39.62,10.55,39.12,11.06,38.49,11.06z"/>
			<path class="st1" d="M29.54,14.42c-0.62,0-1.13-0.51-1.13-1.13V7.89c0-0.63,0.51-1.13,1.13-1.13c0.62,0,1.13,0.5,1.13,1.13v5.39
				C30.67,13.91,30.16,14.42,29.54,14.42z"/>
		</g>
	</g>
	<g>
		<g>
			<circle class="st0" cx="76.37" cy="30.49" r="10.88"/>
			<path class="st1" d="M76.37,42.5c-6.62,0-12.01-5.39-12.01-12.01s5.39-12.01,12.01-12.01c6.62,0,12.01,5.39,12.01,12.01
				S82.99,42.5,76.37,42.5z M76.37,20.74c-5.38,0-9.75,4.38-9.75,9.75c0,5.38,4.37,9.75,9.75,9.75c5.38,0,9.75-4.38,9.75-9.75
				C86.12,25.12,81.74,20.74,76.37,20.74z"/>
			<path class="st1" d="M76.37,29.36c-1.23,0-1.81-0.49-1.81-1.54c0-0.85,0.81-1.54,1.81-1.54s1.81,0.69,1.81,1.54
				c0,0.63,0.5,1.13,1.13,1.13c0.62,0,1.13-0.5,1.13-1.13c0-1.72-1.25-3.17-2.94-3.63v-0.51c0-0.62-0.51-1.13-1.13-1.13
				c-0.63,0-1.13,0.51-1.13,1.13v0.51c-1.69,0.46-2.94,1.9-2.94,3.63c0,2.31,1.6,3.8,4.06,3.8c1.62,0,1.81,0.88,1.81,1.54
				c0,0.85-0.81,1.54-1.81,1.54s-1.81-0.69-1.81-1.54c0-0.63-0.5-1.13-1.13-1.13c-0.62,0-1.13,0.5-1.13,1.13
				c0,1.72,1.25,3.17,2.94,3.63v0.51c0,0.62,0.5,1.13,1.13,1.13c0.62,0,1.13-0.51,1.13-1.13v-0.51c1.69-0.46,2.94-1.9,2.94-3.63
				C80.43,30.85,78.83,29.36,76.37,29.36z"/>
		</g>
		<g>
			<path class="st1" d="M76.37,16.52c-0.63,0-1.13-0.5-1.13-1.13V10c0-0.63,0.5-1.13,1.13-1.13c0.62,0,1.13,0.5,1.13,1.13v5.39
				C77.49,16.02,76.99,16.52,76.37,16.52z"/>
			<path class="st1" d="M85.32,19.88c-0.62,0-1.13-0.51-1.13-1.13v-5.39c0-0.63,0.51-1.13,1.13-1.13c0.63,0,1.13,0.5,1.13,1.13v5.39
				C86.45,19.38,85.95,19.88,85.32,19.88z"/>
		</g>
	</g>
	<g>
		<g>
			
				<ellipse transform="matrix(0.987 -0.1607 0.1607 0.987 -2.918 9.586)" class="st0" cx="57.79" cy="22.83" rx="10.88" ry="10.88"/>
			<path class="st1" d="M57.79,34.84c-6.62,0-12.01-5.39-12.01-12.01c0-6.62,5.39-12.01,12.01-12.01c6.62,0,12.01,5.39,12.01,12.01
				C69.8,29.45,64.42,34.84,57.79,34.84z M57.79,13.08c-5.38,0-9.75,4.38-9.75,9.75c0,5.38,4.38,9.75,9.75,9.75
				c5.38,0,9.75-4.38,9.75-9.75C67.55,17.45,63.17,13.08,57.79,13.08z"/>
			<path class="st1" d="M57.79,21.7c-1.62,0-1.8-0.88-1.8-1.54c0-0.85,0.81-1.54,1.8-1.54s1.81,0.69,1.81,1.54
				c0,0.63,0.5,1.13,1.13,1.13c0.62,0,1.13-0.5,1.13-1.13c0-1.72-1.25-3.17-2.94-3.63v-0.51c0-0.62-0.5-1.13-1.13-1.13
				c-0.62,0-1.13,0.51-1.13,1.13v0.51c-1.69,0.46-2.93,1.9-2.93,3.63c0,2.31,1.59,3.8,4.06,3.8c1.62,0,1.81,0.88,1.81,1.54
				c0,0.85-0.81,1.54-1.81,1.54s-1.8-0.69-1.8-1.54c0-0.63-0.51-1.13-1.13-1.13c-0.63,0-1.13,0.5-1.13,1.13
				c0,1.72,1.24,3.17,2.93,3.63v0.51c0,0.62,0.51,1.13,1.13,1.13c0.63,0,1.13-0.51,1.13-1.13v-0.51c1.69-0.46,2.94-1.9,2.94-3.63
				C61.86,23.19,60.26,21.7,57.79,21.7z"/>
		</g>
		<g>
			<path class="st1" d="M57.79,7.65c-0.62,0-1.13-0.5-1.13-1.13V1.13c0-0.62,0.51-1.13,1.13-1.13c0.63,0,1.13,0.51,1.13,1.13v5.39
				C58.92,7.15,58.42,7.65,57.79,7.65z"/>
			<path class="st1" d="M66.75,11.01c-0.63,0-1.13-0.5-1.13-1.13V4.49c0-0.62,0.5-1.13,1.13-1.13c0.62,0,1.13,0.51,1.13,1.13v5.39
				C67.88,10.51,67.38,11.01,66.75,11.01z"/>
			<path class="st1" d="M48.84,11.01c-0.62,0-1.13-0.5-1.13-1.13V4.49c0-0.62,0.51-1.13,1.13-1.13c0.62,0,1.13,0.51,1.13,1.13v5.39
				C49.97,10.51,49.46,11.01,48.84,11.01z"/>
		</g>
	</g>
</g>
</svg>
