<?xml version="1.0" encoding="utf-8"?>
<!-- Generator: Adobe Illustrator 23.0.3, SVG Export Plug-In . SVG Version: 6.00 Build 0)  -->
<svg version="1.1" id="layer_1" xmlns="http://www.w3.org/2000/svg" xmlns:xlink="http://www.w3.org/1999/xlink" x="0px" y="0px"
	 viewBox="0 0 104.66 74.06" style="enable-background:new 0 0 104.66 74.06;" xml:space="preserve">
<style type="text/css">
	.st0{fill:#94D0B7;}
	.st1{fill:#FFFFFF;}
	.st2{fill:#253F31;}
</style>
<g>
	<path class="st0" d="M99.76,62.85h-4.36V4.79c0-2.02-1.64-3.66-3.66-3.66H12.91c-2.02,0-3.66,1.64-3.66,3.66v58.06H4.89
		c-2.07,0-3.76,1.69-3.76,3.76l0,0c0,3.48,2.85,6.32,6.32,6.32H97.2c3.48,0,6.32-2.85,6.32-6.32
		C103.53,64.54,101.83,62.85,99.76,62.85z"/>
	<path class="st1" d="M70.74,62.85H33.93l0,0c0,2.74,2.24,4.98,4.98,4.98h26.86C68.5,67.83,70.74,65.59,70.74,62.85L70.74,62.85z"/>
	<path class="st2" d="M99.76,61.72h-3.23V4.79c0-2.64-2.15-4.79-4.79-4.79H12.91c-2.64,0-4.79,2.15-4.79,4.79v56.93H4.89
		c-2.7,0-4.89,2.2-4.89,4.89c0,4.11,3.34,7.45,7.45,7.45H97.2c4.11,0,7.45-3.34,7.45-7.45C104.66,63.91,102.46,61.72,99.76,61.72z
		 M10.38,4.79c0-1.39,1.13-2.53,2.53-2.53h78.84c1.39,0,2.53,1.13,2.53,2.53v56.93H70.74H33.93H10.38V4.79z M69.44,63.98
		c-0.48,1.57-1.95,2.72-3.68,2.72H38.91c-1.73,0-3.2-1.15-3.68-2.72H69.44z M97.2,71.81H7.45c-2.87,0-5.2-2.33-5.2-5.2
		c0-1.45,1.18-2.63,2.63-2.63h4.36h23.66c0.53,2.83,3.02,4.98,6,4.98h26.85c2.98,0,5.47-2.15,6-4.98h23.65h4.36
		c1.45,0,2.63,1.18,2.63,2.63C102.4,69.48,100.07,71.81,97.2,71.81z"/>
	<polygon class="st1" points="88.47,8.07 16.19,8.07 16.19,55.78 23.25,55.78 23.25,37.8 30.61,35.59 30.61,55.78 40.19,55.78 
		40.19,32.72 47.55,37.3 47.55,55.78 57.12,55.78 57.12,43.26 64.48,37.93 64.48,55.78 74.06,55.78 74.06,31 81.42,25.67 
		81.42,55.78 88.47,55.78 	"/>
	<polygon class="st0" points="74.06,31 74.06,55.78 81.42,55.78 81.42,25.67 	"/>
	<polygon class="st0" points="57.12,43.26 57.12,55.78 64.48,55.78 64.48,37.93 	"/>
	<polygon class="st0" points="40.19,32.72 40.19,55.78 47.55,55.78 47.55,37.3 	"/>
	<polygon class="st0" points="23.25,37.8 23.25,55.78 30.61,55.78 30.61,35.59 	"/>
	<path class="st2" d="M88.47,6.94H16.19c-0.62,0-1.13,0.5-1.13,1.13v47.71c0,0.63,0.51,1.13,1.13,1.13h7.06h7.36h9.58h7.36h9.57
		h7.36h9.58h7.36h7.05c0.62,0,1.13-0.5,1.13-1.13V8.07C89.6,7.44,89.09,6.94,88.47,6.94z M29.48,54.65h-5.1V38.64l5.1-1.53V54.65z
		 M46.42,54.65h-5.1v-19.9l5.1,3.17V54.65z M63.35,54.65h-5.1V43.83l5.1-3.69V54.65z M80.29,54.65h-5.1V31.57l5.1-3.69V54.65z
		 M87.34,54.65h-4.79V25.67c0-0.42-0.24-0.81-0.62-1.01c-0.38-0.19-0.83-0.16-1.17,0.09l-7.36,5.33c-0.29,0.21-0.47,0.55-0.47,0.91
		v23.65h-7.32V37.93c0-0.42-0.24-0.81-0.62-1.01c-0.38-0.19-0.83-0.16-1.17,0.09l-7.36,5.33c-0.29,0.21-0.47,0.55-0.47,0.91v11.39
		h-7.32V37.3c0-0.39-0.2-0.75-0.53-0.96l-7.36-4.58c-0.35-0.21-0.79-0.23-1.14-0.03c-0.36,0.2-0.58,0.58-0.58,0.99v21.93h-7.32
		V35.59c0-0.36-0.17-0.69-0.45-0.91c-0.14-0.11-0.31-0.18-0.48-0.21c-0.17-0.03-0.35-0.02-0.52,0.03l-7.36,2.21
		c-0.48,0.14-0.8,0.58-0.8,1.08v16.85h-4.8V9.2h70.02V54.65z"/>
	<path class="st2" d="M82.53,16.74c0.01-0.11,0.01-0.22-0.01-0.33c0-0.02-0.01-0.03-0.01-0.04c-0.03-0.15-0.09-0.3-0.18-0.43
		c-0.26-0.35-0.68-0.52-1.11-0.44l-7.55,1.37c-0.61,0.11-1.02,0.7-0.91,1.31c0.11,0.61,0.7,1.02,1.31,0.91l2.72-0.49L57.07,32.87
		L40.78,22.73c-0.27-0.17-0.61-0.22-0.92-0.12l-16.94,5.08c-0.6,0.18-0.94,0.81-0.76,1.41c0.18,0.6,0.81,0.94,1.41,0.76l16.45-4.93
		l16.5,10.27c0.18,0.12,0.39,0.17,0.6,0.17c0.23,0,0.46-0.07,0.66-0.21l20.39-14.76l-1.31,2.51c-0.29,0.55-0.07,1.24,0.48,1.53
		c0.17,0.09,0.35,0.13,0.52,0.13c0.41,0,0.8-0.22,1-0.61l3.49-6.68c0.02-0.04,0.04-0.08,0.06-0.12l0-0.01
		c0.02-0.04,0.03-0.07,0.04-0.11C82.49,16.93,82.52,16.84,82.53,16.74z"/>
</g>
</svg>
