<?xml version="1.0" encoding="utf-8"?>
<!-- Generator: Adobe Illustrator 23.0.3, SVG Export Plug-In . SVG Version: 6.00 Build 0)  -->
<svg version="1.1" id="layer_1" xmlns="http://www.w3.org/2000/svg" xmlns:xlink="http://www.w3.org/1999/xlink" x="0px" y="0px"
	 viewBox="0 0 81.72 79.06" style="enable-background:new 0 0 81.72 79.06;" xml:space="preserve">
<style type="text/css">
	.st0{fill:#BA4D9B;}
	.st1{fill:#3A1A35;}
	.st2{fill:#FFFFFF;}
</style>
<g>
	<path class="st0" d="M77.59,43.12c-0.46-0.23-0.49-0.82-0.08-1.13c1.24-0.94,2.52-2.87,2.52-5.98c0-3.68-2.87-6.71-5.94-6.71H51.26
		c0.62-2.2,1.84-7.54,1.27-13.91C51.78,7,47.81,1.34,43.1,1.15C38.38,0.96,36.68,2,36.68,2s2.25,11.06,1.04,14.81
		c-3.4,10.52-15.85,20-15.85,25.37c0,7.93,0,24.78,0,29.1v1.03v2.4c0,1.77,1.44,3.21,3.21,3.21h42.39c0.15,0,0.31-0.02,0.46-0.04
		c3.77-0.36,6.71-3.53,6.71-7.39c0-1.3-0.34-2.52-0.92-3.58c3.36-0.72,5.88-3.69,5.88-7.26c0-1.97-0.77-3.75-2.02-5.08
		c1.82-1.35,3.01-3.52,3.01-5.96C80.59,45.82,79.19,43.93,77.59,43.12z"/>
	<path class="st1" d="M67.48,79.06H25.08c-2.39,0-4.34-1.95-4.34-4.34V42.18c0-2.98,2.85-6.49,6.47-10.94
		c3.62-4.46,7.73-9.51,9.43-14.78c0.92-2.84-0.46-11.24-1.07-14.24c-0.09-0.47,0.11-0.94,0.52-1.19c0.21-0.12,2.14-1.21,7.05-1.01
		c5.4,0.21,9.72,6.49,10.51,15.27c0.49,5.45-0.31,10.2-0.94,12.88h21.37c3.76,0,7.07,3.66,7.07,7.84c0,3.51-1.47,5.5-2.46,6.45
		c1.55,1.04,3.03,3.1,3.03,6.16c0,2.3-0.94,4.5-2.57,6.1c1.02,1.44,1.58,3.16,1.58,4.94c0,3.55-2.23,6.71-5.45,7.97
		c0.33,0.92,0.5,1.9,0.5,2.88c0,4.43-3.32,8.09-7.73,8.52C67.88,79.04,67.68,79.06,67.48,79.06z M37.97,2.71
		c0.54,2.9,1.92,11.06,0.82,14.44c-1.83,5.68-6.08,10.9-9.83,15.51C25.9,36.44,23,40,23,42.18v32.54c0,1.15,0.93,2.08,2.08,2.08
		h42.39c0.1,0,0.21-0.01,0.31-0.03c3.29-0.31,5.74-3.01,5.74-6.27c0-1.05-0.27-2.11-0.78-3.04c-0.17-0.31-0.19-0.69-0.04-1.01
		c0.15-0.32,0.44-0.56,0.79-0.63c2.89-0.62,4.98-3.21,4.98-6.16c0-1.6-0.61-3.13-1.71-4.31c-0.22-0.23-0.33-0.55-0.3-0.87
		c0.03-0.32,0.19-0.61,0.45-0.81c1.62-1.2,2.55-3.04,2.55-5.05c0-2.42-1.23-3.91-2.38-4.49c-0.56-0.28-0.93-0.82-0.98-1.43
		c-0.06-0.62,0.22-1.22,0.73-1.61c0.62-0.47,2.07-1.91,2.07-5.07c0-2.92-2.29-5.58-4.81-5.58H51.26c-0.35,0-0.69-0.17-0.9-0.45
		c-0.21-0.28-0.28-0.65-0.19-0.99c0.56-1.97,1.79-7.24,1.23-13.5c-0.68-7.61-4.12-13.05-8.35-13.22
		C40.41,2.17,38.81,2.47,37.97,2.71z M78.1,42.11C78.1,42.11,78.1,42.11,78.1,42.11C78.1,42.11,78.1,42.11,78.1,42.11z"/>
	<path class="st0" d="M7.69,77.93L7.69,77.93c-3.61,0-6.56-2.95-6.56-6.56V43.99c0-3.61,2.95-6.56,6.56-6.56l0,0
		c3.61,0,6.56,2.95,6.56,6.56v27.39C14.24,74.98,11.29,77.93,7.69,77.93z"/>
	<path class="st1" d="M7.69,79.06C3.45,79.06,0,75.61,0,71.37V43.99c0-4.24,3.45-7.69,7.69-7.69c4.24,0,7.69,3.45,7.69,7.69v27.39
		C15.37,75.61,11.92,79.06,7.69,79.06z M7.69,38.56c-2.99,0-5.43,2.44-5.43,5.43v27.39c0,2.99,2.43,5.43,5.43,5.43
		s5.43-2.43,5.43-5.43V43.99C13.11,40.99,10.68,38.56,7.69,38.56z"/>
	<path class="st2" d="M66,56.34c0.15-0.93,0.24-1.88,0.24-2.86c0-0.97-0.09-1.93-0.24-2.85l-5.99-0.95
		c-0.18-0.53-0.4-1.04-0.64-1.54l3.56-4.91c-1.12-1.56-2.48-2.92-4.04-4.04l-4.91,3.56c-0.5-0.25-1.01-0.47-1.54-0.64l-0.95-5.99
		c-0.93-0.15-1.89-0.23-2.86-0.23c-0.97,0-1.93,0.08-2.85,0.23l-0.96,5.99c-0.53,0.18-1.04,0.4-1.54,0.64l-4.91-3.56
		c-1.55,1.12-2.92,2.48-4.04,4.04l3.56,4.91c-0.25,0.5-0.47,1.01-0.64,1.54l-5.99,0.95c-0.16,0.93-0.24,1.88-0.24,2.85
		c0,0.97,0.08,1.93,0.24,2.86l5.99,0.95c0.17,0.53,0.39,1.04,0.64,1.54l-3.56,4.91c1.12,1.56,2.48,2.92,4.04,4.04l4.91-3.57
		c0.5,0.25,1.01,0.47,1.54,0.64l0.96,5.99c0.93,0.15,1.88,0.23,2.85,0.23c0.97,0,1.93-0.08,2.86-0.23l0.95-5.99
		c0.53-0.18,1.04-0.39,1.54-0.64l4.91,3.57c1.56-1.12,2.92-2.48,4.04-4.04l-3.56-4.91c0.25-0.49,0.47-1.01,0.64-1.54L66,56.34z"/>
	<path class="st1" d="M48.64,72.21c-1.03,0-2.05-0.08-3.04-0.25c-0.48-0.08-0.85-0.46-0.93-0.94l-0.85-5.33
		c-0.14-0.06-0.27-0.11-0.41-0.17l-4.37,3.17c-0.4,0.29-0.93,0.29-1.32,0c-1.66-1.19-3.1-2.64-4.29-4.3c-0.28-0.4-0.28-0.93,0-1.32
		l3.17-4.37c-0.06-0.13-0.11-0.27-0.17-0.4l-5.33-0.85c-0.48-0.08-0.86-0.45-0.94-0.93c-0.17-1-0.25-2.02-0.25-3.04
		c0-1.02,0.08-2.04,0.25-3.04c0.08-0.48,0.46-0.85,0.94-0.93l5.33-0.85c0.05-0.14,0.11-0.27,0.17-0.41l-3.17-4.36
		c-0.29-0.39-0.29-0.93-0.01-1.32c1.18-1.66,2.63-3.1,4.29-4.3c0.4-0.28,0.93-0.28,1.32,0l4.37,3.17c0.14-0.06,0.27-0.12,0.4-0.17
		l0.85-5.34c0.08-0.48,0.45-0.86,0.93-0.94c2-0.33,4.08-0.33,6.08,0c0.48,0.08,0.85,0.46,0.93,0.94l0.85,5.34
		c0.13,0.05,0.27,0.11,0.4,0.17l4.37-3.17c0.39-0.29,0.93-0.29,1.32,0c1.66,1.2,3.11,2.64,4.3,4.3c0.28,0.4,0.28,0.93,0,1.32
		l-3.17,4.37c0.06,0.13,0.12,0.27,0.17,0.4l5.34,0.85c0.48,0.08,0.86,0.45,0.94,0.93c0.17,1.03,0.25,2.05,0.25,3.04
		c0,0.99-0.08,2.01-0.25,3.04c-0.08,0.48-0.46,0.86-0.94,0.93l-5.34,0.85c-0.05,0.13-0.11,0.27-0.17,0.4l3.17,4.37
		c0.29,0.39,0.29,0.93,0,1.32c-1.19,1.66-2.64,3.11-4.29,4.3c-0.39,0.28-0.93,0.28-1.32,0l-4.37-3.17
		c-0.13,0.06-0.27,0.12-0.41,0.17l-0.85,5.33c-0.08,0.48-0.45,0.86-0.93,0.94C50.69,72.13,49.67,72.21,48.64,72.21z M46.77,69.85
		c1.23,0.14,2.51,0.14,3.74,0l0.82-5.16c0.07-0.42,0.36-0.76,0.76-0.89c0.47-0.16,0.94-0.35,1.39-0.58
		c0.38-0.19,0.83-0.15,1.17,0.09l4.23,3.07c0.98-0.78,1.87-1.67,2.65-2.65l-3.07-4.24c-0.25-0.34-0.29-0.79-0.1-1.17
		c0.24-0.47,0.43-0.94,0.58-1.39c0.13-0.4,0.48-0.69,0.89-0.76L65,55.36c0.07-0.63,0.11-1.26,0.11-1.87c0-0.61-0.04-1.24-0.11-1.87
		l-5.17-0.82c-0.42-0.07-0.76-0.36-0.89-0.76c-0.15-0.45-0.34-0.91-0.58-1.39c-0.19-0.38-0.15-0.83,0.1-1.17l3.07-4.23
		c-0.78-0.98-1.66-1.87-2.65-2.65l-4.23,3.07c-0.34,0.25-0.79,0.29-1.17,0.1c-0.47-0.24-0.94-0.43-1.4-0.58
		c-0.4-0.13-0.69-0.48-0.76-0.89l-0.82-5.17c-1.24-0.14-2.5-0.14-3.74,0l-0.82,5.17c-0.07,0.42-0.36,0.76-0.76,0.89
		c-0.44,0.15-0.92,0.34-1.4,0.58c-0.38,0.19-0.82,0.15-1.16-0.1l-4.23-3.07c-0.98,0.78-1.87,1.67-2.65,2.65l3.07,4.23
		c0.25,0.34,0.29,0.8,0.09,1.17c-0.23,0.46-0.42,0.92-0.58,1.38c-0.13,0.4-0.48,0.7-0.89,0.76l-5.17,0.82
		c-0.07,0.62-0.11,1.25-0.11,1.87c0,0.62,0.04,1.25,0.11,1.87l5.17,0.82c0.42,0.07,0.76,0.36,0.89,0.76
		c0.15,0.46,0.35,0.93,0.58,1.38c0.19,0.38,0.16,0.83-0.09,1.17l-3.07,4.23c0.78,0.98,1.67,1.87,2.65,2.65l4.23-3.07
		c0.35-0.25,0.8-0.28,1.18-0.09c0.43,0.22,0.89,0.41,1.38,0.58c0.4,0.13,0.69,0.48,0.76,0.89L46.77,69.85z M66,56.34h0.01H66z"/>
	<path class="st0" d="M53.44,53.49c0,2.65-2.15,4.8-4.8,4.8c-2.65,0-4.8-2.15-4.8-4.8c0-2.65,2.15-4.8,4.8-4.8
		C51.29,48.69,53.44,50.84,53.44,53.49z"/>
	<path class="st1" d="M48.64,59.41c-3.27,0-5.93-2.66-5.93-5.93c0-3.27,2.66-5.93,5.93-5.93c3.27,0,5.93,2.66,5.93,5.93
		C54.57,56.75,51.91,59.41,48.64,59.41z M48.64,49.82c-2.02,0-3.67,1.65-3.67,3.67c0,2.02,1.65,3.67,3.67,3.67
		c2.02,0,3.67-1.65,3.67-3.67C52.31,51.46,50.67,49.82,48.64,49.82z"/>
	<path class="st1" d="M7.68,72.86c-0.29,0-0.59-0.12-0.8-0.33c-0.2-0.21-0.33-0.51-0.33-0.8c0-0.29,0.13-0.59,0.33-0.8
		c0.42-0.42,1.18-0.42,1.6,0c0.2,0.21,0.33,0.51,0.33,0.8c0,0.29-0.12,0.59-0.33,0.8C8.27,72.74,7.98,72.86,7.68,72.86z"/>
	<path class="st1" d="M7.68,66.89c-0.29,0-0.59-0.12-0.8-0.34c-0.2-0.2-0.33-0.5-0.33-0.79c0-0.31,0.13-0.59,0.33-0.8
		c0.42-0.42,1.18-0.42,1.6,0c0.2,0.21,0.33,0.5,0.33,0.8c0,0.29-0.12,0.59-0.33,0.79C8.27,66.77,7.98,66.89,7.68,66.89z"/>
</g>
</svg>
