<?xml version="1.0" encoding="utf-8"?>
<!-- Generator: Adobe Illustrator 23.0.3, SVG Export Plug-In . SVG Version: 6.00 Build 0)  -->
<svg version="1.1" id="layer_1" xmlns="http://www.w3.org/2000/svg" xmlns:xlink="http://www.w3.org/1999/xlink" x="0px" y="0px"
	 viewBox="0 0 88.66 88.66" style="enable-background:new 0 0 88.66 88.66;" xml:space="preserve">
<style type="text/css">
	.st0{fill:#F7BE56;}
	.st1{fill:#FFFFFF;}
	.st2{fill:#703407;}
</style>
<g>
	<path class="st0" d="M26.12,52.88c-9.35,4.23-8.73,18.3-8.73,18.39c0.09,0,14.16,0.62,18.39-8.73
		C31.98,60.05,28.61,56.68,26.12,52.88z"/>
	<path class="st1" d="M38.11,56.91c-2.38-1.82-4.54-3.98-6.36-6.36c-1.55-1.89-2.93-3.88-4.11-5.96c-0.93,2.2-1.71,4.54-2.31,7.06
		c0.25,0.42,0.52,0.83,0.79,1.24c2.49,3.8,5.86,7.17,9.66,9.66c0.41,0.27,0.82,0.54,1.24,0.79c2.52-0.6,4.86-1.38,7.06-2.31
		C42,59.83,40,58.45,38.11,56.91z"/>
	<path class="st1" d="M83,21.18c3.8-11.23,4.53-20.05,4.53-20.05s-8.82,0.73-20.05,4.53C69.35,13.31,75.35,19.31,83,21.18z"/>
	<path class="st0" d="M83,21.18c-7.65-1.87-13.66-7.87-15.53-15.52C53,10.57,34.51,20.58,25.72,40.74c0.56,1.3,1.21,2.59,1.92,3.84
		c1.18,2.08,2.57,4.07,4.11,5.96c1.82,2.38,3.98,4.54,6.36,6.36c1.89,1.55,3.88,2.93,5.96,4.11c1.26,0.71,2.54,1.37,3.84,1.92
		C68.08,54.15,78.1,35.66,83,21.18z"/>
	<path class="st0" d="M44.42,17.51c0,0-23.94-1.67-43.29,15.83c15.45,0.19,24.59,7.4,24.59,7.4c4.39-10.08,11.21-17.63,18.75-23.26
		L44.42,17.51z"/>
	<path class="st0" d="M71.15,44.24l0.03-0.04C65.54,51.73,58,58.55,47.92,62.94c0,0,7.22,9.14,7.41,24.59
		C72.82,68.18,71.15,44.24,71.15,44.24z"/>
	<path class="st2" d="M88.65,1.22c0.03-0.33-0.09-0.66-0.33-0.89C88.09,0.1,87.76-0.03,87.44,0c-0.37,0.03-9.09,0.78-20.32,4.59
		c-7.13,2.41-15.39,6.13-23.02,11.78c-3.23-0.12-25.6-0.25-43.72,16.13c-0.34,0.31-0.46,0.8-0.3,1.24c0.16,0.44,0.58,0.72,1.04,0.73
		c13.68,0.17,22.35,6.04,23.7,7.02c0.46,1.04,0.99,2.1,1.58,3.18c-0.88,2.17-1.62,4.42-2.17,6.72c-0.07,0.28-0.02,0.58,0.13,0.84
		c0.05,0.08,0.1,0.15,0.15,0.23c-8.79,5.09-8.25,18.73-8.24,18.87c0.03,0.58,0.49,1.05,1.07,1.07c0.02,0,0.21,0.01,0.55,0.01
		c2.62,0,13.8-0.49,18.31-8.26c0.08,0.05,0.17,0.11,0.25,0.16c0.17,0.11,0.37,0.16,0.58,0.16c0.09,0,0.18-0.01,0.26-0.03
		c2.3-0.55,4.56-1.28,6.73-2.17c1.07,0.59,2.14,1.13,3.18,1.58c0.98,1.35,6.85,10.02,7.01,23.7c0.01,0.46,0.29,0.88,0.73,1.04
		c0.13,0.05,0.26,0.07,0.4,0.07c0.31,0,0.62-0.13,0.84-0.37C72.55,70.16,72.41,47.8,72.29,44.57c5.65-7.63,9.36-15.9,11.78-23.03
		C87.87,10.31,88.62,1.59,88.65,1.22z M82.27,19.8c-0.06-0.02-0.13-0.03-0.19-0.05c-0.17-0.05-0.34-0.11-0.51-0.17
		c-0.25-0.08-0.5-0.17-0.74-0.26c-0.17-0.07-0.34-0.14-0.51-0.21c-0.24-0.1-0.47-0.2-0.7-0.31c-0.17-0.08-0.33-0.16-0.5-0.24
		c-0.23-0.11-0.45-0.23-0.68-0.35c-0.16-0.09-0.32-0.18-0.48-0.27c-0.22-0.13-0.44-0.26-0.65-0.4c-0.15-0.1-0.3-0.19-0.45-0.29
		c-0.22-0.15-0.44-0.3-0.65-0.46c-0.13-0.1-0.27-0.19-0.4-0.29c-0.23-0.18-0.46-0.37-0.68-0.56c-0.1-0.09-0.21-0.17-0.32-0.26
		c-0.65-0.57-1.25-1.18-1.82-1.82c-0.09-0.11-0.18-0.22-0.27-0.33c-0.19-0.22-0.37-0.44-0.54-0.67c-0.1-0.13-0.2-0.27-0.3-0.41
		c-0.15-0.21-0.31-0.42-0.45-0.64c-0.1-0.15-0.2-0.3-0.29-0.46c-0.13-0.21-0.27-0.43-0.39-0.64c-0.09-0.16-0.18-0.33-0.27-0.49
		C70.32,10,70.21,9.78,70.1,9.56c-0.08-0.17-0.17-0.34-0.24-0.51c-0.11-0.23-0.21-0.46-0.3-0.69c-0.07-0.17-0.14-0.35-0.21-0.53
		c-0.09-0.24-0.18-0.48-0.26-0.73c-0.06-0.17-0.12-0.35-0.17-0.53c-0.02-0.06-0.03-0.12-0.05-0.18c7.98-2.6,14.63-3.64,17.4-3.98
		C85.9,5.17,84.87,11.82,82.27,19.8z M41.17,18.63c-0.97,0.81-1.91,1.64-2.82,2.49c-0.13,0.12-0.25,0.25-0.38,0.37
		c-0.73,0.69-1.44,1.39-2.12,2.11c-0.24,0.25-0.46,0.5-0.7,0.75c-0.58,0.62-1.14,1.25-1.68,1.9c-0.27,0.31-0.53,0.63-0.79,0.95
		c-0.51,0.63-1.01,1.27-1.49,1.92c-0.25,0.33-0.5,0.67-0.75,1.01c-0.53,0.74-1.04,1.5-1.53,2.27c-0.17,0.26-0.34,0.51-0.5,0.78
		c-0.65,1.04-1.26,2.11-1.83,3.19c-0.13,0.25-0.26,0.52-0.39,0.77c-0.32,0.63-0.65,1.25-0.95,1.89c-2.74-1.8-10.14-5.95-21.21-6.71
		C18.23,20.72,34.45,18.87,41.17,18.63z M18.52,70.14c0.08-3.13,0.87-12.22,7.22-15.8c0.04,0.06,0.1,0.12,0.14,0.19
		c0.51,0.71,1.04,1.41,1.6,2.09c0.11,0.13,0.21,0.25,0.32,0.37c0.56,0.65,1.14,1.29,1.75,1.9c0.07,0.07,0.14,0.14,0.21,0.21
		c0.59,0.58,1.21,1.14,1.84,1.69c0.17,0.15,0.34,0.3,0.52,0.44c0.64,0.53,1.31,1.04,1.99,1.53c0.07,0.05,0.14,0.12,0.22,0.17
		C30.73,69.27,21.64,70.06,18.52,70.14z M37.2,62.12c-0.25-0.16-0.51-0.33-0.81-0.53c-1.38-0.91-2.7-1.93-3.94-3.04
		c-2.06-1.86-3.89-3.99-5.4-6.29h0l-0.08-0.13c-0.15-0.22-0.29-0.45-0.44-0.68c0.37-1.47,0.81-2.92,1.32-4.34
		c0.07,0.11,0.15,0.21,0.21,0.31c0.33,0.5,0.66,0.99,1.01,1.47c0.12,0.17,0.24,0.34,0.37,0.51c0.45,0.62,0.92,1.22,1.4,1.81
		c0.43,0.56,0.88,1.11,1.34,1.64c0.04,0.05,0.08,0.11,0.13,0.16c1.53,1.75,3.24,3.35,5.07,4.75c0,0,0,0,0,0c0,0,0.01,0.01,0.01,0.01
		c0.01,0.01,0.02,0.02,0.03,0.03c0.59,0.48,1.18,0.94,1.79,1.38c0.18,0.13,0.35,0.25,0.53,0.38c0.48,0.34,0.96,0.68,1.45,1
		c0.11,0.07,0.22,0.15,0.33,0.22C40.12,61.31,38.67,61.75,37.2,62.12z M70.03,47.48c-0.23,6.71-2.07,22.92-13.69,37.14
		c-0.76-11.07-4.91-18.47-6.71-21.21c0.64-0.3,1.26-0.62,1.88-0.94c0.26-0.13,0.53-0.26,0.78-0.39c1.08-0.58,2.14-1.18,3.18-1.83
		c0.28-0.17,0.54-0.35,0.81-0.53c0.75-0.48,1.5-0.98,2.23-1.5c0.35-0.25,0.7-0.51,1.04-0.77c0.63-0.47,1.26-0.96,1.88-1.46
		c0.33-0.27,0.66-0.54,0.98-0.81c0.63-0.54,1.25-1.09,1.86-1.65c0.26-0.24,0.53-0.48,0.79-0.73c0.7-0.67,1.39-1.37,2.07-2.08
		c0.13-0.14,0.27-0.28,0.41-0.42C68.39,49.39,69.22,48.45,70.03,47.48z M66.19,48.41c-0.2,0.22-0.39,0.44-0.59,0.66
		c-0.53,0.56-1.09,1.11-1.65,1.65c-0.31,0.31-0.62,0.62-0.94,0.92c-0.52,0.48-1.06,0.95-1.6,1.42c-0.38,0.33-0.76,0.67-1.16,1
		c-0.52,0.42-1.06,0.83-1.59,1.24c-0.44,0.33-0.87,0.67-1.32,0.99c-0.53,0.38-1.09,0.75-1.64,1.11c-0.47,0.31-0.94,0.63-1.42,0.92
		c-0.58,0.36-1.17,0.69-1.77,1.03c-0.48,0.27-0.96,0.55-1.44,0.81c-0.66,0.35-1.34,0.67-2.02,0.99c-0.38,0.18-0.76,0.38-1.15,0.55
		c-1.06-0.48-2.16-1.04-3.27-1.67c-1.5-0.85-2.97-1.82-4.41-2.91c-0.47-0.36-0.94-0.72-1.39-1.1c-0.01-0.01-0.02-0.02-0.03-0.03
		c-2.31-1.77-4.38-3.83-6.17-6.18c-1.52-1.85-2.87-3.8-4-5.8c0,0,0,0,0,0c-0.63-1.1-1.19-2.2-1.66-3.26
		c0.17-0.38,0.36-0.76,0.54-1.14c0.33-0.69,0.65-1.37,1-2.04c0.26-0.48,0.53-0.96,0.8-1.43c0.34-0.6,0.68-1.2,1.04-1.78
		c0.29-0.48,0.61-0.94,0.92-1.41c0.37-0.56,0.74-1.12,1.12-1.65c0.32-0.44,0.65-0.87,0.98-1.3c0.41-0.54,0.82-1.09,1.25-1.61
		c0.32-0.39,0.66-0.76,0.98-1.14c0.47-0.54,0.94-1.09,1.43-1.61c0.29-0.31,0.6-0.62,0.9-0.92c0.55-0.56,1.1-1.13,1.67-1.67
		c0.2-0.19,0.41-0.36,0.6-0.55c8.31-7.64,18.12-12.43,26.5-15.39c0.02,0.06,0.04,0.11,0.06,0.17c0.05,0.17,0.12,0.34,0.17,0.52
		c0.1,0.29,0.2,0.58,0.31,0.87c0.07,0.18,0.14,0.36,0.22,0.54c0.11,0.27,0.23,0.54,0.35,0.81c0.08,0.18,0.17,0.36,0.26,0.53
		c0.13,0.26,0.26,0.52,0.4,0.77c0.09,0.17,0.19,0.35,0.29,0.52c0.15,0.25,0.3,0.5,0.45,0.74c0.1,0.16,0.2,0.32,0.31,0.48
		c0.17,0.25,0.34,0.49,0.52,0.73c0.11,0.14,0.21,0.29,0.32,0.44c0.2,0.26,0.41,0.51,0.63,0.77c0.1,0.11,0.19,0.23,0.28,0.34
		c0.63,0.72,1.31,1.39,2.02,2.02c0.12,0.1,0.24,0.2,0.36,0.3c0.25,0.21,0.49,0.41,0.75,0.61c0.15,0.12,0.3,0.22,0.45,0.33
		c0.24,0.17,0.47,0.34,0.71,0.51c0.17,0.11,0.33,0.22,0.5,0.32c0.24,0.15,0.48,0.3,0.72,0.44c0.18,0.1,0.36,0.2,0.54,0.3
		c0.24,0.13,0.49,0.26,0.74,0.38c0.19,0.09,0.38,0.18,0.57,0.27c0.25,0.12,0.51,0.23,0.77,0.34c0.19,0.08,0.38,0.16,0.58,0.24
		c0.27,0.1,0.54,0.2,0.82,0.29c0.19,0.06,0.38,0.13,0.57,0.19c0.05,0.02,0.1,0.04,0.16,0.05C78.59,30.31,73.81,40.1,66.19,48.41z"/>
	<path class="st1" d="M67.79,28.77c-2.18,2.18-5.72,2.18-7.9,0c-2.18-2.18-2.18-5.72,0-7.9c2.18-2.18,5.72-2.18,7.9,0
		C69.97,23.05,69.97,26.59,67.79,28.77z"/>
	<path class="st2" d="M63.84,31.53c-1.72,0-3.44-0.65-4.75-1.96c-1.27-1.27-1.97-2.95-1.97-4.75c0-1.79,0.7-3.48,1.97-4.75
		c2.62-2.62,6.88-2.62,9.5,0c1.27,1.27,1.97,2.96,1.97,4.75c0,1.79-0.7,3.48-1.97,4.75l0,0l0,0C67.28,30.88,65.56,31.53,63.84,31.53
		z M63.84,20.37c-1.14,0-2.28,0.43-3.15,1.3c-0.84,0.84-1.3,1.96-1.3,3.15c0,1.19,0.46,2.31,1.3,3.15c1.74,1.74,4.57,1.74,6.3,0l0,0
		c0.84-0.84,1.31-1.96,1.31-3.15c0-1.19-0.46-2.31-1.31-3.15C66.12,20.8,64.98,20.37,63.84,20.37z"/>
	<path class="st1" d="M54.24,44.95c-2.91,2.91-7.62,2.91-10.53,0c-2.91-2.91-2.91-7.63,0-10.54c2.91-2.91,7.63-2.91,10.53,0
		C57.15,37.33,57.15,42.04,54.24,44.95z"/>
	<path class="st2" d="M48.97,48.26c-2.2,0-4.39-0.84-6.06-2.51c-3.34-3.34-3.34-8.79,0-12.13c3.34-3.35,8.79-3.35,12.13,0
		c3.34,3.34,3.34,8.79,0,12.13C53.37,47.42,51.17,48.26,48.97,48.26z M48.97,33.37c-1.69,0-3.28,0.66-4.47,1.85
		c-2.46,2.46-2.46,6.47,0,8.94c1.19,1.19,2.78,1.85,4.47,1.85c1.69,0,3.28-0.66,4.47-1.85c2.46-2.46,2.46-6.47,0-8.94
		C52.25,34.02,50.66,33.37,48.97,33.37z"/>
</g>
</svg>
