<?xml version="1.0" encoding="utf-8"?>
<!-- Generator: Adobe Illustrator 23.0.3, SVG Export Plug-In . SVG Version: 6.00 Build 0)  -->
<svg version="1.1" id="layer_1" xmlns="http://www.w3.org/2000/svg" xmlns:xlink="http://www.w3.org/1999/xlink" x="0px" y="0px"
	 viewBox="0 0 150 157" style="enable-background:new 0 0 150 157;" xml:space="preserve">
<style type="text/css">
	.st0{fill:#94D0B7;}
	.st1{fill:#253F31;}
	.st2{fill:#FFFFFF;}
</style>
<g>
	<polygon class="st0" points="147.8,17.3 129.6,2.2 20.4,2.2 2.2,17.3 2.2,62.2 20.4,62.2 2.2,77.2 2.2,122.1 147.8,122.1 
		147.8,77.2 129.6,62.2 147.8,62.2 	"/>
	<path class="st1" d="M98.9,112.2c-1.2,0-2.2-1-2.2-2.2V89.3c0-1.2,1-2.2,2.2-2.2c1.2,0,2.2,1,2.2,2.2V110
		C101.1,111.2,100.1,112.2,98.9,112.2z"/>
	<path class="st1" d="M116.4,112.2c-1.2,0-2.2-1-2.2-2.2V89.3c0-1.2,1-2.2,2.2-2.2c1.2,0,2.2,1,2.2,2.2V110
		C118.7,111.2,117.7,112.2,116.4,112.2z"/>
	<path class="st1" d="M134,112.2c-1.2,0-2.2-1-2.2-2.2V89.3c0-1.2,1-2.2,2.2-2.2c1.2,0,2.2,1,2.2,2.2V110
		C136.2,111.2,135.2,112.2,134,112.2z"/>
	<path class="st2" d="M81,105.7H19.2c-2.8,0-5.1-2.3-5.1-5.1v-1.9c0-2.8,2.3-5.1,5.1-5.1H81c2.8,0,5.1,2.3,5.1,5.1v1.9
		C86.1,103.4,83.8,105.7,81,105.7z"/>
	<path class="st1" d="M80.3,108H19.9c-4.4,0-8-3.6-8-8v-0.5c0-4.4,3.6-8,8-8h60.4c4.4,0,8,3.6,8,8v0.5C88.3,104.3,84.7,108,80.3,108
		z M19.9,95.8c-2,0-3.6,1.6-3.6,3.6v0.5c0,2,1.6,3.6,3.6,3.6h60.4c2,0,3.6-1.6,3.6-3.6v-0.5c0-2-1.6-3.6-3.6-3.6H19.9z"/>
	<path class="st1" d="M98.9,52.3c-1.2,0-2.2-1-2.2-2.2V29.4c0-1.2,1-2.2,2.2-2.2c1.2,0,2.2,1,2.2,2.2V50
		C101.1,51.3,100.1,52.3,98.9,52.3z"/>
	<path class="st1" d="M116.4,52.3c-1.2,0-2.2-1-2.2-2.2V29.4c0-1.2,1-2.2,2.2-2.2c1.2,0,2.2,1,2.2,2.2V50
		C118.7,51.3,117.7,52.3,116.4,52.3z"/>
	<path class="st1" d="M134,52.3c-1.2,0-2.2-1-2.2-2.2V29.4c0-1.2,1-2.2,2.2-2.2c1.2,0,2.2,1,2.2,2.2V50
		C136.2,51.3,135.2,52.3,134,52.3z"/>
	<path class="st2" d="M81,45.8H19.2c-2.8,0-5.1-2.3-5.1-5.1v-1.8c0-2.8,2.3-5.1,5.1-5.1H81c2.8,0,5.1,2.3,5.1,5.1v1.8
		C86.1,43.5,83.8,45.8,81,45.8z"/>
	<path class="st1" d="M80.3,48H19.9c-4.4,0-8-3.6-8-8v-0.5c0-4.4,3.6-8,8-8h60.4c4.4,0,8,3.6,8,8V40C88.3,44.4,84.7,48,80.3,48z
		 M19.9,35.9c-2,0-3.6,1.6-3.6,3.6V40c0,2,1.6,3.6,3.6,3.6h60.4c2,0,3.6-1.6,3.6-3.6v-0.5c0-2-1.6-3.6-3.6-3.6H19.9z"/>
	<path class="st0" d="M83.9,145.9c0,4.9-4,8.9-8.9,8.9c-4.9,0-8.9-4-8.9-8.9c0-4.9,4-8.9,8.9-8.9C79.9,137,83.9,140.9,83.9,145.9z"
		/>
	<path class="st1" d="M150,62.2V17.3c0,0,0-0.1,0-0.1c0-0.2-0.1-0.4-0.1-0.6c0-0.1-0.1-0.2-0.1-0.2c-0.1-0.2-0.2-0.3-0.3-0.4
		c-0.1-0.1-0.1-0.1-0.2-0.2c0,0,0-0.1-0.1-0.1L131,0.5c-0.4-0.3-0.9-0.5-1.4-0.5H20.4c-0.5,0-1,0.2-1.4,0.5L0.8,15.6
		c0,0-0.1,0.1-0.1,0.1c-0.1,0.1-0.1,0.1-0.2,0.2c-0.1,0.1-0.2,0.3-0.3,0.4c0,0.1-0.1,0.2-0.1,0.2C0.1,16.7,0,16.9,0,17.2
		c0,0,0,0.1,0,0.1v44.9c0,1.2,1,2.2,2.2,2.2h12L0.8,75.5c0,0-0.1,0.1-0.1,0.1c-0.1,0.1-0.1,0.1-0.2,0.2c-0.1,0.1-0.2,0.3-0.3,0.4
		c0,0.1-0.1,0.2-0.1,0.2C0.1,76.7,0,76.9,0,77.1c0,0,0,0.1,0,0.1v44.9c0,1.2,1,2.2,2.2,2.2h70.5v10.6c-4.4,0.9-7.8,4.3-8.7,8.7H2.2
		c-1.2,0-2.2,1-2.2,2.2c0,1.2,1,2.2,2.2,2.2h61.8c1,5.1,5.5,8.9,10.9,8.9c5.4,0,9.9-3.8,10.9-8.9h61.8c1.2,0,2.2-1,2.2-2.2
		c0-1.2-1-2.2-2.2-2.2H85.9c-0.9-4.4-4.3-7.8-8.7-8.7v-10.6h70.5c1.2,0,2.2-1,2.2-2.2V77.2c0,0,0-0.1,0-0.1c0-0.2-0.1-0.4-0.1-0.6
		c0-0.1-0.1-0.2-0.1-0.2c-0.1-0.2-0.2-0.3-0.3-0.4c-0.1-0.1-0.1-0.1-0.2-0.2c0,0,0-0.1-0.1-0.1l-13.4-11.1h12
		C149,64.4,150,63.4,150,62.2z M81.7,145.9c0,3.7-3,6.7-6.7,6.7c-3.7,0-6.7-3-6.7-6.7c0-3.7,3-6.7,6.7-6.7
		C78.7,139.2,81.7,142.2,81.7,145.9z M21.2,4.5h107.6l12.8,10.6H8.4L21.2,4.5z M145.5,119.9H4.5V79.4h141.1V119.9z M141.6,75H8.4
		l12.8-10.6h107.6L141.6,75z M145.5,59.9h-15.9H20.4H4.5V19.5h141.1V59.9z"/>
</g>
</svg>
