<?xml version="1.0" encoding="utf-8"?>
<!-- Generator: Adobe Illustrator 23.0.3, SVG Export Plug-In . SVG Version: 6.00 Build 0)  -->
<svg version="1.1" id="layer_1" xmlns="http://www.w3.org/2000/svg" xmlns:xlink="http://www.w3.org/1999/xlink" x="0px" y="0px"
	 viewBox="0 0 96 88" style="enable-background:new 0 0 96 88;" xml:space="preserve">
<style type="text/css">
	.st0{fill:#FFFFFF;}
	.st1{fill:#E66673;}
	.st2{fill:#3F232C;}
</style>
<g>
	<path class="st0" d="M41.8,56.5c-2.4-1.8-4.5-4-6.3-6.3c-1.5-1.9-2.9-3.9-4.1-5.9c-0.9,2.2-1.7,4.5-2.3,7c0.2,0.4,0.5,0.8,0.8,1.2
		c2.5,3.8,5.8,7.1,9.6,9.6c0.4,0.3,0.8,0.5,1.2,0.8c2.5-0.6,4.8-1.4,7-2.3C45.7,59.4,43.7,58,41.8,56.5z"/>
	<path class="st0" d="M86.4,21c3.8-11.1,4.5-19.9,4.5-19.9S82.1,1.9,71,5.6C72.8,13.2,78.8,19.2,86.4,21z"/>
	<g>
		<path class="st1" d="M29.9,52.5c-9.3,4.2-8.7,18.2-8.7,18.3c0.1,0,14.1,0.6,18.3-8.7C35.7,59.6,32.4,56.3,29.9,52.5z"/>
		<path class="st1" d="M86.4,21C78.8,19.2,72.8,13.2,71,5.6c-14.4,4.9-32.7,14.8-41.4,34.8c0.6,1.3,1.2,2.6,1.9,3.8
			c1.2,2.1,2.6,4,4.1,5.9c1.8,2.4,4,4.5,6.3,6.3c1.9,1.5,3.9,2.9,5.9,4.1c1.3,0.7,2.5,1.4,3.8,1.9C71.6,53.7,81.5,35.4,86.4,21z"/>
		<path class="st1" d="M48.1,17.4c0,0-23.8-1.7-43,15.7c15.3,0.2,24.4,7.3,24.4,7.3C33.9,30.4,40.7,22.9,48.1,17.4L48.1,17.4z"/>
		<path class="st1" d="M74.6,43.9L74.6,43.9c-5.6,7.4-13.1,14.2-23.1,18.6c0,0,7.2,9.1,7.4,24.4C76.3,67.7,74.6,43.9,74.6,43.9z"/>
	</g>
	<path class="st2" d="M92,1.2c0-0.3-0.1-0.7-0.3-0.9C91.4,0.1,91.1,0,90.8,0c-0.4,0-9,0.8-20.2,4.6C63.5,7,55.3,10.6,47.8,16.3
		c-3.2-0.1-25.4-0.2-43.4,16c-0.3,0.3-0.5,0.8-0.3,1.2c0.2,0.4,0.6,0.7,1,0.7c13.6,0.2,22.2,6,23.5,7c0.5,1,1,2.1,1.6,3.2
		c-0.9,2.2-1.6,4.4-2.2,6.7c-0.1,0.3,0,0.6,0.1,0.8c0,0.1,0.1,0.1,0.1,0.2c-8.7,5.1-8.2,18.6-8.2,18.7c0,0.6,0.5,1,1.1,1.1
		c0,0,0.2,0,0.5,0c2.6,0,13.7-0.5,18.2-8.2c0.1,0,0.2,0.1,0.2,0.2c0.2,0.1,0.4,0.2,0.6,0.2c0.1,0,0.2,0,0.3,0
		c2.3-0.5,4.5-1.3,6.7-2.2c1.1,0.6,2.1,1.1,3.2,1.6c1,1.3,6.8,9.9,7,23.5c0,0.5,0.3,0.9,0.7,1c0.1,0,0.3,0.1,0.4,0.1
		c0.3,0,0.6-0.1,0.8-0.4c16.3-18,16.1-40.2,16-43.4c5.6-7.6,9.3-15.8,11.7-22.9C91.2,10.2,92,1.6,92,1.2z M85.7,19.7
		c-0.1,0-0.1,0-0.2,0c-0.2,0-0.3-0.1-0.5-0.2c-0.2-0.1-0.5-0.2-0.7-0.3c-0.2-0.1-0.3-0.1-0.5-0.2c-0.2-0.1-0.5-0.2-0.7-0.3
		c-0.2-0.1-0.3-0.2-0.5-0.2c-0.2-0.1-0.4-0.2-0.7-0.3c-0.2-0.1-0.3-0.2-0.5-0.3c-0.2-0.1-0.4-0.3-0.6-0.4c-0.1-0.1-0.3-0.2-0.4-0.3
		c-0.2-0.1-0.4-0.3-0.6-0.5c-0.1-0.1-0.3-0.2-0.4-0.3c-0.2-0.2-0.5-0.4-0.7-0.6c-0.1-0.1-0.2-0.2-0.3-0.3c-0.6-0.6-1.2-1.2-1.8-1.8
		c-0.1-0.1-0.2-0.2-0.3-0.3c-0.2-0.2-0.4-0.4-0.5-0.7c-0.1-0.1-0.2-0.3-0.3-0.4c-0.1-0.2-0.3-0.4-0.4-0.6c-0.1-0.1-0.2-0.3-0.3-0.5
		c-0.1-0.2-0.3-0.4-0.4-0.6c-0.1-0.2-0.2-0.3-0.3-0.5c-0.2-0.2-0.3-0.4-0.4-0.7c-0.1-0.2-0.2-0.3-0.2-0.5c-0.1-0.2-0.2-0.5-0.3-0.7
		C73,8.1,72.9,8,72.8,7.8c-0.1-0.2-0.2-0.5-0.3-0.7c-0.1-0.2-0.1-0.3-0.2-0.5c0-0.1,0-0.1,0-0.2c7.9-2.6,14.5-3.6,17.3-4
		C89.3,5.1,88.2,11.7,85.7,19.7z M44.9,18.5c-1,0.8-1.9,1.6-2.8,2.5c-0.1,0.1-0.2,0.2-0.4,0.4c-0.7,0.7-1.4,1.4-2.1,2.1
		c-0.2,0.2-0.5,0.5-0.7,0.7c-0.6,0.6-1.1,1.2-1.7,1.9c-0.3,0.3-0.5,0.6-0.8,0.9c-0.5,0.6-1,1.3-1.5,1.9c-0.2,0.3-0.5,0.7-0.7,1
		c-0.5,0.7-1,1.5-1.5,2.3c-0.2,0.3-0.3,0.5-0.5,0.8c-0.6,1-1.3,2.1-1.8,3.2c-0.1,0.2-0.3,0.5-0.4,0.8c-0.3,0.6-0.6,1.2-0.9,1.9
		C26.3,37,19,32.8,8,32.1C22.1,20.6,38.2,18.7,44.9,18.5z M22.4,69.6c0.1-3.1,0.9-12.1,7.2-15.7c0,0.1,0.1,0.1,0.1,0.2
		c0.5,0.7,1,1.4,1.6,2.1c0.1,0.1,0.2,0.2,0.3,0.4c0.6,0.6,1.1,1.3,1.7,1.9c0.1,0.1,0.1,0.1,0.2,0.2c0.6,0.6,1.2,1.1,1.8,1.7
		c0.2,0.1,0.3,0.3,0.5,0.4c0.6,0.5,1.3,1,2,1.5c0.1,0,0.1,0.1,0.2,0.2C34.5,68.8,25.5,69.5,22.4,69.6z M40.9,61.7
		c-0.2-0.2-0.5-0.3-0.8-0.5c-1.4-0.9-2.7-1.9-3.9-3c-2-1.8-3.9-4-5.4-6.2l0,0l-0.1-0.1c-0.1-0.2-0.3-0.4-0.4-0.7
		c0.4-1.5,0.8-2.9,1.3-4.3c0.1,0.1,0.1,0.2,0.2,0.3c0.3,0.5,0.7,1,1,1.5c0.1,0.2,0.2,0.3,0.4,0.5c0.4,0.6,0.9,1.2,1.4,1.8
		c0.4,0.6,0.9,1.1,1.3,1.6c0,0,0.1,0.1,0.1,0.2c1.5,1.7,3.2,3.3,5,4.7l0,0l0,0c0,0,0,0,0,0c0.6,0.5,1.2,0.9,1.8,1.4
		c0.2,0.1,0.3,0.2,0.5,0.4c0.5,0.3,1,0.7,1.4,1c0.1,0.1,0.2,0.1,0.3,0.2C43.8,60.9,42.4,61.3,40.9,61.7z M73.5,47.1
		c-0.2,6.7-2.1,22.7-13.6,36.9c-0.8-11-4.9-18.3-6.7-21.1c0.6-0.3,1.3-0.6,1.9-0.9c0.3-0.1,0.5-0.3,0.8-0.4c1.1-0.6,2.1-1.2,3.2-1.8
		c0.3-0.2,0.5-0.3,0.8-0.5c0.7-0.5,1.5-1,2.2-1.5c0.3-0.2,0.7-0.5,1-0.8c0.6-0.5,1.3-1,1.9-1.4c0.3-0.3,0.7-0.5,1-0.8
		c0.6-0.5,1.2-1.1,1.8-1.6c0.3-0.2,0.5-0.5,0.8-0.7c0.7-0.7,1.4-1.4,2.1-2.1c0.1-0.1,0.3-0.3,0.4-0.4C71.9,49,72.7,48.1,73.5,47.1z
		 M69.7,48.1c-0.2,0.2-0.4,0.4-0.6,0.7c-0.5,0.6-1.1,1.1-1.6,1.6c-0.3,0.3-0.6,0.6-0.9,0.9c-0.5,0.5-1.1,0.9-1.6,1.4
		c-0.4,0.3-0.8,0.7-1.2,1c-0.5,0.4-1.1,0.8-1.6,1.2c-0.4,0.3-0.9,0.7-1.3,1c-0.5,0.4-1.1,0.7-1.6,1.1c-0.5,0.3-0.9,0.6-1.4,0.9
		c-0.6,0.4-1.2,0.7-1.8,1c-0.5,0.3-1,0.5-1.4,0.8c-0.7,0.3-1.3,0.7-2,1c-0.4,0.2-0.8,0.4-1.1,0.5c-1.1-0.5-2.1-1-3.2-1.7
		c-1.5-0.8-2.9-1.8-4.4-2.9c-0.5-0.4-0.9-0.7-1.4-1.1c0,0,0,0,0,0c-2.3-1.8-4.3-3.8-6.1-6.1c-1.5-1.8-2.8-3.8-4-5.8l0,0
		c-0.6-1.1-1.2-2.2-1.6-3.2c0.2-0.4,0.4-0.8,0.5-1.1c0.3-0.7,0.6-1.4,1-2c0.3-0.5,0.5-1,0.8-1.4c0.3-0.6,0.7-1.2,1-1.8
		c0.3-0.5,0.6-0.9,0.9-1.4c0.4-0.6,0.7-1.1,1.1-1.6c0.3-0.4,0.6-0.9,1-1.3c0.4-0.5,0.8-1.1,1.2-1.6c0.3-0.4,0.7-0.8,1-1.1
		c0.5-0.5,0.9-1.1,1.4-1.6c0.3-0.3,0.6-0.6,0.9-0.9c0.5-0.6,1.1-1.1,1.7-1.7c0.2-0.2,0.4-0.4,0.6-0.5c8.2-7.6,18-12.3,26.3-15.3
		c0,0.1,0,0.1,0.1,0.2c0,0.2,0.1,0.3,0.2,0.5c0.1,0.3,0.2,0.6,0.3,0.9C70.8,8.8,70.9,9,71,9.1c0.1,0.3,0.2,0.5,0.3,0.8
		c0.1,0.2,0.2,0.4,0.3,0.5c0.1,0.3,0.3,0.5,0.4,0.8c0.1,0.2,0.2,0.3,0.3,0.5c0.1,0.2,0.3,0.5,0.4,0.7c0.1,0.2,0.2,0.3,0.3,0.5
		c0.2,0.2,0.3,0.5,0.5,0.7c0.1,0.1,0.2,0.3,0.3,0.4c0.2,0.3,0.4,0.5,0.6,0.8c0.1,0.1,0.2,0.2,0.3,0.3c0.6,0.7,1.3,1.4,2,2
		c0.1,0.1,0.2,0.2,0.4,0.3c0.2,0.2,0.5,0.4,0.7,0.6c0.1,0.1,0.3,0.2,0.4,0.3c0.2,0.2,0.5,0.3,0.7,0.5c0.2,0.1,0.3,0.2,0.5,0.3
		c0.2,0.1,0.5,0.3,0.7,0.4c0.2,0.1,0.4,0.2,0.5,0.3c0.2,0.1,0.5,0.3,0.7,0.4c0.2,0.1,0.4,0.2,0.6,0.3c0.2,0.1,0.5,0.2,0.8,0.3
		c0.2,0.1,0.4,0.2,0.6,0.2c0.3,0.1,0.5,0.2,0.8,0.3c0.2,0.1,0.4,0.1,0.6,0.2c0,0,0.1,0,0.2,0C82,30.1,77.3,39.8,69.7,48.1z"/>
	<path class="st0" d="M71.3,28.6c-2.2,2.2-5.7,2.2-7.8,0c-2.2-2.2-2.2-5.7,0-7.8c2.2-2.2,5.7-2.2,7.8,0
		C73.5,22.9,73.5,26.4,71.3,28.6z"/>
	<path class="st2" d="M67.4,31.3c-1.7,0-3.4-0.6-4.7-1.9c-1.3-1.3-2-2.9-2-4.7c0-1.8,0.7-3.5,2-4.7c2.6-2.6,6.8-2.6,9.4,0
		c1.3,1.3,2,2.9,2,4.7c0,1.8-0.7,3.5-2,4.7l0,0l0,0C70.8,30.7,69.1,31.3,67.4,31.3z M67.4,20.2c-1.1,0-2.3,0.4-3.1,1.3
		c-0.8,0.8-1.3,1.9-1.3,3.1c0,1.2,0.5,2.3,1.3,3.1c1.7,1.7,4.5,1.7,6.3,0l0,0c0.8-0.8,1.3-1.9,1.3-3.1s-0.5-2.3-1.3-3.1
		C69.6,20.6,68.5,20.2,67.4,20.2z"/>
	<path class="st0" d="M57.8,44.6c-2.9,2.9-7.6,2.9-10.5,0c-2.9-2.9-2.9-7.6,0-10.5c2.9-2.9,7.6-2.9,10.5,0
		C60.7,37.1,60.7,41.7,57.8,44.6z"/>
	<path class="st2" d="M52.6,47.9c-2.2,0-4.4-0.8-6-2.5c-3.3-3.3-3.3-8.7,0-12c3.3-3.3,8.7-3.3,12,0c3.3,3.3,3.3,8.7,0,12
		C57,47.1,54.8,47.9,52.6,47.9z M52.6,33.1c-1.7,0-3.3,0.7-4.4,1.8c-2.4,2.4-2.4,6.4,0,8.9c1.2,1.2,2.8,1.8,4.4,1.8s3.3-0.7,4.4-1.8
		c2.4-2.4,2.4-6.4,0-8.9C55.9,33.8,54.3,33.1,52.6,33.1z"/>
</g>
</svg>
