<?xml version="1.0" encoding="utf-8"?>
<!-- Generator: Adobe Illustrator 23.0.3, SVG Export Plug-In . SVG Version: 6.00 Build 0)  -->
<svg version="1.1" id="layer_1" xmlns="http://www.w3.org/2000/svg" xmlns:xlink="http://www.w3.org/1999/xlink" x="0px" y="0px"
	 viewBox="0 0 96 88" style="enable-background:new 0 0 96 88;" xml:space="preserve">
<style type="text/css">
	.st0{fill:#94D0B7;}
	.st1{fill:#274242;}
	.st2{fill:#FFFFFF;}
</style>
<g>
	<path class="st0" d="M69.1,76.2H18.9c-3.9,0-7.1-3.2-7.1-7.1V18.9c0-3.9,3.2-7.1,7.1-7.1h50.1c3.9,0,7.1,3.2,7.1,7.1v50.1
		C76.2,73,73,76.2,69.1,76.2z"/>
	<path class="st1" d="M68.2,77.4H19.8c-5.1,0-9.3-4.2-9.3-9.3V19.8c0-5.1,4.2-9.3,9.3-9.3h48.3c5.1,0,9.3,4.2,9.3,9.3v48.3
		C77.4,73.3,73.3,77.4,68.2,77.4z M19.8,13c-3.8,0-6.8,3.1-6.8,6.8v48.3c0,3.8,3.1,6.8,6.8,6.8h48.3c3.8,0,6.8-3.1,6.8-6.8V19.8
		c0-3.8-3.1-6.8-6.8-6.8C68.1,13,19.8,13,19.8,13z"/>
	<path class="st2" d="M62.3,20.3H32.7L20.3,32.7v29.6c0,3,2.4,5.4,5.4,5.4h36.6c3,0,5.4-2.4,5.4-5.4V25.7
		C67.7,22.7,65.3,20.3,62.3,20.3z"/>
	<path class="st1" d="M62.3,69H25.7C22,69,19,66,19,62.3V32.7c0-0.3,0.1-0.6,0.4-0.9l12.4-12.4c0.2-0.2,0.5-0.4,0.9-0.4h29.6
		c3.7,0,6.6,3,6.6,6.6v36.6C69,66,66,69,62.3,69z M21.5,33.2v29.1c0,2.3,1.9,4.2,4.2,4.2h36.6c2.3,0,4.2-1.9,4.2-4.2V25.7
		c0-2.3-1.9-4.2-4.2-4.2H33.2L21.5,33.2z"/>
	<path class="st1" d="M19.5,8.3c-0.7,0-1.2-0.6-1.2-1.2V1.2c0-0.7,0.5-1.2,1.2-1.2s1.2,0.5,1.2,1.2V7C20.8,7.7,20.2,8.3,19.5,8.3z"
		/>
	<path class="st1" d="M31.8,8.3c-0.7,0-1.2-0.6-1.2-1.2V1.2c0-0.7,0.6-1.2,1.2-1.2C32.4,0,33,0.5,33,1.2V7C33,7.7,32.4,8.3,31.8,8.3
		z"/>
	<path class="st1" d="M44,8.3c-0.7,0-1.2-0.6-1.2-1.2V1.2C42.8,0.5,43.3,0,44,0c0.7,0,1.2,0.5,1.2,1.2V7C45.2,7.7,44.7,8.3,44,8.3z"
		/>
	<path class="st1" d="M56.2,8.3C55.6,8.3,55,7.7,55,7V1.2C55,0.5,55.6,0,56.2,0c0.7,0,1.2,0.5,1.2,1.2V7C57.5,7.7,56.9,8.3,56.2,8.3
		z"/>
	<path class="st1" d="M68.5,8.3c-0.7,0-1.2-0.6-1.2-1.2V1.2c0-0.7,0.5-1.2,1.2-1.2c0.7,0,1.2,0.5,1.2,1.2V7
		C69.7,7.7,69.2,8.3,68.5,8.3z"/>
	<path class="st1" d="M19.5,88c-0.7,0-1.2-0.5-1.2-1.2V81c0-0.7,0.6-1.2,1.2-1.2s1.2,0.5,1.2,1.2v5.8C20.8,87.4,20.2,88,19.5,88z"/>
	<path class="st1" d="M31.8,88c-0.7,0-1.2-0.5-1.2-1.2V81c0-0.7,0.6-1.2,1.2-1.2c0.7,0,1.2,0.5,1.2,1.2v5.8C33,87.4,32.4,88,31.8,88
		z"/>
	<path class="st1" d="M44,88c-0.7,0-1.2-0.5-1.2-1.2V81c0-0.7,0.6-1.2,1.2-1.2c0.7,0,1.2,0.5,1.2,1.2v5.8C45.2,87.4,44.7,88,44,88z"
		/>
	<path class="st1" d="M56.2,88c-0.7,0-1.2-0.5-1.2-1.2V81c0-0.7,0.6-1.2,1.2-1.2c0.7,0,1.2,0.5,1.2,1.2v5.8
		C57.5,87.4,56.9,88,56.2,88z"/>
	<path class="st1" d="M68.5,88c-0.7,0-1.2-0.5-1.2-1.2V81c0-0.7,0.5-1.2,1.2-1.2c0.7,0,1.2,0.5,1.2,1.2v5.8
		C69.7,87.4,69.2,88,68.5,88z"/>
	<path class="st1" d="M86.8,20.8H81c-0.7,0-1.2-0.5-1.2-1.2c0-0.7,0.6-1.2,1.2-1.2h5.8c0.7,0,1.2,0.6,1.2,1.2
		C88,20.2,87.4,20.8,86.8,20.8z"/>
	<path class="st1" d="M86.8,69.7H81c-0.7,0-1.2-0.5-1.2-1.2s0.6-1.2,1.2-1.2h5.8c0.7,0,1.2,0.5,1.2,1.2S87.4,69.7,86.8,69.7z"/>
	<path class="st1" d="M7,20.8H1.2c-0.7,0-1.2-0.5-1.2-1.2s0.6-1.2,1.2-1.2H7c0.7,0,1.2,0.6,1.2,1.2C8.3,20.2,7.7,20.8,7,20.8z"/>
	<path class="st1" d="M7,33H1.2C0.6,33,0,32.4,0,31.8c0-0.7,0.6-1.2,1.2-1.2H7c0.7,0,1.2,0.5,1.2,1.2C8.3,32.4,7.7,33,7,33z"/>
	<path class="st1" d="M7,45.2H1.2C0.6,45.2,0,44.7,0,44s0.6-1.2,1.2-1.2H7c0.7,0,1.2,0.6,1.2,1.2C8.3,44.7,7.7,45.2,7,45.2z"/>
	<path class="st1" d="M7,57.5H1.2c-0.7,0-1.2-0.5-1.2-1.2C0,55.5,0.6,55,1.2,55H7c0.7,0,1.2,0.5,1.2,1.2C8.3,56.9,7.7,57.5,7,57.5z"
		/>
	<path class="st1" d="M7,69.7H1.2c-0.7,0-1.2-0.5-1.2-1.2s0.6-1.2,1.2-1.2H7c0.7,0,1.2,0.5,1.2,1.2S7.7,69.7,7,69.7z"/>
	<g>
		<path class="st0" d="M94.8,44c0,10.6-8.6,19.2-19.2,19.2S56.4,54.6,56.4,44S65,24.8,75.6,24.8S94.8,33.4,94.8,44z"/>
		<g>
			<path class="st0" d="M79.4,44.3c1.2-1.3,2-3.2,2-5c0-3.4-2.6-6.2-5.7-6.2s-5.7,2.8-5.7,6.2c0,1.9,0.8,3.7,2,5
				c-3.3,1.9-5.6,8.1-5.6,11.8c0,1.8,0.5,3.3,1.4,4.5c2.4,1.3,5.1,2.1,7.9,2.1c2.9,0,5.6-0.7,7.9-2.1c0.9-1.2,1.4-2.7,1.4-4.5
				C84.9,52.4,82.6,46.1,79.4,44.3z"/>
			<path class="st1" d="M92.6,32.7c-3.8-5.7-10.2-9.1-17-9.1c-11.3,0-20.4,9.2-20.4,20.4c0,7.4,4,14.3,10.6,17.9
				c3,1.7,6.4,2.5,9.9,2.5c3.4,0,6.9-0.9,9.9-2.5l0,0c2.6-1.4,4.8-3.4,6.6-5.9c2.6-3.5,3.9-7.7,3.9-12C96,39.9,94.8,36,92.6,32.7z
				 M67.4,59.6c-0.1-0.1-0.2-0.3-0.3-0.4c-0.1-0.1-0.2-0.3-0.2-0.4c-0.1-0.2-0.2-0.4-0.2-0.6c-0.1-0.1-0.1-0.3-0.2-0.4
				c-0.1-0.2-0.1-0.5-0.2-0.7c0-0.1-0.1-0.2-0.1-0.4c-0.1-0.4-0.1-0.8-0.1-1.2c0-0.5,0-0.9,0.1-1.4c0-0.2,0.1-0.3,0.1-0.5
				c0.1-0.3,0.1-0.6,0.2-0.9c0.1-0.2,0.1-0.4,0.2-0.5c0.1-0.3,0.2-0.5,0.3-0.8c0.1-0.2,0.2-0.4,0.3-0.6c0.1-0.3,0.2-0.5,0.4-0.8
				c0.1-0.2,0.2-0.4,0.3-0.5c0.1-0.2,0.3-0.5,0.5-0.7c0.1-0.2,0.3-0.3,0.4-0.5c0.2-0.2,0.3-0.4,0.5-0.6c0.1-0.2,0.3-0.3,0.4-0.5
				c0.2-0.2,0.4-0.4,0.6-0.5c0.2-0.1,0.3-0.3,0.5-0.4c0.1,0,0.1-0.1,0.2-0.1c0,0,0.1,0,0.1,0.1c1.3,1.1,2.9,1.6,4.5,1.6
				c1.6,0,3.1-0.6,4.5-1.6c0,0,0,0,0.1,0c0.1,0.1,0.2,0.2,0.3,0.2c0.1,0.1,0.1,0.1,0.2,0.2c0.4,0.3,0.8,0.7,1.1,1.1
				c1.9,2.1,3.1,5,3.2,7.6c0,0.1,0,0.2,0,0.3c0,0.4,0,0.8-0.1,1.2c0,0.1-0.1,0.2-0.1,0.4c0,0.3-0.1,0.5-0.2,0.7
				c0,0.1-0.1,0.3-0.2,0.4c-0.1,0.2-0.2,0.4-0.3,0.6c-0.1,0.1-0.2,0.3-0.2,0.4c-0.1,0.1-0.2,0.3-0.3,0.4
				C78.7,62.2,72.4,62.2,67.4,59.6z M78.9,43.3c-2,2.1-4.7,2.1-6.7,0c-1.2-1.3-1.9-3.1-1.9-4.8c0-3.2,2.3-5.7,5.2-5.7
				c2.9,0,5.2,2.6,5.2,5.7C80.8,40.2,80.1,42,78.9,43.3z M89.8,54.3c-0.6,0.9-1.3,1.6-2,2.3c0-0.4,0.1-0.8,0.1-1.2
				c0-0.1,0-0.2,0-0.4c0-0.2,0-0.4,0-0.6c0-0.5-0.1-1-0.2-1.5c0-0.2-0.1-0.4-0.1-0.6c-0.1-0.3-0.1-0.6-0.2-0.9
				c-0.1-0.3-0.2-0.6-0.3-0.9c-0.1-0.3-0.3-0.6-0.4-1S86.1,49,86,48.6c-0.1-0.2-0.2-0.4-0.3-0.6c-0.2-0.3-0.4-0.7-0.7-1
				c-0.1-0.1-0.2-0.3-0.3-0.4c-0.3-0.3-0.5-0.7-0.8-1c0-0.1-0.1-0.1-0.1-0.1c-0.2-0.2-0.3-0.3-0.5-0.5c-0.3-0.3-0.5-0.5-0.8-0.7
				c-0.1-0.1-0.2-0.2-0.4-0.3c0,0,0,0-0.1-0.1c0,0,0,0,0-0.1c0.2-0.4,0.4-0.7,0.6-1.1c0-0.1,0.1-0.2,0.1-0.3
				c0.2-0.3,0.3-0.7,0.4-1.1c0-0.1,0-0.1,0.1-0.2c0.1-0.4,0.2-0.8,0.3-1.2c0-0.1,0-0.2,0-0.3c0.1-0.4,0.1-0.9,0.1-1.3
				c0-4.7-3.6-8.6-8.1-8.6c-4.5,0-8.1,3.9-8.1,8.6c0,0.4,0,0.8,0.1,1.3c0,0.1,0,0.2,0,0.3c0.1,0.4,0.2,0.8,0.3,1.2
				c0,0.1,0,0.1,0,0.1c0.1,0.4,0.3,0.7,0.4,1.1c0,0.1,0.1,0.2,0.1,0.3c0.2,0.4,0.4,0.8,0.6,1.1c0,0,0,0,0,0.1c0,0-0.1,0-0.1,0.1
				c-0.2,0.1-0.3,0.3-0.4,0.4c-0.3,0.3-0.6,0.5-0.9,0.8c-0.2,0.2-0.3,0.3-0.5,0.5c-0.2,0.3-0.5,0.5-0.7,0.8
				c-0.2,0.2-0.3,0.4-0.4,0.6c-0.2,0.3-0.4,0.6-0.6,0.9c-0.1,0.2-0.3,0.4-0.4,0.7c-0.2,0.3-0.3,0.6-0.5,0.9
				c-0.1,0.2-0.2,0.4-0.3,0.7c-0.1,0.3-0.3,0.7-0.4,1c-0.1,0.2-0.2,0.4-0.2,0.7c-0.1,0.4-0.2,0.8-0.3,1.2c0,0.2-0.1,0.4-0.1,0.6
				c-0.1,0.6-0.1,1.2-0.1,1.7c0,0.4,0,0.8,0.1,1.2C60,53.4,58,48.8,58,44c0-9.7,7.9-17.6,17.6-17.6c5.9,0,11.4,2.9,14.6,7.8
				c1.9,2.9,3,6.3,3,9.8C93.2,47.7,92,51.3,89.8,54.3z"/>
		</g>
	</g>
</g>
</svg>
