<?xml version="1.0" encoding="utf-8"?>
<!-- Generator: Adobe Illustrator 23.0.3, SVG Export Plug-In . SVG Version: 6.00 Build 0)  -->
<svg version="1.1" id="layer_1" xmlns="http://www.w3.org/2000/svg" xmlns:xlink="http://www.w3.org/1999/xlink" x="0px" y="0px"
	 viewBox="0 0 96 88" style="enable-background:new 0 0 96 88;" xml:space="preserve">
<style type="text/css">
	.st0{fill:#FFFFFF;}
	.st1{fill:#703407;}
	.st2{fill:#F7BE56;}
</style>
<g>
	<path class="st0" d="M68.6,23c0.7-1.2,1.1-2.6,1.1-4c0-4.5-3.7-8.2-8.2-8.2c-2.1,0-4.1,0.8-5.5,2.1C55,5.6,48.8,0,41.3,0
		c-8.2,0-14.8,6.6-14.8,14.8c0,0.9,0.1,1.8,0.3,2.7c-0.8-0.2-1.7-0.3-2.6-0.3c-6.9,0-12.5,5.6-12.5,12.5s5.6,12.5,12.5,12.5
		c4.4,0,39.6,0,42.6,0c5.4,0,9.7-4.3,9.7-9.7C76.5,27.8,73.1,23.9,68.6,23z"/>
	<path class="st1" d="M66.8,45.3H24.2c-7.5,0-13.6-6.1-13.6-13.6c0-7.9,6.8-14.3,14.9-13.6c0-0.5-0.1-0.9-0.1-1.4
		c0-8.8,7.2-15.9,16-15.9c7.4,0,13.7,5.1,15.5,12c1.4-0.8,3.1-1.3,4.7-1.3c5.2,0,9.4,4.2,9.4,9.4c0,1.1-0.2,2.2-0.6,3.3
		c4.4,1.5,7.4,5.6,7.4,10.3C77.6,40.5,72.8,45.3,66.8,45.3z M24.2,20.4c-6.3,0-11.4,5.1-11.4,11.3s5.1,11.3,11.4,11.3h42.6
		c4.7,0,8.6-3.8,8.6-8.6c0-4.1-2.9-7.6-6.9-8.4c-0.4-0.1-0.7-0.3-0.8-0.6c-0.2-0.3-0.1-0.7,0-1c0.6-1.1,0.9-2.3,0.9-3.5
		c0-3.9-3.2-7.1-7.1-7.1c-1.8,0-3.4,0.7-4.8,1.8C56.4,16,56,16.1,55.6,16s-0.7-0.5-0.7-0.9C54,8.3,48.1,3.1,41.3,3.1
		c-7.5,0-13.7,6.1-13.7,13.7c0,0.8,0.1,1.6,0.2,2.5c0.1,0.4-0.1,0.8-0.3,1c-0.3,0.3-0.7,0.4-1,0.3C25.7,20.5,24.9,20.4,24.2,20.4z"
		/>
	<g>
		<path class="st2" d="M31.6,31.5c-0.7-1.1-1-2.5-1-3.9c0-4.4,3.5-7.9,7.9-7.9c2,0,3.9,0.8,5.3,2.1c0.9-7,6.9-12.4,14.1-12.4
			c7.9,0,14.2,6.4,14.2,14.2c0,0.9-0.1,1.8-0.3,2.6c0.8-0.2,1.6-0.3,2.5-0.3c6.6,0,12,5.4,12,12s-5.4,12-12,12c-4.2,0-38.1,0-41,0
			c-5.1,0-9.3-4.2-9.3-9.3C24.1,36.1,27.3,32.4,31.6,31.5z"/>
		<path class="st2" d="M19.4,86.9H7.4c-3.4,0-6.2-2.8-6.2-6.2v-12c0-3.4,2.8-6.2,6.2-6.2h12.1c3.4,0,6.2,2.8,6.2,6.2v12
			C25.7,84.1,22.9,86.9,19.4,86.9z"/>
		<path class="st2" d="M54,86.9H42c-3.4,0-6.2-2.8-6.2-6.2v-12c0-3.4,2.8-6.2,6.2-6.2H54c3.4,0,6.2,2.8,6.2,6.2v12
			C60.3,84.1,57.5,86.9,54,86.9z"/>
		<path class="st2" d="M88.6,86.9H76.6c-3.4,0-6.2-2.8-6.2-6.2v-12c0-3.4,2.8-6.2,6.2-6.2h12.1c3.4,0,6.2,2.8,6.2,6.2v12
			C94.9,84.1,92.1,86.9,88.6,86.9z"/>
	</g>
	<path class="st1" d="M74.3,51.1h-41c-5.8,0-10.5-4.7-10.5-10.4c0-4.5,2.9-8.5,7.1-9.9c-0.4-1-0.6-2.1-0.6-3.1c0-5,4.1-9,9-9
		c1.6,0,3.2,0.4,4.5,1.2c1.7-6.7,7.8-11.6,14.9-11.6c8.5,0,15.4,6.9,15.4,15.4c0,0.4,0,0.8-0.1,1.3c7.7-0.7,14.3,5.5,14.3,13.1
		C87.5,45.2,81.6,51.1,74.3,51.1z M38.5,20.9c-3.7,0-6.8,3-6.8,6.8c0,1.2,0.3,2.3,0.9,3.3c0.2,0.3,0.2,0.7,0,1
		c-0.2,0.3-0.5,0.6-0.8,0.6c-3.8,0.7-6.6,4.1-6.6,8c0,4.5,3.7,8.2,8.2,8.2h41c6,0,10.9-4.9,10.9-10.8s-4.9-10.8-10.9-10.8
		c-0.7,0-1.5,0.1-2.2,0.2c-0.4,0.1-0.8,0-1-0.3c-0.3-0.3-0.4-0.6-0.3-1c0.2-0.8,0.2-1.6,0.2-2.4c0-7.2-5.9-13.1-13.1-13.1
		c-6.6,0-12.1,4.9-13,11.4c-0.1,0.4-0.3,0.8-0.7,0.9C43.8,23,43.3,23,43,22.7C41.8,21.5,40.2,20.9,38.5,20.9z"/>
	<path class="st1" d="M18.6,88H8.2C3.7,88,0,84.3,0,79.8V69.4c0-4.5,3.7-8.2,8.2-8.2h10.4c4.5,0,8.2,3.7,8.2,8.2v10.4
		C26.8,84.3,23.1,88,18.6,88z M8.2,63.5c-3.3,0-5.9,2.6-5.9,5.9v10.4c0,3.3,2.6,5.9,5.9,5.9h10.4c3.3,0,5.9-2.6,5.9-5.9V69.4
		c0-3.3-2.6-5.9-5.9-5.9C18.6,63.5,8.2,63.5,8.2,63.5z"/>
	<path class="st1" d="M53.2,88H42.8c-4.5,0-8.2-3.7-8.2-8.2V69.4c0-4.5,3.7-8.2,8.2-8.2h10.4c4.5,0,8.2,3.7,8.2,8.2v10.4
		C61.4,84.3,57.7,88,53.2,88z M42.8,63.5c-3.3,0-5.9,2.6-5.9,5.9v10.4c0,3.3,2.6,5.9,5.9,5.9h10.4c3.3,0,5.9-2.6,5.9-5.9V69.4
		c0-3.3-2.6-5.9-5.9-5.9C53.2,63.5,42.8,63.5,42.8,63.5z"/>
	<path class="st1" d="M87.8,88H77.4c-4.5,0-8.2-3.7-8.2-8.2V69.4c0-4.5,3.7-8.2,8.2-8.2h10.4c4.5,0,8.2,3.7,8.2,8.2v10.4
		C96,84.3,92.3,88,87.8,88z M77.4,63.5c-3.3,0-5.9,2.6-5.9,5.9v10.4c0,3.3,2.6,5.9,5.9,5.9h10.4c3.3,0,5.9-2.6,5.9-5.9V69.4
		c0-3.3-2.6-5.9-5.9-5.9C87.8,63.5,77.4,63.5,77.4,63.5z"/>
	<path class="st1" d="M48,73.7c-0.6,0-1.1-0.5-1.1-1.1V50c0-0.6,0.5-1.1,1.1-1.1c0.6,0,1.1,0.5,1.1,1.1v22.6
		C49.1,73.2,48.6,73.7,48,73.7z"/>
	<path class="st1" d="M13.4,74c-0.6,0-1.1-0.5-1.1-1.1V54.5c0-0.6,0.5-1.1,1.1-1.1h11.8v-6.6c0-0.6,0.5-1.1,1.1-1.1
		c0.6,0,1.1,0.5,1.1,1.1v7.7c0,0.6-0.5,1.1-1.1,1.1H14.5v17.2C14.5,73.5,14,74,13.4,74z"/>
	<path class="st1" d="M82.6,73.7c-0.6,0-1.1-0.5-1.1-1.1v-17H70.3c-0.6,0-1.1-0.5-1.1-1.1V50c0-0.6,0.5-1.1,1.1-1.1s1.1,0.5,1.1,1.1
		v3.4h11.1c0.6,0,1.1,0.5,1.1,1.1v18.1C83.7,73.2,83.2,73.7,82.6,73.7z"/>
</g>
</svg>
