<?xml version="1.0" encoding="utf-8"?>
<!-- Generator: Adobe Illustrator 23.0.3, SVG Export Plug-In . SVG Version: 6.00 Build 0)  -->
<svg version="1.1" id="layer_1" xmlns="http://www.w3.org/2000/svg" xmlns:xlink="http://www.w3.org/1999/xlink" x="0px" y="0px"
	 viewBox="0 0 96 88" style="enable-background:new 0 0 96 88;" xml:space="preserve">
<style type="text/css">
	.st0{fill:#76C5D4;}
	.st1{fill:#FFFFFF;}
	.st2{fill:#274242;}
	.st3{fill:#3A1A35;}
</style>
<g>
	<g>
		<g>
			<path class="st0" d="M42.9,35.6l-9.4,7.6l7.5,5.5l6.1-12.9C45.7,35.7,44.4,35.6,42.9,35.6z"/>
			<path class="st0" d="M19.9,35.9L26,48.8l7.5-5.5l-9.4-7.6C22.6,35.6,21.3,35.7,19.9,35.9z"/>
		</g>
		<path class="st0" d="M26.1,12.3c5.8-5,16.2-3.9,21.6,1.8C47.1,6.3,41.6,1.3,33.5,1.3c-5.6,0-9.9,2.4-12.3,6.4
			C24.5,9.7,26.1,12.3,26.1,12.3z"/>
		<path class="st1" d="M65.5,50.9c-2.6-7.1-7.9-13.6-18.4-15L41,48.8l-7.5-5.5l0,0l0,0L26,48.8l-6.1-12.9
			c-10.5,1.4-15.8,7.9-18.4,15c-0.5,1.4-0.2,2.9,0.7,4c5.9,7.5,14.5,12.8,24.3,14.6l0,0c2.3,0.4,4.6,0.6,7,0.6c2.4,0,4.7-0.2,7-0.6
			l0,0c9.8-1.7,18.3-7.1,24.3-14.6C65.7,53.7,66,52.2,65.5,50.9z"/>
		<path class="st2" d="M66.7,50.4L66.7,50.4c-3.4-9.3-10-14.6-19.5-15.8c-1.5-0.2-3-0.3-4.3-0.3c-0.3,0-0.6,0.1-0.8,0.3l-8.6,7
			l-8.6-7c-0.2-0.2-0.5-0.3-0.8-0.3c-1.4,0-2.8,0.1-4.4,0.3c-9.5,1.2-16,6.6-19.4,15.8c-0.6,1.7-0.3,3.8,0.9,5.3
			c6.3,7.9,15.1,13.3,25,15c2.4,0.4,4.9,0.7,7.3,0.7s4.8-0.2,7.3-0.7c9.9-1.8,18.8-7.1,25-15C67,54.2,67.3,52.2,66.7,50.4z
			 M43.3,36.9c0.6,0,1.2,0,1.8,0.1l-4.6,9.8l-4.9-3.6L43.3,36.9z M23.7,36.9l7.7,6.3l-4.9,3.6L21.9,37
			C22.5,36.9,23.1,36.9,23.7,36.9z M3.2,54.1c-0.6-0.8-0.8-1.9-0.5-2.8c2.9-8,8.5-12.7,16.4-14l5.7,12c0.2,0.3,0.5,0.6,0.9,0.7
			c0.1,0,0.2,0,0.3,0c0.1,0,0.1,0,0.2,0s0.1,0,0.1,0c0.2,0,0.3-0.1,0.5-0.2l5.4-4v22.9c-1.8-0.1-3.7-0.3-5.5-0.6
			C17.4,66.5,9.1,61.5,3.2,54.1z M63.8,54.1c-5.9,7.4-14.2,12.4-23.5,14.1c-1.8,0.3-3.7,0.5-5.5,0.6V45.8l5.4,4
			c0.1,0.1,0.3,0.2,0.5,0.2c0.1,0,0.1,0,0.1,0c0.1,0,0.1,0,0.2,0c0.1,0,0.2,0,0.3,0c0.4-0.1,0.7-0.4,0.8-0.7l5.7-12
			c8,1.3,13.5,6,16.4,14C64.6,52.2,64.4,53.3,63.8,54.1z"/>
		<path class="st1" d="M47.7,14.1c-5.4-5.7-15.8-6.8-21.6-1.8c0,0-1.7-2.6-4.9-4.6c-1.3,2.2-2,4.9-2,7.9c0,8.6,5.7,17,14.3,17
			s14.3-8.3,14.3-17C47.8,15.1,47.8,14.6,47.7,14.1z"/>
		<path class="st2" d="M49,14C48.3,5.5,42.3,0,33.5,0c-6,0-10.7,2.5-13.4,7c-1.5,2.5-2.2,5.3-2.2,8.6c0,9,5.8,18.3,15.6,18.3
			s15.6-9.3,15.6-18.3C49.1,15,49.1,14.5,49,14z M33.5,2.6c6.2,0,10.6,3.1,12.3,8.2c-0.1-0.1-0.3-0.2-0.5-0.3
			c-0.2-0.1-0.3-0.2-0.5-0.3c-0.3-0.2-0.6-0.3-0.8-0.4c-0.2-0.1-0.3-0.2-0.5-0.2c-0.3-0.2-0.7-0.3-1-0.4c-0.1,0-0.2-0.1-0.3-0.1
			c-0.5-0.2-0.9-0.3-1.4-0.5c-0.1,0-0.2,0-0.3-0.1c-0.4-0.1-0.8-0.2-1.2-0.3c-0.2,0-0.3-0.1-0.5-0.1C38.6,8.1,38.3,8,38,8
			c-0.2,0-0.4,0-0.5-0.1c-0.3,0-0.6-0.1-0.9-0.1c-0.2,0-0.4,0-0.6,0c-0.1,0-0.3,0-0.4,0c-0.2,0-0.3,0-0.5,0c-0.2,0-0.3,0-0.5,0
			c-0.4,0-0.7,0.1-1.1,0.1c-0.1,0-0.2,0-0.3,0c-0.5,0.1-0.9,0.1-1.4,0.2c-0.1,0-0.2,0.1-0.3,0.1c-0.3,0.1-0.7,0.2-1,0.3
			c-0.2,0-0.3,0.1-0.4,0.1c-0.3,0.1-0.6,0.2-0.8,0.3c-0.2,0.1-0.3,0.1-0.5,0.2c-0.3,0.1-0.6,0.3-0.8,0.4c-0.1,0.1-0.3,0.1-0.4,0.2
			c-0.4,0.2-0.8,0.5-1.1,0.7c-0.2-0.2-0.4-0.5-0.7-0.8c-0.1-0.1-0.2-0.2-0.3-0.3C25.2,9.2,25,9,24.8,8.8c-0.1-0.1-0.3-0.2-0.4-0.4
			c-0.2-0.2-0.5-0.4-0.7-0.6c-0.1-0.1-0.3-0.2-0.4-0.3c-0.1-0.1-0.1-0.1-0.2-0.2C25.3,4.3,29,2.6,33.5,2.6z M33.5,31.3
			c-8.1,0-13-8-13-15.7c0-2.2,0.4-4.2,1.2-6c0.3,0.2,0.5,0.4,0.7,0.6c0,0,0,0,0.1,0c0.3,0.2,0.5,0.4,0.7,0.7
			c0.1,0.1,0.1,0.1,0.2,0.2c0.1,0.1,0.3,0.3,0.4,0.4c0.1,0.1,0.1,0.2,0.2,0.2c0.1,0.1,0.2,0.2,0.3,0.3c0.1,0.1,0.1,0.1,0.2,0.2
			c0.1,0.1,0.2,0.2,0.2,0.3c0,0.1,0.1,0.1,0.1,0.1c0.1,0.1,0.1,0.1,0.1,0.2c0,0,0,0.1,0.1,0.1c0,0.1,0.1,0.1,0.1,0.1
			c0.1,0.1,0.1,0.1,0.2,0.2c0.1,0.1,0.1,0.1,0.2,0.2c0.2,0.1,0.3,0.2,0.5,0.2c0.4,0.1,0.7-0.1,1-0.3c0.3-0.3,0.6-0.5,1-0.8
			c0.1-0.1,0.3-0.2,0.4-0.2c0.2-0.1,0.5-0.3,0.7-0.4c0.2-0.1,0.3-0.2,0.5-0.2c0.2-0.1,0.4-0.2,0.7-0.3c0.2-0.1,0.4-0.1,0.6-0.2
			c0.2-0.1,0.4-0.2,0.7-0.2c0.2-0.1,0.4-0.1,0.6-0.1c0.2-0.1,0.5-0.1,0.7-0.2c0.2,0,0.4-0.1,0.6-0.1c0.2,0,0.5-0.1,0.7-0.1
			c0.2,0,0.4,0,0.6,0c0.2,0,0.5,0,0.7,0c0.2,0,0.4,0,0.7,0c0.2,0,0.5,0,0.7,0c0.2,0,0.4,0.1,0.7,0.1c0.2,0,0.5,0.1,0.7,0.1
			c0.2,0,0.4,0.1,0.7,0.1c0.2,0.1,0.5,0.1,0.7,0.2c0.2,0.1,0.4,0.1,0.6,0.2c0.2,0.1,0.5,0.1,0.7,0.2c0.2,0.1,0.4,0.2,0.6,0.2
			c0.2,0.1,0.4,0.2,0.7,0.3c0.2,0.1,0.4,0.2,0.6,0.3c0.2,0.1,0.4,0.2,0.6,0.3c0.2,0.1,0.4,0.2,0.6,0.3c0.2,0.1,0.4,0.2,0.6,0.4
			c0.2,0.1,0.4,0.3,0.6,0.4c0.2,0.1,0.4,0.3,0.5,0.4c0.2,0.1,0.3,0.3,0.5,0.4c0.1,0.1,0.2,0.2,0.3,0.3c0,0.3,0,0.6,0,0.9
			C46.5,23.3,41.6,31.3,33.5,31.3z"/>
		<path class="st2" d="M38.8,53.7c-0.7,0-1.3-0.6-1.3-1.3c0-0.7,0.6-1.3,1.3-1.3c0.7,0,1.3,0.5,1.3,1.3v0.1
			C40.1,53.1,39.6,53.7,38.8,53.7z"/>
		<path class="st2" d="M38.8,60c-0.7,0-1.3-0.6-1.3-1.3v-0.2c0-0.7,0.6-1.3,1.3-1.3c0.7,0,1.3,0.6,1.3,1.3v0.2
			C40.1,59.5,39.6,60,38.8,60z"/>
		<path class="st2" d="M38.8,66.3c-0.7,0-1.3-0.6-1.3-1.3c0-0.7,0.6-1.3,1.3-1.3c0.7,0,1.3,0.5,1.3,1.3V65
			C40.1,65.7,39.6,66.3,38.8,66.3z"/>
	</g>
	<g>
		<path class="st0" d="M55.5,86.1L59.1,68h6.7l3.7,18.1c9.8-1.7,18.3-7.1,24.3-14.6c0.9-1.1,1.2-2.6,0.7-4
			c-2.6-7.1-7.9-13.6-18.4-15L70,65.5l-7.5-5.5l0,0L55,65.5l-6.1-12.9c-10.5,1.4-15.8,7.9-18.4,15c-0.5,1.4-0.2,2.9,0.7,4
			C37.1,79,45.7,84.3,55.5,86.1z"/>
		<path class="st0" d="M62.5,27.2c7.4,3.6,12.8-1.9,12.8-1.9c-2.2-4.6-6.8-7.4-12.8-7.4c-7.4,0-12.6,4.2-13.9,10.8
			C48.7,28.6,54.8,23.5,62.5,27.2z"/>
		<path class="st1" d="M70,65.4l6.1-12.9c-1.3-0.2-2.7-0.3-4.2-0.3l-9.4,7.6l-9.4-7.6c-1.5,0-2.9,0.1-4.2,0.3L55,65.4l2.3-1.7
			l1.8,4.2l-3.7,18.1c2.3,0.4,4.6,0.6,7,0.6c2.4,0,4.7-0.2,7-0.6L65.9,68l2.1-4C69.1,64.8,70,65.4,70,65.4z"/>
		<path class="st2" d="M95.7,67.1c-3.4-9.3-10-14.6-19.5-15.8c-1.5-0.2-3-0.3-4.4-0.3c-0.3,0-0.6,0.1-0.8,0.3l-8.6,7l-8.6-7
			c-0.2-0.2-0.5-0.3-0.8-0.3c-1.4,0-2.8,0.1-4.3,0.3c-9.5,1.2-16,6.6-19.5,15.8c-0.6,1.7-0.3,3.8,0.9,5.3c6.3,7.9,15.1,13.3,25,15
			l0,0l0,0c2.4,0.4,4.9,0.6,7.3,0.6c2.4,0,4.8-0.2,7.3-0.6l0,0c9.9-1.8,18.8-7.1,25-15C96,70.8,96.3,68.8,95.7,67.1z M72.3,53.6
			c0.6,0,1.2,0,1.8,0.1l-4.6,9.8c-1-0.8-2.5-1.8-3.7-2.8c-0.4-0.3-0.8-0.6-1.1-0.8L72.3,53.6z M65.1,66.7H60l-1.1-2.5l0.5-0.3
			l3.2-2.3l1,0.7c0.7,0.5,1.6,1.2,2.8,2.1L65.1,66.7z M52.7,53.6l7.7,6.3l-4.9,3.6l-4.6-9.8C51.5,53.6,52.1,53.6,52.7,53.6z
			 M32.2,70.7c-0.6-0.8-0.8-1.9-0.5-2.8c2.9-8,8.5-12.7,16.4-14l5.7,12c0.2,0.3,0.5,0.6,0.8,0.7c0.1,0,0.2,0,0.3,0
			c0.1,0,0.1,0,0.2,0c0.1,0,0.1,0,0.2,0c0.2,0,0.3-0.1,0.5-0.2l1-0.7l1,2.3l-3.3,16.5C45.7,82.7,37.8,77.8,32.2,70.7z M57,85
			l1.8-8.7l1.4-7h4.6l1.3,6.5L68,85C64.3,85.6,60.7,85.6,57,85z M92.8,70.7c-5.6,7.1-13.5,12-22.2,13.8l-3.3-16.4l1.2-2.3
			c0.3,0.2,0.5,0.4,0.8,0.6c0.1,0.1,0.3,0.2,0.5,0.2c0.1,0,0.1,0,0.1,0c0.1,0,0.1,0,0.2,0c0.1,0,0.2,0,0.3,0
			c0.4-0.1,0.7-0.4,0.8-0.7l5.7-12c8,1.3,13.5,6,16.4,14C93.6,68.9,93.4,69.9,92.8,70.7z"/>
		<path class="st3" d="M76.1,28.5c-0.7,0-1.3-0.6-1.3-1.3v0c0-0.7,0.6-1.3,1.3-1.3c0.7,0,1.3,0.6,1.3,1.3
			C77.4,27.9,76.8,28.5,76.1,28.5z"/>
		<path class="st1" d="M75.3,25.3c0,0.1-5.4,5.5-12.8,1.9c-7.7-3.7-13.8,1.4-13.9,1.5c-0.2,1.1-0.4,2.3-0.4,3.5
			c0,8.6,5.7,17,14.3,17s14.3-8.3,14.3-17C76.8,29.6,76.3,27.3,75.3,25.3z"/>
		<path class="st2" d="M76.5,24.8c-2.5-5.1-7.6-8.1-14-8.1c-7.9,0-13.7,4.5-15.2,11.8c-0.3,1.2-0.4,2.5-0.4,3.8
			c0,9,5.8,18.3,15.6,18.3s15.6-9.3,15.6-18.3C78.1,29.5,77.5,27,76.5,24.8z M62.5,19.3c5,0,9,2.1,11.2,5.8c0,0-0.1,0.1-0.1,0.1
			c0,0-0.1,0.1-0.1,0.1c-0.1,0.1-0.3,0.2-0.4,0.3c0,0,0,0,0,0c-0.2,0.1-0.3,0.2-0.5,0.3c-0.1,0-0.1,0.1-0.2,0.1
			c-0.1,0.1-0.3,0.2-0.4,0.2c-0.1,0-0.1,0.1-0.2,0.1c-0.2,0.1-0.3,0.2-0.5,0.2c-0.1,0-0.1,0-0.1,0.1c-0.2,0.1-0.5,0.2-0.7,0.3
			c0,0-0.1,0-0.1,0c-0.2,0.1-0.4,0.1-0.7,0.2c-0.1,0-0.2,0-0.2,0.1c-0.2,0-0.4,0.1-0.6,0.1c-0.1,0-0.2,0-0.3,0c-0.3,0-0.5,0-0.8,0
			c0,0-0.1,0-0.1,0c-0.3,0-0.6,0-1-0.1c-0.1,0-0.2,0-0.2,0c-0.3,0-0.5-0.1-0.8-0.1c-0.1,0-0.2-0.1-0.3-0.1c-0.2-0.1-0.5-0.1-0.8-0.2
			c-0.1,0-0.2-0.1-0.3-0.1c-0.4-0.1-0.7-0.3-1.1-0.5c-0.5-0.3-1.1-0.5-1.6-0.7c-0.2-0.1-0.4-0.1-0.5-0.2c-0.3-0.1-0.7-0.2-1-0.3
			c-0.2-0.1-0.4-0.1-0.6-0.1c-0.3-0.1-0.6-0.1-0.9-0.1c-0.2,0-0.4,0-0.6-0.1c-0.3,0-0.5,0-0.8,0c-0.1,0-0.1,0-0.2,0
			c-0.1,0-0.2,0-0.3,0c-0.4,0-0.7,0-1.1,0.1c-0.2,0-0.3,0-0.5,0.1c-0.4,0.1-0.8,0.1-1.1,0.2c-0.1,0-0.2,0-0.3,0.1
			c-0.4,0.1-0.9,0.2-1.3,0.4c-0.1,0-0.2,0.1-0.4,0.1c-0.3,0.1-0.5,0.2-0.8,0.3c-0.1,0-0.1,0.1-0.2,0.1C52.9,21.7,57,19.3,62.5,19.3z
			 M62.5,47.9c-8.1,0-13-8-13-15.7c0-0.9,0.1-1.9,0.2-2.8c0.1-0.1,0.2-0.1,0.3-0.2c0,0,0.1-0.1,0.1-0.1c0.1-0.1,0.2-0.1,0.3-0.2
			c0.1,0,0.2-0.1,0.2-0.1c0.1-0.1,0.2-0.1,0.3-0.2s0.2-0.1,0.3-0.2c0.1-0.1,0.2-0.1,0.3-0.1c0.1-0.1,0.2-0.1,0.3-0.2
			c0.1-0.1,0.2-0.1,0.3-0.1c0.1-0.1,0.2-0.1,0.4-0.1c0.1-0.1,0.3-0.1,0.4-0.1c0.1,0,0.3-0.1,0.4-0.1c0.2-0.1,0.3-0.1,0.5-0.1
			c0.1,0,0.2-0.1,0.4-0.1c0.3-0.1,0.6-0.1,0.9-0.2c0.1,0,0.2,0,0.4-0.1c0.2,0,0.4-0.1,0.6-0.1c0.1,0,0.3,0,0.4,0c0.2,0,0.4,0,0.6,0
			c0.2,0,0.3,0,0.5,0c0.2,0,0.4,0,0.6,0.1c0.2,0,0.3,0,0.5,0.1c0.2,0,0.4,0.1,0.7,0.1c0.2,0,0.3,0.1,0.5,0.1
			c0.3,0.1,0.5,0.1,0.8,0.2c0.1,0,0.3,0.1,0.4,0.1c0.4,0.1,0.8,0.3,1.2,0.5c0.5,0.2,0.9,0.4,1.4,0.6c0.1,0,0.2,0.1,0.4,0.1
			c0.4,0.1,0.7,0.2,1.1,0.3c0.1,0,0.2,0,0.2,0.1c0.4,0.1,0.8,0.2,1.3,0.2c0.1,0,0.2,0,0.3,0c0.3,0,0.7,0.1,1,0.1c0.1,0,0.2,0,0.3,0
			c0.4,0,0.8,0,1.1-0.1c0,0,0,0,0.1,0c0.3,0,0.7-0.1,1-0.2c0.1,0,0.2,0,0.2-0.1c0.3-0.1,0.6-0.2,0.9-0.2c0,0,0.1,0,0.1,0
			c0.3-0.1,0.6-0.2,0.9-0.3c0.1,0,0.1-0.1,0.2-0.1c0.2-0.1,0.5-0.2,0.7-0.3c0.1,0,0.1-0.1,0.2-0.1c0.3-0.1,0.5-0.3,0.7-0.4
			c0,0,0,0,0.1,0c0.2-0.1,0.4-0.2,0.6-0.4c0,0,0.1-0.1,0.1-0.1c0,0,0.1-0.1,0.1-0.1c0.5,1.5,0.7,3.1,0.7,4.8
			C75.5,39.9,70.6,47.9,62.5,47.9z"/>
	</g>
</g>
</svg>
