<?xml version="1.0" encoding="utf-8"?>
<!-- Generator: Adobe Illustrator 23.0.3, SVG Export Plug-In . SVG Version: 6.00 Build 0)  -->
<svg version="1.1" id="layer_1" xmlns="http://www.w3.org/2000/svg" xmlns:xlink="http://www.w3.org/1999/xlink" x="0px" y="0px"
	 viewBox="0 0 88.7 88.7" style="enable-background:new 0 0 88.7 88.7;" xml:space="preserve">
<style type="text/css">
	.st0{fill:#FFFFFF;}
	.st1{fill:#703407;}
	.st2{fill:#F7BE56;}
</style>
<g>
	<path class="st0" d="M36.8,86.3l3.9-19.4h7.2l3.9,19.4c11.3-2,21.1-8.5,27.4-17.6c-2.5-8.4-8.1-16.7-20.5-18.3l-6.5,13.8l-8-5.9
		l0,0l-8,5.9l-6.5-13.8c-12.3,1.6-18,9.9-20.5,18.3C15.7,77.8,25.5,84.3,36.8,86.3z"/>
	<path class="st1" d="M36.8,88c-0.1,0-0.2,0-0.3,0C24.9,85.9,14.8,79.4,8,69.7c-0.3-0.4-0.4-0.9-0.2-1.4
		c3.3-11.3,10.9-18.1,21.8-19.5c0.7-0.1,1.4,0.3,1.7,0.9l5.6,12l6.4-4.7c0.6-0.4,1.4-0.4,2,0c0.1,0.1,4,3,6.4,4.7l5.6-12
		c0.3-0.7,1-1,1.7-0.9c11,1.4,18.5,8.2,21.8,19.5c0.1,0.5,0.1,1-0.2,1.4C73.9,79.4,63.8,85.9,52.2,88c-0.9,0.2-1.8-0.4-1.9-1.3
		l-3.7-18h-4.5l-3.7,18C38.3,87.4,37.6,88,36.8,88z M11.2,68.4c5.9,8.2,14.5,13.8,24.3,15.9l3.6-17.8c0.2-0.8,0.8-1.3,1.6-1.3h7.2
		c0.8,0,1.5,0.6,1.6,1.3l3.6,17.8c9.8-2.1,18.3-7.7,24.3-15.9c-2.9-9.2-8.9-14.7-17.6-16.2l-6,12.7c-0.2,0.5-0.6,0.8-1.1,0.9
		c-0.5,0.1-1,0-1.4-0.3c-3.9-2.9-6-4.4-7-5.2l-7,5.2c-0.4,0.3-0.9,0.4-1.4,0.3c-0.5-0.1-0.9-0.5-1.1-0.9l-6-12.7
		C20.1,53.8,14.1,59.2,11.2,68.4z"/>
	<g>
		<path class="st2" d="M44.3,1.7C20.8,1.7,1.7,20.8,1.7,44.3c0,9.1,2.8,17.5,7.7,24.4c2.5-8.4,8.1-16.7,20.5-18.3l6.5,13.8l4.4-3.3
			v5.9h7.2V61c2.1,1.6,4.4,3.3,4.4,3.3l6.5-13.8c12.3,1.6,18,9.9,20.5,18.3c4.8-6.9,7.7-15.3,7.7-24.4C87,20.8,67.9,1.7,44.3,1.7z
			 M45.8,59.4c0.2,0.1,0.4,0.3,0.5,0.4L45.8,59.4z"/>
		<path class="st2" d="M40.7,66.9l-3.9,19.4c2.4,0.4,5,0.7,7.5,0.7c2.6,0,5.1-0.2,7.5-0.7l-3.9-19.4H40.7z"/>
	</g>
	<path class="st0" d="M61.1,28.7c0,9.2-7.5,16.7-16.7,16.7c-9.2,0-16.7-7.5-16.7-16.7c0-9.2,7.5-16.7,16.7-16.7
		C53.6,12,61.1,19.4,61.1,28.7z"/>
	<path class="st1" d="M44.3,47.1c-10.1,0-18.4-8.3-18.4-18.4c0-10.1,8.3-18.4,18.4-18.4s18.4,8.3,18.4,18.4
		C62.7,38.8,54.5,47.1,44.3,47.1z M44.3,13.6c-8.3,0-15.1,6.8-15.1,15.1c0,8.3,6.8,15.1,15.1,15.1c8.3,0,15.1-6.8,15.1-15.1
		C59.4,20.4,52.6,13.6,44.3,13.6z"/>
	<path class="st1" d="M44.3,0C19.9,0,0,19.9,0,44.3c0,9.1,2.8,17.9,8,25.4c0.4,0.5,1,0.8,1.6,0.7c0.6-0.1,1.2-0.6,1.3-1.2
		c2.9-9.7,8.9-15.4,17.9-17l6,12.7c0.2,0.5,0.6,0.8,1.1,0.9c0.1,0,0.3,0.1,0.4,0.1c0.1,0,0.1,0,0.2,0c0.1,0,0.1,0,0.2,0
		c0.2-0.1,0.4-0.1,0.6-0.3l1.7-1.3v2.5L35.2,86c-0.1,0.4,0,0.9,0.3,1.3c0.3,0.4,0.6,0.6,1.1,0.7c2.6,0.5,5.2,0.7,7.8,0.7
		c2.6,0,5.2-0.2,7.8-0.7c0.4-0.1,0.8-0.3,1.1-0.7c0.3-0.4,0.3-0.8,0.3-1.3l-3.9-19.2v-2.5c0.5,0.4,1.1,0.8,1.7,1.3
		c0.2,0.1,0.4,0.2,0.6,0.3c0.1,0,0.1,0,0.2,0c0.1,0,0.1,0,0.2,0c0.1,0,0.3,0,0.4-0.1c0.5-0.1,0.9-0.5,1.1-0.9l6-12.7
		c9,1.6,15,7.3,17.9,17c0.2,0.6,0.7,1.1,1.3,1.2c0.1,0,0.2,0,0.3,0c0.5,0,1.1-0.3,1.4-0.7c5.2-7.5,8-16.2,8-25.4
		C88.7,19.9,68.8,0,44.3,0z M32.3,51.8c0.5,0,0.9,0,1.4-0.1l7.9,6.4L37,61.7L32.3,51.8z M47.1,58.2l7.9-6.4c0.5,0,0.9,0,1.4,0.1
		l-4.6,9.8c-1.2-0.9-2.8-2.1-4.1-3C47.4,58.5,47.2,58.4,47.1,58.2z M44.3,60.4l1.9,1.4v3.4h-3.9v-3.4L44.3,60.4z M38.8,84.9
		l3.3-16.3h4.5l3.3,16.3C46.2,85.4,42.5,85.4,38.8,84.9z M79.8,64.9C76,55.6,68.9,50,59.1,48.8c0,0,0,0,0,0
		c-1.7-0.2-3.2-0.3-4.7-0.3c-0.4,0-0.8,0.1-1.1,0.4l-9,7.3l-9-7.3c-0.3-0.2-0.7-0.4-1.1-0.4c-1.5,0-3,0.1-4.7,0.3c0,0,0,0,0,0
		C19.8,50,12.7,55.6,8.9,64.9c-3.6-6.2-5.6-13.3-5.6-20.6c0-22.6,18.4-41,41-41c22.6,0,41,18.4,41,41C85.3,51.6,83.4,58.7,79.8,64.9
		z"/>
</g>
</svg>
