<?xml version="1.0" encoding="utf-8"?>
<!-- Generator: Adobe Illustrator 23.0.3, SVG Export Plug-In . SVG Version: 6.00 Build 0)  -->
<svg version="1.1" id="layer_1" xmlns="http://www.w3.org/2000/svg" xmlns:xlink="http://www.w3.org/1999/xlink" x="0px" y="0px"
	 viewBox="0 0 75.9 79.4" style="enable-background:new 0 0 75.9 79.4;" xml:space="preserve">
<style type="text/css">
	.st0{fill:#94D0B7;}
	.st1{fill:#253F31;}
	.st2{fill:#FFFFFF;}
</style>
<g>
	<polygon class="st0" points="74.7,8.7 65.5,1.1 10.3,1.1 1.1,8.7 1.1,31.4 10.3,31.4 1.1,39 1.1,61.7 74.7,61.7 74.7,39 65.5,31.4 
		74.7,31.4 	"/>
	<path class="st1" d="M50,56.7c-0.6,0-1.1-0.5-1.1-1.1V45.2c0-0.6,0.5-1.1,1.1-1.1c0.6,0,1.1,0.5,1.1,1.1v10.4
		C51.1,56.2,50.6,56.7,50,56.7z"/>
	<path class="st1" d="M58.9,56.7c-0.6,0-1.1-0.5-1.1-1.1V45.2c0-0.6,0.5-1.1,1.1-1.1c0.6,0,1.1,0.5,1.1,1.1v10.4
		C60,56.2,59.5,56.7,58.9,56.7z"/>
	<path class="st1" d="M67.7,56.7c-0.6,0-1.1-0.5-1.1-1.1V45.2c0-0.6,0.5-1.1,1.1-1.1c0.6,0,1.1,0.5,1.1,1.1v10.4
		C68.9,56.2,68.4,56.7,67.7,56.7z"/>
	<path class="st2" d="M40.9,53.5H9.7c-1.4,0-2.6-1.2-2.6-2.6v-0.9c0-1.4,1.2-2.6,2.6-2.6h31.2c1.4,0,2.6,1.2,2.6,2.6v0.9
		C43.5,52.3,42.4,53.5,40.9,53.5z"/>
	<path class="st1" d="M40.6,54.6H10.1c-2.2,0-4.1-1.8-4.1-4.1v-0.3c0-2.2,1.8-4.1,4.1-4.1h30.5c2.2,0,4.1,1.8,4.1,4.1v0.3
		C44.7,52.8,42.8,54.6,40.6,54.6z M10.1,48.5c-1,0-1.8,0.8-1.8,1.8v0.3c0,1,0.8,1.8,1.8,1.8h30.5c1,0,1.8-0.8,1.8-1.8v-0.3
		c0-1-0.8-1.8-1.8-1.8H10.1z"/>
	<path class="st1" d="M50,26.4c-0.6,0-1.1-0.5-1.1-1.1V14.9c0-0.6,0.5-1.1,1.1-1.1c0.6,0,1.1,0.5,1.1,1.1v10.4
		C51.1,25.9,50.6,26.4,50,26.4z"/>
	<path class="st1" d="M58.9,26.4c-0.6,0-1.1-0.5-1.1-1.1V14.9c0-0.6,0.5-1.1,1.1-1.1c0.6,0,1.1,0.5,1.1,1.1v10.4
		C60,25.9,59.5,26.4,58.9,26.4z"/>
	<path class="st1" d="M67.7,26.4c-0.6,0-1.1-0.5-1.1-1.1V14.9c0-0.6,0.5-1.1,1.1-1.1c0.6,0,1.1,0.5,1.1,1.1v10.4
		C68.9,25.9,68.4,26.4,67.7,26.4z"/>
	<path class="st2" d="M40.9,23.2H9.7c-1.4,0-2.6-1.2-2.6-2.6v-0.9c0-1.4,1.2-2.6,2.6-2.6h31.2c1.4,0,2.6,1.2,2.6,2.6v0.9
		C43.5,22,42.4,23.2,40.9,23.2z"/>
	<path class="st1" d="M40.6,24.3H10.1c-2.2,0-4.1-1.8-4.1-4.1V20c0-2.2,1.8-4.1,4.1-4.1h30.5c2.2,0,4.1,1.8,4.1,4.1v0.3
		C44.7,22.5,42.8,24.3,40.6,24.3z M10.1,18.1c-1,0-1.8,0.8-1.8,1.8v0.3c0,1,0.8,1.8,1.8,1.8h30.5c1,0,1.8-0.8,1.8-1.8V20
		c0-1-0.8-1.8-1.8-1.8H10.1z"/>
	<path class="st0" d="M42.4,73.8c0,2.5-2,4.5-4.5,4.5s-4.5-2-4.5-4.5c0-2.5,2-4.5,4.5-4.5S42.4,71.3,42.4,73.8z"/>
	<path class="st1" d="M75.9,31.4V8.7c0,0,0,0,0-0.1c0-0.1,0-0.2-0.1-0.3c0,0,0-0.1-0.1-0.1c0-0.1-0.1-0.2-0.2-0.2
		c0,0-0.1-0.1-0.1-0.1c0,0,0,0,0,0l-9.2-7.6C66.1,0.1,65.8,0,65.5,0H10.3c-0.3,0-0.5,0.1-0.7,0.3L0.4,7.9c0,0,0,0,0,0
		c0,0-0.1,0.1-0.1,0.1C0.2,8.1,0.2,8.2,0.1,8.2c0,0,0,0.1-0.1,0.1C0,8.5,0,8.6,0,8.7c0,0,0,0,0,0.1v22.7c0,0.6,0.5,1.1,1.1,1.1h6.1
		l-6.8,5.6c0,0,0,0,0,0c0,0-0.1,0.1-0.1,0.1c-0.1,0.1-0.1,0.1-0.2,0.2c0,0,0,0.1-0.1,0.1C0,38.8,0,38.9,0,39c0,0,0,0,0,0.1v22.7
		c0,0.6,0.5,1.1,1.1,1.1h35.7v5.4c-2.2,0.5-4,2.2-4.4,4.4H1.1c-0.6,0-1.1,0.5-1.1,1.1c0,0.6,0.5,1.1,1.1,1.1h31.3
		c0.5,2.6,2.8,4.5,5.5,4.5s5-1.9,5.5-4.5h31.3c0.6,0,1.1-0.5,1.1-1.1c0-0.6-0.5-1.1-1.1-1.1H43.5c-0.4-2.2-2.2-4-4.4-4.4v-5.4h35.7
		c0.6,0,1.1-0.5,1.1-1.1V39c0,0,0,0,0-0.1c0-0.1,0-0.2-0.1-0.3c0,0,0-0.1-0.1-0.1c0-0.1-0.1-0.2-0.2-0.2c0,0-0.1-0.1-0.1-0.1
		c0,0,0,0,0,0l-6.8-5.6h6.1C75.4,32.6,75.9,32.1,75.9,31.4z M41.3,73.8c0,1.9-1.5,3.4-3.4,3.4s-3.4-1.5-3.4-3.4s1.5-3.4,3.4-3.4
		S41.3,71.9,41.3,73.8z M10.7,2.3h54.4l6.5,5.4H4.3L10.7,2.3z M73.6,60.6H2.3V40.2h71.3V60.6z M71.6,37.9H4.3l6.5-5.4h54.4
		L71.6,37.9z M73.6,30.3h-8.1H10.3H2.3V9.9h71.3V30.3z"/>
</g>
</svg>
