<?xml version="1.0" encoding="utf-8"?>
<!-- Generator: Adobe Illustrator 23.0.3, SVG Export Plug-In . SVG Version: 6.00 Build 0)  -->
<svg version="1.1" id="layer_1" xmlns="http://www.w3.org/2000/svg" xmlns:xlink="http://www.w3.org/1999/xlink" x="0px" y="0px"
	 viewBox="0 0 79.1 92.8" style="enable-background:new 0 0 79.1 92.8;" xml:space="preserve">
<style type="text/css">
	.st0{fill:#E66673;}
	.st1{fill:#FFFFFF;}
	.st2{fill:#3F232C;}
	.st3{fill:#3A1A35;}
</style>
<g>
	<g>
		<path class="st0" d="M64.8,24.4l4.6-6.2c1.1-1.4,0.8-3.4-0.7-4.5c-1.4-1.1-3.4-0.8-4.5,0.7l-4.6,6.2c-5-3.1-10.7-5-16.9-5.5V7.5
			h-6.4V15c-6.2,0.5-11.9,2.5-16.9,5.5l-4.6-6.2c-1.1-1.4-3.1-1.7-4.5-0.7c-1.4,1.1-1.7,3.1-0.7,4.5l4.6,6.2
			c-8,7-13.1,17.4-13.1,28.9c0,21.2,17.2,38.4,38.4,38.4c21.2,0,38.4-17.2,38.4-38.4C77.9,41.7,72.8,31.4,64.8,24.4z"/>
		<rect x="29.9" y="1.1" class="st0" width="19.2" height="6.4"/>
	</g>
	<path class="st1" d="M71.5,53.3c0,17.7-14.3,32-32,32c-17.7,0-32-14.3-32-32c0-17.7,14.3-32,32-32C57.2,21.3,71.5,35.6,71.5,53.3z"
		/>
	<path class="st2" d="M39.5,86.4c-18.3,0-33.1-14.9-33.1-33.1c0-18.3,14.9-33.1,33.1-33.1c18.3,0,33.1,14.9,33.1,33.1
		C72.7,71.5,57.8,86.4,39.5,86.4z M39.5,22.4c-17,0-30.9,13.8-30.9,30.9c0,17,13.8,30.9,30.9,30.9c17,0,30.9-13.8,30.9-30.9
		C70.4,36.3,56.6,22.4,39.5,22.4z"/>
	<g>
		<path class="st2" d="M25.9,30.9c0.2,0,0.4,0,0.6-0.2c0.5-0.3,0.7-1,0.4-1.5c-0.3-0.5-1-0.7-1.5-0.4c-0.5,0.3-0.7,1-0.4,1.5
			C25.1,30.7,25.5,30.9,25.9,30.9z"/>
		<path class="st2" d="M12.3,52.2c-0.6,0-1.1,0.5-1.1,1.1s0.5,1.1,1.1,1.1c0.6,0,1.1-0.5,1.1-1.1C13.5,52.7,13,52.2,12.3,52.2z"/>
		<path class="st2" d="M15.4,40.7c0.2,0.1,0.4,0.2,0.6,0.2c0.4,0,0.8-0.2,1-0.6c0.3-0.5,0.1-1.2-0.4-1.5c-0.5-0.3-1.2-0.1-1.5,0.4
			C14.6,39.7,14.8,40.4,15.4,40.7z"/>
	</g>
	<path class="st0" d="M39.5,26.1l0,27.3L16,66.9v0c4.7,8.1,13.5,13.6,23.5,13.6c15,0,27.2-12.2,27.2-27.2
		C66.7,38.3,54.6,26.1,39.5,26.1z"/>
	<path class="st2" d="M39.5,81.6c-10.1,0-19.5-5.4-24.5-14.1c0,0-0.1-0.1-0.1-0.2c-0.2-0.5,0-1.1,0.5-1.4l23-13.2l0-26.7
		c0-0.6,0.5-1.1,1.1-1.1c15.6,0,28.3,12.7,28.3,28.3C67.9,68.9,55.1,81.6,39.5,81.6z M17.6,67.3c4.8,7.4,13.1,12,22,12
		c14.4,0,26.1-11.7,26.1-26.1c0-14-11.1-25.5-24.9-26l0,26.2c0,0.4-0.2,0.8-0.6,1L17.6,67.3z"/>
	<path class="st0" d="M42.7,53.4c0,1.8-1.4,3.2-3.2,3.2c-1.8,0-3.2-1.4-3.2-3.2c0-1.8,1.4-3.2,3.2-3.2
		C41.3,50.2,42.7,51.6,42.7,53.4z"/>
	<path class="st3" d="M39.5,57.7c-2.4,0-4.3-1.9-4.3-4.3c0-2.4,1.9-4.3,4.3-4.3s4.3,1.9,4.3,4.3C43.9,55.8,41.9,57.7,39.5,57.7z
		 M39.5,51.3c-1.1,0-2.1,0.9-2.1,2.1c0,1.1,0.9,2.1,2.1,2.1c1.1,0,2.1-0.9,2.1-2.1C41.6,52.3,40.7,51.3,39.5,51.3z"/>
	<path class="st2" d="M66.3,24.2l4-5.4c0.7-0.9,1-2.1,0.8-3.2c-0.2-1.1-0.8-2.2-1.7-2.8c-0.9-0.7-2.1-1-3.2-0.8
		c-1.1,0.2-2.2,0.8-2.8,1.7l-4,5.4c-4.7-2.7-10-4.5-15.5-5.1V8.7h5.3c0.6,0,1.1-0.5,1.1-1.1V1.1c0-0.6-0.5-1.1-1.1-1.1H29.9
		c-0.6,0-1.1,0.5-1.1,1.1v6.4c0,0.6,0.5,1.1,1.1,1.1h5.3V14c-5.4,0.6-10.8,2.3-15.5,5.1l-4-5.4C15,12.7,14,12.1,12.9,12
		c-1.1-0.2-2.3,0.1-3.2,0.8c-0.9,0.7-1.5,1.7-1.7,2.8c-0.2,1.1,0.1,2.3,0.8,3.2l4,5.4C4.6,31.7,0,42.2,0,53.3
		c0,21.8,17.7,39.5,39.5,39.5c21.8,0,39.5-17.7,39.5-39.5C79.1,42.2,74.4,31.7,66.3,24.2z M65.2,15c0.3-0.4,0.8-0.7,1.4-0.8
		c0.5-0.1,1.1,0.1,1.5,0.4c0.4,0.3,0.7,0.8,0.8,1.4c0.1,0.5-0.1,1.1-0.4,1.5l-3.9,5.2c0,0-0.1-0.1-0.1-0.1c-0.5-0.4-1-0.8-1.5-1.1
		c0,0,0,0,0,0c-0.5-0.4-1-0.7-1.6-1.1c0,0-0.1-0.1-0.1-0.1L65.2,15z M31.1,2.3H48v4.1h-5.3h-6.4h-5.3V2.3z M41.6,8.7v5.1
		c-0.1,0-0.1,0-0.2,0c-1.3-0.1-2.5-0.1-3.8,0c-0.1,0-0.1,0-0.2,0V8.7H41.6z M10.2,15.9c0.1-0.5,0.4-1,0.8-1.4
		c0.4-0.3,0.8-0.4,1.2-0.4c0.6,0,1.3,0.3,1.7,0.8v0l3.9,5.3c0,0-0.1,0.1-0.1,0.1c-0.5,0.3-1,0.7-1.6,1.1c0,0,0,0,0,0
		c-0.5,0.4-1,0.8-1.5,1.1c0,0-0.1,0.1-0.1,0.1l-3.9-5.2C10.2,17,10.1,16.5,10.2,15.9z M39.5,90.5C19,90.5,2.3,73.8,2.3,53.3
		c0-10.7,4.6-21,12.8-28.1c1.6-1.4,3.3-2.6,5-3.7c4.9-3,10.6-4.9,16.4-5.4c1.1-0.1,2.2-0.1,3.1-0.1c1,0,2,0,3.1,0.1
		c5.8,0.5,11.5,2.3,16.4,5.4c1.7,1.1,3.4,2.3,5,3.7c8.1,7.1,12.8,17.3,12.8,28.1C76.8,73.8,60.1,90.5,39.5,90.5z"/>
	<path class="st1" d="M48.5,65.9c0,1.8,1.4,3.2,3.2,3.2c1.8,0,3.2-1.4,3.2-3.2c0-1.8-1.4-3.2-3.2-3.2C49.9,62.7,48.5,64.1,48.5,65.9
		z"/>
	<path class="st2" d="M51.7,70.2c-2.4,0-4.3-1.9-4.3-4.3c0-2.4,1.9-4.3,4.3-4.3c2.4,0,4.3,1.9,4.3,4.3C56,68.2,54,70.2,51.7,70.2z
		 M51.7,63.8c-1.1,0-2.1,0.9-2.1,2.1c0,1.1,0.9,2.1,2.1,2.1c1.1,0,2.1-0.9,2.1-2.1C53.7,64.7,52.8,63.8,51.7,63.8z"/>
	<polygon class="st1" points="55.7,38.5 47.7,38.5 49.7,57.7 53.6,57.7 	"/>
	<path class="st2" d="M53.6,58.8h-3.8c-0.6,0-1.1-0.4-1.1-1l-2.1-19.2c0-0.3,0.1-0.6,0.3-0.9c0.2-0.2,0.5-0.4,0.8-0.4h8
		c0.3,0,0.6,0.1,0.8,0.4c0.2,0.2,0.3,0.6,0.3,0.9l-2.1,19.2C54.6,58.4,54.2,58.8,53.6,58.8z M50.8,56.6h1.8l1.8-16.9h-5.5L50.8,56.6
		z"/>
</g>
</svg>
