<?xml version="1.0" encoding="utf-8"?>
<!-- Generator: Adobe Illustrator 23.0.3, SVG Export Plug-In . SVG Version: 6.00 Build 0)  -->
<svg version="1.1" id="layer_1" xmlns="http://www.w3.org/2000/svg" xmlns:xlink="http://www.w3.org/1999/xlink" x="0px" y="0px"
	 viewBox="0 0 83.7 87.7" style="enable-background:new 0 0 83.7 87.7;" xml:space="preserve">
<style type="text/css">
	.st0{fill:#BA4D9B;}
	.st1{fill:#3A1A35;}
	.st2{fill:#FFFFFF;}
</style>
<g>
	<path class="st0" d="M74.6,15.9L74.6,15.9l0-5.4c0-5.1-4.2-9.3-9.3-9.3H15.9c-5.1,0-9.3,4.2-9.3,9.3v57.5c0,5.1,4.2,9.3,9.3,9.3
		h62.7c1.4,0,2.6-0.7,3.3-1.8c0.4-0.6,0.7-1.4,0.7-2.2v0V15.9C75.9,15.9,77.4,15.9,74.6,15.9z"/>
	<path class="st1" d="M22.3,44.8c-0.6,0-1.1-0.5-1.1-1.1c0-0.6,0.5-1.1,1.1-1.1l21.7,0c0.6,0,1.1,0.5,1.1,1.1c0,0.6-0.5,1.1-1.1,1.1
		L22.3,44.8z"/>
	<path class="st1" d="M44,50.4H15c-0.6,0-1.1-0.5-1.1-1.1s0.5-1.1,1.1-1.1H44c0.6,0,1.1,0.5,1.1,1.1S44.7,50.4,44,50.4z"/>
	<path class="st1" d="M82.6,14.7h-6.8v-4.3C75.8,4.7,71.1,0,65.3,0H15.9C10.1,0,5.5,4.7,5.5,10.4v57.5c0,5.8,4.7,10.4,10.4,10.4
		h62.7c2.8,0,5.1-2.3,5.1-5.1V15.9C83.7,15.2,83.2,14.7,82.6,14.7z M7.7,67.9V10.4c0-4.5,3.7-8.2,8.2-8.2h49.4
		c4.5,0,8.2,3.7,8.2,8.2v5.4c0,0,0,0,0,0v57.4c0,1,0.3,2,0.9,2.8H15.9C11.4,76.1,7.7,72.4,7.7,67.9z M81.5,73.2
		c0,1.6-1.3,2.8-2.8,2.8c-0.8,0-1.5-0.3-2-0.8c-0.5-0.5-0.8-1.3-0.8-2V17h5.7V73.2z"/>
	<path class="st2" d="M39,73c-3.9,0.1-1.2-3.1-1.8-5.4c-0.7-2.7-5.5-4-4.7-0.1c0.9,4-1.3,4.4-1.3,4.4s-2.5,0.2-3.4,1.3
		c-1.2,1.5-1.3,2.3-2,3.4c-0.7,1.1-2.3,2.4-3.9,0c-1.6-2.3,0.3-5.6,1.5-6.3c0.8-0.7,0.3-3.3-1.5-3.9c-2.4-0.8-2.4-3.6-0.1-5
		c2.3-1.4,3.5-0.2,5.9,1c2.4,1.3,5.1-2.5,1-3.5c-2.8-0.7-0.8-2.8,0-4.7c2.4-5.3,6-2.7,6.6-0.8c0.8,2.5,2.7,2.8,3.9,1.5
		c0.5-0.5,1-1,1.5-1.4c-3.9-6.1-10.7-10.1-18.4-10c-2.5,0-4.9,0.5-7.1,1.3c1,1.9,2.3,4.3,2.7,4.1c0.6-0.4,4.2-1.2,3.8,2.4
		c-0.5,4.2-9.5,1.6-9.5,1.6s1.5,3.1,1,6.6c-0.4,3.3-3.5,3.8-4.7,4c-3.9,0.7-4.5,4.7-0.1,4c4.3-0.7,0.6,5.4,5.4,4.1
		c4.3-1.2,2.4,9.1-1.6,7.5C10.5,78.7,9,79.7,8,80.8c3.9,3.6,9.1,5.8,14.8,5.7c8.3-0.1,15.5-5,19-12C41.3,73.9,40.7,72.9,39,73z"/>
	<path class="st0" d="M12.1,79.4c4.1,1.6,6-8.7,1.6-7.5c-4.8,1.3-1.1-4.7-5.4-4.1c-4.3,0.6-3.8-3.3,0.1-4c1.2-0.2,4.3-0.7,4.7-4
		c0.4-3.5-1-6.6-1-6.6s9,2.5,9.5-1.6c0.4-3.7-3.2-2.8-3.8-2.4c-0.3,0.2-1.7-2.2-2.7-4.1C6.9,48,1,56,1.1,65.4
		C1.2,71.5,3.9,77,8,80.8C9,79.7,10.5,78.7,12.1,79.4z"/>
	<path class="st0" d="M40.7,53.6c-0.5,0.4-1,0.8-1.5,1.4c-1.2,1.2-3.1,0.9-3.9-1.5c-0.6-1.9-4.2-4.4-6.6,0.8c-0.8,1.9-2.9,4,0,4.7
		c4.1,1,1.4,4.8-1,3.5c-2.4-1.3-3.5-2.4-5.9-1c-2.3,1.4-2.4,4.2,0.1,5c1.7,0.5,2.3,3.2,1.5,3.9c-1.1,0.7-3,4-1.5,6.3
		c1.6,2.3,3.2,1.1,3.9,0c0.7-1.1,0.8-1.9,2-3.4c0.9-1.1,3.4-1.3,3.4-1.3s2.1-0.4,1.3-4.4c-0.9-4,4-2.6,4.7,0.1
		c0.6,2.3-2.1,5.4,1.8,5.4c1.7,0,2.3,0.9,2.8,1.6c1.5-2.9,2.3-6.3,2.2-9.8C44,60.7,42.8,56.9,40.7,53.6z"/>
	<path class="st1" d="M41.7,53C41.7,53,41.7,53,41.7,53c-4.2-6.7-11.5-10.6-19.4-10.5c-2.6,0-5.1,0.5-7.5,1.4
		C5.8,47.2-0.1,55.8,0,65.4c0.1,6.3,2.7,12,7.3,16.3c0,0,0,0,0,0c4.2,3.9,9.6,6,15.3,6c0.1,0,0.2,0,0.3,0c8.5-0.1,16.2-4.9,20-12.6
		c1.6-3.2,2.4-6.7,2.3-10.3C45.1,60.6,43.9,56.6,41.7,53z M41.5,72.6C41.5,72.6,41.5,72.6,41.5,72.6c-0.6-0.4-1.4-0.7-2.5-0.7
		c-0.8,0-1-0.1-1-0.1l0,0c-0.1-0.2,0.1-1,0.2-1.4c0.2-0.9,0.4-2,0.1-3c-0.6-2.2-3.1-3.8-5.1-3.3c-1.2,0.3-2.3,1.4-1.8,3.8
		c0.5,2.1-0.1,2.9-0.4,3c-0.7,0.1-3,0.4-4.1,1.7c-0.8,1-1.2,1.8-1.6,2.5c-0.2,0.3-0.3,0.7-0.6,1c-0.3,0.5-0.7,0.8-1,0.8
		c-0.2,0.1-0.6-0.3-1-0.8c-0.4-0.6-0.5-1.3-0.3-2.2c0.3-1.3,1.1-2.4,1.5-2.6c0,0,0.1-0.1,0.1-0.1c0.7-0.6,0.9-1.6,0.7-2.7
		c-0.2-1.2-1-2.6-2.6-3.1c-0.6-0.2-1-0.6-1-1.1c-0.1-0.7,0.4-1.4,1.2-1.9c0.2-0.1,0.3-0.2,0.5-0.2c0,0,0.1,0,0.1,0
		c0.1,0,0.2-0.1,0.3-0.1c0,0,0.1,0,0.1,0c0.1,0,0.2,0,0.3,0c0,0,0,0,0,0c0,0,0.1,0,0.1,0c0.1,0,0.2,0,0.4,0c0.1,0,0.1,0,0.2,0.1
		c0.1,0,0.2,0.1,0.3,0.1c0.1,0,0.1,0.1,0.2,0.1c0.1,0.1,0.3,0.1,0.4,0.2c0.1,0,0.1,0.1,0.2,0.1c0.2,0.1,0.4,0.2,0.6,0.4
		c0.3,0.2,0.6,0.4,1,0.6c1.1,0.6,2.5,0.5,3.5-0.3c1-0.7,1.4-1.8,1.2-2.8c-0.1-0.7-0.7-1.9-2.9-2.5c-0.4-0.1-0.6-0.3-0.6-0.2
		c0-0.3,0.5-1.2,0.7-1.7c0.2-0.4,0.5-0.8,0.6-1.2c0.4-0.9,1.3-2.5,2.6-2.5c0.9,0.1,1.7,0.9,1.9,1.5c0.7,2.2,2,2.8,2.7,2.9
		c1.1,0.3,2.2-0.1,3-1c0.1-0.1,0.3-0.3,0.4-0.4c1.6,2.9,2.4,6.1,2.5,9.5C42.9,67.5,42.5,70.1,41.5,72.6z M14.7,46.4
		c0.1,0.1,0.1,0.2,0.2,0.3c0.1,0.1,0.1,0.2,0.2,0.3c0.1,0.1,0.1,0.2,0.2,0.3c0,0.1,0.1,0.2,0.1,0.2c0.1,0.2,0.2,0.3,0.3,0.5
		c0,0.1,0.1,0.1,0.1,0.2c0.1,0.1,0.1,0.2,0.2,0.3c0,0.1,0.1,0.1,0.1,0.2c0,0.1,0.1,0.1,0.1,0.2c0,0.1,0.1,0.1,0.1,0.1
		c0,0.1,0.1,0.1,0.1,0.2c0,0,0.1,0.1,0.1,0.1c0,0,0.1,0.1,0.1,0.1c0,0,0.1,0.1,0.1,0.1c0,0,0.1,0.1,0.1,0.1c0,0,0,0.1,0.1,0.1
		c0,0,0.1,0.1,0.1,0.1c0,0,0,0,0.1,0.1c0,0,0,0,0.1,0.1c0,0,0,0,0.1,0c0,0,0,0,0.1,0c0,0,0,0,0,0c0,0,0,0,0.1,0c0,0,0,0,0,0
		c0,0,0,0,0.1,0c0,0,0,0,0,0c0,0,0,0,0.1,0c0,0,0,0,0,0c0,0,0.1,0,0.1,0c0.3,0.1,0.7,0,1-0.1c0.3-0.1,1.3-0.4,1.8,0
		c0.4,0.2,0.3,1,0.3,1.4c0,0.4-0.2,0.6-0.5,0.9c-1.5,1-5.4,0.4-7.6-0.2c-0.4-0.1-0.9,0-1.2,0.4c-0.3,0.3-0.3,0.8-0.2,1.2
		c0,0,1.3,2.9,0.9,6c-0.3,2.1-1.9,2.7-3.8,3.1c-2.9,0.5-4.3,2.5-4.1,4.2c0.2,1.2,1.5,2.5,4.3,2.1c1-0.2,1,0,1.2,1.2
		c0.2,0.9,0.3,2,1.3,2.6c0.7,0.5,1.7,0.5,3,0.2c0.5-0.1,0.7,0,0.8,0.2c0.6,0.9,0.3,3.3-0.8,4.7c-0.3,0.4-0.6,0.6-0.9,0.6
		c-0.3,0.1-0.5,0-0.6-0.1c-0.2-0.1-0.4-0.1-0.6-0.2c-0.1,0-0.1,0-0.2,0c-0.1,0-0.3,0-0.4,0c-0.1,0-0.2,0-0.2,0c-0.1,0-0.3,0-0.4,0
		c-0.1,0-0.2,0-0.2,0c-0.1,0-0.3,0.1-0.4,0.1c-0.1,0-0.1,0-0.2,0.1c-0.2,0.1-0.4,0.2-0.6,0.3c0,0,0,0,0,0c-0.2,0.1-0.4,0.2-0.6,0.4
		C8.5,79,8.4,79,8.3,79c-0.1,0.1-0.2,0.1-0.3,0.2c-3.7-3.7-5.7-8.7-5.8-13.9C2.2,57.1,7.1,49.6,14.7,46.4z M22.8,85.4
		c-4.8,0.1-9.4-1.6-13.1-4.6c0,0,0,0,0.1,0c0.1-0.1,0.3-0.2,0.4-0.2c0,0,0.1,0,0.1,0c0.2-0.1,0.3-0.1,0.5-0.2c0,0,0,0,0.1,0
		c0.1,0,0.3,0,0.4,0c0,0,0.1,0,0.1,0c0.1,0,0.3,0,0.4,0.1c0,0,0,0,0,0h0c1.5,0.6,3,0.1,4.1-1.2c1.5-1.8,2.2-5.3,0.9-7.3
		c-0.7-1.1-1.9-1.5-3.2-1.1c-0.9,0.3-1.2,0.1-1.2,0.1c-0.1-0.1-0.3-0.7-0.3-1.1c-0.2-1.2-0.6-3.6-3.8-3.1c-1.2,0.2-1.7-0.1-1.7-0.2
		c-0.1-0.3,0.6-1.3,2.3-1.6c1.3-0.2,5.1-0.9,5.6-5c0.2-2-0.1-3.8-0.4-5.2c2.2,0.4,5.5,0.7,7.4-0.6c0.9-0.6,1.4-1.4,1.5-2.5
		c0.2-2.1-0.6-3.1-1.3-3.6c-0.5-0.3-1.1-0.5-1.7-0.5c-0.4,0-0.9,0-1.2,0.1c-0.1,0-0.2,0.1-0.4,0.1c0-0.1-0.1-0.2-0.2-0.3
		c0,0,0-0.1-0.1-0.1c-0.1-0.1-0.1-0.2-0.2-0.4c0,0,0-0.1,0-0.1c-0.1-0.1-0.2-0.3-0.3-0.5c0,0-0.1-0.1-0.1-0.2
		c-0.1-0.2-0.2-0.4-0.4-0.7c0,0,0,0,0-0.1c1.8-0.5,3.6-0.8,5.5-0.8c6.8-0.1,13,3.1,16.9,8.6c0,0,0,0,0,0c-0.3,0.2-0.5,0.5-0.8,0.8
		c-0.2,0.2-0.5,0.4-0.9,0.4c-0.4-0.1-0.9-0.6-1.1-1.4c-0.5-1.4-2.1-3-3.9-3.1c-1.1-0.1-3.2,0.3-4.7,3.8c-0.2,0.4-0.4,0.7-0.6,1.1
		c-0.6,1.2-1.4,2.5-0.8,3.7c0.3,0.7,1,1.3,2.1,1.5c0.9,0.2,1.2,0.6,1.2,0.7c0,0.1-0.1,0.4-0.3,0.6c0,0-0.1,0.1-0.2,0.1
		c-0.1,0.1-0.3,0.1-0.6,0.1c-0.1,0-0.2-0.1-0.4-0.1c-0.3-0.2-0.6-0.4-0.9-0.5c-1.9-1.1-3.5-2-6-0.5c-1.6,0.9-2.5,2.5-2.3,4.1
		c0.1,1.2,0.9,2.2,2.1,2.8c0.2,0.1,0.3,0.1,0.5,0.2c0.5,0.2,0.8,0.7,0.9,0.9c0.2,0.5,0.2,1,0.2,1c-0.9,0.6-2,2.2-2.3,4
		c-0.3,1.4-0.1,2.8,0.7,3.9c0.1,0.2,0.3,0.4,0.4,0.5c0,0.1,0.1,0.1,0.1,0.1c0.1,0.1,0.2,0.2,0.2,0.3c0.1,0.1,0.2,0.1,0.2,0.2
		c0,0,0.1,0.1,0.1,0.1c0.6,0.5,1.2,0.6,1.7,0.6c0,0,0,0,0,0c0,0,0,0,0,0c1.1,0,2.2-0.7,2.9-1.9c0.3-0.4,0.5-0.8,0.7-1.2
		c0.3-0.6,0.6-1.2,1.3-2.1c0.4-0.5,1.8-0.8,2.6-0.8c0,0,0.1,0,0.1,0c0.2,0,1.1-0.3,1.7-1.3c0.7-1.1,0.8-2.6,0.4-4.5
		c0-0.1-0.2-1,0.1-1.1c0.7-0.2,2.1,0.6,2.4,1.7c0.1,0.5,0,1.3-0.2,2c-0.2,1.1-0.5,2.3,0.3,3.3c0.1,0.2,0.3,0.3,0.5,0.4
		c0.6,0.4,1.3,0.5,2.3,0.5h0c0.2,0,0.3,0,0.5,0c0,0,0,0,0.1,0c0.3,0.1,0.5,0.2,0.7,0.3c0,0,0,0,0,0c0.1,0.1,0.2,0.2,0.2,0.2v0
		C37,81.2,30.3,85.3,22.8,85.4z"/>
	<rect x="15" y="9.5" class="st2" width="50.8" height="11.7"/>
	<path class="st1" d="M65.8,22.3H15c-0.6,0-1.1-0.5-1.1-1.1V9.5c0-0.6,0.5-1.1,1.1-1.1h50.8c0.6,0,1.1,0.5,1.1,1.1v11.7
		C66.9,21.8,66.4,22.3,65.8,22.3z M16.1,20h48.5v-9.4H16.1V20z"/>
	<rect x="51.5" y="43.6" class="st2" width="14.3" height="25.9"/>
	<path class="st1" d="M65.8,70.6H51.5c-0.6,0-1.1-0.5-1.1-1.1V43.6c0-0.6,0.5-1.1,1.1-1.1h14.3c0.6,0,1.1,0.5,1.1,1.1v25.9
		C66.9,70.1,66.4,70.6,65.8,70.6z M52.6,68.4h12V44.8h-12V68.4z"/>
	<path class="st1" d="M44,27.8H15c-0.6,0-1.1-0.5-1.1-1.1c0-0.6,0.5-1.1,1.1-1.1H44c0.6,0,1.1,0.5,1.1,1.1
		C45.2,27.3,44.7,27.8,44,27.8z"/>
	<path class="st1" d="M65.8,27.8H51.5c-0.6,0-1.1-0.5-1.1-1.1c0-0.6,0.5-1.1,1.1-1.1h14.3c0.6,0,1.1,0.5,1.1,1.1
		C66.9,27.3,66.4,27.8,65.8,27.8z"/>
	<path class="st1" d="M44,33.5H15c-0.6,0-1.1-0.5-1.1-1.1c0-0.6,0.5-1.1,1.1-1.1H44c0.6,0,1.1,0.5,1.1,1.1
		C45.2,33,44.7,33.5,44,33.5z"/>
	<path class="st1" d="M65.8,33.5H51.5c-0.6,0-1.1-0.5-1.1-1.1c0-0.6,0.5-1.1,1.1-1.1h14.3c0.6,0,1.1,0.5,1.1,1.1
		C66.9,33,66.4,33.5,65.8,33.5z"/>
	<path class="st1" d="M44,39.1H15c-0.6,0-1.1-0.5-1.1-1.1c0-0.6,0.5-1.1,1.1-1.1H44c0.6,0,1.1,0.5,1.1,1.1
		C45.2,38.6,44.7,39.1,44,39.1z"/>
	<path class="st1" d="M65.8,39.1H51.5c-0.6,0-1.1-0.5-1.1-1.1c0-0.6,0.5-1.1,1.1-1.1h14.3c0.6,0,1.1,0.5,1.1,1.1
		C66.9,38.6,66.4,39.1,65.8,39.1z"/>
</g>
</svg>
