<?xml version="1.0" encoding="utf-8"?>
<!-- Generator: Adobe Illustrator 23.0.3, SVG Export Plug-In . SVG Version: 6.00 Build 0)  -->
<svg version="1.1" id="layer_1" xmlns="http://www.w3.org/2000/svg" xmlns:xlink="http://www.w3.org/1999/xlink" x="0px" y="0px"
	 viewBox="0 0 104 74" style="enable-background:new 0 0 104 74;" xml:space="preserve">
<style type="text/css">
	.st0{fill:#94D0B7;}
	.st1{fill:#FFFFFF;}
	.st2{fill:#253F31;}
</style>
<g>
	<path class="st0" d="M99.1,62.8h-4.3v-58c0-2-1.6-3.7-3.6-3.7H12.8c-2,0-3.6,1.6-3.6,3.7v58H4.9c-2.1,0-3.7,1.7-3.7,3.8l0,0
		c0,3.5,2.8,6.3,6.3,6.3h89.2c3.5,0,6.3-2.8,6.3-6.3C102.9,64.5,101.2,62.8,99.1,62.8z"/>
	<path class="st1" d="M70.3,62.8H33.7l0,0c0,2.7,2.2,5,4.9,5h26.7C68.1,67.8,70.3,65.5,70.3,62.8L70.3,62.8z"/>
	<path class="st2" d="M99.1,61.7h-3.2V4.8c0-2.6-2.1-4.8-4.8-4.8H12.8c-2.6,0-4.8,2.1-4.8,4.8v56.9H4.9c-2.7,0-4.9,2.2-4.9,4.9
		C0,70.7,3.3,74,7.4,74h89.2c4.1,0,7.4-3.3,7.4-7.4C104,63.9,101.8,61.7,99.1,61.7z M10.3,4.8c0-1.4,1.1-2.5,2.5-2.5h78.4
		c1.4,0,2.5,1.1,2.5,2.5v56.9H70.3H33.7H10.3V4.8z M69,63.9c-0.5,1.6-1.9,2.7-3.7,2.7H38.7c-1.7,0-3.2-1.1-3.7-2.7
		C35,63.9,69,63.9,69,63.9z M96.6,71.8H7.4c-2.9,0-5.2-2.3-5.2-5.2c0-1.4,1.2-2.6,2.6-2.6h4.3h23.5c0.5,2.8,3,5,6,5h26.7
		c3,0,5.4-2.1,6-5h23.5h4.3c1.4,0,2.6,1.2,2.6,2.6C101.8,69.4,99.4,71.8,96.6,71.8z"/>
	<polygon class="st1" points="87.9,8.1 16.1,8.1 16.1,55.7 23.1,55.7 23.1,37.8 30.4,35.6 30.4,55.7 39.9,55.7 39.9,32.7 47.3,37.3 
		47.3,55.7 56.8,55.7 56.8,43.2 64.1,37.9 64.1,55.7 73.6,55.7 73.6,31 80.9,25.6 80.9,55.7 87.9,55.7 	"/>
	<polygon class="st0" points="73.6,31 73.6,55.7 80.9,55.7 80.9,25.6 	"/>
	<polygon class="st0" points="56.8,43.2 56.8,55.7 64.1,55.7 64.1,37.9 	"/>
	<polygon class="st0" points="39.9,32.7 39.9,55.7 47.3,55.7 47.3,37.3 	"/>
	<polygon class="st0" points="23.1,37.8 23.1,55.7 30.4,55.7 30.4,35.6 	"/>
	<path class="st2" d="M87.9,6.9H16.1c-0.6,0-1.1,0.5-1.1,1.1v47.7c0,0.6,0.5,1.1,1.1,1.1h7h7.3h9.5h7.3h9.5h7.3h9.5h7.3h7
		c0.6,0,1.1-0.5,1.1-1.1V8.1C89,7.4,88.5,6.9,87.9,6.9z M29.3,54.6h-5.1v-16l5.1-1.5V54.6z M46.1,54.6h-5.1V34.7l5.1,3.2V54.6z
		 M63,54.6h-5.1V43.8l5.1-3.7V54.6z M79.8,54.6h-5.1V31.5l5.1-3.7V54.6z M86.8,54.6H82v-29c0-0.4-0.2-0.8-0.6-1
		c-0.4-0.2-0.8-0.2-1.2,0.1l-7.3,5.3c-0.3,0.2-0.5,0.5-0.5,0.9v23.6h-7.3V37.9c0-0.4-0.2-0.8-0.6-1c-0.4-0.2-0.8-0.2-1.2,0.1
		l-7.3,5.3c-0.3,0.2-0.5,0.5-0.5,0.9v11.4h-7.3V37.3c0-0.4-0.2-0.7-0.5-1l-7.3-4.6c-0.3-0.2-0.8-0.2-1.1,0c-0.4,0.2-0.6,0.6-0.6,1
		v21.9h-7.3v-19c0-0.4-0.2-0.7-0.4-0.9c-0.1-0.1-0.3-0.2-0.5-0.2c-0.2,0-0.3,0-0.5,0l-7.3,2.2c-0.5,0.1-0.8,0.6-0.8,1.1v16.8h-4.8
		V9.2h69.6L86.8,54.6L86.8,54.6z"/>
	<path class="st2" d="M82,16.7c0-0.1,0-0.2,0-0.3c0,0,0,0,0,0c0-0.1-0.1-0.3-0.2-0.4c-0.3-0.3-0.7-0.5-1.1-0.4l-7.5,1.4
		c-0.6,0.1-1,0.7-0.9,1.3c0.1,0.6,0.7,1,1.3,0.9l2.7-0.5L56.7,32.8L40.5,22.7c-0.3-0.2-0.6-0.2-0.9-0.1l-16.8,5.1
		c-0.6,0.2-0.9,0.8-0.8,1.4s0.8,0.9,1.4,0.8l16.3-4.9l16.4,10.3c0.2,0.1,0.4,0.2,0.6,0.2c0.2,0,0.5-0.1,0.7-0.2l20.3-14.7l-1.3,2.5
		c-0.3,0.5-0.1,1.2,0.5,1.5c0.2,0.1,0.3,0.1,0.5,0.1c0.4,0,0.8-0.2,1-0.6l3.5-6.7c0,0,0-0.1,0.1-0.1v0c0,0,0-0.1,0-0.1
		C82,16.9,82,16.8,82,16.7z"/>
</g>
</svg>
