<?xml version="1.0" encoding="utf-8"?>
<!-- Generator: Adobe Illustrator 23.0.3, SVG Export Plug-In . SVG Version: 6.00 Build 0)  -->
<svg version="1.1" id="layer_1" xmlns="http://www.w3.org/2000/svg" xmlns:xlink="http://www.w3.org/1999/xlink" x="0px" y="0px"
	 viewBox="0 0 88.7 88.7" style="enable-background:new 0 0 88.7 88.7;" xml:space="preserve">
<style type="text/css">
	.st0{fill:#76C5D4;}
	.st1{fill:#274242;}
	.st2{fill:#FFFFFF;}
</style>
<g>
	<path class="st0" d="M67.3,73.8h-46c-3.6,0-6.5-2.9-6.5-6.5v-46c0-3.6,2.9-6.5,6.5-6.5h46c3.6,0,6.5,2.9,6.5,6.5v46
		C73.8,70.9,70.9,73.8,67.3,73.8z"/>
	<path class="st1" d="M66.5,75H22.2c-4.7,0-8.5-3.8-8.5-8.5V22.2c0-4.7,3.8-8.5,8.5-8.5h44.3c4.7,0,8.5,3.8,8.5,8.5v44.3
		C75,71.2,71.2,75,66.5,75z M22.2,15.9c-3.4,0-6.3,2.8-6.3,6.3v44.3c0,3.4,2.8,6.3,6.3,6.3h44.3c3.4,0,6.3-2.8,6.3-6.3V22.2
		c0-3.4-2.8-6.3-6.3-6.3H22.2z"/>
	<path class="st2" d="M61.1,22.6H34L22.6,34v27.2c0,2.7,2.2,5,5,5h33.6c2.7,0,5-2.2,5-5V27.5C66.1,24.8,63.8,22.6,61.1,22.6z"/>
	<path class="st1" d="M61.1,67.2H27.5c-3.4,0-6.1-2.7-6.1-6.1V34c0-0.3,0.1-0.6,0.3-0.8l11.4-11.4c0.2-0.2,0.5-0.3,0.8-0.3h27.2
		c3.4,0,6.1,2.7,6.1,6.1v33.6C67.2,64.5,64.5,67.2,61.1,67.2z M23.7,34.4v26.7c0,2.1,1.7,3.8,3.8,3.8h33.6c2.1,0,3.8-1.7,3.8-3.8
		V27.5c0-2.1-1.7-3.8-3.8-3.8H34.4L23.7,34.4z"/>
	<path class="st1" d="M21.9,11.6c-0.6,0-1.1-0.5-1.1-1.1V1.1c0-0.6,0.5-1.1,1.1-1.1C22.5,0,23,0.5,23,1.1v9.3
		C23,11.1,22.5,11.6,21.9,11.6z"/>
	<path class="st1" d="M33.1,11.6c-0.6,0-1.1-0.5-1.1-1.1V1.1C32,0.5,32.5,0,33.1,0c0.6,0,1.1,0.5,1.1,1.1v9.3
		C34.2,11.1,33.7,11.6,33.1,11.6z"/>
	<path class="st1" d="M44.3,11.6c-0.6,0-1.1-0.5-1.1-1.1V1.1c0-0.6,0.5-1.1,1.1-1.1c0.6,0,1.1,0.5,1.1,1.1v9.3
		C45.5,11.1,45,11.6,44.3,11.6z"/>
	<path class="st1" d="M55.5,11.6c-0.6,0-1.1-0.5-1.1-1.1V1.1c0-0.6,0.5-1.1,1.1-1.1c0.6,0,1.1,0.5,1.1,1.1v9.3
		C56.7,11.1,56.2,11.6,55.5,11.6z"/>
	<path class="st1" d="M66.8,11.6c-0.6,0-1.1-0.5-1.1-1.1V1.1c0-0.6,0.5-1.1,1.1-1.1c0.6,0,1.1,0.5,1.1,1.1v9.3
		C67.9,11.1,67.4,11.6,66.8,11.6z"/>
	<path class="st1" d="M21.9,88.7c-0.6,0-1.1-0.5-1.1-1.1v-9.3c0-0.6,0.5-1.1,1.1-1.1c0.6,0,1.1,0.5,1.1,1.1v9.3
		C23,88.2,22.5,88.7,21.9,88.7z"/>
	<path class="st1" d="M33.1,88.7c-0.6,0-1.1-0.5-1.1-1.1v-9.3c0-0.6,0.5-1.1,1.1-1.1c0.6,0,1.1,0.5,1.1,1.1v9.3
		C34.2,88.2,33.7,88.7,33.1,88.7z"/>
	<path class="st1" d="M44.3,88.7c-0.6,0-1.1-0.5-1.1-1.1v-9.3c0-0.6,0.5-1.1,1.1-1.1c0.6,0,1.1,0.5,1.1,1.1v9.3
		C45.5,88.2,45,88.7,44.3,88.7z"/>
	<path class="st1" d="M55.5,88.7c-0.6,0-1.1-0.5-1.1-1.1v-9.3c0-0.6,0.5-1.1,1.1-1.1c0.6,0,1.1,0.5,1.1,1.1v9.3
		C56.7,88.2,56.2,88.7,55.5,88.7z"/>
	<path class="st1" d="M66.8,88.7c-0.6,0-1.1-0.5-1.1-1.1v-9.3c0-0.6,0.5-1.1,1.1-1.1c0.6,0,1.1,0.5,1.1,1.1v9.3
		C67.9,88.2,67.4,88.7,66.8,88.7z"/>
	<path class="st1" d="M87.5,23h-9.3c-0.6,0-1.1-0.5-1.1-1.1c0-0.6,0.5-1.1,1.1-1.1h9.3c0.6,0,1.1,0.5,1.1,1.1
		C88.7,22.5,88.2,23,87.5,23z"/>
	<path class="st1" d="M87.5,67.9h-9.3c-0.6,0-1.1-0.5-1.1-1.1c0-0.6,0.5-1.1,1.1-1.1h9.3c0.6,0,1.1,0.5,1.1,1.1
		C88.7,67.4,88.2,67.9,87.5,67.9z"/>
	<path class="st1" d="M10.5,23H1.1C0.5,23,0,22.5,0,21.9c0-0.6,0.5-1.1,1.1-1.1h9.3c0.6,0,1.1,0.5,1.1,1.1
		C11.6,22.5,11.1,23,10.5,23z"/>
	<path class="st1" d="M10.5,34.2H1.1c-0.6,0-1.1-0.5-1.1-1.1S0.5,32,1.1,32h9.3c0.6,0,1.1,0.5,1.1,1.1S11.1,34.2,10.5,34.2z"/>
	<path class="st1" d="M10.5,45.5H1.1C0.5,45.5,0,45,0,44.3c0-0.6,0.5-1.1,1.1-1.1h9.3c0.6,0,1.1,0.5,1.1,1.1
		C11.6,45,11.1,45.5,10.5,45.5z"/>
	<path class="st1" d="M10.5,56.7H1.1c-0.6,0-1.1-0.5-1.1-1.1s0.5-1.1,1.1-1.1h9.3c0.6,0,1.1,0.5,1.1,1.1S11.1,56.7,10.5,56.7z"/>
	<path class="st1" d="M10.5,67.9H1.1c-0.6,0-1.1-0.5-1.1-1.1c0-0.6,0.5-1.1,1.1-1.1h9.3c0.6,0,1.1,0.5,1.1,1.1
		C11.6,67.4,11.1,67.9,10.5,67.9z"/>
	<path class="st0" d="M87.5,44.3c0,9.7-7.9,17.6-17.6,17.6S52.3,54,52.3,44.3c0-9.7,7.9-17.6,17.6-17.6S87.5,34.6,87.5,44.3z"/>
	<path class="st1" d="M69.9,63.1c-10.3,0-18.7-8.4-18.7-18.7c0-10.3,8.4-18.7,18.7-18.7c10.3,0,18.7,8.4,18.7,18.7
		C88.7,54.7,80.3,63.1,69.9,63.1z M69.9,27.9c-9.1,0-16.5,7.4-16.5,16.5s7.4,16.5,16.5,16.5s16.5-7.4,16.5-16.5S79,27.9,69.9,27.9z"
		/>
	<path class="st1" d="M69.9,55.6C69.9,55.6,69.9,55.6,69.9,55.6c-3.7,0-7.1-1.8-9.2-4.8c-1.7-2.5-2.4-5.5-1.9-8.4
		c0.5-3,2.2-5.5,4.7-7.3c0.5-0.4,1.2-0.2,1.6,0.3c0.4,0.5,0.2,1.2-0.3,1.6c-2,1.4-3.3,3.4-3.7,5.8c-0.4,2.4,0.1,4.8,1.5,6.7
		c1.7,2.4,4.4,3.8,7.4,3.9c0.6,0,1.1,0.5,1.1,1.1C71,55.1,70.5,55.6,69.9,55.6z"/>
	<path class="st1" d="M64.6,41C64.6,41,64.6,41,64.6,41c-0.7,0-1.2-0.6-1.1-1.2l0.2-3.4l-3.4-0.2c-0.6,0-1.1-0.6-1.1-1.2
		c0-0.6,0.6-1.1,1.2-1.1l4.5,0.2c0.3,0,0.6,0.2,0.8,0.4c0.2,0.2,0.3,0.5,0.3,0.8L65.7,40C65.7,40.6,65.2,41,64.6,41z"/>
	<path class="st1" d="M75.7,53.8c-0.4,0-0.7-0.2-0.9-0.5c-0.4-0.5-0.2-1.2,0.3-1.6c4.1-2.8,5.1-8.5,2.2-12.6
		c-1.7-2.4-4.5-3.9-7.4-3.9c0,0,0,0,0,0c-0.6,0-1.1-0.5-1.1-1.1c0-0.6,0.5-1.1,1.1-1.1c0,0,0,0,0,0c3.7,0,7.1,1.8,9.3,4.8
		c3.6,5.1,2.3,12.1-2.8,15.7C76.2,53.7,76,53.8,75.7,53.8z"/>
	<path class="st1" d="M79.5,54.5C79.5,54.5,79.5,54.5,79.5,54.5L75,54.4c-0.6,0-1.1-0.5-1.1-1.1l0.1-4.5c0-0.6,0.5-1.1,1.1-1.1
		c0,0,0,0,0,0c0.6,0,1.1,0.5,1.1,1.1l0,3.4l3.4,0c0.6,0,1.1,0.5,1.1,1.1C80.7,54,80.2,54.5,79.5,54.5z"/>
</g>
</svg>
