<?xml version="1.0" encoding="utf-8"?>
<!-- Generator: Adobe Illustrator 23.0.3, SVG Export Plug-In . SVG Version: 6.00 Build 0)  -->
<svg version="1.1" id="layer_1" xmlns="http://www.w3.org/2000/svg" xmlns:xlink="http://www.w3.org/1999/xlink" x="0px" y="0px"
	 viewBox="0 0 82.3 82.3" style="enable-background:new 0 0 82.3 82.3;" xml:space="preserve">
<style type="text/css">
	.st0{fill:#3F232C;}
	.st1{fill:#E66673;}
	.st2{fill:#FFFFFF;}
</style>
<g>
	<g>
		<path class="st0" d="M41.1,82.3c-14.6,0-28.2-7.9-35.6-20.6C1.9,55.4,0,48.3,0,41.1c0-7.2,1.9-14.3,5.5-20.6
			C12.9,7.9,26.5,0,41.1,0c14.6,0,28.2,7.9,35.6,20.6l0,0c3.6,6.3,5.5,13.4,5.5,20.6c0,7.2-1.9,14.3-5.5,20.6
			C69.4,74.4,55.7,82.3,41.1,82.3z M41.1,2.3c-13.8,0-26.7,7.4-33.6,19.4c-3.4,5.9-5.2,12.6-5.2,19.4s1.8,13.5,5.2,19.4
			C14.4,72.6,27.3,80,41.1,80c13.8,0,26.7-7.4,33.6-19.4c3.4-5.9,5.2-12.6,5.2-19.4c0-6.8-1.8-13.5-5.2-19.4l0,0
			C67.8,9.7,54.9,2.3,41.1,2.3z"/>
		<path class="st1" d="M79.7,30.6c-0.7-2.5-1.6-4.9-2.8-7.2c-0.4-0.8-0.8-1.5-1.2-2.3c-1.7-3-3.8-5.7-6.2-8.2
			c-3.6-3.7-7.9-6.6-12.7-8.7c-1.6-0.7-3.3-1.3-5-1.7c-3.4-0.9-7-1.4-10.7-1.4l0,0v0v0c-6.5,0-12.6,1.5-18,4.3
			c-3.1,1.6-5.9,3.5-8.5,5.8c-1.3,1.1-2.5,2.4-3.6,3.7c-1.1,1.3-2.2,2.7-3.1,4.1c-0.5,0.7-0.9,1.4-1.4,2.2c-3.4,5.9-5.4,12.7-5.4,20
			v0l0,0c0,0.9,0,1.8,0.1,2.7c0.3,4.5,1.4,8.8,3,12.7c0.7,1.6,1.4,3.1,2.3,4.6c0.4,0.7,0.9,1.5,1.4,2.2c1,1.4,2,2.8,3.1,4.1
			c1.1,1.3,2.3,2.5,3.6,3.7c2.6,2.3,5.4,4.2,8.5,5.8c5.4,2.7,11.5,4.3,18,4.3l0,0l0,0l0,0c3.7,0,7.3-0.5,10.7-1.4
			c1.7-0.5,3.4-1.1,5-1.7c4.8-2,9.1-5,12.7-8.7c2.4-2.4,4.5-5.2,6.2-8.2c0.6-1,1.1-2,1.5-3c1-2.1,1.8-4.2,2.4-6.5
			c0.7-2.5,1.1-5.1,1.3-7.8c0.1-0.9,0.1-1.8,0.1-2.7l0,0v0C81.1,37.5,80.6,34,79.7,30.6z"/>
		<path class="st0" d="M82.3,41.1c0-7.2-1.9-14.3-5.5-20.6c0,0,0,0,0,0C69.4,7.9,55.7,0,41.1,0l0,0l0,0C26.5,0,12.9,7.9,5.5,20.6
			C1.9,26.8,0,33.9,0,41.1c0,7.2,1.9,14.3,5.5,20.6c7.3,12.7,21,20.6,35.6,20.6l0,0l0,0l0,0c14.6,0,28.2-7.9,35.6-20.6
			C80.3,55.4,82.3,48.3,82.3,41.1L82.3,41.1L82.3,41.1z M73.7,20H57.9c-0.7-1.2-1.4-2.4-2.1-3.5c0-0.1-0.1-0.1-0.1-0.2
			c-0.8-1.3-1.7-2.5-2.6-3.7c0-0.1-0.1-0.1-0.1-0.2c-0.4-0.5-0.7-0.9-1.1-1.4c-0.1-0.2-0.3-0.3-0.4-0.5c-0.2-0.2-0.3-0.4-0.5-0.6
			c-2.6-3.2-5-5.8-6.9-7.5C56.2,3.3,67.1,9.9,73.7,20z M40,20H26.9c0.1-0.1,0.1-0.2,0.2-0.3c0.1-0.2,0.2-0.3,0.3-0.5
			c0.3-0.5,0.6-1,0.9-1.5c0.1-0.1,0.2-0.2,0.2-0.4c0.4-0.6,0.8-1.2,1.1-1.7c0.1-0.1,0.2-0.2,0.3-0.4c0.3-0.5,0.7-0.9,1-1.4
			c0.1-0.1,0.2-0.2,0.3-0.4c0.4-0.5,0.8-1,1.2-1.5c0.1-0.1,0.1-0.2,0.2-0.3c0.3-0.4,0.7-0.8,1-1.2c0.1-0.1,0.2-0.2,0.3-0.3
			c0.4-0.5,0.8-0.9,1.1-1.3c0,0,0.1-0.1,0.1-0.1c0.3-0.4,0.7-0.8,1-1.1c0.1-0.1,0.2-0.2,0.2-0.3c0.7-0.8,1.4-1.5,2-2.1
			c0.1-0.1,0.1-0.1,0.2-0.2c0.3-0.3,0.6-0.6,0.8-0.8c0,0,0,0,0,0C39.6,4,39.8,3.9,40,3.7V20z M42.3,3.7c0.4,0.4,0.9,0.9,1.5,1.4
			c0.1,0.1,0.1,0.1,0.2,0.2c0.6,0.6,1.3,1.3,2,2.1c0.1,0.1,0.1,0.2,0.2,0.2c0.3,0.4,0.7,0.8,1,1.2c0,0,0.1,0.1,0.1,0.1
			c0.4,0.4,0.8,0.9,1.2,1.3c0.1,0.1,0.2,0.2,0.3,0.3c0.3,0.4,0.7,0.8,1,1.3c0.1,0.1,0.1,0.2,0.2,0.2c0.4,0.5,0.8,1,1.2,1.5
			c0.1,0.1,0.2,0.2,0.3,0.3c0.3,0.4,0.7,0.9,1,1.4c0.1,0.1,0.2,0.2,0.3,0.4c0.4,0.6,0.8,1.1,1.2,1.7c0.1,0.1,0.2,0.2,0.2,0.4
			c0.3,0.5,0.6,1,0.9,1.5c0.1,0.2,0.2,0.3,0.3,0.5c0.1,0.1,0.1,0.2,0.2,0.3H42.3V3.7z M38.1,2.4c-0.1,0.1-0.2,0.2-0.2,0.2
			c-0.1,0.1-0.1,0.1-0.2,0.2c-0.6,0.5-1.2,1.2-1.9,1.9c-0.1,0.1-0.2,0.2-0.2,0.3c-0.3,0.3-0.6,0.6-0.9,1C34.5,6,34.5,6,34.4,6.1
			c-0.4,0.4-0.7,0.8-1.1,1.2c-0.1,0.1-0.2,0.2-0.3,0.3c-0.3,0.4-0.6,0.8-1,1.1C32,8.9,31.9,9,31.8,9.1c-0.4,0.5-0.8,1-1.2,1.5
			c-0.1,0.1-0.2,0.2-0.2,0.3c-0.3,0.4-0.7,0.9-1,1.3c-0.1,0.1-0.2,0.3-0.3,0.4c-0.4,0.5-0.8,1.1-1.2,1.7c0,0.1-0.1,0.1-0.1,0.2
			c-0.4,0.5-0.7,1.1-1.1,1.6c-0.1,0.2-0.2,0.3-0.3,0.5c-0.4,0.6-0.7,1.1-1.1,1.7c0,0.1-0.1,0.1-0.1,0.2c-0.3,0.5-0.6,1-0.9,1.6H8.5
			C15.1,9.9,26.1,3.3,38.1,2.4z M7.2,22.3h16c-3,6-4.6,12-4.8,17.7L2.3,40C2.5,33.8,4.1,27.7,7.2,22.3z M18.4,42.3
			C18.5,48,20.2,54,23.2,60h-16c-3-5.5-4.7-11.5-4.9-17.7H18.4z M8.5,62.3h15.8c0.3,0.5,0.6,1.1,0.9,1.6c0,0.1,0.1,0.1,0.1,0.2
			c0.3,0.6,0.7,1.2,1.1,1.7c0.1,0.2,0.2,0.3,0.3,0.5c0.4,0.5,0.7,1.1,1.1,1.6c0,0.1,0.1,0.1,0.1,0.2c0.4,0.6,0.8,1.1,1.2,1.7
			c0.1,0.1,0.2,0.3,0.3,0.4c0.3,0.4,0.7,0.9,1,1.3c0.1,0.1,0.2,0.2,0.2,0.3c0.4,0.5,0.8,1,1.2,1.5c0.1,0.1,0.2,0.2,0.3,0.3
			c0.3,0.4,0.7,0.8,1,1.1c0.1,0.1,0.2,0.2,0.3,0.3c0.4,0.4,0.8,0.8,1.1,1.2c0.1,0.1,0.1,0.1,0.2,0.2c0.3,0.3,0.6,0.7,0.9,1
			c0.1,0.1,0.2,0.2,0.2,0.3c0.7,0.7,1.3,1.3,1.9,1.9c0.1,0.1,0.1,0.1,0.2,0.2c0.1,0.1,0.2,0.2,0.2,0.2C26.1,78.9,15.1,72.4,8.5,62.3
			z M40,78.6c-0.2-0.2-0.4-0.4-0.6-0.6c0,0,0,0,0,0c-0.3-0.2-0.5-0.5-0.8-0.8c-0.1-0.1-0.1-0.1-0.2-0.2c-0.6-0.6-1.3-1.3-2-2.1
			c-0.1-0.1-0.2-0.2-0.2-0.3c-0.3-0.4-0.7-0.7-1-1.1c0,0-0.1-0.1-0.1-0.1c-0.4-0.4-0.8-0.9-1.1-1.3c-0.1-0.1-0.2-0.2-0.3-0.3
			c-0.3-0.4-0.7-0.8-1-1.2c-0.1-0.1-0.1-0.2-0.2-0.3c-0.4-0.5-0.8-1-1.2-1.5c-0.1-0.1-0.2-0.2-0.3-0.4c-0.3-0.4-0.7-0.9-1-1.4
			c-0.1-0.1-0.2-0.2-0.3-0.4c-0.4-0.6-0.8-1.1-1.1-1.7c-0.1-0.1-0.2-0.2-0.2-0.4c-0.3-0.5-0.6-1-0.9-1.5c-0.1-0.2-0.2-0.3-0.3-0.5
			c-0.1-0.1-0.1-0.2-0.2-0.3H40V78.6z M41.1,60H25.7c-3.4-6.5-5.1-12.8-5.1-18.9v0l0,0c0-6.1,1.7-12.4,5.1-18.9h15.4h15.4
			c3.4,6.5,5.1,12.8,5.1,18.9l0,0v0c0,6.1-1.7,12.4-5.1,18.9H41.1z M43.7,77.1c-0.2,0.2-0.4,0.4-0.7,0.6c-0.1,0.1-0.1,0.1-0.2,0.2
			c-0.2,0.2-0.4,0.4-0.6,0.6V62.3h13.1c-0.1,0.1-0.1,0.2-0.2,0.3c-0.1,0.1-0.2,0.3-0.3,0.4c-0.3,0.5-0.6,1-0.9,1.5
			c-0.1,0.1-0.2,0.2-0.2,0.4c-0.4,0.6-0.8,1.2-1.1,1.7c-0.1,0.1-0.2,0.2-0.2,0.4c-0.3,0.5-0.6,0.9-1,1.4c-0.1,0.1-0.2,0.3-0.3,0.4
			c-0.4,0.5-0.8,1-1.2,1.5c-0.1,0.1-0.1,0.2-0.2,0.2c-0.3,0.4-0.7,0.8-1,1.2c-0.1,0.1-0.2,0.2-0.3,0.4c-0.4,0.5-0.8,0.9-1.1,1.3
			c0,0,0,0,0,0c-0.4,0.4-0.7,0.8-1,1.2c-0.1,0.1-0.2,0.2-0.3,0.3c-0.3,0.3-0.6,0.6-0.9,0.9c-0.1,0.1-0.1,0.1-0.2,0.2
			c-0.3,0.3-0.6,0.6-0.9,0.9C43.9,77,43.8,77.1,43.7,77.1z M44.2,79.9c1.6-1.5,3.7-3.7,5.9-6.3c0.2-0.2,0.4-0.5,0.6-0.7
			c0.1-0.1,0.2-0.3,0.3-0.4c1.4-1.7,2.8-3.7,4.2-5.8c0.1-0.1,0.1-0.2,0.2-0.3c0.2-0.3,0.4-0.7,0.6-1c0.2-0.4,0.4-0.7,0.7-1.1
			c0.1-0.2,0.3-0.4,0.4-0.6c0.3-0.5,0.6-1,0.8-1.5h15.8C67.1,72.4,56.2,78.9,44.2,79.9z M75.1,60h-16c3-6,4.6-12,4.8-17.7H80
			C79.8,48.5,78.1,54.5,75.1,60z M63.9,40c-0.2-5.7-1.8-11.7-4.8-17.7h16c3,5.5,4.7,11.6,4.9,17.7L63.9,40z"/>
		<path class="st2" d="M49.8,53.9H32.4c-2.2,0-4.1-1.8-4.1-4.1V32.4c0-2.2,1.8-4.1,4.1-4.1h17.4c2.2,0,4.1,1.8,4.1,4.1v17.4
			C53.9,52.1,52.1,53.9,49.8,53.9z"/>
		<path class="st0" d="M51.1,27.5v-3.7c0-5.5-4.5-10-10-10s-10,4.5-10,10v3.7c-2.3,0.8-3.9,2.9-3.9,5.4v16.4c0,3.2,2.6,5.7,5.7,5.7
			h16.4c3.2,0,5.7-2.6,5.7-5.7V32.9C55.1,30.4,53.4,28.3,51.1,27.5z M41.1,16.1c4.3,0,7.7,3.5,7.7,7.7v3.4H33.4v-3.4
			C33.4,19.5,36.9,16.1,41.1,16.1z M52.8,49.3c0,1.9-1.6,3.5-3.5,3.5H32.9c-1.9,0-3.5-1.6-3.5-3.5V32.9c0-1.9,1.6-3.5,3.5-3.5h16.4
			c1.9,0,3.5,1.6,3.5,3.5V49.3z"/>
		<path class="st1" d="M44.7,48l-1.6-7.7c0.8-0.6,1.4-1.7,1.4-2.7c0-1.7-1.5-3.3-3.3-3.3c-1.8,0-3.3,1.6-3.3,3.3
			c0,1,0.5,2.2,1.4,2.7L37.6,48H44.7z"/>
		<path class="st0" d="M44.7,49.1h-7.1c-0.3,0-0.7-0.2-0.9-0.4c-0.2-0.3-0.3-0.6-0.2-0.9l1.5-7.1c-0.8-0.8-1.3-2-1.3-3.1
			c0-2.4,2-4.4,4.4-4.4c2.4,0,4.4,2,4.4,4.4c0,1.1-0.5,2.3-1.3,3.2l1.5,7.1c0.1,0.3,0,0.7-0.2,0.9C45.3,49,45,49.1,44.7,49.1z
			 M39,46.9h4.3L42,40.5c-0.1-0.5,0.1-0.9,0.5-1.2c0.5-0.3,0.9-1.1,0.9-1.8c0-1-0.9-2.2-2.2-2.2c-1.3,0-2.2,1.1-2.2,2.2
			c0,0.7,0.4,1.5,0.9,1.8c0.4,0.3,0.6,0.7,0.5,1.2L39,46.9z"/>
	</g>
</g>
</svg>
