<?xml version="1.0" encoding="utf-8"?>
<!-- Generator: Adobe Illustrator 23.0.3, SVG Export Plug-In . SVG Version: 6.00 Build 0)  -->
<svg version="1.1" id="layer_1" xmlns="http://www.w3.org/2000/svg" xmlns:xlink="http://www.w3.org/1999/xlink" x="0px" y="0px"
	 viewBox="0 0 104 74" style="enable-background:new 0 0 104 74;" xml:space="preserve">
<style type="text/css">
	.st0{fill:#F7BE56;}
	.st1{fill:#703407;}
	.st2{fill:#FFFFFF;}
</style>
<g>
	<circle class="st0" cx="79.4" cy="58.4" r="3.7"/>
	<path class="st0" d="M33.3,70.7c5.5,3.2,17.8,3.2,23.2,0c0.9-0.5,1.5-1.6,1.5-2.6v-7.8c0-1.2,1.5-1.3,2.1-1.3c0.2,0,0.2,0,0.2,0
		s0.3,0,0.8,0c2.3,0,8.3-0.3,8.9-3.1c0.7-3.5-0.1-10.5-0.1-10.5s2.8-1.1,5.2-2.5c2.4-1.4,0.9-3.4,0.9-3.4c-5.9-9.2-6-11.5-6-11.5
		C67.8,7.7,51.3,6.2,46.7,6.2c-0.8,0-1.3,0-1.6,0c-3.4,0-24,0.9-24.1,22c0,0,0,0.1,0,0.2c0,17.8,6.9,19.6,9.4,25.1
		c2.6,5.7,2.1,11.8,1.7,14.6C31.9,69.1,32.4,70.2,33.3,70.7z"/>
	<path class="st1" d="M44.9,74c-4.6,0-9.1-0.8-12-2.5l0,0c-1.2-0.7-1.9-2.2-1.7-3.6c0.4-2.9,0.8-8.7-1.7-14.1
		c-0.6-1.4-1.6-2.5-2.7-3.9c-3-3.7-6.8-8.3-6.8-21.6c0,0,0-0.1,0-0.1C20.2,6,42.5,5.4,45,5.4c0.1,0,0.3,0,0.5,0c0.3,0,0.7,0,1.2,0
		c5.1,0,21.9,1.6,24.4,22.4c0,0.1,0.3,2.5,5.8,11.1c0.1,0.1,0.8,1.2,0.5,2.5c-0.2,0.9-0.8,1.6-1.7,2.2c-1.8,1-3.7,1.9-4.7,2.3
		c0.2,1.9,0.6,7.1,0,10.1c-0.6,3.4-6.4,3.9-9.8,3.9c-0.5,0-0.9,0-0.9,0c0,0-0.1,0-0.2,0c-0.5,0-1.2,0.1-1.2,0.4v7.8
		c0,1.4-0.7,2.7-1.9,3.4C54.1,73.2,49.5,74,44.9,74z M33.8,69.9c5.3,3,17.2,3,22.3,0c0.6-0.4,1-1.1,1-1.8v-7.8c0-1.1,0.8-2.2,3-2.2
		c0.2,0,0.3,0,0.3,0c0,0,0.3,0,0.8,0c3.7,0,7.7-0.7,8-2.4c0.6-3.3-0.1-10.2-0.1-10.3c0-0.4,0.2-0.8,0.6-0.9c0,0,2.8-1.1,5.1-2.4
		c0.5-0.3,0.8-0.6,0.9-1c0.1-0.6-0.2-1.1-0.2-1.1c-5.8-9.1-6.1-11.7-6.1-12C67,8.6,51.4,7.1,46.7,7.1c-0.5,0-0.8,0-1.2,0
		c-0.2,0-0.4,0-0.5,0c-3.9,0-23.1,1-23.2,21.1c0,0,0,0.1,0,0.1c0,12.7,3.5,17,6.4,20.5c1.1,1.4,2.2,2.7,2.9,4.3
		c2.6,5.8,2.3,11.9,1.8,15.1C32.9,68.9,33.2,69.6,33.8,69.9L33.8,69.9z"/>
	<path class="st2" d="M58.7,30.2c0,7.7-6.2,13.9-13.9,13.9s-13.9-6.2-13.9-13.9s6.2-13.9,13.9-13.9S58.7,22.5,58.7,30.2z"/>
	<ellipse class="st0" cx="44.8" cy="30.2" rx="7.7" ry="7.7"/>
	<path class="st2" d="M49.4,0.9h-9.3v7.9c0,1.7,1.4,3.2,3.2,3.2h3c1.7,0,3.2-1.4,3.2-3.2L49.4,0.9L49.4,0.9z"/>
	<path class="st1" d="M79.4,53.8c-1.7,0-3.2,1-4,2.4C69.9,54.2,60.1,50,53,42.5c4-2.7,6.6-7.2,6.6-12.3c0-7.1-5-13.1-11.7-14.5v-3.4
		c1.5-0.7,2.5-2.2,2.5-4V0.9c0-0.5-0.4-0.9-0.9-0.9h-9.3c-0.5,0-0.9,0.4-0.9,0.9v7.4c0,1.7,1,3.3,2.5,4v3.4C35,17.1,30,23.1,30,30.2
		C30,38.3,36.6,45,44.8,45c2.4,0,4.6-0.6,6.6-1.6c7.4,8.1,17.7,12.5,23.5,14.5c0,0.1,0,0.3,0,0.4c0,2.5,2,4.6,4.6,4.6s4.6-2,4.6-4.6
		C84,55.8,81.9,53.8,79.4,53.8z M57.8,30.2c0,4.6-2.4,8.6-6,10.9c-1-1.1-1.8-2.3-2.7-3.6c2.5-1.5,4.2-4.2,4.2-7.3
		c0-3.6-2.3-6.7-5.5-8v-4.6C53.5,19,57.8,24.1,57.8,30.2z M41,8.4V1.8h7.5v6.5c0,1.5-1.2,2.7-2.7,2.7h-2.2C42.2,11,41,9.8,41,8.4z
		 M44.8,15.4c-0.4,0-0.9,0-1.3,0.1v-2.6c0.1,0,0.1,0,0.2,0h2.2c0.1,0,0.1,0,0.2,0v2.6C45.6,15.4,45.2,15.4,44.8,15.4z M46.1,17.3
		v4.5c-0.4-0.1-0.8-0.1-1.3-0.1c-0.4,0-0.9,0-1.3,0.1v-4.5c0.4,0,0.9-0.1,1.3-0.1S45.6,17.2,46.1,17.3z M44.8,23.4
		c3.7,0,6.7,3,6.7,6.7s-3,6.7-6.7,6.7c-3.7,0-6.7-3-6.7-6.7C38,26.5,41.1,23.4,44.8,23.4z M44.8,43.2c-7.2,0-13-5.8-13-13
		c0-6.1,4.2-11.2,9.9-12.6v4.6c-3.2,1.2-5.5,4.3-5.5,8c0,4.7,3.8,8.6,8.6,8.6c0.9,0,1.9-0.2,2.7-0.4c0.8,1.3,1.7,2.5,2.7,3.7
		C48.5,42.8,46.7,43.2,44.8,43.2z M79.4,61.1c-1.5,0-2.6-1.1-2.7-2.6c1.4,0.4,2.3,0.7,2.5,0.7c0.1,0,0.1,0,0.2,0
		c0.4,0,0.8-0.3,0.9-0.7c0.1-0.5-0.2-1-0.7-1.1c0,0-1-0.2-2.4-0.7c0.5-0.7,1.3-1.2,2.2-1.2c1.5,0,2.7,1.2,2.7,2.7
		C82.1,59.9,80.9,61.1,79.4,61.1z"/>
</g>
</svg>
