<?xml version="1.0" encoding="utf-8"?>
<!-- Generator: Adobe Illustrator 23.0.3, SVG Export Plug-In . SVG Version: 6.00 Build 0)  -->
<svg version="1.1" id="layer_1" xmlns="http://www.w3.org/2000/svg" xmlns:xlink="http://www.w3.org/1999/xlink" x="0px" y="0px"
	 viewBox="0 0 101.5 76.8" style="enable-background:new 0 0 101.5 76.8;" xml:space="preserve">
<style type="text/css">
	.st0{fill:#BA4D9B;}
	.st1{fill:#FFFFFF;}
	.st2{fill:#3A1A35;}
</style>
<g>
	<g>
		<path class="st0" d="M37.4,31.1l-8.2,6.7l6.5,4.8l5.3-11.3C39.9,31.2,38.7,31.1,37.4,31.1z"/>
		<path class="st0" d="M17.4,31.3l5.3,11.3l6.5-4.8l-8.2-6.7C19.8,31.1,18.6,31.2,17.4,31.3z"/>
	</g>
	<path class="st1" d="M57.1,44.4c-2.3-6.2-6.9-11.9-16.1-13.1l-5.3,11.3l-6.5-4.8l0,0l0,0l-6.5,4.8l-5.3-11.3
		C8.3,32.5,3.6,38.2,1.3,44.4c-0.4,1.2-0.2,2.5,0.6,3.5c5.2,6.5,12.6,11.2,21.2,12.7l0,0c2,0.4,4,0.6,6.1,0.6c2.1,0,4.1-0.2,6.1-0.6
		l0,0c8.5-1.5,16-6.2,21.2-12.7C57.3,46.9,57.6,45.6,57.1,44.4z"/>
	<path class="st2" d="M58.2,44L58.2,44c-3-8.1-8.7-12.7-17-13.8C39.9,30,38.7,30,37.4,30c-0.3,0-0.5,0.1-0.7,0.3l-7.5,6.1l-7.5-6.1
		C21.6,30,21.3,30,21.1,30c-1.2,0-2.5,0.1-3.8,0.3C9,31.3,3.3,35.9,0.3,44C-0.3,45.5,0,47.3,1,48.6c5.5,6.9,13.2,11.6,21.9,13.1
		c2.1,0.4,4.3,0.6,6.3,0.6s4.2-0.2,6.3-0.6c8.6-1.5,16.4-6.2,21.9-13.1C58.5,47.3,58.8,45.5,58.2,44z M37.8,32.2c0.5,0,1,0,1.6,0.1
		l-4,8.6l-4.3-3.1L37.8,32.2z M20.7,32.2l6.7,5.5l-4.3,3.1l-4-8.6C19.6,32.2,20.2,32.2,20.7,32.2z M2.8,47.2
		c-0.5-0.7-0.7-1.6-0.4-2.4c2.6-7,7.4-11.1,14.3-12.2l5,10.5c0.1,0.3,0.4,0.5,0.7,0.6c0.1,0,0.2,0,0.3,0c0,0,0.1,0,0.1,0
		c0,0,0.1,0,0.1,0c0.1,0,0.3-0.1,0.4-0.2l4.7-3.5v20c-1.6-0.1-3.2-0.2-4.8-0.5C15.2,58.1,7.9,53.7,2.8,47.2z M55.7,47.2
		c-5.1,6.5-12.4,10.8-20.5,12.3c-1.6,0.3-3.2,0.5-4.8,0.5V40l4.7,3.5c0.1,0.1,0.3,0.1,0.4,0.2c0,0,0.1,0,0.1,0c0,0,0.1,0,0.1,0
		c0.1,0,0.2,0,0.3,0c0.3-0.1,0.6-0.3,0.7-0.6l5-10.5c6.9,1.2,11.8,5.3,14.3,12.2C56.4,45.6,56.2,46.5,55.7,47.2z"/>
	<path class="st0" d="M66.1,75.2l3.2-15.8h5.9l3.2,15.8c8.5-1.5,16-6.2,21.2-12.7c0.8-1,1-2.3,0.6-3.5c-2.3-6.2-6.9-11.9-16.1-13.1
		l-5.3,11.3l-6.5-4.8l0,0l-6.5,4.8l-5.3-11.3c-9.2,1.2-13.8,6.9-16.1,13.1c-0.4,1.2-0.2,2.5,0.6,3.5C50.1,69,57.5,73.6,66.1,75.2z"
		/>
	<path class="st1" d="M78.7,57.1L84,45.9c-1.2-0.1-2.4-0.2-3.7-0.2l-8.2,6.7L64,45.6c-1.3,0-2.5,0.1-3.7,0.2l5.3,11.3l2-1.5l1.6,3.7
		l-3.2,15.8c2,0.4,4,0.6,6.1,0.6c2.1,0,4.1-0.2,6.1-0.6l-3.2-15.8l1.8-3.5C78,56.6,78.7,57.1,78.7,57.1z"/>
	<path class="st2" d="M101.2,58.6c-3-8.1-8.7-12.7-17-13.8c-1.3-0.2-2.6-0.3-3.8-0.3c-0.3,0-0.5,0.1-0.7,0.3l-7.5,6.1l-7.5-6.1
		c-0.2-0.2-0.5-0.3-0.7-0.3c-1.2,0-2.5,0.1-3.8,0.3c-8.3,1.1-14,5.7-17,13.8c-0.6,1.5-0.3,3.3,0.8,4.6c5.5,6.9,13.2,11.6,21.9,13.1
		h0l0,0c2.1,0.4,4.3,0.6,6.3,0.6c2.1,0,4.2-0.2,6.3-0.6h0c8.6-1.5,16.4-6.2,21.9-13.1C101.4,61.8,101.7,60.1,101.2,58.6z M80.8,46.8
		c0.5,0,1,0,1.6,0.1l-4,8.6c-0.9-0.7-2.2-1.6-3.3-2.4c-0.4-0.3-0.7-0.5-1-0.7L80.8,46.8z M74.5,58.2H70L69,56l0.4-0.3l2.8-2l0.9,0.6
		c0.6,0.4,1.4,1,2.4,1.8L74.5,58.2z M63.6,46.8l6.7,5.5l-4.3,3.1l-4-8.6C62.6,46.8,63.1,46.8,63.6,46.8z M45.8,61.8
		c-0.6-0.7-0.7-1.6-0.4-2.4c2.6-7,7.4-11.1,14.3-12.2l5,10.5c0.1,0.3,0.4,0.5,0.7,0.6c0.1,0,0.2,0,0.3,0c0,0,0.1,0,0.1,0
		c0,0,0.1,0,0.1,0c0.1,0,0.3-0.1,0.4-0.2l0.8-0.6l0.9,2l-2.9,14.4C57.5,72.2,50.7,67.9,45.8,61.8z M67.4,74.2l1.5-7.6l1.2-6.1h4
		l1.2,5.7l1.6,8C73.8,74.7,70.6,74.7,67.4,74.2z M98.6,61.8c-4.9,6.2-11.7,10.5-19.4,12.1l-2.9-14.3l1-2c0.2,0.2,0.5,0.3,0.7,0.5
		c0.1,0.1,0.3,0.1,0.4,0.2c0,0,0.1,0,0.1,0c0,0,0.1,0,0.1,0c0.1,0,0.2,0,0.3,0c0.3-0.1,0.6-0.3,0.7-0.6l5-10.5
		c6.9,1.2,11.8,5.3,14.3,12.2C99.3,60.1,99.2,61.1,98.6,61.8z"/>
	<path class="st2" d="M84,24.9c-0.6,0-1.1-0.5-1.1-1.1v0c0-0.6,0.5-1.1,1.1-1.1c0.6,0,1.1,0.5,1.1,1.1C85.2,24.4,84.7,24.9,84,24.9z
		"/>
	<path class="st0" d="M72.2,23.8c6.5,3.1,11.1-1.6,11.2-1.7c-1.9-4-5.9-6.4-11.2-6.4c-6.5,0-11,3.6-12.2,9.4
		C60.2,25,65.5,20.5,72.2,23.8z"/>
	<path class="st1" d="M83.4,22.1c0,0-4.7,4.8-11.2,1.7c-6.7-3.2-12,1.2-12.2,1.3c-0.2,1-0.3,2-0.3,3.1c0,7.5,4.9,14.8,12.5,14.8
		c7.5,0,12.5-7.3,12.5-14.8C84.7,25.9,84.2,23.8,83.4,22.1z"/>
	<path class="st2" d="M84.4,21.6c-2.2-4.5-6.6-7.1-12.2-7.1c-6.9,0-12,3.9-13.3,10.3c-0.2,1.1-0.3,2.2-0.3,3.3
		c0,7.8,5.1,15.9,13.6,15.9c8.5,0,13.6-8.1,13.6-15.9C85.8,25.7,85.3,23.5,84.4,21.6z M72.2,16.8c4.4,0,7.9,1.8,9.8,5
		c0,0-0.1,0.1-0.1,0.1c0,0-0.1,0.1-0.1,0.1c-0.1,0.1-0.2,0.2-0.4,0.3c0,0,0,0,0,0c-0.1,0.1-0.3,0.2-0.4,0.3c0,0-0.1,0-0.1,0.1
		c-0.1,0.1-0.2,0.1-0.4,0.2c-0.1,0-0.1,0.1-0.2,0.1c-0.1,0.1-0.3,0.1-0.5,0.2c0,0-0.1,0-0.1,0c-0.2,0.1-0.4,0.2-0.6,0.2
		c0,0-0.1,0-0.1,0c-0.2,0.1-0.4,0.1-0.6,0.1c-0.1,0-0.1,0-0.2,0c-0.2,0-0.4,0.1-0.5,0.1c-0.1,0-0.1,0-0.2,0c-0.2,0-0.5,0-0.7,0
		c0,0-0.1,0-0.1,0c-0.3,0-0.6,0-0.8-0.1c-0.1,0-0.1,0-0.2,0c-0.2,0-0.4-0.1-0.7-0.1c-0.1,0-0.2,0-0.3-0.1c-0.2-0.1-0.4-0.1-0.7-0.2
		c-0.1,0-0.2-0.1-0.3-0.1c-0.3-0.1-0.6-0.2-1-0.4c-0.5-0.2-0.9-0.4-1.4-0.6c-0.2-0.1-0.3-0.1-0.5-0.1c-0.3-0.1-0.6-0.2-0.9-0.3
		c-0.2,0-0.4-0.1-0.5-0.1c-0.3,0-0.5-0.1-0.8-0.1c-0.2,0-0.4,0-0.6,0c-0.2,0-0.5,0-0.7,0c-0.1,0-0.1,0-0.2,0c-0.1,0-0.2,0-0.3,0
		c-0.3,0-0.6,0-1,0.1c-0.1,0-0.3,0-0.4,0c-0.3,0-0.7,0.1-1,0.2c-0.1,0-0.2,0-0.2,0c-0.4,0.1-0.7,0.2-1.1,0.3c-0.1,0-0.2,0.1-0.3,0.1
		c-0.2,0.1-0.5,0.2-0.7,0.3c-0.1,0-0.1,0-0.2,0.1C63.8,18.9,67.4,16.8,72.2,16.8z M72.2,41.8c-7.1,0-11.3-7-11.3-13.7
		c0-0.8,0.1-1.6,0.2-2.4c0.1-0.1,0.2-0.1,0.3-0.2c0,0,0.1-0.1,0.1-0.1c0.1,0,0.1-0.1,0.2-0.1c0.1,0,0.1-0.1,0.2-0.1
		c0.1,0,0.1-0.1,0.2-0.1c0.1,0,0.2-0.1,0.2-0.1c0.1,0,0.2-0.1,0.3-0.1c0.1,0,0.2-0.1,0.3-0.1c0.1,0,0.2-0.1,0.3-0.1
		c0.1,0,0.2-0.1,0.3-0.1c0.1,0,0.2-0.1,0.3-0.1c0.1,0,0.2-0.1,0.3-0.1c0.1,0,0.3-0.1,0.4-0.1c0.1,0,0.2-0.1,0.3-0.1
		c0.2-0.1,0.5-0.1,0.7-0.1c0.1,0,0.2,0,0.3,0c0.2,0,0.3,0,0.5-0.1c0.1,0,0.2,0,0.4,0c0.2,0,0.3,0,0.5,0c0.1,0,0.3,0,0.4,0
		c0.2,0,0.4,0,0.5,0c0.1,0,0.3,0,0.4,0.1c0.2,0,0.4,0.1,0.6,0.1c0.1,0,0.3,0.1,0.4,0.1c0.2,0.1,0.4,0.1,0.7,0.2
		c0.1,0,0.2,0.1,0.4,0.1c0.3,0.1,0.7,0.3,1,0.4c0.4,0.2,0.8,0.4,1.2,0.5c0.1,0,0.2,0.1,0.3,0.1c0.3,0.1,0.6,0.2,0.9,0.3
		c0.1,0,0.1,0,0.2,0.1c0.4,0.1,0.7,0.1,1.1,0.2c0.1,0,0.2,0,0.2,0c0.3,0,0.6,0,0.9,0c0.1,0,0.2,0,0.2,0c0.3,0,0.7,0,1-0.1
		c0,0,0,0,0,0c0.3,0,0.6-0.1,0.9-0.1c0.1,0,0.1,0,0.2,0c0.3-0.1,0.5-0.1,0.8-0.2c0,0,0.1,0,0.1,0c0.3-0.1,0.5-0.2,0.8-0.3
		c0.1,0,0.1,0,0.2-0.1c0.2-0.1,0.4-0.2,0.6-0.3c0,0,0.1,0,0.1-0.1c0.2-0.1,0.4-0.2,0.6-0.3c0,0,0,0,0.1,0c0.2-0.1,0.3-0.2,0.5-0.3
		c0,0,0.1,0,0.1-0.1c0,0,0.1-0.1,0.1-0.1c0.4,1.3,0.6,2.7,0.6,4.2C83.6,34.9,79.3,41.8,72.2,41.8z"/>
	<path class="st0" d="M22.8,10.7c5.1-4.4,14.1-3.4,18.9,1.6C41.1,5.5,36.3,1.1,29.2,1.1c-4.9,0-8.7,2.1-10.7,5.6
		C21.3,8.5,22.8,10.7,22.8,10.7z"/>
	<path class="st1" d="M41.7,12.3c-4.7-5-13.8-5.9-18.9-1.6c0,0-1.5-2.3-4.3-4c-1.1,1.9-1.8,4.2-1.8,6.9c0,7.5,4.9,14.8,12.5,14.8
		c7.5,0,12.5-7.3,12.5-14.8C41.7,13.2,41.7,12.7,41.7,12.3z"/>
	<path class="st2" d="M42.8,12.2C42.2,4.8,36.9,0,29.2,0C24,0,19.9,2.2,17.6,6.1c-1.3,2.1-1.9,4.7-1.9,7.5c0,7.8,5.1,15.9,13.6,15.9
		c8.5,0,13.6-8.1,13.6-15.9C42.8,13.1,42.8,12.7,42.8,12.2z M29.2,2.3c5.4,0,9.3,2.7,10.7,7.2c-0.1-0.1-0.3-0.2-0.4-0.2
		c-0.1-0.1-0.3-0.2-0.4-0.3c-0.2-0.1-0.5-0.3-0.7-0.4c-0.1-0.1-0.3-0.1-0.4-0.2c-0.3-0.1-0.6-0.3-0.9-0.4c-0.1,0-0.2-0.1-0.3-0.1
		c-0.4-0.2-0.8-0.3-1.2-0.4c-0.1,0-0.2,0-0.2-0.1c-0.3-0.1-0.7-0.2-1-0.2c-0.1,0-0.3-0.1-0.4-0.1C33.7,7,33.4,7,33.1,7
		c-0.2,0-0.3,0-0.5-0.1c-0.3,0-0.5,0-0.8-0.1c-0.2,0-0.3,0-0.5,0c-0.1,0-0.2,0-0.4,0c-0.1,0-0.3,0-0.4,0c-0.1,0-0.3,0-0.4,0
		c-0.3,0-0.6,0-0.9,0.1c-0.1,0-0.2,0-0.3,0c-0.4,0.1-0.8,0.1-1.2,0.2c-0.1,0-0.2,0-0.3,0.1c-0.3,0.1-0.6,0.1-0.9,0.2
		c-0.1,0-0.3,0.1-0.4,0.1c-0.3,0.1-0.5,0.2-0.7,0.3C25.3,7.9,25.2,8,25.1,8c-0.2,0.1-0.5,0.2-0.7,0.4c-0.1,0.1-0.2,0.1-0.3,0.2
		c-0.3,0.2-0.7,0.4-1,0.6c-0.2-0.2-0.4-0.4-0.6-0.7c-0.1-0.1-0.2-0.2-0.2-0.2c-0.2-0.2-0.3-0.3-0.5-0.5c-0.1-0.1-0.2-0.2-0.3-0.3
		c-0.2-0.2-0.4-0.4-0.7-0.5c-0.1-0.1-0.2-0.2-0.4-0.3c-0.1,0-0.1-0.1-0.2-0.2C22.1,3.7,25.3,2.3,29.2,2.3z M29.2,27.3
		c-7.1,0-11.3-7-11.3-13.7c0-1.9,0.3-3.7,1-5.2c0.2,0.2,0.4,0.3,0.6,0.5c0,0,0,0,0,0c0.2,0.2,0.4,0.4,0.6,0.6
		c0.1,0.1,0.1,0.1,0.2,0.2c0.1,0.1,0.2,0.2,0.4,0.4c0.1,0.1,0.1,0.1,0.2,0.2c0.1,0.1,0.2,0.2,0.3,0.3c0,0.1,0.1,0.1,0.1,0.2
		c0.1,0.1,0.1,0.2,0.2,0.2c0,0,0.1,0.1,0.1,0.1c0,0.1,0.1,0.1,0.1,0.2c0,0,0,0,0,0.1c0,0,0.1,0.1,0.1,0.1c0,0.1,0.1,0.1,0.2,0.2
		c0.1,0.1,0.1,0.1,0.2,0.2c0.1,0.1,0.3,0.1,0.4,0.2c0.3,0,0.7-0.1,0.9-0.3c0.3-0.2,0.6-0.5,0.9-0.7c0.1-0.1,0.2-0.1,0.3-0.2
		c0.2-0.1,0.4-0.3,0.6-0.4c0.1-0.1,0.3-0.1,0.4-0.2c0.2-0.1,0.4-0.2,0.6-0.3c0.2-0.1,0.3-0.1,0.5-0.2c0.2-0.1,0.4-0.1,0.6-0.2
		c0.2,0,0.3-0.1,0.5-0.1c0.2,0,0.4-0.1,0.6-0.1c0.2,0,0.4-0.1,0.6-0.1c0.2,0,0.4-0.1,0.6-0.1c0.2,0,0.4,0,0.6,0c0.2,0,0.4,0,0.6,0
		c0.2,0,0.4,0,0.6,0c0.2,0,0.4,0,0.6,0c0.2,0,0.4,0,0.6,0.1c0.2,0,0.4,0,0.6,0.1c0.2,0,0.4,0.1,0.6,0.1c0.2,0,0.4,0.1,0.6,0.1
		c0.2,0,0.4,0.1,0.6,0.2c0.2,0.1,0.4,0.1,0.6,0.2c0.2,0.1,0.4,0.1,0.6,0.2c0.2,0.1,0.4,0.1,0.6,0.2c0.2,0.1,0.4,0.2,0.5,0.3
		c0.2,0.1,0.4,0.2,0.5,0.3c0.2,0.1,0.3,0.2,0.5,0.3c0.2,0.1,0.3,0.2,0.5,0.3c0.2,0.1,0.3,0.2,0.5,0.3c0.2,0.1,0.3,0.2,0.5,0.4
		c0.2,0.1,0.3,0.3,0.4,0.4c0.1,0.1,0.2,0.2,0.3,0.3c0,0.3,0,0.5,0,0.8C40.6,20.3,36.3,27.3,29.2,27.3z"/>
	<path class="st2" d="M33.9,46.9c-0.6,0-1.1-0.5-1.1-1.1c0-0.6,0.5-1.2,1.1-1.2c0.6,0,1.1,0.5,1.1,1.1v0.1
		C35,46.3,34.5,46.9,33.9,46.9z"/>
	<path class="st2" d="M33.9,52.4c-0.6,0-1.1-0.5-1.1-1.1v-0.1c0-0.6,0.5-1.1,1.1-1.1c0.6,0,1.1,0.5,1.1,1.1v0.1
		C35,51.9,34.5,52.4,33.9,52.4z"/>
	<path class="st2" d="M33.9,57.9c-0.6,0-1.1-0.5-1.1-1.1c0-0.6,0.5-1.2,1.1-1.2c0.6,0,1.1,0.5,1.1,1.1v0.1
		C35,57.4,34.5,57.9,33.9,57.9z"/>
</g>
</svg>
