<?xml version="1.0" encoding="utf-8"?>
<!-- Generator: Adobe Illustrator 23.0.3, SVG Export Plug-In . SVG Version: 6.00 Build 0)  -->
<svg version="1.1" id="layer_1" xmlns="http://www.w3.org/2000/svg" xmlns:xlink="http://www.w3.org/1999/xlink" x="0px" y="0px"
	 viewBox="0 0 104 74" style="enable-background:new 0 0 104 74;" xml:space="preserve">
<style type="text/css">
	.st0{fill:#76C5D4;}
	.st1{fill:#FFFFFF;}
	.st2{fill:#274242;}
</style>
<g>
	<path class="st0" d="M36.8,44.1c-7.8,3.5-7.3,15.3-7.3,15.3c0.1,0,11.8,0.5,15.3-7.3C41.7,50.1,38.9,47.3,36.8,44.1z"/>
	<path class="st1" d="M46.8,47.5c-2-1.5-3.8-3.3-5.3-5.3c-1.3-1.6-2.4-3.2-3.4-5c-0.8,1.8-1.4,3.8-1.9,5.9c0.2,0.4,0.4,0.7,0.7,1
		c2.1,3.2,4.9,6,8.1,8.1c0.3,0.2,0.7,0.5,1,0.7c2.1-0.5,4.1-1.2,5.9-1.9C50.1,49.9,48.4,48.8,46.8,47.5z"/>
	<path class="st1" d="M84.3,17.7c3.2-9.4,3.8-16.7,3.8-16.7s-7.4,0.6-16.7,3.8C72.9,11.1,77.9,16.1,84.3,17.7z"/>
	<path class="st0" d="M84.3,17.7c-6.4-1.6-11.4-6.6-13-13C59.2,8.8,43.8,17.2,36.5,34c0.5,1.1,1,2.2,1.6,3.2c1,1.7,2.1,3.4,3.4,5
		c1.5,2,3.3,3.8,5.3,5.3c1.6,1.3,3.2,2.4,5,3.4c1.1,0.6,2.1,1.1,3.2,1.6C71.8,45.2,80.2,29.8,84.3,17.7z"/>
	<path class="st0" d="M52.1,14.6c0,0-20-1.4-36.1,13.2C28.8,28,36.5,34,36.5,34C40.1,25.6,45.8,19.3,52.1,14.6L52.1,14.6z"/>
	<path class="st0" d="M74.4,36.9L74.4,36.9c-4.7,6.3-11,11.9-19.4,15.6c0,0,6,7.6,6.2,20.5C75.8,56.9,74.4,36.9,74.4,36.9z"/>
	<path class="st2" d="M89,1c0-0.3-0.1-0.6-0.3-0.7C88.5,0.1,88.2,0,88,0c-0.3,0-7.6,0.7-17,3.8c-6,2-12.8,5.1-19.2,9.8
		c-2.7-0.1-21.4-0.2-36.5,13.5c-0.3,0.3-0.4,0.7-0.3,1c0.1,0.4,0.5,0.6,0.9,0.6c11.4,0.1,18.7,5,19.8,5.9c0.4,0.9,0.8,1.8,1.3,2.7
		c-0.7,1.8-1.4,3.7-1.8,5.6c-0.1,0.2,0,0.5,0.1,0.7c0,0.1,0.1,0.1,0.1,0.2c-7.3,4.2-6.9,15.6-6.9,15.7c0,0.5,0.4,0.9,0.9,0.9
		c0,0,0.2,0,0.5,0c2.2,0,11.5-0.4,15.3-6.9c0.1,0,0.1,0.1,0.2,0.1c0.1,0.1,0.3,0.1,0.5,0.1c0.1,0,0.2,0,0.2,0
		c1.9-0.5,3.8-1.1,5.6-1.8c0.9,0.5,1.8,0.9,2.7,1.3c0.8,1.1,5.7,8.4,5.9,19.8c0,0.4,0.2,0.7,0.6,0.9c0.1,0,0.2,0.1,0.3,0.1
		c0.3,0,0.5-0.1,0.7-0.3c13.7-15.1,13.5-33.8,13.4-36.5c4.7-6.4,7.8-13.3,9.8-19.2C88.3,8.6,89,1.3,89,1z M83.7,16.5
		c-0.1,0-0.1,0-0.2,0c-0.1,0-0.3-0.1-0.4-0.1c-0.2-0.1-0.4-0.1-0.6-0.2C82.3,16.1,82.2,16,82,16c-0.2-0.1-0.4-0.2-0.6-0.3
		c-0.1-0.1-0.3-0.1-0.4-0.2c-0.2-0.1-0.4-0.2-0.6-0.3c-0.1-0.1-0.3-0.2-0.4-0.2c-0.2-0.1-0.4-0.2-0.5-0.3c-0.1-0.1-0.3-0.2-0.4-0.2
		c-0.2-0.1-0.4-0.3-0.5-0.4c-0.1-0.1-0.2-0.2-0.3-0.2c-0.2-0.2-0.4-0.3-0.6-0.5c-0.1-0.1-0.2-0.1-0.3-0.2c-0.5-0.5-1-1-1.5-1.5
		c-0.1-0.1-0.2-0.2-0.2-0.3c-0.2-0.2-0.3-0.4-0.5-0.6c-0.1-0.1-0.2-0.2-0.3-0.3c-0.1-0.2-0.3-0.4-0.4-0.5c-0.1-0.1-0.2-0.3-0.2-0.4
		c-0.1-0.2-0.2-0.4-0.3-0.5c-0.1-0.1-0.2-0.3-0.2-0.4c-0.1-0.2-0.2-0.4-0.3-0.6c-0.1-0.1-0.1-0.3-0.2-0.4c-0.1-0.2-0.2-0.4-0.3-0.6
		c-0.1-0.1-0.1-0.3-0.2-0.4c-0.1-0.2-0.2-0.4-0.2-0.6c-0.1-0.1-0.1-0.3-0.1-0.4c0-0.1,0-0.1,0-0.2C79.1,3.2,84.7,2.3,87,2
		C86.7,4.3,85.8,9.9,83.7,16.5z M49.4,15.6c-0.8,0.7-1.6,1.4-2.4,2.1c-0.1,0.1-0.2,0.2-0.3,0.3c-0.6,0.6-1.2,1.2-1.8,1.8
		c-0.2,0.2-0.4,0.4-0.6,0.6c-0.5,0.5-1,1-1.4,1.6c-0.2,0.3-0.4,0.5-0.7,0.8c-0.4,0.5-0.8,1.1-1.2,1.6c-0.2,0.3-0.4,0.6-0.6,0.8
		c-0.4,0.6-0.9,1.3-1.3,1.9c-0.1,0.2-0.3,0.4-0.4,0.7c-0.5,0.9-1.1,1.8-1.5,2.7c-0.1,0.2-0.2,0.4-0.3,0.6c-0.3,0.5-0.5,1-0.8,1.6
		c-2.3-1.5-8.5-5-17.7-5.6C30.2,17.3,43.8,15.8,49.4,15.6z M30.5,58.5c0.1-2.6,0.7-10.2,6-13.2c0,0.1,0.1,0.1,0.1,0.2
		c0.4,0.6,0.9,1.2,1.3,1.7c0.1,0.1,0.2,0.2,0.3,0.3c0.5,0.5,1,1.1,1.5,1.6c0.1,0.1,0.1,0.1,0.2,0.2c0.5,0.5,1,1,1.5,1.4
		c0.1,0.1,0.3,0.3,0.4,0.4c0.5,0.4,1.1,0.9,1.7,1.3c0.1,0,0.1,0.1,0.2,0.1C40.6,57.8,33.1,58.5,30.5,58.5z M46,51.8
		c-0.2-0.1-0.4-0.3-0.7-0.4c-1.2-0.8-2.3-1.6-3.3-2.5c-1.7-1.6-3.2-3.3-4.5-5.2l0,0l-0.1-0.1c-0.1-0.2-0.2-0.4-0.4-0.6
		c0.3-1.2,0.7-2.4,1.1-3.6c0.1,0.1,0.1,0.2,0.2,0.3c0.3,0.4,0.6,0.8,0.8,1.2c0.1,0.1,0.2,0.3,0.3,0.4c0.4,0.5,0.8,1,1.2,1.5
		c0.4,0.5,0.7,0.9,1.1,1.4c0,0,0.1,0.1,0.1,0.1c1.3,1.5,2.7,2.8,4.2,4l0,0l0,0c0,0,0,0,0,0c0.5,0.4,1,0.8,1.5,1.2
		c0.2,0.1,0.3,0.2,0.4,0.3c0.4,0.3,0.8,0.6,1.2,0.8c0.1,0.1,0.2,0.1,0.3,0.2C48.5,51.2,47.3,51.5,46,51.8z M73.4,39.6
		c-0.2,5.6-1.7,19.1-11.4,31c-0.6-9.2-4.1-15.4-5.6-17.7c0.5-0.3,1.1-0.5,1.6-0.8c0.2-0.1,0.4-0.2,0.7-0.3c0.9-0.5,1.8-1,2.7-1.5
		c0.2-0.1,0.5-0.3,0.7-0.4c0.6-0.4,1.3-0.8,1.9-1.3c0.3-0.2,0.6-0.4,0.9-0.6c0.5-0.4,1.1-0.8,1.6-1.2c0.3-0.2,0.6-0.5,0.8-0.7
		c0.5-0.5,1-0.9,1.6-1.4c0.2-0.2,0.4-0.4,0.7-0.6c0.6-0.6,1.2-1.1,1.7-1.7c0.1-0.1,0.2-0.2,0.3-0.4C72.1,41.2,72.8,40.4,73.4,39.6z
		 M70.2,40.4c-0.2,0.2-0.3,0.4-0.5,0.6c-0.4,0.5-0.9,0.9-1.4,1.4c-0.3,0.3-0.5,0.5-0.8,0.8c-0.4,0.4-0.9,0.8-1.3,1.2
		c-0.3,0.3-0.6,0.6-1,0.8c-0.4,0.4-0.9,0.7-1.3,1c-0.4,0.3-0.7,0.6-1.1,0.8c-0.4,0.3-0.9,0.6-1.4,0.9c-0.4,0.3-0.8,0.5-1.2,0.8
		c-0.5,0.3-1,0.6-1.5,0.9c-0.4,0.2-0.8,0.5-1.2,0.7c-0.6,0.3-1.1,0.6-1.7,0.8c-0.3,0.2-0.6,0.3-1,0.5c-0.9-0.4-1.8-0.9-2.7-1.4
		c-1.3-0.7-2.5-1.5-3.7-2.4c-0.4-0.3-0.8-0.6-1.2-0.9c0,0,0,0,0,0c-1.9-1.5-3.7-3.2-5.1-5.2c-1.3-1.5-2.4-3.2-3.3-4.8l0,0
		c-0.5-0.9-1-1.8-1.4-2.7c0.1-0.3,0.3-0.6,0.5-1c0.3-0.6,0.5-1.1,0.8-1.7c0.2-0.4,0.4-0.8,0.7-1.2c0.3-0.5,0.6-1,0.9-1.5
		c0.2-0.4,0.5-0.8,0.8-1.2c0.3-0.5,0.6-0.9,0.9-1.4c0.3-0.4,0.5-0.7,0.8-1.1c0.3-0.5,0.7-0.9,1-1.3c0.3-0.3,0.6-0.6,0.8-1
		c0.4-0.5,0.8-0.9,1.2-1.3c0.2-0.3,0.5-0.5,0.8-0.8c0.5-0.5,0.9-0.9,1.4-1.4c0.2-0.2,0.3-0.3,0.5-0.5c6.9-6.4,15.1-10.4,22.1-12.8
		c0,0.1,0,0.1,0.1,0.1c0,0.1,0.1,0.3,0.1,0.4C70.9,6.8,71,7,71.1,7.2c0.1,0.2,0.1,0.3,0.2,0.5c0.1,0.2,0.2,0.5,0.3,0.7
		c0.1,0.2,0.1,0.3,0.2,0.4C71.9,9,72,9.2,72.1,9.5c0.1,0.1,0.2,0.3,0.2,0.4c0.1,0.2,0.3,0.4,0.4,0.6c0.1,0.1,0.2,0.3,0.3,0.4
		c0.1,0.2,0.3,0.4,0.4,0.6c0.1,0.1,0.2,0.2,0.3,0.4c0.2,0.2,0.3,0.4,0.5,0.6c0.1,0.1,0.2,0.2,0.2,0.3c0.5,0.6,1.1,1.2,1.7,1.7
		c0.1,0.1,0.2,0.2,0.3,0.3c0.2,0.2,0.4,0.3,0.6,0.5c0.1,0.1,0.3,0.2,0.4,0.3c0.2,0.1,0.4,0.3,0.6,0.4c0.1,0.1,0.3,0.2,0.4,0.3
		c0.2,0.1,0.4,0.3,0.6,0.4c0.2,0.1,0.3,0.2,0.5,0.3c0.2,0.1,0.4,0.2,0.6,0.3c0.2,0.1,0.3,0.2,0.5,0.2c0.2,0.1,0.4,0.2,0.6,0.3
		c0.2,0.1,0.3,0.1,0.5,0.2c0.2,0.1,0.5,0.2,0.7,0.2c0.2,0.1,0.3,0.1,0.5,0.2c0,0,0.1,0,0.1,0C80.6,25.3,76.6,33.5,70.2,40.4z"/>
	<path class="st1" d="M71.6,24c-1.8,1.8-4.8,1.8-6.6,0c-1.8-1.8-1.8-4.8,0-6.6c1.8-1.8,4.8-1.8,6.6,0S73.4,22.2,71.6,24z"/>
	<path class="st2" d="M68.3,26.3c-1.4,0-2.9-0.5-4-1.6c-1.1-1.1-1.6-2.5-1.6-4c0-1.5,0.6-2.9,1.6-4c2.2-2.2,5.7-2.2,7.9,0
		c1.1,1.1,1.6,2.5,1.6,4c0,1.5-0.6,2.9-1.6,4l0,0l0,0C71.2,25.8,69.7,26.3,68.3,26.3z M68.3,17c-1,0-1.9,0.4-2.6,1.1
		c-0.7,0.7-1.1,1.6-1.1,2.6c0,1,0.4,1.9,1.1,2.6c1.5,1.5,3.8,1.5,5.3,0l0,0c0.7-0.7,1.1-1.6,1.1-2.6c0-1-0.4-1.9-1.1-2.6
		C70.2,17.4,69.2,17,68.3,17z"/>
	<path class="st1" d="M60.3,37.5c-2.4,2.4-6.4,2.4-8.8,0c-2.4-2.4-2.4-6.4,0-8.8s6.4-2.4,8.8,0C62.7,31.2,62.7,35.1,60.3,37.5z"/>
	<path class="st2" d="M55.9,40.3c-1.8,0-3.7-0.7-5.1-2.1c-2.8-2.8-2.8-7.3,0-10.1c2.8-2.8,7.3-2.8,10.1,0c2.8,2.8,2.8,7.3,0,10.1
		C59.5,39.6,57.7,40.3,55.9,40.3z M55.9,27.9c-1.4,0-2.7,0.6-3.7,1.5c-2.1,2.1-2.1,5.4,0,7.5c1,1,2.3,1.5,3.7,1.5
		c1.4,0,2.7-0.6,3.7-1.5c2.1-2.1,2.1-5.4,0-7.5C58.6,28.4,57.3,27.9,55.9,27.9z"/>
</g>
</svg>
