<?xml version="1.0" encoding="utf-8"?>
<!-- Generator: Adobe Illustrator 23.0.3, SVG Export Plug-In . SVG Version: 6.00 Build 0)  -->
<svg version="1.1" id="layer_1" xmlns="http://www.w3.org/2000/svg" xmlns:xlink="http://www.w3.org/1999/xlink" x="0px" y="0px"
	 viewBox="0 0 67.8 91.9" style="enable-background:new 0 0 67.8 91.9;" xml:space="preserve">
<style type="text/css">
	.st0{fill:#FFFFFF;}
	.st1{fill:#F7BE56;}
	.st2{fill:#703407;}
</style>
<g>
	<path class="st0" d="M40.5,1.1l-2.1,32.7c2.9,0.6,5.6,1.7,8,3.2c0.1,0.1,0.2,0.1,0.3,0.2l7.1-36.1L46,5.8L40.5,1.1z"/>
	<path class="st0" d="M14,1.1l7.1,36.1c0.1-0.1,0.2-0.1,0.3-0.2c2.4-1.5,5.1-2.7,8-3.2L27.3,1.1l-5.5,4.7L14,1.1z"/>
	<path class="st1" d="M27.3,1.1l2.1,32.7c1.5-0.3,3-0.5,4.5-0.5c1.5,0,3,0.2,4.5,0.5l2.1-32.7l-6.6,4.7L27.3,1.1z"/>
	<path class="st2" d="M54.4,0.2c-0.4-0.3-0.8-0.3-1.2,0l-7.1,4.3l-4.8-4.2c0,0-0.1,0-0.1-0.1c0,0-0.1,0-0.1-0.1c0,0,0,0,0,0
		c0,0-0.1,0-0.1-0.1c0,0-0.1,0-0.1,0c0,0-0.1,0-0.1,0c-0.1,0-0.1,0-0.2,0c0,0-0.1,0-0.1,0c-0.1,0-0.1,0-0.2,0c0,0,0,0,0,0
		c0,0-0.1,0-0.1,0.1c0,0-0.1,0-0.1,0.1l-6,4.2l-6-4.2c0,0-0.1,0-0.1-0.1c0,0-0.1-0.1-0.1-0.1c0,0,0,0,0,0c0,0-0.1,0-0.2,0
		c-0.1,0-0.1,0-0.2,0c-0.1,0-0.1,0-0.2,0c-0.1,0-0.1,0-0.2,0c0,0-0.1,0-0.1,0c-0.1,0-0.1,0-0.2,0.1c0,0,0,0,0,0c0,0-0.1,0-0.1,0.1
		c0,0-0.1,0-0.1,0.1l-4.8,4.2l-7.1-4.3c-0.4-0.2-0.9-0.2-1.2,0c-0.4,0.3-0.5,0.7-0.5,1.1L20,37.5c0.1,0.4,0.3,0.7,0.7,0.8
		c0.1,0.1,0.3,0.1,0.4,0.1c0.2,0,0.4-0.1,0.6-0.2L22,38c2.4-1.5,4.9-2.5,7.6-3.1c2.9-0.6,5.7-0.6,8.5,0c0,0,0,0,0,0
		c2.7,0.5,5.3,1.6,7.6,3.1l0.3,0.2c0.2,0.1,0.4,0.2,0.6,0.2c0.1,0,0.3,0,0.4-0.1c0.3-0.1,0.6-0.5,0.7-0.8l7.1-36.1
		C55,0.9,54.8,0.5,54.4,0.2z M21.9,35.4l-6.3-32l5.6,3.4C21.6,7,22.2,7,22.5,6.7l3.8-3.2l1.5,22.3l0.5,7.2
		C26,33.5,23.9,34.3,21.9,35.4z M30.5,32.5l-0.2-3.8L28.5,3.4l4.7,3.3c0.4,0.3,0.9,0.3,1.3,0l4.7-3.3l-1.9,29.1
		c-1.2-0.2-2.3-0.3-3.4-0.3C32.8,32.2,31.6,32.3,30.5,32.5z M45.9,35.4c-2-1.1-4.1-2-6.3-2.5l1.9-29.5l3.7,3.2
		C45.6,7,46.2,7,46.6,6.8l5.6-3.4L45.9,35.4z"/>
	<polygon class="st1" points="33.9,25.2 38.6,28.5 44,26.8 47.4,31.4 53.2,31.5 55,36.9 60.4,38.7 60.4,44.4 65.1,47.8 63.3,53.3 
		66.7,58 63.3,62.6 65.1,68.1 60.4,71.5 60.4,77.2 55,79 53.2,84.5 47.4,84.5 44,89.1 38.6,87.4 33.9,90.7 29.2,87.4 23.8,89.1 
		20.4,84.5 14.6,84.5 12.8,79 7.4,77.2 7.4,71.5 2.7,68.1 4.5,62.6 1.1,58 4.5,53.3 2.7,47.8 7.4,44.4 7.4,38.7 12.8,36.9 
		14.6,31.5 20.4,31.4 23.8,26.8 29.2,28.5 	"/>
	<path class="st2" d="M33.9,91.9c-0.2,0-0.5-0.1-0.7-0.2l-4.2-3l-4.9,1.6c-0.5,0.1-1,0-1.3-0.4l-3.1-4.2l-5.2,0
		c-0.5,0-0.9-0.3-1.1-0.8l-1.6-4.9L7,78.3c-0.5-0.2-0.8-0.6-0.8-1.1l0-5.2L2.1,69c-0.4-0.3-0.6-0.8-0.4-1.3l1.6-4.9l-3-4.2
		c-0.3-0.4-0.3-0.9,0-1.3l3-4.2l-1.6-4.9c-0.1-0.5,0-1,0.4-1.3l4.2-3.1l0-5.2c0-0.5,0.3-0.9,0.8-1.1l4.9-1.6l1.6-4.9
		c0.2-0.5,0.6-0.8,1.1-0.8l5.2,0l3.1-4.2c0.3-0.4,0.8-0.6,1.3-0.4l4.9,1.6l4.2-3c0.4-0.3,0.9-0.3,1.3,0l4.2,3l4.9-1.6
		c0.5-0.1,1,0,1.3,0.4l3.1,4.2l5.2,0c0.5,0,0.9,0.3,1.1,0.8l1.6,4.9l4.9,1.6c0.5,0.2,0.8,0.6,0.8,1.1l0,5.2l4.2,3.1
		c0.4,0.3,0.6,0.8,0.4,1.3l-1.6,4.9l3,4.2c0.3,0.4,0.3,0.9,0,1.3l-3,4.2l1.6,4.9c0.1,0.5,0,1-0.4,1.3l-4.2,3.1l0,5.2
		c0,0.5-0.3,0.9-0.8,1.1l-4.9,1.6l-1.6,4.9c-0.2,0.5-0.6,0.8-1.1,0.8l-5.2,0l-3.1,4.2c-0.3,0.4-0.8,0.6-1.3,0.4l-4.9-1.6l-4.2,3
		C34.4,91.8,34.1,91.9,33.9,91.9z M29.2,86.3c0.2,0,0.5,0.1,0.7,0.2l4,2.9l4-2.9c0.3-0.2,0.7-0.3,1-0.2l4.7,1.5l2.9-4
		c0.2-0.3,0.5-0.5,0.9-0.5l4.9,0l1.5-4.7c0.1-0.3,0.4-0.6,0.7-0.7l4.7-1.5l0-4.9c0-0.4,0.2-0.7,0.5-0.9l4-2.9L62.2,63
		c-0.1-0.3,0-0.7,0.2-1l2.9-4l-2.9-4c-0.2-0.3-0.3-0.7-0.2-1l1.5-4.7l-4-2.9c-0.3-0.2-0.5-0.5-0.5-0.9l0-4.9L54.6,38
		c-0.3-0.1-0.6-0.4-0.7-0.7l-1.5-4.7l-4.9,0c-0.4,0-0.7-0.2-0.9-0.5l-2.9-4l-4.7,1.5c-0.3,0.1-0.7,0.1-1-0.2l-4-2.9l-4,2.9
		c-0.3,0.2-0.7,0.3-1,0.2l-4.7-1.5l-2.9,4c-0.2,0.3-0.5,0.5-0.9,0.5l-4.9,0l-1.5,4.7c-0.1,0.3-0.4,0.6-0.7,0.7l-4.7,1.5l0,4.9
		c0,0.4-0.2,0.7-0.5,0.9l-4,2.9L5.6,53c0.1,0.3,0,0.7-0.2,1l-2.9,4l2.9,4c0.2,0.3,0.3,0.7,0.2,1l-1.5,4.7l4,2.9
		c0.3,0.2,0.5,0.5,0.5,0.9l0,4.9l4.7,1.5c0.3,0.1,0.6,0.4,0.7,0.7l1.5,4.7l4.9,0c0.4,0,0.7,0.2,0.9,0.5l2.9,4l4.7-1.5
		C29,86.3,29.1,86.3,29.2,86.3z"/>
	<path class="st0" d="M57.1,58c0,12.8-10.4,23.2-23.2,23.2S10.7,70.8,10.7,58s10.4-23.2,23.2-23.2S57.1,45.2,57.1,58z"/>
	<path class="st2" d="M33.9,82.3C20.5,82.3,9.6,71.4,9.6,58c0-13.4,10.9-24.3,24.3-24.3c13.4,0,24.3,10.9,24.3,24.3
		C58.2,71.4,47.3,82.3,33.9,82.3z M33.9,35.9c-12.2,0-22.1,9.9-22.1,22.1c0,12.2,9.9,22.1,22.1,22.1C46.1,80,56,70.1,56,58
		C56,45.8,46.1,35.9,33.9,35.9z"/>
	<polygon class="st1" points="33.9,41.4 38.7,51.1 49.4,52.6 41.6,60.2 43.4,70.8 33.9,65.8 24.3,70.8 26.2,60.2 18.4,52.6 
		29.1,51.1 	"/>
	<path class="st2" d="M43.4,72c-0.2,0-0.4,0-0.5-0.1l-9-4.7l-9,4.7C24.5,72,24,72,23.7,71.7c-0.3-0.3-0.5-0.7-0.4-1.1l1.7-10.1
		l-7.3-7.1c-0.3-0.3-0.4-0.8-0.3-1.2c0.1-0.4,0.5-0.7,0.9-0.8l10.1-1.5l4.5-9.1c0.4-0.8,1.6-0.8,2,0l4.5,9.1l10.1,1.5
		c0.4,0.1,0.8,0.4,0.9,0.8c0.1,0.4,0,0.9-0.3,1.2l-7.3,7.1l1.7,10.1c0.1,0.4-0.1,0.9-0.4,1.1C43.9,71.9,43.7,72,43.4,72z M20.9,53.4
		l6.1,5.9c0.3,0.3,0.4,0.6,0.3,1l-1.4,8.4l7.5-4c0.3-0.2,0.7-0.2,1.1,0l7.5,4l-1.4-8.4c-0.1-0.4,0.1-0.7,0.3-1l6.1-5.9l-8.4-1.2
		c-0.4-0.1-0.7-0.3-0.8-0.6L33.9,44l-3.8,7.6c-0.2,0.3-0.5,0.6-0.9,0.6L20.9,53.4z"/>
</g>
</svg>
