<?xml version="1.0" encoding="utf-8"?>
<!-- Generator: Adobe Illustrator 16.0.0, SVG Export Plug-In . SVG Version: 6.00 Build 0)  -->
<!DOCTYPE svg PUBLIC "-//W3C//DTD SVG 1.1//EN" "http://www.w3.org/Graphics/SVG/1.1/DTD/svg11.dtd">
<svg version="1.1" id="Layer_1" xmlns="http://www.w3.org/2000/svg" xmlns:xlink="http://www.w3.org/1999/xlink" x="0px" y="0px"
	 width="350px" height="274px" viewBox="0 0 350 274" enable-background="new 0 0 350 274" xml:space="preserve">
<g>
	<g>
		<path fill="#FFFFFF" d="M8.994,0h310.014c5.051,0,8.993,4.099,8.993,8.985v233.874c0,5.044-3.942,9.142-8.993,9.142H8.994
			c-4.891,0-8.993-4.097-8.993-9.142V8.986C0.001,4.099,4.104,0,8.994,0L8.994,0z"/>
		<path fill="#FFFFFF" d="M17.197,8.198h293.767c4.574,0,8.358,3.78,8.358,8.507v218.588c0,4.729-3.785,8.513-8.358,8.513H17.197
			c-4.732,0-8.521-3.783-8.521-8.513V16.706C8.678,11.98,12.465,8.198,17.197,8.198L17.197,8.198z"/>
		<path fill="#EAEEEE" d="M14.908,45.547H313.09c0.473,0,0.949,0.472,0.949,1.104v25.216c0,0.63-0.478,1.104-0.949,1.104H14.908
			c-0.632,0-0.945-0.475-0.945-1.104V46.65C13.963,46.019,14.276,45.547,14.908,45.547L14.908,45.547z"/>
		
			<linearGradient id="SVGID_1_" gradientUnits="userSpaceOnUse" x1="-379.3232" y1="-970.5151" x2="-68.6758" y2="-970.5151" gradientTransform="matrix(1 0 0 1 388 994)">
			<stop  offset="0" style="stop-color:#9D1F61"/>
			<stop  offset="1" style="stop-color:#EB222A"/>
		</linearGradient>
		<path fill="url(#SVGID_1_)" d="M310.964,8.198H17.197c-4.732,0-8.521,3.78-8.521,8.507v22.066h69.976
			c2.502-1.134,5.617-3.166,7.175-6.619c2.683-6.304,4.259-15.447,17.983-15.447c13.729,0,29.504,0,29.504,0s15.617,0,29.346,0
			c13.727,0,15.303,9.144,18.146,15.447c1.469,3.453,4.546,5.485,7.03,6.619h131.488V16.705
			C319.322,11.98,315.537,8.198,310.964,8.198z M24.927,30.891c-4.259,0-7.571-3.31-7.571-7.408c0-4.097,3.313-7.406,7.571-7.406
			c4.104,0,7.417,3.31,7.417,7.406C32.344,27.581,29.031,30.891,24.927,30.891z M46.857,30.891c-4.104,0-7.573-3.31-7.573-7.408
			c0-4.097,3.471-7.406,7.573-7.406c4.102,0,7.414,3.31,7.414,7.406C54.271,27.581,50.959,30.891,46.857,30.891z M68.79,30.891
			c-4.104,0-7.574-3.31-7.574-7.408c0-4.097,3.472-7.406,7.574-7.406c4.101,0,7.414,3.31,7.414,7.406
			C76.203,27.581,72.891,30.891,68.79,30.891z"/>
		<g>
			<g>
				<path d="M77.247,140.67h-8.096v-6.398c-2.675,4.359-7.18,6.75-13.161,6.75c-10.771,0-17.949-7.805-17.949-19.194
					c0-11.25,7.25-18.913,17.808-18.913c6.054,0,10.56,2.461,13.304,6.818V88.5h8.096L77.247,140.67L77.247,140.67z M69.151,122.107
					c0-7.242-4.716-12.306-11.474-12.306s-11.473,5.133-11.543,12.306c0.071,7.103,4.716,12.164,11.543,12.164
					C64.438,134.271,69.151,129.209,69.151,122.107z"/>
				<path d="M122.295,121.966c0,11.25-7.954,18.983-19.497,18.983c-11.614,0-19.567-7.733-19.567-18.983
					c0-11.319,7.953-18.982,19.567-18.982C114.341,102.982,122.295,110.646,122.295,121.966z M91.324,122.037
					c0,7.242,4.716,12.164,11.474,12.164c6.688,0,11.402-4.922,11.402-12.164c0-7.172-4.718-12.094-11.402-12.094
					C96.04,109.945,91.324,114.865,91.324,122.037z"/>
				<path d="M190.501,117.396v23.271h-8.095v-21.021c0-5.695-3.379-9.143-8.868-9.143c-6.405,0.211-10.276,5.133-10.276,11.673
					v18.491h-8.094v-21.021c0-5.695-3.311-9.143-8.799-9.143c-6.478,0.211-10.418,5.133-10.418,11.673v18.491h-8.024v-37.406h8.024
					v7.242c2.604-5.271,7.391-7.521,13.585-7.521c6.687,0,11.262,3.303,13.021,9c2.395-6.259,7.392-9,14.22-9
					C185.363,102.982,190.501,108.467,190.501,117.396z"/>
				<path d="M220.979,136.099c-2.675,3.307-6.969,4.923-12.389,4.923c-8.095,0-13.163-4.991-13.163-11.603
					c0-6.82,5.14-11.179,14.148-11.25h11.333v-1.125c0-4.712-3.027-7.524-8.939-7.524c-3.589,0-7.32,1.267-11.051,3.798
					l-3.309-5.625c5.208-3.095,9.01-4.712,16.119-4.712c9.644,0,15.063,4.923,15.133,13.148l0.07,24.539h-7.953V136.099
					L220.979,136.099z M220.909,127.521v-3.445h-10.137c-5.278,0-7.743,1.406-7.743,4.992c0,3.375,2.746,5.555,7.25,5.555
					C216.052,134.623,220.486,131.6,220.909,127.521z"/>
				<path d="M245.686,92.577c0,2.812-2.041,4.851-4.716,4.851s-4.715-2.039-4.715-4.851c0-2.883,2.041-4.922,4.715-4.922
					C243.645,87.655,245.686,89.694,245.686,92.577z M236.957,140.67v-37.406h8.023v37.406H236.957z"/>
				<path d="M289.959,117.396v23.271h-8.096v-21.021c0-5.625-3.378-9.07-9.01-9.07c-6.192,0.07-10.063,4.357-10.628,10.195v19.896
					h-8.095v-37.406h8.095v7.172c2.676-5.202,7.462-7.452,13.796-7.452C284.751,102.982,289.959,108.467,289.959,117.396z"/>
			</g>
			<g>
				
					<linearGradient id="SVGID_2_" gradientUnits="userSpaceOnUse" x1="-349.959" y1="-820.5776" x2="-223.4043" y2="-820.5776" gradientTransform="matrix(1 0 0 1 388 994)">
					<stop  offset="0" style="stop-color:#9D1F61"/>
					<stop  offset="1" style="stop-color:#EB222A"/>
				</linearGradient>
				<path fill="url(#SVGID_2_)" d="M43.245,153.252h116.144c2.842,0,5.207,2.365,5.207,5.198v29.944
					c0,2.839-2.365,5.198-5.207,5.198H43.245c-2.836,0-5.204-2.359-5.204-5.198V158.45
					C38.041,155.617,40.409,153.252,43.245,153.252L43.245,153.252z"/>
				<g>
					<path fill="#FFFFFF" d="M59.46,182.182c0,1.663-1.152,2.855-2.688,2.855s-2.688-1.193-2.688-2.855
						c0-1.619,1.152-2.77,2.688-2.77C58.308,179.412,59.46,180.563,59.46,182.182z"/>
					<path fill="#FFFFFF" d="M82.031,165.518l-2.689,3.154c-1.578-1.62-3.754-2.6-6.484-2.558c-3.926,0-6.741,2.939-6.741,7.245
						s2.814,7.246,6.741,7.246c2.858,0,5.164-0.938,6.698-2.729l2.731,2.729c-2.049,2.687-5.334,4.221-9.646,4.221
						c-6.74,0-11.435-4.646-11.435-11.466c0-6.861,4.691-11.551,11.435-11.551C76.74,161.81,79.939,163.131,82.031,165.518z"/>
					<path fill="#FFFFFF" d="M107.206,173.316c0,6.818-4.821,11.509-11.818,11.509c-7.041,0-11.861-4.688-11.861-11.509
						c0-6.861,4.82-11.508,11.861-11.508C102.385,161.81,107.206,166.455,107.206,173.316z M88.433,173.359
						c0,4.391,2.858,7.374,6.955,7.374c4.054,0,6.912-2.983,6.912-7.374c0-4.348-2.858-7.33-6.912-7.33
						C91.292,166.028,88.433,169.012,88.433,173.359z"/>
					<path fill="#FFFFFF" d="M148.553,170.547v14.108h-4.908v-12.744c0-3.453-2.047-5.541-5.375-5.541
						c-3.883,0.128-6.229,3.109-6.229,7.075v11.209h-4.906v-12.743c0-3.453-2.005-5.541-5.333-5.541
						c-3.925,0.128-6.314,3.109-6.314,7.075v11.209h-4.862v-22.677h4.862v4.392c1.579-3.196,4.479-4.562,8.234-4.562
						c4.055,0,6.827,2.002,7.896,5.455c1.45-3.793,4.479-5.455,8.618-5.455C145.438,161.81,148.553,165.133,148.553,170.547z"/>
				</g>
			</g>
		</g>
	</g>
	<g>
		<path d="M296.999,168C326.254,168,350,191.747,350,221.001C350,250.253,326.254,274,296.999,274
			C267.747,274,244,250.253,244,221.001C244,191.747,267.747,168,296.999,168L296.999,168z"/>
		
			<linearGradient id="SVGID_3_" gradientUnits="userSpaceOnUse" x1="-134.6709" y1="-772.999" x2="-47.3281" y2="-772.999" gradientTransform="matrix(1 0 0 1 388 994)">
			<stop  offset="0" style="stop-color:#9D1F61"/>
			<stop  offset="1" style="stop-color:#EB222A"/>
		</linearGradient>
		<path fill="url(#SVGID_3_)" d="M296.999,177.329c24.188,0,43.673,19.596,43.673,43.672c0,24.187-19.484,43.672-43.673,43.672
			c-24.074,0-43.67-19.485-43.67-43.672C253.329,196.924,272.925,177.329,296.999,177.329L296.999,177.329z"/>
		<g>
			<path fill="#FFFFFF" d="M287.145,245.024c-1.594,0-3.187-0.607-4.4-1.822l-12.573-12.573c-2.43-2.431-2.43-6.371,0-8.802
				c2.431-2.432,6.37-2.432,8.801,0l8.173,8.173l26.23-26.229c2.43-2.431,6.369-2.431,8.8,0c2.432,2.432,2.432,6.37,0,8.802
				l-30.629,30.629C290.329,244.416,288.736,245.024,287.145,245.024z"/>
		</g>
	</g>
</g>
</svg>
