<?xml version="1.0" encoding="utf-8"?>
<!-- Generator: Adobe Illustrator 16.0.0, SVG Export Plug-In . SVG Version: 6.00 Build 0)  -->
<!DOCTYPE svg PUBLIC "-//W3C//DTD SVG 1.1//EN" "http://www.w3.org/Graphics/SVG/1.1/DTD/svg11.dtd">
<svg version="1.1" id="layer_1" xmlns="http://www.w3.org/2000/svg" xmlns:xlink="http://www.w3.org/1999/xlink" x="0px" y="0px"
	 width="197.346px" height="200px" viewBox="0 0 197.346 200" enable-background="new 0 0 197.346 200" xml:space="preserve">
<g>
	<linearGradient id="SVGID_1_" gradientUnits="userSpaceOnUse" x1="0" y1="100" x2="197.3467" y2="100">
		<stop  offset="0" style="stop-color:#9D1F60"/>
		<stop  offset="1" style="stop-color:#EC1E28"/>
	</linearGradient>
	<path fill="url(#SVGID_1_)" d="M186.767,73.719H61.905V59.259c0-20.274,16.494-36.769,36.768-36.769s36.768,16.495,36.768,36.769
		c0,2.046,1.66,3.705,3.707,3.705h15.078c2.047,0,3.707-1.659,3.707-3.705C157.933,26.583,131.349,0,98.673,0
		c-32.675,0-59.26,26.583-59.26,59.259v14.459H10.58C4.76,73.719,0,78.48,0,84.301V189.42C0,195.239,4.76,200,10.58,200h176.187
		c5.82,0,10.58-4.761,10.58-10.58V84.301C197.347,78.48,192.587,73.719,186.767,73.719z M43.12,59.259
		c0-30.632,24.92-55.554,55.553-55.554s55.553,24.922,55.553,55.554h-15.078c0-22.317-18.158-40.475-40.475-40.475
		c-22.315,0-40.475,18.157-40.475,40.475v14.459H43.12V59.259z"/>
	<rect x="22.729" y="84.243" fill="#CCD5D5" width="151.887" height="105.234"/>
	<path fill="#FFFFFF" d="M185.866,120.017h-0.293c-1.156,0-2.1,0.944-2.1,2.1v29.484c0,1.156,0.943,2.102,2.1,2.102h0.293
		c1.152,0,2.102-0.945,2.102-2.102v-29.484C187.968,120.961,187.019,120.017,185.866,120.017z"/>
	<g>
		<path fill="#FFFFFF" d="M11.174,131.949c-2.708,0-4.907,2.199-4.907,4.911c0,2.712,2.199,4.909,4.907,4.909
			c2.717,0,4.912-2.197,4.912-4.909C16.086,134.148,13.891,131.949,11.174,131.949z"/>
		<path fill="#FFFFFF" d="M13.611,104.722H8.74c-1.363,0-2.474,1.113-2.474,2.474v4.873c0,1.362,1.11,2.474,2.474,2.474h4.871
			c1.363,0,2.475-1.112,2.475-2.474v-4.873C16.086,105.835,14.975,104.722,13.611,104.722z"/>
		<path fill="#FFFFFF" d="M13.611,159.178H8.74c-1.363,0-2.474,1.111-2.474,2.473v4.873c0,1.361,1.11,2.475,2.474,2.475h4.871
			c1.363,0,2.475-1.113,2.475-2.475v-4.873C16.086,160.289,14.975,159.178,13.611,159.178z"/>
	</g>
	<path fill="#212121" d="M185.718,170.706c-2.686,0-4.863-2.179-4.863-4.866s2.178-4.865,4.863-4.865
		c2.689,0,4.867,2.178,4.867,4.865S188.407,170.706,185.718,170.706z"/>
	<rect x="34.299" y="158.148" fill="#FFFFFF" width="128.747" height="21.04"/>
	<rect x="34.299" y="158.148" fill="#212121" width="21.043" height="21.04"/>
	<path fill="#FFFFFF" d="M46.62,168.594c0.903-0.6,1.529-1.575,1.529-2.74c0-1.85-1.498-3.35-3.347-3.35s-3.352,1.5-3.352,3.35
		c0,1.165,0.63,2.141,1.534,2.74l-1.85,5.576h3.667h3.665L46.62,168.594z"/>
	<g>
		<path fill="#212121" d="M72.88,163.678c-0.725-0.725-1.894-0.725-2.618,0l-2.375,2.371l-2.37-2.371
			c-0.725-0.725-1.894-0.725-2.618,0c-0.724,0.723-0.724,1.895,0,2.617l2.37,2.373l-2.37,2.372c-0.724,0.724-0.724,1.897,0,2.621
			c0.36,0.36,0.832,0.541,1.31,0.541c0.472,0,0.944-0.181,1.309-0.541l2.37-2.372l2.375,2.372c0.36,0.36,0.833,0.541,1.31,0.541
			s0.949-0.181,1.309-0.541c0.725-0.724,0.725-1.897,0-2.621l-2.37-2.372l2.37-2.373C73.604,165.572,73.604,164.4,72.88,163.678z"/>
		<path fill="#212121" d="M93.293,163.678c-0.724-0.725-1.894-0.725-2.618,0l-2.375,2.371l-2.371-2.371
			c-0.723-0.725-1.897-0.725-2.617,0c-0.724,0.723-0.724,1.895,0,2.617l2.371,2.373l-2.371,2.372c-0.724,0.724-0.724,1.897,0,2.621
			c0.359,0.36,0.832,0.541,1.309,0.541c0.473,0,0.945-0.181,1.309-0.541l2.371-2.372l2.375,2.372c0.36,0.36,0.832,0.541,1.309,0.541
			c0.473,0,0.949-0.181,1.31-0.541c0.725-0.724,0.725-1.897,0-2.621l-2.37-2.372l2.37-2.373
			C94.018,165.572,94.018,164.4,93.293,163.678z"/>
		<path fill="#212121" d="M113.709,163.678c-0.723-0.725-1.898-0.725-2.621,0l-2.371,2.371l-2.375-2.371
			c-0.719-0.725-1.895-0.725-2.617,0c-0.725,0.723-0.725,1.895,0,2.617l2.375,2.373l-2.375,2.372c-0.725,0.724-0.725,1.897,0,2.621
			c0.363,0.36,0.836,0.541,1.309,0.541c0.477,0,0.949-0.181,1.309-0.541l2.375-2.372l2.371,2.372
			c0.363,0.36,0.836,0.541,1.313,0.541c0.473,0,0.945-0.181,1.309-0.541c0.721-0.724,0.721-1.897,0-2.621l-2.375-2.372l2.375-2.373
			C114.431,165.572,114.431,164.4,113.709,163.678z"/>
		<path fill="#212121" d="M134.124,163.678c-0.725-0.725-1.898-0.725-2.623,0l-2.371,2.371l-2.369-2.371
			c-0.73-0.725-1.898-0.725-2.623,0c-0.721,0.723-0.721,1.895,0,2.617l2.375,2.373l-2.375,2.372c-0.721,0.724-0.721,1.897,0,2.621
			c0.365,0.36,0.836,0.541,1.309,0.541c0.477,0,0.949-0.181,1.314-0.541l2.369-2.372l2.371,2.372
			c0.365,0.36,0.838,0.541,1.314,0.541c0.473,0,0.943-0.181,1.309-0.541c0.719-0.724,0.719-1.897,0-2.621l-2.371-2.372l2.371-2.373
			C134.843,165.572,134.843,164.4,134.124,163.678z"/>
		<path fill="#212121" d="M152.167,168.668l2.369-2.373c0.725-0.723,0.725-1.895,0-2.617c-0.725-0.725-1.893-0.725-2.617,0
			l-2.375,2.371l-2.371-2.371c-0.725-0.725-1.893-0.725-2.619,0c-0.723,0.723-0.723,1.895,0,2.617l2.371,2.373l-2.371,2.372
			c-0.723,0.724-0.723,1.897,0,2.621c0.365,0.36,0.838,0.541,1.311,0.541c0.477,0,0.949-0.181,1.309-0.541l2.371-2.372l2.375,2.372
			c0.359,0.36,0.832,0.541,1.309,0.541s0.949-0.181,1.309-0.541c0.725-0.724,0.725-1.897,0-2.621L152.167,168.668z"/>
	</g>
	<path fill="#FFFFFF" d="M120.39,95.208H81.882c-3.869,0-7,3.135-7,7.002v38.506c0,2.497,1.313,4.674,3.279,5.912v-2.174
		c0-3.391,1.898-6.529,4.947-8.009c2.25-1.091,4.652-1.942,7.13-2.581c0.293-0.074,0.59-0.12,0.882-0.187
		c0.145,3.428,10.014,6.2,10.014,6.2s9.873-2.771,10.017-6.2c0.293,0.067,0.59,0.112,0.877,0.187
		c2.483,0.639,4.881,1.49,7.131,2.581c3.053,1.479,4.951,4.618,4.951,8.009v2.174c1.967-1.238,3.279-3.415,3.279-5.912V102.21
		C127.39,98.343,124.255,95.208,120.39,95.208z"/>
	<path fill="#B6C0C0" d="M108.856,133.162c-3.355-3.33-2.193-7.764-2.182-7.814c-1.641,1.188-3.531,1.865-5.541,1.865
		c-2.016,0-3.909-0.68-5.552-1.875c0.005,0.005,1.192,4.476-2.181,7.824c0,0.011,0.004,0.02,0.004,0.031
		c0.063,2.658,7.729,4.807,7.729,4.807s7.669-2.149,7.732-4.807c0-0.011,0.004-0.02,0.004-0.031H108.856z"/>
	<linearGradient id="SVGID_2_" gradientUnits="userSpaceOnUse" x1="78.1611" y1="140.6992" x2="124.1104" y2="140.6992">
		<stop  offset="0" style="stop-color:#9D1F60"/>
		<stop  offset="1" style="stop-color:#EC1E28"/>
	</linearGradient>
	<path fill="url(#SVGID_2_)" d="M119.159,136.446c-2.25-1.091-4.648-1.942-7.131-2.581c-0.287-0.074-0.584-0.12-0.877-0.187
		c-0.145,3.428-10.017,6.2-10.017,6.2s-9.869-2.771-10.014-6.2c-0.292,0.067-0.589,0.112-0.882,0.187
		c-2.478,0.639-4.88,1.49-7.13,2.581c-3.049,1.479-4.947,4.618-4.947,8.009v2.174c1.08,0.681,2.348,1.09,3.721,1.09h17.137h4.234
		h17.137c1.369,0,2.641-0.409,3.721-1.09v-2.174C124.11,141.064,122.212,137.926,119.159,136.446z"/>
	<path fill="#212121" d="M101.134,139.879c0,0,9.873-2.771,10.017-6.2c-0.76-0.175-1.516-0.35-2.285-0.486
		c-0.063,2.658-7.732,4.807-7.732,4.807s-7.666-2.149-7.729-4.807c-0.77,0.136-1.524,0.312-2.285,0.486
		C91.265,137.107,101.134,139.879,101.134,139.879z"/>
	<path fill="#212121" d="M98.683,107.777c0,0,3.961,6.135,13.738,4.82c-0.42-9.402-5.619-11.626-11.287-11.626
		c-5.763,0-11.044,2.3-11.305,12.12C89.964,112.925,93.455,108.572,98.683,107.777z"/>
	<path fill="#CCD5D5" d="M112.891,113.798c-0.148-0.015-0.297,0.01-0.439,0.055c0-0.434-0.01-0.849-0.031-1.256
		c-9.776,1.314-13.738-4.82-13.738-4.82c-5.228,0.795-8.719,5.148-8.854,5.314c-0.004,0.25-0.014,0.502-0.014,0.762
		c-0.144-0.045-0.287-0.07-0.436-0.055c-1.025,0.103-1.728,1.664-1.565,3.487c0.161,1.822,1.129,3.215,2.154,3.112
		c0.126-0.014,0.252-0.048,0.369-0.104c0.896,3.523,2.789,6.463,5.244,8.25c1.643,1.194,3.536,1.875,5.552,1.875
		c2.015,0,3.904-0.678,5.546-1.869c2.459-1.787,4.354-4.729,5.248-8.257c0.121,0.058,0.244,0.092,0.375,0.106
		c1.025,0.103,1.989-1.29,2.149-3.112C114.62,115.462,113.917,113.901,112.891,113.798z"/>
</g>
</svg>
