<?xml version="1.0" encoding="utf-8"?>
<!-- Generator: Adobe Illustrator 16.0.0, SVG Export Plug-In . SVG Version: 6.00 Build 0)  -->
<!DOCTYPE svg PUBLIC "-//W3C//DTD SVG 1.1//EN" "http://www.w3.org/Graphics/SVG/1.1/DTD/svg11.dtd">
<svg version="1.1" id="layer_1" xmlns="http://www.w3.org/2000/svg" xmlns:xlink="http://www.w3.org/1999/xlink" x="0px" y="0px"
	 width="211.781px" height="200px" viewBox="0 0 211.781 200" enable-background="new 0 0 211.781 200" xml:space="preserve">
<g>
	<path fill="#212121" d="M115.642,141.937l17.578-15.303l17.572,15.303c0,0,14.813-6.223,19.678-29.443
		c-24.063-6.199-50.441-6.202-74.507,0C100.833,135.713,115.642,141.937,115.642,141.937z"/>
	<linearGradient id="SVGID_1_" gradientUnits="userSpaceOnUse" x1="54.6548" y1="148.2588" x2="211.7822" y2="148.2588">
		<stop  offset="0" style="stop-color:#9D1F60"/>
		<stop  offset="1" style="stop-color:#EC1E28"/>
	</linearGradient>
	<path fill="url(#SVGID_1_)" d="M194.856,121.318c-7.693-3.727-15.9-6.637-24.387-8.824c-4.865,23.22-19.678,29.443-19.678,29.443
		l-17.572-15.303l-17.578,15.303c0,0-14.809-6.223-19.679-29.443c-8.481,2.186-16.691,5.098-24.385,8.824
		c-10.438,5.055-16.923,15.793-16.923,27.39v15.098c0,0,23.321,20.219,78.565,20.219c55.242,0,78.563-20.219,78.563-20.219v-15.098
		C211.782,137.111,205.294,126.373,194.856,121.318z"/>
	<g>
		<path fill="#B6C0C0" d="M159.634,110.085c-11.41-11.316-7.57-26.363-7.477-26.717c-5.604,4.057-12.063,6.373-18.939,6.373
			c-6.896,0-13.371-2.325-18.98-6.407c0.006,0.025,4.066,15.307-7.47,26.751c0,9.14,26.453,16.548,26.453,16.548
			s26.449-7.408,26.449-16.548H159.634z"/>
		<polygon fill="#B6C0C0" points="114.229,83.332 114.237,83.334 114.235,83.332 		"/>
		<path fill="#B6C0C0" d="M152.163,83.332c0,0-0.006,0.032-0.006,0.037c0.006-0.009,0.014-0.014,0.02-0.018L152.163,83.332z"/>
	</g>
	<path fill="#CCD5D5" d="M146.29,138.014l-13.07-11.38l-13.072,11.38l7.889,9.503l-6.012,36.207
		c3.578,0.186,7.295,0.301,11.195,0.301c3.895,0,7.611-0.115,11.193-0.301l-6.016-36.207L146.29,138.014z"/>
	<path fill="#212121" d="M124.827,23.277c0,0,13.545,20.979,46.982,16.479C170.372,7.606,152.597,0,133.218,0
		c-19.717,0-37.774,7.867-38.661,41.451C95.007,40.884,106.948,25.995,124.827,23.277z"/>
	<path fill="#CCD5D5" d="M173.417,43.868c-0.51-0.05-1.008,0.037-1.5,0.187c0-1.484-0.043-2.905-0.107-4.299
		c-33.438,4.5-46.982-16.479-46.982-16.479c-17.879,2.718-29.82,17.607-30.27,18.174c-0.02,0.854-0.041,1.713-0.041,2.604
		c-0.488-0.15-0.988-0.237-1.498-0.187c-3.511,0.356-5.905,5.692-5.35,11.924c0.557,6.232,3.854,10.997,7.366,10.641
		c0.437-0.045,0.861-0.164,1.259-0.356c3.062,12.05,9.533,22.099,17.94,28.216c5.609,4.084,12.086,6.414,18.984,6.414
		c6.887,0,13.352-2.321,18.959-6.394c8.418-6.113,14.9-16.171,17.961-28.237c0.402,0.192,0.822,0.311,1.262,0.356
		c3.514,0.356,6.809-4.409,7.365-10.641C179.321,49.56,176.927,44.224,173.417,43.868z"/>
	<rect x="32.266" y="7.634" fill="#212121" width="35.881" height="3.765"/>
	<rect x="59.866" y="19.105" fill="#212121" width="30.706" height="3.76"/>
	<rect x="32.266" y="19.105" fill="#212121" width="18.166" height="3.76"/>
	<rect x="67.39" y="40.748" fill="#212121" width="15.806" height="3.764"/>
	<rect x="32.266" y="40.748" fill="#212121" width="25.843" height="3.764"/>
	<rect x="32.266" y="52.217" fill="#212121" width="48.001" height="3.762"/>
	<rect x="32.266" y="73.815" fill="#212121" width="57.883" height="3.76"/>
	<rect x="32.266" y="85.285" fill="#212121" width="47.965" height="3.762"/>
	<g>
		<linearGradient id="SVGID_2_" gradientUnits="userSpaceOnUse" x1="4.882813e-004" y1="15.251" x2="21.6606" y2="15.251">
			<stop  offset="0" style="stop-color:#9D1F60"/>
			<stop  offset="1" style="stop-color:#EC1E28"/>
		</linearGradient>
		<path fill="url(#SVGID_2_)" d="M16.683,4.422H4.978C2.241,4.422,0,6.661,0,9.4v11.702c0,2.739,2.241,4.978,4.978,4.978h11.705
			c2.739,0,4.978-2.238,4.978-4.978V9.4C21.661,6.661,19.422,4.422,16.683,4.422z"/>
		<linearGradient id="SVGID_3_" gradientUnits="userSpaceOnUse" x1="4.882813e-004" y1="48.3643" x2="21.6606" y2="48.3643">
			<stop  offset="0" style="stop-color:#9D1F60"/>
			<stop  offset="1" style="stop-color:#EC1E28"/>
		</linearGradient>
		<path fill="url(#SVGID_3_)" d="M16.683,37.535H4.978C2.241,37.535,0,39.774,0,42.511v11.705c0,2.737,2.241,4.978,4.978,4.978
			h11.705c2.739,0,4.978-2.241,4.978-4.978V42.511C21.661,39.774,19.422,37.535,16.683,37.535z"/>
		<linearGradient id="SVGID_4_" gradientUnits="userSpaceOnUse" x1="4.882813e-004" y1="81.479" x2="21.6606" y2="81.479">
			<stop  offset="0" style="stop-color:#9D1F60"/>
			<stop  offset="1" style="stop-color:#EC1E28"/>
		</linearGradient>
		<path fill="url(#SVGID_4_)" d="M16.683,70.649H4.978C2.241,70.649,0,72.888,0,75.624v11.705c0,2.736,2.241,4.98,4.978,4.98h11.705
			c2.739,0,4.978-2.244,4.978-4.98V75.624C21.661,72.888,19.422,70.649,16.683,70.649z"/>
	</g>
	<path fill="#212121" d="M11.813,22.866c-0.563,0-1.097-0.249-1.455-0.686l-7.059-8.589c-0.663-0.804-0.544-1.987,0.256-2.65
		c0.804-0.658,1.985-0.548,2.649,0.26l5.428,6.602l9.866-15.218c0.566-0.868,1.727-1.119,2.602-0.553
		c0.873,0.564,1.119,1.729,0.553,2.602L13.391,22.011c-0.327,0.502-0.873,0.818-1.473,0.854
		C11.883,22.866,11.847,22.866,11.813,22.866z"/>
	<path fill="#212121" d="M11.813,55.979c-0.563,0-1.097-0.251-1.455-0.685l-7.059-8.591c-0.663-0.802-0.544-1.988,0.256-2.648
		c0.804-0.658,1.985-0.548,2.649,0.261l5.428,6.602l9.866-15.218c0.566-0.871,1.727-1.122,2.602-0.555
		c0.873,0.566,1.119,1.729,0.553,2.602L13.391,55.123c-0.327,0.505-0.873,0.82-1.473,0.856
		C11.883,55.979,11.847,55.979,11.813,55.979z"/>
	<rect x="77.425" y="7.634" fill="#212121" width="18.317" height="3.765"/>
	<g>
		<path fill="#212121" d="M98.476,142.259c-0.121-1.359-1.325-2.361-2.685-2.24l-6.631,0.603c-0.718-2.896-1.751-5.705-3.08-8.378
			l5.442-3.836c1.114-0.787,1.386-2.327,0.599-3.443l-4.277-6.061c-0.782-1.115-2.327-1.384-3.441-0.598l-5.438,3.836
			c-2.04-2.125-4.329-4.053-6.854-5.726l2.788-6.03c0.572-1.24,0.029-2.709-1.205-3.283l-6.733-3.108
			c-1.239-0.575-2.705-0.034-3.277,1.204l-2.793,6.03c-2.909-0.843-5.859-1.334-8.798-1.516l-0.607-6.623
			c-0.121-1.359-1.324-2.364-2.68-2.242l-7.388,0.673c-1.36,0.124-2.362,1.325-2.237,2.683l0.598,6.633
			c-2.891,0.719-5.705,1.75-8.376,3.08l-3.835-5.439c-0.786-1.117-2.332-1.384-3.445-0.6l-6.063,4.275
			c-1.109,0.787-1.381,2.328-0.597,3.443l3.837,5.438c-2.125,2.042-4.053,4.327-5.722,6.855l-6.036-2.789
			c-1.239-0.574-2.706-0.031-3.279,1.207l-3.11,6.729c-0.572,1.242-0.034,2.711,1.205,3.284l6.032,2.787
			c-0.848,2.91-1.339,5.861-1.515,8.802l-6.625,0.6c-1.364,0.123-2.362,1.328-2.238,2.688l0.671,7.383
			c0.12,1.361,1.325,2.363,2.681,2.238l6.633-0.602c0.719,2.896,1.751,5.705,3.076,8.377l-5.438,3.838
			c-1.118,0.789-1.381,2.328-0.593,3.445l4.271,6.063c0.783,1.111,2.323,1.379,3.446,0.594l5.434-3.834
			c2.039,2.125,4.323,4.055,6.854,5.725l-2.789,6.031c-0.575,1.24-0.033,2.709,1.21,3.283l6.726,3.107
			c1.242,0.576,2.71,0.035,3.285-1.203l2.789-6.031c2.908,0.844,5.859,1.334,8.799,1.518l0.602,6.623
			c0.121,1.359,1.324,2.363,2.686,2.238l7.388-0.672c1.354-0.123,2.361-1.322,2.236-2.682l-0.603-6.635
			c2.896-0.717,5.705-1.752,8.377-3.076l3.838,5.436c0.791,1.117,2.327,1.387,3.445,0.602l6.06-4.275
			c1.117-0.783,1.381-2.328,0.597-3.443l-3.834-5.434c2.126-2.045,4.054-4.328,5.724-6.859l6.032,2.789
			c1.242,0.572,2.71,0.031,3.282-1.205l3.11-6.732c0.576-1.236,0.029-2.709-1.204-3.281l-6.033-2.789
			c0.845-2.91,1.334-5.861,1.52-8.799l6.625-0.604c1.356-0.123,2.358-1.326,2.233-2.688L98.476,142.259z"/>
		<path fill="#CCD5D5" d="M67.808,158.847c-4.655,10.068-16.59,14.457-26.653,9.801c-10.072-4.652-14.461-16.588-9.801-26.654
			c4.65-10.068,16.586-14.457,26.653-9.801C68.071,136.848,72.463,148.78,67.808,158.847z"/>
	</g>
</g>
</svg>
