<?xml version="1.0" encoding="utf-8"?>
<!-- Generator: Adobe Illustrator 16.0.0, SVG Export Plug-In . SVG Version: 6.00 Build 0)  -->
<!DOCTYPE svg PUBLIC "-//W3C//DTD SVG 1.1//EN" "http://www.w3.org/Graphics/SVG/1.1/DTD/svg11.dtd">
<svg version="1.1" id="layer_1" xmlns="http://www.w3.org/2000/svg" xmlns:xlink="http://www.w3.org/1999/xlink" x="0px" y="0px"
	 width="204.246px" height="200px" viewBox="0 0 204.246 200" enable-background="new 0 0 204.246 200" xml:space="preserve">
<g>
	<path fill="#212121" d="M200.844,123.419h-9.15c-0.628-4.126-1.719-8.098-3.191-11.877l7.931-4.58
		c1.63-0.94,2.185-3.02,1.247-4.649l-5.105-8.842c-0.942-1.628-3.021-2.187-4.646-1.246l-7.941,4.584
		c-2.572-3.205-5.488-6.119-8.693-8.691l4.586-7.94c0.939-1.627,0.381-3.709-1.244-4.65l-8.846-5.104
		c-1.627-0.94-3.709-0.383-4.648,1.246l-4.58,7.932c-3.781-1.475-7.752-2.563-11.879-3.19v-9.152c0-1.879-1.521-3.403-3.402-3.403
		h-10.211c-1.879,0-3.404,1.524-3.404,3.403v9.152c-4.127,0.626-8.096,1.715-11.875,3.19l-4.58-7.932
		c-0.939-1.628-3.02-2.186-4.649-1.246l-8.843,5.104c-1.629,0.94-2.187,3.022-1.246,4.65l4.584,7.94
		c-3.206,2.572-6.119,5.486-8.691,8.691l-7.941-4.584c-1.627-0.941-3.707-0.383-4.649,1.246l-5.104,8.842
		c-0.938,1.629-0.381,3.709,1.246,4.649l7.931,4.58c-1.472,3.779-2.563,7.751-3.19,11.877h-9.15c-1.877,0-3.404,1.524-3.404,3.403
		v10.211c0,1.88,1.527,3.403,3.404,3.403h9.15c0.627,4.127,1.719,8.098,3.19,11.877l-7.931,4.58
		c-1.627,0.939-2.184,3.021-1.246,4.65l5.104,8.844c0.942,1.625,3.022,2.184,4.649,1.244l7.941-4.584
		c2.572,3.203,5.485,6.119,8.691,8.691l-4.584,7.941c-0.94,1.627-0.383,3.707,1.246,4.646l8.843,5.105
		c1.63,0.941,3.71,0.383,4.649-1.244l4.58-7.934c3.779,1.473,7.748,2.564,11.875,3.191v9.15c0,1.881,1.525,3.402,3.404,3.402h10.211
		c1.881,0,3.402-1.521,3.402-3.402v-9.15c4.127-0.627,8.098-1.719,11.879-3.191l4.58,7.934c0.939,1.627,3.021,2.186,4.648,1.244
		l8.846-5.105c1.625-0.939,2.184-3.02,1.244-4.646l-4.586-7.941c3.205-2.572,6.121-5.488,8.693-8.691l7.941,4.584
		c1.625,0.939,3.704,0.381,4.646-1.244l5.105-8.844c0.938-1.629,0.383-3.711-1.247-4.65l-7.931-4.58
		c1.473-3.779,2.563-7.75,3.191-11.877h9.15c1.881,0,3.402-1.523,3.402-3.403v-10.211
		C204.246,124.943,202.725,123.419,200.844,123.419z"/>
	<circle fill="#CCD5D5" cx="136.175" cy="131.929" r="40.843"/>
	<path fill="#FFDE00" d="M136.175,110.827c5.892,0,11.216,2.422,15.044,6.317l13.961-13.959c-7.401-7.468-17.66-12.1-29.005-12.1
		c-11.347,0-21.604,4.632-29.005,12.1l13.957,13.959C124.957,113.249,130.281,110.827,136.175,110.827z"/>
	<path fill="#EC1E28" d="M177.018,131.929c0-11.213-4.525-21.364-11.838-28.745l-13.961,13.959
		c3.742,3.809,6.057,9.024,6.057,14.785c0,5.893-2.421,11.216-6.318,15.044l13.96,13.959
		C172.386,153.532,177.018,143.274,177.018,131.929z"/>
	<path fill="#9D1F60" d="M115.074,131.929c0-5.761,2.313-10.976,6.053-14.785l-13.957-13.959
		c-7.316,7.381-11.838,17.531-11.838,28.745c0,11.345,4.629,21.603,12.1,29.003l13.959-13.959
		C117.497,143.146,115.074,137.822,115.074,131.929z"/>
	<path fill="#212121" d="M142.98,131.929c0,3.76-3.047,6.807-6.806,6.807c-3.76,0-6.806-3.047-6.806-6.807
		c0-6.869,6.806-30.826,6.806-30.826S142.98,125.061,142.98,131.929z"/>
	<circle fill="#CCD5D5" cx="136.175" cy="131.929" r="3.403"/>
	<path fill="#FFFFFF" d="M149.813,163.431h-27.279c-1.021,0-1.85-0.832-1.85-1.854v-4.465c0-1.023,0.829-1.854,1.85-1.854h27.279
		c1.023,0,1.854,0.83,1.854,1.854v4.465C151.666,162.599,150.836,163.431,149.813,163.431z"/>
	<path fill="#212121" d="M95.588,56.856l-5.723-0.932c0.031-2.643-0.248-5.236-0.785-7.749l5.424-2.055
		c1.113-0.422,1.676-1.667,1.254-2.78l-2.292-6.047c-0.42-1.113-1.667-1.673-2.78-1.252l-5.43,2.058
		c-1.281-2.265-2.807-4.383-4.547-6.317l3.672-4.497c0.754-0.923,0.619-2.28-0.303-3.033l-5.008-4.091
		c-0.923-0.753-2.281-0.617-3.033,0.305l-3.67,4.491c-2.213-1.304-4.584-2.392-7.102-3.203l0.932-5.719
		c0.193-1.176-0.604-2.283-1.777-2.474l-6.385-1.04c-1.174-0.191-2.283,0.606-2.473,1.782l-0.934,5.719
		c-2.642-0.028-5.236,0.25-7.747,0.786l-2.056-5.425c-0.422-1.113-1.667-1.674-2.78-1.252L36,16.424
		c-1.113,0.422-1.675,1.665-1.253,2.778l2.058,5.431c-2.264,1.28-4.383,2.807-6.318,4.548l-4.495-3.674
		c-0.923-0.754-2.281-0.617-3.034,0.305l-4.092,5.008c-0.754,0.922-0.617,2.279,0.304,3.033l4.492,3.67
		c-1.306,2.213-2.391,4.584-3.202,7.1l-5.721-0.932c-1.174-0.191-2.281,0.605-2.473,1.78l-1.039,6.383
		c-0.193,1.174,0.604,2.282,1.78,2.475l5.719,0.931c-0.027,2.643,0.249,5.237,0.785,7.749l-5.424,2.055
		c-1.111,0.422-1.673,1.667-1.251,2.78l2.29,6.047c0.424,1.112,1.667,1.673,2.78,1.252l5.43-2.057
		c1.282,2.265,2.806,4.383,4.547,6.316l-3.674,4.496c-0.75,0.922-0.615,2.28,0.308,3.033l5.008,4.092
		c0.921,0.753,2.279,0.616,3.033-0.305l3.668-4.493c2.213,1.306,4.584,2.392,7.097,3.203l-0.929,5.72
		c-0.193,1.174,0.605,2.282,1.782,2.475l6.382,1.039c1.174,0.191,2.281-0.605,2.473-1.781l0.93-5.719
		c2.644,0.027,5.238-0.25,7.751-0.785l2.054,5.424c0.422,1.113,1.666,1.673,2.781,1.251l6.046-2.29
		c1.113-0.422,1.675-1.667,1.253-2.781l-2.059-5.429c2.267-1.282,4.386-2.806,6.316-4.547l4.497,3.673
		c0.923,0.752,2.281,0.617,3.034-0.306l4.094-5.007c0.752-0.922,0.614-2.28-0.309-3.034l-4.492-3.669
		c1.309-2.212,2.395-4.584,3.204-7.099l5.72,0.931c1.174,0.191,2.285-0.606,2.475-1.78l1.039-6.383
		C97.558,58.154,96.762,57.047,95.588,56.856z"/>
	<path fill="#CCD5D5" d="M74.449,58.874c-1.811,11.13-12.302,18.684-23.434,16.872C39.885,73.933,32.331,63.44,34.142,52.31
		c1.815-11.131,12.307-18.684,23.437-16.871C68.711,37.25,76.262,47.743,74.449,58.874z"/>
	<path fill="#212121" d="M50.059,114.732c-0.062-0.69-0.673-1.201-1.365-1.138l-3.371,0.306c-0.365-1.472-0.89-2.9-1.565-4.259
		l2.767-1.95c0.566-0.4,0.704-1.183,0.304-1.75l-2.174-3.081c-0.398-0.568-1.183-0.704-1.75-0.304l-2.765,1.95
		c-1.037-1.081-2.2-2.061-3.484-2.91l1.417-3.066c0.291-0.63,0.016-1.377-0.612-1.669l-3.423-1.58
		c-0.629-0.292-1.375-0.018-1.666,0.612l-1.42,3.065c-1.479-0.429-2.979-0.678-4.472-0.77l-0.309-3.367
		c-0.061-0.691-0.673-1.202-1.362-1.14l-3.755,0.342c-0.691,0.063-1.201,0.673-1.137,1.364l0.304,3.371
		c-1.47,0.365-2.9,0.89-4.258,1.566l-1.949-2.765c-0.4-0.568-1.186-0.703-1.752-0.305l-3.082,2.173
		c-0.564,0.4-0.702,1.183-0.304,1.75l1.951,2.764c-1.08,1.039-2.061,2.2-2.909,3.485l-3.068-1.417
		c-0.63-0.292-1.376-0.017-1.667,0.613l-1.581,3.42c-0.291,0.631-0.017,1.378,0.612,1.669l3.066,1.417
		c-0.431,1.479-0.68,2.98-0.77,4.474l-3.368,0.306c-0.693,0.063-1.201,0.674-1.138,1.365l0.341,3.754
		c0.061,0.691,0.674,1.201,1.363,1.138l3.372-0.305c0.365,1.472,0.89,2.9,1.564,4.258l-2.765,1.951
		c-0.568,0.4-0.702,1.184-0.302,1.751l2.172,3.081c0.398,0.566,1.181,0.703,1.752,0.303l2.762-1.948
		c1.037,1.079,2.198,2.061,3.484,2.909l-1.417,3.066c-0.293,0.629-0.017,1.376,0.615,1.667l3.418,1.582
		c0.632,0.291,1.378,0.016,1.671-0.613l1.417-3.066c1.479,0.43,2.979,0.679,4.473,0.771l0.306,3.367
		c0.062,0.689,0.674,1.201,1.365,1.137l3.755-0.34c0.689-0.063,1.201-0.674,1.137-1.365l-0.306-3.371
		c1.472-0.365,2.9-0.891,4.258-1.564l1.951,2.765c0.402,0.566,1.184,0.703,1.752,0.303l3.08-2.172
		c0.568-0.399,0.702-1.183,0.304-1.749l-1.949-2.764c1.081-1.039,2.06-2.2,2.909-3.486l3.066,1.418
		c0.632,0.29,1.378,0.016,1.668-0.613l1.582-3.422c0.293-0.629,0.015-1.376-0.612-1.667l-3.066-1.418
		c0.429-1.479,0.678-2.979,0.772-4.473l3.368-0.307c0.689-0.062,1.199-0.673,1.135-1.365L50.059,114.732z"/>
	<path fill="#CCD5D5" d="M34.47,123.164c-2.367,5.119-8.433,7.349-13.549,4.982c-5.12-2.366-7.351-8.433-4.982-13.55
		c2.364-5.118,8.431-7.349,13.549-4.982C34.603,111.981,36.836,118.048,34.47,123.164z"/>
	<g>
		<path fill="#CCD5D5" d="M122.875,0c-1.498,0-2.723,1.226-2.723,2.724v49.02c0,1.497,1.225,2.723,2.723,2.723
			s2.725-1.226,2.725-2.723V2.724C125.6,1.226,124.373,0,122.875,0z"/>
		<path fill="#CCD5D5" d="M151.698,0c-1.495,0-2.721,1.226-2.721,2.724v49.02c0,1.497,1.226,2.723,2.721,2.723
			c1.499,0,2.726-1.226,2.726-2.723V2.724C154.424,1.226,153.197,0,151.698,0z"/>
		<path fill="#CCD5D5" d="M180.525,0c-1.5,0-2.727,1.226-2.727,2.724v49.02c0,1.497,1.227,2.723,2.727,2.723
			c1.496,0,2.721-1.226,2.721-2.723V2.724C183.246,1.226,182.021,0,180.525,0z"/>
	</g>
	<circle fill="#212121" cx="180.523" cy="21.56" r="6.127"/>
	<circle fill="#212121" cx="151.7" cy="38.373" r="6.128"/>
	<circle fill="#212121" cx="122.876" cy="14.354" r="6.127"/>
	<g>
		<path fill="#CCD5D5" d="M48.08,168.835c3.174,0,5.768-2.596,5.768-5.77c0-3.17-2.594-5.768-5.768-5.768H25.341
			c-3.174,0-5.77,2.598-5.77,5.768c0,3.174,2.596,5.77,5.77,5.77H48.08z"/>
		<path fill="#CCD5D5" d="M50.896,183.72H28.158c-3.173,0-5.77,2.594-5.77,5.77c0,3.17,2.596,5.768,5.77,5.768h22.739
			c3.171,0,5.768-2.598,5.768-5.768C56.664,186.313,54.068,183.72,50.896,183.72z"/>
	</g>
	<circle fill="#212121" cx="47.813" cy="163.064" r="8.851"/>
	<circle fill="#212121" cx="28.422" cy="189.488" r="8.851"/>
	<path fill="#212121" d="M125.084,160.55c-0.287,0-0.6-0.119-0.84-0.336c-0.24-0.266-0.361-0.553-0.361-0.863
		c0-0.313,0.145-0.623,0.361-0.865c0.457-0.434,1.249-0.434,1.703,0.025c0.217,0.217,0.338,0.527,0.338,0.84
		c0,0.311-0.121,0.598-0.338,0.838C125.709,160.431,125.396,160.55,125.084,160.55z"/>
	<path fill="#212121" d="M138.679,159.351c0-0.674,0.529-1.203,1.2-1.203l0,0c0.648,0,1.18,0.529,1.18,1.203l0,0
		c0,0.648-0.531,1.199-1.18,1.199l0,0C139.208,160.55,138.679,159.999,138.679,159.351z M131.282,159.351
		c0-0.674,0.526-1.203,1.2-1.203l0,0c0.648,0,1.201,0.529,1.201,1.203l0,0c0,0.648-0.553,1.199-1.201,1.199l0,0
		C131.809,160.55,131.282,159.999,131.282,159.351z"/>
	<path fill="#212121" d="M147.252,160.55c-0.311,0-0.598-0.119-0.838-0.336c-0.242-0.266-0.363-0.553-0.363-0.863
		c0-0.313,0.121-0.623,0.363-0.865c0.432-0.434,1.247-0.434,1.68,0c0.238,0.242,0.361,0.553,0.361,0.865
		c0,0.311-0.123,0.598-0.337,0.838C147.855,160.431,147.564,160.55,147.252,160.55z"/>
</g>
</svg>
