<?xml version="1.0" encoding="utf-8"?>
<!-- Generator: Adobe Illustrator 16.0.0, SVG Export Plug-In . SVG Version: 6.00 Build 0)  -->
<!DOCTYPE svg PUBLIC "-//W3C//DTD SVG 1.1//EN" "http://www.w3.org/Graphics/SVG/1.1/DTD/svg11.dtd">
<svg version="1.1" id="layer_1" xmlns="http://www.w3.org/2000/svg" xmlns:xlink="http://www.w3.org/1999/xlink" x="0px" y="0px"
	 width="214.975px" height="200px" viewBox="0 0 214.975 200" enable-background="new 0 0 214.975 200" xml:space="preserve">
<g>
	<rect y="24.512" fill="#EDF4F4" width="214.976" height="171.872"/>
	<linearGradient id="SVGID_1_" gradientUnits="userSpaceOnUse" x1="0" y1="198.1924" x2="214.9756" y2="198.1924">
		<stop  offset="0" style="stop-color:#9D1F60"/>
		<stop  offset="1" style="stop-color:#EC1E28"/>
	</linearGradient>
	<rect y="196.384" fill="url(#SVGID_1_)" width="214.976" height="3.616"/>
	<rect y="0" fill="#212121" width="214.976" height="24.976"/>
	<path fill="#EC1E28" d="M195.483,14.983c-0.654,0-1.303-0.249-1.754-0.724c-0.477-0.476-0.748-1.102-0.748-1.778
		c0-0.649,0.271-1.301,0.748-1.75c0.926-0.951,2.629-0.951,3.531,0c0.473,0.449,0.746,1.1,0.746,1.75
		c0,0.676-0.273,1.302-0.746,1.778C196.808,14.734,196.155,14.983,195.483,14.983z"/>
	<path fill="#FFDE00" d="M177.718,12.481c0-1.376,1.125-2.503,2.5-2.503l0,0c1.379,0,2.504,1.126,2.504,2.503l0,0
		c0,1.401-1.125,2.501-2.504,2.501l0,0C178.843,14.983,177.718,13.882,177.718,12.481z"/>
	<path fill="#349B1F" d="M164.931,14.983c-0.648,0-1.299-0.249-1.775-0.724c-0.449-0.476-0.727-1.102-0.727-1.778
		c0-0.649,0.277-1.301,0.752-1.776c0.928-0.925,2.604-0.925,3.527,0.026c0.475,0.449,0.727,1.1,0.727,1.75
		c0,0.676-0.252,1.302-0.727,1.778C166.231,14.734,165.608,14.983,164.931,14.983z"/>
	<path fill="#FFFFFF" d="M150.573,8.231H18.748c-1.367,0-2.484,1.118-2.484,2.483v3.549c0,1.365,1.117,2.482,2.484,2.482h131.825
		c1.367,0,2.482-1.118,2.482-2.482v-3.549C153.056,9.349,151.94,8.231,150.573,8.231z"/>
	<path fill="#212121" d="M96.076,126.432l41.265-41.262c8.111,1.966,17.012-0.189,23.344-6.521
		c6.984-6.986,8.893-17.104,5.775-25.829l-18.59,18.59l-11.957-2.982l-2.98-11.957l18.588-18.591
		c-8.725-3.117-18.842-1.209-25.83,5.778c-6.333,6.331-8.485,15.235-6.518,23.342l-41.266,41.264
		c-8.108-1.966-17.012,0.189-23.342,6.52c-6.986,6.988-8.895,17.104-5.777,25.83l18.592-18.591l11.956,2.983l2.982,11.955
		l-18.593,18.592c8.728,3.117,18.844,1.21,25.831-5.777C95.887,143.445,98.043,134.541,96.076,126.432z"/>
	
		<rect x="105.123" y="66.876" transform="matrix(0.7069 0.7073 -0.7073 0.7069 99.9503 -47.7761)" fill="#FFFFFF" width="5.001" height="59.68"/>
	
		<rect x="91.703" y="56.4" transform="matrix(0.7073 -0.7069 0.7069 0.7073 -31.7725 92.0956)" fill="#B6C0C0" width="7.235" height="56.027"/>
	<polygon fill="#212121" points="59.879,41.727 56.258,45.349 52.635,48.972 69.041,71.077 81.984,58.133 	"/>
	<linearGradient id="SVGID_2_" gradientUnits="userSpaceOnUse" x1="109.4004" y1="126.2681" x2="164.9512" y2="126.2681">
		<stop  offset="0" style="stop-color:#9D1F60"/>
		<stop  offset="1" style="stop-color:#EC1E28"/>
	</linearGradient>
	<path fill="url(#SVGID_2_)" d="M130.294,98.493L109.4,119.385l31.487,31.484c4.229,4.231,11.086,4.231,15.314,0l5.576-5.573
		c4.23-4.229,4.23-11.087,0-15.317L130.294,98.493z"/>
	<linearGradient id="SVGID_3_" gradientUnits="userSpaceOnUse" x1="107.5669" y1="108.022" x2="130.2939" y2="108.022">
		<stop  offset="0" style="stop-color:#9D1F60"/>
		<stop  offset="1" style="stop-color:#EC1E28"/>
	</linearGradient>
	<path fill="url(#SVGID_3_)" d="M121.868,96.751c-1.469-0.303-2.99,0.152-4.047,1.212l-4.477,4.475l-4.473,4.475
		c-1.062,1.06-1.515,2.581-1.212,4.048l1.741,8.424l10.446-10.447l10.448-10.445L121.868,96.751z"/>
	<g>
		<path fill="#FFFFFF" d="M122.143,116.244c-0.979-0.979-2.561-0.979-3.535,0c-0.98,0.977-0.98,2.561,0,3.537l28.26,28.264
			c0.488,0.49,1.131,0.734,1.771,0.734c0.639,0,1.277-0.244,1.768-0.734c0.977-0.977,0.977-2.561,0-3.537L122.143,116.244z"/>
		<path fill="#FFFFFF" d="M158.956,135.961l-28.266-28.264c-0.979-0.979-2.559-0.979-3.539,0c-0.975,0.978-0.975,2.56,0,3.537
			l28.264,28.264c0.49,0.489,1.129,0.734,1.77,0.734s1.279-0.245,1.771-0.734C159.931,138.521,159.931,136.939,158.956,135.961z"/>
	</g>
	<path fill="#FFFFFF" d="M168.14,169.078H47.105c-3.9,0-7.09,3.191-7.09,7.092s3.189,7.094,7.09,7.094H168.14
		c3.902,0,7.094-3.193,7.094-7.094S172.042,169.078,168.14,169.078z"/>
	<path fill="#BA1A32" d="M49.115,169.078l-6.592,12.453c1.242,1.065,2.83,1.732,4.582,1.732h84.585l7.51-14.186H49.115z"/>
	<polygon fill="#EC1E28" points="131.69,183.264 120.088,183.264 127.597,169.078 139.2,169.078 	"/>
	<polygon fill="#EC1E28" points="109.17,183.264 97.568,183.264 105.074,169.078 116.678,169.078 	"/>
	<polygon fill="#EC1E28" points="86.65,183.264 75.045,183.264 82.553,169.078 94.156,169.078 	"/>
	<polygon fill="#EC1E28" points="64.127,183.264 52.525,183.264 60.033,169.078 71.637,169.078 	"/>
	<path fill="#EC1E28" d="M47.105,169.078c-3.9,0-7.09,3.191-7.09,7.092c0,2.15,0.986,4.06,2.508,5.361l6.592-12.453H47.105z"/>
	<path fill="#212121" d="M168.14,185.141H47.105c-4.943,0-8.967-4.023-8.967-8.968c0-4.947,4.023-8.972,8.967-8.972H168.14
		c4.945,0,8.971,4.024,8.971,8.972C177.11,181.117,173.085,185.141,168.14,185.141z M47.105,170.954
		c-2.873,0-5.215,2.34-5.215,5.219c0,2.874,2.342,5.214,5.215,5.214H168.14c2.877,0,5.219-2.34,5.219-5.214
		c0-2.879-2.342-5.219-5.219-5.219H47.105z"/>
</g>
</svg>
