<?xml version="1.0" encoding="utf-8"?>
<!-- Generator: Adobe Illustrator 16.0.0, SVG Export Plug-In . SVG Version: 6.00 Build 0)  -->
<!DOCTYPE svg PUBLIC "-//W3C//DTD SVG 1.1//EN" "http://www.w3.org/Graphics/SVG/1.1/DTD/svg11.dtd">
<svg version="1.1" id="Layer_1" xmlns="http://www.w3.org/2000/svg" xmlns:xlink="http://www.w3.org/1999/xlink" x="0px" y="0px"
	 width="117.599px" height="172px" viewBox="0 0 117.599 172" enable-background="new 0 0 117.599 172" xml:space="preserve">
<g>
	<path fill="#FFDE00" d="M14.105,169c-0.607,0-1.218-0.184-1.742-0.559c-1.202-0.858-1.601-2.463-0.94-3.783l36.243-72.469H6
		c-1.213,0-2.308-0.73-2.771-1.852c-0.465-1.121-0.208-2.412,0.65-3.27L87.065,3.879C87.644,3.299,88.413,3,89.187,3
		c0.57,0,1.143,0.162,1.646,0.493c1.189,0.781,1.666,2.291,1.142,3.613L69.496,63.771h42.101c1.209,0,2.299,0.726,2.767,1.84
		s0.221,2.4-0.627,3.263l-97.49,99.229C15.664,168.695,14.887,169,14.105,169z"/>
	<path fill="#2F2F2F" d="M89.186,6L65.078,66.771h46.519L14.106,166L52.52,89.189H6L89.186,6 M111.596,66.771h0.005 M89.188,0
		c-1.549,0-3.085,0.599-4.245,1.758L1.757,84.947c-1.716,1.716-2.229,4.296-1.3,6.538S3.574,95.189,6,95.189h36.811L8.74,163.316
		c-1.321,2.641-0.523,5.851,1.879,7.566c1.051,0.75,2.271,1.117,3.485,1.117c1.563,0,3.117-0.609,4.282-1.795l97.419-99.157
		c1.106-1.089,1.794-2.603,1.794-4.277c0-3.313-2.685-6-5.998-6h-0.005H73.913L94.763,8.213c1.049-2.646,0.097-5.664-2.281-7.227
		C91.474,0.324,90.328,0,89.188,0L89.188,0z"/>
</g>
</svg>
