<?xml version="1.0" encoding="utf-8"?>
<!-- Generator: Adobe Illustrator 16.0.0, SVG Export Plug-In . SVG Version: 6.00 Build 0)  -->
<!DOCTYPE svg PUBLIC "-//W3C//DTD SVG 1.1//EN" "http://www.w3.org/Graphics/SVG/1.1/DTD/svg11.dtd">
<svg version="1.1" id="Layer_1" xmlns="http://www.w3.org/2000/svg" xmlns:xlink="http://www.w3.org/1999/xlink" x="0px" y="0px"
	 width="121.598px" height="176px" viewBox="0 0 121.598 176" enable-background="new 0 0 121.598 176" xml:space="preserve">
<g>
	<path fill="#FFDE00" d="M16.105,172c-0.809,0-1.623-0.245-2.323-0.745c-1.602-1.144-2.133-3.283-1.253-5.044l35.519-71.021H8.001
		c-1.618,0-3.076-0.975-3.695-2.47c-0.619-1.494-0.277-3.215,0.867-4.358L88.358,5.172C89.131,4.399,90.155,4,91.188,4
		c0.76,0,1.524,0.216,2.196,0.658c1.585,1.042,2.221,3.054,1.521,4.817L72.968,64.771h40.629c1.611,0,3.065,0.967,3.688,2.453
		c0.623,1.486,0.294,3.201-0.835,4.35l-97.49,99.23C18.183,171.594,17.147,172,16.105,172z"/>
	<path fill="#2F2F2F" d="M91.187,8L67.078,68.771h46.519L16.106,168l38.414-76.811H8.001L91.187,8 M113.597,68.771h0.005 M91.189,0
		c-2.065,0-4.114,0.797-5.66,2.343L2.344,85.533c-2.288,2.288-2.972,5.729-1.734,8.718s4.155,4.938,7.391,4.938h33.574
		L8.951,164.422c-1.761,3.521-0.698,7.801,2.506,10.089c1.4,0.999,3.028,1.489,4.647,1.489c2.085,0,4.156-0.813,5.709-2.394
		l97.408-99.146c1.469-1.451,2.379-3.464,2.379-5.69c0-4.418-3.58-8-7.998-8h-0.005H78.858l19.765-49.82
		c1.398-3.527,0.128-7.551-3.042-9.635C94.237,0.432,92.709,0,91.189,0L91.189,0z"/>
</g>
</svg>
