<?xml version="1.0" encoding="utf-8"?>
<!-- Generator: Adobe Illustrator 16.0.0, SVG Export Plug-In . SVG Version: 6.00 Build 0)  -->
<!DOCTYPE svg PUBLIC "-//W3C//DTD SVG 1.1//EN" "http://www.w3.org/Graphics/SVG/1.1/DTD/svg11.dtd">
<svg version="1.1" id="ICONS_1.0" xmlns="http://www.w3.org/2000/svg" xmlns:xlink="http://www.w3.org/1999/xlink" x="0px" y="0px"
	 width="64px" height="60px" viewBox="0 0 64 60" enable-background="new 0 0 64 60" xml:space="preserve">
<g id="_x30_8_x5F_funds_x5F_protection">
	<linearGradient id="SVGID_1_" gradientUnits="userSpaceOnUse" x1="0" y1="30" x2="64" y2="30">
		<stop  offset="0" style="stop-color:#9D1F60"/>
		<stop  offset="1" style="stop-color:#EC1E28"/>
	</linearGradient>
	<path fill="url(#SVGID_1_)" d="M64,29c0,7.168-5.832,13-13,13v-2c6.065,0,11-4.935,11-11c0-5.701-3.869-10-9-10h-1v-1
		c0-3.868-2.102-8-8-8h-1.589l-0.286-0.516C39.529,4.798,34.622,2,29,2c-8.271,0-15,6.729-15,15v1h-1C6.935,18,2,22.935,2,29
		s4.935,11,11,11v2C5.832,42,0,36.168,0,29c0-6.841,5.312-12.465,12.027-12.964C12.528,7.108,19.949,0,29,0
		c6.152,0,11.557,2.979,14.577,8H44c5.749,0,9.572,3.516,9.967,9.042C59.751,17.542,64,22.515,64,29z M29,8V6
		c-5.859,0-11,5.607-11,12h2C20,12.276,24.752,8,29,8z M50.281,38.731L46.97,41l3.312,2.269c0.322,0.222,0.487,0.611,0.42,0.997
		c-0.307,1.764-0.863,3.476-1.653,5.085c-0.172,0.351-0.543,0.574-0.925,0.559l-4.012-0.111l1.347,3.786
		c0.131,0.369,0.035,0.78-0.246,1.053c-1.292,1.253-2.743,2.312-4.315,3.146c-0.346,0.183-0.769,0.148-1.078-0.091l-3.192-2.456
		l-1.134,3.846c-0.11,0.376-0.431,0.652-0.818,0.708C33.667,59.934,32.817,60,32,60s-1.667-0.066-2.674-0.209
		c-0.388-0.055-0.708-0.332-0.818-0.708l-1.134-3.846l-3.192,2.456c-0.31,0.239-0.732,0.274-1.078,0.091
		c-1.572-0.834-3.023-1.893-4.315-3.146c-0.281-0.272-0.377-0.684-0.246-1.053l1.347-3.786l-4.012,0.111
		c-0.405,0.015-0.753-0.208-0.925-0.559c-0.79-1.61-1.347-3.321-1.653-5.085c-0.067-0.386,0.098-0.775,0.42-0.997L17.03,41
		l-3.312-2.269c-0.322-0.222-0.487-0.611-0.42-0.997c0.307-1.764,0.863-3.476,1.653-5.085c0.172-0.352,0.52-0.583,0.925-0.559
		l4.012,0.111l-1.347-3.786c-0.131-0.369-0.035-0.78,0.246-1.053c1.292-1.253,2.743-2.312,4.315-3.146
		c0.346-0.184,0.769-0.148,1.078,0.091l3.192,2.456l1.134-3.846c0.11-0.376,0.431-0.653,0.819-0.708c2.02-0.285,3.326-0.285,5.346,0
		c0.389,0.055,0.709,0.332,0.819,0.708l1.134,3.846l3.192-2.456c0.31-0.239,0.732-0.274,1.078-0.091
		c1.572,0.834,3.023,1.893,4.315,3.146c0.281,0.272,0.377,0.684,0.246,1.053l-1.347,3.786l4.012-0.111
		c0.382-0.024,0.753,0.208,0.925,0.559c0.79,1.61,1.347,3.321,1.653,5.085C50.769,38.121,50.604,38.51,50.281,38.731z
		 M48.609,37.452c-0.245-1.149-0.608-2.27-1.087-3.345l-4.815,0.133c-0.319,0.017-0.643-0.145-0.836-0.412
		c-0.194-0.267-0.244-0.612-0.134-0.923l1.616-4.544c-0.876-0.789-1.826-1.482-2.837-2.069l-3.828,2.945
		c-0.261,0.201-0.606,0.261-0.918,0.159c-0.314-0.102-0.558-0.352-0.65-0.668l-1.361-4.62c-1.287-0.146-2.23-0.146-3.518,0
		l-1.361,4.62c-0.093,0.316-0.336,0.566-0.65,0.668c-0.313,0.102-0.657,0.042-0.918-0.159l-3.828-2.945
		c-1.011,0.587-1.961,1.28-2.837,2.069l1.616,4.544c0.11,0.311,0.061,0.656-0.134,0.923c-0.193,0.267-0.504,0.429-0.836,0.412
		l-4.815-0.133c-0.479,1.075-0.842,2.195-1.087,3.345l3.975,2.723C19.637,40.361,19.8,40.67,19.8,41s-0.163,0.639-0.435,0.825
		l-3.975,2.723c0.245,1.149,0.608,2.27,1.087,3.345l4.815-0.133c0.332-0.012,0.643,0.146,0.836,0.412
		c0.194,0.267,0.244,0.612,0.134,0.923l-1.616,4.544c0.876,0.789,1.826,1.482,2.837,2.069l3.828-2.945
		c0.261-0.201,0.605-0.26,0.918-0.159c0.314,0.102,0.558,0.352,0.65,0.668l1.361,4.62c1.283,0.146,2.234,0.146,3.518,0l1.361-4.62
		c0.093-0.316,0.336-0.566,0.65-0.668c0.312-0.101,0.657-0.042,0.918,0.159l3.828,2.945c1.011-0.587,1.961-1.28,2.837-2.069
		l-1.616-4.544c-0.11-0.311-0.061-0.656,0.134-0.923c0.193-0.266,0.517-0.423,0.836-0.412l4.815,0.133
		c0.479-1.075,0.842-2.195,1.087-3.345l-3.975-2.723C44.363,41.639,44.2,41.33,44.2,41s0.163-0.639,0.435-0.825L48.609,37.452z
		 M42,41c0,5.514-4.486,10-10,10s-10-4.486-10-10s4.486-10,10-10S42,35.486,42,41z M40,41c0-4.411-3.589-8-8-8s-8,3.589-8,8
		s3.589,8,8,8S40,45.411,40,41z M38,41c0,3.309-2.691,6-6,6s-6-2.691-6-6s2.691-6,6-6S38,37.691,38,41z M36,41c0-2.206-1.794-4-4-4
		s-4,1.794-4,4s1.794,4,4,4S36,43.206,36,41z"/>
</g>
</svg>
