<?xml version="1.0" encoding="utf-8"?>
<!-- Generator: Adobe Illustrator 16.0.0, SVG Export Plug-In . SVG Version: 6.00 Build 0)  -->
<!DOCTYPE svg PUBLIC "-//W3C//DTD SVG 1.1//EN" "http://www.w3.org/Graphics/SVG/1.1/DTD/svg11.dtd">
<svg version="1.1" id="ICONS_1.0" xmlns="http://www.w3.org/2000/svg" xmlns:xlink="http://www.w3.org/1999/xlink" x="0px" y="0px"
	 width="64px" height="64px" viewBox="0 0 64 64" enable-background="new 0 0 64 64" xml:space="preserve">
<g id="_x30_8_x5F_funds_x5F_protection">
	<linearGradient id="SVGID_1_" gradientUnits="userSpaceOnUse" x1="0" y1="32" x2="64" y2="32">
		<stop  offset="0" style="stop-color:#9D1F60"/>
		<stop  offset="1" style="stop-color:#EC1E28"/>
	</linearGradient>
	<path fill="url(#SVGID_1_)" d="M15,4h-2V0h2V4z M19,0h-2v4h2V0z M23,0h-2v4h2V0z M27,0h-2v4h2V0z M31,0h-2v4h2V0z M35,0h-2v4h2V0z
		 M39,0h-2v4h2V0z M43,0h-2v4h2V0z M47,0h-2v4h2V0z M51,0h-2v4h2V0z M13,64h2v-4h-2V64z M17,64h2v-4h-2V64z M21,64h2v-4h-2V64z
		 M25,64h2v-4h-2V64z M29,64h2v-4h-2V64z M33,64h2v-4h-2V64z M37,64h2v-4h-2V64z M41,64h2v-4h-2V64z M45,64h2v-4h-2V64z M49,64h2v-4
		h-2V64z M60,13v2h4v-2H60z M60,19h4v-2h-4V19z M60,23h4v-2h-4V23z M60,27h4v-2h-4V27z M60,31h4v-2h-4V31z M60,35h4v-2h-4V35z
		 M60,39h4v-2h-4V39z M60,43h4v-2h-4V43z M60,47h4v-2h-4V47z M60,51h4v-2h-4V51z M0,15h4v-2H0V15z M0,19h4v-2H0V19z M0,23h4v-2H0V23
		z M0,27h4v-2H0V27z M0,31h4v-2H0V31z M0,35h4v-2H0V35z M0,39h4v-2H0V39z M0,43h4v-2H0V43z M0,47h4v-2H0V47z M0,51h4v-2H0V51z
		 M52,54h2v-2h-2V54z M58,9v46c0,1.654-1.346,3-3,3H9c-1.654,0-3-1.346-3-3V9c0-1.654,1.346-3,3-3h46C56.654,6,58,7.346,58,9z M56,9
		c0-0.551-0.449-1-1-1H9C8.449,8,8,8.449,8,9v46c0,0.551,0.449,1,1,1h46c0.551,0,1-0.449,1-1V9z M33,22h-2v2h2V22z M29,22h-2v2h2V22
		z M37,22h-2v2h2V22z M53,10H11c-0.552,0-1,0.448-1,1v42c0,0.552,0.448,1,1,1h39v-2H12V12h40v38h2V11C54,10.448,53.552,10,53,10z
		 M48,30H16V16h32V30z M46,18H18v10h28V18z M37,32H16v2h21V32z M16,38h13v-2H16V38z"/>
</g>
</svg>
