<?xml version="1.0" encoding="utf-8"?>
<!-- Generator: Adobe Illustrator 16.0.0, SVG Export Plug-In . SVG Version: 6.00 Build 0)  -->
<!DOCTYPE svg PUBLIC "-//W3C//DTD SVG 1.1//EN" "http://www.w3.org/Graphics/SVG/1.1/DTD/svg11.dtd">
<svg version="1.1" id="Layer_1" xmlns="http://www.w3.org/2000/svg" xmlns:xlink="http://www.w3.org/1999/xlink" x="0px" y="0px"
	 width="158px" height="158px" viewBox="0 0 158 158" enable-background="new 0 0 158 158" xml:space="preserve">
<g>
	<path fill="#FFFFFF" d="M79,150.502c-39.425,0-71.5-32.076-71.5-71.5C7.5,39.575,39.575,7.5,79,7.5
		c39.423,0,71.5,32.075,71.5,71.501C150.5,118.426,118.424,150.502,79,150.502z"/>
	<path fill="#2F2F2F" d="M79,15c35.289,0,64,28.711,64,64.001s-28.711,64-64,64c-35.291,0-64-28.711-64-64C15,43.711,43.71,15,79,15
		 M79,0C35.369,0,0,35.37,0,79.001c0,43.629,35.369,79,79,79c43.628,0,79-35.371,79-79C158,35.37,122.629,0,79,0L79,0z"/>
</g>
<g>
	<rect x="78.071" y="22.434" fill="#CBD5DA" width="2" height="10"/>
</g>
<g>
	
		<rect x="34.299" y="48.089" transform="matrix(-0.4891 0.8722 -0.8722 -0.4891 98.8693 48.2643)" fill="#CBD5DA" width="2.001" height="10"/>
</g>
<g>
	
		<rect x="52.705" y="29.32" transform="matrix(-0.8628 0.5055 -0.5055 -0.8628 117.3925 36.7847)" fill="#CBD5DA" width="2" height="10"/>
</g>
<g>
	
		<rect x="121.835" y="48.09" transform="matrix(0.4891 0.8722 -0.8722 0.4891 109.0667 -80.0164)" fill="#CBD5DA" width="2.001" height="10"/>
</g>
<g>
	
		<rect x="103.436" y="29.318" transform="matrix(0.8629 0.5054 -0.5054 0.8629 31.6629 -48.0754)" fill="#CBD5DA" width="2.001" height="10"/>
</g>
<g>
	<g>
		<path fill="#81BD3B" d="M29.738,81.623c0.074,0.152,0.191,0.252,0.379,0.252c0.791-0.002,1.582,0,2.373,0c0.063,0,0.125,0,0.221,0
			c-0.115,0.234-0.216,0.443-0.32,0.65c-0.189,0.379-0.385,0.756-0.572,1.135c-0.191,0.383,0.043,0.66,0.4,0.652
			c0.896-0.015,1.791-0.006,2.686-0.002c0.227,0.002,0.377-0.082,0.475-0.291c0.185-0.39,0.38-0.771,0.58-1.15l1.838,0.043
			c1.05,0.031,2.1,0.098,3.149,0.09c0.795-0.008,1.589-0.104,2.382-0.18c0.764-0.068,1.517-0.213,2.257-0.418
			c0.092-0.025,0.142-0.004,0.181,0.092c0.193,0.498,0.4,0.99,0.595,1.488c0.09,0.229,0.202,0.324,0.45,0.324
			c0.912,0,1.826-0.009,2.738,0.004c0.356,0.006,0.557-0.314,0.387-0.638c-0.33-0.623-0.639-1.256-0.956-1.883
			c-0.052-0.104-0.075-0.17,0.056-0.258c1.587-1.093,2.916-2.44,4.01-4.022l0.455-0.688c0.289-0.529,0.582-1.055,0.861-1.59
			c0.127-0.242,0.221-0.503,0.342-0.752c0.023-0.048,0.096-0.096,0.149-0.102c0.125-0.016,0.254-0.003,0.381-0.005
			c0.262-0.006,0.442-0.141,0.461-0.398c0.058-0.824-0.011-1.626-0.489-2.339c-0.387-0.577-0.945-0.892-1.611-1.027
			c-0.494-0.102-0.992-0.147-1.484,0.028c-0.557,0.196-0.957,0.574-1.166,1.115c-0.126,0.323-0.166,0.679-0.243,1.02
			c-0.167,0.734-0.336,1.469-0.495,2.206c-0.018,0.082,0,0.189,0.039,0.266c0.147,0.279,0.329,0.541,0.466,0.824
			c0.22,0.459,0.149,0.898-0.118,1.326c-0.934,1.496-2.209,2.598-3.799,3.352c-0.858,0.407-1.75,0.705-2.673,0.903
			c-1.747,0.379-3.518,0.498-5.301,0.404c-0.898-0.047-1.796-0.123-2.69-0.227c-0.743-0.086-1.481-0.221-2.217-0.359
			c-0.696-0.127-1.39-0.275-2.078-0.438c-0.336-0.08-0.592-0.293-0.762-0.604c-0.021-0.038-0.045-0.075-0.076-0.129
			c-0.393,0.297-0.77,0.578-1.14,0.863C29.734,81.26,29.672,81.49,29.738,81.623z M52.847,72.339
			c0.002-0.224,0.198-0.414,0.423-0.411c0.224,0.004,0.414,0.203,0.406,0.425c-0.009,0.229-0.184,0.398-0.412,0.397
			C53.028,72.75,52.846,72.569,52.847,72.339z"/>
		<path fill="#81BD3B" d="M43.448,80.936c-0.167,0.043-0.338,0.076-0.509,0.099c-1.031,0.131-2.064,0.233-3.105,0.18
			c-0.427,0-0.854,0.006-1.28-0.006c-0.068-0.002-0.159-0.063-0.197-0.125c-0.444-0.715-0.878-1.438-1.32-2.157
			c-0.064-0.105-0.073-0.193-0.021-0.303c0.41-0.828,0.818-1.656,1.231-2.484c0.026-0.051,0.091-0.105,0.146-0.117
			c0.304-0.063,0.611-0.115,0.918-0.164c0.717-0.119,1.434-0.232,2.149-0.348c0.37-0.061,0.738-0.127,1.108-0.182
			c0.059-0.007,0.143,0.014,0.183,0.055c0.666,0.658,1.328,1.32,1.985,1.986c0.036,0.037,0.053,0.127,0.034,0.178
			c-0.401,1.094-0.81,2.186-1.219,3.276C43.535,80.869,43.49,80.926,43.448,80.936z"/>
		<path fill="#81BD3B" d="M42.583,74.375c-0.044,0.061-0.13,0.109-0.204,0.125c-0.231,0.051-0.466,0.083-0.699,0.124
			c-0.539,0.093-1.078,0.187-1.618,0.278c-0.597,0.102-1.194,0.202-1.792,0.294c-0.079,0.012-0.184-0.008-0.25-0.053
			c-0.611-0.425-1.219-0.857-1.825-1.29c-0.222-0.158-0.439-0.323-0.677-0.497c1.457-1.109,3.077-1.75,4.864-1.954
			c1.364-0.155,2.714-0.056,4.043,0.362c-0.024,0.051-0.036,0.09-0.06,0.122C43.773,72.718,43.182,73.548,42.583,74.375z"/>
		<path fill="#81BD3B" d="M49.652,76.912c-0.659,0-1.318,0-1.977,0c-0.583,0-1.168-0.02-1.75,0.008
			c-0.333,0.016-0.565-0.082-0.795-0.326c-0.547-0.584-1.127-1.137-1.69-1.704c-0.054-0.054-0.146-0.094-0.061-0.211
			c0.599-0.826,1.192-1.656,1.78-2.49c0.078-0.112,0.15-0.115,0.255-0.067c0.985,0.447,1.882,1.026,2.664,1.776
			c0.765,0.732,1.388,1.57,1.874,2.512C50.107,76.71,49.986,76.912,49.652,76.912z"/>
		<path fill="#81BD3B" d="M37.396,75.996c-0.383,0.766-0.754,1.535-1.136,2.301c-0.03,0.061-0.111,0.121-0.178,0.133
			c-0.266,0.047-0.536,0.076-0.804,0.109c-0.961,0.119-1.922,0.238-2.882,0.361c-0.158,0.018-0.316,0.041-0.486,0.064
			c0.003-0.059-0.003-0.1,0.009-0.135c0.209-0.604,0.379-1.223,0.639-1.801c0.515-1.145,1.255-2.14,2.166-3.006
			c0.1-0.095,0.17-0.094,0.276-0.018c0.767,0.552,1.534,1.103,2.308,1.647C37.45,75.751,37.475,75.839,37.396,75.996z"/>
		<path fill="#81BD3B" d="M45.771,77.732c1.114,0.004,2.228,0.002,3.343,0.002c0.056,0,0.111,0.006,0.217,0.01
			c-0.63,0.787-1.354,1.391-2.182,1.875s-1.708,0.838-2.66,1.079c0.09-0.242,0.166-0.453,0.244-0.662
			c0.262-0.706,0.531-1.409,0.783-2.118C45.565,77.777,45.626,77.73,45.771,77.732z"/>
		<path fill="#81BD3B" d="M36.105,79.263c0.141-0.02,0.199,0.035,0.258,0.133c0.204,0.338,0.409,0.676,0.612,1.014
			c0.142,0.238,0.284,0.475,0.438,0.736c-0.498-0.062-0.963-0.109-1.426-0.17c-0.404-0.056-0.809-0.115-1.212-0.185
			c-0.494-0.086-0.987-0.174-1.478-0.274c-0.434-0.093-0.865-0.197-1.295-0.308c-0.17-0.043-0.25-0.19-0.23-0.396
			c0.371-0.047,0.731-0.088,1.092-0.133C33.945,79.544,35.025,79.41,36.105,79.263z"/>
	</g>
</g>
<path fill="#CBD5DA" d="M118.653,70.479h2.858c-3.75-19.125-20.586-33.56-40.809-33.56c-20.55,0-37.609,14.901-40.99,34.485
	c5.404-14.236,19.166-24.358,35.299-24.358c17.451,0,32.13,11.847,36.453,27.935h7.188V70.479z"/>
<polygon fill="#9D1F60" points="113.145,51.96 70.801,92.93 88.645,105.273 "/>
<polygon fill="#EC1E28" points="113.145,51.96 70.801,92.93 81.326,97.422 "/>
<g>
	<path fill="#FFFFFF" d="M78.713,110.057c-5.239,0-9.5-4.262-9.5-9.5c0-5.24,4.262-9.502,9.5-9.502c5.238,0,9.5,4.262,9.5,9.502
		C88.213,105.795,83.951,110.057,78.713,110.057z"/>
	<path fill="#2F2F2F" d="M78.713,92.555c4.41,0,8,3.59,8,8.002c0,4.41-3.59,8-8,8c-4.412,0-8-3.59-8-8
		C70.713,96.145,74.302,92.555,78.713,92.555 M78.713,89.555c-6.076,0-11,4.926-11,11.002c0,6.074,4.925,11,11,11
		c6.074,0,11-4.926,11-11C89.713,94.48,84.787,89.555,78.713,89.555L78.713,89.555z"/>
</g>
<polygon fill="#FFA000" points="126.994,62.801 117.613,62.801 109.766,78.261 117.496,78.261 113.396,91.029 126.525,73.459 
	119.965,73.459 "/>
<path opacity="0.07" fill="#2F2F2F" enable-background="new    " d="M79,0c43.628,0,79,35.37,79,79.001c0,43.629-35.371,79-79,79"/>
</svg>
