<?xml version="1.0" encoding="utf-8"?>
<!-- Generator: Adobe Illustrator 16.0.0, SVG Export Plug-In . SVG Version: 6.00 Build 0)  -->
<!DOCTYPE svg PUBLIC "-//W3C//DTD SVG 1.1//EN" "http://www.w3.org/Graphics/SVG/1.1/DTD/svg11.dtd">
<svg version="1.1" id="Layer_1" xmlns="http://www.w3.org/2000/svg" xmlns:xlink="http://www.w3.org/1999/xlink" x="0px" y="0px"
	 width="350px" height="273.265px" viewBox="0 0 350 273.265" enable-background="new 0 0 350 273.265" xml:space="preserve">
<g>
	<path fill-rule="evenodd" clip-rule="evenodd" fill="#616161" d="M7.63,0h334.74c4.197,0,7.629,3.438,7.629,7.63v258.005
		c0,4.191-3.438,7.63-7.629,7.63H7.63c-4.191,0-7.63-3.433-7.63-7.63V7.63C0,3.434,3.433,0,7.63,0z"/>
	<g>
		<path fill-rule="evenodd" clip-rule="evenodd" fill="#212121" d="M17.744,29.285h314.513c3.688,0,6.705,3.024,6.705,6.706v19.15
			c0,3.682-3.023,6.706-6.705,6.706H17.744c-3.682,0-6.706-3.018-6.706-6.706v-19.15C11.038,32.303,14.055,29.285,17.744,29.285z"/>
		<path fill-rule="evenodd" clip-rule="evenodd" fill="#43A047" d="M27.453,52.195c3.36,0,6.101-2.741,6.101-6.101
			c0-3.36-2.741-6.101-6.101-6.101c-3.36,0-6.101,2.741-6.101,6.101C21.352,49.454,24.093,52.195,27.453,52.195z"/>
		<path fill-rule="evenodd" clip-rule="evenodd" fill="#43A047" d="M43.325,52.195c3.36,0,6.101-2.741,6.101-6.101
			c0-3.36-2.74-6.101-6.101-6.101c-3.36,0-6.101,2.741-6.101,6.101C37.225,49.454,39.965,52.195,43.325,52.195z"/>
		<path fill-rule="evenodd" clip-rule="evenodd" fill="#43A047" d="M59.198,52.195c3.36,0,6.101-2.741,6.101-6.101
			c0-3.36-2.741-6.101-6.101-6.101c-3.36,0-6.101,2.741-6.101,6.101C53.097,49.454,55.837,52.195,59.198,52.195z"/>
		<path fill-rule="evenodd" clip-rule="evenodd" fill="#55ABDB" d="M306.858,52.195c3.359,0,6.102-2.741,6.102-6.101
			c0-3.36-2.742-6.101-6.102-6.101s-6.1,2.741-6.1,6.101C300.759,49.454,303.499,52.195,306.858,52.195z"/>
		<path fill-rule="evenodd" clip-rule="evenodd" fill="#55ABDB" d="M322.731,52.195c3.359,0,6.102-2.741,6.102-6.101
			c0-3.36-2.742-6.101-6.102-6.101s-6.102,2.741-6.102,6.101C316.63,49.454,319.372,52.195,322.731,52.195z"/>
		<rect x="73.255" y="37.423" fill-rule="evenodd" clip-rule="evenodd" fill="#424242" width="203.49" height="16.279"/>
		<g>
			<rect x="84.079" y="42.113" fill-rule="evenodd" clip-rule="evenodd" width="7.029" height="7.029"/>
			<rect x="95.733" y="42.113" fill-rule="evenodd" clip-rule="evenodd" width="7.028" height="7.029"/>
			<rect x="107.387" y="42.113" fill-rule="evenodd" clip-rule="evenodd" width="7.029" height="7.029"/>
			<rect x="119.042" y="42.113" fill-rule="evenodd" clip-rule="evenodd" width="7.029" height="7.029"/>
			<rect x="130.696" y="42.113" fill-rule="evenodd" clip-rule="evenodd" width="7.029" height="7.029"/>
			<rect x="142.35" y="42.113" fill-rule="evenodd" clip-rule="evenodd" width="7.029" height="7.029"/>
			<rect x="154.004" y="42.113" fill-rule="evenodd" clip-rule="evenodd" width="7.029" height="7.029"/>
			<rect x="165.658" y="42.113" fill-rule="evenodd" clip-rule="evenodd" width="7.029" height="7.029"/>
			<rect x="177.313" y="42.113" fill-rule="evenodd" clip-rule="evenodd" width="7.027" height="7.029"/>
			<rect x="188.968" y="42.113" fill-rule="evenodd" clip-rule="evenodd" width="7.027" height="7.029"/>
			<rect x="200.62" y="42.113" fill-rule="evenodd" clip-rule="evenodd" width="7.029" height="7.029"/>
			<rect x="212.274" y="42.113" fill-rule="evenodd" clip-rule="evenodd" width="7.029" height="7.029"/>
			<rect x="223.929" y="42.113" fill-rule="evenodd" clip-rule="evenodd" width="7.029" height="7.029"/>
			<rect x="235.583" y="42.113" fill-rule="evenodd" clip-rule="evenodd" width="7.029" height="7.029"/>
			<rect x="247.237" y="42.113" fill-rule="evenodd" clip-rule="evenodd" width="7.029" height="7.029"/>
			<rect x="258.892" y="42.113" fill-rule="evenodd" clip-rule="evenodd" width="7.029" height="7.029"/>
		</g>
		<path fill-rule="evenodd" clip-rule="evenodd" fill="#212121" d="M17.744,69.982h314.513c3.688,0,6.705,3.024,6.705,6.705v19.151
			c0,3.681-3.023,6.706-6.705,6.706H17.744c-3.682,0-6.706-3.018-6.706-6.706V76.688C11.038,73,14.055,69.982,17.744,69.982z"/>
		<path fill-rule="evenodd" clip-rule="evenodd" fill="#43A047" d="M27.453,92.892c3.36,0,6.101-2.74,6.101-6.101
			c0-3.36-2.741-6.101-6.101-6.101c-3.36,0-6.101,2.741-6.101,6.101C21.352,90.151,24.093,92.892,27.453,92.892z"/>
		<path fill-rule="evenodd" clip-rule="evenodd" fill="#43A047" d="M43.325,92.892c3.36,0,6.101-2.74,6.101-6.101
			c0-3.36-2.74-6.101-6.101-6.101c-3.36,0-6.101,2.741-6.101,6.101C37.225,90.151,39.965,92.892,43.325,92.892z"/>
		<path fill-rule="evenodd" clip-rule="evenodd" fill="#43A047" d="M59.198,92.892c3.36,0,6.101-2.74,6.101-6.101
			c0-3.36-2.741-6.101-6.101-6.101c-3.36,0-6.101,2.741-6.101,6.101C53.097,90.151,55.837,92.892,59.198,92.892z"/>
		<path fill-rule="evenodd" clip-rule="evenodd" fill="#55ABDB" d="M306.858,92.892c3.359,0,6.102-2.74,6.102-6.101
			c0-3.36-2.742-6.101-6.102-6.101s-6.1,2.741-6.1,6.101C300.759,90.151,303.499,92.892,306.858,92.892z"/>
		<path fill-rule="evenodd" clip-rule="evenodd" fill="#55ABDB" d="M322.731,92.892c3.359,0,6.102-2.74,6.102-6.101
			c0-3.36-2.742-6.101-6.102-6.101s-6.102,2.741-6.102,6.101C316.63,90.151,319.372,92.892,322.731,92.892z"/>
		<rect x="73.255" y="78.121" fill-rule="evenodd" clip-rule="evenodd" fill="#424242" width="203.49" height="16.279"/>
		<g>
			<rect x="84.079" y="82.81" fill-rule="evenodd" clip-rule="evenodd" width="7.029" height="7.029"/>
			<rect x="95.733" y="82.81" fill-rule="evenodd" clip-rule="evenodd" width="7.028" height="7.029"/>
			<rect x="107.387" y="82.81" fill-rule="evenodd" clip-rule="evenodd" width="7.029" height="7.029"/>
			<rect x="119.042" y="82.81" fill-rule="evenodd" clip-rule="evenodd" width="7.029" height="7.029"/>
			<rect x="130.696" y="82.81" fill-rule="evenodd" clip-rule="evenodd" width="7.029" height="7.029"/>
			<rect x="142.35" y="82.81" fill-rule="evenodd" clip-rule="evenodd" width="7.029" height="7.029"/>
			<rect x="154.004" y="82.81" fill-rule="evenodd" clip-rule="evenodd" width="7.029" height="7.029"/>
			<rect x="165.658" y="82.81" fill-rule="evenodd" clip-rule="evenodd" width="7.029" height="7.029"/>
			<rect x="177.313" y="82.81" fill-rule="evenodd" clip-rule="evenodd" width="7.027" height="7.029"/>
			<rect x="188.968" y="82.81" fill-rule="evenodd" clip-rule="evenodd" width="7.027" height="7.029"/>
			<rect x="200.62" y="82.81" fill-rule="evenodd" clip-rule="evenodd" width="7.029" height="7.029"/>
			<rect x="212.274" y="82.81" fill-rule="evenodd" clip-rule="evenodd" width="7.029" height="7.029"/>
			<rect x="223.929" y="82.81" fill-rule="evenodd" clip-rule="evenodd" width="7.029" height="7.029"/>
			<rect x="235.583" y="82.81" fill-rule="evenodd" clip-rule="evenodd" width="7.029" height="7.029"/>
			<rect x="247.237" y="82.81" fill-rule="evenodd" clip-rule="evenodd" width="7.029" height="7.029"/>
			<rect x="258.892" y="82.81" fill-rule="evenodd" clip-rule="evenodd" width="7.029" height="7.029"/>
		</g>
		<path fill-rule="evenodd" clip-rule="evenodd" fill="#212121" d="M17.744,110.679h314.513c3.688,0,6.705,3.024,6.705,6.705v19.151
			c0,3.682-3.023,6.705-6.705,6.705H17.744c-3.682,0-6.706-3.018-6.706-6.705v-19.151C11.038,113.697,14.055,110.679,17.744,110.679
			z"/>
		<path fill-rule="evenodd" clip-rule="evenodd" fill="#43A047" d="M27.453,133.588c3.36,0,6.101-2.74,6.101-6.101
			c0-3.36-2.741-6.101-6.101-6.101c-3.36,0-6.101,2.741-6.101,6.101C21.352,130.848,24.093,133.588,27.453,133.588z"/>
		<path fill-rule="evenodd" clip-rule="evenodd" fill="#43A047" d="M43.325,133.588c3.36,0,6.101-2.74,6.101-6.101
			c0-3.36-2.74-6.101-6.101-6.101c-3.36,0-6.101,2.741-6.101,6.101C37.225,130.848,39.965,133.588,43.325,133.588z"/>
		<path fill-rule="evenodd" clip-rule="evenodd" fill="#43A047" d="M59.198,133.588c3.36,0,6.101-2.74,6.101-6.101
			c0-3.36-2.741-6.101-6.101-6.101c-3.36,0-6.101,2.741-6.101,6.101C53.097,130.848,55.837,133.588,59.198,133.588z"/>
		<path fill-rule="evenodd" clip-rule="evenodd" fill="#55ABDB" d="M306.858,133.588c3.359,0,6.102-2.74,6.102-6.101
			c0-3.36-2.742-6.101-6.102-6.101s-6.1,2.741-6.1,6.101C300.759,130.848,303.499,133.588,306.858,133.588z"/>
		<path fill-rule="evenodd" clip-rule="evenodd" fill="#55ABDB" d="M322.731,133.588c3.359,0,6.102-2.74,6.102-6.101
			c0-3.36-2.742-6.101-6.102-6.101s-6.102,2.741-6.102,6.101C316.63,130.848,319.372,133.588,322.731,133.588z"/>
		<rect x="73.255" y="118.817" fill-rule="evenodd" clip-rule="evenodd" fill="#424242" width="203.49" height="16.279"/>
		<g>
			<rect x="84.079" y="123.506" fill-rule="evenodd" clip-rule="evenodd" width="7.029" height="7.029"/>
			<rect x="95.733" y="123.506" fill-rule="evenodd" clip-rule="evenodd" width="7.028" height="7.029"/>
			<rect x="107.387" y="123.506" fill-rule="evenodd" clip-rule="evenodd" width="7.029" height="7.029"/>
			<rect x="119.042" y="123.506" fill-rule="evenodd" clip-rule="evenodd" width="7.029" height="7.029"/>
			<rect x="130.696" y="123.506" fill-rule="evenodd" clip-rule="evenodd" width="7.029" height="7.029"/>
			<rect x="142.35" y="123.506" fill-rule="evenodd" clip-rule="evenodd" width="7.029" height="7.029"/>
			<rect x="154.004" y="123.506" fill-rule="evenodd" clip-rule="evenodd" width="7.029" height="7.029"/>
			<rect x="165.658" y="123.506" fill-rule="evenodd" clip-rule="evenodd" width="7.029" height="7.029"/>
			<rect x="177.313" y="123.506" fill-rule="evenodd" clip-rule="evenodd" width="7.027" height="7.029"/>
			<rect x="188.968" y="123.506" fill-rule="evenodd" clip-rule="evenodd" width="7.027" height="7.029"/>
			<rect x="200.62" y="123.506" fill-rule="evenodd" clip-rule="evenodd" width="7.029" height="7.029"/>
			<rect x="212.274" y="123.506" fill-rule="evenodd" clip-rule="evenodd" width="7.029" height="7.029"/>
			<rect x="223.929" y="123.506" fill-rule="evenodd" clip-rule="evenodd" width="7.029" height="7.029"/>
			<rect x="235.583" y="123.506" fill-rule="evenodd" clip-rule="evenodd" width="7.029" height="7.029"/>
			<rect x="247.237" y="123.506" fill-rule="evenodd" clip-rule="evenodd" width="7.029" height="7.029"/>
			<rect x="258.892" y="123.506" fill-rule="evenodd" clip-rule="evenodd" width="7.029" height="7.029"/>
		</g>
		<path fill-rule="evenodd" clip-rule="evenodd" fill="#212121" d="M17.744,151.375h314.513c3.688,0,6.705,3.025,6.705,6.706v19.15
			c0,3.682-3.023,6.705-6.705,6.705H17.744c-3.682,0-6.706-3.017-6.706-6.705v-19.15C11.038,154.393,14.055,151.375,17.744,151.375z
			"/>
		<path fill-rule="evenodd" clip-rule="evenodd" fill="#43A047" d="M27.453,174.286c3.36,0,6.101-2.74,6.101-6.102
			c0-3.359-2.741-6.1-6.101-6.1c-3.36,0-6.101,2.74-6.101,6.1C21.352,171.545,24.093,174.286,27.453,174.286z"/>
		<path fill-rule="evenodd" clip-rule="evenodd" fill="#43A047" d="M43.325,174.286c3.36,0,6.101-2.74,6.101-6.102
			c0-3.359-2.74-6.1-6.101-6.1c-3.36,0-6.101,2.74-6.101,6.1C37.225,171.545,39.965,174.286,43.325,174.286z"/>
		<path fill-rule="evenodd" clip-rule="evenodd" fill="#43A047" d="M59.198,174.286c3.36,0,6.101-2.74,6.101-6.102
			c0-3.359-2.741-6.1-6.101-6.1c-3.36,0-6.101,2.74-6.101,6.1C53.097,171.545,55.837,174.286,59.198,174.286z"/>
		<path fill-rule="evenodd" clip-rule="evenodd" fill="#55ABDB" d="M306.858,174.286c3.359,0,6.102-2.74,6.102-6.102
			c0-3.359-2.742-6.1-6.102-6.1s-6.1,2.74-6.1,6.1C300.759,171.545,303.499,174.286,306.858,174.286z"/>
		<path fill-rule="evenodd" clip-rule="evenodd" fill="#55ABDB" d="M322.731,174.286c3.359,0,6.102-2.74,6.102-6.102
			c0-3.359-2.742-6.1-6.102-6.1s-6.102,2.74-6.102,6.1C316.63,171.545,319.372,174.286,322.731,174.286z"/>
		<rect x="73.255" y="159.514" fill-rule="evenodd" clip-rule="evenodd" fill="#424242" width="203.49" height="16.279"/>
		<g>
			<rect x="84.079" y="164.204" fill-rule="evenodd" clip-rule="evenodd" width="7.029" height="7.029"/>
			<rect x="95.733" y="164.204" fill-rule="evenodd" clip-rule="evenodd" width="7.028" height="7.029"/>
			<rect x="107.387" y="164.204" fill-rule="evenodd" clip-rule="evenodd" width="7.029" height="7.029"/>
			<rect x="119.042" y="164.204" fill-rule="evenodd" clip-rule="evenodd" width="7.029" height="7.029"/>
			<rect x="130.696" y="164.204" fill-rule="evenodd" clip-rule="evenodd" width="7.029" height="7.029"/>
			<rect x="142.35" y="164.204" fill-rule="evenodd" clip-rule="evenodd" width="7.029" height="7.029"/>
			<rect x="154.004" y="164.204" fill-rule="evenodd" clip-rule="evenodd" width="7.029" height="7.029"/>
			<rect x="165.658" y="164.204" fill-rule="evenodd" clip-rule="evenodd" width="7.029" height="7.029"/>
			<rect x="177.313" y="164.204" fill-rule="evenodd" clip-rule="evenodd" width="7.027" height="7.029"/>
			<rect x="188.968" y="164.204" fill-rule="evenodd" clip-rule="evenodd" width="7.027" height="7.029"/>
			<rect x="200.62" y="164.204" fill-rule="evenodd" clip-rule="evenodd" width="7.029" height="7.029"/>
			<rect x="212.274" y="164.204" fill-rule="evenodd" clip-rule="evenodd" width="7.029" height="7.029"/>
			<rect x="223.929" y="164.204" fill-rule="evenodd" clip-rule="evenodd" width="7.029" height="7.029"/>
			<rect x="235.583" y="164.204" fill-rule="evenodd" clip-rule="evenodd" width="7.029" height="7.029"/>
			<rect x="247.237" y="164.204" fill-rule="evenodd" clip-rule="evenodd" width="7.029" height="7.029"/>
			<rect x="258.892" y="164.204" fill-rule="evenodd" clip-rule="evenodd" width="7.029" height="7.029"/>
		</g>
		<path fill-rule="evenodd" clip-rule="evenodd" fill="#212121" d="M17.744,192.074h314.513c3.688,0,6.705,3.022,6.705,6.704v19.151
			c0,3.681-3.023,6.705-6.705,6.705H17.744c-3.682,0-6.706-3.017-6.706-6.705v-19.151C11.038,195.09,14.055,192.074,17.744,192.074z
			"/>
		<path fill-rule="evenodd" clip-rule="evenodd" fill="#43A047" d="M27.453,214.982c3.36,0,6.101-2.74,6.101-6.102
			c0-3.359-2.741-6.1-6.101-6.1c-3.36,0-6.101,2.74-6.101,6.1C21.352,212.242,24.093,214.982,27.453,214.982z"/>
		<path fill-rule="evenodd" clip-rule="evenodd" fill="#43A047" d="M43.325,214.982c3.36,0,6.101-2.74,6.101-6.102
			c0-3.359-2.74-6.1-6.101-6.1c-3.36,0-6.101,2.74-6.101,6.1C37.225,212.242,39.965,214.982,43.325,214.982z"/>
		<path fill-rule="evenodd" clip-rule="evenodd" fill="#43A047" d="M59.198,214.982c3.36,0,6.101-2.74,6.101-6.102
			c0-3.359-2.741-6.1-6.101-6.1c-3.36,0-6.101,2.74-6.101,6.1C53.097,212.242,55.837,214.982,59.198,214.982z"/>
		<path fill-rule="evenodd" clip-rule="evenodd" fill="#55ABDB" d="M306.858,214.982c3.359,0,6.102-2.74,6.102-6.102
			c0-3.359-2.742-6.1-6.102-6.1s-6.1,2.74-6.1,6.1C300.759,212.242,303.499,214.982,306.858,214.982z"/>
		<path fill-rule="evenodd" clip-rule="evenodd" fill="#55ABDB" d="M322.731,214.982c3.359,0,6.102-2.74,6.102-6.102
			c0-3.359-2.742-6.1-6.102-6.1s-6.102,2.74-6.102,6.1C316.63,212.242,319.372,214.982,322.731,214.982z"/>
		<rect x="73.255" y="200.211" fill-rule="evenodd" clip-rule="evenodd" fill="#424242" width="203.49" height="16.278"/>
		<g>
			<rect x="84.079" y="204.9" fill-rule="evenodd" clip-rule="evenodd" width="7.029" height="7.03"/>
			<rect x="95.733" y="204.9" fill-rule="evenodd" clip-rule="evenodd" width="7.028" height="7.03"/>
			<rect x="107.387" y="204.9" fill-rule="evenodd" clip-rule="evenodd" width="7.029" height="7.03"/>
			<rect x="119.042" y="204.9" fill-rule="evenodd" clip-rule="evenodd" width="7.029" height="7.03"/>
			<rect x="130.696" y="204.9" fill-rule="evenodd" clip-rule="evenodd" width="7.029" height="7.03"/>
			<rect x="142.35" y="204.9" fill-rule="evenodd" clip-rule="evenodd" width="7.029" height="7.03"/>
			<rect x="154.004" y="204.9" fill-rule="evenodd" clip-rule="evenodd" width="7.029" height="7.03"/>
			<rect x="165.658" y="204.9" fill-rule="evenodd" clip-rule="evenodd" width="7.029" height="7.03"/>
			<rect x="177.313" y="204.9" fill-rule="evenodd" clip-rule="evenodd" width="7.027" height="7.03"/>
			<rect x="188.968" y="204.9" fill-rule="evenodd" clip-rule="evenodd" width="7.027" height="7.03"/>
			<rect x="200.62" y="204.9" fill-rule="evenodd" clip-rule="evenodd" width="7.029" height="7.03"/>
			<rect x="212.274" y="204.9" fill-rule="evenodd" clip-rule="evenodd" width="7.029" height="7.03"/>
			<rect x="223.929" y="204.9" fill-rule="evenodd" clip-rule="evenodd" width="7.029" height="7.03"/>
			<rect x="235.583" y="204.9" fill-rule="evenodd" clip-rule="evenodd" width="7.029" height="7.03"/>
			<rect x="247.237" y="204.9" fill-rule="evenodd" clip-rule="evenodd" width="7.029" height="7.03"/>
			<rect x="258.892" y="204.9" fill-rule="evenodd" clip-rule="evenodd" width="7.029" height="7.03"/>
		</g>
		<path fill-rule="evenodd" clip-rule="evenodd" fill="#212121" d="M17.744,232.77h314.513c3.688,0,6.705,3.024,6.705,6.705v19.151
			c0,3.682-3.023,6.704-6.705,6.704H17.744c-3.682,0-6.706-3.017-6.706-6.704v-19.151C11.038,235.788,14.055,232.77,17.744,232.77z"
			/>
		<path fill-rule="evenodd" clip-rule="evenodd" fill="#43A047" d="M27.453,255.678c3.36,0,6.101-2.739,6.101-6.101
			c0-3.36-2.741-6.1-6.101-6.1c-3.36,0-6.101,2.739-6.101,6.1C21.352,252.939,24.093,255.678,27.453,255.678z"/>
		<path fill-rule="evenodd" clip-rule="evenodd" fill="#43A047" d="M43.325,255.678c3.36,0,6.101-2.739,6.101-6.101
			c0-3.36-2.74-6.1-6.101-6.1c-3.36,0-6.101,2.739-6.101,6.1C37.225,252.939,39.965,255.678,43.325,255.678z"/>
		<path fill-rule="evenodd" clip-rule="evenodd" fill="#43A047" d="M59.198,255.678c3.36,0,6.101-2.739,6.101-6.101
			c0-3.36-2.741-6.1-6.101-6.1c-3.36,0-6.101,2.739-6.101,6.1C53.097,252.939,55.837,255.678,59.198,255.678z"/>
		<path fill-rule="evenodd" clip-rule="evenodd" fill="#55ABDB" d="M306.858,255.678c3.359,0,6.102-2.739,6.102-6.101
			c0-3.36-2.742-6.1-6.102-6.1s-6.1,2.739-6.1,6.1C300.759,252.939,303.499,255.678,306.858,255.678z"/>
		<path fill-rule="evenodd" clip-rule="evenodd" fill="#55ABDB" d="M322.731,255.678c3.359,0,6.102-2.739,6.102-6.101
			c0-3.36-2.742-6.1-6.102-6.1s-6.102,2.739-6.102,6.1C316.63,252.939,319.372,255.678,322.731,255.678z"/>
		<rect x="73.255" y="240.908" fill-rule="evenodd" clip-rule="evenodd" fill="#424242" width="203.49" height="16.279"/>
		<g>
			<rect x="84.079" y="245.597" fill-rule="evenodd" clip-rule="evenodd" width="7.029" height="7.029"/>
			<rect x="95.733" y="245.597" fill-rule="evenodd" clip-rule="evenodd" width="7.028" height="7.029"/>
			<rect x="107.387" y="245.597" fill-rule="evenodd" clip-rule="evenodd" width="7.029" height="7.029"/>
			<rect x="119.042" y="245.597" fill-rule="evenodd" clip-rule="evenodd" width="7.029" height="7.029"/>
			<rect x="130.696" y="245.597" fill-rule="evenodd" clip-rule="evenodd" width="7.029" height="7.029"/>
			<rect x="142.35" y="245.597" fill-rule="evenodd" clip-rule="evenodd" width="7.029" height="7.029"/>
			<rect x="154.004" y="245.597" fill-rule="evenodd" clip-rule="evenodd" width="7.029" height="7.029"/>
			<rect x="165.658" y="245.597" fill-rule="evenodd" clip-rule="evenodd" width="7.029" height="7.029"/>
			<rect x="177.313" y="245.597" fill-rule="evenodd" clip-rule="evenodd" width="7.027" height="7.029"/>
			<rect x="188.968" y="245.597" fill-rule="evenodd" clip-rule="evenodd" width="7.027" height="7.029"/>
			<rect x="200.62" y="245.597" fill-rule="evenodd" clip-rule="evenodd" width="7.029" height="7.029"/>
			<rect x="212.274" y="245.597" fill-rule="evenodd" clip-rule="evenodd" width="7.029" height="7.029"/>
			<rect x="223.929" y="245.597" fill-rule="evenodd" clip-rule="evenodd" width="7.029" height="7.029"/>
			<rect x="235.583" y="245.597" fill-rule="evenodd" clip-rule="evenodd" width="7.029" height="7.029"/>
			<rect x="247.237" y="245.597" fill-rule="evenodd" clip-rule="evenodd" width="7.029" height="7.029"/>
			<rect x="258.892" y="245.597" fill-rule="evenodd" clip-rule="evenodd" width="7.029" height="7.029"/>
		</g>
	</g>
	<g>
		<g>
			<path fill-rule="evenodd" clip-rule="evenodd" fill="#757575" d="M325.177,22.161c3.994,0,7.254-3.258,7.254-7.252
				c0-3.995-3.26-7.253-7.254-7.253c-3.996,0-7.252,3.258-7.252,7.253C317.925,18.903,321.181,22.161,325.177,22.161z"/>
			<path fill-rule="evenodd" clip-rule="evenodd" fill="#424242" d="M325.177,19.519c2.539,0,4.611-2.071,4.611-4.61
				c0-2.54-2.072-4.611-4.611-4.611s-4.609,2.071-4.609,4.611C320.567,17.447,322.638,19.519,325.177,19.519z"/>
		</g>
		<g>
			<path fill-rule="evenodd" clip-rule="evenodd" fill="#757575" d="M24.824,22.161c3.995,0,7.252-3.258,7.252-7.252
				c0-3.995-3.257-7.253-7.252-7.253c-3.995,0-7.253,3.258-7.253,7.253C17.57,18.903,20.829,22.161,24.824,22.161z"/>
			<path fill-rule="evenodd" clip-rule="evenodd" fill="#424242" d="M24.824,19.519c2.539,0,4.61-2.071,4.61-4.61
				c0-2.54-2.071-4.611-4.61-4.611c-2.54,0-4.611,2.071-4.611,4.611C20.213,17.447,22.284,19.519,24.824,19.519z"/>
		</g>
	</g>
</g>
</svg>
