<?xml version="1.0" encoding="utf-8"?>
<!-- Generator: Adobe Illustrator 16.0.0, SVG Export Plug-In . SVG Version: 6.00 Build 0)  -->
<!DOCTYPE svg PUBLIC "-//W3C//DTD SVG 1.1//EN" "http://www.w3.org/Graphics/SVG/1.1/DTD/svg11.dtd">
<svg version="1.1" id="Layer_1" xmlns="http://www.w3.org/2000/svg" xmlns:xlink="http://www.w3.org/1999/xlink" x="0px" y="0px"
	 width="115px" height="115px" viewBox="0 0 115 115" enable-background="new 0 0 115 115" xml:space="preserve">
<g>
	<defs>
		<path id="SVGID_1_" d="M43.478,74.934h24.946c0.379,2.07,0.916,4.131,1.479,6H41.998C42.561,79.064,43.098,77.004,43.478,74.934
			 M15.95,60.936h8.86l6.071,6.072l2.068-2.07v4.498c0,0.238,0.018,0.477,0.051,0.719c-0.166,3.068-1.315,7.213-2.589,10.779
			c-3.016,0.021-5.461,2.48-5.461,5.502v0.498H15.95V60.936z M87.092,60.936h7.857v25.998h-9v-0.498
			c0-2.668-1.906-4.896-4.424-5.398c-1.406-3.902-2.656-8.471-2.656-11.602c0-1.113-0.332-2.168-0.92-3.049v-2.449l3.07,3.07
			L87.092,60.936z M44.331,28.934h23.237c-0.75,1.92-1.426,3.96-1.902,6.001H46.234C45.76,32.894,45.082,30.854,44.331,28.934
			 M15.95,28.934h14.999v-1.045c0.36,0.255,0.748,0.472,1.155,0.638c1.161,2.33,2.313,5.031,3.044,7.51
			c-1.335,1.006-2.198,2.603-2.198,4.397v3.594l-2.068-2.069l-7.777,7.778l0.197,0.197H15.95V28.934z M77.949,40.434
			c0-1.406-0.527-2.69-1.402-3.666c0.709-2.667,1.973-5.678,3.252-8.241c0.408-0.166,0.793-0.383,1.152-0.641v1.048h13.998v21H88.6
			l0.197-0.197l-7.777-7.778l-3.07,3.067V40.434z M54.951,17.435v-0.5h0.997v0.5c0,0.169,0.009,0.334,0.023,0.5h-1.043
			C54.942,17.769,54.951,17.604,54.951,17.435 M70.451,5.933c-1.857,0-3.504,0.928-4.502,2.342c-0.994-1.414-2.641-2.342-4.5-2.342
			H49.45c-1.857,0-3.505,0.928-4.5,2.342c-0.995-1.414-2.643-2.342-4.5-2.342H30.449c-3.033,0-5.498,2.468-5.498,5.501v6.501H10.45
			c-3.033,0-5.501,2.465-5.501,5.499v69c0,3.033,2.468,5.5,5.501,5.5h11.499v3.5c0,3.033,2.468,5.502,5.5,5.502h56.002
			c3.031,0,5.5-2.469,5.5-5.502v-3.5h11.498c3.033,0,5.502-2.467,5.502-5.5v-69c0-3.034-2.469-5.499-5.502-5.499h-14.5v-6.501
			c0-3.033-2.465-5.501-5.498-5.501H70.451z"/>
	</defs>
	<clipPath id="SVGID_2_">
		<use xlink:href="#SVGID_1_"  overflow="visible"/>
	</clipPath>
	
		<linearGradient id="SVGID_3_" gradientUnits="userSpaceOnUse" x1="-597.9546" y1="5657.9316" x2="-596.9546" y2="5657.9316" gradientTransform="matrix(0 -101 -101 0 571506.625 -60286.5)">
		<stop  offset="0" style="stop-color:#5D57A5"/>
		<stop  offset="1" style="stop-color:#811B56"/>
	</linearGradient>
	<rect x="4.949" y="5.934" clip-path="url(#SVGID_2_)" fill="url(#SVGID_3_)" width="101.002" height="101.002"/>
</g>
<g>
	<defs>
		<rect id="SVGID_4_" x="-686.226" y="-4941.566" width="1300.001" height="11200"/>
	</defs>
	<clipPath id="SVGID_5_">
		<use xlink:href="#SVGID_4_"  overflow="visible"/>
	</clipPath>
	<path clip-path="url(#SVGID_5_)" fill="#FFFFFF" d="M80.451,9.934c0.828,0,1.5,0.671,1.5,1.5v8.21c0,0.314-0.1,0.621-0.283,0.876
		l-2.727,3.79c-0.281,0.392-0.734,0.624-1.217,0.624h-0.566c-1.172,2.162-4.512,8.711-5.096,14h0.389c0.828,0,1.5,0.671,1.5,1.5v6
		c0,0.829-0.672,1.5-1.5,1.5h-2.5v14h2.5c0.828,0,1.5,0.672,1.5,1.5v4.617c0.539,0.227,0.918,0.76,0.918,1.383
		c0,5.438,2.828,12.945,3.859,15.5h1.723c0.828,0,1.5,0.672,1.5,1.5v4.5h1.5c0.828,0,1.5,0.672,1.5,1.5v9c0,0.83-0.672,1.5-1.5,1.5
		H27.45c-0.829,0-1.5-0.67-1.5-1.5v-9c0-0.828,0.671-1.5,1.5-1.5h1.5v-4.5c0-0.828,0.671-1.5,1.5-1.5h2.723
		c1.004-2.492,3.708-9.693,3.842-15.086c-0.037-0.131-0.064-0.27-0.064-0.414v-6c0-0.828,0.671-1.5,1.5-1.5h2.5v-14h-2.5
		c-0.829,0-1.5-0.671-1.5-1.5v-6c0-0.829,0.671-1.5,1.5-1.5h1.389c-0.584-5.295-3.924-11.84-5.096-14h-0.567
		c-0.402,0-0.788-0.162-1.069-0.448l-3.727-3.79c-0.275-0.281-0.43-0.658-0.43-1.052v-8.21c0-0.829,0.671-1.5,1.5-1.5h10
		c0.829,0,1.5,0.671,1.5,1.5v4.5h6v-4.5c0-0.829,0.671-1.5,1.5-1.5h12.001c0.828,0,1.5,0.671,1.5,1.5v4.5h6v-4.5
		c0-0.829,0.67-1.5,1.5-1.5H80.451 M61.451,18.934c-0.83,0-1.5-0.671-1.5-1.5v-4.5H50.95v4.5c0,0.829-0.671,1.5-1.5,1.5h-9
		c-0.829,0-1.5-0.671-1.5-1.5v-4.5h-7v6.096l2.854,2.904h0.823h40.646h0.682l1.996-2.773v-6.227h-7v4.5c0,0.829-0.672,1.5-1.5,1.5
		H61.451 M42.86,38.934h26.181c0.475-5.026,3.127-10.866,4.723-14H38.137C39.733,28.068,42.386,33.908,42.86,38.934 M39.95,44.934
		h2.5h26.001h2.5v-3h-0.484H41.435H39.95V44.934 M43.95,61.934h23.001v-14H43.95V61.934z M39.95,67.934h31.001v-3h-2.5H42.45h-2.5
		V67.934 M36.401,84.934H75.5c-1.182-3.072-3.211-8.959-3.574-14H39.975C39.612,75.975,37.583,81.861,36.401,84.934 M31.95,90.934
		h47.001v-3h-1.227H34.176H31.95V90.934 M28.95,99.934h53.001v-6h-1.5H30.45h-1.5V99.934 M100.451,21.934c0.828,0,1.5,0.671,1.5,1.5
		v69c0,0.83-0.672,1.5-1.5,1.5h-12.5v-3h11v-66h-14v-3H100.451 M26.95,21.934v3h-15v66h12v3h-13.5c-0.829,0-1.5-0.67-1.5-1.5v-69
		c0-0.829,0.671-1.5,1.5-1.5H26.95 M81.02,47.616l2.121,2.121l-4.197,4.197h18.008v3H80.848l2.293,2.294L81.02,61.35l-4.416-4.416
		h-0.652v-0.653l-0.738-0.738c-0.586-0.586-0.586-1.536,0-2.121L81.02,47.616 M30.882,47.616l5.807,5.806
		c0.586,0.585,0.586,1.535,0,2.121l-0.738,0.738v0.653h-0.653l-4.415,4.416l-2.121-2.121l2.293-2.294H14.95v-3h18.008l-4.197-4.197
		L30.882,47.616 M62.951,56.934h-3v-3h3V56.934z M56.95,56.934h-2v-3h2V56.934z M51.95,56.934h-3v-3h3V56.934z M80.451,1.934h-10
		c-1.627,0-3.16,0.411-4.5,1.135c-1.34-0.724-2.873-1.135-4.5-1.135H49.45c-1.627,0-3.16,0.411-4.5,1.135
		c-1.34-0.724-2.873-1.135-4.5-1.135h-10c-5.238,0-9.5,4.262-9.5,9.5v2.5h-10.5c-5.238,0-9.5,4.262-9.5,9.5v69
		c0,5.238,4.262,9.5,9.5,9.5h7.513c0.262,5.008,4.416,9,9.487,9h56.001c5.07,0,9.225-3.992,9.486-9h7.514c5.238,0,9.5-4.262,9.5-9.5
		v-69c0-5.238-4.262-9.5-9.5-9.5h-10.5v-2.5C89.951,6.196,85.689,1.934,80.451,1.934 M82.156,32.934h2.795h6v13H90.65l-1.854-1.854
		l-2.121-2.121l-5.656-5.657l-0.012,0.01c-0.029-0.063-0.061-0.126-0.092-0.188C81.27,35.079,81.697,33.994,82.156,32.934
		 M19.95,32.934h7h2.796c0.307,0.708,0.601,1.427,0.866,2.138c-0.583,0.849-1.032,1.799-1.315,2.815l-4.071,4.072l-2.121,2.121
		l-1.855,1.854H19.95V32.934z M88.748,64.934h2.203v18h-1.668c-0.867-2.18-2.518-3.965-4.604-5.006
		c-0.904-2.758-1.52-5.301-1.73-7.195l3.727-3.727L88.748,64.934z M19.95,64.934h3.203l2.072,2.072l3.718,3.719
		c-0.212,1.955-0.833,4.389-1.575,6.723c-2.623,0.902-4.73,2.922-5.75,5.486H19.95V64.934z"/>
</g>
</svg>
