<?xml version="1.0" encoding="utf-8"?>
<!-- Generator: Adobe Illustrator 16.0.0, SVG Export Plug-In . SVG Version: 6.00 Build 0)  -->
<!DOCTYPE svg PUBLIC "-//W3C//DTD SVG 1.1//EN" "http://www.w3.org/Graphics/SVG/1.1/DTD/svg11.dtd">
<svg version="1.1" id="Layer_1" xmlns="http://www.w3.org/2000/svg" xmlns:xlink="http://www.w3.org/1999/xlink" x="0px" y="0px"
	 width="50px" height="50px" viewBox="0 0 50 50" enable-background="new 0 0 50 50" xml:space="preserve">
<g>
	<g>
		<g>
			<g>
				<path fill="none" stroke="#FFFFFF" stroke-width="2" stroke-linejoin="round" stroke-miterlimit="10" d="M23,34v-8.21
					c-4-1.581-9.275-9.233-9.275-17.138c0-2.371,1-7.652,1-7.652h20.551c0,0,1,5.281,1,7.652C36.275,16.557,31,24.209,27,25.79V34"
					/>
				<polygon fill="none" stroke="#FFFFFF" stroke-width="2" stroke-linejoin="round" stroke-miterlimit="10" points="33.694,37 
					16.305,37 19.467,34 30.533,34 				"/>
				
					<rect x="15" y="37" fill="none" stroke="#FFFFFF" stroke-width="2" stroke-linejoin="round" stroke-miterlimit="10" width="20" height="9"/>
				
					<rect x="12" y="46" fill="none" stroke="#FFFFFF" stroke-width="2" stroke-linejoin="round" stroke-miterlimit="10" width="26" height="3"/>
				<path fill="none" stroke="#FFFFFF" stroke-width="2" stroke-linejoin="round" stroke-miterlimit="10" d="M12,4H7.611
					c0,11,10.494,17.389,10.494,17.389"/>
				<path fill="none" stroke="#FFFFFF" stroke-width="2" stroke-linejoin="round" stroke-miterlimit="10" d="M38,4h4.389
					c0,11-10.493,17.389-10.493,17.389"/>
			</g>
			
				<line fill="none" stroke="#FFFFFF" stroke-width="2" stroke-linejoin="round" stroke-miterlimit="10" x1="24" y1="41" x2="26" y2="41"/>
			
				<line fill="none" stroke="#FFFFFF" stroke-width="2" stroke-linejoin="round" stroke-miterlimit="10" x1="21" y1="41" x2="23" y2="41"/>
			
				<line fill="none" stroke="#FFFFFF" stroke-width="2" stroke-linejoin="round" stroke-miterlimit="10" x1="27" y1="41" x2="29" y2="41"/>
			<polygon fill="none" stroke="#FFFFFF" stroke-width="2" stroke-linejoin="round" stroke-miterlimit="10" points="25,4.258 
				26.58,9 31.323,9 27.371,12.258 28.951,17.048 25,13.911 21.048,17.084 22.629,12.252 18.677,9 23.419,9 			"/>
			
				<line fill="none" stroke="#FFFFFF" stroke-width="2" stroke-linejoin="round" stroke-miterlimit="10" x1="0" y1="49" x2="50" y2="49"/>
		</g>
	</g>
</g>
</svg>
