<?xml version="1.0" encoding="utf-8"?>
<!-- Generator: Adobe Illustrator 16.0.0, SVG Export Plug-In . SVG Version: 6.00 Build 0)  -->
<!DOCTYPE svg PUBLIC "-//W3C//DTD SVG 1.1//EN" "http://www.w3.org/Graphics/SVG/1.1/DTD/svg11.dtd">
<svg version="1.1" id="Layer_1" xmlns="http://www.w3.org/2000/svg" xmlns:xlink="http://www.w3.org/1999/xlink" x="0px" y="0px"
	 width="36px" height="36px" viewBox="0 0 36 36" enable-background="new 0 0 36 36" xml:space="preserve">
<circle fill="none" stroke="#FFFFFF" stroke-linecap="round" stroke-linejoin="round" stroke-miterlimit="10" cx="18.394" cy="19.611" r="0.277"/>
<line fill="none" stroke="#FFFFFF" stroke-linecap="round" stroke-linejoin="round" stroke-miterlimit="10" x1="18.171" y1="3.845" x2="18.171" y2="5.795"/>
<line fill="none" stroke="#FFFFFF" stroke-linecap="round" stroke-linejoin="round" stroke-miterlimit="10" x1="14.351" y1="4.348" x2="14.855" y2="6.231"/>
<line fill="none" stroke="#FFFFFF" stroke-linecap="round" stroke-linejoin="round" stroke-miterlimit="10" x1="10.792" y1="5.821" x2="11.767" y2="7.511"/>
<line fill="none" stroke="#FFFFFF" stroke-linecap="round" stroke-linejoin="round" stroke-miterlimit="10" x1="7.735" y1="8.167" x2="9.114" y2="9.546"/>
<line fill="none" stroke="#FFFFFF" stroke-linecap="round" stroke-linejoin="round" stroke-miterlimit="10" x1="5.391" y1="11.224" x2="7.079" y2="12.198"/>
<line fill="none" stroke="#FFFFFF" stroke-linecap="round" stroke-linejoin="round" stroke-miterlimit="10" x1="3.916" y1="14.783" x2="5.8" y2="15.287"/>
<line fill="none" stroke="#FFFFFF" stroke-linecap="round" stroke-linejoin="round" stroke-miterlimit="10" x1="3.413" y1="18.603" x2="5.363" y2="18.603"/>
<line fill="none" stroke="#FFFFFF" stroke-linecap="round" stroke-linejoin="round" stroke-miterlimit="10" x1="32.929" y1="18.603" x2="30.979" y2="18.603"/>
<line fill="none" stroke="#FFFFFF" stroke-linecap="round" stroke-linejoin="round" stroke-miterlimit="10" x1="32.426" y1="14.783" x2="30.542" y2="15.287"/>
<line fill="none" stroke="#FFFFFF" stroke-linecap="round" stroke-linejoin="round" stroke-miterlimit="10" x1="30.951" y1="11.224" x2="29.263" y2="12.198"/>
<line fill="none" stroke="#FFFFFF" stroke-linecap="round" stroke-linejoin="round" stroke-miterlimit="10" x1="28.605" y1="8.167" x2="27.227" y2="9.546"/>
<line fill="none" stroke="#FFFFFF" stroke-linecap="round" stroke-linejoin="round" stroke-miterlimit="10" x1="25.55" y1="5.821" x2="24.574" y2="7.511"/>
<line fill="none" stroke="#FFFFFF" stroke-linecap="round" stroke-linejoin="round" stroke-miterlimit="10" x1="21.99" y1="4.348" x2="21.485" y2="6.231"/>
<path fill="none" stroke="#FFFFFF" stroke-linecap="round" stroke-linejoin="round" stroke-miterlimit="10" d="M19.947,21.261
	c0.355-0.379,0.588-0.855,0.719-1.358l2.456-9.375c0.015-0.047-0.048-0.08-0.08-0.04l-6.309,7.696
	c-0.305,0.414-0.62,1.115-0.582,1.669c0.084,1.241,1.16,2.18,2.402,2.095C19.176,21.905,19.615,21.615,19.947,21.261z"/>
<line fill="none" stroke="#FFFFFF" stroke-linecap="round" stroke-linejoin="round" stroke-miterlimit="10" x1="0.946" y1="35.947" x2="35.946" y2="35.947"/>
<line fill="none" stroke="#FFFFFF" stroke-linecap="round" stroke-linejoin="round" stroke-miterlimit="10" x1="0.946" y1="32.905" x2="35.946" y2="32.905"/>
<path fill="none" stroke="#FFFFFF" stroke-linecap="round" stroke-linejoin="round" stroke-miterlimit="10" d="M31.311,29.979
	c2.706-3.081,4.36-7.109,4.36-11.532c0-9.664-7.836-17.5-17.5-17.5c-9.665,0-17.5,7.836-17.5,17.5c0,4.423,1.654,8.451,4.36,11.532
	H31.311z"/>
</svg>
