<?xml version="1.0" encoding="utf-8"?>
<!-- Generator: Adobe Illustrator 16.0.0, SVG Export Plug-In . SVG Version: 6.00 Build 0)  -->
<!DOCTYPE svg PUBLIC "-//W3C//DTD SVG 1.1//EN" "http://www.w3.org/Graphics/SVG/1.1/DTD/svg11.dtd">
<svg version="1.1" id="Layer_1" xmlns="http://www.w3.org/2000/svg" xmlns:xlink="http://www.w3.org/1999/xlink" x="0px" y="0px"
	 width="45px" height="50px" viewBox="0 0 45 50" enable-background="new 0 0 45 50" xml:space="preserve">
<g>
	<g>
		<g>
			<circle fill="none" stroke="#FFFFFF" stroke-width="2" stroke-miterlimit="10" cx="13.612" cy="12.484" r="11.733"/>
			<path fill="none" stroke="#FFFFFF" stroke-width="2" stroke-miterlimit="10" d="M17,24v15.863c0,1.728-1.272,3.129-3,3.129
				c-1.729,0-3-1.401-3-3.129V24"/>
			<line fill="none" stroke="#FFFFFF" stroke-width="2" stroke-miterlimit="10" x1="14" y1="31" x2="14" y2="33"/>
			<line fill="none" stroke="#FFFFFF" stroke-width="2" stroke-miterlimit="10" x1="14" y1="34" x2="14" y2="36"/>
			<line fill="none" stroke="#FFFFFF" stroke-width="2" stroke-miterlimit="10" x1="14" y1="37" x2="14" y2="39"/>
		</g>
		<polyline fill="none" stroke="#FFFFFF" stroke-width="2" stroke-miterlimit="10" points="26,6 44,6 44,42.21 37.08,49 14,49 
			14,45 		"/>
		<polyline fill="none" stroke="#FFFFFF" stroke-width="2" stroke-miterlimit="10" points="37,49 37,42 44,42 		"/>
		<polyline fill="none" stroke="#FFFFFF" stroke-width="2" stroke-miterlimit="10" points="19,13 19,18 8,18 8,7 17,7 		"/>
		<polyline fill="none" stroke="#FFFFFF" stroke-width="2" stroke-miterlimit="10" points="19.088,8.572 13.612,14.049 
			11.266,11.702 		"/>
		<rect x="20" y="27" fill="none" stroke="#FFFFFF" stroke-width="2" stroke-miterlimit="10" width="3" height="3"/>
		<rect x="20" y="33" fill="none" stroke="#FFFFFF" stroke-width="2" stroke-miterlimit="10" width="3" height="3"/>
		<rect x="20" y="39" fill="none" stroke="#FFFFFF" stroke-width="2" stroke-miterlimit="10" width="3" height="3"/>
		<line fill="none" stroke="#FFFFFF" stroke-width="2" stroke-miterlimit="10" x1="40" y1="27" x2="25" y2="27"/>
		<line fill="none" stroke="#FFFFFF" stroke-width="2" stroke-miterlimit="10" x1="40" y1="30" x2="25" y2="30"/>
		<line fill="none" stroke="#FFFFFF" stroke-width="2" stroke-miterlimit="10" x1="40" y1="33" x2="25" y2="33"/>
		<line fill="none" stroke="#FFFFFF" stroke-width="2" stroke-miterlimit="10" x1="40" y1="36" x2="25" y2="36"/>
		<line fill="none" stroke="#FFFFFF" stroke-width="2" stroke-miterlimit="10" x1="33" y1="42" x2="25" y2="42"/>
		<line fill="none" stroke="#FFFFFF" stroke-width="2" stroke-miterlimit="10" x1="40" y1="39" x2="25" y2="39"/>
		<polyline fill="none" stroke="#FFFFFF" stroke-width="2" stroke-miterlimit="10" points="28,14 39,14 39,22 25,22 		"/>
		<line fill="none" stroke="#FFFFFF" stroke-width="2" stroke-miterlimit="10" x1="40" y1="11" x2="38" y2="11"/>
		<line fill="none" stroke="#FFFFFF" stroke-width="2" stroke-miterlimit="10" x1="37" y1="11" x2="35" y2="11"/>
		<line fill="none" stroke="#FFFFFF" stroke-width="2" stroke-miterlimit="10" x1="34" y1="11" x2="32" y2="11"/>
	</g>
</g>
</svg>
