<?xml version="1.0" encoding="utf-8"?>
<!-- Generator: Adobe Illustrator 16.0.0, SVG Export Plug-In . SVG Version: 6.00 Build 0)  -->
<!DOCTYPE svg PUBLIC "-//W3C//DTD SVG 1.1//EN" "http://www.w3.org/Graphics/SVG/1.1/DTD/svg11.dtd">
<svg version="1.1" id="Layer_1" xmlns="http://www.w3.org/2000/svg" xmlns:xlink="http://www.w3.org/1999/xlink" x="0px" y="0px"
	 width="36px" height="36px" viewBox="0 0 36 36" enable-background="new 0 0 36 36" xml:space="preserve">
<g>
	<path fill="none" stroke="#FFFFFF" stroke-linecap="round" stroke-linejoin="round" stroke-miterlimit="10" d="M28.292,12.207
		V9.862V6.734H8.867v5.473c-1.05,0-1.902,0.852-1.902,1.902v7.527c0,1.051,0.852,1.902,1.902,1.902v5.473h0.952h1.776h16.697v-5.473
		c1.05,0,1.902-0.852,1.902-1.902v-7.527C30.194,13.059,29.342,12.207,28.292,12.207z"/>
	
		<ellipse fill="none" stroke="#FFFFFF" stroke-linecap="round" stroke-linejoin="round" stroke-miterlimit="10" cx="18.58" cy="17.873" rx="8.221" ry="5.485"/>
	<g>
		
			<line fill="none" stroke="#FFFFFF" stroke-linecap="round" stroke-linejoin="round" stroke-miterlimit="10" x1="6.357" y1="3.367" x2="6.357" y2="0.373"/>
		
			<line fill="none" stroke="#FFFFFF" stroke-linecap="round" stroke-linejoin="round" stroke-miterlimit="10" x1="9.074" y1="3.367" x2="9.074" y2="0.373"/>
		
			<line fill="none" stroke="#FFFFFF" stroke-linecap="round" stroke-linejoin="round" stroke-miterlimit="10" x1="11.79" y1="3.367" x2="11.79" y2="0.373"/>
		
			<line fill="none" stroke="#FFFFFF" stroke-linecap="round" stroke-linejoin="round" stroke-miterlimit="10" x1="14.506" y1="3.367" x2="14.506" y2="0.373"/>
		
			<line fill="none" stroke="#FFFFFF" stroke-linecap="round" stroke-linejoin="round" stroke-miterlimit="10" x1="17.222" y1="3.367" x2="17.222" y2="0.373"/>
		
			<line fill="none" stroke="#FFFFFF" stroke-linecap="round" stroke-linejoin="round" stroke-miterlimit="10" x1="19.938" y1="3.367" x2="19.938" y2="0.373"/>
		
			<line fill="none" stroke="#FFFFFF" stroke-linecap="round" stroke-linejoin="round" stroke-miterlimit="10" x1="22.653" y1="3.367" x2="22.653" y2="0.373"/>
		
			<line fill="none" stroke="#FFFFFF" stroke-linecap="round" stroke-linejoin="round" stroke-miterlimit="10" x1="25.369" y1="3.367" x2="25.369" y2="0.373"/>
		
			<line fill="none" stroke="#FFFFFF" stroke-linecap="round" stroke-linejoin="round" stroke-miterlimit="10" x1="28.086" y1="3.367" x2="28.086" y2="0.373"/>
		
			<line fill="none" stroke="#FFFFFF" stroke-linecap="round" stroke-linejoin="round" stroke-miterlimit="10" x1="30.802" y1="3.367" x2="30.802" y2="0.373"/>
	</g>
	<g>
		
			<line fill="none" stroke="#FFFFFF" stroke-linecap="round" stroke-linejoin="round" stroke-miterlimit="10" x1="6.357" y1="32.379" x2="6.357" y2="35.373"/>
		
			<line fill="none" stroke="#FFFFFF" stroke-linecap="round" stroke-linejoin="round" stroke-miterlimit="10" x1="9.074" y1="32.379" x2="9.074" y2="35.373"/>
		
			<line fill="none" stroke="#FFFFFF" stroke-linecap="round" stroke-linejoin="round" stroke-miterlimit="10" x1="11.79" y1="32.379" x2="11.79" y2="35.373"/>
		
			<line fill="none" stroke="#FFFFFF" stroke-linecap="round" stroke-linejoin="round" stroke-miterlimit="10" x1="14.506" y1="32.379" x2="14.506" y2="35.373"/>
		
			<line fill="none" stroke="#FFFFFF" stroke-linecap="round" stroke-linejoin="round" stroke-miterlimit="10" x1="17.222" y1="32.379" x2="17.222" y2="35.373"/>
		
			<line fill="none" stroke="#FFFFFF" stroke-linecap="round" stroke-linejoin="round" stroke-miterlimit="10" x1="19.938" y1="32.379" x2="19.938" y2="35.373"/>
		
			<line fill="none" stroke="#FFFFFF" stroke-linecap="round" stroke-linejoin="round" stroke-miterlimit="10" x1="22.653" y1="32.379" x2="22.653" y2="35.373"/>
		
			<line fill="none" stroke="#FFFFFF" stroke-linecap="round" stroke-linejoin="round" stroke-miterlimit="10" x1="25.369" y1="32.379" x2="25.369" y2="35.373"/>
		
			<line fill="none" stroke="#FFFFFF" stroke-linecap="round" stroke-linejoin="round" stroke-miterlimit="10" x1="28.086" y1="32.379" x2="28.086" y2="35.373"/>
		
			<line fill="none" stroke="#FFFFFF" stroke-linecap="round" stroke-linejoin="round" stroke-miterlimit="10" x1="30.802" y1="32.379" x2="30.802" y2="35.373"/>
	</g>
	<g>
		
			<line fill="none" stroke="#FFFFFF" stroke-linecap="round" stroke-linejoin="round" stroke-miterlimit="10" x1="33.086" y1="5.651" x2="36.08" y2="5.651"/>
		
			<line fill="none" stroke="#FFFFFF" stroke-linecap="round" stroke-linejoin="round" stroke-miterlimit="10" x1="33.086" y1="8.367" x2="36.08" y2="8.367"/>
		
			<line fill="none" stroke="#FFFFFF" stroke-linecap="round" stroke-linejoin="round" stroke-miterlimit="10" x1="33.086" y1="11.083" x2="36.08" y2="11.083"/>
		
			<line fill="none" stroke="#FFFFFF" stroke-linecap="round" stroke-linejoin="round" stroke-miterlimit="10" x1="33.086" y1="13.799" x2="36.08" y2="13.799"/>
		
			<line fill="none" stroke="#FFFFFF" stroke-linecap="round" stroke-linejoin="round" stroke-miterlimit="10" x1="33.086" y1="16.515" x2="36.08" y2="16.515"/>
		
			<line fill="none" stroke="#FFFFFF" stroke-linecap="round" stroke-linejoin="round" stroke-miterlimit="10" x1="33.086" y1="19.23" x2="36.08" y2="19.23"/>
		
			<line fill="none" stroke="#FFFFFF" stroke-linecap="round" stroke-linejoin="round" stroke-miterlimit="10" x1="33.086" y1="21.947" x2="36.08" y2="21.947"/>
		
			<line fill="none" stroke="#FFFFFF" stroke-linecap="round" stroke-linejoin="round" stroke-miterlimit="10" x1="33.086" y1="24.663" x2="36.08" y2="24.663"/>
		
			<line fill="none" stroke="#FFFFFF" stroke-linecap="round" stroke-linejoin="round" stroke-miterlimit="10" x1="33.086" y1="27.379" x2="36.08" y2="27.379"/>
		
			<line fill="none" stroke="#FFFFFF" stroke-linecap="round" stroke-linejoin="round" stroke-miterlimit="10" x1="33.086" y1="30.096" x2="36.08" y2="30.096"/>
	</g>
	<g>
		
			<line fill="none" stroke="#FFFFFF" stroke-linecap="round" stroke-linejoin="round" stroke-miterlimit="10" x1="4.073" y1="5.651" x2="1.08" y2="5.651"/>
		
			<line fill="none" stroke="#FFFFFF" stroke-linecap="round" stroke-linejoin="round" stroke-miterlimit="10" x1="4.073" y1="8.367" x2="1.08" y2="8.367"/>
		
			<line fill="none" stroke="#FFFFFF" stroke-linecap="round" stroke-linejoin="round" stroke-miterlimit="10" x1="4.073" y1="11.083" x2="1.08" y2="11.083"/>
		
			<line fill="none" stroke="#FFFFFF" stroke-linecap="round" stroke-linejoin="round" stroke-miterlimit="10" x1="4.073" y1="13.799" x2="1.08" y2="13.799"/>
		
			<line fill="none" stroke="#FFFFFF" stroke-linecap="round" stroke-linejoin="round" stroke-miterlimit="10" x1="4.073" y1="16.515" x2="1.08" y2="16.515"/>
		
			<line fill="none" stroke="#FFFFFF" stroke-linecap="round" stroke-linejoin="round" stroke-miterlimit="10" x1="4.073" y1="19.23" x2="1.08" y2="19.23"/>
		
			<line fill="none" stroke="#FFFFFF" stroke-linecap="round" stroke-linejoin="round" stroke-miterlimit="10" x1="4.073" y1="21.947" x2="1.08" y2="21.947"/>
		
			<line fill="none" stroke="#FFFFFF" stroke-linecap="round" stroke-linejoin="round" stroke-miterlimit="10" x1="4.073" y1="24.663" x2="1.08" y2="24.663"/>
		
			<line fill="none" stroke="#FFFFFF" stroke-linecap="round" stroke-linejoin="round" stroke-miterlimit="10" x1="4.073" y1="27.379" x2="1.08" y2="27.379"/>
		
			<line fill="none" stroke="#FFFFFF" stroke-linecap="round" stroke-linejoin="round" stroke-miterlimit="10" x1="4.073" y1="30.096" x2="1.08" y2="30.096"/>
	</g>
	<g>
		<path fill="#354254" stroke="#FFFFFF" stroke-miterlimit="10" d="M15.977,17.377c-0.007-0.096-0.03-0.182-0.068-0.259
			c-0.039-0.077-0.09-0.143-0.153-0.197c-0.063-0.054-0.138-0.096-0.223-0.125c-0.085-0.029-0.177-0.044-0.274-0.044
			c-0.138,0-0.262,0.025-0.372,0.073c-0.11,0.049-0.204,0.121-0.283,0.215c-0.078,0.096-0.138,0.213-0.179,0.353
			c-0.042,0.14-0.063,0.299-0.063,0.48s0.021,0.34,0.063,0.48c0.042,0.139,0.102,0.257,0.178,0.352
			c0.077,0.095,0.17,0.168,0.28,0.218c0.109,0.05,0.231,0.075,0.367,0.075c0.103,0,0.197-0.015,0.282-0.044
			c0.085-0.028,0.16-0.071,0.223-0.128c0.063-0.058,0.114-0.127,0.152-0.209c0.038-0.083,0.062-0.179,0.072-0.287h0.611
			c-0.017,0.192-0.062,0.362-0.135,0.511c-0.073,0.148-0.167,0.273-0.285,0.376c-0.118,0.103-0.254,0.181-0.41,0.233
			c-0.155,0.054-0.323,0.08-0.505,0.08c-0.231,0-0.439-0.039-0.625-0.117s-0.343-0.189-0.474-0.332
			c-0.13-0.145-0.23-0.318-0.301-0.523s-0.106-0.433-0.106-0.685s0.036-0.48,0.107-0.685c0.071-0.205,0.172-0.379,0.303-0.523
			c0.131-0.145,0.29-0.256,0.475-0.334c0.186-0.078,0.393-0.117,0.621-0.117c0.173,0,0.337,0.028,0.49,0.083
			c0.154,0.056,0.29,0.134,0.409,0.236s0.217,0.224,0.294,0.367c0.077,0.143,0.124,0.302,0.141,0.477H15.977z"/>
		<path fill="#354254" stroke="#FFFFFF" stroke-miterlimit="10" d="M17.482,16.271h1.23c0.11,0,0.218,0.006,0.322,0.018
			c0.105,0.012,0.205,0.033,0.299,0.063s0.18,0.068,0.258,0.116c0.078,0.048,0.146,0.108,0.201,0.181
			c0.057,0.073,0.101,0.159,0.133,0.257c0.031,0.099,0.047,0.213,0.047,0.343c0,0.341-0.103,0.597-0.31,0.769
			c-0.206,0.171-0.515,0.257-0.923,0.257h-0.66v1.207h-0.598V16.271z M18.081,17.724h0.67c0.109,0,0.204-0.01,0.28-0.031
			c0.078-0.021,0.142-0.05,0.19-0.089c0.048-0.04,0.083-0.088,0.106-0.146c0.022-0.058,0.033-0.125,0.033-0.201
			c0-0.092-0.016-0.166-0.05-0.222s-0.079-0.101-0.137-0.132c-0.057-0.032-0.123-0.053-0.199-0.063
			c-0.075-0.01-0.155-0.016-0.238-0.016h-0.658V17.724z"/>
		<path fill="#354254" stroke="#FFFFFF" stroke-miterlimit="10" d="M22.121,19.531c-0.201,0-0.373-0.02-0.516-0.06
			s-0.262-0.095-0.356-0.164s-0.171-0.15-0.226-0.243c-0.055-0.093-0.096-0.192-0.124-0.297s-0.046-0.213-0.054-0.325
			c-0.007-0.112-0.01-0.223-0.01-0.331v-1.84h0.598v1.833c0,0.182,0.016,0.331,0.046,0.445s0.075,0.205,0.134,0.268
			c0.059,0.064,0.13,0.108,0.215,0.131c0.086,0.023,0.184,0.035,0.293,0.035c0.111,0,0.211-0.012,0.297-0.036
			c0.086-0.024,0.156-0.068,0.214-0.132s0.101-0.153,0.13-0.267c0.029-0.114,0.045-0.263,0.045-0.444v-1.833h0.603v1.84
			c0,0.223-0.021,0.422-0.059,0.599c-0.038,0.176-0.106,0.325-0.204,0.447c-0.097,0.122-0.229,0.215-0.395,0.279
			S22.376,19.531,22.121,19.531z"/>
	</g>
	<polygon fill="none" stroke="#FFFFFF" stroke-linecap="round" stroke-linejoin="round" stroke-miterlimit="10" points="
		33.086,32.379 33.086,7.441 33.086,3.367 4.073,3.367 4.073,32.379 8.148,32.379 	"/>
</g>
</svg>
