<?xml version="1.0" encoding="utf-8"?>
<!-- Generator: Adobe Illustrator 16.0.0, SVG Export Plug-In . SVG Version: 6.00 Build 0)  -->
<!DOCTYPE svg PUBLIC "-//W3C//DTD SVG 1.1//EN" "http://www.w3.org/Graphics/SVG/1.1/DTD/svg11.dtd">
<svg version="1.1" id="Layer_1" xmlns="http://www.w3.org/2000/svg" xmlns:xlink="http://www.w3.org/1999/xlink" x="0px" y="0px"
	 width="130px" height="114px" viewBox="0 0 130 114" enable-background="new 0 0 130 114" xml:space="preserve">
<linearGradient id="SVGID_1_" gradientUnits="userSpaceOnUse" x1="99.251" y1="69.251" x2="119.751" y2="48.751">
	<stop  offset="0" style="stop-color:#811B56"/>
	<stop  offset="1" style="stop-color:#5D57A5"/>
</linearGradient>
<line fill="none" stroke="url(#SVGID_1_)" stroke-width="2" stroke-miterlimit="10" x1="90" y1="59" x2="129" y2="59"/>
<linearGradient id="SVGID_2_" gradientUnits="userSpaceOnUse" x1="22.25" y1="79.25" x2="68.75" y2="32.75">
	<stop  offset="0" style="stop-color:#5D57A5"/>
	<stop  offset="1" style="stop-color:#811B56"/>
</linearGradient>
<rect x="6" y="49" fill="url(#SVGID_2_)" width="79" height="14"/>
<linearGradient id="SVGID_3_" gradientUnits="userSpaceOnUse" x1="4.0005" y1="118.001" x2="126.0005" y2="-3.999">
	<stop  offset="0" style="stop-color:#811B56"/>
	<stop  offset="1" style="stop-color:#5D57A5"/>
</linearGradient>
<rect x="1" y="1" fill="none" stroke="url(#SVGID_3_)" stroke-width="2" stroke-miterlimit="10" width="128" height="112"/>
<linearGradient id="SVGID_4_" gradientUnits="userSpaceOnUse" x1="98.25" y1="55.25" x2="104.75" y2="48.75">
	<stop  offset="0" style="stop-color:#811B56"/>
	<stop  offset="1" style="stop-color:#5D57A5"/>
</linearGradient>
<line fill="none" stroke="url(#SVGID_4_)" stroke-width="2" stroke-miterlimit="10" x1="96" y1="52" x2="107" y2="52"/>
<linearGradient id="SVGID_5_" gradientUnits="userSpaceOnUse" x1="113.251" y1="55.251" x2="119.751" y2="48.751">
	<stop  offset="0" style="stop-color:#811B56"/>
	<stop  offset="1" style="stop-color:#5D57A5"/>
</linearGradient>
<line fill="none" stroke="url(#SVGID_5_)" stroke-width="2" stroke-miterlimit="10" x1="111" y1="52" x2="122" y2="52"/>
<linearGradient id="SVGID_6_" gradientUnits="userSpaceOnUse" x1="100.25" y1="83.25" x2="117.75" y2="65.75">
	<stop  offset="0" style="stop-color:#811B56"/>
	<stop  offset="1" style="stop-color:#5D57A5"/>
</linearGradient>
<rect x="99" y="69" fill="none" stroke="url(#SVGID_6_)" stroke-width="2" stroke-miterlimit="10" width="20" height="11"/>
<linearGradient id="SVGID_7_" gradientUnits="userSpaceOnUse" x1="102.001" y1="97.001" x2="116.001" y2="83.001">
	<stop  offset="0" style="stop-color:#811B56"/>
	<stop  offset="1" style="stop-color:#5D57A5"/>
</linearGradient>
<line fill="none" stroke="url(#SVGID_7_)" stroke-width="2" stroke-miterlimit="10" x1="96" y1="90" x2="122" y2="90"/>
<line fill="#FFFFFF" stroke="#B4B4B4" stroke-width="2" stroke-miterlimit="10" x1="96" y1="100" x2="122" y2="100"/>
<linearGradient id="SVGID_8_" gradientUnits="userSpaceOnUse" x1="32.5005" y1="76.501" x2="97.5005" y2="11.501">
	<stop  offset="0" style="stop-color:#811B56"/>
	<stop  offset="1" style="stop-color:#5D57A5"/>
</linearGradient>
<line fill="none" stroke="url(#SVGID_8_)" stroke-width="2" stroke-miterlimit="10" x1="1" y1="44" x2="129" y2="44"/>
<linearGradient id="SVGID_9_" gradientUnits="userSpaceOnUse" x1="22.751" y1="90.751" x2="68.251" y2="45.251">
	<stop  offset="0" style="stop-color:#811B56"/>
	<stop  offset="1" style="stop-color:#5D57A5"/>
</linearGradient>
<line fill="none" stroke="url(#SVGID_9_)" stroke-width="2" stroke-miterlimit="10" x1="1" y1="68" x2="90" y2="68"/>
<linearGradient id="SVGID_10_" gradientUnits="userSpaceOnUse" x1="24.25" y1="104.25" x2="66.75" y2="61.75">
	<stop  offset="0" style="stop-color:#811B56"/>
	<stop  offset="1" style="stop-color:#5D57A5"/>
</linearGradient>
<rect x="11" y="77" fill="none" stroke="url(#SVGID_10_)" stroke-width="2" stroke-miterlimit="10" width="69" height="12"/>
<line fill="none" stroke="#FFFFFF" stroke-width="2" stroke-miterlimit="10" x1="16" y1="53" x2="16" y2="59"/>
<line fill="none" stroke="#FFFFFF" stroke-width="2" stroke-miterlimit="10" x1="26" y1="53" x2="26" y2="59"/>
<line fill="none" stroke="#FFFFFF" stroke-width="2" stroke-miterlimit="10" x1="35" y1="53" x2="35" y2="59"/>
<line fill="none" stroke="#FFFFFF" stroke-width="2" stroke-miterlimit="10" x1="46" y1="53" x2="46" y2="59"/>
<line fill="none" stroke="#FFFFFF" stroke-width="2" stroke-miterlimit="10" x1="55" y1="53" x2="55" y2="59"/>
<line fill="none" stroke="#FFFFFF" stroke-width="2" stroke-miterlimit="10" x1="65" y1="53" x2="65" y2="59"/>
<line fill="none" stroke="#FFFFFF" stroke-width="2" stroke-miterlimit="10" x1="75" y1="53" x2="75" y2="59"/>
<linearGradient id="SVGID_11_" gradientUnits="userSpaceOnUse" x1="72.251" y1="96.251" x2="107.751" y2="60.751">
	<stop  offset="0" style="stop-color:#811B56"/>
	<stop  offset="1" style="stop-color:#5D57A5"/>
</linearGradient>
<line fill="none" stroke="url(#SVGID_11_)" stroke-width="2" stroke-miterlimit="10" x1="90" y1="44" x2="90" y2="113"/>
<linearGradient id="SVGID_12_" gradientUnits="userSpaceOnUse" x1="145.75" y1="102.751" x2="152.25" y2="96.251" gradientTransform="matrix(-1 0 0 1 226 0)">
	<stop  offset="0" style="stop-color:#5D57A5"/>
	<stop  offset="1" style="stop-color:#811B56"/>
</linearGradient>
<line fill="none" stroke="url(#SVGID_12_)" stroke-width="2" stroke-miterlimit="10" x1="77" y1="94" x2="77" y2="105"/>
<linearGradient id="SVGID_13_" gradientUnits="userSpaceOnUse" x1="155.75" y1="102.75" x2="162.25" y2="96.25" gradientTransform="matrix(-1 0 0 1 226 0)">
	<stop  offset="0" style="stop-color:#5D57A5"/>
	<stop  offset="1" style="stop-color:#811B56"/>
</linearGradient>
<line fill="none" stroke="url(#SVGID_13_)" stroke-width="2" stroke-miterlimit="10" x1="67" y1="94" x2="67" y2="105"/>
<line fill="#FFFFFF" stroke="#B4B4B4" stroke-width="2" stroke-miterlimit="10" x1="33" y1="100" x2="38" y2="100"/>
<line fill="#FFFFFF" stroke="#B4B4B4" stroke-width="2" stroke-miterlimit="10" x1="43" y1="100" x2="48" y2="100"/>
<line fill="#FFFFFF" stroke="#B4B4B4" stroke-width="2" stroke-miterlimit="10" x1="53" y1="100" x2="58" y2="100"/>
<linearGradient id="SVGID_14_" gradientUnits="userSpaceOnUse" x1="14.7578" y1="104.3896" x2="23.2427" y2="95.9048">
	<stop  offset="0" style="stop-color:#5D57A5"/>
	<stop  offset="1" style="stop-color:#811B56"/>
</linearGradient>
<circle fill="none" stroke="url(#SVGID_14_)" stroke-width="2" stroke-miterlimit="10" cx="19" cy="100.146" r="5"/>
<path fill="#FFFFFF" stroke="#B4B4B4" stroke-width="2" stroke-miterlimit="10" d="M40,23.145c0,6.631-5.377,12-12,12
	c-6.626,0-12-5.369-12-12c0-6.628,5.374-11.997,12-11.997C34.623,11.147,40,16.517,40,23.145z"/>
<path fill="#FFFFFF" stroke="#B4B4B4" stroke-width="2" stroke-miterlimit="10" d="M114,23.145c0,6.631-5.377,12-12,12
	c-6.626,0-12-5.369-12-12c0-6.628,5.374-11.997,12-11.997C108.623,11.147,114,16.517,114,23.145z"/>
<linearGradient id="SVGID_15_" gradientUnits="userSpaceOnUse" x1="55.8076" y1="32.3379" x2="74.1913" y2="13.9542">
	<stop  offset="0" style="stop-color:#5D57A5"/>
	<stop  offset="1" style="stop-color:#811B56"/>
</linearGradient>
<path fill="none" stroke="url(#SVGID_15_)" stroke-width="2" stroke-miterlimit="10" d="M77,23.145c0,6.631-5.377,12-12,12
	c-6.626,0-12-5.369-12-12c0-6.628,5.374-11.997,12-11.997C71.623,11.147,77,16.517,77,23.145z"/>
<line fill="#FFFFFF" stroke="#B4B4B4" stroke-width="2" stroke-miterlimit="10" x1="28" y1="23.146" x2="32.905" y2="18.24"/>
<line fill="#FFFFFF" stroke="#B4B4B4" stroke-width="2" stroke-miterlimit="10" x1="101.095" y1="22.24" x2="106" y2="27.146"/>
<linearGradient id="SVGID_16_" gradientUnits="userSpaceOnUse" x1="65.7471" y1="25.4009" x2="67.1613" y2="23.9867">
	<stop  offset="0" style="stop-color:#5D57A5"/>
	<stop  offset="1" style="stop-color:#811B56"/>
</linearGradient>
<line fill="none" stroke="url(#SVGID_16_)" stroke-width="2" stroke-miterlimit="10" x1="68.906" y1="27.146" x2="64.001" y2="22.24"/>
</svg>
