<?xml version="1.0" encoding="utf-8"?>
<!-- Generator: Adobe Illustrator 16.0.0, SVG Export Plug-In . SVG Version: 6.00 Build 0)  -->
<!DOCTYPE svg PUBLIC "-//W3C//DTD SVG 1.1//EN" "http://www.w3.org/Graphics/SVG/1.1/DTD/svg11.dtd">
<svg version="1.1" id="Layer_1" xmlns="http://www.w3.org/2000/svg" xmlns:xlink="http://www.w3.org/1999/xlink" x="0px" y="0px"
	 width="74px" height="74px" viewBox="0 0 74 74" enable-background="new 0 0 74 74" xml:space="preserve">
<g>
	<g>
		<linearGradient id="SVGID_1_" gradientUnits="userSpaceOnUse" x1="10.4517" y1="31.7744" x2="74" y2="31.7744">
			<stop  offset="0" style="stop-color:#811B56"/>
			<stop  offset="1" style="stop-color:#5C56A5"/>
		</linearGradient>
		<path fill="none" stroke="url(#SVGID_1_)" stroke-width="2" stroke-linejoin="round" stroke-miterlimit="10" d="M25.387,62.549
			L11.452,48.613C11.452,48.613,40.484,1,73,1C73,33.516,25.387,62.549,25.387,62.549z"/>
		<linearGradient id="SVGID_2_" gradientUnits="userSpaceOnUse" x1="9.29" y1="57.4688" x2="23.7715" y2="57.4688">
			<stop  offset="0" style="stop-color:#811B56"/>
			<stop  offset="1" style="stop-color:#5C56A5"/>
		</linearGradient>
		<polyline fill="none" stroke="url(#SVGID_2_)" stroke-width="2" stroke-linejoin="round" stroke-miterlimit="10" points="
			23.064,60.226 19.581,63.71 10.29,54.42 13.774,50.936 		"/>
		<linearGradient id="SVGID_3_" gradientUnits="userSpaceOnUse" x1="0" y1="65.5977" x2="16.8037" y2="65.5977">
			<stop  offset="0" style="stop-color:#811B56"/>
			<stop  offset="1" style="stop-color:#5C56A5"/>
		</linearGradient>
		<path fill="none" stroke="url(#SVGID_3_)" stroke-width="2" stroke-linejoin="round" stroke-miterlimit="10" d="M7.968,57.903
			C1,64.871,1,73,1,73s8.129,0,15.097-6.968"/>
		<linearGradient id="SVGID_4_" gradientUnits="userSpaceOnUse" x1="47.6133" y1="20.7422" x2="58.9033" y2="20.7422">
			<stop  offset="0" style="stop-color:#811B56"/>
			<stop  offset="1" style="stop-color:#5C56A5"/>
		</linearGradient>
		
			<circle fill="none" stroke="url(#SVGID_4_)" stroke-width="2" stroke-linejoin="round" stroke-miterlimit="10" cx="53.258" cy="20.742" r="4.645"/>
		<linearGradient id="SVGID_5_" gradientUnits="userSpaceOnUse" x1="37.1611" y1="31.1934" x2="48.4512" y2="31.1934">
			<stop  offset="0" style="stop-color:#811B56"/>
			<stop  offset="1" style="stop-color:#5C56A5"/>
		</linearGradient>
		
			<circle fill="none" stroke="url(#SVGID_5_)" stroke-width="2" stroke-linejoin="round" stroke-miterlimit="10" cx="42.806" cy="31.193" r="4.645"/>
		<linearGradient id="SVGID_6_" gradientUnits="userSpaceOnUse" x1="26.7095" y1="41.6445" x2="38" y2="41.6445">
			<stop  offset="0" style="stop-color:#811B56"/>
			<stop  offset="1" style="stop-color:#5C56A5"/>
		</linearGradient>
		
			<circle fill="none" stroke="url(#SVGID_6_)" stroke-width="2" stroke-linejoin="round" stroke-miterlimit="10" cx="32.355" cy="41.646" r="4.645"/>
		<linearGradient id="SVGID_7_" gradientUnits="userSpaceOnUse" x1="30" y1="51.3047" x2="63.3643" y2="51.3047">
			<stop  offset="0" style="stop-color:#811B56"/>
			<stop  offset="1" style="stop-color:#5C56A5"/>
		</linearGradient>
		<polyline fill="none" stroke="url(#SVGID_7_)" stroke-width="2" stroke-linejoin="round" stroke-miterlimit="10" points="
			62.451,29.016 42.807,73 31,73 31,64 		"/>
		<linearGradient id="SVGID_8_" gradientUnits="userSpaceOnUse" x1="0" y1="27.3179" x2="45.3926" y2="27.3179">
			<stop  offset="0" style="stop-color:#811B56"/>
			<stop  offset="1" style="stop-color:#5C56A5"/>
		</linearGradient>
		<polyline fill="none" stroke="url(#SVGID_8_)" stroke-width="2" stroke-linejoin="round" stroke-miterlimit="10" points="
			44.984,11.549 1,31.193 1,43 10,43 		"/>
		<linearGradient id="SVGID_9_" gradientUnits="userSpaceOnUse" x1="60.3867" y1="8.4678" x2="70.6777" y2="8.4678">
			<stop  offset="0" style="stop-color:#811B56"/>
			<stop  offset="1" style="stop-color:#5C56A5"/>
		</linearGradient>
		<path fill="none" stroke="url(#SVGID_9_)" stroke-width="2" stroke-linejoin="round" stroke-miterlimit="10" d="M70.678,12.613
			c-5.131,0-9.291-4.16-9.291-9.291"/>
	</g>
</g>
</svg>
