<?xml version="1.0" encoding="utf-8"?>
<!-- Generator: Adobe Illustrator 16.0.0, SVG Export Plug-In . SVG Version: 6.00 Build 0)  -->
<!DOCTYPE svg PUBLIC "-//W3C//DTD SVG 1.1//EN" "http://www.w3.org/Graphics/SVG/1.1/DTD/svg11.dtd">
<svg version="1.1" id="Layer_1" xmlns="http://www.w3.org/2000/svg" xmlns:xlink="http://www.w3.org/1999/xlink" x="0px" y="0px"
	 width="118px" height="118px" viewBox="0 0 118 118" enable-background="new 0 0 118 118" xml:space="preserve">
<g>
	<linearGradient id="SVGID_1_" gradientUnits="userSpaceOnUse" x1="98" y1="50" x2="111" y2="50">
		<stop  offset="0" style="stop-color:#811B56"/>
		<stop  offset="1" style="stop-color:#5C56A5"/>
	</linearGradient>
	<path fill="none" stroke="url(#SVGID_1_)" stroke-width="2" stroke-miterlimit="10" d="M110,93V15.969
		C110,11.853,106.148,8,102.032,8H98"/>
	<linearGradient id="SVGID_2_" gradientUnits="userSpaceOnUse" x1="25" y1="104.5" x2="111" y2="104.5">
		<stop  offset="0" style="stop-color:#811B56"/>
		<stop  offset="1" style="stop-color:#5C56A5"/>
	</linearGradient>
	<path fill="none" stroke="url(#SVGID_2_)" stroke-width="2" stroke-miterlimit="10" d="M25,110h77.032
		c4.116,0,7.968-3.85,7.968-7.968V98"/>
	<linearGradient id="SVGID_3_" gradientUnits="userSpaceOnUse" x1="7" y1="68" x2="20" y2="68">
		<stop  offset="0" style="stop-color:#811B56"/>
		<stop  offset="1" style="stop-color:#5C56A5"/>
	</linearGradient>
	<path fill="none" stroke="url(#SVGID_3_)" stroke-width="2" stroke-miterlimit="10" d="M8,25v77.032
		C8,106.15,11.852,110,15.967,110H20"/>
	<linearGradient id="SVGID_4_" gradientUnits="userSpaceOnUse" x1="7" y1="13.5" x2="93" y2="13.5">
		<stop  offset="0" style="stop-color:#811B56"/>
		<stop  offset="1" style="stop-color:#5C56A5"/>
	</linearGradient>
	<path fill="none" stroke="url(#SVGID_4_)" stroke-width="2" stroke-miterlimit="10" d="M93,8H15.967C11.852,8,8,11.853,8,15.969V20
		"/>
	<linearGradient id="SVGID_5_" gradientUnits="userSpaceOnUse" x1="84.4863" y1="8.4849" x2="93.6777" y2="8.4849">
		<stop  offset="0" style="stop-color:#811B56"/>
		<stop  offset="1" style="stop-color:#5C56A5"/>
	</linearGradient>
	<polyline fill="none" stroke="url(#SVGID_5_)" stroke-width="2" stroke-linejoin="round" stroke-miterlimit="10" points="
		85.193,15.969 92.678,8.485 85.193,1.001 	"/>
	<linearGradient id="SVGID_6_" gradientUnits="userSpaceOnUse" x1="24.3223" y1="109.5156" x2="33.5137" y2="109.5156">
		<stop  offset="0" style="stop-color:#811B56"/>
		<stop  offset="1" style="stop-color:#5C56A5"/>
	</linearGradient>
	<polyline fill="none" stroke="url(#SVGID_6_)" stroke-width="2" stroke-linejoin="round" stroke-miterlimit="10" points="
		32.807,117 25.322,109.517 32.807,102.032 	"/>
	<linearGradient id="SVGID_7_" gradientUnits="userSpaceOnUse" x1="101.3252" y1="89.082" x2="117.707" y2="89.082">
		<stop  offset="0" style="stop-color:#811B56"/>
		<stop  offset="1" style="stop-color:#5C56A5"/>
	</linearGradient>
	<polyline fill="none" stroke="url(#SVGID_7_)" stroke-width="2" stroke-linejoin="round" stroke-miterlimit="10" points="
		102.032,85.193 109.517,92.678 117,85.193 	"/>
	<linearGradient id="SVGID_8_" gradientUnits="userSpaceOnUse" x1="0.293" y1="28.9189" x2="16.6738" y2="28.9189">
		<stop  offset="0" style="stop-color:#811B56"/>
		<stop  offset="1" style="stop-color:#5C56A5"/>
	</linearGradient>
	<polyline fill="none" stroke="url(#SVGID_8_)" stroke-width="2" stroke-linejoin="round" stroke-miterlimit="10" points="1,32.807 
		8.483,25.324 15.967,32.807 	"/>
	<linearGradient id="SVGID_9_" gradientUnits="userSpaceOnUse" x1="116" y1="54.5" x2="118" y2="54.5">
		<stop  offset="0" style="stop-color:#811B56"/>
		<stop  offset="1" style="stop-color:#5C56A5"/>
	</linearGradient>
	
		<line fill="none" stroke="url(#SVGID_9_)" stroke-width="2" stroke-linejoin="round" stroke-miterlimit="10" x1="117" y1="80" x2="117" y2="29"/>
	<linearGradient id="SVGID_10_" gradientUnits="userSpaceOnUse" x1="0" y1="63.5" x2="2" y2="63.5">
		<stop  offset="0" style="stop-color:#811B56"/>
		<stop  offset="1" style="stop-color:#5C56A5"/>
	</linearGradient>
	
		<line fill="none" stroke="url(#SVGID_10_)" stroke-width="2" stroke-linejoin="round" stroke-miterlimit="10" x1="1" y1="38" x2="1" y2="89"/>
	<linearGradient id="SVGID_11_" gradientUnits="userSpaceOnUse" x1="38" y1="117" x2="89" y2="117">
		<stop  offset="0" style="stop-color:#811B56"/>
		<stop  offset="1" style="stop-color:#5C56A5"/>
	</linearGradient>
	
		<line fill="none" stroke="url(#SVGID_11_)" stroke-width="2" stroke-linejoin="round" stroke-miterlimit="10" x1="38" y1="117" x2="89" y2="117"/>
	<linearGradient id="SVGID_12_" gradientUnits="userSpaceOnUse" x1="29" y1="1" x2="80" y2="1">
		<stop  offset="0" style="stop-color:#811B56"/>
		<stop  offset="1" style="stop-color:#5C56A5"/>
	</linearGradient>
	
		<line fill="none" stroke="url(#SVGID_12_)" stroke-width="2" stroke-linejoin="round" stroke-miterlimit="10" x1="80" y1="1" x2="29" y2="1"/>
	<linearGradient id="SVGID_13_" gradientUnits="userSpaceOnUse" x1="108" y1="117" x2="112" y2="117">
		<stop  offset="0" style="stop-color:#811B56"/>
		<stop  offset="1" style="stop-color:#5C56A5"/>
	</linearGradient>
	
		<line fill="none" stroke="url(#SVGID_13_)" stroke-width="2" stroke-linejoin="round" stroke-miterlimit="10" x1="112" y1="117" x2="108" y2="117"/>
	<linearGradient id="SVGID_14_" gradientUnits="userSpaceOnUse" x1="100" y1="117" x2="104" y2="117">
		<stop  offset="0" style="stop-color:#811B56"/>
		<stop  offset="1" style="stop-color:#5C56A5"/>
	</linearGradient>
	
		<line fill="none" stroke="url(#SVGID_14_)" stroke-width="2" stroke-linejoin="round" stroke-miterlimit="10" x1="104" y1="117" x2="100" y2="117"/>
	<linearGradient id="SVGID_15_" gradientUnits="userSpaceOnUse" x1="93" y1="117" x2="96" y2="117">
		<stop  offset="0" style="stop-color:#811B56"/>
		<stop  offset="1" style="stop-color:#5C56A5"/>
	</linearGradient>
	
		<line fill="none" stroke="url(#SVGID_15_)" stroke-width="2" stroke-linejoin="round" stroke-miterlimit="10" x1="96" y1="117" x2="93" y2="117"/>
	<linearGradient id="SVGID_16_" gradientUnits="userSpaceOnUse" x1="22" y1="1" x2="25" y2="1">
		<stop  offset="0" style="stop-color:#811B56"/>
		<stop  offset="1" style="stop-color:#5C56A5"/>
	</linearGradient>
	
		<line fill="none" stroke="url(#SVGID_16_)" stroke-width="2" stroke-linejoin="round" stroke-miterlimit="10" x1="25" y1="1" x2="22" y2="1"/>
	<linearGradient id="SVGID_17_" gradientUnits="userSpaceOnUse" x1="14" y1="1" x2="18" y2="1">
		<stop  offset="0" style="stop-color:#811B56"/>
		<stop  offset="1" style="stop-color:#5C56A5"/>
	</linearGradient>
	
		<line fill="none" stroke="url(#SVGID_17_)" stroke-width="2" stroke-linejoin="round" stroke-miterlimit="10" x1="18" y1="1" x2="14" y2="1"/>
	<linearGradient id="SVGID_18_" gradientUnits="userSpaceOnUse" x1="6" y1="1" x2="10" y2="1">
		<stop  offset="0" style="stop-color:#811B56"/>
		<stop  offset="1" style="stop-color:#5C56A5"/>
	</linearGradient>
	
		<line fill="none" stroke="url(#SVGID_18_)" stroke-width="2" stroke-linejoin="round" stroke-miterlimit="10" x1="10" y1="1" x2="6" y2="1"/>
	<linearGradient id="SVGID_19_" gradientUnits="userSpaceOnUse" x1="0" y1="110" x2="2" y2="110">
		<stop  offset="0" style="stop-color:#811B56"/>
		<stop  offset="1" style="stop-color:#5C56A5"/>
	</linearGradient>
	
		<line fill="none" stroke="url(#SVGID_19_)" stroke-width="2" stroke-linejoin="round" stroke-miterlimit="10" x1="1" y1="112" x2="1" y2="108"/>
	<linearGradient id="SVGID_20_" gradientUnits="userSpaceOnUse" x1="0" y1="102" x2="2" y2="102">
		<stop  offset="0" style="stop-color:#811B56"/>
		<stop  offset="1" style="stop-color:#5C56A5"/>
	</linearGradient>
	
		<line fill="none" stroke="url(#SVGID_20_)" stroke-width="2" stroke-linejoin="round" stroke-miterlimit="10" x1="1" y1="104" x2="1" y2="100"/>
	<linearGradient id="SVGID_21_" gradientUnits="userSpaceOnUse" x1="0" y1="94.5" x2="2" y2="94.5">
		<stop  offset="0" style="stop-color:#811B56"/>
		<stop  offset="1" style="stop-color:#5C56A5"/>
	</linearGradient>
	
		<line fill="none" stroke="url(#SVGID_21_)" stroke-width="2" stroke-linejoin="round" stroke-miterlimit="10" x1="1" y1="96" x2="1" y2="93"/>
	<linearGradient id="SVGID_22_" gradientUnits="userSpaceOnUse" x1="116" y1="23.5" x2="118" y2="23.5">
		<stop  offset="0" style="stop-color:#811B56"/>
		<stop  offset="1" style="stop-color:#5C56A5"/>
	</linearGradient>
	
		<line fill="none" stroke="url(#SVGID_22_)" stroke-width="2" stroke-linejoin="round" stroke-miterlimit="10" x1="117" y1="25" x2="117" y2="22"/>
	<linearGradient id="SVGID_23_" gradientUnits="userSpaceOnUse" x1="116" y1="16" x2="118" y2="16">
		<stop  offset="0" style="stop-color:#811B56"/>
		<stop  offset="1" style="stop-color:#5C56A5"/>
	</linearGradient>
	
		<line fill="none" stroke="url(#SVGID_23_)" stroke-width="2" stroke-linejoin="round" stroke-miterlimit="10" x1="117" y1="18" x2="117" y2="14"/>
	<linearGradient id="SVGID_24_" gradientUnits="userSpaceOnUse" x1="116" y1="8" x2="118" y2="8">
		<stop  offset="0" style="stop-color:#811B56"/>
		<stop  offset="1" style="stop-color:#5C56A5"/>
	</linearGradient>
	
		<line fill="none" stroke="url(#SVGID_24_)" stroke-width="2" stroke-linejoin="round" stroke-miterlimit="10" x1="117" y1="10" x2="117" y2="6"/>
</g>
<linearGradient id="SVGID_25_" gradientUnits="userSpaceOnUse" x1="20.6533" y1="58.6792" x2="97.3467" y2="58.6792">
	<stop  offset="0" style="stop-color:#811B56"/>
	<stop  offset="1" style="stop-color:#5C56A5"/>
</linearGradient>
<path fill="none" stroke="url(#SVGID_25_)" stroke-width="2" stroke-linejoin="round" stroke-miterlimit="10" d="M22.743,68.11
	c-0.616-2.462-0.987-5.012-1.09-7.638l9.425-4.296c0.078-0.785,0.208-1.554,0.349-2.319l-7.861-6.806
	c0.829-2.462,1.91-4.802,3.211-7.005l10.281,1.484c0.484-0.606,0.999-1.186,1.531-1.751l-2.939-9.991
	c2.002-1.603,4.177-2.989,6.484-4.158l7.854,6.813c0.732-0.249,1.478-0.46,2.234-0.648l2.934-10.018
	c1.265-0.129,2.547-0.195,3.845-0.195s2.58,0.066,3.845,0.195l2.934,10.018c0.757,0.188,1.502,0.399,2.234,0.648l7.854-6.813
	c2.308,1.169,4.482,2.556,6.483,4.158l-2.938,9.991c0.531,0.565,1.047,1.145,1.531,1.751l10.281-1.484
	c1.301,2.203,2.382,4.542,3.211,7.005l-7.861,6.806c0.141,0.765,0.271,1.534,0.349,2.319l9.425,4.296
	c-0.103,2.626-0.474,5.176-1.09,7.638l-10.271,1.469c-0.296,0.724-0.629,1.429-0.981,2.12l5.63,8.751
	c-1.48,2.112-3.182,4.053-5.058,5.814l-9.446-4.319c-0.633,0.445-1.29,0.858-1.963,1.253l0.007,10.426
	c-2.353,0.963-4.826,1.681-7.39,2.152l-5.629-8.771c-0.386,0.017-0.764,0.059-1.155,0.059s-0.77-0.042-1.155-0.059l-5.629,8.771
	c-2.563-0.472-5.037-1.189-7.391-2.152l0.008-10.426c-0.673-0.395-1.33-0.808-1.963-1.253l-9.446,4.319
	c-1.876-1.762-3.577-3.702-5.058-5.814l5.63-8.751c-0.353-0.691-0.686-1.396-0.981-2.12L22.743,68.11z"/>
<linearGradient id="SVGID_26_" gradientUnits="userSpaceOnUse" x1="39.29" y1="59.001" x2="78.71" y2="59.001">
	<stop  offset="0" style="stop-color:#811B56"/>
	<stop  offset="1" style="stop-color:#5C56A5"/>
</linearGradient>
<circle fill="none" stroke="url(#SVGID_26_)" stroke-width="2" stroke-linejoin="round" stroke-miterlimit="10" cx="59" cy="59.001" r="18.71"/>
<linearGradient id="SVGID_27_" gradientUnits="userSpaceOnUse" x1="55.6289" y1="59.001" x2="62.3711" y2="59.001">
	<stop  offset="0" style="stop-color:#811B56"/>
	<stop  offset="1" style="stop-color:#5C56A5"/>
</linearGradient>
<circle fill="none" stroke="url(#SVGID_27_)" stroke-width="2" stroke-linejoin="round" stroke-miterlimit="10" cx="59" cy="59.001" r="2.371"/>
<linearGradient id="SVGID_28_" gradientUnits="userSpaceOnUse" x1="50.8877" y1="59.0005" x2="67.1123" y2="59.0005">
	<stop  offset="0" style="stop-color:#811B56"/>
	<stop  offset="1" style="stop-color:#5C56A5"/>
</linearGradient>
<circle fill="none" stroke="url(#SVGID_28_)" stroke-width="2" stroke-linejoin="round" stroke-miterlimit="10" cx="59" cy="59.001" r="7.112"/>
</svg>
