<?xml version="1.0" encoding="utf-8"?>
<!-- Generator: Adobe Illustrator 16.0.0, SVG Export Plug-In . SVG Version: 6.00 Build 0)  -->
<!DOCTYPE svg PUBLIC "-//W3C//DTD SVG 1.1//EN" "http://www.w3.org/Graphics/SVG/1.1/DTD/svg11.dtd">
<svg version="1.1" id="Layer_1" xmlns="http://www.w3.org/2000/svg" xmlns:xlink="http://www.w3.org/1999/xlink" x="0px" y="0px"
	 width="115px" height="115px" viewBox="0 0 115 115" enable-background="new 0 0 115 115" xml:space="preserve">
<g>
	<defs>
		<rect id="SVGID_1_" x="-1190.528" y="-4768.999" width="1300.001" height="11200"/>
	</defs>
	<clipPath id="SVGID_2_">
		<use xlink:href="#SVGID_1_"  overflow="visible"/>
	</clipPath>
	<path clip-path="url(#SVGID_2_)" fill="#FFFFFF" d="M-443.853,43.751v3h-5v5.099c10.702,0.25,20.428,4.495,27.742,11.309
		l4.486-4.485l-2.146-2.146l2.121-2.121l6.43,6.429l-2.121,2.121l-2.162-2.161l-4.485,4.485
		c7.034,7.544,11.351,17.653,11.351,28.758c0,23.277-18.938,42.214-42.215,42.214s-42.215-18.937-42.215-42.214
		c0-11.104,4.316-21.214,11.351-28.759l-4.485-4.484l-2.161,2.161l-2.121-2.121l6.429-6.429l2.121,2.121l-2.146,2.146l4.485,4.485
		c7.087-6.601,16.436-10.801,26.743-11.284v-5.123h-4v-3H-443.853 M-449.853,133.251c21.623,0,39.215-17.591,39.215-39.214
		s-17.592-39.214-39.215-39.214s-39.215,17.591-39.215,39.214S-471.476,133.251-449.853,133.251 M-449.853,58.198
		c19.753,0,35.823,16.07,35.823,35.824c0,19.753-16.07,35.824-35.823,35.824s-35.823-16.071-35.823-35.824
		C-485.676,74.269-469.605,58.198-449.853,58.198 M-449.853,126.847c18.099,0,32.823-14.726,32.823-32.824
		c0-18.1-14.725-32.824-32.823-32.824s-32.823,14.725-32.823,32.824C-482.676,112.121-467.951,126.847-449.853,126.847
		 M-448.853,72.751h-2v-3h2V72.751z M-431.853,80.751h-5v-3h5V80.751z M-463.853,80.751h-4v-3h4V80.751z M-449.853,90.232
		c1.641,0,3.029,1.056,3.554,2.519h14.446v3h-14.649c-0.631,1.217-1.889,2.059-3.351,2.059c-2.089,0-3.789-1.699-3.789-3.787
		C-453.642,91.933-451.941,90.232-449.853,90.232 M-449.853,94.81v-1.577c-0.436,0-0.789,0.354-0.789,0.79
		C-450.642,94.456-450.288,94.81-449.853,94.81 M-422.853,95.751h-5v-3h5V95.751z M-471.853,95.751h-5v-3h5V95.751z
		 M-431.853,111.751h-5v-3h5V111.751z M-463.853,111.751h-4v-3h4V111.751z M-448.853,119.751h-2v-3h2V119.751z M-435.853,35.751h-8
		h-12h-8v8v2.073c-4.02,1.172-7.881,2.844-11.493,4.979l-2.053-2.055l-5.657-5.657l-5.657,5.657l-6.429,6.429l-5.657,5.657
		l5.657,5.656l2.046,2.047c-4.542,7.669-6.972,16.438-6.972,25.5c0,27.688,22.525,50.214,50.215,50.214
		c27.688,0,50.215-22.525,50.215-50.214c0-9.062-2.43-17.83-6.972-25.5l2.047-2.047l5.657-5.657l-5.658-5.656l-6.43-6.429
		l-5.656-5.656l-5.657,5.656l-2.052,2.053c-3.612-2.135-7.475-3.805-11.494-4.973v-2.077V35.751z M-455.853,80.751h5h2h4v2.605
		c-1.535-0.725-3.236-1.124-5-1.124c-2.189,0-4.242,0.601-6,1.646V80.751z M-463.853,88.751h3.456
		c-0.797,1.588-1.245,3.377-1.245,5.271c0,2.5,0.782,4.82,2.114,6.729h-4.325v-5v-3V88.751z M-455.853,108.751v-4.585
		c1.758,1.044,3.811,1.644,6,1.644c1.764,0,3.464-0.391,5-1.113v4.055h-4h-2H-455.853z"/>
</g>
<g>
	<defs>
		<path id="SVGID_3_" d="M69.783,78.042v-9h6.002v11.5l-0.652-0.652l-2.154,2.152H68.58l-2.152-2.152l-2.154,2.152h-4.396
			l-2.152-2.152l-2.153,2.152h-4.398L49.02,79.89l-2.153,2.152h-6.083v-13h7.002v9H69.783z M54.784,51.789
			c0-1.705,1.637-3.205,3.499-3.205c1.865,0,3.5,1.5,3.5,3.205v6.255h-6.999V51.789z M19.312,54.8
			c0-6.507,5.344-11.802,11.91-11.802h5.501V37.5c0-9.647,7.942-17.495,17.711-17.495c7.055,0,12.514,3.187,15.379,8.978
			l1.514,3.061h4.865c5.016,0,7.559,2.395,7.559,7.123v5.498h5.498c5.305,0,9.01,4.123,9.01,10.026
			c0,6.451-5.152,11.719-11.559,11.904c-0.465-3.504-2.771-6.43-5.914-7.768v-7.038c0-12.846-9.883-22.908-22.502-22.908
			c-12.615,0-22.5,10.062-22.5,22.908v7.038c-3.137,1.336-5.441,4.256-5.911,7.75C23.938,65.909,19.312,60.882,19.312,54.8
			 M26.15,32.563C15.919,34.885,8.313,44.083,8.313,54.8c0,12.119,9.506,22.068,21.471,22.81v22.582
			c0,5.431,4.419,9.851,9.853,9.851h37.297c5.432,0,9.85-4.42,9.85-9.851V77.596c12.434-0.233,22.473-10.421,22.473-22.905
			c0-10.282-6.047-18.279-15.055-20.446c-1.787-7.598-7.834-12.539-16.246-13.141c-5.078-7.721-13.52-12.101-23.521-12.101
			C40.362,9.002,28.518,19.117,26.15,32.563"/>
	</defs>
	<clipPath id="SVGID_4_">
		<use xlink:href="#SVGID_3_"  overflow="visible"/>
	</clipPath>
	
		<linearGradient id="SVGID_5_" gradientUnits="userSpaceOnUse" x1="-597.9683" y1="5659.5801" x2="-596.9683" y2="5659.5801" gradientTransform="matrix(0 -101.0391 -101.0391 0 571897.375 -60308.1094)">
		<stop  offset="0" style="stop-color:#5D57A5"/>
		<stop  offset="1" style="stop-color:#811B56"/>
	</linearGradient>
	<rect x="8.313" y="9.003" clip-path="url(#SVGID_4_)" fill="url(#SVGID_5_)" width="100.942" height="101.039"/>
</g>
<g>
	<defs>
		<rect id="SVGID_6_" x="-852.642" y="-4939.978" width="1300.001" height="11200"/>
	</defs>
	<clipPath id="SVGID_7_">
		<use xlink:href="#SVGID_6_"  overflow="visible"/>
	</clipPath>
	<path clip-path="url(#SVGID_7_)" fill="#FFFFFF" d="M54.433,13.003c9.38,0,17.06,4.374,21.222,12.039h0.539
		c8.473,0,13.918,4.819,14.504,12.682c8.52,0.705,14.559,7.622,14.559,16.966c0,10.427-8.482,18.908-18.908,18.908v-3
		c8.771,0,15.908-7.137,15.908-15.908c0-8.127-5.471-14.025-13.006-14.025h-1.5v-1.5c0-6.965-4.32-11.123-11.557-11.123h-2.383
		l-0.412-0.835c-3.523-7.121-10.436-11.204-18.966-11.204c-11.973,0-21.713,9.642-21.713,21.495v1.5h-1.5
		c-8.771,0-15.907,7.088-15.907,15.802c0,8.74,7.136,15.854,15.907,15.854v3c-10.425,0-18.907-8.458-18.907-18.854
		c0-9.879,7.704-18.003,17.45-18.747C30.52,23.216,41.295,13.003,54.433,13.003 M58.284,32.88c10.374,0,18.501,8.306,18.501,18.909
		v10.253h0.148c3.227,0,5.852,2.625,5.852,5.852v32.297c0,3.227-2.625,5.852-5.852,5.852H39.636c-3.227,0-5.852-2.625-5.852-5.852
		V67.894c0-3.227,2.625-5.852,5.852-5.852h0.148V51.789C39.784,41.187,47.91,32.88,58.284,32.88 M42.784,62.042h31.001V51.789
		c0-8.921-6.809-15.909-15.501-15.909c-8.691,0-15.5,6.988-15.5,15.909V62.042 M36.784,94.042h3.738l5.001-5h-5.739v-3h8.739
		l0.496-0.496l0.497,0.496h7.711l0.496-0.496l0.496,0.496h7.712l0.496-0.496l0.496,0.496h7.713l0.496-0.496l0.496,0.496h4.156
		V67.894c0-1.572-1.279-2.852-2.852-2.852H39.636c-1.572,0-2.852,1.279-2.852,2.852V94.042 M70.877,94.042h6.908v3H36.784v3.148
		c0,1.572,1.279,2.852,2.852,2.852h37.298c1.572,0,2.852-1.279,2.852-2.852V89.042h-3.906L70.877,94.042 M71.637,89.042h-4.463l-5,5
		h4.461L71.637,89.042 M62.932,89.042h-4.463l-5,5h4.462L62.932,89.042 M54.228,89.042h-4.463l-5,5h4.463L54.228,89.042
		 M58.284,41.585c5.692,0,10.501,4.673,10.501,10.204v7.253h-3v-7.253c0-3.904-3.436-7.204-7.501-7.204s-7.5,3.299-7.5,7.204v7.253
		h-3v-7.253C47.784,46.258,52.593,41.585,58.284,41.585 M65.785,74.042h-3v-3h3V74.042z M59.785,74.042h-2.001v-3h2.001V74.042z
		 M54.784,74.042h-3v-3h3V74.042z M54.433,5.003c-15.146,0-28.024,10.293-31.677,24.36C12.024,32.937,4.313,43.096,4.313,54.8
		c0,12.948,9.231,23.787,21.472,26.303v19.088c0,7.638,6.214,13.852,13.852,13.852h37.298c7.637,0,13.852-6.214,13.852-13.852
		V81.233c12.734-2.121,22.471-13.215,22.471-26.543c0-11.151-6.377-20.285-15.83-23.643c-2.611-7.429-8.908-12.495-17.232-13.719
		C74.297,9.439,65.137,5.003,54.433,5.003 M43.554,29.292c2.51-3.213,6.452-5.288,10.879-5.288c1.972,0,3.777,0.313,5.384,0.919
		c-0.508-0.028-1.019-0.042-1.532-0.042C52.793,24.88,47.741,26.495,43.554,29.292 M27.291,61.613
		c-2.375-1.356-3.979-3.903-3.979-6.813c0-4.302,3.548-7.802,7.907-7.802h0.966c-0.265,1.551-0.401,3.151-0.401,4.791v4.698
		C29.895,57.794,28.343,59.556,27.291,61.613 M84.615,48.665h3.135h1.5c3.691,0,5.006,3.112,5.006,6.025
		c0,3.26-1.982,6.066-4.805,7.275c-1.051-2.211-2.67-4.1-4.666-5.479v-4.698C84.785,50.731,84.729,49.688,84.615,48.665"/>
</g>
</svg>
