<?xml version="1.0" encoding="utf-8"?>
<!-- Generator: Adobe Illustrator 16.0.0, SVG Export Plug-In . SVG Version: 6.00 Build 0)  -->
<!DOCTYPE svg PUBLIC "-//W3C//DTD SVG 1.1//EN" "http://www.w3.org/Graphics/SVG/1.1/DTD/svg11.dtd">
<svg version="1.1" id="Layer_1" xmlns="http://www.w3.org/2000/svg" xmlns:xlink="http://www.w3.org/1999/xlink" x="0px" y="0px"
	 width="46px" height="49px" viewBox="0 0 46 49" enable-background="new 0 0 46 49" xml:space="preserve">
<g>
	<g>
		<g>
			<g>
				<path fill="none" stroke="#FFFFFF" stroke-width="2" stroke-miterlimit="10" d="M29.857,28.908"/>
				<path fill="none" stroke="#FFFFFF" stroke-width="2" stroke-miterlimit="10" d="M1,49v-7.357c0-9.796,6.857-8.566,13.714-12.484
					"/>
				<path fill="none" stroke="#FFFFFF" stroke-width="2" stroke-miterlimit="10" d="M31.286,29.158
					C38.143,33.076,45,31.847,45,41.643V49"/>
				<polygon fill="none" stroke="#FFFFFF" stroke-width="2" stroke-miterlimit="10" points="26.918,32.826 23,30.867 19.082,32.826 
					15.163,28.908 17.123,25.969 23,26.949 28.877,25.969 30.837,28.908 				"/>
				<line fill="none" stroke="#FFFFFF" stroke-width="2" stroke-miterlimit="10" x1="28" y1="22" x2="28" y2="26"/>
				<line fill="none" stroke="#FFFFFF" stroke-width="2" stroke-miterlimit="10" x1="18" y1="26" x2="18" y2="22"/>
				<line fill="none" stroke="#FFFFFF" stroke-width="2" stroke-miterlimit="10" x1="22" y1="40" x2="24" y2="40"/>
				<line fill="none" stroke="#FFFFFF" stroke-width="2" stroke-miterlimit="10" x1="22" y1="36" x2="24" y2="36"/>
				<path fill="none" stroke="#FFFFFF" stroke-width="2" stroke-miterlimit="10" d="M32,9.316C32,3.365,28.951,0.5,23,0.5
					s-9,2.865-9,8.816v3.918c1,6.857,4.01,8.816,4.01,8.816c1.959,0.979,4.944,0.979,4.944,0.979s3.054,0,5.013-0.979
					c0,0,3.033-1.959,4.033-8.816V9.316z"/>
				<polyline fill="none" stroke="#FFFFFF" stroke-width="2" stroke-miterlimit="10" points="14.184,9.316 18.102,7.357 23,9.316 
					27.898,11.275 31.816,9.316 				"/>
				<line fill="none" stroke="#FFFFFF" stroke-width="2" stroke-miterlimit="10" x1="9" y1="49" x2="9" y2="43"/>
				<line fill="none" stroke="#FFFFFF" stroke-width="2" stroke-miterlimit="10" x1="37" y1="49" x2="37" y2="43"/>
			</g>
		</g>
	</g>
</g>
</svg>
