<?xml version="1.0" encoding="utf-8"?>
<!-- Generator: Adobe Illustrator 16.0.0, SVG Export Plug-In . SVG Version: 6.00 Build 0)  -->
<!DOCTYPE svg PUBLIC "-//W3C//DTD SVG 1.1//EN" "http://www.w3.org/Graphics/SVG/1.1/DTD/svg11.dtd">
<svg version="1.1" id="Layer_1" xmlns="http://www.w3.org/2000/svg" xmlns:xlink="http://www.w3.org/1999/xlink" x="0px" y="0px"
	 width="31px" height="36px" viewBox="0 0 31 36" enable-background="new 0 0 31 36" xml:space="preserve">
<g>
	<path fill="none" stroke="#FFFFFF" stroke-linecap="round" stroke-linejoin="round" stroke-miterlimit="10" d="M8.394,23.85
		c4.482,3.265,10.797,2.875,14.842-1.169c4.475-4.476,4.475-11.731,0-16.208c-4.477-4.476-11.732-4.476-16.208,0
		c-4.475,4.477-4.475,11.732,0,16.208c0.047,0.047,0.095,0.094,0.143,0.14 M11.09,18.619c-2.232-2.232-2.232-5.852,0-8.084
		s5.851-2.232,8.083,0s2.232,5.852,0,8.084S13.323,20.852,11.09,18.619z"/>
	
		<circle fill="none" stroke="#FFFFFF" stroke-linecap="round" stroke-linejoin="round" stroke-miterlimit="10" cx="15.132" cy="14.577" r="2.678"/>
	
		<circle fill="none" stroke="#FFFFFF" stroke-linecap="round" stroke-linejoin="round" stroke-miterlimit="10" cx="3.15" cy="3.522" r="0.444"/>
	
		<circle fill="none" stroke="#FFFFFF" stroke-linecap="round" stroke-linejoin="round" stroke-miterlimit="10" cx="5.053" cy="26.814" r="0.406"/>
	
		<circle fill="none" stroke="#FFFFFF" stroke-linecap="round" stroke-linejoin="round" stroke-miterlimit="10" cx="27.115" cy="3.522" r="0.443"/>
	
		<circle fill="none" stroke="#FFFFFF" stroke-linecap="round" stroke-linejoin="round" stroke-miterlimit="10" cx="3.15" cy="33.005" r="0.444"/>
	
		<circle fill="none" stroke="#FFFFFF" stroke-linecap="round" stroke-linejoin="round" stroke-miterlimit="10" cx="27.115" cy="33.005" r="0.443"/>
	<path fill="none" stroke="#FFFFFF" stroke-linecap="round" stroke-linejoin="round" stroke-miterlimit="10" d="M27.373,35.764
		H2.891c-1.381,0-2.5-1.119-2.5-2.5v-30c0-1.381,1.119-2.5,2.5-2.5h24.482c1.381,0,2.5,1.119,2.5,2.5v30
		C29.873,34.645,28.754,35.764,27.373,35.764z"/>
	<path fill="none" stroke="#FFFFFF" stroke-linecap="round" stroke-linejoin="round" stroke-miterlimit="10" d="M6.753,28.129
		c-0.728,0.927-2.069,1.088-2.996,0.359c-0.926-0.729-1.087-2.069-0.359-2.996c0.582-0.739,4.519-3.548,6.082-4.649
		c0.191-0.135,0.439,0.061,0.354,0.278C9.133,22.9,7.334,27.39,6.753,28.129z"/>
	
		<line fill="none" stroke="#FFFFFF" stroke-linecap="round" stroke-linejoin="round" stroke-miterlimit="10" x1="10.154" y1="35.764" x2="10.154" y2="31.09"/>
	
		<line fill="none" stroke="#FFFFFF" stroke-linecap="round" stroke-linejoin="round" stroke-miterlimit="10" x1="13.473" y1="35.764" x2="13.473" y2="32.608"/>
	
		<line fill="none" stroke="#FFFFFF" stroke-linecap="round" stroke-linejoin="round" stroke-miterlimit="10" x1="16.792" y1="35.764" x2="16.792" y2="32.608"/>
	
		<line fill="none" stroke="#FFFFFF" stroke-linecap="round" stroke-linejoin="round" stroke-miterlimit="10" x1="20.111" y1="35.764" x2="20.111" y2="31.09"/>
</g>
</svg>
