<?xml version="1.0" encoding="utf-8"?>
<!-- Generator: Adobe Illustrator 16.0.0, SVG Export Plug-In . SVG Version: 6.00 Build 0)  -->
<!DOCTYPE svg PUBLIC "-//W3C//DTD SVG 1.1//EN" "http://www.w3.org/Graphics/SVG/1.1/DTD/svg11.dtd">
<svg version="1.1" id="Layer_1" xmlns="http://www.w3.org/2000/svg" xmlns:xlink="http://www.w3.org/1999/xlink" x="0px" y="0px"
	 width="74px" height="74px" viewBox="0 0 74 74" enable-background="new 0 0 74 74" xml:space="preserve">
<g>
	<g>
		<g>
			<linearGradient id="SVGID_1_" gradientUnits="userSpaceOnUse" x1="29.0322" y1="47.4512" x2="31.0322" y2="47.4512">
				<stop  offset="0" style="stop-color:#811B56"/>
				<stop  offset="1" style="stop-color:#5C56A5"/>
			</linearGradient>
			
				<line fill="none" stroke="url(#SVGID_1_)" stroke-width="2" stroke-miterlimit="10" x1="30.032" y1="50.936" x2="30.032" y2="43.968"/>
			<linearGradient id="SVGID_2_" gradientUnits="userSpaceOnUse" x1="42.9678" y1="47.4512" x2="44.9678" y2="47.4512">
				<stop  offset="0" style="stop-color:#811B56"/>
				<stop  offset="1" style="stop-color:#5C56A5"/>
			</linearGradient>
			
				<line fill="none" stroke="url(#SVGID_2_)" stroke-width="2" stroke-miterlimit="10" x1="43.968" y1="50.936" x2="43.968" y2="43.968"/>
			<linearGradient id="SVGID_3_" gradientUnits="userSpaceOnUse" x1="25.3872" y1="22.7559" x2="49.7744" y2="22.7559">
				<stop  offset="0" style="stop-color:#811B56"/>
				<stop  offset="1" style="stop-color:#5C56A5"/>
			</linearGradient>
			<path fill="none" stroke="url(#SVGID_3_)" stroke-width="2" stroke-miterlimit="10" d="M49.774,27.709h-1.161
				c-1.283,0-2.322-1.04-2.322-2.322v-2.323c0-1.283-1.041-2.323-2.323-2.323v-2.322l-4.646,2.322h-9.29
				c-1.283,0-2.323,1.04-2.323,2.323v2.323c0,1.282-1.04,2.322-2.322,2.322"/>
			<linearGradient id="SVGID_4_" gradientUnits="userSpaceOnUse" x1="24.2256" y1="27.7095" x2="25.3872" y2="27.7095">
				<stop  offset="0" style="stop-color:#811B56"/>
				<stop  offset="1" style="stop-color:#5C56A5"/>
			</linearGradient>
			
				<line fill="none" stroke="url(#SVGID_4_)" stroke-width="2" stroke-miterlimit="10" x1="25.387" y1="27.709" x2="24.226" y2="27.709"/>
			<linearGradient id="SVGID_5_" gradientUnits="userSpaceOnUse" x1="23.2256" y1="28.8711" x2="50.7744" y2="28.8711">
				<stop  offset="0" style="stop-color:#811B56"/>
				<stop  offset="1" style="stop-color:#5C56A5"/>
			</linearGradient>
			<path fill="none" stroke="url(#SVGID_5_)" stroke-width="2" stroke-miterlimit="10" d="M24.226,18.419v12.774l1.162,1.162
				c0,5.806,3.484,13.935,11.613,13.935s11.613-8.129,11.613-13.935l1.161-1.162V16.097c0-2.565-2.08-4.645-4.646-4.645H32.355
				c-1.923,0-3.484,1.561-3.484,3.484h-1.162C25.786,14.936,24.226,16.496,24.226,18.419z"/>
			<linearGradient id="SVGID_6_" gradientUnits="userSpaceOnUse" x1="19.9946" y1="55.6318" x2="38" y2="55.6318">
				<stop  offset="0" style="stop-color:#811B56"/>
				<stop  offset="1" style="stop-color:#5C56A5"/>
			</linearGradient>
			<polygon fill="none" stroke="url(#SVGID_6_)" stroke-width="2" stroke-miterlimit="10" points="32.355,60.226 21.903,55.58 
				27.709,50.936 37,53.258 37,55.58 			"/>
			<linearGradient id="SVGID_7_" gradientUnits="userSpaceOnUse" x1="36" y1="55.6318" x2="54.0049" y2="55.6318">
				<stop  offset="0" style="stop-color:#811B56"/>
				<stop  offset="1" style="stop-color:#5C56A5"/>
			</linearGradient>
			<polygon fill="none" stroke="url(#SVGID_7_)" stroke-width="2" stroke-miterlimit="10" points="41.645,60.226 52.097,55.58 
				46.291,50.936 37,53.258 37,55.58 			"/>
			<linearGradient id="SVGID_8_" gradientUnits="userSpaceOnUse" x1="36" y1="67.1934" x2="38" y2="67.1934">
				<stop  offset="0" style="stop-color:#811B56"/>
				<stop  offset="1" style="stop-color:#5C56A5"/>
			</linearGradient>
			<line fill="none" stroke="url(#SVGID_8_)" stroke-width="2" stroke-miterlimit="10" x1="37" y1="66.032" x2="37" y2="68.355"/>
			<linearGradient id="SVGID_9_" gradientUnits="userSpaceOnUse" x1="36" y1="62.5479" x2="38" y2="62.5479">
				<stop  offset="0" style="stop-color:#811B56"/>
				<stop  offset="1" style="stop-color:#5C56A5"/>
			</linearGradient>
			<line fill="none" stroke="url(#SVGID_9_)" stroke-width="2" stroke-miterlimit="10" x1="37" y1="61.387" x2="37" y2="63.709"/>
			<linearGradient id="SVGID_10_" gradientUnits="userSpaceOnUse" x1="0" y1="28.6455" x2="74" y2="28.6455">
				<stop  offset="0" style="stop-color:#811B56"/>
				<stop  offset="1" style="stop-color:#5C56A5"/>
			</linearGradient>
			<path fill="none" stroke="url(#SVGID_10_)" stroke-width="2" stroke-linejoin="round" stroke-miterlimit="10" d="M67.193,56.742
				C70.918,51.074,73,44.289,73,37C73,17.117,56.883,1,37,1S1,17.117,1,37c0,7.291,2.081,14.072,5.807,19.742"/>
			<linearGradient id="SVGID_11_" gradientUnits="userSpaceOnUse" x1="10.4517" y1="64.3164" x2="63.5488" y2="64.3164">
				<stop  offset="0" style="stop-color:#811B56"/>
				<stop  offset="1" style="stop-color:#5C56A5"/>
			</linearGradient>
			<path fill="none" stroke="url(#SVGID_11_)" stroke-width="2" stroke-miterlimit="10" d="M52.097,55.58l3.483,1.162
				c6.969,2.322,6.969,5.807,6.969,5.807C56.025,69.137,47.006,73,37,73c-9.932,0-19.034-3.947-25.548-10.451
				c0,0,0-3.484,6.968-5.807l3.484-1.162"/>
			<linearGradient id="SVGID_12_" gradientUnits="userSpaceOnUse" x1="0.8037" y1="54.2402" x2="8.9482" y2="54.2402">
				<stop  offset="0" style="stop-color:#811B56"/>
				<stop  offset="1" style="stop-color:#5C56A5"/>
			</linearGradient>
			<polyline fill="none" stroke="url(#SVGID_12_)" stroke-width="2" stroke-linejoin="round" stroke-miterlimit="10" points="
				7.968,50.936 6.807,56.742 1,55.58 			"/>
			<linearGradient id="SVGID_13_" gradientUnits="userSpaceOnUse" x1="65.0518" y1="54.2402" x2="73.1963" y2="54.2402">
				<stop  offset="0" style="stop-color:#811B56"/>
				<stop  offset="1" style="stop-color:#5C56A5"/>
			</linearGradient>
			<polyline fill="none" stroke="url(#SVGID_13_)" stroke-width="2" stroke-linejoin="round" stroke-miterlimit="10" points="
				66.032,50.936 67.193,56.742 73,55.58 			"/>
		</g>
	</g>
</g>
</svg>
