<?xml version="1.0" encoding="utf-8"?>
<!-- Generator: Adobe Illustrator 16.0.0, SVG Export Plug-In . SVG Version: 6.00 Build 0)  -->
<!DOCTYPE svg PUBLIC "-//W3C//DTD SVG 1.1//EN" "http://www.w3.org/Graphics/SVG/1.1/DTD/svg11.dtd">
<svg version="1.1" id="Layer_1" xmlns="http://www.w3.org/2000/svg" xmlns:xlink="http://www.w3.org/1999/xlink" x="0px" y="0px"
	 width="105px" height="125px" viewBox="0 0 105 125" enable-background="new 0 0 105 125" xml:space="preserve">
<g>
	<defs>
		<path id="SVGID_1_" d="M47.011,41.966h10V30.967h-10V41.966z M52.011,30.413c7.997,0,15.247,3.275,20.473,8.554H61.012v10.999h13
			v-9.333c3.174,3.748,5.408,8.315,6.342,13.333H57.727c-1.445-1.569-3.506-2.519-5.715-2.519c-4.295,0-7.789,3.494-7.789,7.789
			c0,4.295,3.494,7.79,7.789,7.79c1.985,0,3.848-0.754,5.258-2.059h22.994c-0.98,4.838-3.176,9.24-6.252,12.875v-7.875h-13v11h9.92
			c-3.873,3.375-8.654,5.736-13.92,6.662v-9.662h-10v9.662c-5.268-0.926-10.046-3.287-13.919-6.662h8.918v-11H30.011v7.875
			c-3.075-3.635-5.27-8.037-6.251-12.875h10.251V53.966H23.67c0.933-5.018,3.167-9.585,6.341-13.333v9.333H42.01V38.967H31.538
			C36.765,33.688,44.012,30.413,52.011,30.413 M42.01,4.967v9.172c-5.733,1.279-11.187,3.645-16.052,6.973l-7.151-7.147L6.72,26.048
			l7.148,7.146c-5.242,7.642-8.072,16.682-8.072,26.059c0,25.483,20.732,46.214,46.215,46.214c25.483,0,46.215-20.73,46.215-46.214
			c0-9.377-2.83-18.417-8.072-26.059l7.148-7.146l-12.09-12.083l-7.146,7.147c-4.867-3.331-10.316-5.691-16.057-6.965v-9.18H42.01z"
			/>
	</defs>
	<clipPath id="SVGID_2_">
		<use xlink:href="#SVGID_1_"  overflow="visible"/>
	</clipPath>
	
		<linearGradient id="SVGID_3_" gradientUnits="userSpaceOnUse" x1="-604.3008" y1="5663.4111" x2="-603.3008" y2="5663.4111" gradientTransform="matrix(0 -100.5 -100.5 0 569224.875 -60626.75)">
		<stop  offset="0" style="stop-color:#5D57A5"/>
		<stop  offset="1" style="stop-color:#811B56"/>
	</linearGradient>
	<rect x="5.796" y="4.967" clip-path="url(#SVGID_2_)" fill="url(#SVGID_3_)" width="92.43" height="100.5"/>
</g>
<g>
	<defs>
		<rect id="SVGID_4_" x="-688.665" y="-4803.784" width="1300" height="11200.001"/>
	</defs>
	<clipPath id="SVGID_5_">
		<use xlink:href="#SVGID_4_"  overflow="visible"/>
	</clipPath>
	<path clip-path="url(#SVGID_5_)" fill="#FFFFFF" d="M58.012,8.966v3h-5v5.098c10.701,0.251,20.428,4.496,27.742,11.309l4.486-4.486
		l-2.146-2.146l2.121-2.121l6.43,6.429l-2.121,2.121l-2.162-2.162l-4.486,4.486c7.035,7.544,11.352,17.654,11.352,28.758
		c0,23.277-18.938,42.215-42.215,42.215c-23.277,0-42.215-18.938-42.215-42.215c0-11.104,4.316-21.214,11.351-28.759l-4.485-4.485
		L14.5,28.17l-2.121-2.121l6.429-6.429l2.121,2.121l-2.146,2.146l4.485,4.486c7.087-6.6,16.436-10.801,26.743-11.284v-5.123h-4v-3
		H58.012 M52.011,98.467c21.624,0,39.215-17.592,39.215-39.215S73.635,20.038,52.011,20.038c-21.623,0-39.215,17.591-39.215,39.214
		S30.388,98.467,52.011,98.467 M52.011,23.413c19.752,0,35.823,16.071,35.823,35.824c0,19.753-16.07,35.825-35.823,35.825
		c-19.753,0-35.823-16.072-35.823-35.825C16.188,39.484,32.258,23.413,52.011,23.413 M52.011,92.063
		c18.098,0,32.823-14.727,32.823-32.825c0-18.099-14.725-32.824-32.823-32.824c-18.099,0-32.823,14.725-32.823,32.824
		C19.188,77.336,33.913,92.063,52.011,92.063 M53.012,37.966h-2v-3h2V37.966z M70.012,45.966h-5v-3h5V45.966z M38.011,45.966h-4v-3
		h4V45.966z M52.011,55.447c1.641,0,3.03,1.056,3.553,2.519h14.447v3h-14.65c-0.631,1.217-1.889,2.059-3.35,2.059
		c-2.089,0-3.789-1.699-3.789-3.788C48.222,57.148,49.922,55.447,52.011,55.447 M52.011,60.025v-1.578
		c-0.436,0-0.789,0.354-0.789,0.79C51.222,59.671,51.576,60.025,52.011,60.025 M79.012,60.966h-5v-3h5V60.966z M30.011,60.966h-5v-3
		h5V60.966z M70.012,76.967h-5v-3h5V76.967z M38.011,76.967h-4v-3h4V76.967z M53.012,84.967h-2v-3h2V84.967z M66.012,0.966h-8h-12
		h-8v8v2.073c-4.02,1.172-7.881,2.844-11.493,4.978l-2.053-2.054l-5.657-5.657l-5.657,5.657l-6.429,6.429l-5.657,5.657l5.657,5.656
		l2.046,2.047c-4.542,7.669-6.972,16.439-6.972,25.5c0,27.689,22.525,50.215,50.215,50.215c27.688,0,50.215-22.525,50.215-50.215
		c0-9.061-2.43-17.83-6.973-25.5l2.047-2.047l5.658-5.657l-5.658-5.656l-6.43-6.429l-5.656-5.656l-5.658,5.656l-2.051,2.052
		c-3.613-2.134-7.475-3.804-11.494-4.972V8.966V0.966z M46.011,45.966h5h2h4v2.605c-1.535-0.725-3.236-1.124-5-1.124
		c-2.189,0-4.242,0.601-6,1.645V45.966z M38.011,53.966h3.456c-0.797,1.587-1.245,3.377-1.245,5.271c0,2.5,0.782,4.821,2.114,6.729
		h-4.325v-5v-3V53.966z M46.011,73.967v-4.586c1.758,1.045,3.811,1.645,6,1.645c1.764,0,3.463-0.391,5-1.113v4.055h-4h-2H46.011z"/>
</g>
</svg>
