<?xml version="1.0" encoding="utf-8"?>
<!-- Generator: Adobe Illustrator 16.0.0, SVG Export Plug-In . SVG Version: 6.00 Build 0)  -->
<!DOCTYPE svg PUBLIC "-//W3C//DTD SVG 1.1//EN" "http://www.w3.org/Graphics/SVG/1.1/DTD/svg11.dtd">
<svg version="1.1" id="Layer_1" xmlns="http://www.w3.org/2000/svg" xmlns:xlink="http://www.w3.org/1999/xlink" x="0px" y="0px"
	 width="55px" height="62px" viewBox="0 0 55 62" enable-background="new 0 0 55 62" xml:space="preserve">
<polygon fill="#FFFFFF" points="41,8 35,8 33,0 43,0 "/>
<g>
	<path fill="#FFFFFF" d="M43.998,27.898C47,33,55,39,55,47c0,9.941-8.059,15-18,15s-18-5.059-18-15c0-8,8-14,10.999-19.101"/>
</g>
<line fill="none" stroke="#FFFFFF" stroke-width="2" stroke-linejoin="round" stroke-miterlimit="10" x1="16" y1="24" x2="14" y2="24"/>
<line fill="none" stroke="#FFFFFF" stroke-width="2" stroke-linejoin="round" stroke-miterlimit="10" x1="12" y1="24" x2="10" y2="24"/>
<path fill="none" stroke="#FFFFFF" stroke-width="2" stroke-linejoin="round" stroke-miterlimit="10" d="M0,8h18
	c0.553,0,1,0.447,1,1v18c0,0.553-0.447,1-1,1H4"/>
<path fill="none" stroke="#FFFFFF" stroke-width="2" stroke-linejoin="round" stroke-miterlimit="10" d="M32,8h13
	c1.104,0,2,0.896,2,2v1c0,1.104-0.896,2-2,2"/>
<path fill="none" stroke="#FFFFFF" stroke-width="2" stroke-linejoin="round" stroke-miterlimit="10" d="M43,13h3
	c1.104,0,2,0.896,2,2v1c0,1.104-0.896,2-2,2h-3"/>
<path fill="none" stroke="#FFFFFF" stroke-width="2" stroke-linejoin="round" stroke-miterlimit="10" d="M45,18c1.104,0,2,0.896,2,2
	v1c0,1.104-0.896,2-2,2h-3"/>
<path fill="none" stroke="#FFFFFF" stroke-width="2" stroke-linejoin="round" stroke-miterlimit="10" d="M19,26h5l8,2h12
	c1.104,0,2-0.896,2-2v-1c0-1.104-0.896-2-2-2l0,0"/>
<polyline fill="none" stroke="#FFFFFF" stroke-width="2" stroke-linejoin="round" stroke-miterlimit="10" points="33,3 28,4 22,10 
	19,10 "/>
<g>
	<g>
		<linearGradient id="SVGID_1_" gradientUnits="userSpaceOnUse" x1="32.6738" y1="49.3271" x2="41.3276" y2="40.6733">
			<stop  offset="0" style="stop-color:#811B56"/>
			<stop  offset="1" style="stop-color:#5D57A5"/>
		</linearGradient>
		<path fill="url(#SVGID_1_)" d="M37,52c-2.205,0-4-1.795-4-4h2c0,1.103,0.896,2,2,2s2-0.897,2-2c0-0.649-1.424-1.646-2.408-2.088
			C35.992,45.645,33,44.193,33,42c0-2.205,1.795-4,4-4s4,1.795,4,4h-2c0-1.103-0.896-2-2-2s-2,0.897-2,2
			c0,0.649,1.424,1.646,2.408,2.088C38.008,44.355,41,45.807,41,48C41,50.205,39.205,52,37,52z"/>
	</g>
	<g>
		<linearGradient id="SVGID_2_" gradientUnits="userSpaceOnUse" x1="35.75" y1="38.75" x2="38.25" y2="36.25">
			<stop  offset="0" style="stop-color:#811B56"/>
			<stop  offset="1" style="stop-color:#5D57A5"/>
		</linearGradient>
		<rect x="36" y="36" fill="url(#SVGID_2_)" width="2" height="3"/>
	</g>
	<g>
		<linearGradient id="SVGID_3_" gradientUnits="userSpaceOnUse" x1="35.75" y1="53.75" x2="38.25" y2="51.25">
			<stop  offset="0" style="stop-color:#811B56"/>
			<stop  offset="1" style="stop-color:#5D57A5"/>
		</linearGradient>
		<rect x="36" y="51" fill="url(#SVGID_3_)" width="2" height="3"/>
	</g>
	<g>
		<linearGradient id="SVGID_4_" gradientUnits="userSpaceOnUse" x1="43" y1="46" x2="45" y2="44">
			<stop  offset="0" style="stop-color:#811B56"/>
			<stop  offset="1" style="stop-color:#5D57A5"/>
		</linearGradient>
		<rect x="43" y="44" fill="url(#SVGID_4_)" width="2" height="2"/>
	</g>
	<g>
		<linearGradient id="SVGID_5_" gradientUnits="userSpaceOnUse" x1="29" y1="46" x2="31" y2="44">
			<stop  offset="0" style="stop-color:#811B56"/>
			<stop  offset="1" style="stop-color:#5D57A5"/>
		</linearGradient>
		<rect x="29" y="44" fill="url(#SVGID_5_)" width="2" height="2"/>
	</g>
</g>
</svg>
