<?xml version="1.0" encoding="utf-8"?>
<!-- Generator: Adobe Illustrator 16.0.0, SVG Export Plug-In . SVG Version: 6.00 Build 0)  -->
<!DOCTYPE svg PUBLIC "-//W3C//DTD SVG 1.1//EN" "http://www.w3.org/Graphics/SVG/1.1/DTD/svg11.dtd">
<svg version="1.1" id="Layer_1" xmlns="http://www.w3.org/2000/svg" xmlns:xlink="http://www.w3.org/1999/xlink" x="0px" y="0px"
	 width="217px" height="217px" viewBox="0 0 217 217" enable-background="new 0 0 217 217" xml:space="preserve">
<g>
	<g>
		<g>
			<linearGradient id="SVGID_1_" gradientUnits="userSpaceOnUse" x1="108" y1="155" x2="109" y2="155">
				<stop  offset="0" style="stop-color:#811B56"/>
				<stop  offset="1" style="stop-color:#5C56A5"/>
			</linearGradient>
			<line fill="none" stroke="url(#SVGID_1_)" stroke-miterlimit="10" x1="108.5" y1="146" x2="108.5" y2="164"/>
			<linearGradient id="SVGID_2_" gradientUnits="userSpaceOnUse" x1="15" y1="195.5" x2="22" y2="195.5">
				<stop  offset="0" style="stop-color:#811B56"/>
				<stop  offset="1" style="stop-color:#5C56A5"/>
			</linearGradient>
			<line fill="none" stroke="url(#SVGID_2_)" stroke-miterlimit="10" x1="15" y1="195.5" x2="22" y2="195.5"/>
			<linearGradient id="SVGID_3_" gradientUnits="userSpaceOnUse" x1="29" y1="195.5" x2="36" y2="195.5">
				<stop  offset="0" style="stop-color:#811B56"/>
				<stop  offset="1" style="stop-color:#5C56A5"/>
			</linearGradient>
			<line fill="none" stroke="url(#SVGID_3_)" stroke-miterlimit="10" x1="29" y1="195.5" x2="36" y2="195.5"/>
			<linearGradient id="SVGID_4_" gradientUnits="userSpaceOnUse" x1="43" y1="195.5" x2="50" y2="195.5">
				<stop  offset="0" style="stop-color:#811B56"/>
				<stop  offset="1" style="stop-color:#5C56A5"/>
			</linearGradient>
			<line fill="none" stroke="url(#SVGID_4_)" stroke-miterlimit="10" x1="43" y1="195.5" x2="50" y2="195.5"/>
			<linearGradient id="SVGID_5_" gradientUnits="userSpaceOnUse" x1="92" y1="195.5" x2="99" y2="195.5">
				<stop  offset="0" style="stop-color:#811B56"/>
				<stop  offset="1" style="stop-color:#5C56A5"/>
			</linearGradient>
			<line fill="none" stroke="url(#SVGID_5_)" stroke-miterlimit="10" x1="92" y1="195.5" x2="99" y2="195.5"/>
			<linearGradient id="SVGID_6_" gradientUnits="userSpaceOnUse" x1="106" y1="195.5" x2="112" y2="195.5">
				<stop  offset="0" style="stop-color:#811B56"/>
				<stop  offset="1" style="stop-color:#5C56A5"/>
			</linearGradient>
			<line fill="none" stroke="url(#SVGID_6_)" stroke-miterlimit="10" x1="106" y1="195.5" x2="112" y2="195.5"/>
			<linearGradient id="SVGID_7_" gradientUnits="userSpaceOnUse" x1="119" y1="195.5" x2="126" y2="195.5">
				<stop  offset="0" style="stop-color:#811B56"/>
				<stop  offset="1" style="stop-color:#5C56A5"/>
			</linearGradient>
			<line fill="none" stroke="url(#SVGID_7_)" stroke-miterlimit="10" x1="119" y1="195.5" x2="126" y2="195.5"/>
			<linearGradient id="SVGID_8_" gradientUnits="userSpaceOnUse" x1="168" y1="195.5" x2="175" y2="195.5">
				<stop  offset="0" style="stop-color:#811B56"/>
				<stop  offset="1" style="stop-color:#5C56A5"/>
			</linearGradient>
			<line fill="none" stroke="url(#SVGID_8_)" stroke-miterlimit="10" x1="168" y1="195.5" x2="175" y2="195.5"/>
			<linearGradient id="SVGID_9_" gradientUnits="userSpaceOnUse" x1="182" y1="195.5" x2="189" y2="195.5">
				<stop  offset="0" style="stop-color:#811B56"/>
				<stop  offset="1" style="stop-color:#5C56A5"/>
			</linearGradient>
			<line fill="none" stroke="url(#SVGID_9_)" stroke-miterlimit="10" x1="182" y1="195.5" x2="189" y2="195.5"/>
			<linearGradient id="SVGID_10_" gradientUnits="userSpaceOnUse" x1="196" y1="195.5" x2="203" y2="195.5">
				<stop  offset="0" style="stop-color:#811B56"/>
				<stop  offset="1" style="stop-color:#5C56A5"/>
			</linearGradient>
			<line fill="none" stroke="url(#SVGID_10_)" stroke-miterlimit="10" x1="196" y1="195.5" x2="203" y2="195.5"/>
			<linearGradient id="SVGID_11_" gradientUnits="userSpaceOnUse" x1="21" y1="63" x2="196" y2="63">
				<stop  offset="0" style="stop-color:#811B56"/>
				<stop  offset="1" style="stop-color:#5C56A5"/>
			</linearGradient>
			<path fill="none" stroke="url(#SVGID_11_)" stroke-miterlimit="10" d="M181.5,24V10.5H84.613l-10.452-10H21.5v114.467
				c0,5.773,4.726,10.452,10.5,10.452c5.773,0,10.5-4.679,10.5-10.452V24.5h153v101H32"/>
			<g>
				<linearGradient id="SVGID_12_" gradientUnits="userSpaceOnUse" x1="0" y1="192" x2="64" y2="192">
					<stop  offset="0" style="stop-color:#811B56"/>
					<stop  offset="1" style="stop-color:#5C56A5"/>
				</linearGradient>
				<polygon fill="none" stroke="url(#SVGID_12_)" stroke-linejoin="round" stroke-miterlimit="10" points="63.5,216.5 0.5,216.5 
					0.5,167.5 18.419,167.5 25.387,174.5 63.5,174.5 				"/>
			</g>
			<g>
				<linearGradient id="SVGID_13_" gradientUnits="userSpaceOnUse" x1="77" y1="192" x2="140" y2="192">
					<stop  offset="0" style="stop-color:#811B56"/>
					<stop  offset="1" style="stop-color:#5C56A5"/>
				</linearGradient>
				<polygon fill="none" stroke="url(#SVGID_13_)" stroke-linejoin="round" stroke-miterlimit="10" points="139.5,216.5 77.5,216.5 
					77.5,167.5 95.064,167.5 102.032,174.5 139.5,174.5 				"/>
			</g>
			<g>
				<linearGradient id="SVGID_14_" gradientUnits="userSpaceOnUse" x1="153" y1="192" x2="217" y2="192">
					<stop  offset="0" style="stop-color:#811B56"/>
					<stop  offset="1" style="stop-color:#5C56A5"/>
				</linearGradient>
				<polygon fill="none" stroke="url(#SVGID_14_)" stroke-linejoin="round" stroke-miterlimit="10" points="216.5,216.5 
					153.5,216.5 153.5,167.5 171.709,167.5 178.678,174.5 216.5,174.5 				"/>
			</g>
			<linearGradient id="SVGID_15_" gradientUnits="userSpaceOnUse" x1="31" y1="155" x2="186" y2="155">
				<stop  offset="0" style="stop-color:#811B56"/>
				<stop  offset="1" style="stop-color:#5C56A5"/>
			</linearGradient>
			<polyline fill="none" stroke="url(#SVGID_15_)" stroke-miterlimit="10" points="31.5,164 31.5,146.5 185.5,146.5 185.5,164 			
				"/>
			<linearGradient id="SVGID_16_" gradientUnits="userSpaceOnUse" x1="94" y1="89.2012" x2="147.3994" y2="89.2012">
				<stop  offset="0" style="stop-color:#811B56"/>
				<stop  offset="1" style="stop-color:#5C56A5"/>
			</linearGradient>
			<path fill="none" stroke="url(#SVGID_16_)" stroke-linejoin="round" stroke-miterlimit="10" d="M94.5,105V87.096
				c5,8.325,14.357,13.936,24.67,13.936c15.391,0,27.729-12.235,27.729-27.629"/>
			<linearGradient id="SVGID_17_" gradientUnits="userSpaceOnUse" x1="90.8262" y1="57.6289" x2="144" y2="57.6289">
				<stop  offset="0" style="stop-color:#811B56"/>
				<stop  offset="1" style="stop-color:#5C56A5"/>
			</linearGradient>
			<path fill="none" stroke="url(#SVGID_17_)" stroke-linejoin="round" stroke-miterlimit="10" d="M143.5,42v17.225
				c-5-8.325-13.906-13.936-24.218-13.936c-15.392,0-27.956,12.577-27.956,27.968"/>
			<linearGradient id="SVGID_18_" gradientUnits="userSpaceOnUse" x1="95" y1="87.5" x2="109" y2="87.5">
				<stop  offset="0" style="stop-color:#811B56"/>
				<stop  offset="1" style="stop-color:#5C56A5"/>
			</linearGradient>
			
				<line fill="none" stroke="url(#SVGID_18_)" stroke-linejoin="round" stroke-miterlimit="10" x1="95" y1="87.5" x2="109" y2="87.5"/>
			<linearGradient id="SVGID_19_" gradientUnits="userSpaceOnUse" x1="130" y1="59.5" x2="144" y2="59.5">
				<stop  offset="0" style="stop-color:#811B56"/>
				<stop  offset="1" style="stop-color:#5C56A5"/>
			</linearGradient>
			
				<line fill="none" stroke="url(#SVGID_19_)" stroke-linejoin="round" stroke-miterlimit="10" x1="144" y1="59.5" x2="130" y2="59.5"/>
			<linearGradient id="SVGID_20_" gradientUnits="userSpaceOnUse" x1="70" y1="135.5" x2="71" y2="135.5">
				<stop  offset="0" style="stop-color:#811B56"/>
				<stop  offset="1" style="stop-color:#5C56A5"/>
			</linearGradient>
			<line fill="none" stroke="url(#SVGID_20_)" stroke-miterlimit="10" x1="70.5" y1="125" x2="70.5" y2="146"/>
			<linearGradient id="SVGID_21_" gradientUnits="userSpaceOnUse" x1="146" y1="135.5" x2="147" y2="135.5">
				<stop  offset="0" style="stop-color:#811B56"/>
				<stop  offset="1" style="stop-color:#5C56A5"/>
			</linearGradient>
			<line fill="none" stroke="url(#SVGID_21_)" stroke-miterlimit="10" x1="146.5" y1="125" x2="146.5" y2="146"/>
		</g>
	</g>
</g>
</svg>
