<?xml version="1.0" encoding="utf-8"?>
<!-- Generator: Adobe Illustrator 16.0.0, SVG Export Plug-In . SVG Version: 6.00 Build 0)  -->
<!DOCTYPE svg PUBLIC "-//W3C//DTD SVG 1.1//EN" "http://www.w3.org/Graphics/SVG/1.1/DTD/svg11.dtd">
<svg version="1.1" id="Layer_1" xmlns="http://www.w3.org/2000/svg" xmlns:xlink="http://www.w3.org/1999/xlink" x="0px" y="0px"
	 width="256px" height="256px" viewBox="0 0 256 256" enable-background="new 0 0 256 256" xml:space="preserve">
<g>
	<g>
		<g>
			<g>
				<linearGradient id="SVGID_1_" gradientUnits="userSpaceOnUse" x1="40" y1="128.5" x2="48" y2="128.5">
					<stop  offset="0" style="stop-color:#811B56"/>
					<stop  offset="1" style="stop-color:#5C56A5"/>
				</linearGradient>
				<line fill="none" stroke="url(#SVGID_1_)" stroke-width="3" stroke-miterlimit="10" x1="40" y1="128.5" x2="48" y2="128.5"/>
				<linearGradient id="SVGID_2_" gradientUnits="userSpaceOnUse" x1="26" y1="10" x2="29" y2="10">
					<stop  offset="0" style="stop-color:#811B56"/>
					<stop  offset="1" style="stop-color:#5C56A5"/>
				</linearGradient>
				<line fill="none" stroke="url(#SVGID_2_)" stroke-width="3" stroke-miterlimit="10" x1="27.5" y1="20" x2="27.5" y2="0"/>
				<linearGradient id="SVGID_3_" gradientUnits="userSpaceOnUse" x1="26" y1="115" x2="85" y2="115">
					<stop  offset="0" style="stop-color:#811B56"/>
					<stop  offset="1" style="stop-color:#5C56A5"/>
				</linearGradient>
				<path fill="none" stroke="url(#SVGID_3_)" stroke-width="3" stroke-miterlimit="10" d="M83.5,88v52c0,2.211-1.289,4.5-3.5,4.5
					H32c-2.211,0-4.5-2.289-4.5-4.5V84"/>
				<linearGradient id="SVGID_4_" gradientUnits="userSpaceOnUse" x1="82" y1="12" x2="85" y2="12">
					<stop  offset="0" style="stop-color:#811B56"/>
					<stop  offset="1" style="stop-color:#5C56A5"/>
				</linearGradient>
				<line fill="none" stroke="url(#SVGID_4_)" stroke-width="3" stroke-miterlimit="10" x1="83.5" y1="0" x2="83.5" y2="24"/>
			</g>
			<g>
				<g>
					<g>
						<linearGradient id="SVGID_5_" gradientUnits="userSpaceOnUse" x1="2.5" y1="52.5" x2="112" y2="52.5">
							<stop  offset="0" style="stop-color:#811B56"/>
							<stop  offset="1" style="stop-color:#5C56A5"/>
						</linearGradient>
						<path fill="none" stroke="url(#SVGID_5_)" stroke-width="3" stroke-miterlimit="10" d="M112,32.5h-8l-40-12H28
							c-4.418,0-8,3.582-8,8s3.582,8,8,8h-8c-4.418,0-8,3.582-8,8s3.582,8,8,8h-8c-4.418,0-8,3.582-8,8s3.582,8,8,8h8
							c-4.418,0-8,3.582-8,8s3.582,8,8,8h36"/>
						<linearGradient id="SVGID_6_" gradientUnits="userSpaceOnUse" x1="20" y1="68.5" x2="44" y2="68.5">
							<stop  offset="0" style="stop-color:#811B56"/>
							<stop  offset="1" style="stop-color:#5C56A5"/>
						</linearGradient>
						<line fill="none" stroke="url(#SVGID_6_)" stroke-width="3" stroke-miterlimit="10" x1="20" y1="68.5" x2="44" y2="68.5"/>
						<linearGradient id="SVGID_7_" gradientUnits="userSpaceOnUse" x1="20" y1="52.5" x2="44" y2="52.5">
							<stop  offset="0" style="stop-color:#811B56"/>
							<stop  offset="1" style="stop-color:#5C56A5"/>
						</linearGradient>
						<line fill="none" stroke="url(#SVGID_7_)" stroke-width="3" stroke-miterlimit="10" x1="20" y1="52.5" x2="44" y2="52.5"/>
						<linearGradient id="SVGID_8_" gradientUnits="userSpaceOnUse" x1="28" y1="36.5" x2="44" y2="36.5">
							<stop  offset="0" style="stop-color:#811B56"/>
							<stop  offset="1" style="stop-color:#5C56A5"/>
						</linearGradient>
						<line fill="none" stroke="url(#SVGID_8_)" stroke-width="3" stroke-miterlimit="10" x1="28" y1="36.5" x2="44" y2="36.5"/>
						<linearGradient id="SVGID_9_" gradientUnits="userSpaceOnUse" x1="38.5" y1="90.5" x2="112" y2="90.5">
							<stop  offset="0" style="stop-color:#811B56"/>
							<stop  offset="1" style="stop-color:#5C56A5"/>
						</linearGradient>
						<path fill="none" stroke="url(#SVGID_9_)" stroke-width="3" stroke-miterlimit="10" d="M40,92.5c0,4.418,3.582,8,8,8h16l16-8
							l16-12h16"/>
					</g>
				</g>
				<g>
					<linearGradient id="SVGID_10_" gradientUnits="userSpaceOnUse" x1="126" y1="44" x2="129" y2="44">
						<stop  offset="0" style="stop-color:#811B56"/>
						<stop  offset="1" style="stop-color:#5C56A5"/>
					</linearGradient>
					<line fill="none" stroke="url(#SVGID_10_)" stroke-width="3" stroke-miterlimit="10" x1="127.5" y1="40" x2="127.5" y2="48"/>
					<linearGradient id="SVGID_11_" gradientUnits="userSpaceOnUse" x1="236" y1="28.5" x2="256" y2="28.5">
						<stop  offset="0" style="stop-color:#811B56"/>
						<stop  offset="1" style="stop-color:#5C56A5"/>
					</linearGradient>
					<line fill="none" stroke="url(#SVGID_11_)" stroke-width="3" stroke-miterlimit="10" x1="236" y1="28.5" x2="256" y2="28.5"/>
					<linearGradient id="SVGID_12_" gradientUnits="userSpaceOnUse" x1="110" y1="56.5" x2="172" y2="56.5">
						<stop  offset="0" style="stop-color:#811B56"/>
						<stop  offset="1" style="stop-color:#5C56A5"/>
					</linearGradient>
					<path fill="none" stroke="url(#SVGID_12_)" stroke-width="3" stroke-miterlimit="10" d="M168,84.5h-52
						c-2.211,0-4.5-2.289-4.5-4.5V32c0-2.211,2.289-3.5,4.5-3.5h56"/>
					<linearGradient id="SVGID_13_" gradientUnits="userSpaceOnUse" x1="232" y1="84.5" x2="256" y2="84.5">
						<stop  offset="0" style="stop-color:#811B56"/>
						<stop  offset="1" style="stop-color:#5C56A5"/>
					</linearGradient>
					<line fill="none" stroke="url(#SVGID_13_)" stroke-width="3" stroke-miterlimit="10" x1="256" y1="84.5" x2="232" y2="84.5"/>
				</g>
			</g>
			<g>
				<g>
					<g>
						<linearGradient id="SVGID_14_" gradientUnits="userSpaceOnUse" x1="170" y1="57.25" x2="237" y2="57.25">
							<stop  offset="0" style="stop-color:#811B56"/>
							<stop  offset="1" style="stop-color:#5C56A5"/>
						</linearGradient>
						<path fill="none" stroke="url(#SVGID_14_)" stroke-width="3" stroke-miterlimit="10" d="M223.5,112v-8l12-40V28
							c0-4.418-3.582-8-8-8s-8,3.582-8,8v-8c0-4.418-3.582-8-8-8s-8,3.582-8,8v-8c0-4.418-3.582-8-8-8s-8,3.582-8,8v8
							c0-4.418-3.582-8-8-8s-8,3.582-8,8v36"/>
						<linearGradient id="SVGID_15_" gradientUnits="userSpaceOnUse" x1="186" y1="32" x2="189" y2="32">
							<stop  offset="0" style="stop-color:#811B56"/>
							<stop  offset="1" style="stop-color:#5C56A5"/>
						</linearGradient>
						<line fill="none" stroke="url(#SVGID_15_)" stroke-width="3" stroke-miterlimit="10" x1="187.5" y1="20" x2="187.5" y2="44"/>
						<linearGradient id="SVGID_16_" gradientUnits="userSpaceOnUse" x1="202" y1="32" x2="205" y2="32">
							<stop  offset="0" style="stop-color:#811B56"/>
							<stop  offset="1" style="stop-color:#5C56A5"/>
						</linearGradient>
						<line fill="none" stroke="url(#SVGID_16_)" stroke-width="3" stroke-miterlimit="10" x1="203.5" y1="20" x2="203.5" y2="44"/>
						<linearGradient id="SVGID_17_" gradientUnits="userSpaceOnUse" x1="218" y1="36" x2="221" y2="36">
							<stop  offset="0" style="stop-color:#811B56"/>
							<stop  offset="1" style="stop-color:#5C56A5"/>
						</linearGradient>
						<line fill="none" stroke="url(#SVGID_17_)" stroke-width="3" stroke-miterlimit="10" x1="219.5" y1="28" x2="219.5" y2="44"/>
						<linearGradient id="SVGID_18_" gradientUnits="userSpaceOnUse" x1="154" y1="75.25" x2="177" y2="75.25">
							<stop  offset="0" style="stop-color:#811B56"/>
							<stop  offset="1" style="stop-color:#5C56A5"/>
						</linearGradient>
						<path fill="none" stroke="url(#SVGID_18_)" stroke-width="3" stroke-miterlimit="10" d="M163.5,40c-4.418,0-8,3.582-8,8v16
							l8,16l12,16v16"/>
					</g>
				</g>
				<g>
					<linearGradient id="SVGID_19_" gradientUnits="userSpaceOnUse" x1="208" y1="128.5" x2="216" y2="128.5">
						<stop  offset="0" style="stop-color:#811B56"/>
						<stop  offset="1" style="stop-color:#5C56A5"/>
					</linearGradient>
					
						<line fill="none" stroke="url(#SVGID_19_)" stroke-width="3" stroke-miterlimit="10" x1="208" y1="128.5" x2="216" y2="128.5"/>
					<linearGradient id="SVGID_20_" gradientUnits="userSpaceOnUse" x1="170" y1="244" x2="173" y2="244">
						<stop  offset="0" style="stop-color:#811B56"/>
						<stop  offset="1" style="stop-color:#5C56A5"/>
					</linearGradient>
					
						<line fill="none" stroke="url(#SVGID_20_)" stroke-width="3" stroke-miterlimit="10" x1="171.5" y1="232" x2="171.5" y2="256"/>
					<linearGradient id="SVGID_21_" gradientUnits="userSpaceOnUse" x1="170" y1="139.5" x2="229" y2="139.5">
						<stop  offset="0" style="stop-color:#811B56"/>
						<stop  offset="1" style="stop-color:#5C56A5"/>
					</linearGradient>
					<path fill="none" stroke="url(#SVGID_21_)" stroke-width="3" stroke-miterlimit="10" d="M227.5,164v-48
						c0-2.211-1.289-3.5-3.5-3.5h-48c-2.211,0-4.5,1.289-4.5,3.5v52"/>
					<linearGradient id="SVGID_22_" gradientUnits="userSpaceOnUse" x1="226" y1="242" x2="229" y2="242">
						<stop  offset="0" style="stop-color:#811B56"/>
						<stop  offset="1" style="stop-color:#5C56A5"/>
					</linearGradient>
					
						<line fill="none" stroke="url(#SVGID_22_)" stroke-width="3" stroke-miterlimit="10" x1="227.5" y1="256" x2="227.5" y2="228"/>
				</g>
			</g>
			<g>
				<g>
					<g>
						<linearGradient id="SVGID_23_" gradientUnits="userSpaceOnUse" x1="144" y1="196.5" x2="253.5" y2="196.5">
							<stop  offset="0" style="stop-color:#811B56"/>
							<stop  offset="1" style="stop-color:#5C56A5"/>
						</linearGradient>
						<path fill="none" stroke="url(#SVGID_23_)" stroke-width="3" stroke-miterlimit="10" d="M144,176.5h8l40-12h36
							c4.418,0,8,3.582,8,8s-3.582,8-8,8h8c4.418,0,8,3.582,8,8s-3.582,8-8,8h8c4.418,0,8,3.582,8,8s-3.582,8-8,8h-8
							c4.418,0,8,3.582,8,8s-3.582,8-8,8h-36"/>
						<linearGradient id="SVGID_24_" gradientUnits="userSpaceOnUse" x1="212" y1="212.5" x2="236" y2="212.5">
							<stop  offset="0" style="stop-color:#811B56"/>
							<stop  offset="1" style="stop-color:#5C56A5"/>
						</linearGradient>
						
							<line fill="none" stroke="url(#SVGID_24_)" stroke-width="3" stroke-miterlimit="10" x1="236" y1="212.5" x2="212" y2="212.5"/>
						<linearGradient id="SVGID_25_" gradientUnits="userSpaceOnUse" x1="212" y1="196.5" x2="236" y2="196.5">
							<stop  offset="0" style="stop-color:#811B56"/>
							<stop  offset="1" style="stop-color:#5C56A5"/>
						</linearGradient>
						
							<line fill="none" stroke="url(#SVGID_25_)" stroke-width="3" stroke-miterlimit="10" x1="236" y1="196.5" x2="212" y2="196.5"/>
						<linearGradient id="SVGID_26_" gradientUnits="userSpaceOnUse" x1="212" y1="180.5" x2="228" y2="180.5">
							<stop  offset="0" style="stop-color:#811B56"/>
							<stop  offset="1" style="stop-color:#5C56A5"/>
						</linearGradient>
						
							<line fill="none" stroke="url(#SVGID_26_)" stroke-width="3" stroke-miterlimit="10" x1="228" y1="180.5" x2="212" y2="180.5"/>
						<linearGradient id="SVGID_27_" gradientUnits="userSpaceOnUse" x1="144" y1="234.5" x2="217.5" y2="234.5">
							<stop  offset="0" style="stop-color:#811B56"/>
							<stop  offset="1" style="stop-color:#5C56A5"/>
						</linearGradient>
						<path fill="none" stroke="url(#SVGID_27_)" stroke-width="3" stroke-miterlimit="10" d="M216,236.5c0,4.418-3.582,8-8,8h-16
							l-16-8l-16-12h-16"/>
					</g>
				</g>
				<g>
					<linearGradient id="SVGID_28_" gradientUnits="userSpaceOnUse" x1="126" y1="188" x2="129" y2="188">
						<stop  offset="0" style="stop-color:#811B56"/>
						<stop  offset="1" style="stop-color:#5C56A5"/>
					</linearGradient>
					
						<line fill="none" stroke="url(#SVGID_28_)" stroke-width="3" stroke-miterlimit="10" x1="127.5" y1="184" x2="127.5" y2="192"/>
					<linearGradient id="SVGID_29_" gradientUnits="userSpaceOnUse" x1="0" y1="172.5" x2="28" y2="172.5">
						<stop  offset="0" style="stop-color:#811B56"/>
						<stop  offset="1" style="stop-color:#5C56A5"/>
					</linearGradient>
					<line fill="none" stroke="url(#SVGID_29_)" stroke-width="3" stroke-miterlimit="10" x1="28" y1="172.5" x2="0" y2="172.5"/>
					<linearGradient id="SVGID_30_" gradientUnits="userSpaceOnUse" x1="84" y1="200.5" x2="145" y2="200.5">
						<stop  offset="0" style="stop-color:#811B56"/>
						<stop  offset="1" style="stop-color:#5C56A5"/>
					</linearGradient>
					<path fill="none" stroke="url(#SVGID_30_)" stroke-width="3" stroke-miterlimit="10" d="M84,228.5h56
						c2.211,0,3.5-2.289,3.5-4.5v-48c0-2.211-1.289-3.5-3.5-3.5H88"/>
					<linearGradient id="SVGID_31_" gradientUnits="userSpaceOnUse" x1="0" y1="228.5" x2="20" y2="228.5">
						<stop  offset="0" style="stop-color:#811B56"/>
						<stop  offset="1" style="stop-color:#5C56A5"/>
					</linearGradient>
					<line fill="none" stroke="url(#SVGID_31_)" stroke-width="3" stroke-miterlimit="10" x1="0" y1="228.5" x2="20" y2="228.5"/>
				</g>
			</g>
			<g>
				<g>
					<linearGradient id="SVGID_32_" gradientUnits="userSpaceOnUse" x1="18" y1="198.75" x2="85" y2="198.75">
						<stop  offset="0" style="stop-color:#811B56"/>
						<stop  offset="1" style="stop-color:#5C56A5"/>
					</linearGradient>
					<path fill="none" stroke="url(#SVGID_32_)" stroke-width="3" stroke-miterlimit="10" d="M31.5,144v8l-12,40v36
						c0,4.418,3.582,8,8,8s8-3.582,8-8v8c0,4.418,3.582,8,8,8s8-3.582,8-8v8c0,4.418,3.582,8,8,8s8-3.582,8-8v-8
						c0,4.418,3.582,8,8,8s8-3.582,8-8v-36"/>
					<linearGradient id="SVGID_33_" gradientUnits="userSpaceOnUse" x1="66" y1="224" x2="69" y2="224">
						<stop  offset="0" style="stop-color:#811B56"/>
						<stop  offset="1" style="stop-color:#5C56A5"/>
					</linearGradient>
					<line fill="none" stroke="url(#SVGID_33_)" stroke-width="3" stroke-miterlimit="10" x1="67.5" y1="236" x2="67.5" y2="212"/>
					<linearGradient id="SVGID_34_" gradientUnits="userSpaceOnUse" x1="50" y1="224" x2="53" y2="224">
						<stop  offset="0" style="stop-color:#811B56"/>
						<stop  offset="1" style="stop-color:#5C56A5"/>
					</linearGradient>
					<line fill="none" stroke="url(#SVGID_34_)" stroke-width="3" stroke-miterlimit="10" x1="51.5" y1="236" x2="51.5" y2="212"/>
					<linearGradient id="SVGID_35_" gradientUnits="userSpaceOnUse" x1="34" y1="220" x2="37" y2="220">
						<stop  offset="0" style="stop-color:#811B56"/>
						<stop  offset="1" style="stop-color:#5C56A5"/>
					</linearGradient>
					<line fill="none" stroke="url(#SVGID_35_)" stroke-width="3" stroke-miterlimit="10" x1="35.5" y1="228" x2="35.5" y2="212"/>
					<linearGradient id="SVGID_36_" gradientUnits="userSpaceOnUse" x1="78" y1="180.75" x2="101" y2="180.75">
						<stop  offset="0" style="stop-color:#811B56"/>
						<stop  offset="1" style="stop-color:#5C56A5"/>
					</linearGradient>
					<path fill="none" stroke="url(#SVGID_36_)" stroke-width="3" stroke-miterlimit="10" d="M91.5,216c4.418,0,8-3.582,8-8v-16
						l-8-16l-12-16v-16"/>
				</g>
			</g>
			<linearGradient id="SVGID_37_" gradientUnits="userSpaceOnUse" x1="28" y1="144.5" x2="84" y2="144.5">
				<stop  offset="0" style="stop-color:#811B56"/>
				<stop  offset="1" style="stop-color:#5C56A5"/>
			</linearGradient>
			<line fill="none" stroke="url(#SVGID_37_)" stroke-width="3" stroke-miterlimit="10" x1="28" y1="144.5" x2="84" y2="144.5"/>
		</g>
	</g>
</g>
</svg>
