<?xml version="1.0" encoding="utf-8"?>
<!-- Generator: Adobe Illustrator 16.0.0, SVG Export Plug-In . SVG Version: 6.00 Build 0)  -->
<!DOCTYPE svg PUBLIC "-//W3C//DTD SVG 1.1//EN" "http://www.w3.org/Graphics/SVG/1.1/DTD/svg11.dtd">
<svg version="1.1" id="Layer_1" xmlns="http://www.w3.org/2000/svg" xmlns:xlink="http://www.w3.org/1999/xlink" x="0px" y="0px"
	 width="37.005px" height="35.052px" viewBox="0 0 37.005 35.052" enable-background="new 0 0 37.005 35.052" xml:space="preserve">
<g>
	<circle fill="none" stroke="#FFFFFF" stroke-miterlimit="10" cx="18.424" cy="23.212" r="7.382"/>
	<g>
		<path fill="#354254" stroke="#FFFFFF" stroke-miterlimit="10" d="M19.184,18.629c0.28,0.016,0.526,0.076,0.728,0.128
			c0.207,0.054,0.406,0.108,0.607,0.202l-0.01,1.123c-0.351-0.131-0.495-0.176-0.853-0.258c-0.399-0.092-0.679-0.117-0.949-0.117
			c-0.475,0-0.855,0.129-1.144,0.389c-0.287,0.26-0.432,0.59-0.432,0.99c0,0.252,0.042,0.475,0.125,0.669s0.196,0.352,0.34,0.472
			c0.145,0.119,0.472,0.299,0.982,0.537l0.717,0.334c0.608,0.284,1.032,0.621,1.273,1.01s0.361,0.857,0.361,1.404
			c0,0.563-0.177,1.054-0.531,1.471c-0.354,0.418-0.714,0.594-1.213,0.743l-0.007,1.021h-1.161l0.005-0.956
			c-0.553-0.014-0.983-0.19-1.304-0.372l-0.001-1.135c0.162,0.118,0.409,0.231,0.741,0.341s0.641,0.164,0.924,0.164
			c0.414,0,0.739-0.118,0.977-0.353c0.236-0.234,0.354-0.537,0.354-0.906c0-0.227-0.042-0.434-0.127-0.619
			c-0.085-0.187-0.207-0.346-0.364-0.475c-0.158-0.13-0.467-0.304-0.925-0.522l-0.56-0.261c-0.632-0.297-1.094-0.658-1.386-1.086
			c-0.291-0.428-0.438-0.976-0.438-1.645c0-0.551,0.196-1.034,0.587-1.449c0.391-0.416,0.81-0.646,1.502-0.764l0.002-1.031h1.173
			L19.184,18.629z"/>
	</g>
	<rect x="0.924" y="12.185" fill="none" stroke="#FFFFFF" stroke-miterlimit="10" width="35" height="22.053"/>
	<circle fill="none" stroke="#FFFFFF" stroke-miterlimit="10" cx="30.334" cy="23.71" r="0.374"/>
	<circle fill="none" stroke="#FFFFFF" stroke-miterlimit="10" cx="6.515" cy="23.71" r="0.374"/>
</g>
<polyline fill="none" stroke="#FFFFFF" stroke-miterlimit="10" points="4.043,12.185 4.043,8.365 32.805,8.365 32.805,12.185 "/>
<polyline fill="none" stroke="#FFFFFF" stroke-miterlimit="10" points="6.451,8.365 6.451,5.08 30.398,5.08 30.398,8.365 "/>
<polyline fill="none" stroke="#FFFFFF" stroke-miterlimit="10" points="8.951,5.365 8.951,2.08 27.898,2.08 27.898,5.365 "/>
</svg>
