<?xml version="1.0" encoding="utf-8"?>
<!-- Generator: Adobe Illustrator 16.0.0, SVG Export Plug-In . SVG Version: 6.00 Build 0)  -->
<!DOCTYPE svg PUBLIC "-//W3C//DTD SVG 1.1//EN" "http://www.w3.org/Graphics/SVG/1.1/DTD/svg11.dtd">
<svg version="1.1" id="Layer_1" xmlns="http://www.w3.org/2000/svg" xmlns:xlink="http://www.w3.org/1999/xlink" x="0px" y="0px"
	 width="217px" height="236px" viewBox="0 0 217 236" enable-background="new 0 0 217 236" xml:space="preserve">
<g>
	<g>
		<g>
			<linearGradient id="SVGID_1_" gradientUnits="userSpaceOnUse" x1="0" y1="30" x2="217" y2="30">
				<stop  offset="0" style="stop-color:#811B56"/>
				<stop  offset="1" style="stop-color:#5C56A5"/>
			</linearGradient>
			<rect x="0.5" y="0.5" fill="none" stroke="url(#SVGID_1_)" stroke-miterlimit="10" width="216" height="59"/>
			<linearGradient id="SVGID_2_" gradientUnits="userSpaceOnUse" x1="18" y1="67" x2="19" y2="67">
				<stop  offset="0" style="stop-color:#811B56"/>
				<stop  offset="1" style="stop-color:#5C56A5"/>
			</linearGradient>
			<line fill="none" stroke="url(#SVGID_2_)" stroke-miterlimit="10" x1="18.5" y1="75" x2="18.5" y2="59"/>
			<linearGradient id="SVGID_3_" gradientUnits="userSpaceOnUse" x1="200" y1="67" x2="201" y2="67">
				<stop  offset="0" style="stop-color:#811B56"/>
				<stop  offset="1" style="stop-color:#5C56A5"/>
			</linearGradient>
			<line fill="none" stroke="url(#SVGID_3_)" stroke-miterlimit="10" x1="200.5" y1="59" x2="200.5" y2="75"/>
			<linearGradient id="SVGID_4_" gradientUnits="userSpaceOnUse" x1="28" y1="28" x2="29" y2="28">
				<stop  offset="0" style="stop-color:#811B56"/>
				<stop  offset="1" style="stop-color:#5C56A5"/>
			</linearGradient>
			<line fill="none" stroke="url(#SVGID_4_)" stroke-miterlimit="10" x1="28.5" y1="14" x2="28.5" y2="42"/>
			<linearGradient id="SVGID_5_" gradientUnits="userSpaceOnUse" x1="44" y1="28" x2="45" y2="28">
				<stop  offset="0" style="stop-color:#811B56"/>
				<stop  offset="1" style="stop-color:#5C56A5"/>
			</linearGradient>
			<line fill="none" stroke="url(#SVGID_5_)" stroke-miterlimit="10" x1="44.5" y1="14" x2="44.5" y2="42"/>
			<linearGradient id="SVGID_6_" gradientUnits="userSpaceOnUse" x1="62" y1="28" x2="63" y2="28">
				<stop  offset="0" style="stop-color:#811B56"/>
				<stop  offset="1" style="stop-color:#5C56A5"/>
			</linearGradient>
			<line fill="none" stroke="url(#SVGID_6_)" stroke-miterlimit="10" x1="62.5" y1="14" x2="62.5" y2="42"/>
			<linearGradient id="SVGID_7_" gradientUnits="userSpaceOnUse" x1="78" y1="28" x2="79" y2="28">
				<stop  offset="0" style="stop-color:#811B56"/>
				<stop  offset="1" style="stop-color:#5C56A5"/>
			</linearGradient>
			<line fill="none" stroke="url(#SVGID_7_)" stroke-miterlimit="10" x1="78.5" y1="14" x2="78.5" y2="42"/>
			<linearGradient id="SVGID_8_" gradientUnits="userSpaceOnUse" x1="93" y1="28" x2="94" y2="28">
				<stop  offset="0" style="stop-color:#811B56"/>
				<stop  offset="1" style="stop-color:#5C56A5"/>
			</linearGradient>
			<line fill="none" stroke="url(#SVGID_8_)" stroke-miterlimit="10" x1="93.5" y1="14" x2="93.5" y2="42"/>
			<linearGradient id="SVGID_9_" gradientUnits="userSpaceOnUse" x1="0" y1="104" x2="217" y2="104">
				<stop  offset="0" style="stop-color:#811B56"/>
				<stop  offset="1" style="stop-color:#5C56A5"/>
			</linearGradient>
			<rect x="0.5" y="75.5" fill="none" stroke="url(#SVGID_9_)" stroke-miterlimit="10" width="216" height="57"/>
			<linearGradient id="SVGID_10_" gradientUnits="userSpaceOnUse" x1="18" y1="139.5" x2="19" y2="139.5">
				<stop  offset="0" style="stop-color:#811B56"/>
				<stop  offset="1" style="stop-color:#5C56A5"/>
			</linearGradient>
			<line fill="none" stroke="url(#SVGID_10_)" stroke-miterlimit="10" x1="18.5" y1="147" x2="18.5" y2="132"/>
			<linearGradient id="SVGID_11_" gradientUnits="userSpaceOnUse" x1="200" y1="139.5" x2="201" y2="139.5">
				<stop  offset="0" style="stop-color:#811B56"/>
				<stop  offset="1" style="stop-color:#5C56A5"/>
			</linearGradient>
			<line fill="none" stroke="url(#SVGID_11_)" stroke-miterlimit="10" x1="200.5" y1="132" x2="200.5" y2="147"/>
			<linearGradient id="SVGID_12_" gradientUnits="userSpaceOnUse" x1="28" y1="104.5" x2="29" y2="104.5">
				<stop  offset="0" style="stop-color:#811B56"/>
				<stop  offset="1" style="stop-color:#5C56A5"/>
			</linearGradient>
			<line fill="none" stroke="url(#SVGID_12_)" stroke-miterlimit="10" x1="28.5" y1="94" x2="28.5" y2="115"/>
			<linearGradient id="SVGID_13_" gradientUnits="userSpaceOnUse" x1="44" y1="104.5" x2="45" y2="104.5">
				<stop  offset="0" style="stop-color:#811B56"/>
				<stop  offset="1" style="stop-color:#5C56A5"/>
			</linearGradient>
			<line fill="none" stroke="url(#SVGID_13_)" stroke-miterlimit="10" x1="44.5" y1="94" x2="44.5" y2="115"/>
			<linearGradient id="SVGID_14_" gradientUnits="userSpaceOnUse" x1="62" y1="104.5" x2="63" y2="104.5">
				<stop  offset="0" style="stop-color:#811B56"/>
				<stop  offset="1" style="stop-color:#5C56A5"/>
			</linearGradient>
			<line fill="none" stroke="url(#SVGID_14_)" stroke-miterlimit="10" x1="62.5" y1="94" x2="62.5" y2="115"/>
			<linearGradient id="SVGID_15_" gradientUnits="userSpaceOnUse" x1="78" y1="104.5" x2="79" y2="104.5">
				<stop  offset="0" style="stop-color:#811B56"/>
				<stop  offset="1" style="stop-color:#5C56A5"/>
			</linearGradient>
			<line fill="none" stroke="url(#SVGID_15_)" stroke-miterlimit="10" x1="78.5" y1="94" x2="78.5" y2="115"/>
			<linearGradient id="SVGID_16_" gradientUnits="userSpaceOnUse" x1="93" y1="104.5" x2="94" y2="104.5">
				<stop  offset="0" style="stop-color:#811B56"/>
				<stop  offset="1" style="stop-color:#5C56A5"/>
			</linearGradient>
			<line fill="none" stroke="url(#SVGID_16_)" stroke-miterlimit="10" x1="93.5" y1="94" x2="93.5" y2="115"/>
			<linearGradient id="SVGID_17_" gradientUnits="userSpaceOnUse" x1="143" y1="104.5" x2="153" y2="104.5">
				<stop  offset="0" style="stop-color:#811B56"/>
				<stop  offset="1" style="stop-color:#5C56A5"/>
			</linearGradient>
			<line fill="none" stroke="url(#SVGID_17_)" stroke-miterlimit="10" x1="153" y1="104.5" x2="143" y2="104.5"/>
			<linearGradient id="SVGID_18_" gradientUnits="userSpaceOnUse" x1="127" y1="104.5" x2="136" y2="104.5">
				<stop  offset="0" style="stop-color:#811B56"/>
				<stop  offset="1" style="stop-color:#5C56A5"/>
			</linearGradient>
			<line fill="none" stroke="url(#SVGID_18_)" stroke-miterlimit="10" x1="136" y1="104.5" x2="127" y2="104.5"/>
			<linearGradient id="SVGID_19_" gradientUnits="userSpaceOnUse" x1="110" y1="104.5" x2="120" y2="104.5">
				<stop  offset="0" style="stop-color:#811B56"/>
				<stop  offset="1" style="stop-color:#5C56A5"/>
			</linearGradient>
			<line fill="none" stroke="url(#SVGID_19_)" stroke-miterlimit="10" x1="120" y1="104.5" x2="110" y2="104.5"/>
			<linearGradient id="SVGID_20_" gradientUnits="userSpaceOnUse" x1="0" y1="176" x2="217" y2="176">
				<stop  offset="0" style="stop-color:#811B56"/>
				<stop  offset="1" style="stop-color:#5C56A5"/>
			</linearGradient>
			<rect x="0.5" y="147.5" fill="none" stroke="url(#SVGID_20_)" stroke-miterlimit="10" width="216" height="57"/>
			<linearGradient id="SVGID_21_" gradientUnits="userSpaceOnUse" x1="18" y1="220.5" x2="19" y2="220.5">
				<stop  offset="0" style="stop-color:#811B56"/>
				<stop  offset="1" style="stop-color:#5C56A5"/>
			</linearGradient>
			<line fill="none" stroke="url(#SVGID_21_)" stroke-miterlimit="10" x1="18.5" y1="236" x2="18.5" y2="205"/>
			<linearGradient id="SVGID_22_" gradientUnits="userSpaceOnUse" x1="200" y1="220.5" x2="201" y2="220.5">
				<stop  offset="0" style="stop-color:#811B56"/>
				<stop  offset="1" style="stop-color:#5C56A5"/>
			</linearGradient>
			<line fill="none" stroke="url(#SVGID_22_)" stroke-miterlimit="10" x1="200.5" y1="205" x2="200.5" y2="236"/>
			<linearGradient id="SVGID_23_" gradientUnits="userSpaceOnUse" x1="28" y1="177.5" x2="29" y2="177.5">
				<stop  offset="0" style="stop-color:#811B56"/>
				<stop  offset="1" style="stop-color:#5C56A5"/>
			</linearGradient>
			<line fill="none" stroke="url(#SVGID_23_)" stroke-miterlimit="10" x1="28.5" y1="167" x2="28.5" y2="188"/>
			<linearGradient id="SVGID_24_" gradientUnits="userSpaceOnUse" x1="44" y1="177.5" x2="45" y2="177.5">
				<stop  offset="0" style="stop-color:#811B56"/>
				<stop  offset="1" style="stop-color:#5C56A5"/>
			</linearGradient>
			<line fill="none" stroke="url(#SVGID_24_)" stroke-miterlimit="10" x1="44.5" y1="167" x2="44.5" y2="188"/>
			<linearGradient id="SVGID_25_" gradientUnits="userSpaceOnUse" x1="62" y1="177.5" x2="63" y2="177.5">
				<stop  offset="0" style="stop-color:#811B56"/>
				<stop  offset="1" style="stop-color:#5C56A5"/>
			</linearGradient>
			<line fill="none" stroke="url(#SVGID_25_)" stroke-miterlimit="10" x1="62.5" y1="167" x2="62.5" y2="188"/>
			<linearGradient id="SVGID_26_" gradientUnits="userSpaceOnUse" x1="78" y1="177.5" x2="79" y2="177.5">
				<stop  offset="0" style="stop-color:#811B56"/>
				<stop  offset="1" style="stop-color:#5C56A5"/>
			</linearGradient>
			<line fill="none" stroke="url(#SVGID_26_)" stroke-miterlimit="10" x1="78.5" y1="167" x2="78.5" y2="188"/>
			<linearGradient id="SVGID_27_" gradientUnits="userSpaceOnUse" x1="93" y1="177.5" x2="94" y2="177.5">
				<stop  offset="0" style="stop-color:#811B56"/>
				<stop  offset="1" style="stop-color:#5C56A5"/>
			</linearGradient>
			<line fill="none" stroke="url(#SVGID_27_)" stroke-miterlimit="10" x1="93.5" y1="167" x2="93.5" y2="188"/>
			<linearGradient id="SVGID_28_" gradientUnits="userSpaceOnUse" x1="167.6992" y1="102.7871" x2="193.542" y2="102.7871">
				<stop  offset="0" style="stop-color:#811B56"/>
				<stop  offset="1" style="stop-color:#5C56A5"/>
			</linearGradient>
			<path fill="none" stroke="url(#SVGID_28_)" stroke-miterlimit="10" d="M193.042,102.787c0,6.862-5.564,12.421-12.423,12.421
				c-6.855,0-12.42-5.559-12.42-12.421c0-6.861,5.564-12.419,12.42-12.419C187.478,90.367,193.042,95.925,193.042,102.787z"/>
			<linearGradient id="SVGID_29_" gradientUnits="userSpaceOnUse" x1="143" y1="177.5" x2="153" y2="177.5">
				<stop  offset="0" style="stop-color:#811B56"/>
				<stop  offset="1" style="stop-color:#5C56A5"/>
			</linearGradient>
			<line fill="none" stroke="url(#SVGID_29_)" stroke-miterlimit="10" x1="153" y1="177.5" x2="143" y2="177.5"/>
			<linearGradient id="SVGID_30_" gradientUnits="userSpaceOnUse" x1="127" y1="177.5" x2="136" y2="177.5">
				<stop  offset="0" style="stop-color:#811B56"/>
				<stop  offset="1" style="stop-color:#5C56A5"/>
			</linearGradient>
			<line fill="none" stroke="url(#SVGID_30_)" stroke-miterlimit="10" x1="136" y1="177.5" x2="127" y2="177.5"/>
			<linearGradient id="SVGID_31_" gradientUnits="userSpaceOnUse" x1="110" y1="177.5" x2="120" y2="177.5">
				<stop  offset="0" style="stop-color:#811B56"/>
				<stop  offset="1" style="stop-color:#5C56A5"/>
			</linearGradient>
			<line fill="none" stroke="url(#SVGID_31_)" stroke-miterlimit="10" x1="120" y1="177.5" x2="110" y2="177.5"/>
			<linearGradient id="SVGID_32_" gradientUnits="userSpaceOnUse" x1="167.6992" y1="177.5898" x2="193.542" y2="177.5898">
				<stop  offset="0" style="stop-color:#811B56"/>
				<stop  offset="1" style="stop-color:#5C56A5"/>
			</linearGradient>
			<path fill="none" stroke="url(#SVGID_32_)" stroke-miterlimit="10" d="M193.042,177.59c0,6.861-5.564,12.42-12.423,12.42
				c-6.855,0-12.42-5.559-12.42-12.42s5.564-12.42,12.42-12.42C187.478,165.17,193.042,170.729,193.042,177.59z"/>
			<linearGradient id="SVGID_33_" gradientUnits="userSpaceOnUse" x1="143" y1="31.5" x2="153" y2="31.5">
				<stop  offset="0" style="stop-color:#811B56"/>
				<stop  offset="1" style="stop-color:#5C56A5"/>
			</linearGradient>
			<line fill="none" stroke="url(#SVGID_33_)" stroke-miterlimit="10" x1="153" y1="31.5" x2="143" y2="31.5"/>
			<linearGradient id="SVGID_34_" gradientUnits="userSpaceOnUse" x1="127" y1="31.5" x2="136" y2="31.5">
				<stop  offset="0" style="stop-color:#811B56"/>
				<stop  offset="1" style="stop-color:#5C56A5"/>
			</linearGradient>
			<line fill="none" stroke="url(#SVGID_34_)" stroke-miterlimit="10" x1="136" y1="31.5" x2="127" y2="31.5"/>
			<linearGradient id="SVGID_35_" gradientUnits="userSpaceOnUse" x1="110" y1="31.5" x2="120" y2="31.5">
				<stop  offset="0" style="stop-color:#811B56"/>
				<stop  offset="1" style="stop-color:#5C56A5"/>
			</linearGradient>
			<line fill="none" stroke="url(#SVGID_35_)" stroke-miterlimit="10" x1="120" y1="31.5" x2="110" y2="31.5"/>
			<linearGradient id="SVGID_36_" gradientUnits="userSpaceOnUse" x1="167.6992" y1="27.9829" x2="193.542" y2="27.9829">
				<stop  offset="0" style="stop-color:#811B56"/>
				<stop  offset="1" style="stop-color:#5C56A5"/>
			</linearGradient>
			<path fill="none" stroke="url(#SVGID_36_)" stroke-miterlimit="10" d="M193.042,27.984c0,6.861-5.564,12.419-12.423,12.419
				c-6.855,0-12.42-5.558-12.42-12.419s5.564-12.421,12.42-12.421C187.478,15.563,193.042,21.123,193.042,27.984z"/>
			<linearGradient id="SVGID_37_" gradientUnits="userSpaceOnUse" x1="35" y1="221.5" x2="186" y2="221.5">
				<stop  offset="0" style="stop-color:#811B56"/>
				<stop  offset="1" style="stop-color:#5C56A5"/>
			</linearGradient>
			<line fill="none" stroke="url(#SVGID_37_)" stroke-miterlimit="10" x1="35" y1="221.5" x2="186" y2="221.5"/>
		</g>
	</g>
</g>
</svg>
