<?xml version="1.0" encoding="utf-8"?>
<!-- Generator: Adobe Illustrator 16.0.0, SVG Export Plug-In . SVG Version: 6.00 Build 0)  -->
<!DOCTYPE svg PUBLIC "-//W3C//DTD SVG 1.1//EN" "http://www.w3.org/Graphics/SVG/1.1/DTD/svg11.dtd">
<svg version="1.1" id="Layer_1" xmlns="http://www.w3.org/2000/svg" xmlns:xlink="http://www.w3.org/1999/xlink" x="0px" y="0px"
	 width="27px" height="36px" viewBox="0 0 27 36" enable-background="new 0 0 27 36" xml:space="preserve">
<g>
	<g>
		
			<line fill="none" stroke="#FFFFFF" stroke-linecap="round" stroke-linejoin="round" stroke-miterlimit="10" x1="7.187" y1="35.429" x2="7.187" y2="0.429"/>
		<g>
			<polyline fill="none" stroke="#FFFFFF" stroke-linecap="round" stroke-linejoin="round" stroke-miterlimit="10" points="
				5.75,32.713 1.94,32.713 1.94,30.354 			"/>
			<polyline fill="none" stroke="#FFFFFF" stroke-linecap="round" stroke-linejoin="round" stroke-miterlimit="10" points="
				5.75,28.178 1.94,28.178 1.94,25.818 			"/>
			<polyline fill="none" stroke="#FFFFFF" stroke-linecap="round" stroke-linejoin="round" stroke-miterlimit="10" points="
				5.75,23.643 1.94,23.643 1.94,21.283 			"/>
			<polyline fill="none" stroke="#FFFFFF" stroke-linecap="round" stroke-linejoin="round" stroke-miterlimit="10" points="
				5.75,19.107 1.94,19.107 1.94,16.749 			"/>
			<polyline fill="none" stroke="#FFFFFF" stroke-linecap="round" stroke-linejoin="round" stroke-miterlimit="10" points="
				5.75,14.573 1.94,14.573 1.94,12.214 			"/>
			<polyline fill="none" stroke="#FFFFFF" stroke-linecap="round" stroke-linejoin="round" stroke-miterlimit="10" points="
				5.75,10.039 1.94,10.039 1.94,7.679 			"/>
			<polyline fill="none" stroke="#FFFFFF" stroke-linecap="round" stroke-linejoin="round" stroke-miterlimit="10" points="
				5.75,5.504 1.94,5.504 1.94,3.145 			"/>
		</g>
		<path fill="none" stroke="#FFFFFF" stroke-linecap="round" stroke-linejoin="round" stroke-miterlimit="10" d="M5.356,1.61
			c-0.653,0-1.182-0.529-1.182-1.181h-0.93c0,0.652-0.529,1.181-1.182,1.181S0.882,1.081,0.882,0.429H0.431v35h0.451
			c0-0.653,0.529-1.182,1.182-1.182s1.182,0.528,1.182,1.182h0.93c0-0.653,0.529-1.182,1.182-1.182c0.652,0,1.181,0.528,1.181,1.182
			h3.154V20.598H7.187v-2.242h2.505V0.429H6.538C6.538,1.081,6.009,1.61,5.356,1.61z"/>
	</g>
	<g>
		
			<line fill="none" stroke="#FFFFFF" stroke-linecap="round" stroke-linejoin="round" stroke-miterlimit="10" x1="23.282" y1="35.429" x2="23.282" y2="0.429"/>
		<g>
			<polyline fill="none" stroke="#FFFFFF" stroke-linecap="round" stroke-linejoin="round" stroke-miterlimit="10" points="
				21.846,32.713 18.035,32.713 18.035,30.354 			"/>
			<polyline fill="none" stroke="#FFFFFF" stroke-linecap="round" stroke-linejoin="round" stroke-miterlimit="10" points="
				21.846,28.178 18.035,28.178 18.035,25.818 			"/>
			<polyline fill="none" stroke="#FFFFFF" stroke-linecap="round" stroke-linejoin="round" stroke-miterlimit="10" points="
				21.846,23.643 18.035,23.643 18.035,21.283 			"/>
			<polyline fill="none" stroke="#FFFFFF" stroke-linecap="round" stroke-linejoin="round" stroke-miterlimit="10" points="
				21.846,19.107 18.035,19.107 18.035,16.749 			"/>
			<polyline fill="none" stroke="#FFFFFF" stroke-linecap="round" stroke-linejoin="round" stroke-miterlimit="10" points="
				21.846,14.573 18.035,14.573 18.035,12.214 			"/>
			<polyline fill="none" stroke="#FFFFFF" stroke-linecap="round" stroke-linejoin="round" stroke-miterlimit="10" points="
				21.846,10.039 18.035,10.039 18.035,7.679 			"/>
			<polyline fill="none" stroke="#FFFFFF" stroke-linecap="round" stroke-linejoin="round" stroke-miterlimit="10" points="
				21.846,5.504 18.035,5.504 18.035,3.145 			"/>
		</g>
		<path fill="none" stroke="#FFFFFF" stroke-linecap="round" stroke-linejoin="round" stroke-miterlimit="10" d="M21.452,1.61
			c-0.653,0-1.182-0.529-1.182-1.181h-0.93c0,0.652-0.529,1.181-1.182,1.181s-1.182-0.529-1.182-1.181h-0.451v35h0.451
			c0-0.653,0.529-1.182,1.182-1.182s1.182,0.528,1.182,1.182h0.93c0-0.653,0.528-1.182,1.182-1.182c0.652,0,1.181,0.528,1.181,1.182
			h3.154V20.598h-2.505v-2.242h2.505V0.429h-3.154C22.633,1.081,22.104,1.61,21.452,1.61z"/>
	</g>
</g>
</svg>
