<?xml version="1.0" encoding="utf-8"?>
<!-- Generator: Adobe Illustrator 16.0.0, SVG Export Plug-In . SVG Version: 6.00 Build 0)  -->
<!DOCTYPE svg PUBLIC "-//W3C//DTD SVG 1.1//EN" "http://www.w3.org/Graphics/SVG/1.1/DTD/svg11.dtd">
<svg version="1.1" id="Layer_1" xmlns="http://www.w3.org/2000/svg" xmlns:xlink="http://www.w3.org/1999/xlink" x="0px" y="0px"
	 width="56px" height="53px" viewBox="0 0 56 53" enable-background="new 0 0 56 53" xml:space="preserve">
<path fill="#FFFFFF" d="M31.814,17.604c0,0-0.52-7.094-8.867-6.544c-8.348,0.551-8.868,4.403-8.562,9.112l3.853-2.018l9.816,3.853
	l3.939-2.014L31.814,17.604z"/>
<linearGradient id="SVGID_1_" gradientUnits="userSpaceOnUse" x1="30" y1="40" x2="30" y2="40">
	<stop  offset="0" style="stop-color:#811B56"/>
	<stop  offset="1" style="stop-color:#5D57A5"/>
</linearGradient>
<path fill="none" stroke="url(#SVGID_1_)" stroke-width="2" stroke-miterlimit="10" d="M30,40"/>
<path fill="none" stroke="#FFFFFF" stroke-width="2" stroke-miterlimit="10" d="M1,53c0-10,7-9,14-13"/>
<path fill="none" stroke="#FFFFFF" stroke-width="2" stroke-miterlimit="10" d="M31,40c7,4,14,3,14,13"/>
<polygon fill="#FFFFFF" stroke="#FFFFFF" stroke-width="2" stroke-miterlimit="10" points="27,44 23,42 19,44 15,40 17,37 23,38 
	29,37 31,40 "/>
<line fill="none" stroke="#FFFFFF" stroke-width="2" stroke-miterlimit="10" x1="28" y1="33" x2="28" y2="37"/>
<line fill="none" stroke="#FFFFFF" stroke-width="2" stroke-miterlimit="10" x1="18" y1="37" x2="18" y2="33"/>
<line fill="none" stroke="#FFFFFF" stroke-width="2" stroke-miterlimit="10" x1="22" y1="51" x2="24" y2="51"/>
<line fill="none" stroke="#FFFFFF" stroke-width="2" stroke-miterlimit="10" x1="22" y1="47" x2="24" y2="47"/>
<path fill="none" stroke="#FFFFFF" stroke-width="2" stroke-miterlimit="10" d="M32,20c0-6.075-2.925-9-9-9s-9,2.925-9,9v4
	c1,7,4,9,4,9c2,1,5,1,5,1s3,0,5-1c0,0,3-2,4-9V20z"/>
<polyline fill="none" stroke="#FFFFFF" stroke-width="2" stroke-miterlimit="10" points="14,20 18,18 23,20 28,22 32,20 "/>
<line fill="none" stroke="#FFFFFF" stroke-width="2" stroke-miterlimit="10" x1="9" y1="53" x2="9" y2="49"/>
<line fill="none" stroke="#FFFFFF" stroke-width="2" stroke-miterlimit="10" x1="37" y1="53" x2="37" y2="49"/>
<path fill="#FFFFFF" stroke="#FFFFFF" stroke-width="2" stroke-miterlimit="10" d="M53,1H25c-1.104,0-2,0.896-2,2v4.518
	C40.91,7.266,35.406,27,35.406,27L42,21h11c1.104,0,2-0.896,2-2V3C55,1.896,54.104,1,53,1z"/>
<linearGradient id="SVGID_2_" gradientUnits="userSpaceOnUse" x1="44.001" y1="10.0005" x2="46.0009" y2="8.0005">
	<stop  offset="0" style="stop-color:#811B56"/>
	<stop  offset="1" style="stop-color:#5D57A5"/>
</linearGradient>
<line fill="none" stroke="url(#SVGID_2_)" stroke-width="2" stroke-miterlimit="10" x1="44" y1="9" x2="46" y2="9"/>
<linearGradient id="SVGID_3_" gradientUnits="userSpaceOnUse" x1="36" y1="10" x2="37.9999" y2="8.0001">
	<stop  offset="0" style="stop-color:#811B56"/>
	<stop  offset="1" style="stop-color:#5D57A5"/>
</linearGradient>
<line fill="none" stroke="url(#SVGID_3_)" stroke-width="2" stroke-miterlimit="10" x1="36" y1="9" x2="38" y2="9"/>
<linearGradient id="SVGID_4_" gradientUnits="userSpaceOnUse" x1="40.001" y1="10.001" x2="42.0013" y2="8.0007">
	<stop  offset="0" style="stop-color:#811B56"/>
	<stop  offset="1" style="stop-color:#5D57A5"/>
</linearGradient>
<line fill="none" stroke="url(#SVGID_4_)" stroke-width="2" stroke-miterlimit="10" x1="40" y1="9" x2="42" y2="9"/>
</svg>
