<?xml version="1.0" encoding="utf-8"?>
<!-- Generator: Adobe Illustrator 16.0.0, SVG Export Plug-In . SVG Version: 6.00 Build 0)  -->
<!DOCTYPE svg PUBLIC "-//W3C//DTD SVG 1.1//EN" "http://www.w3.org/Graphics/SVG/1.1/DTD/svg11.dtd">
<svg version="1.1" id="Layer_1" xmlns="http://www.w3.org/2000/svg" xmlns:xlink="http://www.w3.org/1999/xlink" x="0px" y="0px"
	 width="130px" height="114px" viewBox="0 0 130 114" enable-background="new 0 0 130 114" xml:space="preserve">
<g>
	<linearGradient id="SVGID_1_" gradientUnits="userSpaceOnUse" x1="51.7505" y1="72.75" x2="58.2505" y2="66.25">
		<stop  offset="0" style="stop-color:#811B56"/>
		<stop  offset="1" style="stop-color:#5D57A5"/>
	</linearGradient>
	<rect x="54" y="64" fill="url(#SVGID_1_)" width="2" height="11"/>
</g>
<g>
	<linearGradient id="SVGID_2_" gradientUnits="userSpaceOnUse" x1="30.75" y1="72.75" x2="37.25" y2="66.25">
		<stop  offset="0" style="stop-color:#811B56"/>
		<stop  offset="1" style="stop-color:#5D57A5"/>
	</linearGradient>
	<rect x="33" y="64" fill="url(#SVGID_2_)" width="2" height="11"/>
</g>
<g>
	<linearGradient id="SVGID_3_" gradientUnits="userSpaceOnUse" x1="84.5" y1="66.5" x2="140.5" y2="10.5">
		<stop  offset="0" style="stop-color:#5D57A5"/>
		<stop  offset="1" style="stop-color:#811B56"/>
	</linearGradient>
	<polygon fill="url(#SVGID_3_)" points="130,77 120,77 120,75 128,75 128,2 97,2 97,75 107,75 107,77 95,77 95,0 130,0 	"/>
</g>
<g>
	<linearGradient id="SVGID_4_" gradientUnits="userSpaceOnUse" x1="12.5005" y1="126.5" x2="76.5005" y2="62.5">
		<stop  offset="0" style="stop-color:#5D57A5"/>
		<stop  offset="1" style="stop-color:#811B56"/>
	</linearGradient>
	<polygon fill="url(#SVGID_4_)" points="89,114 0,114 0,75 25,75 25,77 2,77 2,112 87,112 87,77 66,77 66,75 89,75 	"/>
</g>
<line fill="none" stroke="#B4B4B4" stroke-width="2" stroke-miterlimit="10" x1="19" y1="94" x2="23" y2="94"/>
<line fill="none" stroke="#B4B4B4" stroke-width="2" stroke-miterlimit="10" x1="27" y1="94" x2="31" y2="94"/>
<line fill="none" stroke="#B4B4B4" stroke-width="2" stroke-miterlimit="10" x1="35" y1="94" x2="39" y2="94"/>
<line fill="none" stroke="#B4B4B4" stroke-width="2" stroke-miterlimit="10" x1="43" y1="94" x2="47" y2="94"/>
<line fill="none" stroke="#B4B4B4" stroke-width="2" stroke-miterlimit="10" x1="52" y1="94" x2="56" y2="94"/>
<line fill="none" stroke="#B4B4B4" stroke-width="2" stroke-miterlimit="10" x1="60" y1="94" x2="64" y2="94"/>
<line fill="none" stroke="#B4B4B4" stroke-width="2" stroke-miterlimit="10" x1="68" y1="94" x2="72" y2="94"/>
<line fill="none" stroke="#B4B4B4" stroke-width="2" stroke-miterlimit="10" x1="19" y1="102" x2="23" y2="102"/>
<g>
	<linearGradient id="SVGID_5_" gradientUnits="userSpaceOnUse" x1="10.5" y1="95.5" x2="13.5" y2="92.5">
		<stop  offset="0" style="stop-color:#5D57A5"/>
		<stop  offset="1" style="stop-color:#811B56"/>
	</linearGradient>
	<rect x="10" y="93" fill="url(#SVGID_5_)" width="4" height="2"/>
</g>
<g>
	<linearGradient id="SVGID_6_" gradientUnits="userSpaceOnUse" x1="10.5005" y1="103.5" x2="13.5005" y2="100.5">
		<stop  offset="0" style="stop-color:#5D57A5"/>
		<stop  offset="1" style="stop-color:#811B56"/>
	</linearGradient>
	<rect x="10" y="101" fill="url(#SVGID_6_)" width="4" height="2"/>
</g>
<g>
	<linearGradient id="SVGID_7_" gradientUnits="userSpaceOnUse" x1="76.501" y1="95.501" x2="79.501" y2="92.501">
		<stop  offset="0" style="stop-color:#5D57A5"/>
		<stop  offset="1" style="stop-color:#811B56"/>
	</linearGradient>
	<rect x="76" y="93" fill="url(#SVGID_7_)" width="4" height="2"/>
</g>
<g>
	<linearGradient id="SVGID_8_" gradientUnits="userSpaceOnUse" x1="19.5" y1="87.5" x2="22.5" y2="84.5">
		<stop  offset="0" style="stop-color:#5D57A5"/>
		<stop  offset="1" style="stop-color:#811B56"/>
	</linearGradient>
	<rect x="19" y="85" fill="url(#SVGID_8_)" width="4" height="2"/>
</g>
<g>
	<linearGradient id="SVGID_9_" gradientUnits="userSpaceOnUse" x1="27.501" y1="87.501" x2="30.501" y2="84.501">
		<stop  offset="0" style="stop-color:#5D57A5"/>
		<stop  offset="1" style="stop-color:#811B56"/>
	</linearGradient>
	<rect x="27" y="85" fill="url(#SVGID_9_)" width="4" height="2"/>
</g>
<g>
	<linearGradient id="SVGID_10_" gradientUnits="userSpaceOnUse" x1="35.5005" y1="87.5" x2="38.5005" y2="84.5">
		<stop  offset="0" style="stop-color:#5D57A5"/>
		<stop  offset="1" style="stop-color:#811B56"/>
	</linearGradient>
	<rect x="35" y="85" fill="url(#SVGID_10_)" width="4" height="2"/>
</g>
<g>
	<linearGradient id="SVGID_11_" gradientUnits="userSpaceOnUse" x1="43.5" y1="87.5" x2="46.5" y2="84.5">
		<stop  offset="0" style="stop-color:#5D57A5"/>
		<stop  offset="1" style="stop-color:#811B56"/>
	</linearGradient>
	<rect x="43" y="85" fill="url(#SVGID_11_)" width="4" height="2"/>
</g>
<g>
	<linearGradient id="SVGID_12_" gradientUnits="userSpaceOnUse" x1="52.5005" y1="87.5" x2="55.5005" y2="84.5">
		<stop  offset="0" style="stop-color:#5D57A5"/>
		<stop  offset="1" style="stop-color:#811B56"/>
	</linearGradient>
	<rect x="52" y="85" fill="url(#SVGID_12_)" width="4" height="2"/>
</g>
<g>
	<linearGradient id="SVGID_13_" gradientUnits="userSpaceOnUse" x1="60.5005" y1="87.501" x2="63.5005" y2="84.501">
		<stop  offset="0" style="stop-color:#5D57A5"/>
		<stop  offset="1" style="stop-color:#811B56"/>
	</linearGradient>
	<rect x="60" y="85" fill="url(#SVGID_13_)" width="4" height="2"/>
</g>
<g>
	<linearGradient id="SVGID_14_" gradientUnits="userSpaceOnUse" x1="68.5" y1="87.5" x2="71.5" y2="84.5">
		<stop  offset="0" style="stop-color:#5D57A5"/>
		<stop  offset="1" style="stop-color:#811B56"/>
	</linearGradient>
	<rect x="68" y="85" fill="url(#SVGID_14_)" width="4" height="2"/>
</g>
<g>
	<linearGradient id="SVGID_15_" gradientUnits="userSpaceOnUse" x1="10.5005" y1="87.5" x2="13.5005" y2="84.5">
		<stop  offset="0" style="stop-color:#5D57A5"/>
		<stop  offset="1" style="stop-color:#811B56"/>
	</linearGradient>
	<rect x="10" y="85" fill="url(#SVGID_15_)" width="4" height="2"/>
</g>
<g>
	<linearGradient id="SVGID_16_" gradientUnits="userSpaceOnUse" x1="76.5" y1="87.5" x2="79.5" y2="84.5">
		<stop  offset="0" style="stop-color:#5D57A5"/>
		<stop  offset="1" style="stop-color:#811B56"/>
	</linearGradient>
	<rect x="76" y="85" fill="url(#SVGID_16_)" width="4" height="2"/>
</g>
<g>
	<linearGradient id="SVGID_17_" gradientUnits="userSpaceOnUse" x1="76.5" y1="103.5" x2="79.5" y2="100.5">
		<stop  offset="0" style="stop-color:#5D57A5"/>
		<stop  offset="1" style="stop-color:#811B56"/>
	</linearGradient>
	<rect x="76" y="101" fill="url(#SVGID_17_)" width="4" height="2"/>
</g>
<line fill="none" stroke="#B4B4B4" stroke-width="2" stroke-miterlimit="10" x1="27" y1="102" x2="31" y2="102"/>
<line fill="none" stroke="#B4B4B4" stroke-width="2" stroke-miterlimit="10" x1="35" y1="102" x2="56" y2="102"/>
<line fill="none" stroke="#B4B4B4" stroke-width="2" stroke-miterlimit="10" x1="60" y1="102" x2="64" y2="102"/>
<line fill="none" stroke="#B4B4B4" stroke-width="2" stroke-miterlimit="10" x1="68" y1="102" x2="72" y2="102"/>
<rect x="104" y="10" fill="none" stroke="#B4B4B4" stroke-width="2" stroke-miterlimit="10" width="17" height="8"/>
<g>
	<linearGradient id="SVGID_18_" gradientUnits="userSpaceOnUse" x1="105.251" y1="37.251" x2="119.751" y2="22.751">
		<stop  offset="0" style="stop-color:#5D57A5"/>
		<stop  offset="1" style="stop-color:#811B56"/>
	</linearGradient>
	<path fill="url(#SVGID_18_)" d="M122,35h-19V25h19V35z M105,33h15v-6h-15V33z"/>
</g>
<g>
	<linearGradient id="SVGID_19_" gradientUnits="userSpaceOnUse" x1="7.1489" y1="69.3516" x2="81.8518" y2="-5.3513">
		<stop  offset="0" style="stop-color:#5D57A5"/>
		<stop  offset="1" style="stop-color:#811B56"/>
	</linearGradient>
	<path fill="url(#SVGID_19_)" d="M85.936,64H3.064C1.375,64,0,62.625,0,60.936V3.064C0,1.375,1.375,0,3.064,0h82.871
		C87.625,0,89,1.375,89,3.064v57.871C89,62.625,87.625,64,85.936,64z M3.064,2C2.478,2,2,2.478,2,3.064v57.871
		C2,61.522,2.478,62,3.064,62h82.871C86.522,62,87,61.522,87,60.936V3.064C87,2.478,86.522,2,85.936,2H3.064z"/>
</g>
<g>
	<linearGradient id="SVGID_20_" gradientUnits="userSpaceOnUse" x1="36.7505" y1="84.751" x2="54.2505" y2="67.251">
		<stop  offset="0" style="stop-color:#5D57A5"/>
		<stop  offset="1" style="stop-color:#811B56"/>
	</linearGradient>
	<rect x="29" y="75" fill="url(#SVGID_20_)" width="33" height="2"/>
</g>
<g>
	<linearGradient id="SVGID_21_" gradientUnits="userSpaceOnUse" x1="103.6494" y1="110.8516" x2="120.3521" y2="94.1489">
		<stop  offset="0" style="stop-color:#5D57A5"/>
		<stop  offset="1" style="stop-color:#811B56"/>
	</linearGradient>
	<path fill="url(#SVGID_21_)" d="M115.936,114h-7.871c-1.689,0-3.064-1.375-3.064-3.064V94.064c0-1.689,1.375-3.064,3.064-3.064
		h7.871c1.689,0,3.064,1.375,3.064,3.064v16.871C119,112.625,117.625,114,115.936,114z M108.064,93
		c-0.587,0-1.064,0.478-1.064,1.064v16.871c0,0.587,0.478,1.064,1.064,1.064h7.871c0.587,0,1.064-0.478,1.064-1.064V94.064
		c0-0.587-0.478-1.064-1.064-1.064H108.064z"/>
</g>
<g>
	<linearGradient id="SVGID_22_" gradientUnits="userSpaceOnUse" x1="109.125" y1="83.125" x2="118.625" y2="73.625">
		<stop  offset="0" style="stop-color:#5D57A5"/>
		<stop  offset="1" style="stop-color:#811B56"/>
	</linearGradient>
	<path fill="url(#SVGID_22_)" d="M113,85h-2v-8.854c0-0.472,0.188-0.886,0.531-1.166c0.721-0.591,1.778-0.38,2.899-0.153
		c0.425,0.086,0.864,0.174,1.118,0.174H120v2h-4.451c-0.453,0-0.968-0.104-1.513-0.213c-0.294-0.059-0.722-0.146-1.036-0.179V85z"/>
</g>
<circle fill="none" stroke="#B4B4B4" stroke-width="2" stroke-miterlimit="10" cx="113.484" cy="57.564" r="6.194"/>
<g>
	<linearGradient id="SVGID_23_" gradientUnits="userSpaceOnUse" x1="8" y1="32" x2="80" y2="32">
		<stop  offset="0" style="stop-color:#5D57A5"/>
		<stop  offset="1" style="stop-color:#811B56"/>
	</linearGradient>
	<path fill="url(#SVGID_23_)" d="M80,55H8V9h72V55z M10,53h68V11H10V53z"/>
</g>
<linearGradient id="SVGID_24_" gradientUnits="userSpaceOnUse" x1="25.501" y1="40.501" x2="62.501" y2="3.501">
	<stop  offset="0" style="stop-color:#5D57A5"/>
	<stop  offset="1" style="stop-color:#811B56"/>
</linearGradient>
<rect x="14" y="15" fill="url(#SVGID_24_)" width="60" height="14"/>
<g>
	<linearGradient id="SVGID_25_" gradientUnits="userSpaceOnUse" x1="14" y1="34" x2="74" y2="34">
		<stop  offset="0" style="stop-color:#5D57A5"/>
		<stop  offset="1" style="stop-color:#811B56"/>
	</linearGradient>
	<rect x="14" y="33" fill="url(#SVGID_25_)" width="60" height="2"/>
</g>
<line fill="none" stroke="#B4B4B4" stroke-width="2" stroke-miterlimit="10" x1="14" y1="40" x2="74" y2="40"/>
<g>
	<linearGradient id="SVGID_26_" gradientUnits="userSpaceOnUse" x1="14" y1="46" x2="44" y2="46">
		<stop  offset="0" style="stop-color:#5D57A5"/>
		<stop  offset="1" style="stop-color:#811B56"/>
	</linearGradient>
	<rect x="14" y="45" fill="url(#SVGID_26_)" width="30" height="2"/>
</g>
</svg>
