<?xml version="1.0" encoding="utf-8"?>
<!-- Generator: Adobe Illustrator 16.0.0, SVG Export Plug-In . SVG Version: 6.00 Build 0)  -->
<!DOCTYPE svg PUBLIC "-//W3C//DTD SVG 1.1//EN" "http://www.w3.org/Graphics/SVG/1.1/DTD/svg11.dtd">
<svg version="1.1" id="Layer_1" xmlns="http://www.w3.org/2000/svg" xmlns:xlink="http://www.w3.org/1999/xlink" x="0px" y="0px"
	 width="115px" height="120px" viewBox="0 0 115 120" enable-background="new 0 0 115 120" xml:space="preserve">
<g>
	<defs>
		<path id="SVGID_1_" d="M30.702,72.938h5.408l3.328-3.609l10.257,12.607H30.702V72.938z M64.059,66.984l10.98,14.127l7.66-7.102
			v7.926H54.158L64.059,66.984z M30.702,52.936h8.899l-8.31,9h-0.59V52.936z M40.281,52.936h19.887L51.246,66.41L40.281,52.936z
			 M67.07,52.936h15.629v9h-3.156l-3.182,2.951L67.07,52.936z M53.239,5.787c-1.751,0.256-3.283,1.344-4.098,2.92
			c-0.813,1.572-0.815,3.45-0.011,5.026c0.05,0.101,0.069,0.172,0.069,0.202c0,0.273-0.228,0.501-0.5,0.501
			c-0.22,0-0.385-0.132-0.453-0.36c-0.503-1.698-1.804-3.055-3.468-3.628c-0.58-0.203-1.187-0.307-1.802-0.307
			c-1.145,0-2.243,0.349-3.186,1.015c-2.866,2.032-5.346,4.514-7.37,7.373c-1.025,1.442-1.293,3.299-0.714,4.98
			c0.576,1.67,1.935,2.968,3.626,3.474c0.233,0.068,0.366,0.234,0.366,0.453c0,0.273-0.228,0.5-0.498,0.5
			c-0.003,0-0.069,0-0.214-0.073c-0.767-0.393-1.63-0.599-2.493-0.599c-0.877,0-1.754,0.214-2.535,0.619
			c-1.568,0.815-2.653,2.344-2.908,4.095c-0.239,1.659-0.353,3.076-0.353,4.458v0.501h-1.998c-7.373,0-10.001,4.39-10.001,8.499
			v41.5H4.702v10.4l10.338,9.602h85.568l9.092-9.85V86.936h-10v-41.5c0-2.554-0.875-8.499-9-8.499h-1.998v-0.501
			c0-1.382-0.109-2.799-0.352-4.461c-0.254-1.748-1.342-3.277-2.92-4.101c-0.779-0.399-1.65-0.61-2.523-0.61
			c-0.865,0-1.727,0.208-2.496,0.599c-0.113,0.059-0.184,0.073-0.209,0.073c-0.27,0-0.502-0.227-0.502-0.5
			c0-0.219,0.135-0.385,0.369-0.453c1.693-0.506,3.047-1.804,3.629-3.479c0.574-1.676,0.307-3.533-0.715-4.97
			c-2.025-2.864-4.508-5.346-7.383-7.384c-0.934-0.66-2.033-1.009-3.174-1.009c-0.619,0-1.227,0.104-1.793,0.301
			c-1.676,0.579-2.975,1.936-3.477,3.629c-0.072,0.233-0.238,0.365-0.457,0.365c-0.27,0-0.496-0.228-0.496-0.501
			c0-0.03,0.018-0.101,0.07-0.205c0.803-1.573,0.797-3.451-0.014-5.026c-0.813-1.573-2.346-2.661-4.096-2.917
			C60.457,5.54,59.08,5.43,57.699,5.43C56.323,5.43,54.945,5.54,53.239,5.787"/>
	</defs>
	<clipPath id="SVGID_2_">
		<use xlink:href="#SVGID_1_"  overflow="visible"/>
	</clipPath>
	
		<linearGradient id="SVGID_3_" gradientUnits="userSpaceOnUse" x1="-599.2568" y1="5662.3125" x2="-598.2568" y2="5662.3125" gradientTransform="matrix(0 -101.5068 -101.5068 0 574820.625 -60721.7891)">
		<stop  offset="0" style="stop-color:#5D57A5"/>
		<stop  offset="1" style="stop-color:#811B56"/>
	</linearGradient>
	<rect x="4.702" y="5.43" clip-path="url(#SVGID_2_)" fill="url(#SVGID_3_)" width="104.998" height="101.507"/>
</g>
<g>
	<defs>
		<rect id="SVGID_4_" x="-826.725" y="-4803.321" width="1300" height="11200.001"/>
	</defs>
	<clipPath id="SVGID_5_">
		<use xlink:href="#SVGID_4_"  overflow="visible"/>
	</clipPath>
	<path clip-path="url(#SVGID_5_)" fill="#FFFFFF" d="M57.701,9.429c1.215,0,2.432,0.106,3.889,0.317
		c0.479,0.069,0.895,0.366,1.117,0.796c0.221,0.43,0.223,0.94,0.002,1.371c-0.336,0.659-0.508,1.339-0.508,2.023
		c0,2.481,2.02,4.5,4.5,4.5c1.99,0,3.713-1.295,4.287-3.223c0.139-0.464,0.492-0.832,0.949-0.99c0.16-0.055,0.322-0.082,0.488-0.082
		c0.307,0,0.609,0.094,0.869,0.276c2.496,1.771,4.658,3.933,6.424,6.427c0.281,0.395,0.352,0.9,0.195,1.357
		c-0.158,0.457-0.527,0.81-0.99,0.948c-1.928,0.575-3.223,2.298-3.223,4.287c0,2.481,2.018,4.5,4.5,4.5
		c0.68,0,1.361-0.171,2.025-0.509c0.213-0.109,0.445-0.163,0.68-0.163c0.236,0,0.473,0.056,0.691,0.168
		c0.428,0.222,0.725,0.638,0.793,1.117c0.213,1.465,0.311,2.7,0.311,3.887h-3c0-0.526-0.021-1.067-0.07-1.645
		c-0.471,0.097-0.949,0.145-1.43,0.145c-4.137,0-7.5-3.364-7.5-7.5c0-2.616,1.334-4.955,3.465-6.3
		c-0.955-1.152-2.012-2.209-3.164-3.164c-1.346,2.131-3.684,3.464-6.301,3.464c-4.135,0-7.5-3.364-7.5-7.5
		c0-0.481,0.049-0.959,0.146-1.431c-0.576-0.047-1.111-0.07-1.646-0.07s-1.071,0.023-1.647,0.07c0.098,0.472,0.146,0.95,0.146,1.431
		c0,4.136-3.364,7.5-7.499,7.5c-2.617,0-4.956-1.333-6.301-3.464c-1.152,0.955-2.21,2.012-3.164,3.164
		c2.131,1.345,3.465,3.684,3.465,6.3c0,4.136-3.364,7.5-7.5,7.5c-0.48,0-0.958-0.049-1.431-0.146c-0.048,0.578-0.07,1.12-0.07,1.646
		h-3c0-1.187,0.099-2.422,0.311-3.887c0.069-0.478,0.364-0.894,0.793-1.117c0.217-0.112,0.454-0.168,0.691-0.168
		c0.233,0,0.466,0.054,0.679,0.162c0.667,0.339,1.349,0.51,2.027,0.51c2.48,0,4.5-2.019,4.5-4.5c0-1.989-1.295-3.712-3.224-4.287
		c-0.464-0.138-0.831-0.491-0.989-0.948c-0.157-0.457-0.086-0.962,0.193-1.357c1.768-2.494,3.93-4.656,6.426-6.427
		c0.258-0.182,0.562-0.276,0.868-0.276c0.165,0,0.329,0.027,0.489,0.082c0.457,0.158,0.811,0.526,0.948,0.99
		c0.574,1.928,2.298,3.223,4.288,3.223c2.48,0,4.499-2.019,4.499-4.5c0-0.684-0.171-1.364-0.508-2.023
		c-0.22-0.431-0.22-0.941,0.003-1.371c0.223-0.43,0.639-0.727,1.117-0.796C55.268,9.535,56.485,9.429,57.701,9.429 M57.701,22.936
		c7.443,0,13.5,6.056,13.5,13.5h-3c0-5.79-4.711-10.5-10.5-10.5c-5.791,0-10.501,4.71-10.501,10.5h-3
		C44.2,28.992,50.256,22.936,57.701,22.936 M57.701,30.436c3.309,0,6,2.692,6,6h-3c0-1.654-1.346-3-3-3c-1.655,0-3,1.346-3,3h-3
		C51.701,33.128,54.392,30.436,57.701,30.436 M90.699,40.936c2.473,0,5.002,0.535,5.002,4.5v42.501h-3V45.436
		c0-1.358,0-1.5-2.002-1.5H24.702c-3.001,0-3.001,0.797-3.001,1.5v42.501h-3V45.436c0-2.986,2.019-4.5,6.001-4.5H90.699
		 M89.701,88.938h-66V45.936h66V88.938z M26.701,85.938h60V48.936h-60V85.938z M63.604,54.992l12.277,15.795l5.232-4.852h3.588v3
		h-2.412l-6.768,6.275L63.799,60.132L51.825,78.215l-12.195-14.99l-5.271,5.711h-3.657v-3h2.343l6.729-7.288l11.805,14.511
		L63.604,54.992 M105.701,90.938v4.586l-6.844,7.414H16.612l-7.911-7.346v-4.654h39.123l2.998,3H64.58l2.998-3H105.701
		 M49.578,96.938l-2.998-3H11.701v0.346l6.089,5.654h79.755l5.156-5.586v-0.414H68.822l-2.998,3H49.578 M57.701,1.429
		c-1.557,0-3.159,0.127-5.04,0.4c-2.906,0.421-5.463,2.179-6.905,4.728c-0.891-0.275-1.83-0.416-2.781-0.416
		c-1.977,0-3.874,0.603-5.488,1.746c-3.244,2.3-6.044,5.102-8.333,8.333c-1.7,2.393-2.19,5.465-1.332,8.272
		c-2.552,1.444-4.309,4.002-4.729,6.91c-0.08,0.558-0.147,1.093-0.204,1.612c-8.401,0.735-12.188,6.603-12.188,12.422v37.5h-2h-8
		v8.002v4.654v3.488l2.557,2.373l7.911,7.348l2.302,2.137h3.142h82.246h3.502l2.375-2.574l6.844-7.414l2.123-2.297v-3.129v-4.586
		v-8.002h-8h-2v-37.5c0-5.387-2.973-11.619-11.188-12.415c-0.057-0.52-0.123-1.057-0.205-1.617c-0.422-2.911-2.18-5.47-4.73-6.912
		c0.857-2.817,0.365-5.884-1.338-8.281c-2.281-3.222-5.082-6.024-8.318-8.318c-1.629-1.151-3.523-1.752-5.496-1.752
		c-0.945,0-1.881,0.139-2.781,0.417c-1.447-2.554-4.002-4.308-6.908-4.729C60.859,1.556,59.258,1.429,57.701,1.429 M75.246,56.936
		h3.455v1h-0.727l-1.133,1.051L75.246,56.936z M48.693,56.936h4.029l-1.809,2.73L48.693,56.936z M61.604,77.936l2.715-4.1l3.188,4.1
		H61.604z M34.701,76.936h3.16l1.387-1.502l2.036,2.502h-6.583V76.936z"/>
</g>
</svg>
