<?xml version="1.0" encoding="utf-8"?>
<!-- Generator: Adobe Illustrator 16.0.0, SVG Export Plug-In . SVG Version: 6.00 Build 0)  -->
<!DOCTYPE svg PUBLIC "-//W3C//DTD SVG 1.1//EN" "http://www.w3.org/Graphics/SVG/1.1/DTD/svg11.dtd">
<svg version="1.1" id="Layer_1" xmlns="http://www.w3.org/2000/svg" xmlns:xlink="http://www.w3.org/1999/xlink" x="0px" y="0px"
	 width="48px" height="50px" viewBox="0 0 48 50" enable-background="new 0 0 48 50" xml:space="preserve">
<g>
	<g>
		<g>
			
				<line fill="none" stroke="#FFFFFF" stroke-width="2" stroke-linejoin="round" stroke-miterlimit="10" x1="26" y1="27" x2="36" y2="27"/>
			<polyline fill="none" stroke="#FFFFFF" stroke-width="2" stroke-linejoin="round" stroke-miterlimit="10" points="22,8 22,5 
				20,5 20,1 28,1 28,5 26,5 26,8 			"/>
			<path fill="none" stroke="#FFFFFF" stroke-width="2" stroke-linejoin="round" stroke-miterlimit="10" d="M30.257,4.753
				c9.486,2.716,16.429,11.453,16.429,21.812C46.686,39.093,36.528,49.25,24,49.25S1.314,39.093,1.314,26.564
				c0-10.358,6.941-19.095,16.428-21.812"/>
			
				<circle fill="none" stroke="#FFFFFF" stroke-width="2" stroke-linejoin="round" stroke-miterlimit="10" cx="24" cy="26.564" r="18.774"/>
			<g>
				
					<line fill="none" stroke="#FFFFFF" stroke-width="2" stroke-linejoin="round" stroke-miterlimit="10" x1="41.992" y1="7.79" x2="39.646" y2="10.137"/>
				
					<rect x="40.953" y="4.957" transform="matrix(0.7071 0.7071 -0.7071 0.7071 17.3216 -28.5847)" fill="none" stroke="#FFFFFF" stroke-width="2" stroke-linejoin="round" stroke-miterlimit="10" width="4.425" height="3.319"/>
			</g>
			<g>
				
					<line fill="none" stroke="#FFFFFF" stroke-width="2" stroke-linejoin="round" stroke-miterlimit="10" x1="6.008" y1="7.79" x2="8.354" y2="10.137"/>
				
					<rect x="2.622" y="4.957" transform="matrix(-0.7071 0.7071 -0.7071 -0.7071 12.9317 7.8769)" fill="none" stroke="#FFFFFF" stroke-width="2" stroke-linejoin="round" stroke-miterlimit="10" width="4.425" height="3.319"/>
			</g>
			
				<circle fill="none" stroke="#FFFFFF" stroke-width="2" stroke-linejoin="round" stroke-miterlimit="10" cx="24" cy="26.564" r="2.347"/>
			
				<line fill="none" stroke="#FFFFFF" stroke-width="2" stroke-linejoin="round" stroke-miterlimit="10" x1="40" y1="27" x2="39" y2="27"/>
			
				<line fill="none" stroke="#FFFFFF" stroke-width="2" stroke-linejoin="round" stroke-miterlimit="10" x1="9" y1="27" x2="8" y2="27"/>
			
				<line fill="none" stroke="#FFFFFF" stroke-width="2" stroke-linejoin="round" stroke-miterlimit="10" x1="14" y1="16" x2="12" y2="16"/>
			
				<line fill="none" stroke="#FFFFFF" stroke-width="2" stroke-linejoin="round" stroke-miterlimit="10" x1="36" y1="38" x2="34" y2="38"/>
			
				<line fill="none" stroke="#FFFFFF" stroke-width="2" stroke-linejoin="round" stroke-miterlimit="10" x1="34" y1="16" x2="36" y2="16"/>
			
				<line fill="none" stroke="#FFFFFF" stroke-width="2" stroke-linejoin="round" stroke-miterlimit="10" x1="12" y1="38" x2="14" y2="38"/>
			
				<line fill="none" stroke="#FFFFFF" stroke-width="2" stroke-linejoin="round" stroke-miterlimit="10" x1="24" y1="43" x2="24" y2="41"/>
			
				<line fill="none" stroke="#FFFFFF" stroke-width="2" stroke-linejoin="round" stroke-miterlimit="10" x1="24" y1="12" x2="24" y2="10"/>
		</g>
	</g>
</g>
</svg>
