<?xml version="1.0" encoding="utf-8"?>
<!-- Generator: Adobe Illustrator 16.0.0, SVG Export Plug-In . SVG Version: 6.00 Build 0)  -->
<!DOCTYPE svg PUBLIC "-//W3C//DTD SVG 1.1//EN" "http://www.w3.org/Graphics/SVG/1.1/DTD/svg11.dtd">
<svg version="1.1" id="Layer_1" xmlns="http://www.w3.org/2000/svg" xmlns:xlink="http://www.w3.org/1999/xlink" x="0px" y="0px"
	 width="74px" height="74px" viewBox="0 0 74 74" enable-background="new 0 0 74 74" xml:space="preserve">
<g>
	<g>
		<g>
			<g>
				<g>
					<path fill="none" stroke="#FFFFFF" stroke-width="2" stroke-linejoin="round" stroke-miterlimit="10" d="M30.032,39.322v5.807
						c0,1.924-3.484,3.484-3.484,3.484l-8.129,2.322c-5.807,1.161-9.291,8.129-9.291,8.129"/>
					<path fill="none" stroke="#FFFFFF" stroke-width="2" stroke-linejoin="round" stroke-miterlimit="10" d="M43.968,39.322v5.807
						c0,1.924,3.483,3.484,3.483,3.484l8.129,2.322c5.807,1.161,9.291,8.129,9.291,8.129"/>
					<path fill="none" stroke="#FFFFFF" stroke-width="2" stroke-linejoin="round" stroke-miterlimit="10" d="M26.548,23.064v3.484
						c0,8.337,3.484,16.258,10.452,16.258s10.451-7.921,10.451-16.258v-3.484c0-1.923-1.561-3.484-3.483-3.484H37l-6.968-3.484
						v3.484C28.109,19.581,26.548,21.141,26.548,23.064z"/>
					<polyline fill="none" stroke="#FFFFFF" stroke-width="2" stroke-linejoin="round" stroke-miterlimit="10" points="
						47.451,48.613 43.968,48.613 39.322,53.258 34.677,53.258 30.032,48.613 26.548,48.613 					"/>
					
						<line fill="none" stroke="#FFFFFF" stroke-width="2" stroke-linejoin="round" stroke-miterlimit="10" x1="37" y1="62.549" x2="37" y2="64.871"/>
					
						<line fill="none" stroke="#FFFFFF" stroke-width="2" stroke-linejoin="round" stroke-miterlimit="10" x1="37" y1="57.903" x2="37" y2="60.226"/>
					
						<line fill="none" stroke="#FFFFFF" stroke-width="2" stroke-linejoin="round" stroke-miterlimit="10" x1="37" y1="67.193" x2="37" y2="69.516"/>
					
						<line fill="none" stroke="#FFFFFF" stroke-width="2" stroke-linejoin="round" stroke-miterlimit="10" x1="42.807" y1="61.387" x2="52.097" y2="61.387"/>
					<path fill="none" stroke="#FFFFFF" stroke-width="2" stroke-linejoin="round" stroke-miterlimit="10" d="M52,21v-1.419
						c0-6.415-5-11.613-12-11.613v2.322l-6.678-2.322C26.908,7.968,22,13.166,22,19.581V21"/>
				</g>
				<path fill="none" stroke="#FFFFFF" stroke-width="2" stroke-linejoin="round" stroke-miterlimit="10" d="M25.387,33.516
					c-3.848,0-6.968-3.12-6.968-6.968s3.12-6.968,6.968-6.968"/>
				<path fill="none" stroke="#FFFFFF" stroke-width="2" stroke-linejoin="round" stroke-miterlimit="10" d="M48.613,33.516
					c3.848,0,6.967-3.12,6.967-6.968s-3.119-6.968-6.967-6.968"/>
				<path fill="none" stroke="#FFFFFF" stroke-width="2" stroke-linejoin="round" stroke-miterlimit="10" d="M53.258,31.193v4.646
					c0,1.282-1.039,2.322-2.322,2.322H38.161c-1.282,0-2.322-1.04-2.322-2.322"/>
			</g>
			<circle fill="none" stroke="#FFFFFF" stroke-width="2" stroke-linejoin="round" stroke-miterlimit="10" cx="37" cy="37" r="36"/>
		</g>
	</g>
</g>
</svg>
