<?xml version="1.0" encoding="utf-8"?>
<!-- Generator: Adobe Illustrator 16.0.0, SVG Export Plug-In . SVG Version: 6.00 Build 0)  -->
<!DOCTYPE svg PUBLIC "-//W3C//DTD SVG 1.1//EN" "http://www.w3.org/Graphics/SVG/1.1/DTD/svg11.dtd">
<svg version="1.1" id="Layer_1" xmlns="http://www.w3.org/2000/svg" xmlns:xlink="http://www.w3.org/1999/xlink" x="0px" y="0px"
	 width="74px" height="74px" viewBox="0 0 74 74" enable-background="new 0 0 74 74" xml:space="preserve">
<g>
	<g>
		<g>
			<g>
				<g>
					<linearGradient id="SVGID_1_" gradientUnits="userSpaceOnUse" x1="8.2344" y1="49.417" x2="31.0322" y2="49.417">
						<stop  offset="0" style="stop-color:#811B56"/>
						<stop  offset="1" style="stop-color:#5C56A5"/>
					</linearGradient>
					<path fill="none" stroke="url(#SVGID_1_)" stroke-width="2" stroke-linejoin="round" stroke-miterlimit="10" d="M30.032,39.322
						v5.807c0,1.924-3.484,3.484-3.484,3.484l-8.129,2.322c-5.807,1.161-9.291,8.129-9.291,8.129"/>
					<linearGradient id="SVGID_2_" gradientUnits="userSpaceOnUse" x1="42.9678" y1="49.417" x2="65.7656" y2="49.417">
						<stop  offset="0" style="stop-color:#811B56"/>
						<stop  offset="1" style="stop-color:#5C56A5"/>
					</linearGradient>
					<path fill="none" stroke="url(#SVGID_2_)" stroke-width="2" stroke-linejoin="round" stroke-miterlimit="10" d="M43.968,39.322
						v5.807c0,1.924,3.483,3.484,3.483,3.484l8.129,2.322c5.807,1.161,9.291,8.129,9.291,8.129"/>
					<linearGradient id="SVGID_3_" gradientUnits="userSpaceOnUse" x1="25.5483" y1="29.4517" x2="48.4512" y2="29.4517">
						<stop  offset="0" style="stop-color:#811B56"/>
						<stop  offset="1" style="stop-color:#5C56A5"/>
					</linearGradient>
					<path fill="none" stroke="url(#SVGID_3_)" stroke-width="2" stroke-linejoin="round" stroke-miterlimit="10" d="M26.548,23.064
						v3.484c0,8.337,3.484,16.258,10.452,16.258s10.451-7.921,10.451-16.258v-3.484c0-1.923-1.561-3.484-3.483-3.484H37
						l-6.968-3.484v3.484C28.109,19.581,26.548,21.141,26.548,23.064z"/>
					<linearGradient id="SVGID_4_" gradientUnits="userSpaceOnUse" x1="26.5483" y1="50.9355" x2="47.4512" y2="50.9355">
						<stop  offset="0" style="stop-color:#811B56"/>
						<stop  offset="1" style="stop-color:#5C56A5"/>
					</linearGradient>
					<polyline fill="none" stroke="url(#SVGID_4_)" stroke-width="2" stroke-linejoin="round" stroke-miterlimit="10" points="
						47.451,48.613 43.968,48.613 39.322,53.258 34.677,53.258 30.032,48.613 26.548,48.613 					"/>
					<linearGradient id="SVGID_5_" gradientUnits="userSpaceOnUse" x1="36" y1="63.71" x2="38" y2="63.71">
						<stop  offset="0" style="stop-color:#811B56"/>
						<stop  offset="1" style="stop-color:#5C56A5"/>
					</linearGradient>
					
						<line fill="none" stroke="url(#SVGID_5_)" stroke-width="2" stroke-linejoin="round" stroke-miterlimit="10" x1="37" y1="62.549" x2="37" y2="64.871"/>
					<linearGradient id="SVGID_6_" gradientUnits="userSpaceOnUse" x1="36" y1="59.0645" x2="38" y2="59.0645">
						<stop  offset="0" style="stop-color:#811B56"/>
						<stop  offset="1" style="stop-color:#5C56A5"/>
					</linearGradient>
					
						<line fill="none" stroke="url(#SVGID_6_)" stroke-width="2" stroke-linejoin="round" stroke-miterlimit="10" x1="37" y1="57.903" x2="37" y2="60.226"/>
					<linearGradient id="SVGID_7_" gradientUnits="userSpaceOnUse" x1="36" y1="68.3545" x2="38" y2="68.3545">
						<stop  offset="0" style="stop-color:#811B56"/>
						<stop  offset="1" style="stop-color:#5C56A5"/>
					</linearGradient>
					
						<line fill="none" stroke="url(#SVGID_7_)" stroke-width="2" stroke-linejoin="round" stroke-miterlimit="10" x1="37" y1="67.193" x2="37" y2="69.516"/>
					<linearGradient id="SVGID_8_" gradientUnits="userSpaceOnUse" x1="42.8066" y1="61.3867" x2="52.0967" y2="61.3867">
						<stop  offset="0" style="stop-color:#811B56"/>
						<stop  offset="1" style="stop-color:#5C56A5"/>
					</linearGradient>
					
						<line fill="none" stroke="url(#SVGID_8_)" stroke-width="2" stroke-linejoin="round" stroke-miterlimit="10" x1="42.807" y1="61.387" x2="52.097" y2="61.387"/>
					<linearGradient id="SVGID_9_" gradientUnits="userSpaceOnUse" x1="21" y1="13.9839" x2="53" y2="13.9839">
						<stop  offset="0" style="stop-color:#811B56"/>
						<stop  offset="1" style="stop-color:#5C56A5"/>
					</linearGradient>
					<path fill="none" stroke="url(#SVGID_9_)" stroke-width="2" stroke-linejoin="round" stroke-miterlimit="10" d="M52,21v-1.419
						c0-6.415-5-11.613-12-11.613v2.322l-6.678-2.322C26.908,7.968,22,13.166,22,19.581V21"/>
				</g>
				<linearGradient id="SVGID_10_" gradientUnits="userSpaceOnUse" x1="17.4194" y1="26.5483" x2="25.3872" y2="26.5483">
					<stop  offset="0" style="stop-color:#811B56"/>
					<stop  offset="1" style="stop-color:#5C56A5"/>
				</linearGradient>
				<path fill="none" stroke="url(#SVGID_10_)" stroke-width="2" stroke-linejoin="round" stroke-miterlimit="10" d="M25.387,33.516
					c-3.848,0-6.968-3.12-6.968-6.968s3.12-6.968,6.968-6.968"/>
				<linearGradient id="SVGID_11_" gradientUnits="userSpaceOnUse" x1="48.6133" y1="26.5483" x2="56.5801" y2="26.5483">
					<stop  offset="0" style="stop-color:#811B56"/>
					<stop  offset="1" style="stop-color:#5C56A5"/>
				</linearGradient>
				<path fill="none" stroke="url(#SVGID_11_)" stroke-width="2" stroke-linejoin="round" stroke-miterlimit="10" d="M48.613,33.516
					c3.848,0,6.967-3.12,6.967-6.968s-3.119-6.968-6.967-6.968"/>
				<linearGradient id="SVGID_12_" gradientUnits="userSpaceOnUse" x1="34.8389" y1="35.1772" x2="54.2578" y2="35.1772">
					<stop  offset="0" style="stop-color:#811B56"/>
					<stop  offset="1" style="stop-color:#5C56A5"/>
				</linearGradient>
				<path fill="none" stroke="url(#SVGID_12_)" stroke-width="2" stroke-linejoin="round" stroke-miterlimit="10" d="M53.258,31.193
					v4.646c0,1.282-1.039,2.322-2.322,2.322H38.161c-1.282,0-2.322-1.04-2.322-2.322"/>
			</g>
			<linearGradient id="SVGID_13_" gradientUnits="userSpaceOnUse" x1="0" y1="37" x2="74" y2="37">
				<stop  offset="0" style="stop-color:#811B56"/>
				<stop  offset="1" style="stop-color:#5C56A5"/>
			</linearGradient>
			
				<circle fill="none" stroke="url(#SVGID_13_)" stroke-width="2" stroke-linejoin="round" stroke-miterlimit="10" cx="37" cy="37" r="36"/>
		</g>
	</g>
</g>
</svg>
