<?xml version="1.0" encoding="utf-8"?>
<!-- Generator: Adobe Illustrator 22.1.0, SVG Export Plug-In . SVG Version: 6.00 Build 0)  -->
<svg version="1.1" id="Layer_1" xmlns="http://www.w3.org/2000/svg" xmlns:xlink="http://www.w3.org/1999/xlink" x="0px" y="0px"
	 viewBox="0 0 200.1 267" style="enable-background:new 0 0 200.1 267;" xml:space="preserve">
<style type="text/css">
	.st0{opacity:0.5;fill:url(#SVGID_2_);enable-background:new    ;}
	.st1{opacity:0.5;fill:url(#SVGID_5_);enable-background:new    ;}
	.st2{fill:url(#SVGID_7_);}
	.st3{fill:url(#SVGID_8_);}
	.st4{opacity:0.5;fill:url(#SVGID_9_);enable-background:new    ;}
	.st5{clip-path:url(#SVGID_12_);}
	.st6{clip-path:url(#SVGID_13_);fill:url(#SVGID_14_);}
	.st7{opacity:0.6;fill:url(#SVGID_15_);enable-background:new    ;}
	.st8{clip-path:url(#SVGID_18_);}
	.st9{clip-path:url(#SVGID_19_);fill:url(#SVGID_20_);}
	.st10{opacity:0.29;fill:url(#SVGID_21_);enable-background:new    ;}
	.st11{opacity:0.5;fill:url(#SVGID_22_);enable-background:new    ;}
	.st12{fill:none;stroke:#12DAE9;stroke-width:0.25;stroke-miterlimit:10;}
	.st13{opacity:0.5;fill:url(#SVGID_23_);enable-background:new    ;}
	.st14{opacity:0.5;fill:url(#SVGID_24_);enable-background:new    ;}
	.st15{fill:url(#SVGID_25_);}
	.st16{fill:url(#SVGID_26_);}
	.st17{opacity:0.5;fill:url(#SVGID_27_);enable-background:new    ;}
	.st18{clip-path:url(#SVGID_30_);}
	.st19{clip-path:url(#SVGID_31_);fill:url(#SVGID_32_);}
	.st20{opacity:0.6;fill:url(#SVGID_33_);enable-background:new    ;}
	.st21{clip-path:url(#SVGID_36_);}
	.st22{clip-path:url(#SVGID_37_);fill:url(#SVGID_38_);}
	.st23{opacity:0.29;fill:url(#SVGID_39_);enable-background:new    ;}
	.st24{opacity:0.5;fill:url(#SVGID_40_);enable-background:new    ;}
	.st25{fill:url(#SVGID_41_);}
	.st26{fill:#236696;}
	.st27{fill:#0972EB;}
	.st28{fill:url(#SVGID_42_);}
	.st29{fill:#3681F2;}
	.st30{fill:url(#SVGID_43_);}
	.st31{fill:#EDEDED;}
	.st32{fill:url(#SVGID_44_);}
	.st33{fill:#F7F7F7;}
	.st34{fill:#09BEEB;}
	.st35{fill:#FFFFFF;}
	.st36{fill:#36D7F2;}
	.st37{fill:url(#SVGID_45_);}
	.st38{enable-background:new    ;}
	.st39{fill:#5D5D5D;}
	.st40{fill:#96EEFF;}
	.st41{fill:url(#SVGID_46_);}
	.st42{fill:url(#SVGID_47_);}
	.st43{fill:url(#SVGID_48_);}
	.st44{fill:url(#SVGID_49_);}
	.st45{fill:url(#SVGID_50_);}
	.st46{fill:url(#SVGID_51_);}
	.st47{fill:url(#SVGID_52_);}
	.st48{opacity:0.5;fill:url(#SVGID_53_);enable-background:new    ;}
	.st49{fill:url(#SVGID_54_);}
	.st50{fill:url(#SVGID_55_);}
	.st51{fill:url(#SVGID_56_);}
	.st52{fill:url(#SVGID_57_);}
	.st53{fill:url(#SVGID_58_);}
	.st54{fill:url(#SVGID_59_);}
	.st55{fill:url(#SVGID_60_);}
	.st56{fill:url(#SVGID_61_);}
	.st57{fill:#E4EFF4;}
	.st58{fill:url(#SVGID_62_);}
	.st59{fill:url(#SVGID_63_);}
</style>
<g>
	
		<linearGradient id="SVGID_2_" gradientUnits="userSpaceOnUse" x1="-70.0099" y1="222.2041" x2="-70.0099" y2="93.5257" gradientTransform="matrix(1 0 0 -1 91.3099 268)">
		<stop  offset="0" style="stop-color:#128FE9"/>
		<stop  offset="1" style="stop-color:#128FE9"/>
	</linearGradient>
	<path class="st0" d="M42.5,40.4c-2.5-0.2-5.1,0.3-7.3,1.6l-33,19c-1.4,0.8-2,2.1-2.1,3.5c0,0.4,0,102,0,107.5
		c0-1.4,0.7-2.7,2.1-3.5l33-19c2.2-1.3,4.8-1.8,7.3-1.6V40.4z"/>
	
		<linearGradient id="SVGID_5_" gradientUnits="userSpaceOnUse" x1="-70.0099" y1="222.2041" x2="-70.0099" y2="93.5257" gradientTransform="matrix(1 0 0 -1 91.3099 268)">
		<stop  offset="0" style="stop-color:#128FE9"/>
		<stop  offset="1" style="stop-color:#128FE9"/>
	</linearGradient>
	<path class="st1" d="M42.5,40.4c-2.5-0.2-5.1,0.3-7.3,1.6l-33,19c-1.4,0.8-2,2.1-2.1,3.5c0,0.4,0,102,0,107.5
		c0-1.4,0.7-2.7,2.1-3.5l33-19c2.2-1.3,4.8-1.8,7.3-1.6V40.4z"/>
	
		<linearGradient id="SVGID_7_" gradientUnits="userSpaceOnUse" x1="-30.7599" y1="221.8646" x2="-30.7599" y2="106.6279" gradientTransform="matrix(1 0 0 -1 91.3099 268)">
		<stop  offset="0" style="stop-color:#12C2E9"/>
		<stop  offset="1" style="stop-color:#12C2E9"/>
	</linearGradient>
	<path class="st2" d="M76.4,58.8L47.6,42c-1.6-0.9-3.3-1.4-5-1.6v107.5c1.8,0.2,3.5,0.7,5,1.6l28.9,16.8c1.3,0.8,2,2.1,2,3.5
		c0-1.9,0-107,0-107.4C78.5,61,77.8,59.6,76.4,58.8z"/>
	
		<linearGradient id="SVGID_8_" gradientUnits="userSpaceOnUse" x1="-30.7599" y1="221.8646" x2="-30.7599" y2="106.6279" gradientTransform="matrix(1 0 0 -1 91.3099 268)">
		<stop  offset="0" style="stop-color:#12C2E9"/>
		<stop  offset="1" style="stop-color:#12C2E9"/>
	</linearGradient>
	<path class="st3" d="M76.4,58.8L47.6,42c-1.6-0.9-3.3-1.4-5-1.6v107.5c1.8,0.2,3.5,0.7,5,1.6l28.9,16.8c1.3,0.8,2,2.1,2,3.5
		c0-1.9,0-107,0-107.4C78.5,61,77.8,59.6,76.4,58.8z"/>
	
		<linearGradient id="SVGID_9_" gradientUnits="userSpaceOnUse" x1="-72.4599" y1="184.4304" x2="-72.4599" y2="76.1338" gradientTransform="matrix(1 0 0 -1 91.3099 268)">
		<stop  offset="0" style="stop-color:#128FE9"/>
		<stop  offset="1" style="stop-color:#128FE9"/>
	</linearGradient>
	<path class="st4" d="M37.5,86.6c-2.2,0-4.5-0.5-6.5-1.6L2.2,68.1c-1.3-0.8-2-2.1-2-3.5c0,6.6,0,107,0,107.4c0,1.4,0.7,2.8,2,3.6
		L31,192.5c2,1.2,4.2,1.7,6.5,1.6V86.6z"/>
	<g>
		<g>
			<defs>
				<polygon id="SVGID_10_" points="1,161 2,161 1,162 				"/>
			</defs>
			<defs>
				<polygon id="SVGID_11_" points="-1,159 -2,159 -1,158 				"/>
			</defs>
			<clipPath id="SVGID_12_">
				<use xlink:href="#SVGID_10_"  style="overflow:visible;"/>
			</clipPath>
			<clipPath id="SVGID_13_" class="st5">
				<use xlink:href="#SVGID_11_"  style="overflow:visible;"/>
			</clipPath>
			
				<linearGradient id="SVGID_14_" gradientUnits="userSpaceOnUse" x1="-33.3099" y1="-0.1238" x2="-33.3099" y2="-77.2145" gradientTransform="matrix(1 0 0 -1 91.3099 268)">
				<stop  offset="0" style="stop-color:#FFFFFF"/>
				<stop  offset="1" style="stop-color:#262626"/>
			</linearGradient>
			<path class="st6" d="M76.4,267.1l-33,19c-1.8,1.1-3.9,1.6-5.9,1.6V354c2,0,4.1-0.6,5.9-1.6l33-19c1.4-0.8,2.1-2.2,2.1-3.6
				c0-0.4,0-62,0-66.2C78.5,265,77.8,266.3,76.4,267.1z"/>
		</g>
	</g>
	
		<linearGradient id="SVGID_15_" gradientUnits="userSpaceOnUse" x1="-33.3099" y1="198.9909" x2="-33.3099" y2="86.831" gradientTransform="matrix(1 0 0 -1 91.3099 268)">
		<stop  offset="0" style="stop-color:#12C2E9"/>
		<stop  offset="1" style="stop-color:#12C2E9"/>
	</linearGradient>
	<path class="st7" d="M76.4,65.9l-33,19c-1.8,1.1-3.9,1.6-5.9,1.6V194c2,0,4.1-0.6,5.9-1.6l33-19c1.4-0.8,2.1-2.2,2.1-3.6
		c0-0.4,0-103.1,0-107.4C78.5,63.8,77.8,65.2,76.4,65.9z"/>
	<g>
		<g>
			<defs>
				<polygon id="SVGID_16_" points="1,161 2,161 1,162 				"/>
			</defs>
			<defs>
				<polygon id="SVGID_17_" points="-1,159 -2,159 -1,158 				"/>
			</defs>
			<clipPath id="SVGID_18_">
				<use xlink:href="#SVGID_16_"  style="overflow:visible;"/>
			</clipPath>
			<clipPath id="SVGID_19_" class="st8">
				<use xlink:href="#SVGID_17_"  style="overflow:visible;"/>
			</clipPath>
			
				<linearGradient id="SVGID_20_" gradientUnits="userSpaceOnUse" x1="-85.1099" y1="-0.7808" x2="-85.1099" y2="-55.321" gradientTransform="matrix(1 0 0 -1 91.3099 268)">
				<stop  offset="0" style="stop-color:#000000"/>
				<stop  offset="4.279401e-02" style="stop-color:#070707"/>
				<stop  offset="0.105" style="stop-color:#1A1A1A"/>
				<stop  offset="0.1792" style="stop-color:#3A3A3A"/>
				<stop  offset="0.2625" style="stop-color:#676767"/>
				<stop  offset="0.3535" style="stop-color:#9F9F9F"/>
				<stop  offset="0.4494" style="stop-color:#E4E4E4"/>
				<stop  offset="0.4854" style="stop-color:#FFFFFF"/>
				<stop  offset="0.536" style="stop-color:#D2D2D2"/>
				<stop  offset="0.6048" style="stop-color:#9B9B9B"/>
				<stop  offset="0.6742" style="stop-color:#6B6B6B"/>
				<stop  offset="0.7427" style="stop-color:#454545"/>
				<stop  offset="0.8102" style="stop-color:#272727"/>
				<stop  offset="0.8762" style="stop-color:#111111"/>
				<stop  offset="0.9402" style="stop-color:#040404"/>
				<stop  offset="1" style="stop-color:#000000"/>
			</linearGradient>
			<rect x="5.7" y="267.6" class="st9" width="1" height="57.9"/>
		</g>
	</g>
	
		<linearGradient id="SVGID_21_" gradientUnits="userSpaceOnUse" x1="-85.1099" y1="199.5782" x2="-85.1099" y2="106.2336" gradientTransform="matrix(1 0 0 -1 91.3099 268)">
		<stop  offset="0" style="stop-color:#12C2E9"/>
		<stop  offset="0.4854" style="stop-color:#12C2E9"/>
		<stop  offset="1" style="stop-color:#12C2E9"/>
	</linearGradient>
	<rect x="5.7" y="66.5" class="st10" width="1" height="99"/>
	
		<linearGradient id="SVGID_22_" gradientUnits="userSpaceOnUse" x1="31.8137" y1="95.5" x2="32.2697" y2="95.5" gradientTransform="matrix(1 0 0 -1 0 268)">
		<stop  offset="0" style="stop-color:#12C2E9"/>
		<stop  offset="1" style="stop-color:#12C2E9"/>
	</linearGradient>
	<rect x="31.8" y="154.3" class="st11" width="0.5" height="36.4"/>
	<path class="st12" d="M43.4,192.5c-3.8,2.2-8.5,2.2-12.4,0L2.2,175.7c-2.7-1.6-2.7-5.6,0-7.1l33-19c3.8-2.2,8.6-2.2,12.4,0
		l28.9,16.8c2.7,1.6,2.7,5.6,0,7.1L43.4,192.5z"/>
	
		<linearGradient id="SVGID_23_" gradientUnits="userSpaceOnUse" x1="-8.9099" y1="206.9843" x2="-8.9099" y2="64.7401" gradientTransform="matrix(1 0 0 -1 91.3099 268)">
		<stop  offset="0" style="stop-color:#128FE9"/>
		<stop  offset="1" style="stop-color:#128FE9"/>
	</linearGradient>
	<path class="st13" d="M116.5,55.1c-4-0.4-8.2,0.4-11.8,2.5L51.6,88.2c-2.2,1.3-3.3,3.4-3.3,5.6c0,0.7,0,97.9,0,106.7
		c0-2.2,1.1-4.4,3.3-5.6l53.1-30.6c3.6-2.1,7.7-2.9,11.8-2.5V55.1z"/>
	
		<linearGradient id="SVGID_24_" gradientUnits="userSpaceOnUse" x1="-8.9099" y1="206.9843" x2="-8.9099" y2="64.7401" gradientTransform="matrix(1 0 0 -1 91.3099 268)">
		<stop  offset="0" style="stop-color:#128FE9"/>
		<stop  offset="1" style="stop-color:#128FE9"/>
	</linearGradient>
	<path class="st14" d="M116.5,55.1c-4-0.4-8.2,0.4-11.8,2.5L51.6,88.2c-2.2,1.3-3.3,3.4-3.3,5.6c0,0.7,0,97.9,0,106.7
		c0-2.2,1.1-4.4,3.3-5.6l53.1-30.6c3.6-2.1,7.7-2.9,11.8-2.5V55.1z"/>
	
		<linearGradient id="SVGID_25_" gradientUnits="userSpaceOnUse" x1="54.0901" y1="206.6311" x2="54.0901" y2="80.2487" gradientTransform="matrix(1 0 0 -1 91.3099 268)">
		<stop  offset="0" style="stop-color:#12C2E9"/>
		<stop  offset="1" style="stop-color:#12C2E9"/>
	</linearGradient>
	<path class="st15" d="M171,84.7l-46.4-27c-2.5-1.5-5.3-2.3-8.1-2.5v106.7c2.8,0.3,5.6,1.1,8.1,2.5l46.4,27c2.2,1.3,3.3,3.4,3.3,5.6
		c0-3.1,0-105.9,0-106.6C174.3,88.2,173.2,86,171,84.7z"/>
	
		<linearGradient id="SVGID_26_" gradientUnits="userSpaceOnUse" x1="54.0901" y1="206.6311" x2="54.0901" y2="80.2487" gradientTransform="matrix(1 0 0 -1 91.3099 268)">
		<stop  offset="0" style="stop-color:#12C2E9"/>
		<stop  offset="1" style="stop-color:#12C2E9"/>
	</linearGradient>
	<path class="st16" d="M171,84.7l-46.4-27c-2.5-1.5-5.3-2.3-8.1-2.5v106.7c2.8,0.3,5.6,1.1,8.1,2.5l46.4,27c2.2,1.3,3.3,3.4,3.3,5.6
		c0-3.1,0-105.9,0-106.6C174.3,88.2,173.2,86,171,84.7z"/>
	
		<linearGradient id="SVGID_27_" gradientUnits="userSpaceOnUse" x1="-12.9599" y1="153.1696" x2="-12.9599" y2="34.3728" gradientTransform="matrix(1 0 0 -1 91.3099 268)">
		<stop  offset="0" style="stop-color:#128FE9"/>
		<stop  offset="1" style="stop-color:#128FE9"/>
	</linearGradient>
	<path class="st17" d="M108.4,129.4c-3.6,0.1-7.2-0.8-10.4-2.6l-46.4-27c-2.2-1.3-3.3-3.4-3.3-5.6c0,10.6,0,105.9,0,106.6
		c0,2.2,1.1,4.4,3.3,5.7l46.4,27c3.2,1.9,6.8,2.7,10.4,2.6V129.4z"/>
	<g>
		<g>
			<defs>
				<polygon id="SVGID_28_" points="1,161 2,161 1,162 				"/>
			</defs>
			<defs>
				<polygon id="SVGID_29_" points="-1,159 -2,159 -1,158 				"/>
			</defs>
			<clipPath id="SVGID_30_">
				<use xlink:href="#SVGID_28_"  style="overflow:visible;"/>
			</clipPath>
			<clipPath id="SVGID_31_" class="st18">
				<use xlink:href="#SVGID_29_"  style="overflow:visible;"/>
			</clipPath>
			
				<linearGradient id="SVGID_32_" gradientUnits="userSpaceOnUse" x1="50.0401" y1="10.2108" x2="50.0401" y2="-113.7809" gradientTransform="matrix(1 0 0 -1 91.3099 268)">
				<stop  offset="0" style="stop-color:#FFFFFF"/>
				<stop  offset="1" style="stop-color:#262626"/>
			</linearGradient>
			<path class="st19" d="M171,256.2l-53.1,30.6c-2.9,1.7-6.2,2.5-9.5,2.6v106.7c3.3-0.1,6.6-0.9,9.5-2.6l53.1-30.6
				c2.2-1.3,3.3-3.6,3.3-5.8c0-0.6,0-99.6,0-106.5C174.2,252.7,173.1,254.9,171,256.2z"/>
		</g>
	</g>
	
		<linearGradient id="SVGID_33_" gradientUnits="userSpaceOnUse" x1="50.0401" y1="170.2108" x2="50.0401" y2="46.2191" gradientTransform="matrix(1 0 0 -1 91.3099 268)">
		<stop  offset="0" style="stop-color:#12C2E9"/>
		<stop  offset="1" style="stop-color:#12C2E9"/>
	</linearGradient>
	<path class="st20" d="M171,96.2l-53.1,30.6c-2.9,1.7-6.2,2.5-9.5,2.6v106.7c3.3-0.1,6.6-0.9,9.5-2.6l53.1-30.6
		c2.2-1.3,3.3-3.6,3.3-5.8c0-0.6,0-99.6,0-106.5C174.2,92.7,173.1,94.9,171,96.2z"/>
	<g>
		<g>
			<defs>
				<polygon id="SVGID_34_" points="1,161 2,161 1,162 				"/>
			</defs>
			<defs>
				<polygon id="SVGID_35_" points="-1,159 -2,159 -1,158 				"/>
			</defs>
			<clipPath id="SVGID_36_">
				<use xlink:href="#SVGID_34_"  style="overflow:visible;"/>
			</clipPath>
			<clipPath id="SVGID_37_" class="st21">
				<use xlink:href="#SVGID_35_"  style="overflow:visible;"/>
			</clipPath>
			
				<linearGradient id="SVGID_38_" gradientUnits="userSpaceOnUse" x1="-33.3599" y1="9.1541" x2="-33.3599" y2="-78.5677" gradientTransform="matrix(1 0 0 -1 91.3099 268)">
				<stop  offset="0" style="stop-color:#000000"/>
				<stop  offset="4.279401e-02" style="stop-color:#070707"/>
				<stop  offset="0.105" style="stop-color:#1A1A1A"/>
				<stop  offset="0.1792" style="stop-color:#3A3A3A"/>
				<stop  offset="0.2625" style="stop-color:#676767"/>
				<stop  offset="0.3535" style="stop-color:#9F9F9F"/>
				<stop  offset="0.4494" style="stop-color:#E4E4E4"/>
				<stop  offset="0.4854" style="stop-color:#FFFFFF"/>
				<stop  offset="0.536" style="stop-color:#D2D2D2"/>
				<stop  offset="0.6048" style="stop-color:#9B9B9B"/>
				<stop  offset="0.6742" style="stop-color:#6B6B6B"/>
				<stop  offset="0.7427" style="stop-color:#454545"/>
				<stop  offset="0.8102" style="stop-color:#272727"/>
				<stop  offset="0.8762" style="stop-color:#111111"/>
				<stop  offset="0.9402" style="stop-color:#040404"/>
				<stop  offset="1" style="stop-color:#000000"/>
			</linearGradient>
			<rect x="57.2" y="257" class="st22" width="1.5" height="93.1"/>
		</g>
	</g>
	
		<linearGradient id="SVGID_39_" gradientUnits="userSpaceOnUse" x1="-33.3599" y1="169.1541" x2="-33.3599" y2="81.4323" gradientTransform="matrix(1 0 0 -1 91.3099 268)">
		<stop  offset="0" style="stop-color:#12C2E9"/>
		<stop  offset="0.4854" style="stop-color:#12C2E9"/>
		<stop  offset="1" style="stop-color:#12C2E9"/>
	</linearGradient>
	<rect x="57.2" y="97" class="st23" width="1.5" height="93.1"/>
	
		<linearGradient id="SVGID_40_" gradientUnits="userSpaceOnUse" x1="99.222" y1="66.65" x2="99.9555" y2="66.65" gradientTransform="matrix(1 0 0 -1 0 268)">
		<stop  offset="0" style="stop-color:#12C2E9"/>
		<stop  offset="1" style="stop-color:#12C2E9"/>
	</linearGradient>
	<rect x="99.2" y="172.1" class="st24" width="0.7" height="58.5"/>
	<path class="st12" d="M117.9,233.5c-6.1,3.5-13.7,3.5-19.9,0l-46.4-27c-4.4-2.6-4.4-8.9,0-11.5l53.1-30.6c6.1-3.5,13.8-3.5,19.9,0
		l46.4,27c4.4,2.6,4.4,8.9,0,11.5L117.9,233.5z"/>
</g>
<linearGradient id="SVGID_41_" gradientUnits="userSpaceOnUse" x1="-91.1349" y1="204.5" x2="-12.7849" y2="204.5" gradientTransform="matrix(1 0 0 -1 91.3099 268)">
	<stop  offset="0" style="stop-color:#12C2E9"/>
	<stop  offset="1" style="stop-color:#12C2E9"/>
</linearGradient>
<path class="st25" d="M43.4,85c-3.8,2.2-8.5,2.2-12.4,0L2.2,68.1c-2.7-1.6-2.7-5.6,0-7.1l33-19c3.8-2.2,8.6-2.2,12.4,0l28.9,16.8
	c2.7,1.6,2.7,5.6,0,7.1L43.4,85z"/>
<path class="st12" d="M43.4,92.3c-3.8,2.2-8.5,2.2-12.4,0L2.2,75.5c-2.7-1.6-2.7-5.6,0-7.1l33-19c3.8-2.2,8.6-2.2,12.4,0l28.9,16.8
	c2.7,1.6,2.7,5.6,0,7.1L43.4,92.3z"/>
<path class="st26" d="M77.7,125.9C77.7,125.9,77.7,126,77.7,125.9c0,0,0-0.1,0-0.2c-0.1-0.6-0.6-1.2-1.1-1.4
	c-1.2-0.4-4.5-2.2-4.5-2.2l-8-4.6l-9.8,1.3l0.9,4.7c0,0.2,0.1,0.5,0.2,0.7l0,0c0,0,0.3,1.3,0.4,1.3c0,0,0.1,0.4,0.9,0.7
	c0.7,0.3,2.6,0.8,2.7,0.9l0,0l0,0l0,0l0,0l0,0l0,0l0,0l1.4-1.1c0.3,0.1,0.6,0.2,0.6,0.2c0.3,0.2,5.5,2.8,6.1,3c0,0,3.7,1.9,7.3,0.1
	c1.1-0.5,2.4-1.3,2.9-2.5C77.8,126.5,77.8,125.9,77.7,125.9z"/>
<path class="st26" d="M89.6,111.7L89.6,111.7c0,0,0-0.1,0-0.2c-0.1-0.6-0.6-1.2-1.1-1.4c-1.2-0.4-4.5-2.2-4.5-2.2l-8-4.6l-9.8,1.2
	l0.9,4.7c0,0.2,0.1,0.5,0.2,0.7l0,0c0,0,0.3,1.3,0.4,1.3c0,0,0.1,0.4,0.9,0.7c0.7,0.3,2.7,0.8,2.8,0.9l0,0l0,0l0,0l0,0l0,0l0,0l0,0
	l1.4-1.1c0.3,0.1,0.6,0.2,0.6,0.2c0.3,0.2,5.5,2.8,6.1,3c0,0,3.7,1.9,7.3,0.1c1.1-0.5,2.4-1.3,2.9-2.5
	C89.7,112.3,89.6,111.7,89.6,111.7z"/>
<path class="st27" d="M30.6,47.2l9.2,4.5l22.4,12.2c0,0,9.8,5.4,10.4,12.2c0.4,5.3,5.2,26.6,5.2,26.6c0.5,1.5,0,2.6-1.2,3.1
	c-6.2,2.3-11.3,1.7-11.3,1.7c-0.6-0.3-1.6-2.7-1.7-3.2l-9-30l-17.4-7c0,0-5.7-4.7-6.1-9.6C30.8,55.6,30.6,47.2,30.6,47.2z"/>
<linearGradient id="SVGID_42_" gradientUnits="userSpaceOnUse" x1="162.4975" y1="206.5493" x2="151.6764" y2="238.6261" gradientTransform="matrix(1 0 0 -1 -95.2065 268)">
	<stop  offset="0" style="stop-color:#C9F9FF"/>
	<stop  offset="0.1376" style="stop-color:#C3F8FF"/>
	<stop  offset="0.3299" style="stop-color:#B0F4FF"/>
	<stop  offset="0.5546" style="stop-color:#93EEFF"/>
	<stop  offset="0.8017" style="stop-color:#69E5FF"/>
	<stop  offset="1" style="stop-color:#43DDFF"/>
</linearGradient>
<path class="st28" d="M61.5,51.2C61.3,50.8,53,37.6,53,37.6s-2-17,1.4-17.7c3.3-0.7,4.8,3.1,6.9,9.7c0.5,1.5,7.3,17.7,7.9,19.1
	c1.6,3.7,0.6,8,0.6,8s-6.7-2-8.2-3.7C61.3,52.5,61.7,51.8,61.5,51.2z"/>
<path class="st29" d="M20.7,54.3l14.4,8.4c0,0,25.1,16.6,25.2,24.4c0.1,4.3,4.3,17.6,6.5,32.1c0.2,1.2-5.6,6.2-13,0.8
	c-0.5-0.4-4.6-23-4.7-23.5c0,0-1.1-6.7-3.3-9c-1.6-1.7-17.3-9.6-17.3-9.6s-8-4.9-8.1-12.8C20.5,62.9,20.7,54.3,20.7,54.3z"/>
<linearGradient id="SVGID_43_" gradientUnits="userSpaceOnUse" x1="115.7925" y1="223.88" x2="153.7594" y2="223.88" gradientTransform="matrix(1 0 0 -1 -95.2065 268)">
	<stop  offset="0" style="stop-color:#C9F9FF"/>
	<stop  offset="0.1376" style="stop-color:#C3F8FF"/>
	<stop  offset="0.3299" style="stop-color:#B0F4FF"/>
	<stop  offset="0.5546" style="stop-color:#93EEFF"/>
	<stop  offset="0.8017" style="stop-color:#69E5FF"/>
	<stop  offset="1" style="stop-color:#43DDFF"/>
</linearGradient>
<path class="st30" d="M58.1,21.9c0.6,4.7,1.1,7.6-1.8,15.4l-6.5,14.6c-0.4,1-2.6,3.2,1,5.9c2.8,2.1-16.7,12.3-20,12.7
	C26.7,71,22.4,70,22.4,70c-3.2-7-1-16-1.1-15.6c0,0,4.2-20.4,7.3-27.2c1-2.1,5.1-3.7,8.3-5.4c3.3-1.7,6.5-2.8,6.5-2.8l8.5-1.4
	C51.8,17.6,57.7,18.7,58.1,21.9z"/>
<path class="st31" d="M50.6,18.6c0,0-2-1.8-3.4-1.3c-0.7,0.3-1.1,0.9-1,1.8c0.1,0.8,0.5,1.7,0.5,1.7L50.6,18.6z"/>
<linearGradient id="SVGID_44_" gradientUnits="userSpaceOnUse" x1="145.4708" y1="245.9737" x2="141.7344" y2="221.368" gradientTransform="matrix(1 0 0 -1 -95.2065 268)">
	<stop  offset="0" style="stop-color:#C9F9FF"/>
	<stop  offset="0.1376" style="stop-color:#C3F8FF"/>
	<stop  offset="0.3299" style="stop-color:#B0F4FF"/>
	<stop  offset="0.5546" style="stop-color:#93EEFF"/>
	<stop  offset="0.8017" style="stop-color:#69E5FF"/>
	<stop  offset="1" style="stop-color:#43DDFF"/>
</linearGradient>
<path class="st32" d="M43.6,20.4c0,0,0.5-0.4,3.3-0.2c2.7,0.2,9.9,4.3,9.9,4.3s-1.5,8.7-1.8,9.3C52.8,39.6,47,47,47,47l-1-10
	L43.6,20.4z"/>
<path class="st33" d="M53.6,26c0,0.4-1,3.7-3.1,3.2c-1.8-0.5-7.4-10-4.7-10.1c0.4,0,1.7-0.7,1.7-0.7l6.8-5.3l6.4,8.7L53.6,26z"/>
<path class="st34" d="M50.6,33.8c0.1-0.4,0.2-0.7,0.4-1.1l0.9-1.6l-0.7-3L50,28.2l-1.9,2.7l0.7,1.8c0.2,0.4,0.2,1.2,0,1.6L46,43.4
	l1,3.6l2.8-3.2L50.6,33.8z"/>
<path class="st35" d="M48.4,17.5c0,0-0.6,0-1,0.1c-0.5,0.2-0.7,2.1-0.6,2.8c0.5,5.1,3.6,7.1,3.6,7.1c0.5,0.5,0.2,0.6,0,1L48,32.1
	c-0.4,0.7-0.7,0.6-0.9,0c0,0-2.5-5.2-3.1-6.7c-1.4-3.7-1.6-3.8,0.8-6.7c0.9-1.1,1.6-1.4,2.1-1.6C48.1,16.6,48.4,17.5,48.4,17.5z"/>
<path class="st35" d="M51,27.8c-0.5,0.2-0.2,0.5-0.1,1l0.8,3.1c0.3,1,0.4,0.6,0.8-0.2l2.9-5.9c1.2-3.7-0.4-4.1-0.4-4.1
	s-0.3,0.2-0.5,1C54,24,53.7,26.5,51,27.8z"/>
<path class="st36" d="M55.4,23.9l1.3-1.2c0,0,0.5,0.7,0.6,0.9c0.3,0.7,0.4,2.6,0.4,2.6l-0.5,7.3c-0.1,1-0.9,1.2-1.8,1.8l-0.9,0.6
	l0.5,1.4c0.6,1.1-0.1,1.8-1,2.7l-7.3,7.5c0,0,3.2-5.8,4.9-9.3C55.4,30,55.4,23.9,55.4,23.9z"/>
<g>
	<path class="st33" d="M56.7,5L56.7,5l-7.3,0.6l0.9,11.5c0.2,0.9,0.6,4,0.8,4.7c0.2,0.8,0.5,1.7,1.9,2.5c0,0,3.5,2.3,4.9,2.6
		c0.9,0.2,2.7-0.8,2.7-0.8c1.1-0.8,2-2.8,2.4-5.2l1.9-10.7L64,5.9L56.7,5z"/>
	<path class="st26" d="M64.9,4.8c0.5,0.7,2,2.6,2,2.7C66.4,8,65.2,9.4,65,10.1c-0.1,0.4-1.8,2.2-6.3,0.2c-1.3-0.6-3.3-1.4-4.4,2.2
		c-0.2,0.8-0.9,3.2-1.1,4.2c-0.2,1.2-0.8,0.6-0.9,0.4c-0.1-0.3-0.2-1.7-0.7-2.7c0,0-0.4-1.4-1.6-1.1c-1.4,0.3-0.1,3.5,0,3.7
		l-2.6,1.3c-0.1,0.1,0.4-0.7,0.1-1.6c-1.1-2.8-1.4-3.4-1.7-4.3c-1.1-3.4-0.2-7,2.2-9.6c1.9-2,6-3,8.4-2.8
		C58.7,0.2,62.4,1.4,64.9,4.8z"/>
	<path class="st33" d="M50.2,13.1c1.7-0.6,2,1.8,2,1.8l0.3,3.4c0,0,0,0.9-0.7,1.1c-0.4,0.1-1.5,0.1-2.1-0.9c0-0.1-0.7-1.5-0.7-1.6
		C48.4,15.7,48.6,13.7,50.2,13.1z"/>
</g>
<linearGradient id="SVGID_45_" gradientUnits="userSpaceOnUse" x1="161.6331" y1="206.2578" x2="150.8114" y2="238.3363" gradientTransform="matrix(1 0 0 -1 -95.2065 268)">
	<stop  offset="0" style="stop-color:#C9F9FF"/>
	<stop  offset="0.1376" style="stop-color:#C3F8FF"/>
	<stop  offset="0.3299" style="stop-color:#B0F4FF"/>
	<stop  offset="0.5546" style="stop-color:#93EEFF"/>
	<stop  offset="0.8017" style="stop-color:#69E5FF"/>
	<stop  offset="1" style="stop-color:#43DDFF"/>
</linearGradient>
<path class="st37" d="M60.7,64.7c0,0,1.7-10.2,1.2-12.5c-0.5-2.2,3.1-3.5,5.4-2.6c1.6,0.6,2.3,1.2,2.7,2.9c0.4,1.6,0,5.4-0.1,6.1
	c-0.6,6.3-1.7,9.5-1.7,9.5L60.7,64.7z"/>
<g>
	<path class="st36" d="M43.7,61.8c-0.2-0.5,0.1-2.2,0.9-5.1c0.2-0.7,0.4-1.5,0.7-2.4c1-3.7,1.5-8.2,1.5-8.2l0.4,0.2
		c0,0-0.3,4.4-1.3,8.2c-0.2,0.9-0.5,1.7-0.7,2.4C44.6,59,44,61.7,44,62L43.7,61.8z"/>
</g>
<path class="st36" d="M45.8,17.7l-2.6,0.7c0,0-0.7,0.3-1.2,1.2c-0.5,1.1-0.5,2.7-0.5,2.7l-0.3,8.3c-0.1,1.7,0.3,2,1.2,2.7l2.9,2.1
	L43,37.2c-1,0.9-0.9,0.9-0.7,1.8l4.7,9.2c0,0,0.9-6.4-0.6-15.7c-0.3-2-1.4-8.3-1.5-11.9C44.9,18.2,45.8,17.7,45.8,17.7z"/>
<g>
	<g>
		<g class="st38">
			<g>
				<polygon class="st39" points="76.3,61.3 76.3,61.3 87.5,54.9 87.5,54.8 				"/>
			</g>
		</g>
	</g>
</g>
<g>
	<path class="st34" d="M45.6,64.2c0,0-2.7,4-2.8,4.5s0.7,1.4,1.3,1.5c1.7,0.1,4.6-3.6,4.6-3.6L45.6,64.2z"/>
	<path class="st33" d="M49.6,67.7c1.3,0.4,2.7-1,3-2.1c0.1-0.4,2.6,0.2,3.6-0.1c1.1-0.3,0.9-1.4,0.7-1.7c-0.2-0.2-1.6,0-4-0.3
		c-1.9-0.2-6,0.5-6.4,1.6C46.1,66.2,48.3,67.3,49.6,67.7z"/>
	<path class="st40" d="M47.2,67.8c0,0-0.6,0.9-1.2,1.4c-0.2,0.2-0.6,0.3-0.9,0.3c-0.3,0-1-0.5-0.7-1.8s1.5-1.2,1.5-1.2L47.2,67.8z"
		/>
	<path class="st33" d="M44.5,66.5c0.8-3.7,3.1-2.5,3.1-2.5s6.7,0.6,8.1,1.6c1,0.6,4.4,3.6,4.7,4.4c0.3,0.9-1.2,1.5-1.2,1.5
		c-2,1.4-4,0.4-4,0.4L50,70.1C44.7,69,44.4,66.9,44.5,66.5z"/>
	<path class="st35" d="M48.4,64c0,0-1.8,0-3,2.1c-0.6,1-0.8,1.9-0.8,2.5s0.3,0.8,0.5,0.9l-2.6-1.1c0,0,0.5-2.7,2.1-3.9
		c1.6-1.2,2.5-0.7,2.5-0.7L48.4,64z"/>
	
		<linearGradient id="SVGID_46_" gradientUnits="userSpaceOnUse" x1="132.5793" y1="197.103" x2="119.1813" y2="235.3632" gradientTransform="matrix(1 0 0 -1 -95.2065 268)">
		<stop  offset="0" style="stop-color:#C9F9FF"/>
		<stop  offset="0.1376" style="stop-color:#C3F8FF"/>
		<stop  offset="0.3299" style="stop-color:#B0F4FF"/>
		<stop  offset="0.5546" style="stop-color:#93EEFF"/>
		<stop  offset="0.8017" style="stop-color:#69E5FF"/>
		<stop  offset="1" style="stop-color:#43DDFF"/>
	</linearGradient>
	<path class="st41" d="M44.1,66.5c-1.6,3.4,0.1,3.7,0.1,3.6c-5.2-1-15.7-6.2-19.3-7.6c-6.6-2.7-5-8.9-5-8.9s2.5-15.2,7.7-25.6
		c2.7-5.4,8-0.4,7.5,6.1c-0.3,3.6-2.7,13-4,18.4c-0.2,1-0.1,1,0.2,1.6c0.5,1,0,1.1,0,1.1l16.2,8.5C47.4,63.8,45.2,64,44.1,66.5z"/>
</g>
<g>
	<path class="st33" d="M65.3,64c-0.5,1.2-0.4,1.3-1.5,0.9c-0.4-0.2-1.8,0-1.6,1.3c0.2,1.1-1.1,2.4-1.5,0.7c-0.1-0.2-0.5-1.8,0-2.5
		c2-3.3,3.9-3.6,5-3.2S65.8,62.8,65.3,64z"/>
	<path class="st33" d="M68.1,62.1c0,0-2-1.1-2.9-1.1c-2,0-2.8,1.6-2.8,1.6l-0.3,0.6l-0.9,4.1c0,0-1,3-0.8,4.2c0.1,0.5,0.5,0.5,1,0.1
		c0.4-0.3,0.9-2.5,1.4-2.5c2.4,0.4,4.1-0.2,4.1-0.2l1.7-3.8C69.2,64,69.3,62.8,68.1,62.1z"/>
</g>
<g>
	<g>
		<g class="st38">
			
				<linearGradient id="SVGID_47_" gradientUnits="userSpaceOnUse" x1="183.5128" y1="187.5624" x2="132.3746" y2="182.9914" gradientTransform="matrix(1 0 0 -1 -95.2065 268)">
				<stop  offset="0" style="stop-color:#12C2E9"/>
				<stop  offset="1" style="stop-color:#7D1EDC"/>
			</linearGradient>
			<path class="st42" d="M59,89.3l28.9-16.6v0.8c0,0.6-0.3,1.1-0.8,1.4L59.8,90.6c-0.5,0.3-1.1,0.3-1.6,0L38.3,78.9
				c-0.4-0.2-0.6-0.6-0.6-1.1v-0.5L59,89.3z"/>
			<g>
				
					<linearGradient id="SVGID_48_" gradientUnits="userSpaceOnUse" x1="132.8565" y1="191.8443" x2="183.1065" y2="191.8443" gradientTransform="matrix(1 0 0 -1 -95.2065 268)">
					<stop  offset="0" style="stop-color:#C9F9FF"/>
					<stop  offset="0.1376" style="stop-color:#C3F8FF"/>
					<stop  offset="0.3299" style="stop-color:#B0F4FF"/>
					<stop  offset="0.5546" style="stop-color:#93EEFF"/>
					<stop  offset="0.8017" style="stop-color:#69E5FF"/>
					<stop  offset="1" style="stop-color:#43DDFF"/>
				</linearGradient>
				<path class="st43" d="M38.1,76.6c-0.6,0.3-0.6,1.2,0,1.5L59,89.3l28.9-16.6L67,63.3c-1-0.4-2.1-0.4-3,0.1L38.1,76.6z"/>
			</g>
		</g>
	</g>
	<g>
		
			<linearGradient id="SVGID_49_" gradientUnits="userSpaceOnUse" x1="49.5559" y1="196.1" x2="62.0822" y2="196.1" gradientTransform="matrix(1 0 0 -1 0 268)">
			<stop  offset="0" style="stop-color:#7DEFFF"/>
			<stop  offset="1" style="stop-color:#0ECFFF"/>
		</linearGradient>
		<path class="st44" d="M50.1,71.4c-0.8,0.4-0.8,1.1-0.1,1.6l3.3,2.1c0.7,0.5,1.9,0.5,2.7,0.1l5.4-2.8c0.8-0.4,0.8-1.1,0.1-1.6
			l-3.3-2.1c-0.7-0.5-1.9-0.5-2.7-0.1L50.1,71.4z"/>
	</g>
	<g>
		<g>
			
				<linearGradient id="SVGID_50_" gradientUnits="userSpaceOnUse" x1="47.4558" y1="190.9472" x2="84.3005" y2="190.9472" gradientTransform="matrix(1 0 0 -1 0 268)">
				<stop  offset="0" style="stop-color:#7DEFFF"/>
				<stop  offset="1" style="stop-color:#0ECFFF"/>
			</linearGradient>
			<path class="st45" d="M47.7,81c-0.3,0.1-0.5,0.8,0.5,1.2l9.3,5c0.8,0.5,1.4,0,2.1-0.4l24.4-14c0.5-0.3,0.4-0.8,0-1L73.7,67
				c-0.5-0.3-1.1-0.4-1.4-0.2L47.7,81z"/>
		</g>
	</g>
	<g>
		
			<linearGradient id="SVGID_51_" gradientUnits="userSpaceOnUse" x1="154.0506" y1="194.7387" x2="184.9782" y2="200.31" gradientTransform="matrix(1 0 0 -1 -95.2065 268)">
			<stop  offset="0" style="stop-color:#12C2E9"/>
			<stop  offset="1" style="stop-color:#7D1EDC"/>
		</linearGradient>
		<path class="st46" d="M85.8,52.4c0.4-0.2,0.8-0.2,1.2,0l0.3,0.2L59.6,69L59,89.3l-0.7-0.4V69.6c0-0.9,0.5-1.7,1.2-2.1L85.8,52.4z"
			/>
		<g>
			
				<linearGradient id="SVGID_52_" gradientUnits="userSpaceOnUse" x1="190.2556" y1="204.2618" x2="154.3967" y2="192.5469" gradientTransform="matrix(1 0 0 -1 -95.2065 268)">
				<stop  offset="0" style="stop-color:#12C2E9"/>
				<stop  offset="1" style="stop-color:#7033DE"/>
			</linearGradient>
			<path class="st47" d="M60.2,67.9C59.5,68.3,59,69.2,59,70v19.3l28.9-16.6V53.4c0-0.6-0.7-1-1.2-0.7L60.2,67.9z"/>
		</g>
	</g>
</g>
<linearGradient id="SVGID_53_" gradientUnits="userSpaceOnUse" x1="-43.0099" y1="175.75" x2="82.9901" y2="175.75" gradientTransform="matrix(1 0 0 -1 91.3099 268)">
	<stop  offset="0" style="stop-color:#7D1EDC"/>
	<stop  offset="1" style="stop-color:#12C2E9"/>
</linearGradient>
<path class="st48" d="M117.9,126.8c-6.1,3.5-13.7,3.5-19.9,0l-46.4-27c-4.4-2.6-4.4-8.9,0-11.5l53.1-30.6c6.1-3.5,13.8-3.5,19.9,0
	l46.4,27c4.4,2.6,4.4,8.9,0,11.5L117.9,126.8z"/>
<path class="st12" d="M117.9,138.6c-6.1,3.5-13.7,3.5-19.9,0l-46.4-27c-4.4-2.6-4.4-8.9,0-11.5l53.1-30.6c6.1-3.5,13.8-3.5,19.9,0
	l46.4,27c4.4,2.6,4.4,8.9,0,11.5L117.9,138.6z"/>
<g>
	<g>
		<g class="st38">
			
				<linearGradient id="SVGID_54_" gradientUnits="userSpaceOnUse" x1="512.5087" y1="336.8888" x2="599.1768" y2="336.8888" gradientTransform="matrix(-1 0 0 1 680.7587 -232)">
				<stop  offset="0" style="stop-color:#12C2E9"/>
				<stop  offset="1" style="stop-color:#7D1EDC"/>
			</linearGradient>
			<path class="st49" d="M81.7,96.4v1.5c0,1.1,0.6,2,1.5,2.5l32.7,19c1.6,0.9,3.5,0.9,5.1,0l46.3-26.7c0.7-0.4,1.1-1.1,1.1-1.9v-1.1
				l-50,28.6L81.7,96.4z"/>
			<g>
				
					<linearGradient id="SVGID_55_" gradientUnits="userSpaceOnUse" x1="512.5797" y1="324.9262" x2="599.1587" y2="324.9262" gradientTransform="matrix(-1 0 0 1 680.7587 -232)">
					<stop  offset="0" style="stop-color:#C9F9FF"/>
					<stop  offset="0.1376" style="stop-color:#C3F8FF"/>
					<stop  offset="0.3299" style="stop-color:#B0F4FF"/>
					<stop  offset="0.5546" style="stop-color:#93EEFF"/>
					<stop  offset="0.8017" style="stop-color:#69E5FF"/>
					<stop  offset="1" style="stop-color:#43DDFF"/>
				</linearGradient>
				<path class="st50" d="M132.9,66.8l34.6,22.1c0.9,0.7,0.9,2-0.1,2.6l-46.9,27c-1.3,0.8-3,0.7-4.3-0.1L81.6,96.3L132.9,66.8z"/>
			</g>
		</g>
	</g>
	<g>
		<g class="st38">
			
				<linearGradient id="SVGID_56_" gradientUnits="userSpaceOnUse" x1="547.6746" y1="296.1339" x2="599.1587" y2="296.1339" gradientTransform="matrix(-1 0 0 1 680.7587 -232)">
				<stop  offset="0" style="stop-color:#12C2E9"/>
				<stop  offset="1" style="stop-color:#7D1EDC"/>
			</linearGradient>
			<path class="st51" d="M83.8,58.4c-1.4,0.7-2.2,2.2-2.2,3.8v34.3l1.2,0.7l1-36.1l49.3-29.2l-0.6-0.3c-0.7-0.4-1.6-0.4-2.2,0
				L83.8,58.4z"/>
			
				<linearGradient id="SVGID_57_" gradientUnits="userSpaceOnUse" x1="527.3361" y1="281.004" x2="606.7542" y2="307.7587" gradientTransform="matrix(-1 0 0 1 680.7587 -232)">
				<stop  offset="0" style="stop-color:#C9F9FF"/>
				<stop  offset="0.1376" style="stop-color:#C3F8FF"/>
				<stop  offset="0.3299" style="stop-color:#B0F4FF"/>
				<stop  offset="0.5546" style="stop-color:#93EEFF"/>
				<stop  offset="0.8017" style="stop-color:#69E5FF"/>
				<stop  offset="1" style="stop-color:#43DDFF"/>
			</linearGradient>
			<path class="st52" d="M131.8,32c1-0.6,2.2,0.1,2.2,1.2v34.3L82.7,97.1V62.8c0-1.6,0.9-2.9,2.2-3.8L131.8,32z"/>
		</g>
	</g>
	<g>
		
			<linearGradient id="SVGID_58_" gradientUnits="userSpaceOnUse" x1="529.2697" y1="320.922" x2="593.5314" y2="320.922" gradientTransform="matrix(-1 0 0 1 680.7587 -232)">
			<stop  offset="0" style="stop-color:#7DEFFF"/>
			<stop  offset="1" style="stop-color:#0ECFFF"/>
		</linearGradient>
		<path class="st53" d="M132.4,70c0.7-0.4,1.6-0.2,2.5,0.3l15.9,10c0.7,0.3,1,1.2,0,1.8l-43.4,25c-1.2,0.7-2.4,1.5-3.8,0.7
			L87.6,97.5c-0.5-0.5-0.4-1.4,0.1-1.6L132.4,70z"/>
	</g>
	<g>
		
			<linearGradient id="SVGID_59_" gradientUnits="userSpaceOnUse" x1="532.178" y1="331.2488" x2="555.9418" y2="331.2488" gradientTransform="matrix(-1 0 0 1 680.7587 -232)">
			<stop  offset="0" style="stop-color:#7DEFFF"/>
			<stop  offset="1" style="stop-color:#0ECFFF"/>
		</linearGradient>
		<path class="st54" d="M136.1,93c1.4-0.8,3.8-0.8,5.1,0l6.4,3.8c1.5,0.8,1.5,2.2,0,3l-10.1,5.8c-1.4,0.8-3.8,0.8-5.1,0l-6.4-3.8
			c-1.4-0.9-1.4-2.2,0-3L136.1,93z"/>
	</g>
	
		<linearGradient id="SVGID_60_" gradientUnits="userSpaceOnUse" x1="550.0407" y1="295.7158" x2="594.0463" y2="295.7158" gradientTransform="matrix(-1 0 0 1 680.7587 -232)">
		<stop  offset="0" style="stop-color:#7033DE"/>
		<stop  offset="1" style="stop-color:#12C2E9"/>
	</linearGradient>
	<polygon class="st55" points="130.7,37.6 86.7,62.9 86.7,89.9 130.7,64.5 	"/>
</g>
<g>
	<path class="st33" d="M121.7,102.5c0,0-7-7.6-10-9.1s-14-1-14-1s-2.1-0.3-1.8,1.4c0.2,1.1,0.3,2.5,1.3,4.2c0.6,1,3.7,2.2,6.9,3.5
		c2.6,1,4.6,2.2,7.4,4.1c2.7,1.7,3.9,3.1,3.9,3.1L121.7,102.5z"/>
	<path class="st33" d="M149.8,83.1c0,0-9.6-5.8-11.4-6.8c-3.6-1.9-11.8-1-11.8-1l-5.8,2.6c0,0-0.9,0.7,0.6,1.6s4.8-1.2,4.8-1.2
		l5.1,0.2c0,0,3,0.9,2.6,2.4c-0.3,1.1-3,0.8-4.2,0.6c-0.8-0.1-2.7-0.2-3.2,0.5c-0.8,1,0,1.9,0,1.9s0.6,0.3,4.3,0.9
		c3,0.4,5.2,1,6.9,1.3c2.4,0.3,4.3-0.9,4.3-0.9l4.7,3.1L149.8,83.1z"/>
	
		<linearGradient id="SVGID_61_" gradientUnits="userSpaceOnUse" x1="48.3381" y1="181.3657" x2="106.9862" y2="181.3657" gradientTransform="matrix(1 0 0 -1 91.3099 268)">
		<stop  offset="0" style="stop-color:#C9F9FF"/>
		<stop  offset="0.1376" style="stop-color:#C3F8FF"/>
		<stop  offset="0.3299" style="stop-color:#B0F4FF"/>
		<stop  offset="0.5546" style="stop-color:#93EEFF"/>
		<stop  offset="0.8017" style="stop-color:#69E5FF"/>
		<stop  offset="1" style="stop-color:#43DDFF"/>
	</linearGradient>
	<path class="st56" d="M187.2,59.8c0,0,7.9-2.8,10.8,8.8c2.6,10.4-12.6,42.5-19.1,45c-5.7,2.2-33.3-18.2-38.4-22.4
		c-0.6-0.5-1-1.2-0.8-2c0.4-2.7,1.9-8.9,8.2-9.5c0.9-0.1,1.7,0.2,2.4,0.7c4.2,2.8,19.3,12.8,20.8,12.3c1.8-0.6,7-22.9,8.9-27.3
		C181.8,61,185.2,59.6,187.2,59.8z"/>
	<path class="st26" d="M158.3,249.1l-20.6-4.2c-4.7,7.6-24.1-1-22.7,9.3c0.2,1.9,2,2.8,4.1,3.7c0,0,3.8,1.8,7.2,2.7
		c4.3,1.2,6.8,1.3,10,1.1c8.1-0.4,6.9-0.6,7.1,2.8l0,0c0,0.1,0,0.1,0,0.2l5.6,2c5.6,1.2,9.9-3.5,9.8-4.8
		C158.7,261,158.3,250.1,158.3,249.1z"/>
	<path class="st26" d="M179.6,233.9c-3.4,2.8-7.8,2.3-13.3,2.1c-3.4-0.6-4.7-0.2-5.5,2.3c-0.4,1.2-0.2,0.9-0.3,1.8
		c0,0.6,0,0.7,0.1,0.8c0.7,2,8.5,7.7,16.2,7.9c5.1,0.2,5.7-0.2,5.7,2.5l0,0c0,0.3,0,1.1,0,1.5l0,0c0,0.1,0,0.1,0,0.2l5.2,2.1
		c5.3,1.4,9.4-3.2,9.4-4.5c0-2.4,0,0.7,0-1.7v-11.8L179.6,233.9z"/>
	<path class="st33" d="M185.3,75.9V60.3l-2.1-17.5L167.7,47l1.9,16.9c0,2.4-2.6,2.7-3.9,4.7l-6.9,11.1c-1.7,2.7-5.1,6.9-5.1,14.4
		v41.2l33.6,4.7V85.2C187.1,82,186.5,78.8,185.3,75.9z"/>
	<path class="st27" d="M177.5,139.8c0,0-1.5,29.9,0.2,43.6c1.7,13.9,0.4,51.7,0.4,51.7s-1,8.9,8.2,11c5.4,1.2,8.9,2,11.1-1.9
		c0,0,4.2-23.2,2.3-45.5c-1.4-16-2.6-60.4-2.6-60.4L177.5,139.8z"/>
	<path class="st29" d="M157.7,147.3c0,0-7.7,40.1-12.4,61.1c-4.5,20.3-3.5,20.8-7,33.6c-1.3,4.7-1.7,4.7-2.2,4.9
		c-0.6,0.3,10.3,16.1,22.4,8.2c0,0,6.5-30.4,9.7-43c4.3-17.1,11.2-29.1,17.3-48.9c2.7-8.6,1.7-21.5,1.7-21.5L157.7,147.3z"/>
	<g>
		<path class="st57" d="M182.7,55.9c1.9-0.7,2.6-0.8,2.9,0.4c0.4,1.2,0.4,1.3,0.8,2.4c0.4,0.9-0.1,1-0.1,1s-9.8,2.7-17.2,7.7
			c-5.2,3.5-6.3,4.6-6.3,4.6l2.1-4.4c1.5-3.3,4.7-6.3,10.5-8.9C175.6,58.8,179.6,57.1,182.7,55.9z"/>
	</g>
	<g>
		<path class="st33" d="M164.7,22.8l-10.3,1.3l4.3,26.5c1.1,7.6,4.4,8.5,6.7,8.4c4.8-0.4,9.6-1.8,12.2-3.6c5-3.5,4.5-14.2,4.4-14.9
			l0.2-18L164.7,22.8z"/>
		<path class="st26" d="M156.2,20.3c-4.2,2.1-2.8,8.6-2.8,8.6c0-0.2,4.3,4.5,4.3,4.8c0,0.1,2.8,9.1,2.8,9.1c0,1,1.5,2.4,2.1,0.9
			c0.7-1.7-0.6-2.5,0-3.5c0.7-0.9,4.3-2.4,5.4,3l1.5,4.5c2.3,4.9,8.1,4.8,11,3.9c0,0,2.5-0.8,3.4-2.1c0.6-0.9,2.6-9.4,3.4-11.9
			c3-9.6-1.2-27.5-20.9-21.6C161.2,17.5,156.2,20.3,156.2,20.3z"/>
	</g>
	
		<linearGradient id="SVGID_62_" gradientUnits="userSpaceOnUse" x1="60.3901" y1="154.9799" x2="106.6961" y2="154.9799" gradientTransform="matrix(1 0 0 -1 91.3099 268)">
		<stop  offset="0" style="stop-color:#C9F9FF"/>
		<stop  offset="0.1376" style="stop-color:#C3F8FF"/>
		<stop  offset="0.3299" style="stop-color:#B0F4FF"/>
		<stop  offset="0.5546" style="stop-color:#93EEFF"/>
		<stop  offset="0.8017" style="stop-color:#69E5FF"/>
		<stop  offset="1" style="stop-color:#43DDFF"/>
	</linearGradient>
	<path class="st58" d="M158.1,75.9c-4.5,3.5-6.4,7.3-6.4,19l0.1,64.9c0,2,4,4.9,9.9,6.2c3.2,0.7,9.9,1.2,17.3-1.2
		c3-1,18.9-8.3,18.9-12.6l0.2-66.3c-0.2-6.9-0.7-15.4-1.8-19.1c-2.5-8.3-9.8-7.3-9.8-7.3s-12.2,4.1-18.8,9.1
		C164.6,70.9,164.6,70.6,158.1,75.9z"/>
	
		<linearGradient id="SVGID_63_" gradientUnits="userSpaceOnUse" x1="19.0646" y1="164.8276" x2="75.5527" y2="164.8276" gradientTransform="matrix(1 0 0 -1 91.3099 268)">
		<stop  offset="0" style="stop-color:#C9F9FF"/>
		<stop  offset="0.1376" style="stop-color:#C3F8FF"/>
		<stop  offset="0.3299" style="stop-color:#B0F4FF"/>
		<stop  offset="0.5546" style="stop-color:#93EEFF"/>
		<stop  offset="0.8017" style="stop-color:#69E5FF"/>
		<stop  offset="1" style="stop-color:#43DDFF"/>
	</linearGradient>
	<path class="st59" d="M157.9,76.9c0,0,5.4-0.9,8.5,7c3.3,8.2-14.6,43-21.1,45.4c-5.7,2.2-29.1-16.9-34.2-21.1c-0.6-0.5-1-1.2-0.8-2
		c0.4-2.7,1.9-8.9,8.2-9.5c0.9-0.1,1.7,0.2,2.4,0.7c4.2,2.8,19.3,12.8,20.8,12.3c1.8-0.6,7-22.9,8.9-27.3
		C152.5,78.1,155.9,76.7,157.9,76.9z"/>
</g>
</svg>
