<?xml version="1.0" encoding="utf-8"?>
<!-- Generator: Adobe Illustrator 22.1.0, SVG Export Plug-In . SVG Version: 6.00 Build 0)  -->
<svg version="1.1" id="Layer_1" xmlns="http://www.w3.org/2000/svg" xmlns:xlink="http://www.w3.org/1999/xlink" x="0px" y="0px"
	 viewBox="0 0 200 266.7" style="enable-background:new 0 0 200 266.7;" xml:space="preserve">
<style type="text/css">
	.st0{enable-background:new    ;}
	.st1{fill:url(#SVGID_1_);}
	.st2{fill:url(#SVGID_2_);}
	.st3{fill:url(#SVGID_3_);}
	.st4{fill:url(#SVGID_4_);}
	.st5{fill:url(#SVGID_5_);}
	.st6{fill:url(#SVGID_6_);}
	.st7{fill:url(#SVGID_7_);}
	.st8{fill:url(#SVGID_8_);}
	.st9{fill:url(#SVGID_9_);}
	.st10{fill:url(#SVGID_10_);}
	.st11{fill:url(#SVGID_11_);}
	.st12{fill:url(#SVGID_12_);}
	.st13{fill:url(#SVGID_13_);}
	.st14{fill:url(#SVGID_14_);}
	.st15{fill:url(#SVGID_15_);}
	.st16{fill:url(#SVGID_16_);}
	.st17{fill:url(#SVGID_17_);}
	.st18{fill:#7629DD;}
	.st19{fill:url(#SVGID_18_);}
	.st20{fill:#236696;}
	.st21{fill:#DBE4EC;}
	.st22{fill:url(#SVGID_19_);}
	.st23{fill:#B6C7D9;}
	.st24{fill:#F5F5F5;}
	.st25{fill:#526683;}
	.st26{fill:#09BEEB;}
	.st27{fill:#36D7F2;}
	.st28{fill:url(#SVGID_20_);}
	.st29{fill:url(#SVGID_21_);}
	.st30{fill:url(#SVGID_22_);}
</style>
<g>
	<g>
		<g>
			<g class="st0">
				
					<linearGradient id="SVGID_1_" gradientUnits="userSpaceOnUse" x1="0" y1="442.0232" x2="200.0418" y2="442.0232" gradientTransform="matrix(1 0 0 1 0 -232)">
					<stop  offset="0" style="stop-color:#12C2E9"/>
					<stop  offset="1" style="stop-color:#7D1EDC"/>
				</linearGradient>
				<path class="st1" d="M115.4,240.9L0,175v2.6c0,1.9,0.9,3.4,2.4,4.3l106.8,61.6c3.6,2.1,8.1,2.1,11.7,0l75.5-43.9
					c2.1-1.1,3.4-3.4,3.4-5.8v-3.4L115.4,240.9z"/>
				<g>
					
						<linearGradient id="SVGID_2_" gradientUnits="userSpaceOnUse" x1="0.164" y1="414.412" x2="200" y2="414.412" gradientTransform="matrix(1 0 0 1 0 -232)">
						<stop  offset="0" style="stop-color:#C9F9FF"/>
						<stop  offset="0.1376" style="stop-color:#C3F8FF"/>
						<stop  offset="0.3299" style="stop-color:#B0F4FF"/>
						<stop  offset="0.5546" style="stop-color:#93EEFF"/>
						<stop  offset="0.8017" style="stop-color:#69E5FF"/>
						<stop  offset="1" style="stop-color:#43DDFF"/>
					</linearGradient>
					<path class="st2" d="M200,190.2l-79.8,51c-3,1.9-7,2.1-10,0.2L1.9,179.1c-2.3-1.3-2.3-4.5-0.2-6l79.8-51L200,190.2z"/>
				</g>
			</g>
		</g>
		<g>
			<g class="st0">
				
					<linearGradient id="SVGID_3_" gradientUnits="userSpaceOnUse" x1="81.1676" y1="347.9554" x2="200" y2="347.9554" gradientTransform="matrix(1 0 0 1 0 -232)">
					<stop  offset="0" style="stop-color:#12C2E9"/>
					<stop  offset="1" style="stop-color:#7D1EDC"/>
				</linearGradient>
				<path class="st3" d="M87.6,40.5c-1.5-0.9-3.4-0.9-5.1,0l-1.3,0.8l113.7,67.4l2.3,83.4l2.8-1.5v-79.3c0-3.6-1.9-7-5.1-8.7
					L87.6,40.5z"/>
				
					<linearGradient id="SVGID_4_" gradientUnits="userSpaceOnUse" x1="34.2237" y1="313.0334" x2="217.5316" y2="374.7869" gradientTransform="matrix(1 0 0 1 0 -232)">
					<stop  offset="0" style="stop-color:#C9F9FF"/>
					<stop  offset="0.1376" style="stop-color:#C3F8FF"/>
					<stop  offset="0.3299" style="stop-color:#B0F4FF"/>
					<stop  offset="0.5546" style="stop-color:#93EEFF"/>
					<stop  offset="0.8017" style="stop-color:#69E5FF"/>
					<stop  offset="1" style="stop-color:#43DDFF"/>
				</linearGradient>
				<path class="st4" d="M192.3,104.2c3,1.9,5.1,5.1,5.1,8.7v79.3L79.1,123.7V44.7c0-2.6,2.8-4.1,5.1-2.8L192.3,104.2z"/>
			</g>
		</g>
		<g>
			
				<linearGradient id="SVGID_5_" gradientUnits="userSpaceOnUse" x1="38.6867" y1="405.1696" x2="187.0115" y2="405.1696" gradientTransform="matrix(1 0 0 1 0 -232)">
				<stop  offset="0" style="stop-color:#7DEFFF"/>
				<stop  offset="1" style="stop-color:#0ECFFF"/>
			</linearGradient>
			<path class="st5" d="M186.1,189.1c1.1,0.6,1.3,2.6,0.2,3.8L149,216.6c-3.2,1.9-5.8,0.2-8.7-1.5L40.1,157.5
				c-2.3-1.3-1.5-3.4,0-4.1l36.7-23.2c2.1-1.1,4.3-1.7,5.8-0.8L186.1,189.1z"/>
		</g>
		<g>
			
				<linearGradient id="SVGID_6_" gradientUnits="userSpaceOnUse" x1="45.3994" y1="429.0053" x2="100.2495" y2="429.0053" gradientTransform="matrix(1 0 0 1 0 -232)">
				<stop  offset="0" style="stop-color:#7DEFFF"/>
				<stop  offset="1" style="stop-color:#0ECFFF"/>
			</linearGradient>
			<path class="st6" d="M97.7,195.9c3.2,1.9,3.2,4.9,0,7l-14.9,8.7c-3.2,1.9-8.7,1.9-11.9,0l-23.4-13.4c-3.4-1.9-3.4-5.1,0-7
				l14.7-8.7c3.2-1.9,8.7-1.9,11.9,0L97.7,195.9z"/>
		</g>
		
			<linearGradient id="SVGID_7_" gradientUnits="userSpaceOnUse" x1="86.629" y1="346.9903" x2="188.1998" y2="346.9903" gradientTransform="matrix(1 0 0 1 0 -232)">
			<stop  offset="0" style="stop-color:#7033DE"/>
			<stop  offset="1" style="stop-color:#12C2E9"/>
		</linearGradient>
		<polygon class="st7" points="86.6,116.8 188.3,175.3 188.3,113.2 86.6,54.6 		"/>
	</g>
	
		<linearGradient id="SVGID_8_" gradientUnits="userSpaceOnUse" x1="-375.563" y1="175.3" x2="-256.9078" y2="175.3" gradientTransform="matrix(1 0 0 -1 465.063 268)">
		<stop  offset="0" style="stop-color:#43DDFF"/>
		<stop  offset="0.1983" style="stop-color:#69E5FF"/>
		<stop  offset="0.4454" style="stop-color:#93EEFF"/>
		<stop  offset="0.6701" style="stop-color:#B0F4FF"/>
		<stop  offset="0.8624" style="stop-color:#C3F8FF"/>
		<stop  offset="1" style="stop-color:#C9F9FF"/>
	</linearGradient>
	<path class="st8" d="M172.2,66.5c3.4,1.9,5.9,6.6,5.9,10.5v82.5c0,3.9-2.7,5.4-6.1,3.5l-76.4-44.1c-3.4-1.9-6.1-6.6-6.1-10.5V25.9
		c0-3.9,2.9-5.4,6.3-3.5L172.2,66.5z"/>
	
		<linearGradient id="SVGID_9_" gradientUnits="userSpaceOnUse" x1="-375.563" y1="218.7098" x2="-286.963" y2="218.7098" gradientTransform="matrix(1 0 0 -1 465.063 268)">
		<stop  offset="0" style="stop-color:#12C2E9"/>
		<stop  offset="1" style="stop-color:#7D1EDC"/>
	</linearGradient>
	<path class="st9" d="M89.5,25.9c0-3.9,2.9-5.4,6.3-3.5l76.4,44.1c3.4,1.9,5.9,6.6,5.9,10.5L89.5,25.9z"/>
	
		<linearGradient id="SVGID_10_" gradientUnits="userSpaceOnUse" x1="-368.463" y1="195.1" x2="-274.0052" y2="195.1" gradientTransform="matrix(1 0 0 -1 465.063 268)">
		<stop  offset="0" style="stop-color:#12C2E9"/>
		<stop  offset="0.2116" style="stop-color:#2C9AE6"/>
		<stop  offset="0.5871" style="stop-color:#5857E1"/>
		<stop  offset="0.8601" style="stop-color:#732EDD"/>
		<stop  offset="1" style="stop-color:#7D1EDC"/>
	</linearGradient>
	<polygon class="st10" points="170.3,83.4 170.2,104.9 96.6,62.4 96.7,40.9 	"/>
	
		<linearGradient id="SVGID_11_" gradientUnits="userSpaceOnUse" x1="98.4" y1="169.6251" x2="167.9993" y2="169.6251" gradientTransform="matrix(1 0 0 -1 0 268)">
		<stop  offset="0" style="stop-color:#0ECFFF"/>
		<stop  offset="1" style="stop-color:#7DEFFF"/>
	</linearGradient>
	<path class="st11" d="M108.2,79.2c1.5,0.8,2.7,0.2,2.7-1.5s-1.2-3.7-2.7-4.6c-1.5-0.8-2.7-0.2-2.7,1.5
		C105.6,76.3,106.7,78.4,108.2,79.2z M108.2,74c1,0.6,1.9,2,1.9,3.2s-0.8,1.7-1.9,1.1c-1-0.6-1.9-2-1.9-3.2
		C106.4,73.9,107.2,73.4,108.2,74z M158.3,101.9l-2.9,4l5.8,3.4L158.3,101.9z M158.3,103.7l1.5,3.9l-3-1.8L158.3,103.7z M135.9,89.4
		l-4.8-2.8v5.5l4.8,2.8V89.4z M135.1,93.5l-3.2-1.8V88l3.2,1.8V93.5z M99.1,80.1l5.9,3.4c0.3,0.2,0.6,0.6,0.6,1s-0.3,0.5-0.6,0.3
		l-6-3.4c-0.3-0.2-0.6-0.6-0.6-1C98.5,80.1,98.7,79.9,99.1,80.1z M98.5,77.2c0-0.4,0.3-0.5,0.6-0.3l3.9,2.3c0.3,0.2,0.6,0.6,0.6,1
		s-0.3,0.5-0.6,0.3l-4-2.3C98.7,78,98.5,77.6,98.5,77.2z M111.1,88.4l-3.3-1.9c-0.3-0.2-0.6-0.6-0.6-1s0.3-0.5,0.6-0.3l3.3,1.9
		c0.3,0.2,0.6,0.6,0.6,1C111.7,88.4,111.4,88.6,111.1,88.4z M117.7,94.5c0,0.4-0.3,0.5-0.6,0.3l-5.2-3c-0.3-0.2-0.6-0.6-0.6-1
		s0.3-0.5,0.6-0.3l5.2,3C117.4,93.7,117.7,94.1,117.7,94.5z M117.7,91.5c0,0.4-0.3,0.5-0.6,0.3l-3.3-1.9c-0.3-0.2-0.6-0.6-0.6-1
		s0.3-0.5,0.6-0.3l3.3,1.9C117.4,90.7,117.7,91.2,117.7,91.5z M109.7,89.9c0,0.4-0.3,0.5-0.6,0.3l-5.2-3c-0.3-0.2-0.6-0.6-0.6-1
		s0.3-0.5,0.6-0.3l5.2,3C109.5,89.1,109.7,89.6,109.7,89.9z M117.7,88.3c0,0.4-0.3,0.5-0.6,0.3l-11.2-6.5c-0.3-0.2-0.6-0.6-0.6-1
		s0.3-0.5,0.6-0.3l11.2,6.5C117.4,87.5,117.7,87.9,117.7,88.3z M101.7,85.3c0,0.4-0.3,0.5-0.6,0.3l-2-1.2c-0.3-0.2-0.6-0.6-0.6-1
		s0.3-0.5,0.6-0.3l2,1.2C101.4,84.4,101.7,84.9,101.7,85.3z M135.6,105c0,0.4-0.3,0.5-0.6,0.3l-2.9-1.7c-0.3-0.2-0.6-0.6-0.6-1
		s0.3-0.5,0.6-0.3l2.9,1.7C135.3,104.1,135.6,104.6,135.6,105z M134.7,102.1c-0.3-0.2-0.6-0.6-0.6-1s0.3-0.5,0.6-0.3l2.9,1.6
		c0.3,0.2,0.6,0.6,0.6,1s-0.3,0.5-0.6,0.3L134.7,102.1z M143,109.2c0,0.4-0.3,0.5-0.6,0.3l-4.8-2.7c-0.3-0.2-0.6-0.6-0.6-1
		s0.3-0.5,0.6-0.3l4.8,2.8C142.7,108.4,143,108.9,143,109.2z M143,106.3c0,0.4-0.3,0.5-0.6,0.3l-2.2-1.3c-0.3-0.2-0.6-0.6-0.6-1
		s0.3-0.5,0.6-0.3l2.2,1.3C142.7,105.5,143,105.9,143,106.3z M130,101.7c0,0.4-0.3,0.5-0.6,0.3l-3.2-1.9l-0.6-0.4l0,0l-1.4-0.8
		c-0.3-0.2-0.6-0.6-0.6-1s0.3-0.5,0.6-0.3l1.4,0.8l3.9,2.2C129.8,100.9,130,101.4,130,101.7z M123.5,91.8c0-0.4,0.3-0.5,0.6-0.3
		l4,2.3c0.3,0.2,0.6,0.6,0.6,1s-0.3,0.5-0.6,0.3l-4-2.3C123.8,92.6,123.5,92.2,123.5,91.8z M123.6,95.1c0-0.4,0.3-0.5,0.6-0.3
		l7.7,4.4c0.3,0.2,0.6,0.6,0.6,1s-0.3,0.5-0.6,0.3l-7.7-4.4C123.8,95.9,123.6,95.4,123.6,95.1z M129.9,95.5c0-0.4,0.3-0.5,0.6-0.3
		l1.4,0.8c0.3,0.2,0.6,0.6,0.6,1s-0.3,0.5-0.6,0.3l-1.4-0.8C130.1,96.3,129.9,95.8,129.9,95.5z M143,103c0,0.4-0.3,0.5-0.6,0.3
		l-7.9-4.6c-0.3-0.2-0.6-0.6-0.6-1s0.3-0.5,0.6-0.3l7.9,4.6C142.7,102.2,143,102.7,143,103z M157.4,110.6l5.2,3
		c0.3,0.2,0.6,0.6,0.6,1s-0.3,0.5-0.6,0.3l-5.2-3c-0.3-0.2-0.6-0.6-0.6-1C156.8,110.5,157,110.4,157.4,110.6z M158.8,114.3
		c0.3,0.2,0.6,0.6,0.6,1s-0.3,0.5-0.6,0.3l-3.3-1.9c-0.3-0.2-0.6-0.6-0.6-1s0.3-0.5,0.6-0.3L158.8,114.3z M148.9,106.3
		c0-0.4,0.3-0.5,0.6-0.3l5.2,3c0.3,0.2,0.6,0.6,0.6,1s-0.3,0.5-0.6,0.3l-5.2-3C149.1,107.1,148.9,106.7,148.9,106.3z M148.9,109.3
		c0-0.4,0.3-0.5,0.6-0.3l3.3,1.9c0.3,0.2,0.6,0.6,0.6,1s-0.3,0.5-0.6,0.3l-3.3-1.9C149.1,110.1,148.9,109.7,148.9,109.3z
		 M161.3,119.7c0,0.4-0.3,0.5-0.6,0.3l-11.2-6.5c-0.3-0.2-0.6-0.6-0.6-1s0.3-0.5,0.6-0.3l11.2,6.5
		C161,118.8,161.3,119.3,161.3,119.7z M167.5,120.7l-5.9-3.4c-0.3-0.2-0.6-0.6-0.6-1s0.3-0.5,0.6-0.3l5.9,3.4c0.3,0.2,0.6,0.6,0.6,1
		C168,120.7,167.8,120.9,167.5,120.7z M168.1,123.6c0,0.4-0.3,0.5-0.6,0.3l-3.9-2.3c-0.3-0.2-0.6-0.6-0.6-1s0.3-0.5,0.6-0.3l4,2.3
		C167.8,122.8,168.1,123.2,168.1,123.6z M164.9,115.6c0-0.4,0.3-0.5,0.6-0.3l2,1.2c0.3,0.2,0.6,0.6,0.6,1s-0.3,0.5-0.6,0.3l-2-1.2
		C165.1,116.4,164.9,115.9,164.9,115.6z"/>
	
		<linearGradient id="SVGID_12_" gradientUnits="userSpaceOnUse" x1="96.6" y1="147.25" x2="170.2755" y2="147.25" gradientTransform="matrix(1 0 0 -1 0 268)">
		<stop  offset="0" style="stop-color:#0ECFFF"/>
		<stop  offset="1" style="stop-color:#7DEFFF"/>
	</linearGradient>
	<path class="st12" d="M96.7,88.8l22,12.7V123l-22.1-12.7L96.7,88.8z M148.2,118.5V140l22.1,12.7l0.1-21.5L148.2,118.5z
		 M122.4,125.2l22.1,12.7v-21.5l-22.1-12.7V125.2z"/>
	<g>
		<g>
			<g class="st0">
				<g>
					
						<linearGradient id="SVGID_13_" gradientUnits="userSpaceOnUse" x1="146.6811" y1="215.9" x2="155.5555" y2="215.9" gradientTransform="matrix(-1 0 0 -1 256.4811 268)">
						<stop  offset="0" style="stop-color:#C9F9FF"/>
						<stop  offset="0.1376" style="stop-color:#C3F8FF"/>
						<stop  offset="0.3299" style="stop-color:#B0F4FF"/>
						<stop  offset="0.5546" style="stop-color:#93EEFF"/>
						<stop  offset="0.8017" style="stop-color:#69E5FF"/>
						<stop  offset="1" style="stop-color:#43DDFF"/>
					</linearGradient>
					<path class="st13" d="M102,52.7c0.4-0.2,0.8-0.5,1.3-0.7c0,0,0.1,0,0.1-0.1c0.3-0.2,0.7-0.3,1.2-0.2c2,0.3,3.7,0,5.2-0.9
						c-0.8,0.5-1.7,1-2.5,1.5c-1.4,0.8-3.2,1.2-5.2,0.9c-0.5-0.1-0.9,0-1.2,0.2C101.3,53.2,101.7,52.9,102,52.7z"/>
					
						<linearGradient id="SVGID_14_" gradientUnits="userSpaceOnUse" x1="114.2623" y1="173.7668" x2="178.0984" y2="251.4709" gradientTransform="matrix(-1 0 0 -1 256.4811 268)">
						<stop  offset="0" style="stop-color:#C9F9FF"/>
						<stop  offset="0.1376" style="stop-color:#C3F8FF"/>
						<stop  offset="0.3299" style="stop-color:#B0F4FF"/>
						<stop  offset="0.5546" style="stop-color:#93EEFF"/>
						<stop  offset="0.8017" style="stop-color:#69E5FF"/>
						<stop  offset="1" style="stop-color:#43DDFF"/>
					</linearGradient>
					<path class="st14" d="M116,45.4c3.6,1.6,8.6,4,11.9,5.9c3.3,1.9,8.3,5.3,11.9,7.8c1.3,0.9,2.3,2.7,2.8,4.3
						c1.4,5.5,4.5,11.1,8.6,15.1c1.2,1.2,2,2.9,2,4.4c-0.5,16.4-5.1,30.5-14,35.6c-0.8,0.5-1.7,1-2.5,1.5c8.9-5.1,13.5-19.2,14-35.6
						c0-1.4-0.8-3.2-2-4.4c-4-4.1-7.2-9.6-8.6-15.1c-0.4-1.7-1.5-3.4-2.8-4.3c-3.6-2.6-8.6-5.9-11.9-7.8c-3.3-1.9-8.3-4.3-11.9-5.9
						c-0.7-0.3-1.4-0.3-1.9,0c0.8-0.5,1.7-1,2.5-1.5C114.6,45.1,115.3,45,116,45.4z"/>
				</g>
				<g>
					
						<linearGradient id="SVGID_15_" gradientUnits="userSpaceOnUse" x1="110.128" y1="199.3701" x2="153.4046" y2="171.0741" gradientTransform="matrix(-1 0 0 -1 256.4811 268)">
						<stop  offset="0" style="stop-color:#12C2E9"/>
						<stop  offset="1" style="stop-color:#7D1EDC"/>
					</linearGradient>
					<path class="st15" d="M125.4,52.7c-3.3-1.9-8.3-4.3-11.9-5.9c-1.3-0.6-2.3-0.1-2.8,1.1c-1.4,3.9-4.6,5.8-8.6,5.2
						c-1.2-0.2-2.1,0.6-2,2.1c0.5,22.1,8.1,48.4,23.1,64.5c0.6,0.7,1.3,1.3,2,1.7c0.7,0.4,1.4,0.6,2,0.7c15,1.2,22.8-16.2,23.4-37.7
						c0-1.4-0.8-3.2-2-4.4c-4-4.1-7.2-9.6-8.6-15.1c-0.4-1.7-1.5-3.4-2.8-4.3C133.7,58,128.7,54.6,125.4,52.7z"/>
				</g>
			</g>
		</g>
		<g>
			
				<linearGradient id="SVGID_16_" gradientUnits="userSpaceOnUse" x1="109.4383" y1="183.2393" x2="152.8647" y2="183.2393" gradientTransform="matrix(-1 0 0 -1 256.4811 268)">
				<stop  offset="0" style="stop-color:#C9F9FF"/>
				<stop  offset="0.1376" style="stop-color:#C3F8FF"/>
				<stop  offset="0.3299" style="stop-color:#B0F4FF"/>
				<stop  offset="0.5546" style="stop-color:#93EEFF"/>
				<stop  offset="0.8017" style="stop-color:#69E5FF"/>
				<stop  offset="1" style="stop-color:#43DDFF"/>
			</linearGradient>
			<path class="st16" d="M125.4,56.6c-2.5-1.4-6.1-3.2-9.2-4.6c-1.3-0.6-2.4-0.2-3,0.9c-1.7,3-4.4,4.7-7.7,4.8c-1.1,0-1.9,1-1.8,2.5
				c1,18.5,7.2,40.9,19.6,55.3c0.6,0.7,1.3,1.3,2,1.7c0.7,0.4,1.4,0.6,2,0.6c12.5,0,18.8-15.2,19.9-32.5c0.1-1.5-0.7-3.3-1.9-4.7
				c-3.3-4-6-8.8-7.6-13.7c-0.6-1.7-1.6-3.3-2.9-4.2C131.5,60.5,127.9,58.1,125.4,56.6z"/>
		</g>
		<g>
			
				<linearGradient id="SVGID_17_" gradientUnits="userSpaceOnUse" x1="129.6993" y1="183.2836" x2="128.9322" y2="175.6816" gradientTransform="matrix(-1 0 0 -1 256.4811 268)">
				<stop  offset="0" style="stop-color:#12C2E9"/>
				<stop  offset="1" style="stop-color:#7D1EDC"/>
			</linearGradient>
			<path class="st17" d="M126.6,78c4.9,2.9,6,11.4,1.4,10.5v5.4l-2.8-1.6v-5.4c-1.7-1.7-2.9-4.2-2.9-6.4
				C122.2,77.8,124.2,76.6,126.6,78z"/>
			<path class="st18" d="M127.1,92.3v-5.4c-1.7-1.7-2.9-4.2-2.9-6.4c0-1.5,0.6-2.5,1.5-2.9c0.3,0.1,0.6,0.2,0.9,0.4
				c4.9,2.8,6,11.4,1.4,10.5v4.2L127.1,92.3z"/>
			
				<linearGradient id="SVGID_18_" gradientUnits="userSpaceOnUse" x1="130.465" y1="175.856" x2="128.2342" y2="174.1595" gradientTransform="matrix(-1 0 0 -1 256.4811 268)">
				<stop  offset="0" style="stop-color:#12C2E9"/>
				<stop  offset="1" style="stop-color:#7D1EDC"/>
			</linearGradient>
			<polygon class="st19" points="127.1,92.3 125.1,92.3 127.9,93.9 128,92.8 			"/>
		</g>
	</g>
	<g>
		<g>
			<path class="st20" d="M46.7,243.7c0,0,1.5,2.4,5.2,3.2c2.3,0.5,9.9,1.4,9.9,1.4c3.8,0.5,8.3,1.7,9,5.4c0,0,0.3,1.9,0.1,2.5
				c-0.5,2.1-2.5,2.9-4.9,3.7c0,0-4.4,1.6-8.2,2.3c-4.9,0.9-7.6,0.8-11.2,0.2c0,0-4.5-0.8-6.3-0.8c-2,0-1.7,1.5-1.9,3.3l-6.4,1.7
				c-6.4,0.8-10.6-4.9-10.4-6.4l1.7-14L46.7,243.7z"/>
		</g>
		<g>
			<path class="st20" d="M33.3,229.8c0,0,0.5,3.7,4.1,4c2.2,0.2,5.4,0.3,5.4,0.3c3.8-0.7,8.5-0.6,9.4,2.2c0,0,0.4,1.1,0.3,1.7
				c-0.2,2.1,0.5,0.3-2.3,2.9c0,0-5.4,4.1-8.7,5.6c-4.2,2-6.3,2-7.7,1.9c0,0-2.7-0.5-4.4-0.3c-1.9,0.2-1.4,2.6-1.4,4.5l-5.8,2.4
				c-5.9,1.5-10.5-3.5-10.5-5v-14.8L33.3,229.8z"/>
		</g>
		<g>
			<path class="st21" d="M13.9,153.4c0.1,2.6,3.7,4.1,6,4c0.8,0,1.6,4.8,2.8,6.5c1.4,1.8,3.3,0.6,3.6,0c0.2-0.4-2.3-7.4-2.9-9.2
				c-1.9-5.9-4.3-6-6.7-5.9C14.5,148.9,13.7,150.8,13.9,153.4z"/>
			
				<linearGradient id="SVGID_19_" gradientUnits="userSpaceOnUse" x1="246.6769" y1="126.1468" x2="242.5492" y2="219.0186" gradientTransform="matrix(-1 0 0 -1 256.4811 268)">
				<stop  offset="0" style="stop-color:#C9F9FF"/>
				<stop  offset="0.1376" style="stop-color:#C3F8FF"/>
				<stop  offset="0.3299" style="stop-color:#B0F4FF"/>
				<stop  offset="0.5546" style="stop-color:#93EEFF"/>
				<stop  offset="0.8017" style="stop-color:#69E5FF"/>
				<stop  offset="1" style="stop-color:#43DDFF"/>
			</linearGradient>
			<path class="st22" d="M14.3,148.1c-2.6,0-7.8-5-7.8-5s-0.1-0.6-0.3-1.8c-1.1-6.4-6-28.4-6.2-36.5c-0.3-8.9,3.3-32.5,3.3-32.5
				S4.9,52.4,18.4,53c8.2,0.3,3.9,12,4,19.2c0.1,5.6-2.8,34.1-2.8,34.1l1.8,35C21.3,141.3,19.5,148,14.3,148.1z"/>
			<path class="st21" d="M10.7,149.2l6.8-0.4l3,7.9l0.1,1.3L20,168.5c0,0,0.2,5.1-5.2,5.4c-3.5,0.2-0.4,0-0.4,0
				c-4.8,0.3-5.5-4.9-5.5-4.9L7,155.5C6.7,152.7,7.6,149.4,10.7,149.2z"/>
			<path class="st23" d="M22.7,149c0,1.2-2.6,3.5-6,3.9c-4.5,0.5-6.6-0.4-6.6-0.4c-2.1-0.7-3.2-1.5-3.4-3c0,0-0.7-5.4-0.8-7.1
				c-0.1-1.1,0.4-1.1,0.4-1.1s0.1,0.9,0.3,1.2c0.7,1.1,2.6,2.7,7.1,2.8c7,0.2,7.7-4,7.7-4c1,0,1.4,0.4,1.3,1.6V149z"/>
		</g>
		<path class="st21" d="M8.6,149.4c0,0-3.2-14.9,15.2-14.9c14.6,0,14.6,15.5,14.6,15.5l-7.3,89H12.9L8.6,149.4z"/>
		<path class="st24" d="M44.8,10.1l12.5,1.5l-5.2,32.2c-1.3,9.2-5.3,10.3-8.2,10.1c-5.8-0.4-12.1-4.2-15.2-6.4c-6-4.3-5-15.1-5-16
			L23.5,9.6L44.8,10.1z"/>
		<path class="st24" d="M21.2,53.6l3.4-19.4L40.9,38l-2.1,18.8C38.8,59.5,49,82.6,49,91l-30.8-9.9C18.1,77.6,21.2,53.6,21.2,53.6z"
			/>
		<path class="st25" d="M43.2,126v8.5c0,6.3-1.5,17.1-1.5,17.1l-29.1,1.1c-3.7-0.7-5.1-5.7-5.1-10.8V126H43.2z"/>
		<path class="st21" d="M8.6,149.4c0,0,1.2-10.3,14.1-10.3c1.7,0,0,0,5.1,0c12.3,0,14,12.5,14,12.5l-7.6,87.1L14.6,239L8.6,149.4z"
			/>
		<path class="st20" d="M54.8,7c6.7,4.4,5.9,10.2,0.8,13.9c-2.3,1.7-4.6,6.3-5.3,9.9l-0.7,3.4c-0.1,1.2-1.8,2.9-2.6,1.1
			c-0.8-2.1,0.8-3.5-0.1-4.6c-0.8-1.1-3.4-1.7-6.3,5.1L39,40.9c-2.7,5.9-7.8,5.9-11.4,4.8c0,0-3.6-1.3-5.3-3.2
			c-0.8-0.9-5.5-10.1-6.4-13.2c-4.3-15.9,3.9-35,27.7-27.9C50,3.5,54.8,7,54.8,7z"/>
		<path class="st26" d="M41.6,142l-0.8,101.8c0,0-6.6,6.2-17.7,6.2c-6.2,0-12.2-4-12.4-5.7L7.1,140.2L41.6,142z"/>
		<path class="st27" d="M49.9,152.4l-1.8,90.3c0.1,0,0.2,2.2,1.2,2.7c0.9,0.5,0.9,2.4,0.4,3.7c-0.6,1.7-6.5,11.1-19,10.4
			c-3.8-0.2-8.2-1.6-8.4-3.3l-6.2-103.8L49.9,152.4z"/>
		
			<linearGradient id="SVGID_20_" gradientUnits="userSpaceOnUse" x1="201.6811" y1="160.653" x2="250.0811" y2="160.653" gradientTransform="matrix(-1 0 0 -1 256.4811 268)">
			<stop  offset="0" style="stop-color:#C9F9FF"/>
			<stop  offset="0.1376" style="stop-color:#C3F8FF"/>
			<stop  offset="0.3299" style="stop-color:#B0F4FF"/>
			<stop  offset="0.5546" style="stop-color:#93EEFF"/>
			<stop  offset="0.8017" style="stop-color:#69E5FF"/>
			<stop  offset="1" style="stop-color:#43DDFF"/>
		</linearGradient>
		<path class="st28" d="M49.8,70.8c3.6,3.7,5,7.8,5,20.9l-1.2,59.4c0,2.3,0.2,9-7.2,9.9c-3.7,0.4-10.5,2.7-18.8,0
			c-3.4-1.1-21.1-9.3-21.1-14L6.4,79.8C7,57.2,19.9,52.4,19.9,52.4l15.5,5.4L49.8,70.8z"/>
		<g>
			
				<linearGradient id="SVGID_21_" gradientUnits="userSpaceOnUse" x1="-2144.5786" y1="211.2542" x2="-2119.0237" y2="211.2542" gradientTransform="matrix(-1 0 0 -1 -2100.3511 268)">
				<stop  offset="0" style="stop-color:#C9F9FF"/>
				<stop  offset="1" style="stop-color:#43DDFF"/>
			</linearGradient>
			<path class="st29" d="M22.9,47.9c-2.2-0.5-2.7-0.1-3.2,1.2c-0.4,1.3-0.4,1.4-0.9,2.7c-0.4,1.1,0.1,1.1,0.1,1.1s11,3,19.1,8.6
				c5.8,3.9,6.2,4.3,6.2,4.3l-1.3-4.4c-1.1-3.8-5.4-7.5-12-10.4C30.9,50.9,25.6,48.5,22.9,47.9z"/>
		</g>
		<path class="st24" d="M105.5,107.3l-1.8-7.9l0.9-1.9l11.2-3.7l12.6,0.1c0,0,2.6,0,2.6,1.9c0,1-2.4,1.2-7.7,1
			c-2.5-0.1-1.6,1.6-1.6,1.6c0.7,4,1,7.4,0,9.1c-1.5,2.6-4.1,2.6-5,2.2c-0.2-0.1-0.2-1-0.2-1C111.1,110.1,106.2,110.8,105.5,107.3z"
			/>
		
			<linearGradient id="SVGID_22_" gradientUnits="userSpaceOnUse" x1="156.0449" y1="155.0579" x2="218.3715" y2="190.1424" gradientTransform="matrix(-1 0 0 -1 256.4811 268)">
			<stop  offset="0" style="stop-color:#C9F9FF"/>
			<stop  offset="0.1376" style="stop-color:#C3F8FF"/>
			<stop  offset="0.3299" style="stop-color:#B0F4FF"/>
			<stop  offset="0.5546" style="stop-color:#93EEFF"/>
			<stop  offset="0.8017" style="stop-color:#69E5FF"/>
			<stop  offset="1" style="stop-color:#43DDFF"/>
		</linearGradient>
		<path class="st30" d="M110.2,103.5c0.2,4.8-1.3,7.6-1.3,7.6s-24.9,4.7-28.2,5.3c-4.9,0.8-7.2,0.2-11.7-1.5
			c-8.3-3.2-25.8-19.1-25.8-19.1s-12.6-10.1-8.6-20.4c2.9-7.6,12.6-7.5,17.5-2.3c4.6,4.8,15.1,16.5,20.9,22.3
			c2.2,2.1,5.2,3.2,8.2,2.8l23.3-1.5c0,0,2.1-0.8,4,1.1C109.5,98.6,110.1,101.6,110.2,103.5z"/>
	</g>
</g>
</svg>
