<?xml version="1.0" encoding="utf-8"?>
<!-- Generator: Adobe Illustrator 22.1.0, SVG Export Plug-In . SVG Version: 6.00 Build 0)  -->
<svg version="1.1" id="Layer_1" xmlns="http://www.w3.org/2000/svg" xmlns:xlink="http://www.w3.org/1999/xlink" x="0px" y="0px"
	 viewBox="0 0 200 266.7" style="enable-background:new 0 0 200 266.7;" xml:space="preserve">
<style type="text/css">
	.st0{opacity:0.5;fill:url(#SVGID_1_);}
	.st1{fill:url(#SVGID_2_);}
	.st2{opacity:0.25;}
	.st3{fill:url(#SVGID_3_);}
	.st4{fill:url(#SVGID_4_);}
	.st5{fill:url(#SVGID_5_);}
	.st6{fill:url(#SVGID_6_);}
	.st7{fill:url(#SVGID_7_);}
	.st8{fill:url(#SVGID_8_);}
	.st9{fill:#8B97DD;}
	.st10{fill:url(#SVGID_9_);}
	.st11{fill:url(#SVGID_10_);}
	.st12{enable-background:new    ;}
	.st13{fill:url(#SVGID_11_);}
	.st14{fill:url(#SVGID_12_);}
	.st15{fill:url(#SVGID_13_);}
	.st16{fill:url(#SVGID_14_);}
	.st17{fill:url(#SVGID_15_);}
	.st18{fill:url(#SVGID_16_);}
	.st19{fill:url(#SVGID_17_);}
	.st20{fill:#236696;}
	.st21{fill:#EFCFBD;}
	.st22{fill:url(#SVGID_18_);}
	.st23{fill:#FFFFFF;}
	.st24{fill:#09BEEB;}
	.st25{fill:#36D7F2;}
	.st26{fill:url(#SVGID_19_);}
	.st27{fill:url(#SVGID_20_);}
</style>
<linearGradient id="SVGID_1_" gradientUnits="userSpaceOnUse" x1="130.35" y1="31.675" x2="130.35" y2="235.025" gradientTransform="matrix(1 0 0 -1 0 268)">
	<stop  offset="0" style="stop-color:#C9F9FF"/>
	<stop  offset="0.1376" style="stop-color:#C3F8FF"/>
	<stop  offset="0.3299" style="stop-color:#B0F4FF"/>
	<stop  offset="0.5546" style="stop-color:#93EEFF"/>
	<stop  offset="0.8017" style="stop-color:#69E5FF"/>
	<stop  offset="1" style="stop-color:#43DDFF"/>
</linearGradient>
<path class="st0" d="M197.5,69.9L136,34.4c-3.2-1.9-8.5-1.9-11.7,0L63.1,69.9c-1.7,1-2.5,2.3-2.4,3.6c0,8.6,0,122.5,0,122.5
	c0,1.2,0.8,2.5,2.4,3.4l61.6,35.5c3.2,1.9,8.5,1.9,11.7,0l61.2-35.5c1.6-0.9,2.4-2.2,2.4-3.4c0,0,0-111.6,0-122.5
	C200.1,72.3,199.3,70.9,197.5,69.9z"/>
<radialGradient id="SVGID_2_" cx="228.9946" cy="251.4301" r="322.7611" gradientTransform="matrix(1 0 0 -1 0 268)" gradientUnits="userSpaceOnUse">
	<stop  offset="0" style="stop-color:#0DACE0"/>
	<stop  offset="1" style="stop-color:#6115CF"/>
</radialGradient>
<path class="st1" d="M197.5,71.9L136,36.4c-3.2-1.9-8.5-1.9-11.7,0L63.1,71.9c-1.7,1-2.5,2.3-2.4,3.6c0,8.6,0,122.5,0,122.5
	c0,1.2,0.8,2.5,2.4,3.4l61.6,35.5c3.2,1.9,8.5,1.9,11.7,0l61.2-35.5c1.6-0.9,2.4-2.2,2.4-3.4c0,0,0-111.6,0-122.5
	C200.1,74.3,199.3,72.9,197.5,71.9z"/>
<g class="st2">
	
		<linearGradient id="SVGID_3_" gradientUnits="userSpaceOnUse" x1="60.5624" y1="124.55" x2="199.9376" y2="124.55" gradientTransform="matrix(1 0 0 -1 0 268)">
		<stop  offset="0" style="stop-color:#C9F9FF"/>
		<stop  offset="0.1376" style="stop-color:#C3F8FF"/>
		<stop  offset="0.3299" style="stop-color:#B0F4FF"/>
		<stop  offset="0.5546" style="stop-color:#93EEFF"/>
		<stop  offset="0.8017" style="stop-color:#69E5FF"/>
		<stop  offset="1" style="stop-color:#43DDFF"/>
	</linearGradient>
	<path class="st3" d="M197.5,140c3.2,1.9,3.3,4.9,0,6.8l-61.2,35.6c-3.2,1.9-8.5,1.9-11.7,0L63,146.8c-3.2-1.9-3.3-4.9,0-6.8
		l61.2-35.5c3.2-1.9,8.5-1.9,11.7,0L197.5,140z"/>
</g>
<g class="st2">
	
		<linearGradient id="SVGID_4_" gradientUnits="userSpaceOnUse" x1="60.5624" y1="142.1" x2="199.9376" y2="142.1" gradientTransform="matrix(1 0 0 -1 0 268)">
		<stop  offset="0" style="stop-color:#C9F9FF"/>
		<stop  offset="0.1376" style="stop-color:#C3F8FF"/>
		<stop  offset="0.3299" style="stop-color:#B0F4FF"/>
		<stop  offset="0.5546" style="stop-color:#93EEFF"/>
		<stop  offset="0.8017" style="stop-color:#69E5FF"/>
		<stop  offset="1" style="stop-color:#43DDFF"/>
	</linearGradient>
	<path class="st4" d="M197.5,122.5c3.2,1.9,3.3,4.9,0,6.8l-61.2,35.5c-3.2,1.9-8.5,1.9-11.7,0L63,129.3c-3.2-1.9-3.3-4.9,0-6.8
		L124.2,87c3.2-1.9,8.5-1.9,11.7,0L197.5,122.5z"/>
</g>
<g class="st2">
	
		<linearGradient id="SVGID_5_" gradientUnits="userSpaceOnUse" x1="60.5624" y1="159.65" x2="199.9376" y2="159.65" gradientTransform="matrix(1 0 0 -1 0 268)">
		<stop  offset="0" style="stop-color:#C9F9FF"/>
		<stop  offset="0.1376" style="stop-color:#C3F8FF"/>
		<stop  offset="0.3299" style="stop-color:#B0F4FF"/>
		<stop  offset="0.5546" style="stop-color:#93EEFF"/>
		<stop  offset="0.8017" style="stop-color:#69E5FF"/>
		<stop  offset="1" style="stop-color:#43DDFF"/>
	</linearGradient>
	<path class="st5" d="M197.5,105c3.2,1.9,3.3,4.9,0,6.8l-61.2,35.5c-3.2,1.9-8.5,1.9-11.7,0L63,111.8c-3.2-1.9-3.3-4.9,0-6.8
		l61.2-35.6c3.2-1.9,8.5-1.9,11.7,0L197.5,105z"/>
</g>
<g class="st2">
	
		<linearGradient id="SVGID_6_" gradientUnits="userSpaceOnUse" x1="60.6624" y1="177.2" x2="199.9376" y2="177.2" gradientTransform="matrix(1 0 0 -1 0 268)">
		<stop  offset="0" style="stop-color:#C9F9FF"/>
		<stop  offset="0.1376" style="stop-color:#C3F8FF"/>
		<stop  offset="0.3299" style="stop-color:#B0F4FF"/>
		<stop  offset="0.5546" style="stop-color:#93EEFF"/>
		<stop  offset="0.8017" style="stop-color:#69E5FF"/>
		<stop  offset="1" style="stop-color:#43DDFF"/>
	</linearGradient>
	<path class="st6" d="M197.5,87.4c3.2,1.9,3.3,4.9,0,6.8l-61.2,35.5c-3.2,1.9-8.5,1.9-11.7,0L63.1,94.2c-3.2-1.9-3.3-4.9,0-6.8
		l61.2-35.5c3.2-1.9,8.5-1.9,11.7,0L197.5,87.4z"/>
</g>
<g class="st2">
	
		<linearGradient id="SVGID_7_" gradientUnits="userSpaceOnUse" x1="60.5624" y1="89.6" x2="199.9376" y2="89.6" gradientTransform="matrix(1 0 0 -1 0 268)">
		<stop  offset="0" style="stop-color:#C9F9FF"/>
		<stop  offset="0.1376" style="stop-color:#C3F8FF"/>
		<stop  offset="0.3299" style="stop-color:#B0F4FF"/>
		<stop  offset="0.5546" style="stop-color:#93EEFF"/>
		<stop  offset="0.8017" style="stop-color:#69E5FF"/>
		<stop  offset="1" style="stop-color:#43DDFF"/>
	</linearGradient>
	<path class="st7" d="M197.5,175c3.2,1.9,3.3,4.9,0,6.8l-61.2,35.5c-3.2,1.9-8.5,1.9-11.7,0L63,181.8c-3.2-1.9-3.3-4.9,0-6.8
		l61.2-35.5c3.2-1.9,8.5-1.9,11.7,0L197.5,175z"/>
</g>
<g class="st2">
	
		<linearGradient id="SVGID_8_" gradientUnits="userSpaceOnUse" x1="60.5624" y1="107.15" x2="199.9376" y2="107.15" gradientTransform="matrix(1 0 0 -1 0 268)">
		<stop  offset="0" style="stop-color:#C9F9FF"/>
		<stop  offset="0.1376" style="stop-color:#C3F8FF"/>
		<stop  offset="0.3299" style="stop-color:#B0F4FF"/>
		<stop  offset="0.5546" style="stop-color:#93EEFF"/>
		<stop  offset="0.8017" style="stop-color:#69E5FF"/>
		<stop  offset="1" style="stop-color:#43DDFF"/>
	</linearGradient>
	<path class="st8" d="M197.5,157.5c3.2,1.9,3.3,4.9,0,6.8l-61.2,35.5c-3.2,1.9-8.5,1.9-11.7,0L63,164.3c-3.2-1.9-3.3-4.9,0-6.8
		l61.2-35.6c3.2-1.9,8.5-1.9,11.7,0L197.5,157.5z"/>
</g>
<g>
	<path class="st9" d="M197.5,71.9c3.2,1.9,3.3,4.9,0,6.8l-61.2,35.5c-3.2,1.9-8.5,1.9-11.7,0L63.1,78.7c-3.2-1.9-3.3-4.9,0-6.8
		l61.2-35.5c3.2-1.9,8.5-1.9,11.7,0L197.5,71.9z"/>
</g>
<linearGradient id="SVGID_9_" gradientUnits="userSpaceOnUse" x1="62.3783" y1="193.3" x2="198.4595" y2="193.3" gradientTransform="matrix(1 0 0 -1 0 268)">
	<stop  offset="0" style="stop-color:#C9F9FF"/>
	<stop  offset="0.1376" style="stop-color:#C3F8FF"/>
	<stop  offset="0.3299" style="stop-color:#B0F4FF"/>
	<stop  offset="0.5546" style="stop-color:#93EEFF"/>
	<stop  offset="0.8017" style="stop-color:#69E5FF"/>
	<stop  offset="1" style="stop-color:#43DDFF"/>
</linearGradient>
<path class="st10" d="M197.5,70.2L136,34.6c-3.2-1.9-8.5-1.9-11.7,0L63.1,70.2c-1.7,1-2.5,2.3-2.4,3.6c0,0,0,0.9,0,2.1l0,0
	c0,1.2,0.8,2.5,2.4,3.4l61.6,35.5c3.2,1.9,8.5,1.9,11.7,0l61.2-35.5c1.6-0.9,2.4-2.2,2.4-3.4l0,0c0-1.2,0-2.1,0-2.1
	C200.1,72.5,199.3,71.2,197.5,70.2z"/>
<g>
	
		<linearGradient id="SVGID_10_" gradientUnits="userSpaceOnUse" x1="198.3114" y1="194.65" x2="67.3312" y2="194.65" gradientTransform="matrix(1 0 0 -1 0 268)">
		<stop  offset="0" style="stop-color:#C9F9FF"/>
		<stop  offset="0.1376" style="stop-color:#C3F8FF"/>
		<stop  offset="0.3299" style="stop-color:#B0F4FF"/>
		<stop  offset="0.5546" style="stop-color:#93EEFF"/>
		<stop  offset="0.8017" style="stop-color:#69E5FF"/>
		<stop  offset="1" style="stop-color:#43DDFF"/>
	</linearGradient>
	<path class="st11" d="M197.6,70c3.2,1.9,3.3,4.9,0,6.8l-61.2,35.5c-3.2,1.9-8.5,1.9-11.7,0L63.2,76.7c-3.2-1.9-3.3-4.9,0-6.8
		l61.2-35.5c3.2-1.9,8.5-1.9,11.7,0L197.6,70z"/>
</g>
<g>
	<g class="st12">
		
			<linearGradient id="SVGID_11_" gradientUnits="userSpaceOnUse" x1="68.4" y1="177.6875" x2="174.6222" y2="177.6875" gradientTransform="matrix(1 0 0 -1 0 268)">
			<stop  offset="0" style="stop-color:#12C2E9"/>
			<stop  offset="1" style="stop-color:#7D1EDC"/>
		</linearGradient>
		<path class="st13" d="M129.7,106.7l-61.3-35v1.4c0,1,0.5,1.8,1.3,2.3l56.7,32.7c1.9,1.1,4.3,1.1,6.2,0l40.1-23.3
			c1.1-0.6,1.8-1.8,1.8-3.1v-1.8L129.7,106.7z"/>
		<g>
			
				<linearGradient id="SVGID_12_" gradientUnits="userSpaceOnUse" x1="68.4871" y1="192.3491" x2="174.6" y2="192.3491" gradientTransform="matrix(1 0 0 -1 0 268)">
				<stop  offset="0" style="stop-color:#C9F9FF"/>
				<stop  offset="0.1376" style="stop-color:#C3F8FF"/>
				<stop  offset="0.3299" style="stop-color:#B0F4FF"/>
				<stop  offset="0.5546" style="stop-color:#93EEFF"/>
				<stop  offset="0.8017" style="stop-color:#69E5FF"/>
				<stop  offset="1" style="stop-color:#43DDFF"/>
			</linearGradient>
			<path class="st14" d="M174.6,79.8l-42.4,27.1c-1.6,1-3.7,1.1-5.3,0.1L69.4,73.9c-1.2-0.7-1.2-2.4-0.1-3.2l42.4-27.1L174.6,79.8z"
				/>
		</g>
	</g>
</g>
<g>
	<g class="st12">
		
			<linearGradient id="SVGID_13_" gradientUnits="userSpaceOnUse" x1="111.5" y1="227.6375" x2="174.6" y2="227.6375" gradientTransform="matrix(1 0 0 -1 0 268)">
			<stop  offset="0" style="stop-color:#12C2E9"/>
			<stop  offset="1" style="stop-color:#7D1EDC"/>
		</linearGradient>
		<path class="st15" d="M114.9,0.3c-0.8-0.5-1.8-0.5-2.7,0l-0.7,0.4l60.4,35.8l1.2,44.3l1.5-0.8V37.9c0-1.9-1-3.7-2.7-4.6L114.9,0.3
			z"/>
		
			<linearGradient id="SVGID_14_" gradientUnits="userSpaceOnUse" x1="86.5728" y1="246.1811" x2="183.9093" y2="213.39" gradientTransform="matrix(1 0 0 -1 0 268)">
			<stop  offset="0" style="stop-color:#C9F9FF"/>
			<stop  offset="0.1376" style="stop-color:#C3F8FF"/>
			<stop  offset="0.3299" style="stop-color:#B0F4FF"/>
			<stop  offset="0.5546" style="stop-color:#93EEFF"/>
			<stop  offset="0.8017" style="stop-color:#69E5FF"/>
			<stop  offset="1" style="stop-color:#43DDFF"/>
		</linearGradient>
		<path class="st16" d="M170.5,34.1c1.6,1,2.7,2.7,2.7,4.6v42.1l-62.8-36.3v-42c0-1.4,1.5-2.2,2.7-1.5L170.5,34.1z"/>
	</g>
</g>
<g>
	
		<linearGradient id="SVGID_15_" gradientUnits="userSpaceOnUse" x1="88.9426" y1="197.2568" x2="167.7031" y2="197.2568" gradientTransform="matrix(1 0 0 -1 0 268)">
		<stop  offset="0" style="stop-color:#7DEFFF"/>
		<stop  offset="1" style="stop-color:#0ECFFF"/>
	</linearGradient>
	<path class="st17" d="M167.2,79.2c0.6,0.3,0.7,1.4,0.1,2l-19.8,12.6c-1.7,1-3.1,0.1-4.6-0.8L89.7,62.4c-1.2-0.7-0.8-1.8,0-2.2
		l19.5-12.3c1.1-0.6,2.3-0.9,3.1-0.4L167.2,79.2z"/>
</g>
<g>
	
		<linearGradient id="SVGID_16_" gradientUnits="userSpaceOnUse" x1="92.5071" y1="184.6" x2="121.6325" y2="184.6" gradientTransform="matrix(1 0 0 -1 0 268)">
		<stop  offset="0" style="stop-color:#7DEFFF"/>
		<stop  offset="1" style="stop-color:#0ECFFF"/>
	</linearGradient>
	<path class="st18" d="M120.3,82.8c1.7,1,1.7,2.6,0,3.7l-7.9,4.6c-1.7,1-4.6,1-6.3,0L93.7,84c-1.8-1-1.8-2.7,0-3.7l7.8-4.6
		c1.7-1,4.6-1,6.3,0L120.3,82.8z"/>
</g>
<linearGradient id="SVGID_17_" gradientUnits="userSpaceOnUse" x1="114.4" y1="228.15" x2="168.3341" y2="228.15" gradientTransform="matrix(1 0 0 -1 0 268)">
	<stop  offset="0" style="stop-color:#7033DE"/>
	<stop  offset="1" style="stop-color:#12C2E9"/>
</linearGradient>
<polygon class="st19" points="114.4,40.8 168.4,71.9 168.4,38.9 114.4,7.8 "/>
<g>
	<path class="st20" d="M55.2,237L55.2,237c-1.5-6.7-25.9,2.1-24.5-4.3l-19.1,5.6c0,13.2,0,0.7,0,13.9c0,2.3,5.1,6.1,9.8,4.8l5.4-2.2
		c0-0.1,0-0.1,0-0.2l0,0c0-1.2-0.1-2.5,0.2-3.3c0.4-0.1,4.5,1.2,4.5,1.2C55.7,242.7,56.1,241.8,55.2,237z"/>
	<path class="st20" d="M70.9,255c-1.2-6.2-22.3-3.7-26.5-8.6l-22.7,2.4c0,0.7-0.4,11.6-0.4,12.2c-0.2,5,6.3,6.7,13.7,5.2
		c0.1,0,0.2-1.8,0.3-1.8c1.8,0.6,4,1.2,4,1.2C73.9,261.3,71,259.8,70.9,255z"/>
	<g>
		<g>
			<path class="st21" d="M24.1,142.2c-3-3.8-17.7-28.7-19.4-36.2c-1.6-7.1-4-30-4-30s-1.5-13.3,6.9-15.4c5.1-1.3,9.3,1.3,8.2,15
				c-0.4,5.3,3.9,30,3.9,30l12.2,33.5C31.9,139.1,24.8,143,24.1,142.2z"/>
		</g>
		
			<linearGradient id="SVGID_18_" gradientUnits="userSpaceOnUse" x1="13.1884" y1="140.5909" x2="8.6503" y2="207.2258" gradientTransform="matrix(1 0 0 -1 0 268)">
			<stop  offset="0" style="stop-color:#C9F9FF"/>
			<stop  offset="0.1376" style="stop-color:#C3F8FF"/>
			<stop  offset="0.3299" style="stop-color:#B0F4FF"/>
			<stop  offset="0.5546" style="stop-color:#93EEFF"/>
			<stop  offset="0.8017" style="stop-color:#69E5FF"/>
			<stop  offset="1" style="stop-color:#43DDFF"/>
		</linearGradient>
		<path class="st22" d="M10.9,57.5c7.4,0.2,8.4,11.9,8.4,11.9s1.3,15.8,1.2,19.4L13,125.9c-2.6-5.3-14.1-15.6-12.9-53.6
			C0.3,63.9,4.8,57.3,10.9,57.5z"/>
	</g>
	<path class="st23" d="M4.5,73.5c0,0,3.4-16,7-16c4.4,0,7.3-15.5,7.3-15.5l16.5,6.9c0,0-7.3,11.9-6.1,14.2c1.2,2.3,3.6,5.6,5.4,7.4
		l2.9,1c2.3,2.4,6.8,5.9,8.5,13.6l7.3,45.2l-39.1,7.3L6,84.7C5.2,81.5,4,76.8,4.5,73.5z"/>
	<path class="st24" d="M39.6,142.9l-0.7,103.5c0,0-6.3,5.8-16.6,5.8c-5.8,0-11.5-3.7-11.6-5.4l1.8-109.7L39.6,142.9z"/>
	<path class="st25" d="M53.1,148.2l-8.5,94.2c0,0,0,2.3,1.6,4.2c1.2,1.4,1,3.5,0.6,4.6c-0.6,1.6-6.3,10.1-18,9.5
		c-3.6-0.2-7.6-1.5-7.7-3.1L23.6,147L53.1,148.2z"/>
	
		<linearGradient id="SVGID_19_" gradientUnits="userSpaceOnUse" x1="0.9199" y1="137.4953" x2="60.3628" y2="137.4953" gradientTransform="matrix(1 0 0 -1 0 268)">
		<stop  offset="0" style="stop-color:#C9F9FF"/>
		<stop  offset="0.1376" style="stop-color:#C3F8FF"/>
		<stop  offset="0.3299" style="stop-color:#B0F4FF"/>
		<stop  offset="0.5546" style="stop-color:#93EEFF"/>
		<stop  offset="0.8017" style="stop-color:#69E5FF"/>
		<stop  offset="1" style="stop-color:#43DDFF"/>
	</linearGradient>
	<path class="st26" d="M40.5,73.1c5.1,6.7,8.2,9.8,11.6,30.7c2.7,17,9.7,82.9,8,84.8c-6.3,7-14.5,15-30.5,15c-9,0-20.6-5.1-21.5-8.5
		c0,0,2.9-43.1,0.8-79.1c-0.7-11.4-5.5-35.2-7.4-43.6c-3-13.5,6.5-14.6,8.8-14.9c9.1-0.9,18.9,5.2,18.9,5.2S35.4,66.4,40.5,73.1z"/>
	<g>
		<path class="st23" d="M33.3,11.4l11.8,0.3L43,42.3c-0.4,8.8-4.1,10.1-6.8,10.2c-5.5,0.1-11.7-2.9-14.8-4.7c-6-3.5-6-13.7-6-14.5
			l-2.1-20.4L33.3,11.4z"/>
		<path class="st20" d="M42.5,6.4c3.7,3.8,2.9,9.2,2.6,9.5c-2.9,2.3-4.5,11-4.8,14.5l-0.4,3.2c0.1,1.2-1.5,2.9-2.4,1.2
			c-1-1.9,0.4-3.4-0.5-4.3c-0.9-1-3.3-1.3-5.5,5.3l-2,5.2c-1.7,4.7-6.9,6.1-11,5.5c0,0-2.6-0.5-3.5-1.9c-0.7-1-6.1-9.7-7.3-12.6
			c-4-9.6-2.7-18.3,2.6-24.1c2.6-2.9,7-4.1,8.3-4.4C24.4,2.4,22,0.2,22,0.2c1.9-0.4,4.2,1.9,5.3,2.4c3.6,1.7,1.1-2.3,1-2.6
			c0,0,1.4-0.5,3.7,1.4c0.9,0.8,2,2.5,3.4,2.9c2.8,0.8,1.7-2.2,1.8-2.1C38.6,3,42.5,6.4,42.5,6.4z"/>
	</g>
	<path class="st23" d="M99.7,79.9c2.4-1,2.6-4.9,1.6-7c-0.3-0.7,3.9-3.1,5.1-4.9c1.2-1.9-0.6-3.3-1.2-3.3c-0.5-0.1-6.2,4.6-7.6,5.8
		c-3.5,3-4.3,7.5-3.4,9.7C95.1,82.3,97.3,80.9,99.7,79.9z"/>
	<path class="st23" d="M94.3,84.1L94.2,78l6.3-5.4l1.2-0.5l9.4-3.1c0,0,6.2-8.1,6.8-4.7l-0.4,5.3c2.1,5.1-2.8,8.9-2.8,8.9l-8.4,5.9
		C103.8,85.7,95.6,87,94.3,84.1z"/>
	
		<linearGradient id="SVGID_20_" gradientUnits="userSpaceOnUse" x1="94.7236" y1="175.477" x2="15.1842" y2="181.7564" gradientTransform="matrix(1 0 0 -1 0 268)">
		<stop  offset="0" style="stop-color:#C9F9FF"/>
		<stop  offset="0.1376" style="stop-color:#C3F8FF"/>
		<stop  offset="0.3299" style="stop-color:#B0F4FF"/>
		<stop  offset="0.5546" style="stop-color:#93EEFF"/>
		<stop  offset="0.8017" style="stop-color:#69E5FF"/>
		<stop  offset="1" style="stop-color:#43DDFF"/>
	</linearGradient>
	<path class="st27" d="M94.5,92.9c-3.6,3.7-26.4,15-38.7,14.3c-7.1-0.4-34.2-15.8-34.2-15.8s-14.2-7-6.8-17.2
		c2.8-3.9,7.9-4.5,14.6-0.6C34.2,76.3,59,90.3,59,90.3s24.5-9.5,35.3-15.5C96.2,73.8,98.1,89.2,94.5,92.9z"/>
</g>
</svg>
