<?xml version="1.0" encoding="utf-8"?>
<!-- Generator: Adobe Illustrator 23.0.3, SVG Export Plug-In . SVG Version: 6.00 Build 0)  -->
<svg version="1.1" id="Layer_1" xmlns="http://www.w3.org/2000/svg" xmlns:xlink="http://www.w3.org/1999/xlink" x="0px" y="0px"
	 viewBox="0 0 50 55" style="enable-background:new 0 0 50 55;" xml:space="preserve">
<style type="text/css">
	.st0{fill:url(#SVGID_1_);}
	.st1{fill:url(#SVGID_2_);}
	.st2{fill:url(#SVGID_3_);}
	.st3{fill:url(#SVGID_4_);}
	.st4{fill:url(#SVGID_5_);}
	.st5{fill:url(#SVGID_6_);}
	.st6{fill:url(#SVGID_7_);}
	.st7{fill:url(#SVGID_8_);}
</style>
<g>
	<g>
		
			<linearGradient id="SVGID_1_" gradientUnits="userSpaceOnUse" x1="11.715" y1="51.0979" x2="42.1572" y2="51.0979" gradientTransform="matrix(-1 0 0 -1 51.9361 98.6432)">
			<stop  offset="0" style="stop-color:#7D1EDC"/>
			<stop  offset="1" style="stop-color:#12C2E9"/>
		</linearGradient>
		<path class="st0" d="M25,46.9c8.4,0,15.2,1.4,15.2,3.1v-1.8c0-1.7-6.8-3.1-15.2-3.1c-8.4,0-15.2,1.4-15.2,3.1V50
			C9.8,48.3,16.6,46.9,25,46.9z"/>
		
			<linearGradient id="SVGID_2_" gradientUnits="userSpaceOnUse" x1="1.9362" y1="47.0548" x2="51.9361" y2="47.0548" gradientTransform="matrix(-1 0 0 -1 51.9361 98.6432)">
			<stop  offset="0" style="stop-color:#12C2E9"/>
			<stop  offset="1" style="stop-color:#7D1EDC"/>
		</linearGradient>
		<path class="st1" d="M25,55c13.8,0,25-2.2,25-5v-1.8c0,2.8-11.2,5-25,5c-13.8,0-25-2.2-25-5V50C0,52.8,11.2,55,25,55z"/>
		
			<linearGradient id="SVGID_3_" gradientUnits="userSpaceOnUse" x1="24.783" y1="42.5419" x2="29.0779" y2="58.3441" gradientTransform="matrix(-1 0 0 -1 51.9361 98.6432)">
			<stop  offset="0" style="stop-color:#78FFD6"/>
			<stop  offset="1" style="stop-color:#24A4FF"/>
		</linearGradient>
		<path class="st2" d="M0,48.2C0,48.2,0,48.2,0,48.2L0,48.2c0,2.8,11.2,5,25,5c13.8,0,25-2.2,25-5h0c0,0,0,0,0,0c0,0,0,0,0,0h0
			c0-2.8-11.2-5-25-5C11.2,43.2,0,45.4,0,48.2L0,48.2C0,48.2,0,48.2,0,48.2z M25,45.1c8.4,0,15.2,1.4,15.2,3.1
			c0,1.7-6.8,3.1-15.2,3.1c-8.4,0-15.2-1.4-15.2-3.1C9.8,46.5,16.6,45.1,25,45.1z"/>
	</g>
	<g>
		<linearGradient id="SVGID_4_" gradientUnits="userSpaceOnUse" x1="22.8988" y1="54.3067" x2="30.1805" y2="38.183">
			<stop  offset="0" style="stop-color:#12C2E9"/>
			<stop  offset="1" style="stop-color:#7D1EDC"/>
		</linearGradient>
		<path class="st3" d="M26.2,42.3l8.2-4.8c-1.6,3.2-3.4,4.3-5.4,7.9l-8.2,4.8C22.8,46.7,24.6,45.5,26.2,42.3z"/>
		<linearGradient id="SVGID_5_" gradientUnits="userSpaceOnUse" x1="29.3038" y1="35.3192" x2="13.0104" y2="8.8425">
			<stop  offset="0" style="stop-color:#12C2E9"/>
			<stop  offset="1" style="stop-color:#7D1EDC"/>
		</linearGradient>
		<path class="st4" d="M29.1,29.9c-5.3-3.1-9.6-10.5-9.6-16.7c0-3,1.1-5.2,2.8-6.2l-8.2,4.8c-1.7,1-2.8,3.2-2.8,6.2
			c0,6.1,4.3,13.6,9.6,16.7c2.7,1.6,5.1,1.7,6.8,0.7l8.2-4.8C34.1,31.6,31.7,31.5,29.1,29.9z"/>
		<g>
			<linearGradient id="SVGID_6_" gradientUnits="userSpaceOnUse" x1="13.5409" y1="22.2251" x2="32.9234" y2="22.2251">
				<stop  offset="0" style="stop-color:#43DDFF"/>
				<stop  offset="0.1983" style="stop-color:#69E5FF"/>
				<stop  offset="0.4454" style="stop-color:#93EEFF"/>
				<stop  offset="0.6701" style="stop-color:#B0F4FF"/>
				<stop  offset="0.8624" style="stop-color:#C3F8FF"/>
				<stop  offset="1" style="stop-color:#C9F9FF"/>
			</linearGradient>
			<path class="st5" d="M23.3,11c5.4,3.1,9.7,10.6,9.7,16.8c0,6.2-4.4,8.7-9.7,5.6c-5.4-3.1-9.7-10.7-9.7-16.8
				C13.6,10.4,17.9,7.9,23.3,11z"/>
		</g>
		<linearGradient id="SVGID_7_" gradientUnits="userSpaceOnUse" x1="19.3175" y1="-1.4102" x2="39.4305" y2="36.4839">
			<stop  offset="0" style="stop-color:#12C2E9"/>
			<stop  offset="1" style="stop-color:#7D1EDC"/>
		</linearGradient>
		<path class="st6" d="M29.1,2c-4-2.3-7.7-2.6-10.3-1l-8.2,4.8c2.6-1.5,6.3-1.3,10.3,1c8,4.7,14.5,16,14.5,25.3
			c0,4.6-1.6,7.8-4.2,9.4l8.2-4.8c2.6-1.5,4.2-4.8,4.2-9.4C43.6,18,37.2,6.7,29.1,2z"/>
		<linearGradient id="SVGID_8_" gradientUnits="userSpaceOnUse" x1="15.7758" y1="5.134" x2="28.029" y2="49.1341">
			<stop  offset="0" style="stop-color:#78FFD6"/>
			<stop  offset="1" style="stop-color:#24A4FF"/>
		</linearGradient>
		<path class="st7" d="M21,6.8c8,4.7,14.5,16,14.5,25.3c0,7.1-3.8,10.9-9.2,10.3c-1.6,3.2-3.4,4.3-5.4,7.9c-2-5.8-3.7-9-5.3-14.1
			c-5.4-5.6-9.2-13.9-9.1-20.9C6.4,5.9,12.9,2.1,21,6.8z M20.9,34.7c5.3,3.1,9.6,0.6,9.6-5.5c0-6.1-4.3-13.6-9.6-16.7
			c-5.3-3.1-9.6-0.6-9.6,5.5C11.3,24.1,15.6,31.6,20.9,34.7"/>
	</g>
</g>
</svg>
