<?xml version="1.0" encoding="utf-8"?>
<!-- Generator: Adobe Illustrator 23.0.3, SVG Export Plug-In . SVG Version: 6.00 Build 0)  -->
<svg version="1.1" id="layer_1" xmlns="http://www.w3.org/2000/svg" xmlns:xlink="http://www.w3.org/1999/xlink" x="0px" y="0px"
	 viewBox="0 0 43.8 48" style="enable-background:new 0 0 43.8 48;" xml:space="preserve">
<style type="text/css">
	.st0{fill:#6115D0;}
	.st1{fill:#FFFFFF;}
	.st2{fill:#271540;}
</style>
<g>
	<circle class="st0" cx="40.7" cy="40" r="2.5"/>
	<path class="st1" d="M9.1,45.8c3.8,2.2,12.2,2.2,15.9,0c0.6-0.4,1-1.1,1-1.8v-2.6c0-0.8,1-0.9,1.5-0.9c0.1,0,0.2,0,0.2,0
		s0.2,0,0.6,0c1.5,0,5.7-0.2,6.1-2.1c0.5-2.4-0.1-7.2-0.1-7.2s1.9-0.8,3.6-1.7c1.6-0.9,0.6-2.4,0.6-2.4c-4-6.3-4.1-7.9-4.1-7.9
		C32.7,5.3,21.4,4.3,18.3,4.3c-0.5,0-0.9,0-1.1,0c-2.3,0-16.4,0.6-16.5,15.1c0,0,0,0.1,0,0.1c0,12.2,4.7,13.4,6.4,17.2
		c1.8,3.9,1.5,5.3,1.2,7.2C8.1,44.6,8.5,45.4,9.1,45.8z"/>
	<path class="st2" d="M17,48c-3.1,0-6.3-0.6-8.2-1.7l0,0c-0.8-0.5-1.3-1.5-1.2-2.5c0.3-2,0.5-3.2-1.1-6.9c-0.4-1-1.1-1.7-1.8-2.7
		C2.6,31.7,0,28.6,0,19.5c0,0,0-0.1,0-0.1C0.1,4.1,15.4,3.7,17.1,3.7c0.1,0,0.2,0,0.3,0c0.2,0,0.5,0,0.8,0c3.5,0,15,1.1,16.7,15.4
		c0,0.1,0.2,1.7,4,7.6c0,0.1,0.6,0.8,0.4,1.7c-0.1,0.6-0.5,1.1-1.2,1.5c-1.2,0.7-2.5,1.3-3.2,1.6c0.1,1.3,0.4,4.9,0,6.9
		c-0.4,2.3-4.4,2.7-6.7,2.7c-0.4,0-0.6,0-0.6,0c0,0-0.1,0-0.1,0c-0.3,0-0.8,0.1-0.8,0.3v2.6c0,1-0.5,1.9-1.3,2.3
		C23.4,47.4,20.2,48,17,48z M9.4,45.2c3.6,2.1,11.8,2.1,15.3,0c0.4-0.3,0.7-0.7,0.7-1.3v-2.6c0-0.7,0.5-1.5,2.1-1.5
		c0.1,0,0.2,0,0.2,0c0,0,0.2,0,0.5,0c2.6,0,5.3-0.5,5.5-1.6c0.4-2.3-0.1-7-0.1-7c0-0.3,0.1-0.5,0.4-0.6c0,0,1.9-0.7,3.5-1.7
		c0.3-0.2,0.5-0.4,0.6-0.7c0.1-0.4-0.2-0.8-0.2-0.8c-4-6.3-4.2-8-4.2-8.2C32.2,5.9,21.5,4.9,18.3,4.9c-0.3,0-0.6,0-0.8,0
		c-0.1,0-0.3,0-0.3,0c-2.6,0-15.8,0.7-15.9,14.4c0,0,0,0.1,0,0.1c0,8.7,2.4,11.7,4.4,14.1c0.8,0.9,1.5,1.8,2,2.9
		c1.8,4,1.6,5.4,1.2,7.6C8.8,44.5,9,45,9.4,45.2L9.4,45.2z"/>
	<path class="st0" d="M26.5,20.7c0,5.3-4.3,9.5-9.5,9.5c-5.3,0-9.5-4.3-9.5-9.5c0-5.3,4.3-9.5,9.5-9.5
		C22.2,11.2,26.5,15.4,26.5,20.7z"/>
	<ellipse transform="matrix(0.9118 -0.4106 0.4106 0.9118 -7.0071 8.7899)" class="st1" cx="17" cy="20.7" rx="5.2" ry="5.2"/>
	<path class="st1" d="M20.2,0.6h-6.4V5c0,1.8,1.4,3.2,3.2,3.2h0c1.8,0,3.2-1.4,3.2-3.2V0.6z"/>
	<path class="st2" d="M40.7,36.9c-1.2,0-2.2,0.7-2.7,1.6c-3.8-1.3-10.5-4.2-15.4-9.4c2.7-1.8,4.5-4.9,4.5-8.4c0-4.9-3.5-9-8-9.9V8.5
		c1-0.5,1.7-1.5,1.7-2.7V0.6c0-0.3-0.3-0.6-0.6-0.6h-6.4c-0.3,0-0.6,0.3-0.6,0.6v5.1c0,1.2,0.7,2.2,1.7,2.7v2.3c-4.6,1-8,5.1-8,9.9
		c0,5.6,4.6,10.2,10.2,10.2c1.6,0,3.2-0.4,4.5-1.1c5.1,5.6,12.2,8.6,16.1,10c0,0.1,0,0.2,0,0.3c0,1.7,1.4,3.1,3.1,3.1
		c1.7,0,3.1-1.4,3.1-3.1C43.8,38.3,42.4,36.9,40.7,36.9z M25.9,20.7c0,3.1-1.6,5.9-4.1,7.5c-0.7-0.8-1.3-1.6-1.8-2.5
		c1.7-1,2.9-2.9,2.9-5c0-2.5-1.6-4.6-3.7-5.5v-3.2C23,13,25.9,16.5,25.9,20.7z M14.4,5.7V1.2h5.2v4.5c0,1-0.8,1.8-1.8,1.8h-1.5
		C15.2,7.6,14.4,6.7,14.4,5.7z M17,10.5c-0.3,0-0.6,0-0.9,0V8.8c0,0,0.1,0,0.1,0h1.5c0,0,0.1,0,0.1,0v1.8
		C17.5,10.6,17.3,10.5,17,10.5z M17.8,11.8v3.1c-0.3,0-0.6-0.1-0.9-0.1c-0.3,0-0.6,0-0.9,0.1v-3.1c0.3,0,0.6,0,0.9,0
		C17.3,11.8,17.5,11.8,17.8,11.8z M17,16.1c2.5,0,4.6,2.1,4.6,4.6c0,2.6-2.1,4.6-4.6,4.6c-2.5,0-4.6-2.1-4.6-4.6
		C12.3,18.2,14.4,16.1,17,16.1z M17,29.6c-4.9,0-8.9-4-8.9-8.9c0-4.2,2.9-7.7,6.8-8.7v3.2c-2.2,0.9-3.7,3-3.7,5.5
		c0,3.2,2.6,5.9,5.9,5.9c0.6,0,1.3-0.1,1.8-0.3c0.6,0.9,1.2,1.7,1.8,2.5C19.5,29.3,18.3,29.6,17,29.6z M40.7,41.9
		c-1,0-1.8-0.8-1.9-1.8c1,0.3,1.6,0.5,1.7,0.5c0,0,0.1,0,0.1,0c0.3,0,0.5-0.2,0.6-0.5c0.1-0.3-0.1-0.7-0.5-0.8c0,0-0.7-0.2-1.7-0.5
		c0.3-0.5,0.9-0.8,1.5-0.8c1,0,1.9,0.8,1.9,1.9C42.6,41.1,41.7,41.9,40.7,41.9z"/>
</g>
</svg>
