<?xml version="1.0" encoding="utf-8"?>
<!-- Generator: Adobe Illustrator 23.0.3, SVG Export Plug-In . SVG Version: 6.00 Build 0)  -->
<svg version="1.1" id="Layer_3" xmlns="http://www.w3.org/2000/svg" xmlns:xlink="http://www.w3.org/1999/xlink" x="0px" y="0px"
	 viewBox="0 0 50 55" style="enable-background:new 0 0 50 55;" xml:space="preserve">
<style type="text/css">
	.st0{enable-background:new    ;}
	.st1{fill:url(#SVGID_1_);}
	.st2{fill:url(#SVGID_2_);}
	.st3{fill:url(#SVGID_3_);}
	.st4{fill:url(#SVGID_4_);}
	.st5{opacity:0.2;}
	.st6{fill:url(#SVGID_5_);}
	.st7{opacity:0.5;}
	.st8{fill:url(#SVGID_6_);}
	.st9{fill:url(#SVGID_7_);}
	.st10{fill:#99EFFF;}
	.st11{fill:url(#SVGID_8_);}
	.st12{fill:url(#SVGID_9_);}
	.st13{fill:url(#SVGID_10_);}
	.st14{opacity:0.2;fill:url(#SVGID_11_);}
	.st15{opacity:0.2;fill:url(#SVGID_12_);}
</style>
<g>
	<g>
		<g class="st0">
			
				<linearGradient id="SVGID_1_" gradientUnits="userSpaceOnUse" x1="195.576" y1="46.2427" x2="245.576" y2="46.2427" gradientTransform="matrix(1 0 0 1 -195.576 0)">
				<stop  offset="0" style="stop-color:#12C2E9"/>
				<stop  offset="1" style="stop-color:#7D1EDC"/>
			</linearGradient>
			<path class="st1" d="M28.8,54L0.1,37.5L0,38.1c0,0.5,0.2,0.9,0.6,1.1l26.7,15.4c0.9,0.5,2,0.5,2.9,0l18.9-11
				c0.5-0.3,0.8-0.9,0.8-1.5l0-0.9L28.8,54z"/>
			<g>
				
					<linearGradient id="SVGID_2_" gradientUnits="userSpaceOnUse" x1="195.5762" y1="39.3572" x2="245.576" y2="39.3572" gradientTransform="matrix(1 0 0 1 -195.576 0)">
					<stop  offset="0" style="stop-color:#C9F9FF"/>
					<stop  offset="0.1376" style="stop-color:#C3F8FF"/>
					<stop  offset="0.3299" style="stop-color:#B0F4FF"/>
					<stop  offset="0.5546" style="stop-color:#93EEFF"/>
					<stop  offset="0.8017" style="stop-color:#69E5FF"/>
					<stop  offset="1" style="stop-color:#43DDFF"/>
				</linearGradient>
				<path class="st2" d="M50,41.3L30,54.1c-0.8,0.5-1.7,0.5-2.5,0L0.4,38.5c-0.6-0.3-0.6-1.2,0-1.5l20-12.8L50,41.3z"/>
			</g>
		</g>
	</g>
	<g>
		<g class="st0">
			
				<linearGradient id="SVGID_3_" gradientUnits="userSpaceOnUse" x1="215.866" y1="22.7847" x2="245.5732" y2="22.7847" gradientTransform="matrix(1 0 0 1 -195.576 0)">
				<stop  offset="0" style="stop-color:#12C2E9"/>
				<stop  offset="1" style="stop-color:#7D1EDC"/>
			</linearGradient>
			<path class="st3" d="M21.9,3.9c-0.4-0.2-0.9-0.2-1.3,0l-0.3,0.2L48.7,21l0.6,20.9l0.7-0.4V21.6c0-0.9-0.5-1.7-1.3-2.2L21.9,3.9z"
				/>
			
				<linearGradient id="SVGID_4_" gradientUnits="userSpaceOnUse" x1="204.3816" y1="14.0909" x2="249.9235" y2="29.4332" gradientTransform="matrix(1 0 0 1 -195.576 0)">
				<stop  offset="0" style="stop-color:#C9F9FF"/>
				<stop  offset="0.1376" style="stop-color:#C3F8FF"/>
				<stop  offset="0.3299" style="stop-color:#B0F4FF"/>
				<stop  offset="0.5546" style="stop-color:#93EEFF"/>
				<stop  offset="0.8017" style="stop-color:#69E5FF"/>
				<stop  offset="1" style="stop-color:#43DDFF"/>
			</linearGradient>
			<path class="st4" d="M48.3,19.9c0.8,0.5,1.3,1.3,1.3,2.2l-0.2,19.7L20,24.8V5c0-0.6,0.7-1,1.3-0.7L48.3,19.9z"/>
		</g>
	</g>
	<g class="st5">
		<linearGradient id="SVGID_5_" gradientUnits="userSpaceOnUse" x1="9.639" y1="37.0409" x2="46.7518" y2="37.0409">
			<stop  offset="0" style="stop-color:#12C2E9"/>
			<stop  offset="0.2116" style="stop-color:#2C9AE6"/>
			<stop  offset="0.5871" style="stop-color:#5857E1"/>
			<stop  offset="0.8601" style="stop-color:#732EDD"/>
			<stop  offset="1" style="stop-color:#7D1EDC"/>
		</linearGradient>
		<path class="st6" d="M46.5,41c0.3,0.2,0.3,0.7,0,0.9l-9.3,5.9c-0.8,0.5-1.5,0-2.2-0.4L10,33.1c-0.6-0.3-0.4-0.8,0-1.1l9.2-5.8
			c0.5-0.3,1.1-0.4,1.5-0.2L46.5,41z"/>
	</g>
	<g class="st7">
		<linearGradient id="SVGID_6_" gradientUnits="userSpaceOnUse" x1="12.5711" y1="46.8828" x2="13.7109" y2="46.0937">
			<stop  offset="0" style="stop-color:#C9F9FF"/>
			<stop  offset="0.1376" style="stop-color:#C3F8FF"/>
			<stop  offset="0.3299" style="stop-color:#B0F4FF"/>
			<stop  offset="0.5546" style="stop-color:#93EEFF"/>
			<stop  offset="0.8017" style="stop-color:#69E5FF"/>
			<stop  offset="1" style="stop-color:#43DDFF"/>
		</linearGradient>
		<path class="st8" d="M24.4,42.7c0.8,0.5,0.8,1.2,0,1.7l-3.7,2.1c-0.8,0.5-2.1,0.5-3,0L12,43.2c-0.8-0.5-0.8-1.2,0-1.7l3.7-2.1
			c0.8-0.5,2.1-0.5,3,0L24.4,42.7z"/>
	</g>
	
		<linearGradient id="SVGID_7_" gradientUnits="userSpaceOnUse" x1="240.9679" y1="20.5683" x2="215.487" y2="25.0387" gradientTransform="matrix(1 0 0 1 -195.576 0)">
		<stop  offset="0" style="stop-color:#12C2E9"/>
		<stop  offset="1" style="stop-color:#7D1EDC"/>
	</linearGradient>
	<polygon class="st9" points="20.8,23 48,38.7 48,22 20.8,6.3 	"/>
	<path class="st10" d="M45,33.9l-19.1-11c-0.8-0.5-1.5-1.7-1.5-2.6V7l22.1,12.8V33C46.6,34,45.9,34.4,45,33.9z"/>
	
		<linearGradient id="SVGID_8_" gradientUnits="userSpaceOnUse" x1="91.1876" y1="17.7816" x2="120.8514" y2="17.7816" gradientTransform="matrix(1 0 0 1 -68.8006 0)">
		<stop  offset="0" style="stop-color:#43DDFF"/>
		<stop  offset="0.1983" style="stop-color:#69E5FF"/>
		<stop  offset="0.4454" style="stop-color:#93EEFF"/>
		<stop  offset="0.6701" style="stop-color:#B0F4FF"/>
		<stop  offset="0.8624" style="stop-color:#C3F8FF"/>
		<stop  offset="1" style="stop-color:#C9F9FF"/>
	</linearGradient>
	<path class="st11" d="M43,11.2c0.8,0.5,1.5,1.7,1.5,2.6v20.6c0,1-0.7,1.4-1.5,0.9l-19.1-11c-0.8-0.5-1.5-1.7-1.5-2.6V1.1
		c0-1,0.7-1.4,1.6-0.9L43,11.2z"/>
	
		<linearGradient id="SVGID_9_" gradientUnits="userSpaceOnUse" x1="91.1876" y1="6.9275" x2="113.3178" y2="6.9275" gradientTransform="matrix(1 0 0 1 -68.8006 0)">
		<stop  offset="0" style="stop-color:#12C2E9"/>
		<stop  offset="1" style="stop-color:#7D1EDC"/>
	</linearGradient>
	<path class="st12" d="M22.4,1.1c0-1,0.7-1.4,1.6-0.9l19.1,11c0.8,0.5,1.5,1.7,1.5,2.6L22.4,1.1z"/>
	
		<linearGradient id="SVGID_10_" gradientUnits="userSpaceOnUse" x1="92.9536" y1="12.8362" x2="116.5681" y2="12.8362" gradientTransform="matrix(1 0 0 1 -68.8006 0)">
		<stop  offset="0" style="stop-color:#12C2E9"/>
		<stop  offset="0.2116" style="stop-color:#2C9AE6"/>
		<stop  offset="0.5871" style="stop-color:#5857E1"/>
		<stop  offset="0.8601" style="stop-color:#732EDD"/>
		<stop  offset="1" style="stop-color:#7D1EDC"/>
	</linearGradient>
	<polygon class="st13" points="42.6,15.5 42.6,20.8 24.2,10.2 24.2,4.8 	"/>
	<linearGradient id="SVGID_11_" gradientUnits="userSpaceOnUse" x1="24.6159" y1="19.2056" x2="42.0156" y2="19.2056">
		<stop  offset="0" style="stop-color:#12C2E9"/>
		<stop  offset="0.2116" style="stop-color:#2C9AE6"/>
		<stop  offset="0.5871" style="stop-color:#5857E1"/>
		<stop  offset="0.8601" style="stop-color:#732EDD"/>
		<stop  offset="1" style="stop-color:#7D1EDC"/>
	</linearGradient>
	<path class="st14" d="M27.1,14.4c0.4,0.2,0.7,0,0.7-0.4c0-0.4-0.3-0.9-0.7-1.1c-0.4-0.2-0.7,0-0.7,0.4
		C26.4,13.7,26.7,14.2,27.1,14.4z M27.1,13.1c0.3,0.1,0.5,0.5,0.5,0.8c0,0.3-0.2,0.4-0.5,0.3c-0.3-0.1-0.5-0.5-0.5-0.8
		C26.6,13.1,26.8,13,27.1,13.1z M39.6,20.1l-0.7,1l1.5,0.8L39.6,20.1z M39.6,20.5l0.4,1l-0.8-0.4L39.6,20.5z M34,17l-1.2-0.7l0,1.4
		l1.2,0.7L34,17z M33.8,18L33,17.5l0-0.9l0.8,0.5L33.8,18z M24.8,14.6l1.5,0.8c0.1,0,0.1,0.2,0.1,0.2c0,0.1-0.1,0.1-0.1,0.1L24.8,15
		c-0.1,0-0.1-0.2-0.1-0.2C24.6,14.6,24.7,14.6,24.8,14.6z M24.8,14.2c-0.1,0-0.1-0.2-0.1-0.2c0-0.1,0.1-0.1,0.1-0.1l1,0.6
		c0.1,0,0.1,0.2,0.1,0.2c0,0.1-0.1,0.1-0.1,0.1L24.8,14.2z M27.8,16.7l-0.8-0.5c-0.1,0-0.1-0.2-0.1-0.2c0-0.1,0.1-0.1,0.1-0.1
		l0.8,0.5c0.1,0,0.1,0.2,0.1,0.2C27.9,16.7,27.8,16.8,27.8,16.7z M29.3,18c0.1,0,0.1,0.2,0.1,0.2c0,0.1-0.1,0.1-0.1,0.1L28,17.6
		c-0.1,0-0.1-0.2-0.1-0.2c0-0.1,0.1-0.1,0.1-0.1L29.3,18z M29.3,17.2c0.1,0,0.1,0.2,0.1,0.2c0,0.1-0.1,0.1-0.1,0.1l-0.8-0.5
		c-0.1,0-0.1-0.2-0.1-0.2c0-0.1,0.1-0.1,0.1-0.1L29.3,17.2z M27.3,16.8c0.1,0,0.1,0.2,0.1,0.2c0,0.1-0.1,0.1-0.1,0.1L26,16.4
		c-0.1,0-0.1-0.2-0.1-0.2c0-0.1,0.1-0.1,0.1-0.1L27.3,16.8z M29.3,16.4c0.1,0,0.1,0.2,0.1,0.2c0,0.1-0.1,0.1-0.1,0.1l-2.8-1.6
		c-0.1,0-0.1-0.2-0.1-0.2c0-0.1,0.1-0.1,0.1-0.1L29.3,16.4z M25.3,15.7c0.1,0,0.1,0.2,0.1,0.2c0,0.1-0.1,0.1-0.1,0.1l-0.5-0.3
		c-0.1,0-0.1-0.2-0.1-0.2c0-0.1,0.1-0.1,0.1-0.1L25.3,15.7z M33.8,20.6c0.1,0,0.1,0.2,0.1,0.2c0,0.1-0.1,0.1-0.1,0.1L33,20.5
		c-0.1,0-0.1-0.2-0.1-0.2c0-0.1,0.1-0.1,0.1-0.1L33.8,20.6z M34.4,20.6l-0.7-0.4c-0.1,0-0.1-0.2-0.1-0.2c0-0.1,0.1-0.1,0.1-0.1
		l0.7,0.4c0.1,0,0.1,0.2,0.1,0.2C34.5,20.6,34.5,20.6,34.4,20.6z M35.6,21.7c0.1,0,0.1,0.2,0.1,0.2c0,0.1-0.1,0.1-0.1,0.1l-1.2-0.7
		c-0.1,0-0.1-0.2-0.1-0.2c0-0.1,0.1-0.1,0.1-0.1L35.6,21.7z M35.6,20.9c0.1,0,0.1,0.2,0.1,0.2c0,0.1-0.1,0.1-0.1,0.1l-0.5-0.3
		c-0.1,0-0.1-0.2-0.1-0.2c0-0.1,0.1-0.1,0.1-0.1L35.6,20.9z M32.4,19.8c0.1,0,0.1,0.2,0.1,0.2c0,0.1-0.1,0.1-0.1,0.1l-0.8-0.5
		l-0.2-0.1c0,0,0,0,0,0L31,19.4c-0.1,0-0.1-0.2-0.1-0.2C30.9,19,31,19,31,19l0.4,0.2L32.4,19.8z M31,17.8c-0.1,0-0.1-0.2-0.1-0.2
		c0-0.1,0.1-0.1,0.1-0.1l1,0.6c0.1,0,0.1,0.2,0.1,0.2c0,0.1-0.1,0.1-0.1,0.1L31,17.8z M31,18.6c-0.1,0-0.1-0.2-0.1-0.2
		c0-0.1,0.1-0.1,0.1-0.1l1.9,1.1c0.1,0,0.1,0.2,0.1,0.2c0,0.1-0.1,0.1-0.1,0.1L31,18.6z M32.6,18.7c-0.1,0-0.1-0.2-0.1-0.2
		c0-0.1,0.1-0.1,0.1-0.1l0.4,0.2c0.1,0,0.1,0.2,0.1,0.2S33,19,33,18.9L32.6,18.7z M35.6,20.1c0.1,0,0.1,0.2,0.1,0.2
		c0,0.1-0.1,0.1-0.1,0.1l-2-1.1c-0.1,0-0.1-0.2-0.1-0.2c0-0.1,0.1-0.1,0.1-0.1L35.6,20.1z M39.3,22.3l1.3,0.8c0.1,0,0.1,0.2,0.1,0.2
		c0,0.1-0.1,0.1-0.1,0.1l-1.3-0.8c-0.1,0-0.1-0.2-0.1-0.2C39.2,22.2,39.3,22.2,39.3,22.3z M38.9,22.7l0.8,0.5c0.1,0,0.1,0.2,0.1,0.2
		c0,0.1-0.1,0.1-0.1,0.1l-0.8-0.5c-0.1,0-0.1-0.2-0.1-0.2C38.7,22.7,38.8,22.7,38.9,22.7z M37.4,21.4c-0.1,0-0.1-0.2-0.1-0.2
		c0-0.1,0.1-0.1,0.1-0.1l1.3,0.8c0.1,0,0.1,0.2,0.1,0.2c0,0.1-0.1,0.1-0.1,0.1L37.4,21.4z M37.4,22.2c-0.1,0-0.1-0.2-0.1-0.2
		c0-0.1,0.1-0.1,0.1-0.1l0.8,0.5c0.1,0,0.1,0.2,0.1,0.2c0,0.1-0.1,0.1-0.1,0.1L37.4,22.2z M40.2,24.3c0.1,0,0.1,0.2,0.1,0.2
		c0,0.1-0.1,0.1-0.1,0.1L37.4,23c-0.1,0-0.1-0.2-0.1-0.2c0-0.1,0.1-0.1,0.1-0.1L40.2,24.3z M41.9,24.8l-1.5-0.8
		c-0.1,0-0.1-0.2-0.1-0.2c0-0.1,0.1-0.1,0.1-0.1l1.5,0.8c0.1,0,0.1,0.2,0.1,0.2C42,24.8,41.9,24.8,41.9,24.8z M42,25.5
		c0,0.1-0.1,0.1-0.1,0.1l-1-0.6c-0.1,0-0.1-0.2-0.1-0.2c0-0.1,0.1-0.1,0.1-0.1l1,0.6C42,25.3,42,25.4,42,25.5z M41.4,23.8
		c-0.1,0-0.1-0.2-0.1-0.2c0-0.1,0.1-0.1,0.1-0.1l0.5,0.3c0.1,0,0.1,0.2,0.1,0.2c0,0.1-0.1,0.1-0.1,0.1L41.4,23.8z"/>
	<linearGradient id="SVGID_12_" gradientUnits="userSpaceOnUse" x1="24.153" y1="24.8159" x2="42.5719" y2="24.8159">
		<stop  offset="0" style="stop-color:#12C2E9"/>
		<stop  offset="0.2116" style="stop-color:#2C9AE6"/>
		<stop  offset="0.5871" style="stop-color:#5857E1"/>
		<stop  offset="0.8601" style="stop-color:#732EDD"/>
		<stop  offset="1" style="stop-color:#7D1EDC"/>
	</linearGradient>
	<path class="st15" d="M24.2,16.8l5.5,3.2v5.4l-5.5-3.2L24.2,16.8z M37,24.2v5.4l5.5,3.2l0-5.4L37,24.2z M30.6,25.9l5.5,3.2v-5.4
		l-5.5-3.2V25.9z"/>
</g>
</svg>
