<?xml version="1.0" encoding="utf-8"?>
<!-- Generator: Adobe Illustrator 23.0.3, SVG Export Plug-In . SVG Version: 6.00 Build 0)  -->
<svg version="1.1" id="layer_1" xmlns="http://www.w3.org/2000/svg" xmlns:xlink="http://www.w3.org/1999/xlink" x="0px" y="0px"
	 viewBox="0 0 50.5 48" style="enable-background:new 0 0 50.5 48;" xml:space="preserve">
<style type="text/css">
	.st0{fill:#6115D0;}
	.st1{fill:#271540;}
	.st2{fill:#FFFFFF;}
</style>
<g>
	<path class="st0" d="M36.1,12.7c0.4-0.6,0.6-1.4,0.6-2.1c0-2.4-1.9-4.3-4.3-4.3c-1.1,0-2.1,0.4-2.9,1.1c-0.5-3.8-3.8-6.8-7.7-6.8
		c-4.3,0-7.8,3.5-7.8,7.8c0,0.5,0.1,1,0.1,1.4c-0.4-0.1-0.9-0.1-1.3-0.1c-3.6,0-6.6,2.9-6.6,6.6c0,3.6,2.9,6.6,6.6,6.6
		c2.3,0,20.9,0,22.4,0c2.8,0,5.1-2.3,5.1-5.1C40.3,15.2,38.5,13.2,36.1,12.7z"/>
	<path class="st1" d="M35.1,23.4H12.7c-4,0-7.2-3.2-7.2-7.2c0-4.2,3.6-7.5,7.8-7.1c0-0.2,0-0.5,0-0.7c0-4.6,3.8-8.4,8.4-8.4
		c3.9,0,7.2,2.7,8.1,6.3c0.8-0.4,1.6-0.7,2.5-0.7c2.7,0,4.9,2.2,4.9,4.9c0,0.6-0.1,1.2-0.3,1.7c2.3,0.8,3.9,2.9,3.9,5.4
		C40.8,20.9,38.3,23.4,35.1,23.4z M12.7,10.3c-3.3,0-6,2.7-6,6s2.7,6,6,6h22.4c2.5,0,4.5-2,4.5-4.5c0-2.2-1.5-4-3.7-4.4
		c-0.2,0-0.3-0.2-0.4-0.3c-0.1-0.2-0.1-0.4,0-0.5c0.3-0.6,0.5-1.2,0.5-1.8c0-2.1-1.7-3.7-3.7-3.7c-0.9,0-1.8,0.3-2.5,1
		C29.7,8,29.5,8,29.2,7.9c-0.2-0.1-0.4-0.3-0.4-0.5c-0.5-3.6-3.5-6.3-7.1-6.3c-4,0-7.2,3.2-7.2,7.2c0,0.4,0,0.9,0.1,1.3
		c0,0.2,0,0.4-0.2,0.5c-0.1,0.1-0.3,0.2-0.5,0.2C13.5,10.3,13.1,10.3,12.7,10.3z"/>
	<path class="st2" d="M16.6,16.2c-0.3-0.6-0.5-1.3-0.5-2c0-2.3,1.9-4.2,4.2-4.2c1.1,0,2.1,0.4,2.8,1.1c0.5-3.7,3.6-6.5,7.4-6.5
		c4.1,0,7.5,3.4,7.5,7.5c0,0.5,0,0.9-0.1,1.4c0.4-0.1,0.9-0.1,1.3-0.1c3.5,0,6.3,2.8,6.3,6.3s-2.8,6.3-6.3,6.3c-2.2,0-20,0-21.5,0
		c-2.7,0-4.9-2.2-4.9-4.9C12.7,18.6,14.4,16.6,16.6,16.2z"/>
	<path class="st1" d="M39.1,26.5H17.6c-3,0-5.5-2.5-5.5-5.5c0-2.4,1.5-4.5,3.7-5.2c-0.2-0.5-0.3-1.1-0.3-1.6c0-2.6,2.1-4.8,4.8-4.8
		c0.8,0,1.7,0.2,2.4,0.6c0.9-3.5,4.1-6.1,7.8-6.1c4.5,0,8.1,3.6,8.1,8.1c0,0.2,0,0.4,0,0.7c4.1-0.4,7.5,2.9,7.5,6.9
		C46,23.4,42.9,26.5,39.1,26.5z M20.3,10.6c-2,0-3.6,1.6-3.6,3.6c0,0.6,0.2,1.2,0.5,1.8c0.1,0.2,0.1,0.4,0,0.5
		c-0.1,0.2-0.2,0.3-0.4,0.3c-2,0.4-3.5,2.2-3.5,4.2c0,2.4,1.9,4.3,4.3,4.3h21.5c3.1,0,5.7-2.6,5.7-5.7c0-3.2-2.6-5.7-5.7-5.7
		c-0.4,0-0.8,0-1.2,0.1c-0.2,0-0.4,0-0.5-0.2c-0.1-0.1-0.2-0.3-0.2-0.5c0.1-0.4,0.1-0.9,0.1-1.3c0-3.8-3.1-6.9-6.9-6.9
		c-3.4,0-6.4,2.6-6.8,6c0,0.2-0.2,0.4-0.4,0.5c-0.2,0.1-0.4,0-0.6-0.1C22,10.9,21.1,10.6,20.3,10.6z"/>
	<path class="st2" d="M8.7,47.9H5.4c-2.9,0-5.2-2.4-5.2-5.2v-3.4c0-2.9,2.4-5.2,5.2-5.2h3.4c2.9,0,5.2,2.4,5.2,5.2v3.4
		C14,45.5,11.6,47.9,8.7,47.9z"/>
	<path class="st1" d="M9.8,48H4.3C1.9,48,0,46.1,0,43.7v-5.5c0-2.4,1.9-4.3,4.3-4.3h5.5c2.4,0,4.3,1.9,4.3,4.3v5.5
		C14.1,46.1,12.2,48,9.8,48z M4.3,35.1c-1.7,0-3.1,1.4-3.1,3.1v5.5c0,1.7,1.4,3.1,3.1,3.1h5.5c1.7,0,3.1-1.4,3.1-3.1v-5.5
		c0-1.7-1.4-3.1-3.1-3.1H4.3z"/>
	<path class="st2" d="M26.9,47.9h-3.3c-2.9,0-5.2-2.4-5.2-5.2v-3.3c0-2.9,2.4-5.2,5.2-5.2h3.3c2.9,0,5.2,2.4,5.2,5.2v3.3
		C32.2,45.5,29.8,47.9,26.9,47.9z"/>
	<path class="st1" d="M28,48h-5.5c-2.4,0-4.3-1.9-4.3-4.3v-5.5c0-2.4,1.9-4.3,4.3-4.3H28c2.4,0,4.3,1.9,4.3,4.3v5.5
		C32.3,46.1,30.4,48,28,48z M22.5,35.1c-1.7,0-3.1,1.4-3.1,3.1v5.5c0,1.7,1.4,3.1,3.1,3.1H28c1.7,0,3.1-1.4,3.1-3.1v-5.5
		c0-1.7-1.4-3.1-3.1-3.1H22.5z"/>
	<path class="st2" d="M45.2,47.9h-3.4c-2.9,0-5.2-2.4-5.2-5.2v-3.4c0-2.9,2.4-5.2,5.2-5.2h3.4c2.9,0,5.2,2.4,5.2,5.2v3.4
		C50.4,45.5,48.1,47.9,45.2,47.9z"/>
	<path class="st1" d="M46.2,48h-5.5c-2.4,0-4.3-1.9-4.3-4.3v-5.5c0-2.4,1.9-4.3,4.3-4.3h5.5c2.4,0,4.3,1.9,4.3,4.3v5.5
		C50.5,46.1,48.6,48,46.2,48z M40.7,35.1c-1.7,0-3.1,1.4-3.1,3.1v5.5c0,1.7,1.4,3.1,3.1,3.1h5.5c1.7,0,3.1-1.4,3.1-3.1v-5.5
		c0-1.7-1.4-3.1-3.1-3.1H40.7z"/>
	<path class="st1" d="M25.3,41.5c-0.3,0-0.6-0.3-0.6-0.6V25.9c0-0.3,0.3-0.6,0.6-0.6c0.3,0,0.6,0.3,0.6,0.6V41
		C25.9,41.3,25.6,41.5,25.3,41.5z"/>
	<path class="st1" d="M7,41.7c-0.3,0-0.6-0.3-0.6-0.6V29.3c0-0.3,0.3-0.6,0.6-0.6h6.2v-4.5c0-0.3,0.3-0.6,0.6-0.6
		c0.3,0,0.6,0.3,0.6,0.6v5.1c0,0.3-0.3,0.6-0.6,0.6H7.6v11.2C7.6,41.4,7.4,41.7,7,41.7z"/>
	<path class="st1" d="M43.5,41.5c-0.3,0-0.6-0.3-0.6-0.6V29.9H37c-0.3,0-0.6-0.3-0.6-0.6v-3.4c0-0.3,0.3-0.6,0.6-0.6
		c0.3,0,0.6,0.3,0.6,0.6v2.8h5.9c0.3,0,0.6,0.3,0.6,0.6V41C44.1,41.3,43.8,41.5,43.5,41.5z"/>
</g>
</svg>
