<?xml version="1.0" encoding="utf-8"?>
<!-- Generator: Adobe Illustrator 23.0.3, SVG Export Plug-In . SVG Version: 6.00 Build 0)  -->
<svg version="1.1" id="Layer_2" xmlns="http://www.w3.org/2000/svg" xmlns:xlink="http://www.w3.org/1999/xlink" x="0px" y="0px"
	 viewBox="0 0 50 55" style="enable-background:new 0 0 50 55;" xml:space="preserve">
<style type="text/css">
	.st0{fill:url(#SVGID_1_);}
	.st1{fill:url(#SVGID_2_);}
	.st2{fill:url(#SVGID_3_);}
	.st3{fill:url(#SVGID_4_);}
	.st4{fill:url(#SVGID_5_);}
	.st5{fill:url(#SVGID_6_);}
	.st6{fill:#FFFFFF;}
	.st7{enable-background:new    ;}
</style>
<g>
	
		<linearGradient id="SVGID_1_" gradientUnits="userSpaceOnUse" x1="-3801.7563" y1="37.9233" x2="-3787.8647" y2="37.9233" gradientTransform="matrix(-1 0 0 1 -3771.438 0)">
		<stop  offset="0" style="stop-color:#12C2E9"/>
		<stop  offset="1" style="stop-color:#7D1EDC"/>
	</linearGradient>
	<path class="st0" d="M0,35.2c0-0.5,0.4-1,1-1.4l22.7-12.4c1.4-0.8,3.6-0.8,5,0L49,32.5c0.7,0.4,1,0.9,1,1.4c0,0.5,0,6.2,0,6.7
		c0,0.5-0.3,1-1,1.4L26.3,54.4c-1.4,0.8-3.6,0.8-5,0L1,43.3c-0.7-0.4-1-0.9-1-1.3C0,41.5,0,35.7,0,35.2z"/>
	
		<linearGradient id="SVGID_2_" gradientUnits="userSpaceOnUse" x1="-3819.7837" y1="33.3238" x2="-3773.0981" y2="33.3238" gradientTransform="matrix(-1 0 0 1 -3771.438 0)">
		<stop  offset="0" style="stop-color:#C9F9FF"/>
		<stop  offset="0.1376" style="stop-color:#C3F8FF"/>
		<stop  offset="0.3299" style="stop-color:#B0F4FF"/>
		<stop  offset="0.5546" style="stop-color:#93EEFF"/>
		<stop  offset="0.8017" style="stop-color:#69E5FF"/>
		<stop  offset="1" style="stop-color:#43DDFF"/>
	</linearGradient>
	<path class="st1" d="M1.7,32.7c0-0.1,0-0.2,0.1-0.2l22.7-12.4c0.5-0.2,1.1-0.4,1.8-0.4c0.7,0,1.3,0.1,1.8,0.4l20.2,11.1
		c0.1,0,0.1,0.1,0.1,0.2c0,0.1,0,2.4,0,2.4c0,0.1,0,0.2-0.1,0.2L25.6,46.5c-0.5,0.2-1.1,0.4-1.8,0.4c-0.7,0-1.3-0.1-1.8-0.4
		L1.8,35.4c-0.1,0-0.1-0.1-0.1-0.2C1.7,35.1,1.7,32.8,1.7,32.7z"/>
	
		<linearGradient id="SVGID_3_" gradientUnits="userSpaceOnUse" x1="-3801.7563" y1="27.5001" x2="-3787.8647" y2="27.5001" gradientTransform="matrix(-1 0 0 1 -3771.438 0)">
		<stop  offset="0" style="stop-color:#12C2E9"/>
		<stop  offset="1" style="stop-color:#7D1EDC"/>
	</linearGradient>
	<path class="st2" d="M0,24.8c0-0.5,0.4-1,1-1.4L23.7,11c1.4-0.8,3.6-0.8,5,0L49,22.1c0.7,0.4,1,0.9,1,1.4c0,0.5,0,6.2,0,6.7
		c0,0.5-0.3,1-1,1.4L26.3,44c-1.4,0.8-3.6,0.8-5,0L1,32.9c-0.7-0.4-1-0.9-1-1.3C0,31,0,25.3,0,24.8z"/>
	
		<linearGradient id="SVGID_4_" gradientUnits="userSpaceOnUse" x1="-3819.7837" y1="22.9003" x2="-3773.0981" y2="22.9003" gradientTransform="matrix(-1 0 0 1 -3771.438 0)">
		<stop  offset="0" style="stop-color:#C9F9FF"/>
		<stop  offset="0.1376" style="stop-color:#C3F8FF"/>
		<stop  offset="0.3299" style="stop-color:#B0F4FF"/>
		<stop  offset="0.5546" style="stop-color:#93EEFF"/>
		<stop  offset="0.8017" style="stop-color:#69E5FF"/>
		<stop  offset="1" style="stop-color:#43DDFF"/>
	</linearGradient>
	<path class="st3" d="M1.7,22.3c0-0.1,0-0.2,0.1-0.2L24.4,9.7c0.5-0.2,1.1-0.4,1.8-0.4c0.7,0,1.3,0.1,1.8,0.4l20.2,11.1
		c0.1,0,0.1,0.1,0.1,0.2c0,0.1,0,2.4,0,2.4c0,0.1,0,0.2-0.1,0.2L25.6,36.1c-0.5,0.2-1.1,0.4-1.8,0.4c-0.7,0-1.3-0.1-1.8-0.4L1.8,25
		c-0.1,0-0.1-0.1-0.1-0.2C1.7,24.7,1.7,22.4,1.7,22.3z"/>
	
		<linearGradient id="SVGID_5_" gradientUnits="userSpaceOnUse" x1="-3804.009" y1="17.0765" x2="-3787.1045" y2="17.0765" gradientTransform="matrix(-1 0 0 1 -3771.438 0)">
		<stop  offset="0" style="stop-color:#12C2E9"/>
		<stop  offset="1" style="stop-color:#7D1EDC"/>
	</linearGradient>
	<path class="st4" d="M0,14.3c0-0.5,0.4-1,1-1.4L23.7,0.6c1.4-0.8,3.6-0.8,5,0L49,11.7c0.7,0.4,1,0.9,1,1.4c0,0.5,0,6.2,0,6.7
		c0,0.5-0.3,1-1,1.4L26.3,33.6c-1.4,0.8-3.6,0.8-5,0L1,22.5c-0.7-0.4-1-0.9-1-1.3C0,20.6,0,14.8,0,14.3z"/>
	<linearGradient id="SVGID_6_" gradientUnits="userSpaceOnUse" x1="-6.4001" y1="13.3833" x2="54.4681" y2="13.3833">
		<stop  offset="0" style="stop-color:#C9F9FF"/>
		<stop  offset="0.1376" style="stop-color:#C3F8FF"/>
		<stop  offset="0.3299" style="stop-color:#B0F4FF"/>
		<stop  offset="0.5546" style="stop-color:#93EEFF"/>
		<stop  offset="0.8017" style="stop-color:#69E5FF"/>
		<stop  offset="1" style="stop-color:#43DDFF"/>
	</linearGradient>
	<path class="st5" d="M48.2,12.9L25.6,25.3c-0.5,0.2-1.1,0.4-1.8,0.4c-0.7,0-1.3-0.1-1.8-0.4L1.8,14.2c-0.1-0.1-0.1-0.3,0-0.4
		L24.4,1.4C24.9,1.2,25.5,1,26.2,1c0.7,0,1.3,0.1,1.8,0.4l20.2,11.1C48.4,12.6,48.4,12.9,48.2,12.9z"/>
	<g>
		<g>
			<path class="st6" d="M39.6,40.6c-0.1,0-0.1,0.1-0.1,0.2v1.1c0,0.1,0.1,0.1,0.1,0.1l1.1-0.6c0.1,0,0.1-0.1,0.1-0.2V40
				c0-0.1-0.1-0.1-0.1-0.1L39.6,40.6z"/>
		</g>
		<g>
			<path class="st6" d="M39.6,42.6c-0.1,0-0.1,0.1-0.1,0.2v1.1c0,0.1,0.1,0.1,0.1,0.1l1.1-0.6c0.1,0,0.1-0.1,0.1-0.2V42
				c0-0.1-0.1-0.1-0.1-0.1L39.6,42.6z"/>
		</g>
		<g>
			<path class="st6" d="M37.6,41.8c-0.1,0-0.1,0.1-0.1,0.2V43c0,0.1,0.1,0.1,0.1,0.1l1.2-0.6c0.1,0,0.1-0.1,0.1-0.2v-1.1
				c0-0.1-0.1-0.1-0.1-0.1L37.6,41.8z"/>
		</g>
		<g>
			<path class="st6" d="M37.6,43.8c-0.1,0-0.1,0.1-0.1,0.2V45c0,0.1,0.1,0.1,0.1,0.1l1.2-0.6c0.1,0,0.1-0.1,0.1-0.2v-1.1
				c0-0.1-0.1-0.1-0.1-0.1L37.6,43.8z"/>
		</g>
		<g>
			<path class="st6" d="M35.6,42.9c-0.1,0-0.1,0.1-0.1,0.2v1.1c0,0.1,0.1,0.1,0.1,0.1l1.2-0.6c0.1,0,0.1-0.1,0.1-0.2v-1.1
				c0-0.1-0.1-0.1-0.1-0.1L35.6,42.9z"/>
		</g>
		<g>
			<path class="st6" d="M35.6,44.9c-0.1,0-0.1,0.1-0.1,0.2v1.1c0,0.1,0.1,0.1,0.1,0.1l1.2-0.6c0.1,0,0.1-0.1,0.1-0.2v-1.1
				c0-0.1-0.1-0.1-0.1-0.1L35.6,44.9z"/>
		</g>
		<g>
			<path class="st6" d="M33.6,44c-0.1,0-0.1,0.1-0.1,0.2v1.1c0,0.1,0.1,0.1,0.1,0.1l1.2-0.6c0.1,0,0.1-0.1,0.1-0.2v-1.1
				c0-0.1-0.1-0.1-0.1-0.1L33.6,44z"/>
		</g>
		<g>
			<path class="st6" d="M33.6,46c-0.1,0-0.1,0.1-0.1,0.2v1.1c0,0.1,0.1,0.1,0.1,0.1l1.2-0.6c0.1,0,0.1-0.1,0.1-0.2v-1.1
				c0-0.1-0.1-0.1-0.1-0.1L33.6,46z"/>
		</g>
		<g>
			<path class="st6" d="M31.5,45.3c-0.1,0-0.1,0.1-0.1,0.2v1.1c0,0.1,0.1,0.1,0.1,0.1l1.2-0.6c0.1,0,0.1-0.1,0.1-0.2v-1.1
				c0-0.1-0.1-0.1-0.1-0.1L31.5,45.3z"/>
		</g>
		<g>
			<path class="st6" d="M31.5,47.3c-0.1,0-0.1,0.1-0.1,0.2v1.1c0,0.1,0.1,0.1,0.1,0.1l1.2-0.6c0.1,0,0.1-0.1,0.1-0.2v-1.1
				c0-0.1-0.1-0.1-0.1-0.1L31.5,47.3z"/>
		</g>
		<g>
			<path class="st6" d="M29.5,46.4c-0.1,0-0.1,0.1-0.1,0.2v1.1c0,0.1,0.1,0.1,0.1,0.1l1.2-0.6c0.1,0,0.1-0.1,0.1-0.2v-1.1
				c0-0.1-0.1-0.1-0.1-0.1L29.5,46.4z"/>
		</g>
		<g>
			<path class="st6" d="M29.5,48.4c-0.1,0-0.1,0.1-0.1,0.2v1.1c0,0.1,0.1,0.1,0.1,0.1l1.2-0.6c0.1,0,0.1-0.1,0.1-0.2v-1.1
				c0-0.1-0.1-0.1-0.1-0.1L29.5,48.4z"/>
		</g>
	</g>
	<g>
		<g>
			<path class="st6" d="M39.6,20.8c-0.1,0-0.1,0.1-0.1,0.2v1.1c0,0.1,0.1,0.1,0.1,0.1l1.1-0.6c0.1,0,0.1-0.1,0.1-0.2v-1.1
				c0-0.1-0.1-0.1-0.1-0.1L39.6,20.8z"/>
		</g>
		<g>
			<path class="st6" d="M39.6,22.8c-0.1,0-0.1,0.1-0.1,0.2v1.1c0,0.1,0.1,0.1,0.1,0.1l1.1-0.6c0.1,0,0.1-0.1,0.1-0.2v-1.1
				c0-0.1-0.1-0.1-0.1-0.1L39.6,22.8z"/>
		</g>
		<g>
			<path class="st6" d="M37.6,21.9c-0.1,0-0.1,0.1-0.1,0.2v1.1c0,0.1,0.1,0.1,0.1,0.1l1.2-0.6c0.1,0,0.1-0.1,0.1-0.2v-1.1
				c0-0.1-0.1-0.1-0.1-0.1L37.6,21.9z"/>
		</g>
		<g>
			<path class="st6" d="M37.6,23.9c-0.1,0-0.1,0.1-0.1,0.2v1.1c0,0.1,0.1,0.1,0.1,0.1l1.2-0.6c0.1,0,0.1-0.1,0.1-0.2v-1.1
				c0-0.1-0.1-0.1-0.1-0.1L37.6,23.9z"/>
		</g>
		<g>
			<path class="st6" d="M35.6,23.1c-0.1,0-0.1,0.1-0.1,0.2v1.1c0,0.1,0.1,0.1,0.1,0.1l1.2-0.6c0.1,0,0.1-0.1,0.1-0.2v-1.1
				c0-0.1-0.1-0.1-0.1-0.1L35.6,23.1z"/>
		</g>
		<g>
			<path class="st6" d="M35.6,25.1c-0.1,0-0.1,0.1-0.1,0.2v1.1c0,0.1,0.1,0.1,0.1,0.1l1.2-0.6c0.1,0,0.1-0.1,0.1-0.2v-1.1
				c0-0.1-0.1-0.1-0.1-0.1L35.6,25.1z"/>
		</g>
		<g>
			<path class="st6" d="M33.6,24.2c-0.1,0-0.1,0.1-0.1,0.2v1.1c0,0.1,0.1,0.1,0.1,0.1l1.2-0.6c0.1,0,0.1-0.1,0.1-0.2v-1.1
				c0-0.1-0.1-0.1-0.1-0.1L33.6,24.2z"/>
		</g>
		<g>
			<path class="st6" d="M33.6,26.2c-0.1,0-0.1,0.1-0.1,0.2v1.1c0,0.1,0.1,0.1,0.1,0.1l1.2-0.6c0.1,0,0.1-0.1,0.1-0.2v-1.1
				c0-0.1-0.1-0.1-0.1-0.1L33.6,26.2z"/>
		</g>
		<g>
			<path class="st6" d="M31.5,25.4c-0.1,0-0.1,0.1-0.1,0.2v1.1c0,0.1,0.1,0.1,0.1,0.1l1.2-0.6c0.1,0,0.1-0.1,0.1-0.2v-1.1
				c0-0.1-0.1-0.1-0.1-0.1L31.5,25.4z"/>
		</g>
		<g>
			<path class="st6" d="M31.5,27.4c-0.1,0-0.1,0.1-0.1,0.2v1.1c0,0.1,0.1,0.1,0.1,0.1l1.2-0.6c0.1,0,0.1-0.1,0.1-0.2v-1.1
				c0-0.1-0.1-0.1-0.1-0.1L31.5,27.4z"/>
		</g>
		<g>
			<path class="st6" d="M29.5,26.6c-0.1,0-0.1,0.1-0.1,0.2v1.1c0,0.1,0.1,0.1,0.1,0.1l1.2-0.6c0.1,0,0.1-0.1,0.1-0.2V26
				c0-0.1-0.1-0.1-0.1-0.1L29.5,26.6z"/>
		</g>
		<g>
			<path class="st6" d="M29.5,28.6c-0.1,0-0.1,0.1-0.1,0.2v1.1c0,0.1,0.1,0.1,0.1,0.1l1.2-0.6c0.1,0,0.1-0.1,0.1-0.2V28
				c0-0.1-0.1-0.1-0.1-0.1L29.5,28.6z"/>
		</g>
	</g>
	<g>
		<path class="st6" d="M43.3,17.6c-0.2,0.1-0.4,0.4-0.4,0.6v4.5c0,0.2,0.2,0.3,0.4,0.2c0.2-0.1,0.4-0.4,0.4-0.6v-4.5
			C43.7,17.5,43.5,17.4,43.3,17.6z"/>
		<path class="st6" d="M44.7,16.7c-0.2,0.1-0.4,0.4-0.4,0.6v4.5c0,0.2,0.2,0.3,0.4,0.2c0.2-0.1,0.4-0.4,0.4-0.6V17
			C45.1,16.7,45,16.6,44.7,16.7z"/>
		<path class="st6" d="M46.2,15.9c-0.2,0.1-0.4,0.4-0.4,0.6V21c0,0.2,0.2,0.3,0.4,0.2c0.2-0.1,0.4-0.4,0.4-0.6v-4.5
			C46.6,15.9,46.4,15.8,46.2,15.9z"/>
		<path class="st6" d="M47.7,15.1c-0.2,0.1-0.4,0.4-0.4,0.6v4.5c0,0.2,0.2,0.3,0.4,0.2c0.2-0.1,0.4-0.4,0.4-0.6v-4.5
			C48.1,15.1,47.9,15,47.7,15.1z"/>
	</g>
	<g>
		<path class="st6" d="M43.3,38.2c-0.2,0.1-0.4,0.4-0.4,0.6v4.5c0,0.2,0.2,0.3,0.4,0.2c0.2-0.1,0.4-0.4,0.4-0.6v-4.5
			C43.7,38.2,43.5,38.1,43.3,38.2z"/>
		<path class="st6" d="M44.7,37.4c-0.2,0.1-0.4,0.4-0.4,0.6v4.5c0,0.2,0.2,0.3,0.4,0.2c0.2-0.1,0.4-0.4,0.4-0.6v-4.5
			C45.1,37.4,45,37.3,44.7,37.4z"/>
		<path class="st6" d="M46.2,36.6c-0.2,0.1-0.4,0.4-0.4,0.6v4.5c0,0.2,0.2,0.3,0.4,0.2c0.2-0.1,0.4-0.4,0.4-0.6v-4.5
			C46.6,36.6,46.4,36.5,46.2,36.6z"/>
		<path class="st6" d="M47.7,35.8c-0.2,0.1-0.4,0.4-0.4,0.6v4.5c0,0.2,0.2,0.3,0.4,0.2c0.2-0.1,0.4-0.4,0.4-0.6V36
			C48.1,35.7,47.9,35.7,47.7,35.8z"/>
	</g>
	<g>
		<g>
			<g>
				<g class="st7">
					<g>
						<path class="st6" d="M40.6,31.1c0.2-0.1,0.3-0.3,0.3-0.5C40.9,30.8,40.8,31.1,40.6,31.1z"/>
					</g>
					<g>
						<path class="st6" d="M39.2,31.3c-0.2,0.1-0.3,0.3-0.3,0.5c0,0.2,0.1,0.2,0.3,0.2l1.4-0.8c0.2-0.1,0.3-0.3,0.3-0.5
							c0-0.2-0.1-0.2-0.3-0.2L39.2,31.3z"/>
					</g>
				</g>
			</g>
			<g>
				<g class="st7">
					<g>
						<path class="st6" d="M40.6,32.5c0.2-0.1,0.3-0.3,0.3-0.5C40.9,32.2,40.8,32.4,40.6,32.5z"/>
					</g>
					<g>
						<path class="st6" d="M40.3,32.1c-0.2,0.1-0.3,0.3-0.3,0.5c0,0.2,0.1,0.2,0.3,0.2l0.4-0.2c0.2-0.1,0.3-0.3,0.3-0.5
							c0-0.2-0.1-0.2-0.3-0.2L40.3,32.1z"/>
					</g>
				</g>
			</g>
			<g>
				<path class="st6" d="M38.6,34.3c-0.2,0.1-0.3,0.3-0.3,0.5c0,0.2,0.1,0.2,0.3,0.2l2.1-1.1c0.2-0.1,0.3-0.3,0.3-0.5
					c0-0.2-0.1-0.2-0.3-0.2L38.6,34.3z"/>
			</g>
			<g>
				<path class="st6" d="M36.9,33.9c-0.2,0.1-0.3,0.3-0.3,0.5c0,0.2,0.1,0.2,0.3,0.2l2.4-1.3c0.2-0.1,0.3-0.3,0.3-0.5
					c0-0.2-0.1-0.2-0.3-0.2L36.9,33.9z"/>
			</g>
			<g>
				<path class="st6" d="M37.2,35.1c-0.2,0.1-0.3,0.3-0.3,0.5c0,0.2,0.1,0.2,0.3,0.2l0.3-0.2c0.2-0.1,0.3-0.3,0.3-0.5
					c0-0.2-0.1-0.2-0.3-0.2L37.2,35.1z"/>
			</g>
			<g>
				<g class="st7">
					<g>
						<path class="st6" d="M37.7,32.1c-0.2,0.1-0.3,0.3-0.3,0.5c0,0.2,0.1,0.2,0.3,0.2l0.4-0.2c0.2-0.1,0.3-0.3,0.3-0.5
							c0-0.2-0.1-0.2-0.3-0.2L37.7,32.1z"/>
					</g>
					<g>
						<g class="st7">
							<g>
								<path class="st6" d="M35.8,33.2c-0.2,0.1-0.3,0.3-0.3,0.5c0,0.2,0.1,0.2,0.3,0.2l0.9-0.5c0.2-0.1,0.3-0.3,0.3-0.5
									c0-0.2-0.1-0.2-0.3-0.2L35.8,33.2z"/>
							</g>
						</g>
					</g>
				</g>
			</g>
		</g>
		<g>
			<g>
				<g class="st7">
					<g>
						<path class="st6" d="M34.5,34.5c0.2-0.1,0.3-0.3,0.3-0.5C34.8,34.2,34.7,34.4,34.5,34.5z"/>
					</g>
					<g>
						<path class="st6" d="M33.1,34.7c-0.2,0.1-0.3,0.3-0.3,0.5c0,0.2,0.1,0.2,0.3,0.2l1.4-0.8c0.2-0.1,0.3-0.3,0.3-0.5
							c0-0.2-0.1-0.2-0.3-0.2L33.1,34.7z"/>
					</g>
				</g>
			</g>
			<g>
				<g class="st7">
					<g>
						<path class="st6" d="M34.5,35.9c0.2-0.1,0.3-0.3,0.3-0.5C34.8,35.6,34.7,35.8,34.5,35.9z"/>
					</g>
					<g>
						<path class="st6" d="M34.2,35.5c-0.2,0.1-0.3,0.3-0.3,0.5c0,0.2,0.1,0.2,0.3,0.2l1.6-0.9c0.2-0.1,0.3-0.3,0.3-0.5
							c0-0.2-0.1-0.2-0.3-0.2L34.2,35.5z"/>
					</g>
				</g>
			</g>
			<path class="st6" d="M32.5,37.7l2.1-1.1l1.6-0.9c0.2-0.1,0.3,0,0.3,0.2c0,0.2-0.1,0.4-0.3,0.5l-1.6,0.9l-2.1,1.1
				c-0.2,0.1-0.3,0-0.3-0.2C32.2,38,32.3,37.8,32.5,37.7z"/>
			<g>
				<path class="st6" d="M29.7,37.9c-0.2,0.1-0.3,0.3-0.3,0.5c0,0.2,0.1,0.2,0.3,0.2l3.5-1.9c0.2-0.1,0.3-0.3,0.3-0.5
					c0-0.2-0.1-0.2-0.3-0.2L29.7,37.9z"/>
			</g>
			<g>
				<path class="st6" d="M29.7,39.3c-0.2,0.1-0.3,0.3-0.3,0.5c0,0.2,0.1,0.2,0.3,0.2l0.3-0.2c0.2-0.1,0.3-0.3,0.3-0.5
					c0-0.2-0.1-0.2-0.3-0.2L29.7,39.3z"/>
			</g>
			<g>
				<path class="st6" d="M31.1,38.5c-0.2,0.1-0.3,0.3-0.3,0.5c0,0.2,0.1,0.2,0.3,0.2l0.3-0.2c0.2-0.1,0.3-0.3,0.3-0.5
					c0-0.2-0.1-0.2-0.3-0.2L31.1,38.5z"/>
			</g>
			<g>
				<g class="st7">
					<g>
						<path class="st6" d="M31.6,35.5c-0.2,0.1-0.3,0.3-0.3,0.5c0,0.2,0.1,0.2,0.3,0.2l0.4-0.2c0.2-0.1,0.3-0.3,0.3-0.5
							c0-0.2-0.1-0.2-0.3-0.2L31.6,35.5z"/>
					</g>
					<g>
						<g class="st7">
							<g>
								<path class="st6" d="M29.7,36.6c-0.2,0.1-0.3,0.3-0.3,0.5c0,0.2,0.1,0.2,0.3,0.2l0.9-0.5c0.2-0.1,0.3-0.3,0.3-0.5
									c0-0.2-0.1-0.2-0.3-0.2L29.7,36.6z"/>
							</g>
						</g>
					</g>
				</g>
			</g>
		</g>
	</g>
</g>
</svg>
