<?xml version="1.0" encoding="utf-8"?>
<!-- Generator: Adobe Illustrator 23.0.3, SVG Export Plug-In . SVG Version: 6.00 Build 0)  -->
<svg version="1.1" id="Layer_2" xmlns="http://www.w3.org/2000/svg" xmlns:xlink="http://www.w3.org/1999/xlink" x="0px" y="0px"
	 viewBox="0 0 50 50" style="enable-background:new 0 0 50 50;" xml:space="preserve">
<style type="text/css">
	.st0{fill:url(#SVGID_1_);}
	.st1{fill:url(#SVGID_2_);}
	.st2{fill:url(#SVGID_3_);}
	.st3{fill:url(#SVGID_4_);}
	.st4{fill:url(#SVGID_5_);}
</style>
<g>
	<linearGradient id="SVGID_1_" gradientUnits="userSpaceOnUse" x1="0" y1="24.9992" x2="50" y2="24.9992">
		<stop  offset="0" style="stop-color:#C9F9FF"/>
		<stop  offset="0.1376" style="stop-color:#C3F8FF"/>
		<stop  offset="0.3299" style="stop-color:#B0F4FF"/>
		<stop  offset="0.5546" style="stop-color:#93EEFF"/>
		<stop  offset="0.8017" style="stop-color:#69E5FF"/>
		<stop  offset="1" style="stop-color:#43DDFF"/>
	</linearGradient>
	<path class="st0" d="M50,25c0,13.8-11.2,25-25,25C11.2,50,0,38.8,0,25C0,11.2,11.2,0,25,0C38.8,0,50,11.2,50,25z"/>
	<linearGradient id="SVGID_2_" gradientUnits="userSpaceOnUse" x1="0" y1="22.7513" x2="14.8775" y2="22.7513">
		<stop  offset="0" style="stop-color:#12C2E9"/>
		<stop  offset="1" style="stop-color:#7D1EDC"/>
	</linearGradient>
	<path class="st1" d="M12,43.2c0.4-0.1,0.8-0.2,1-0.4c1.2-1,0.3-2.7-0.4-3.1c-0.5-0.3-0.9-0.3-1.4,0.2C9.5,41.5,8.3,39,7.8,37
		l-0.5-4.1c-1.6-1.8-4.2-4.7-3-5.8c1.2-1.1,0.5-2.5-0.6-4c-1.1-1.5,0.1-8.1,2.5-9c2.2-0.8,4.6-3.4,5.3-5c0.2-0.4,0.2-0.5,0-1.4
		c-0.1-0.6-1.7-0.3-2.2-1.3C8.4,4.4,11.2,6.8,13.7,6c0.8-0.3,0.6-0.4,0.6-1.1c0-0.6-1.7-0.5-0.6-1.3c1.1-0.7,1.4-1.3,1.1-1.5
		C6.1,6.1,0,14.8,0,25c0,6.6,2.6,12.6,6.8,17.1C8.7,43.1,10.7,43.5,12,43.2z"/>
	<radialGradient id="SVGID_3_" cx="10.9355" cy="14.0425" r="46.643" gradientUnits="userSpaceOnUse">
		<stop  offset="0" style="stop-color:#12C2E9"/>
		<stop  offset="1" style="stop-color:#7D1EDC"/>
	</radialGradient>
	<path class="st2" d="M39.3,39.1c0,0-0.5,3.6-2,4.3c-1.5,0.7-1.8-0.1-0.6-2.2C37.9,39.1,40.1,34.5,39.3,39.1z"/>
	<radialGradient id="SVGID_4_" cx="10.9347" cy="14.0452" r="46.6442" gradientUnits="userSpaceOnUse">
		<stop  offset="0" style="stop-color:#12C2E9"/>
		<stop  offset="1" style="stop-color:#7D1EDC"/>
	</radialGradient>
	<path class="st3" d="M14.2,9.6c0,0,0.5,2.1,2,0.8c1.5-1.3,1.2-0.5,3.1-2c1.9-1.5,2-3.3-0.5-2.7C16.3,6.3,15.1,6.2,14.2,9.6z"/>
	<linearGradient id="SVGID_5_" gradientUnits="userSpaceOnUse" x1="17.2768" y1="22.9034" x2="52.9669" y2="22.9034">
		<stop  offset="0" style="stop-color:#7D1EDC"/>
		<stop  offset="1" style="stop-color:#12C2E9"/>
	</linearGradient>
	<path class="st4" d="M44.3,20c2,3.1,2.3,4.4,3.8,2.4c0.6-0.8,1.1-1.7,1.4-2.5c-1.6-7.9-7-14.5-14.2-17.7c0,0.4,0.3,0.9,0.3,1.5
		c0,0-4.3-2-4.6-0.6c-0.3,1.4,0.2,1.4-3.1,2c-3.3,0.6-6.1,1.6-5,2.7c1.1,1.1,0.3,1.6-1.3,3.1c-1.6,1.5-2.9,0.8-3.4,2.7
		c-0.5,1.9,3.2,2.3,2.5,3c-0.7,0.7-4.5,3.2-4.6,3.5c-0.1,0.3-3,3-2.2,4.9c0.8,1.9,3,2.8,4.3,4.5c1.3,1.7,3.6,0.5,6.1,0.2
		c2.5-0.3,1.5,1.9,1.2,4.2c-0.3,2.3-0.6,3.1,0.2,4.7c0.8,1.6-0.8,3.9,0.5,4.7c1.3,0.8,6.8-0.7,7.9-3.5c1.1-2.8,0.1-6.6,2.8-9
		c2.7-2.4,4.1-4.3,2-5.1c-2.1-0.8-8.4-7.6-6.2-6.5c2.2,1.1,5.4,5.8,6.9,3.8c1.5-2-1.7-2.1-1.9-4.9C37.6,15.3,42.3,16.9,44.3,20z"/>
</g>
</svg>
