<?xml version="1.0" encoding="utf-8"?>
<!-- Generator: Adobe Illustrator 23.0.3, SVG Export Plug-In . SVG Version: 6.00 Build 0)  -->
<svg version="1.1" id="layer_1" xmlns="http://www.w3.org/2000/svg" xmlns:xlink="http://www.w3.org/1999/xlink" x="0px" y="0px"
	 viewBox="0 0 57.4 46" style="enable-background:new 0 0 57.4 46;" xml:space="preserve">
<style type="text/css">
	.st0{fill:#0DACE0;}
	.st1{fill:#271540;}
</style>
<g>
	<g>
		<path class="st0" d="M5,43.7H3.8c-1.7,0-3.1-1.4-3.1-3.1V28.1c0-1.7,1.4-3.1,3.1-3.1H5c1.7,0,3.1,1.4,3.1,3.1v12.5
			C8.2,42.3,6.7,43.7,5,43.7z"/>
		<path class="st0" d="M56,31.5c-1.3-1.2-6.4,1.4-17.3,5c1.5-0.6,2-1.4,2.1-2.3c0.2-3.8-3-3.6-3-3.6c-16.7,0.3-4-3.8-26.7-3.8v14.8
			c0,0,17.4,11.8,44-6.2C55.1,35.4,58,33.4,56,31.5z"/>
		<ellipse transform="matrix(0.973 -0.2308 0.2308 0.973 -2.7699 5.5715)" class="st0" cx="22.4" cy="14.6" rx="6.3" ry="6.3"/>
		<circle class="st0" cx="44.5" cy="17.8" r="6.3"/>
		<ellipse transform="matrix(0.987 -0.1607 0.1607 0.987 -1.7 5.5846)" class="st0" cx="33.7" cy="13.3" rx="6.3" ry="6.3"/>
	</g>
	<g>
		<path class="st1" d="M5,44.3H3.8c-2.1,0-3.8-1.7-3.8-3.8V28.1c0-2.1,1.7-3.8,3.8-3.8H5c2.1,0,3.8,1.7,3.8,3.8v12.5
			C8.8,42.6,7.1,44.3,5,44.3z M3.8,25.6c-1.4,0-2.5,1.1-2.5,2.5v12.5c0,1.4,1.1,2.5,2.5,2.5H5c1.4,0,2.5-1.1,2.5-2.5V28.1
			c0-1.4-1.1-2.5-2.5-2.5H3.8z"/>
		<path class="st1" d="M4.4,29.3c-0.2,0-0.3-0.1-0.5-0.2c-0.1-0.1-0.2-0.3-0.2-0.5c0-0.2,0.1-0.3,0.2-0.5c0.2-0.3,0.7-0.2,0.9,0
			c0.1,0.1,0.2,0.3,0.2,0.5c0,0.2-0.1,0.3-0.2,0.5C4.7,29.3,4.6,29.3,4.4,29.3z"/>
		<path class="st1" d="M3.7,34.3c0-0.4,0.3-0.7,0.7-0.7l0,0c0.4,0,0.7,0.3,0.7,0.7l0,0c0,0.4-0.3,0.7-0.7,0.7l0,0
			C4,35,3.7,34.7,3.7,34.3z"/>
		<path class="st1" d="M4.4,40.6c-0.2,0-0.3-0.1-0.5-0.2c-0.1-0.1-0.2-0.3-0.2-0.5c0-0.2,0.1-0.3,0.2-0.5c0.2-0.2,0.7-0.2,0.9,0
			c0.1,0.1,0.2,0.3,0.2,0.5c0,0.2-0.1,0.3-0.2,0.5C4.7,40.5,4.6,40.6,4.4,40.6z"/>
		<path class="st1" d="M56.5,31.1c-1.2-1.1-3.7-0.2-9.3,1.8c-1.7,0.6-3.6,1.3-5.9,2.1c0.1-0.2,0.1-0.5,0.1-0.7
			c0.1-1.4-0.3-2.6-1-3.3c-1.1-1.1-2.6-1-2.7-1c-7.6,0.1-8.9-0.6-10.4-1.5c-1.9-1.1-4-2.3-16.3-2.3c-0.4,0-0.7,0.3-0.7,0.7v14.8
			c0,0.2,0.1,0.4,0.3,0.5c0.1,0.1,5.9,3.9,15.7,3.9c7.5,0,17.5-2.2,29.1-10.1c0.2-0.1,1.8-1.3,1.9-2.8
			C57.4,32.6,57.3,31.8,56.5,31.1z M54.7,34.8c-24.1,16.4-40.6,7.8-43,6.4V27.5c11.4,0,13.3,1.2,15,2.1c1.7,1,3.1,1.8,11.1,1.7
			c0,0,1,0,1.7,0.6c0.5,0.5,0.7,1.3,0.6,2.3c0,0.7-0.6,1.3-1.6,1.7c0,0,0,0,0,0c0,0,0,0,0,0c0,0,0,0,0,0c-2.3,0.9-6.4,0.9-12.4,0.2
			c-0.4,0-0.7,0.2-0.7,0.6c0,0.4,0.2,0.7,0.6,0.7c2.8,0.4,5.3,0.5,7.3,0.5c2.5,0,4.4-0.3,5.7-0.8c0,0,0,0,0,0c3.5-1.1,6.3-2.2,8.7-3
			c4.1-1.5,7.3-2.7,7.9-2.1c0.3,0.3,0.5,0.6,0.5,1C56,33.8,55.1,34.6,54.7,34.8z"/>
		<path class="st1" d="M22.4,21.6c-3.9,0-7-3.1-7-7c0-3.9,3.1-7,7-7c3.9,0,7,3.1,7,7C29.4,18.5,26.3,21.6,22.4,21.6z M22.4,8.9
			c-3.1,0-5.7,2.5-5.7,5.7c0,3.1,2.5,5.7,5.7,5.7c3.1,0,5.7-2.5,5.7-5.7C28.1,11.5,25.6,8.9,22.4,8.9z"/>
		<path class="st1" d="M22.4,14c-0.7,0-1.1-0.3-1.1-0.9c0-0.5,0.5-0.9,1.1-0.9s1.1,0.4,1.1,0.9c0,0.4,0.3,0.7,0.7,0.7
			c0.4,0,0.7-0.3,0.7-0.7c0-1-0.7-1.8-1.7-2.1v-0.3c0-0.4-0.3-0.7-0.7-0.7c-0.4,0-0.7,0.3-0.7,0.7V11c-1,0.3-1.7,1.1-1.7,2.1
			c0,1.3,0.9,2.2,2.4,2.2c0.9,0,1.1,0.5,1.1,0.9c0,0.5-0.5,0.9-1.1,0.9s-1.1-0.4-1.1-0.9c0-0.4-0.3-0.7-0.7-0.7
			c-0.4,0-0.7,0.3-0.7,0.7c0,1,0.7,1.8,1.7,2.1v0.3c0,0.4,0.3,0.7,0.7,0.7c0.4,0,0.7-0.3,0.7-0.7v-0.3c1-0.3,1.7-1.1,1.7-2.1
			C24.8,14.8,23.9,14,22.4,14z"/>
		<path class="st1" d="M22.4,6.4c-0.4,0-0.7-0.3-0.7-0.7V2.6c0-0.4,0.3-0.7,0.7-0.7c0.4,0,0.7,0.3,0.7,0.7v3.1
			C23.1,6.1,22.8,6.4,22.4,6.4z"/>
		<path class="st1" d="M17.2,8.4c-0.4,0-0.7-0.3-0.7-0.7V4.6c0-0.4,0.3-0.7,0.7-0.7c0.4,0,0.7,0.3,0.7,0.7v3.1
			C17.9,8.1,17.6,8.4,17.2,8.4z"/>
		<path class="st1" d="M44.5,24.8c-3.9,0-7-3.1-7-7s3.1-7,7-7c3.9,0,7,3.1,7,7S48.3,24.8,44.5,24.8z M44.5,12.1
			c-3.1,0-5.7,2.5-5.7,5.7c0,3.1,2.5,5.7,5.7,5.7c3.1,0,5.7-2.5,5.7-5.7C50.2,14.6,47.6,12.1,44.5,12.1z"/>
		<path class="st1" d="M44.5,17.1c-0.7,0-1.1-0.3-1.1-0.9c0-0.5,0.5-0.9,1.1-0.9c0.6,0,1.1,0.4,1.1,0.9c0,0.4,0.3,0.7,0.7,0.7
			c0.4,0,0.7-0.3,0.7-0.7c0-1-0.7-1.8-1.7-2.1v-0.3c0-0.4-0.3-0.7-0.7-0.7c-0.4,0-0.7,0.3-0.7,0.7v0.3c-1,0.3-1.7,1.1-1.7,2.1
			c0,1.3,0.9,2.2,2.4,2.2c0.9,0,1.1,0.5,1.1,0.9c0,0.5-0.5,0.9-1.1,0.9c-0.6,0-1.1-0.4-1.1-0.9c0-0.4-0.3-0.7-0.7-0.7
			c-0.4,0-0.7,0.3-0.7,0.7c0,1,0.7,1.8,1.7,2.1v0.3c0,0.4,0.3,0.7,0.7,0.7c0.4,0,0.7-0.3,0.7-0.7v-0.3c1-0.3,1.7-1.1,1.7-2.1
			C46.9,18,45.9,17.1,44.5,17.1z"/>
		<path class="st1" d="M44.5,9.6c-0.4,0-0.7-0.3-0.7-0.7V5.8c0-0.4,0.3-0.7,0.7-0.7c0.4,0,0.7,0.3,0.7,0.7V9
			C45.1,9.3,44.9,9.6,44.5,9.6z"/>
		<path class="st1" d="M49.7,11.6c-0.4,0-0.7-0.3-0.7-0.7V7.8c0-0.4,0.3-0.7,0.7-0.7c0.4,0,0.7,0.3,0.7,0.7v3.1
			C50.4,11.3,50.1,11.6,49.7,11.6z"/>
		<path class="st1" d="M33.7,20.3c-3.9,0-7-3.1-7-7c0-3.9,3.1-7,7-7c3.9,0,7,3.1,7,7C40.7,17.2,37.5,20.3,33.7,20.3z M33.7,7.6
			c-3.1,0-5.7,2.5-5.7,5.7c0,3.1,2.5,5.7,5.7,5.7c3.1,0,5.7-2.5,5.7-5.7C39.4,10.2,36.8,7.6,33.7,7.6z"/>
		<path class="st1" d="M33.7,12.6c-0.9,0-1.1-0.5-1.1-0.9c0-0.5,0.5-0.9,1.1-0.9c0.6,0,1.1,0.4,1.1,0.9c0,0.4,0.3,0.7,0.7,0.7
			c0.4,0,0.7-0.3,0.7-0.7c0-1-0.7-1.8-1.7-2.1V9.3c0-0.4-0.3-0.7-0.7-0.7C33.3,8.7,33,9,33,9.3v0.3c-1,0.3-1.7,1.1-1.7,2.1
			c0,1.3,0.9,2.2,2.4,2.2c0.9,0,1.1,0.5,1.1,0.9c0,0.5-0.5,0.9-1.1,0.9c-0.6,0-1.1-0.4-1.1-0.9c0-0.4-0.3-0.7-0.7-0.7
			c-0.4,0-0.7,0.3-0.7,0.7c0,1,0.7,1.8,1.7,2.1v0.3c0,0.4,0.3,0.7,0.7,0.7c0.4,0,0.7-0.3,0.7-0.7V17c1-0.3,1.7-1.1,1.7-2.1
			C36,13.5,35.1,12.6,33.7,12.6z"/>
		<path class="st1" d="M33.7,4.5c-0.4,0-0.7-0.3-0.7-0.7V0.7C33,0.3,33.3,0,33.7,0c0.4,0,0.7,0.3,0.7,0.7v3.1
			C34.3,4.2,34,4.5,33.7,4.5z"/>
		<path class="st1" d="M38.9,6.4c-0.4,0-0.7-0.3-0.7-0.7V2.6c0-0.4,0.3-0.7,0.7-0.7c0.4,0,0.7,0.3,0.7,0.7v3.1
			C39.5,6.1,39.3,6.4,38.9,6.4z"/>
		<path class="st1" d="M28.5,6.4c-0.4,0-0.7-0.3-0.7-0.7V2.6c0-0.4,0.3-0.7,0.7-0.7c0.4,0,0.7,0.3,0.7,0.7v3.1
			C29.1,6.1,28.8,6.4,28.5,6.4z"/>
	</g>
</g>
</svg>
