<?xml version="1.0" encoding="utf-8"?>
<!-- Generator: Adobe Illustrator 23.0.3, SVG Export Plug-In . SVG Version: 6.00 Build 0)  -->
<svg version="1.1" id="layer_1" xmlns="http://www.w3.org/2000/svg" xmlns:xlink="http://www.w3.org/1999/xlink" x="0px" y="0px"
	 viewBox="0 0 48 37.8" style="enable-background:new 0 0 48 37.8;" xml:space="preserve">
<style type="text/css">
	.st0{fill:#0DACE0;}
	.st1{fill:#271540;}
	.st2{fill:#FFFFFF;}
</style>
<g>
	<polygon class="st0" points="47.4,28 24.4,37.2 0.6,28.3 23.6,19.1 	"/>
	<path class="st1" d="M24.4,37.8c-0.1,0-0.1,0-0.2,0L0.4,28.8C0.2,28.8,0,28.6,0,28.3c0-0.2,0.1-0.5,0.4-0.5l23-9.2
		c0.1-0.1,0.3-0.1,0.4,0l23.8,8.9c0.2,0.1,0.4,0.3,0.4,0.5c0,0.2-0.1,0.5-0.4,0.5l-23,9.2C24.6,37.7,24.5,37.8,24.4,37.8z M2.2,28.3
		l22.2,8.3L45.8,28l-22.2-8.3L2.2,28.3z"/>
	<polygon class="st2" points="47.4,18.7 24.4,27.9 0.6,19 23.6,9.8 	"/>
	<path class="st1" d="M24.4,28.5c-0.1,0-0.1,0-0.2,0L0.4,19.6C0.2,19.5,0,19.3,0,19c0-0.2,0.1-0.5,0.4-0.5l23-9.2
		c0.1-0.1,0.3-0.1,0.4,0l23.8,8.9c0.2,0.1,0.4,0.3,0.4,0.5c0,0.2-0.1,0.5-0.4,0.5l-23,9.2C24.6,28.5,24.5,28.5,24.4,28.5z M2.2,19
		l22.2,8.3l21.4-8.6l-22.2-8.3L2.2,19z"/>
	<polygon class="st0" points="47.4,9.4 24.4,18.6 0.6,9.8 23.6,0.6 	"/>
	<path class="st1" d="M47.6,8.9L23.8,0c-0.1-0.1-0.3,0-0.4,0l-23,9.2C0.1,9.3,0,9.5,0,9.8c0,0.2,0.2,0.5,0.4,0.5l23.8,8.9
		c0.1,0,0.1,0,0.2,0c0.1,0,0.1,0,0.2,0l23-9.2C47.9,9.9,48,9.7,48,9.4C48,9.2,47.8,9,47.6,8.9z M38.2,12.5L16,4.2L19,3l22.2,8.3
		L38.2,12.5z M33.6,14.3L11.4,6.1l3-1.2l22.2,8.3L33.6,14.3z M29,16.2L6.8,7.9l3-1.2L32,15L29,16.2z M24.4,18L2.2,9.8l3-1.2
		l22.2,8.3L24.4,18z M42.8,10.7L20.6,2.4l3-1.2l22.2,8.3L42.8,10.7z"/>
</g>
</svg>
