<?xml version="1.0" encoding="utf-8"?>
<!-- Generator: Adobe Illustrator 23.0.3, SVG Export Plug-In . SVG Version: 6.00 Build 0)  -->
<svg version="1.1" id="Capa_1" xmlns="http://www.w3.org/2000/svg" xmlns:xlink="http://www.w3.org/1999/xlink" x="0px" y="0px"
	 viewBox="0 0 55 55" style="enable-background:new 0 0 55 55;" xml:space="preserve">
<style type="text/css">
	.st0{fill:#3E7CCC;}
</style>
<path class="st0" d="M46.2,9.9c-0.3,0-0.5-0.1-0.8-0.3l0,0c-0.4-0.4-0.4-1.1,0-1.5s1.1-0.4,1.5,0l0,0c0.4,0.4,0.4,1.1,0,1.5
	C46.7,9.8,46.5,9.9,46.2,9.9z"/>
<path class="st0" d="M20.8,24.1c-0.5,0-0.8,0.2-0.9,0.7l-1,3.3l-1-3.1c-0.2-0.6-0.5-0.9-1-0.9c-0.4,0-0.8,0.3-0.9,0.9l-1,3.1l-1-3.3
	c-0.2-0.5-0.5-0.7-0.9-0.7c-0.3,0-0.5,0.1-0.7,0.3c-0.2,0.2-0.3,0.4-0.3,0.7c0,0.1,0,0.3,0.1,0.4l1.7,4.5c0.2,0.6,0.6,1,1.1,1
	s0.8-0.3,1-0.9l0.9-2.7l0.9,2.7c0.2,0.6,0.5,0.9,1,0.9s0.9-0.3,1.1-1l1.7-4.5c0-0.1,0.1-0.3,0.1-0.4c0-0.3-0.1-0.5-0.3-0.7
	C21.3,24.2,21.1,24.1,20.8,24.1z"/>
<path class="st0" d="M42.1,24.1c-0.5,0-0.8,0.2-0.9,0.7l-1,3.3l-1-3.1c-0.2-0.6-0.5-0.9-1-0.9c-0.4,0-0.8,0.3-0.9,0.9l-1,3.1l-1-3.3
	c-0.2-0.5-0.5-0.7-0.9-0.7c-0.3,0-0.5,0.1-0.7,0.3c-0.2,0.2-0.3,0.4-0.3,0.7c0,0.1,0,0.3,0.1,0.4l1.7,4.5c0.2,0.6,0.6,1,1.1,1
	s0.8-0.3,1-0.9l0.9-2.7l0.9,2.7c0.2,0.6,0.5,0.9,1,0.9s0.9-0.3,1.1-1l1.7-4.5c0-0.1,0.1-0.3,0.1-0.4c0-0.3-0.1-0.5-0.3-0.7
	C42.6,24.2,42.4,24.1,42.1,24.1z"/>
<path class="st0" d="M31.5,24.1c-0.5,0-0.8,0.2-0.9,0.7l-1,3.3l-1-3.1c-0.2-0.6-0.5-0.9-1-0.9c-0.4,0-0.8,0.3-0.9,0.9l-1,3.1l-1-3.3
	c-0.2-0.5-0.5-0.7-0.9-0.7c-0.3,0-0.5,0.1-0.7,0.3c-0.2,0.2-0.3,0.4-0.3,0.7c0,0.1,0,0.3,0.1,0.4l1.7,4.5c0.2,0.6,0.6,1,1.1,1
	s0.8-0.3,1-0.9l0.9-2.7l0.9,2.7c0.2,0.6,0.5,0.9,1,0.9s0.9-0.3,1.1-1l1.7-4.5c0-0.1,0.1-0.3,0.1-0.4c0-0.3-0.1-0.5-0.3-0.7
	C32,24.2,31.8,24.1,31.5,24.1z"/>
<path class="st0" d="M49.8,11.4c-0.3-0.5-1-0.6-1.5-0.2s-0.6,1-0.2,1.5c1.5,2,2.6,4.3,3.4,6.6c-2.6-2.8-6.4-5.1-11.1-6.6
	c-0.9-2.5-2-4.7-3.3-6.6C36.3,5,35.5,4,34.7,3.2c2.6,0.8,5.1,2,7.4,3.6c0.5,0.3,1.2,0.2,1.5-0.3s0.2-1.2-0.3-1.5
	c-4.7-3.3-10.1-5-15.9-5C20.1,0,13.1,2.9,8,8.1s-8.1,12.1-8.1,19.4S2.8,41.8,8,46.9S20.1,55,27.4,55s14.3-2.9,19.4-8.1
	s8.1-12.1,8.1-19.4C55,21.7,53.2,16.1,49.8,11.4z M49.3,30.7v-2.2h3.5c-0.5,4.2-4.2,8-10.1,10.6c-0.3-0.4-0.7-0.8-1.1-1
	c0.2-0.9,0.4-1.9,0.6-2.9h2.6C47.2,35.3,49.3,33.2,49.3,30.7z M46.5,17.9c3.7,2.4,5.9,5.4,6.3,8.6h-3.5v-2.1c0-2.5-2.1-4.6-4.6-4.6
	h-2.6c-0.3-1.6-0.6-3.1-1-4.5C43.1,15.9,44.9,16.8,46.5,17.9z M40,19.7H28.6v-4.2c1.2-0.4,2.2-1.3,2.6-2.5c2.6,0.2,5.2,0.7,7.5,1.4
	C39.2,16.1,39.7,17.8,40,19.7z M28.6,2.2c3,0.5,5.3,2.9,6.8,5.1c0.9,1.3,1.7,2.9,2.4,4.6c-2.1-0.5-4.2-0.9-6.5-1
	c-0.3-1.4-1.4-2.5-2.7-2.8L28.6,2.2L28.6,2.2z M29.3,11.8c0,1-0.8,1.8-1.8,1.8s-1.8-0.8-1.8-1.8s0.8-1.8,1.8-1.8
	S29.3,10.8,29.3,11.8z M26.4,15.5v4.2H15c0.3-1.9,0.8-3.7,1.3-5.3c2.3-0.7,4.9-1.1,7.5-1.4C24.2,14.2,25.2,15.2,26.4,15.5z
	 M26.4,2.2V8c-1.3,0.4-2.4,1.5-2.7,2.8c-2.3,0.2-4.5,0.5-6.5,1.1c0.7-1.7,1.5-3.3,2.4-4.6C21.1,5.2,23.4,2.7,26.4,2.2z M20.3,3.2
	C19.5,4,18.7,5,17.9,6.1c-1.3,1.9-2.4,4.1-3.3,6.6c-4.7,1.5-8.5,3.8-11.1,6.6C6.2,11.5,12.4,5.5,20.3,3.2z M10.5,35.3h2.3
	c0.2,1,0.3,1.9,0.6,2.9c-0.4,0.3-0.8,0.6-1.1,1c-5.9-2.6-9.5-6.4-10.1-10.6h3.7v2.2C5.9,33.2,8,35.3,10.5,35.3z M5.9,24.3v2.1H2.2
	c0.4-3.1,2.6-6.2,6.3-8.6c1.6-1,3.4-1.9,5.3-2.7c-0.4,1.5-0.7,3-1,4.5h-2.3C8,19.7,5.9,21.8,5.9,24.3z M3.5,35.8c2,2.1,4.7,4,8,5.4
	c0,0.1,0,0.2,0,0.3c0,2.2,1.8,3.9,3.9,3.9c0.1,0,0.3,0,0.4,0c1.3,2.7,2.8,4.8,4.4,6.4C12.5,49.5,6.2,43.5,3.5,35.8z M13.7,41.5
	c0-1,0.8-1.8,1.8-1.8s1.8,0.8,1.8,1.8s-0.8,1.8-1.8,1.8S13.7,42.5,13.7,41.5z M26.4,52.8c-3.3-0.5-6.3-3.4-8.6-8.2
	c0.4-0.3,0.7-0.7,1-1.1c2.5,0.5,5,0.8,7.6,0.8V52.8z M26.4,42.1c-2.4-0.1-4.8-0.3-7.1-0.8c-0.1-2.1-1.8-3.8-3.9-3.8
	c-0.2-0.8-0.3-1.5-0.5-2.3h11.4v6.9H26.4z M10.5,33.2c-1.3,0-2.4-1.1-2.4-2.4v-6.4c0-1.3,1.1-2.4,2.4-2.4h30.8l0,0l0,0h3.5
	c1.3,0,2.4,1.1,2.4,2.4v6.4c0,1.3-1.1,2.4-2.4,2.4H10.5z M39.6,39.7c0.2,0,0.4,0,0.5,0.1l0,0c0.7,0.2,1.2,0.9,1.2,1.7
	c0,1-0.8,1.8-1.8,1.8s-1.8-0.8-1.8-1.8C37.8,40.5,38.6,39.7,39.6,39.7z M35.7,41.4c-2.3,0.5-4.7,0.7-7.1,0.8v-6.8H40
	c-0.1,0.8-0.3,1.5-0.5,2.3C37.4,37.6,35.7,39.3,35.7,41.4z M28.6,52.8v-8.5c2.6-0.1,5.2-0.3,7.6-0.8c0.3,0.4,0.6,0.8,1,1.1
	C34.9,49.3,31.8,52.2,28.6,52.8z M34.7,51.8c1.7-1.6,3.2-3.8,4.4-6.4c0.1,0,0.3,0,0.4,0c2.2,0,3.9-1.8,3.9-3.9c0-0.1,0-0.2,0-0.3
	c3.3-1.4,6.1-3.3,8-5.4C48.8,43.5,42.5,49.5,34.7,51.8z"/>
</svg>
