<?xml version="1.0" encoding="utf-8"?>
<!-- Generator: Adobe Illustrator 23.0.3, SVG Export Plug-In . SVG Version: 6.00 Build 0)  -->
<svg version="1.1" id="Capa_1" xmlns="http://www.w3.org/2000/svg" xmlns:xlink="http://www.w3.org/1999/xlink" x="0px" y="0px"
	 viewBox="177 366 50 50" style="enable-background:new 177 366 50 50;" xml:space="preserve">
<style type="text/css">
	.st0{fill:#3E7CCC;}
</style>
<g>
	<rect x="181.2" y="394.1" class="st0" width="41.7" height="2.1"/>
	<path class="st0" d="M210.3,410.7l-1-8.3c-0.1-0.5-0.5-0.9-1-0.9h-12.5c-0.5,0-1,0.4-1,0.9l-1,8.3c0,0,0,0.1,0,0.1c0,0.6,0.5,1,1,1
		h14.6c0,0,0.1,0,0.1,0C210,411.8,210.4,411.2,210.3,410.7z M195.9,409.8l0.8-6.2h10.7l0.8,6.2H195.9z"/>
	<path class="st0" d="M212.4,409.8h-20.8c-0.6,0-1,0.5-1,1v3.1c0,1.2,0.9,2.1,2.1,2.1h18.7c1.2,0,2.1-0.9,2.1-2.1v-3.1
		C213.5,410.2,213,409.8,212.4,409.8z M211.4,413.9h-18.7v-2.1h18.7V413.9z"/>
	<path class="st0" d="M224.9,388.9v11.5c0,0.6-0.5,1-1,1h-43.7c-0.6,0-1-0.5-1-1v-31.2c0-0.6,0.5-1,1-1h24V366h-24
		c-1.7,0-3.1,1.4-3.1,3.1v31.2c0,1.7,1.4,3.1,3.1,3.1h43.7c1.7,0,3.1-1.4,3.1-3.1v-11.5H224.9z"/>
	<rect x="188.5" y="413.9" class="st0" width="27.1" height="2.1"/>
	<path class="st0" d="M183.3,371.2c-0.6,0-1,0.5-1,1V392h2.1v-18.7H201v-2.1H183.3z"/>
	<path class="st0" d="M226,375.4h-2.6c-0.1-0.3-0.2-0.6-0.4-0.9l1.9-1.9c0.4-0.4,0.4-1.1,0-1.5l-2.9-2.9c-0.4-0.4-1.1-0.4-1.5,0
		l-1.9,1.9c-0.3-0.1-0.6-0.3-0.9-0.4V367c0-0.6-0.5-1-1-1h-4.2c-0.6,0-1,0.5-1,1v2.6c-0.3,0.1-0.6,0.2-0.9,0.4l-1.9-1.9
		c-0.4-0.4-1.1-0.4-1.5,0l-2.9,2.9c-0.4,0.4-0.4,1.1,0,1.5l1.9,1.9c-0.1,0.3-0.3,0.6-0.4,0.9H203c-0.6,0-1,0.5-1,1v4.2
		c0,0.6,0.5,1,1,1h2.6c0.1,0.3,0.2,0.6,0.4,0.9l-1.9,1.9c-0.4,0.4-0.4,1.1,0,1.5l2.9,2.9c0.4,0.4,1.1,0.4,1.5,0l1.9-1.9
		c0.3,0.1,0.6,0.3,0.9,0.4v2.6c0,0.6,0.5,1,1,1h4.2c0.6,0,1-0.5,1-1v-2.6c0.3-0.1,0.6-0.2,0.9-0.4l1.9,1.9c0.4,0.4,1.1,0.4,1.5,0
		l2.9-2.9c0.4-0.4,0.4-1.1,0-1.5l-1.9-1.9c0.1-0.3,0.3-0.6,0.4-0.9h2.6c0.6,0,1-0.5,1-1v-4.2C227,375.8,226.5,375.4,226,375.4z
		 M224.9,379.5h-2.4c-0.5,0-0.9,0.3-1,0.8c-0.2,0.7-0.4,1.3-0.8,1.9c-0.2,0.4-0.2,0.9,0.2,1.3l1.7,1.7l-1.5,1.5l-1.7-1.7
		c-0.3-0.3-0.9-0.4-1.3-0.2c-0.6,0.3-1.2,0.6-1.9,0.8c-0.5,0.1-0.8,0.5-0.8,1v2.4h-2.1l0-2.4c0-0.5-0.3-0.9-0.8-1
		c-0.7-0.2-1.3-0.4-1.9-0.8c-0.4-0.2-0.9-0.2-1.3,0.2l-1.7,1.7l-1.5-1.5l1.7-1.7c0.3-0.3,0.4-0.9,0.2-1.3c-0.3-0.6-0.6-1.2-0.8-1.9
		c-0.1-0.5-0.5-0.8-1-0.8h-2.4v-2.1h2.4c0.5,0,0.9-0.3,1-0.8c0.2-0.7,0.4-1.3,0.8-1.9c0.2-0.4,0.2-0.9-0.2-1.3l-1.7-1.7l1.5-1.5
		l1.7,1.7c0.3,0.3,0.9,0.4,1.3,0.2c0.6-0.3,1.2-0.6,1.9-0.8c0.5-0.1,0.8-0.5,0.8-1v-2.4h2.1v2.4c0,0.5,0.3,0.9,0.8,1
		c0.7,0.2,1.3,0.4,1.9,0.8c0.4,0.2,0.9,0.2,1.3-0.2l1.7-1.7l1.5,1.5l-1.7,1.7c-0.3,0.3-0.4,0.9-0.2,1.3c0.3,0.6,0.6,1.2,0.8,1.9
		c0.1,0.5,0.5,0.8,1,0.8h2.4V379.5L224.9,379.5z"/>
	<path class="st0" d="M214.5,374.3c-2.3,0-4.2,1.9-4.2,4.2c0,2.3,1.9,4.2,4.2,4.2c2.3,0,4.2-1.9,4.2-4.2
		C218.7,376.2,216.8,374.3,214.5,374.3z M214.5,380.6c-1.2,0-2.1-0.9-2.1-2.1c0-1.2,0.9-2.1,2.1-2.1c1.2,0,2.1,0.9,2.1,2.1
		C216.6,379.7,215.7,380.6,214.5,380.6z"/>
	<path class="st0" d="M197.8,375.4h-10.4c-0.6,0-1,0.5-1,1v4.2c0,0.6,0.5,1,1,1h10.4c0.6,0,1-0.5,1-1v-4.2
		C198.9,375.8,198.4,375.4,197.8,375.4z M196.8,379.5h-8.3v-2.1h8.3V379.5z"/>
	<rect x="186.4" y="383.7" class="st0" width="2.1" height="2.1"/>
	<rect x="190.5" y="383.7" class="st0" width="2.1" height="2.1"/>
	<rect x="186.4" y="387.9" class="st0" width="12.5" height="2.1"/>
</g>
</svg>
