<?xml version="1.0" encoding="utf-8"?>
<!-- Generator: Adobe Illustrator 23.0.3, SVG Export Plug-In . SVG Version: 6.00 Build 0)  -->
<svg version="1.1" id="Layer_1" xmlns="http://www.w3.org/2000/svg" xmlns:xlink="http://www.w3.org/1999/xlink" x="0px" y="0px"
	 viewBox="0 0 70 69.3" style="enable-background:new 0 0 70 69.3;" xml:space="preserve">
<style type="text/css">
	.st0{fill:#FF4F7B;}
</style>
<g>
	<g>
		<g>
			<path class="st0" d="M58.5,49.4l-3.9-4c-0.4-0.4-1-0.5-1.5-0.1L36.1,57.9L30,55l5.3-0.6c0.6-0.1,1-0.6,1-1.2v-5
				c0-0.6-0.5-1.2-1.2-1.2h-5.8l-9.7-1c-0.2,0-0.4,0-0.6,0.1l-6.6,2.8H0v2.3h12.7c0.2,0,0.3,0,0.5-0.1l6.6-2.9l9.5,1h4.8v2.9
				l-4.3,0.5l-6.2-0.7c-0.6-0.1-1.1,0.3-1.2,0.8c-0.2,0.5,0.1,1.1,0.6,1.4l12.8,5.9c0.4,0.2,0.8,0.1,1.2-0.1l16.8-12.3l2.3,2.4
				L36.8,67h-5.2l-18.4-6.8c-0.1-0.1-0.3-0.1-0.4-0.1H0v2.3h12.5l18.4,6.9c0.1,0,0.3,0.1,0.4,0.1h5.9c0.3,0,0.6-0.1,0.8-0.3
				l20.5-17.9c0,0,0,0,0.1-0.1C59,50.6,59,49.8,58.5,49.4z"/>
		</g>
	</g>
	<g>
		<g>
			<path class="st0" d="M61.6,28.9l-6.1-6.3c-0.2-0.2-0.5-0.3-0.7-0.4L42.3,21h-4.8l0.2-3.5l4.5-0.9l6.3,1.4c0.1,0,0.3,0,0.4,0
				l6.1-0.7L54.8,15l-5.9,0.6l-6.4-1.4c-0.2,0-0.3,0-0.5,0l-5.6,1.2c-0.5,0.1-0.9,0.5-0.9,1.1l-0.4,5.6c0,0,0,0,0,0.1
				c0,0.6,0.5,1.2,1.2,1.2h5.9l11.9,1.1l6.1,6.4c0.2,0.2,0.5,0.4,0.8,0.4h8.2v-2.3H61.6z"/>
		</g>
	</g>
	<g>
		<g>
			<path class="st0" d="M59.6,4.9c-0.1-0.1-0.3-0.2-0.4-0.2L39.5,0c-0.3-0.1-0.7,0-0.9,0.2L25.9,9.5l1.4,1.9l12.3-8.9l18.9,4.4
				l10.2,7.9l1.4-1.9L59.6,4.9z"/>
		</g>
	</g>
	<g>
		<g>
			<path class="st0" d="M40.8,7.1c-0.3-0.1-0.6-0.1-0.9,0L33,10.5l1,2.1l6.5-3.2l5.3,2.2l0.9-2.1L40.8,7.1z"/>
		</g>
	</g>
	<g>
		<g>
			<path class="st0" d="M28.9,19.9l-2-0.3c-0.9-0.1-1.5-0.5-1.5-1.1s0.8-1.2,1.9-1.1h0.8c1.1,0,1.9,0.6,1.9,1.1v0.3h2.3v-0.3
				c0-2-1.8-3.5-4.2-3.5h-0.8c-2.4,0-4.2,1.5-4.2,3.5c0.2,1.8,1.7,3.2,3.5,3.3l2,0.3c0.9,0.1,1.5,0.6,1.5,1.1c0,0.5-0.8,1.1-1.9,1.1
				h-0.8c-1.1,0-1.9-0.6-1.9-1.1v-0.3h-2.3v0.3c0,1.9,1.9,3.4,4.2,3.4h0.8c2.4,0,4.2-1.5,4.2-3.3C32.2,21.4,30.7,20,28.9,19.9z"/>
		</g>
	</g>
	<g>
		<g>
			<path class="st0" d="M36.9,22c-0.4,3.1-2.4,5.8-5.3,7.2c-4.6,2.1-10.1,0.1-12.3-4.5s-0.1-10.1,4.5-12.3s10.1-0.1,12.3,4.5l2.1-1
				c-1.9-4.1-6-6.7-10.5-6.7c-6.4,0-11.5,5.2-11.5,11.5c0,6.4,5.2,11.5,11.5,11.5c5.8,0,10.7-4.3,11.5-10L36.9,22z"/>
		</g>
	</g>
	<g>
		<g>
			<rect x="26.6" y="13.9" class="st0" width="2.3" height="2.3"/>
		</g>
	</g>
</g>
</svg>
