<?xml version="1.0" encoding="utf-8"?>
<!-- Generator: Adobe Illustrator 23.0.3, SVG Export Plug-In . SVG Version: 6.00 Build 0)  -->
<svg version="1.1" id="Capa_1" xmlns="http://www.w3.org/2000/svg" xmlns:xlink="http://www.w3.org/1999/xlink" x="0px" y="0px"
	 viewBox="0 0 70 74.4" style="enable-background:new 0 0 70 74.4;" xml:space="preserve">
<style type="text/css">
	.st0{fill:#FF4F7B;}
</style>
<g>
	<path class="st0" d="M37,47.1c1.3-0.1,2.5-0.8,3.2-1.8l11.6-16.1c0.4-0.5,0.3-1.2-0.1-1.6c-0.4-0.4-1.1-0.5-1.6-0.1L34.1,39.2
		c-1,0.8-1.7,1.9-1.8,3.2c-0.1,1.3,0.4,2.6,1.3,3.5c0.8,0.8,2,1.3,3.1,1.3C36.8,47.2,36.9,47.1,37,47.1z M34.7,42.6
		c0-0.6,0.3-1.1,0.8-1.4l9.8-7.1l-7.1,9.8c-0.3,0.5-0.9,0.7-1.4,0.8c-0.6,0-1.1-0.2-1.5-0.6C34.9,43.7,34.7,43.1,34.7,42.6z"/>
	<path class="st0" d="M64.8,24.3C64.8,24.2,64.8,24.2,64.8,24.3c0-0.1-0.1-0.1-0.1-0.1c-1.3-2.2-2.7-4.2-4.4-6l2.7-2.7l1.8,1.8
		L70,12l-5.3-5.3L59.5,12l1.8,1.8l-2.7,2.7c-1.8-1.7-3.8-3.2-6-4.4c0,0,0,0-0.1-0.1c0,0-0.1,0-0.1,0c-3.8-2.2-8.1-3.7-12.7-4.2V6.2
		h1.9c1.7,0,3.1-1.4,3.1-3.1S43.3,0,41.6,0H30.4c-1.7,0-3.1,1.4-3.1,3.1s1.4,3.1,3.1,3.1h1.9v1.4c-1.3,0.1-2.7,0.4-4,0.7
		c-0.7,0.2-1.1,0.8-0.9,1.5c0.2,0.7,0.8,1.1,1.5,0.9c1.1-0.3,2.3-0.5,3.4-0.6l1.3-0.1c0.4,0,0.8-0.1,1.1-0.1v2.5
		c0,0.7,0.6,1.2,1.2,1.2s1.2-0.6,1.2-1.2V10c4.7,0.2,9.1,1.5,13,3.5L49,15.6c-0.3,0.6-0.1,1.4,0.5,1.7c0.2,0.1,0.4,0.2,0.6,0.2
		c0.4,0,0.8-0.2,1.1-0.6l1.2-2.1c3.9,2.5,7.2,5.8,9.6,9.6l-2.1,1.2c-0.6,0.3-0.8,1.1-0.5,1.7c0.2,0.4,0.6,0.6,1.1,0.6
		c0.2,0,0.4-0.1,0.6-0.2l2.1-1.2c2.1,4,3.3,8.4,3.5,13.2h-2.5c-0.7,0-1.2,0.6-1.2,1.2c0,0.7,0.6,1.2,1.2,1.2h2.5
		c-0.2,4.7-1.4,9.2-3.5,13.2l-2.1-1.2c-0.6-0.3-1.4-0.1-1.7,0.5c-0.3,0.6-0.1,1.4,0.5,1.7l2.1,1.2c-2.5,3.9-5.8,7.2-9.6,9.6L51.1,65
		c-0.3-0.6-1.1-0.8-1.7-0.5c-0.6,0.3-0.8,1.1-0.5,1.7l1.2,2.1c-3.9,2.1-8.3,3.3-13,3.5v-2.4c0-0.7-0.6-1.2-1.2-1.2s-1.2,0.6-1.2,1.2
		v2.5c-2-0.1-4-0.3-5.9-0.8c-0.7-0.2-1.3,0.3-1.5,0.9c-0.2,0.7,0.3,1.3,0.9,1.5c2.5,0.6,5,0.9,7.5,0.9c0.1,0,0.1,0,0.2,0
		c0,0,0,0,0,0c0,0,0,0,0,0c6,0,11.6-1.7,16.4-4.4c0,0,0.1,0,0.1,0c0,0,0,0,0.1-0.1c5-2.9,9.2-7.1,12.1-12.1c0,0,0.1-0.1,0.1-0.1
		c0,0,0-0.1,0-0.1c2.8-4.9,4.5-10.6,4.5-16.7S67.7,29.2,64.8,24.3z M64.7,10.2l1.8,1.8l-1.8,1.8L63,12L64.7,10.2z M34.7,7.5V3.7
		h-4.3c-0.3,0-0.6-0.3-0.6-0.6s0.3-0.6,0.6-0.6h11.2c0.3,0,0.6,0.3,0.6,0.6s-0.3,0.6-0.6,0.6h-4.3v3.7c-0.4,0-0.8,0-1.2,0
		c0,0-0.1,0-0.1,0c0,0-0.1,0-0.1,0c-0.2,0-0.4,0-0.6,0C35,7.5,34.9,7.5,34.7,7.5z"/>
	<path class="st0" d="M24.8,17.4h-6.2c-0.7,0-1.2,0.6-1.2,1.2c0,0.7,0.6,1.2,1.2,1.2h6.2c0.7,0,1.2-0.6,1.2-1.2
		C26.1,17.9,25.5,17.4,24.8,17.4z"/>
	<path class="st0" d="M24.8,26.1H12.4c-0.7,0-1.2,0.6-1.2,1.2c0,0.7,0.6,1.2,1.2,1.2h12.4c0.7,0,1.2-0.6,1.2-1.2
		C26.1,26.6,25.5,26.1,24.8,26.1z"/>
	<path class="st0" d="M24.8,34.7H6.2C5.5,34.7,5,35.3,5,36s0.6,1.2,1.2,1.2h18.6c0.7,0,1.2-0.6,1.2-1.2S25.5,34.7,24.8,34.7z"/>
	<path class="st0" d="M24.8,43.4H1.2C0.6,43.4,0,44,0,44.7c0,0.7,0.6,1.2,1.2,1.2h23.6c0.7,0,1.2-0.6,1.2-1.2
		C26.1,44,25.5,43.4,24.8,43.4z"/>
	<path class="st0" d="M24.8,52.1H8.7c-0.7,0-1.2,0.6-1.2,1.2c0,0.7,0.6,1.2,1.2,1.2h16.1c0.7,0,1.2-0.6,1.2-1.2
		C26.1,52.7,25.5,52.1,24.8,52.1z"/>
	<path class="st0" d="M24.8,60.8h-8.7c-0.7,0-1.2,0.6-1.2,1.2c0,0.7,0.6,1.2,1.2,1.2h8.7c0.7,0,1.2-0.6,1.2-1.2
		C26.1,61.4,25.5,60.8,24.8,60.8z"/>
</g>
</svg>
