<?xml version="1.0" encoding="utf-8"?>
<!-- Generator: Adobe Illustrator 23.0.3, SVG Export Plug-In . SVG Version: 6.00 Build 0)  -->
<svg version="1.1" id="Layer_1" xmlns="http://www.w3.org/2000/svg" xmlns:xlink="http://www.w3.org/1999/xlink" x="0px" y="0px"
	 viewBox="0 0 70 70" style="enable-background:new 0 0 70 70;" xml:space="preserve">
<style type="text/css">
	.st0{fill:#FF4F7B;}
</style>
<g>
	<g>
		<g>
			<path class="st0" d="M12.8,57.2h44.3V12.8H12.8V57.2z M15.2,15.2h39.7v39.7H15.2V15.2z"/>
			<rect x="33.8" class="st0" width="2.3" height="10.5"/>
			<polygon class="st0" points="40.8,7.4 43.2,3.9 43.2,0 40.8,0 40.8,3.2 38.5,6.6 38.5,10.5 40.8,10.5 			"/>
			<polygon class="st0" points="46.7,7.4 49,3.9 49,0 46.7,0 46.7,3.2 44.3,6.6 44.3,10.5 46.7,10.5 			"/>
			<polygon class="st0" points="52.5,7.4 54.8,3.9 54.8,0 52.5,0 52.5,3.2 50.2,6.6 50.2,10.5 52.5,10.5 			"/>
			<polygon class="st0" points="29.2,10.5 31.5,10.5 31.5,6.6 29.2,3.2 29.2,0 26.8,0 26.8,3.9 29.2,7.4 			"/>
			<polygon class="st0" points="23.3,10.5 25.7,10.5 25.7,6.6 23.3,3.2 23.3,0 21,0 21,3.9 23.3,7.4 			"/>
			<polygon class="st0" points="17.5,10.5 19.8,10.5 19.8,6.6 17.5,3.2 17.5,0 15.2,0 15.2,3.9 17.5,7.4 			"/>
			<rect y="33.8" class="st0" width="10.5" height="2.3"/>
			<polygon class="st0" points="3.9,26.8 0,26.8 0,29.2 3.2,29.2 6.6,31.5 10.5,31.5 10.5,29.2 7.4,29.2 			"/>
			<polygon class="st0" points="3.9,21 0,21 0,23.3 3.2,23.3 6.6,25.7 10.5,25.7 10.5,23.3 7.4,23.3 			"/>
			<polygon class="st0" points="3.9,15.2 0,15.2 0,17.5 3.2,17.5 6.6,19.8 10.5,19.8 10.5,17.5 7.4,17.5 			"/>
			<polygon class="st0" points="3.2,40.8 0,40.8 0,43.2 3.9,43.2 7.4,40.8 10.5,40.8 10.5,38.5 6.6,38.5 			"/>
			<polygon class="st0" points="3.2,46.7 0,46.7 0,49 3.9,49 7.4,46.7 10.5,46.7 10.5,44.3 6.6,44.3 			"/>
			<polygon class="st0" points="3.2,52.5 0,52.5 0,54.8 3.9,54.8 7.4,52.5 10.5,52.5 10.5,50.2 6.6,50.2 			"/>
			<rect x="59.5" y="33.8" class="st0" width="10.5" height="2.3"/>
			<polygon class="st0" points="62.6,29.2 59.5,29.2 59.5,31.5 63.4,31.5 66.8,29.2 70,29.2 70,26.8 66.1,26.8 			"/>
			<polygon class="st0" points="62.6,23.3 59.5,23.3 59.5,25.7 63.4,25.7 66.8,23.3 70,23.3 70,21 66.1,21 			"/>
			<polygon class="st0" points="66.1,15.2 62.6,17.5 59.5,17.5 59.5,19.8 63.4,19.8 66.8,17.5 70,17.5 70,15.2 			"/>
			<polygon class="st0" points="63.4,38.5 59.5,38.5 59.5,40.8 62.6,40.8 66.1,43.2 70,43.2 70,40.8 66.8,40.8 			"/>
			<polygon class="st0" points="63.4,44.3 59.5,44.3 59.5,46.7 62.6,46.7 66.1,49 70,49 70,46.7 66.8,46.7 			"/>
			<polygon class="st0" points="63.4,50.2 59.5,50.2 59.5,52.5 62.6,52.5 66.1,54.8 70,54.8 70,52.5 66.8,52.5 			"/>
			<rect x="33.8" y="59.5" class="st0" width="2.3" height="10.5"/>
			<polygon class="st0" points="40.8,59.5 38.5,59.5 38.5,63.4 40.8,66.8 40.8,70 43.2,70 43.2,66.1 40.8,62.6 			"/>
			<polygon class="st0" points="46.7,59.5 44.3,59.5 44.3,63.4 46.7,66.8 46.7,70 49,70 49,66.1 46.7,62.6 			"/>
			<polygon class="st0" points="52.5,59.5 50.2,59.5 50.2,63.4 52.5,66.8 52.5,70 54.8,70 54.8,66.1 52.5,62.6 			"/>
			<polygon class="st0" points="29.2,62.6 26.8,66.1 26.8,70 29.2,70 29.2,66.8 31.5,63.4 31.5,59.5 29.2,59.5 			"/>
			<polygon class="st0" points="23.3,62.6 21,66.1 21,70 23.3,70 23.3,66.8 25.7,63.4 25.7,59.5 23.3,59.5 			"/>
			<polygon class="st0" points="17.5,62.6 15.2,66.1 15.2,70 17.5,70 17.5,66.8 19.8,63.4 19.8,59.5 17.5,59.5 			"/>
			<path class="st0" d="M19.8,50.2h25.7V49c0-1.9,1.6-3.5,3.5-3.5h1.2V19.8H19.8V50.2z M22.2,22.2h25.7v21.1l0,0
				c-0.3,0.1-0.6,0.2-1,0.3c-0.1,0-0.2,0.1-0.3,0.1c-0.2,0.1-0.4,0.2-0.7,0.4c-0.1,0.1-0.2,0.1-0.3,0.2c-0.6,0.4-1,0.9-1.4,1.4
				c-0.1,0.1-0.1,0.2-0.2,0.3c-0.1,0.2-0.3,0.4-0.4,0.7c0,0.1-0.1,0.2-0.1,0.3c-0.1,0.3-0.2,0.6-0.3,1l0,0H22.2V22.2z"/>
			<rect x="47.8" y="47.8" class="st0" width="2.3" height="2.3"/>
			<rect x="38.5" y="29.2" class="st0" width="2.3" height="2.3"/>
			<rect x="33.8" y="29.2" class="st0" width="2.3" height="2.3"/>
			<rect x="29.2" y="29.2" class="st0" width="2.3" height="2.3"/>
			<rect x="38.5" y="33.8" class="st0" width="2.3" height="2.3"/>
			<rect x="33.8" y="33.8" class="st0" width="2.3" height="2.3"/>
			<rect x="29.2" y="33.8" class="st0" width="2.3" height="2.3"/>
			<rect x="38.5" y="38.5" class="st0" width="2.3" height="2.3"/>
			<rect x="33.8" y="38.5" class="st0" width="2.3" height="2.3"/>
			<rect x="29.2" y="38.5" class="st0" width="2.3" height="2.3"/>
		</g>
	</g>
</g>
</svg>
