<?xml version="1.0" encoding="utf-8"?>
<!-- Generator: Adobe Illustrator 23.0.3, SVG Export Plug-In . SVG Version: 6.00 Build 0)  -->
<svg version="1.1" id="Capa_1" xmlns="http://www.w3.org/2000/svg" xmlns:xlink="http://www.w3.org/1999/xlink" x="0px" y="0px"
	 viewBox="0 0 77.1 74" style="enable-background:new 0 0 77.1 74;" xml:space="preserve">
<style type="text/css">
	.st0{fill:#FF4F7B;}
</style>
<g>
	<g>
		<g>
			<rect x="4.8" y="47.6" class="st0" width="2.4" height="2.3"/>
		</g>
	</g>
	<g>
		<g>
			<rect x="4.8" y="57.2" class="st0" width="2.4" height="2.3"/>
		</g>
	</g>
	<g id="SVGCleanerId_0">
		<g>
			<rect x="9.6" y="57.2" class="st0" width="2.4" height="2.3"/>
		</g>
	</g>
	<g>
		<g>
			<rect x="4.8" y="66.9" class="st0" width="2.4" height="2.3"/>
		</g>
	</g>
	<g>
		<g>
			<rect x="9.6" y="47.6" class="st0" width="2.4" height="2.3"/>
		</g>
	</g>
	<g>
		<g>
			<rect x="9.6" y="57.2" class="st0" width="2.4" height="2.3"/>
		</g>
	</g>
	<g>
		<g>
			<rect x="9.6" y="66.9" class="st0" width="2.4" height="2.3"/>
		</g>
	</g>
	<g>
		<g>
			<rect x="25.3" y="47.6" class="st0" width="2.4" height="2.3"/>
		</g>
	</g>
	<g>
		<g>
			<rect x="25.3" y="57.2" class="st0" width="2.4" height="2.3"/>
		</g>
	</g>
	<g>
		<g>
			<rect x="25.3" y="66.9" class="st0" width="2.4" height="2.3"/>
		</g>
	</g>
	<g>
		<g>
			<rect x="14.4" y="47.6" class="st0" width="8.5" height="2.3"/>
		</g>
	</g>
	<g>
		<g>
			<rect x="14.4" y="57.2" class="st0" width="8.5" height="2.3"/>
		</g>
	</g>
	<g>
		<g>
			<path class="st0" d="M9.6,42.8L9.6,42.8V45h20.6v7.4H2.3V45h4.9v-2.3H0v9.7v2.3v7.4v2.3V74h22.9v-2.3H2.3v-7.4h27.9v7.4h-4.9V74
				h7.2v-9.7v-2.3v-7.4v-2.3v-9.7H9.6z M30.2,62.1H2.3v-7.4h27.9V62.1z"/>
		</g>
	</g>
	<g>
		<g>
			<rect x="14.4" y="66.9" class="st0" width="8.5" height="2.3"/>
		</g>
	</g>
	<g>
		<g>
			<path class="st0" d="M41.1,42.8v16.9v2.3v4.8h4.8v-2.3h-2.5v-2.6h31.5v2.6h-11h-9.5h-6.1v2.3h6.1v5h-2.5V74h2.5h9.5h2.5v-2.3
				h-2.5v-5h13.3v-4.8v-2.3v-9.7h-2.3v9.7H43.3V45h31.5v2.5h2.3v-4.8L41.1,42.8L41.1,42.8z M61.6,71.7h-5v-5h5V71.7z"/>
		</g>
	</g>
	<g>
		<g>
			<polygon class="st0" points="65.1,47.6 65.1,49.8 70,49.8 70,52.3 72.3,52.3 72.3,47.6 			"/>
		</g>
	</g>
	<g>
		<g>
			<rect x="70" y="54.8" class="st0" width="2.3" height="2.4"/>
		</g>
	</g>
	<g>
		<g>
			<path class="st0" d="M67.5,32.1v-7.7H53.1v2.3h12.2v5.5c-1.4,0.5-2.4,1.8-2.4,3.4c0,2,1.6,3.5,3.5,3.5s3.5-1.6,3.5-3.5
				C69.9,33.9,68.9,32.5,67.5,32.1z M66.3,36.7c-0.7,0-1.3-0.6-1.3-1.3c0-0.7,0.6-1.3,1.3-1.3s1.3,0.6,1.3,1.3S67,36.7,66.3,36.7z"
				/>
		</g>
	</g>
	<g>
		<g>
			<path class="st0" d="M24.1,26.6v-2.3H9.7v7.7c-1.4,0.5-2.4,1.8-2.4,3.4c0,2,1.6,3.5,3.5,3.5s3.5-1.6,3.5-3.5c0-1.6-1-2.9-2.4-3.4
				v-5.5H24.1z M12.1,35.4c0,0.7-0.6,1.3-1.3,1.3c-0.7,0-1.3-0.6-1.3-1.3c0-0.7,0.6-1.3,1.3-1.3C11.5,34.1,12.1,34.7,12.1,35.4z"/>
		</g>
	</g>
	<g>
		<g>
			<path class="st0" d="M45,13.6l-0.5,0.5v-1.2c0-1.8-1.5-3.2-3.2-3.2h-5.4c-1.8,0-3.2,1.5-3.2,3.2v1.5h2.3v-1.5c0-0.5,0.4-1,1-1
				h5.4c0.5,0,1,0.4,1,1v1.2l-0.5-0.5l-1.6,1.6l3.2,3.2l3.2-3.2L45,13.6z"/>
		</g>
	</g>
	<g>
		<g>
			<path class="st0" d="M42.3,19.3v1.5c0,0.5-0.4,1-1,1h-5.4c-0.5,0-1-0.4-1-1v-1.2l0.5,0.5l1.6-1.6l-3.2-3.2l-3.2,3.2l1.6,1.6
				l0.5-0.5v1.2c0,1.8,1.5,3.2,3.2,3.2h5.4c1.8,0,3.2-1.5,3.2-3.2v-1.5L42.3,19.3z"/>
		</g>
	</g>
	<g>
		<g>
			<path class="st0" d="M54.1,8.8L38.6,0L23.2,8.9l0,1.3c0,10.1,5.5,19.4,14.3,24.4l1.2,0.7l1.2-0.7c8.7-5,14.1-14.4,14.1-24.5
				L54.1,8.8z M38.8,32.7l-0.1,0.1l-0.1-0.1c-8.1-4.6-13.1-13.2-13.2-22.5l13.2-7.6l13.2,7.5C51.9,19.4,46.9,28,38.8,32.7z"/>
		</g>
	</g>
</g>
</svg>
