<?xml version="1.0" encoding="utf-8"?>
<!-- Generator: Adobe Illustrator 23.0.3, SVG Export Plug-In . SVG Version: 6.00 Build 0)  -->
<svg version="1.1" id="Icon_Set" xmlns="http://www.w3.org/2000/svg" xmlns:xlink="http://www.w3.org/1999/xlink" x="0px" y="0px"
	 viewBox="0 0 70 70" style="enable-background:new 0 0 70 70;" xml:space="preserve">
<style type="text/css">
	.st0{fill:#FF4F7B;}
</style>
<g>
	<path class="st0" d="M42,39.7v-9.3H28v9.3h5.8v1.2h-2.3v2.3h7v-2.3h-2.3v-1.2H42z M30.3,32.7h9.3v4.7h-9.3V32.7z"/>
	<g>
		<path class="st0" d="M3.5,40.8v2.3h7v-2.3H8.2v-1.2H14v-9.3H0v9.3h5.8v1.2H3.5z M2.3,32.7h9.3v4.7H2.3V32.7z"/>
		<path class="st0" d="M70,39.7v-9.3H56v9.3h5.8v1.2h-2.3v2.3h7v-2.3h-2.3v-1.2H70z M58.3,32.7h9.3v4.7h-9.3V32.7z"/>
		<path class="st0" d="M54.8,19.8h-2.3v2.3h7v-2.3h-2.3v-1.2H63V9.3H49v9.3h5.8V19.8z M51.3,11.7h9.3v4.7h-9.3V11.7z"/>
		<path class="st0" d="M12.8,19.8h-2.3v2.3h7v-2.3h-2.3v-1.2H21V9.3H7v9.3h5.8V19.8z M9.3,11.7h9.3v4.7H9.3V11.7z"/>
		<path class="st0" d="M7,60.7h5.8v1.2h-2.3v2.3h7v-2.3h-2.3v-1.2H21v-9.3H7V60.7z M9.3,53.7h9.3v4.7H9.3V53.7z"/>
		<path class="st0" d="M49,60.7h5.8v1.2h-2.3v2.3h7v-2.3h-2.3v-1.2H63v-9.3H49V60.7z M51.3,53.7h9.3v4.7h-9.3V53.7z"/>
	</g>
	<g>
		<path class="st0" d="M33.8,10.5h-2.3v2.3h7v-2.3h-2.3V9.3H42V0H28v9.3h5.8V10.5z M30.3,2.3h9.3V7h-9.3V2.3z"/>
		<path class="st0" d="M28,66.5h5.8v1.2h-2.3V70h7v-2.3h-2.3v-1.2H42v-9.3H28V66.5z M30.3,59.5h9.3v4.7h-9.3V59.5z"/>
		<path class="st0" d="M36.2,26.8V16.3c0-0.6-0.5-1.2-1.2-1.2s-1.2,0.5-1.2,1.2v10.5c0,0.6,0.5,1.2,1.2,1.2S36.2,27.5,36.2,26.8z"/>
		<path class="st0" d="M33.8,46.7v7c0,0.6,0.5,1.2,1.2,1.2s1.2-0.5,1.2-1.2v-7c0-0.6-0.5-1.2-1.2-1.2S33.8,46,33.8,46.7z"/>
	</g>
	<g>
		<path class="st0" d="M45.5,33.8c-0.6,0-1.2,0.5-1.2,1.2s0.5,1.2,1.2,1.2h7c0.6,0,1.2-0.5,1.2-1.2s-0.5-1.2-1.2-1.2H45.5z"/>
		<path class="st0" d="M17.5,33.8c-0.6,0-1.2,0.5-1.2,1.2s0.5,1.2,1.2,1.2h7c0.6,0,1.2-0.5,1.2-1.2s-0.5-1.2-1.2-1.2H17.5z"/>
		<path class="st0" d="M42.3,27.7c0.5,0.5,1.2,0.5,1.6,0l4.7-4.7c0.4-0.5,0.4-1.2,0-1.6c-0.5-0.4-1.2-0.4-1.6,0L42.3,26
			C41.9,26.5,41.9,27.2,42.3,27.7z"/>
		<path class="st0" d="M21.3,23l4.7,4.7c0.5,0.4,1.2,0.4,1.6,0c0.4-0.5,0.4-1.2,0-1.6L23,21.3c-0.5-0.4-1.2-0.4-1.6,0
			C20.9,21.8,20.9,22.5,21.3,23z"/>
		<path class="st0" d="M27.7,42.3c-0.5-0.5-1.2-0.5-1.6,0L21.3,47c-0.5,0.4-0.5,1.2,0,1.6c0.4,0.5,1.2,0.5,1.6,0c0,0,0,0,0,0
			l4.7-4.7C28.1,43.5,28.1,42.8,27.7,42.3z"/>
		<path class="st0" d="M48.7,47L44,42.3c-0.5-0.4-1.2-0.4-1.6,0c-0.4,0.5-0.4,1.2,0,1.6l4.7,4.7c0.5,0.4,1.2,0.4,1.6,0
			C49.1,48.2,49.1,47.5,48.7,47z"/>
	</g>
</g>
</svg>
