<?xml version="1.0" encoding="utf-8"?>
<!-- Generator: Adobe Illustrator 23.0.3, SVG Export Plug-In . SVG Version: 6.00 Build 0)  -->
<svg version="1.1" id="Capa_1" xmlns="http://www.w3.org/2000/svg" xmlns:xlink="http://www.w3.org/1999/xlink" x="0px" y="0px"
	 viewBox="0 0 74 74" style="enable-background:new 0 0 74 74;" xml:space="preserve">
<style type="text/css">
	.st0{fill:#FF4F7B;}
</style>
<g>
	<g>
		<g>
			<path class="st0" d="M32.1,23.4c-2,0-3.7,1.7-3.7,3.7h2.5c0-0.7,0.6-1.2,1.2-1.2c0.7,0,1.2,0.6,1.2,1.2h2.5
				C35.8,25.1,34.1,23.4,32.1,23.4z"/>
		</g>
	</g>
	<g>
		<g>
			<path class="st0" d="M41.9,23.4c-2,0-3.7,1.7-3.7,3.7h2.5c0-0.7,0.6-1.2,1.2-1.2s1.2,0.6,1.2,1.2h2.5
				C45.6,25.1,44,23.4,41.9,23.4z"/>
		</g>
	</g>
	<g>
		<g>
			<path class="st0" d="M37,56.7c-2.7,0-4.9,2.2-4.9,4.9s2.2,4.9,4.9,4.9s4.9-2.2,4.9-4.9S39.7,56.7,37,56.7z M37,64.1
				c-1.4,0-2.5-1.1-2.5-2.5c0-1.4,1.1-2.5,2.5-2.5s2.5,1.1,2.5,2.5C39.5,63,38.4,64.1,37,64.1z"/>
		</g>
	</g>
	<g>
		<g>
			<path class="st0" d="M66.6,71.5v-16c0-10.2-8.3-18.5-18.5-18.5h-1.3c0.4-0.4,0.9-0.8,1.2-1.2h1.3c3.4,0,6.2-2.8,6.2-6.2v-2.2
				c1.5-1,2.5-2.7,2.5-4.6c0-1.9-1-3.6-2.5-4.6C55.3,8.1,47.1,0,37,0S18.7,8.1,18.5,18.2c-1.5,1-2.5,2.7-2.5,4.6
				c0,3.1,2.5,5.5,5.6,5.5h0.8c0.6,3.4,2.3,6.4,4.8,8.6h-1.3C15.7,37,7.4,45.3,7.4,55.5v16H0V74h8.6h6.2h44.4h6.2H74v-2.5H66.6z
				 M53,29.6c0,1.9-1.4,3.4-3.2,3.6c0.9-1.5,1.5-3.1,1.7-4.9h0.8c0.2,0,0.4,0,0.6-0.1V29.6z M55.5,22.8c0,1.7-1.4,3.1-3.1,3.1h-0.6
				v-6.2h0.6C54.1,19.7,55.5,21.1,55.5,22.8z M22.2,25.9h-0.6c-1.7,0-3.1-1.4-3.1-3.1c0-1.7,1.4-3.1,3.1-3.1h0.6V25.9z M21.6,17.3
				c-0.2,0-0.4,0-0.6,0.1C21.6,9,28.6,2.5,37,2.5S52.4,9,53,17.3c-0.2,0-0.4-0.1-0.6-0.1h-0.8c-1.2-7-7.3-12.3-14.6-12.3
				s-13.4,5.3-14.6,12.3H21.6z M49.3,19.7c-8.9-0.3-14.8-4-14.8-7.4c0-0.7-0.6-1.2-1.2-1.2s-1.2,0.6-1.2,1.2c0,3.1-3.2,5.6-7.3,6.1
				c0.7-6.2,5.9-11,12.3-11C43.8,7.4,49.3,12.9,49.3,19.7z M24.7,25.9v-5c3.9-0.3,7.1-2.2,8.8-4.8c2.6,3.4,8.6,5.8,15.9,6.1v3.7
				c0,2.8-0.9,5.3-2.5,7.4H37v2.5h7.4c-0.7,0.5-1.5,1-2.3,1.4c-3.2,1.5-6.9,1.5-10.2,0C27.6,35.2,24.7,30.9,24.7,25.9z M33.2,40.2
				c1.2,0.3,2.5,0.5,3.8,0.5s2.6-0.2,3.8-0.5L37,47.8L33.2,40.2z M35,49.3h-2.2l-4.9-9.9h2.2L35,49.3z M43.9,39.5h2.2l-4.9,9.9H39
				L43.9,39.5z M13.6,55.5v16H9.9v-16c0-8.6,6.8-15.6,15.3-16l4.9,9.8H19.7C16.3,49.3,13.6,52.1,13.6,55.5z M58,71.5H16v-16
				c0-2,1.7-3.7,3.7-3.7h12.3H37h4.9h12.3c2,0,3.7,1.7,3.7,3.7V71.5z M64.1,71.5h-3.7v-16c0-3.4-2.8-6.2-6.2-6.2H43.9l4.9-9.8
				c8.5,0.4,15.3,7.4,15.3,16V71.5z"/>
		</g>
	</g>
	<g>
		<g>
			<rect x="53" y="60.4" class="st0" width="2.5" height="8.6"/>
		</g>
	</g>
	<g>
		<g>
			<rect x="53" y="55.5" class="st0" width="2.5" height="2.5"/>
		</g>
	</g>
	<g>
		<g>
			<rect x="64.1" y="11.1" class="st0" width="2.5" height="2.5"/>
		</g>
	</g>
	<g>
		<g>
			<rect x="64.1" y="16" class="st0" width="2.5" height="2.5"/>
		</g>
	</g>
	<g>
		<g>
			<rect x="64.1" y="21" class="st0" width="2.5" height="2.5"/>
		</g>
	</g>
	<g>
		<g>
			<rect x="7.4" y="25.9" class="st0" width="2.5" height="2.5"/>
		</g>
	</g>
	<g>
		<g>
			<rect x="7.4" y="30.8" class="st0" width="2.5" height="2.5"/>
		</g>
	</g>
	<g>
		<g>
			<rect x="7.4" y="35.8" class="st0" width="2.5" height="2.5"/>
		</g>
	</g>
</g>
</svg>
