<?xml version="1.0" encoding="utf-8"?>
<!-- Generator: Adobe Illustrator 23.0.3, SVG Export Plug-In . SVG Version: 6.00 Build 0)  -->
<svg version="1.1" id="Icon_Set" xmlns="http://www.w3.org/2000/svg" xmlns:xlink="http://www.w3.org/1999/xlink" x="0px" y="0px"
	 viewBox="0 0 70 70" style="enable-background:new 0 0 70 70;" xml:space="preserve">
<style type="text/css">
	.st0{fill:#FF4F7B;}
</style>
<g>
	<path class="st0" d="M66.7,31.7c-1.4,0-2.6,0.9-3.1,2.2h-3.5c-0.2-5.5-2.2-10.5-5.4-14.5v-8.4h2.4c0.5,1.3,1.7,2.2,3.1,2.2
		c1.8,0,3.3-1.5,3.3-3.3S62,6.6,60.2,6.6c-1.4,0-2.6,0.9-3.1,2.2h-3.5c-0.6,0-1.1,0.5-1.1,1.1V17c-4.3-4.2-10-6.8-16.4-7.1V6.4
		c1.3-0.5,2.2-1.7,2.2-3.1C38.3,1.5,36.8,0,35,0c-1.8,0-3.3,1.5-3.3,3.3c0,1.4,0.9,2.6,2.2,3.1v3.5c-5.5,0.2-10.5,2.2-14.5,5.4h-8.4
		v-2.4c1.3-0.5,2.2-1.7,2.2-3.1c0-1.8-1.5-3.3-3.3-3.3S6.6,8,6.6,9.8c0,1.4,0.9,2.6,2.2,3.1v3.5c0,0.6,0.5,1.1,1.1,1.1H17
		c-4.2,4.3-6.8,10-7.1,16.4H6.4c-0.5-1.3-1.7-2.2-3.1-2.2C1.5,31.7,0,33.2,0,35c0,1.8,1.5,3.3,3.3,3.3c1.4,0,2.6-0.9,3.1-2.2h3.5
		c0.2,5.5,2.2,10.5,5.4,14.5v8.4h-2.4c-0.5-1.3-1.7-2.2-3.1-2.2c-1.8,0-3.3,1.5-3.3,3.3c0,1.8,1.5,3.3,3.3,3.3
		c1.4,0,2.6-0.9,3.1-2.2h3.5c0.6,0,1.1-0.5,1.1-1.1V53c4.3,4.2,10,6.8,16.4,7.1v3.5c-1.3,0.5-2.2,1.7-2.2,3.1c0,1.8,1.5,3.3,3.3,3.3
		c1.8,0,3.3-1.5,3.3-3.3c0-1.4-0.9-2.6-2.2-3.1v-3.5c5.5-0.2,10.5-2.2,14.5-5.4h8.4v2.4c-1.3,0.5-2.2,1.7-2.2,3.1
		c0,1.8,1.5,3.3,3.3,3.3c1.8,0,3.3-1.5,3.3-3.3c0-1.4-0.9-2.6-2.2-3.1v-3.5c0-0.6-0.5-1.1-1.1-1.1H53c4.2-4.3,6.8-10,7.1-16.4h3.5
		c0.5,1.3,1.7,2.2,3.1,2.2c1.8,0,3.3-1.5,3.3-3.3C70,33.2,68.5,31.7,66.7,31.7z M60.2,8.7c0.6,0,1.1,0.5,1.1,1.1s-0.5,1.1-1.1,1.1
		c-0.6,0-1.1-0.5-1.1-1.1S59.6,8.7,60.2,8.7z M9.8,10.9c-0.6,0-1.1-0.5-1.1-1.1s0.5-1.1,1.1-1.1c0.6,0,1.1,0.5,1.1,1.1
		S10.4,10.9,9.8,10.9z M3.3,36.1c-0.6,0-1.1-0.5-1.1-1.1c0-0.6,0.5-1.1,1.1-1.1s1.1,0.5,1.1,1.1S3.9,36.1,3.3,36.1z M9.8,61.2
		c-0.6,0-1.1-0.5-1.1-1.1c0-0.6,0.5-1.1,1.1-1.1c0.6,0,1.1,0.5,1.1,1.1C10.9,60.8,10.4,61.2,9.8,61.2z M60.2,59.1
		c0.6,0,1.1,0.5,1.1,1.1c0,0.6-0.5,1.1-1.1,1.1c-0.6,0-1.1-0.5-1.1-1.1C59.1,59.6,59.6,59.1,60.2,59.1z M55.2,24.1
		c1.6,2.9,2.6,6.3,2.7,9.8h-6.5c-0.1-3.5-0.8-6.8-2-9.8H55.2z M53.8,21.9h-5.4c-1.8-3.7-4.3-6.8-7.3-9
		C46.3,14.3,50.8,17.6,53.8,21.9z M35,2.2c0.6,0,1.1,0.5,1.1,1.1S35.6,4.4,35,4.4c-0.6,0-1.1-0.5-1.1-1.1S34.4,2.2,35,2.2z
		 M28.9,12.9c-3,2.2-5.5,5.3-7.3,9h-5.4C19.2,17.6,23.7,14.3,28.9,12.9z M14.8,24.1h5.8c-1.2,3-1.9,6.4-2,9.8h-6.5
		C12.3,30.4,13.2,27,14.8,24.1z M14.8,45.9c-1.6-2.9-2.6-6.3-2.7-9.8h6.5c0.1,3.5,0.8,6.8,2,9.8H14.8z M16.2,48.1h5.4
		c1.8,3.7,4.3,6.8,7.3,9C23.7,55.7,19.2,52.4,16.2,48.1z M35,67.8c-0.6,0-1.1-0.5-1.1-1.1c0-0.6,0.5-1.1,1.1-1.1s1.1,0.5,1.1,1.1
		C36.1,67.3,35.6,67.8,35,67.8z M33.9,52.5v5C26.1,54.2,20.8,45.2,20.8,35s5.3-19.2,13.1-22.5v5h2.2v-5c7.8,3.2,13.1,12.2,13.1,22.5
		s-5.3,19.2-13.1,22.5v-5H33.9z M41.1,57.1c3-2.2,5.5-5.3,7.3-9h5.4C50.8,52.4,46.3,55.7,41.1,57.1z M55.2,45.9h-5.8
		c1.2-3,1.9-6.4,2-9.8h6.5C57.7,39.6,56.8,43,55.2,45.9z M66.7,36.1c-0.6,0-1.1-0.5-1.1-1.1c0-0.6,0.5-1.1,1.1-1.1
		c0.6,0,1.1,0.5,1.1,1.1S67.3,36.1,66.7,36.1z"/>
	<g>
		<path class="st0" d="M46.3,26.3L35.4,22c-0.3-0.1-0.6-0.1-0.8,0l-10.9,4.4c-0.4,0.2-0.7,0.6-0.7,1v14.2c0,0.4,0.2,0.8,0.6,1
			L34.5,48c0.2,0.1,0.3,0.1,0.5,0.1c0.2,0,0.3,0,0.5-0.1l10.9-5.5c0.4-0.2,0.6-0.6,0.6-1V27.3C47,26.9,46.8,26.5,46.3,26.3z
			 M44.8,40.9L35,45.8l-9.8-4.9V28.1l9.8-3.9l9.8,3.9V40.9z"/>
	</g>
	<circle class="st0" cx="35" cy="35" r="5.2"/>
	<g>
		<rect x="33.9" y="23.2" class="st0" width="2.2" height="6.7"/>
		<rect x="33.9" y="39.6" class="st0" width="2.2" height="6.7"/>
	</g>
	<g>
		
			<rect x="42.1" y="31.4" transform="matrix(-1.836970e-16 1 -1 -1.836970e-16 77.9086 -8.4237)" class="st0" width="2.2" height="6.7"/>
		
			<rect x="25.7" y="31.4" transform="matrix(-1.836970e-16 1 -1 -1.836970e-16 61.5752 7.9097)" class="st0" width="2.2" height="6.7"/>
	</g>
</g>
</svg>
