<?xml version="1.0" encoding="utf-8"?>
<!-- Generator: Adobe Illustrator 23.0.3, SVG Export Plug-In . SVG Version: 6.00 Build 0)  -->
<svg version="1.1" id="Icon_Set" xmlns="http://www.w3.org/2000/svg" xmlns:xlink="http://www.w3.org/1999/xlink" x="0px" y="0px"
	 viewBox="0 0 76 67" style="enable-background:new 0 0 76 67;" xml:space="preserve">
<style type="text/css">
	.st0{fill:#FF4F7B;}
</style>
<g>
	<g id="XMLID_864_">
		<path class="st0" d="M26.2,67H0V0h26.2V67z M2.2,64.8h21.9V2.2H2.2V64.8z"/>
	</g>
	<g>
		<g id="XMLID_863_">
			<rect x="5.5" y="19.2" class="st0" width="15.3" height="2.2"/>
		</g>
		<g id="XMLID_862_">
			<rect x="5.5" y="28" class="st0" width="15.3" height="2.2"/>
		</g>
		<g id="XMLID_861_">
			<rect x="5.5" y="36.7" class="st0" width="15.3" height="2.2"/>
		</g>
		<g id="XMLID_860_">
			<rect x="5.5" y="41.1" class="st0" width="15.3" height="2.2"/>
		</g>
		<g id="XMLID_859_">
			<rect x="5.5" y="32.4" class="st0" width="15.3" height="2.2"/>
		</g>
		<g id="XMLID_5_">
			<rect x="5.5" y="14.4" class="st0" width="15.3" height="2.2"/>
		</g>
		<g id="XMLID_6_">
			<rect x="5.5" y="9.4" class="st0" width="15.3" height="2.2"/>
		</g>
		<g id="XMLID_858_">
			<rect x="5.5" y="45.5" class="st0" width="15.3" height="2.2"/>
			<line class="st0" x1="20.8" y1="47.7" x2="5.5" y2="47.7"/>
		</g>
		<g id="XMLID_1_">
			<rect x="5.5" y="55.5" class="st0" width="15.3" height="2.2"/>
			<line class="st0" x1="20.8" y1="57.7" x2="5.5" y2="57.7"/>
		</g>
		<g id="XMLID_2_">
			<rect x="5.5" y="50.5" class="st0" width="15.3" height="2.2"/>
			<line class="st0" x1="20.8" y1="52.7" x2="5.5" y2="52.7"/>
		</g>
		<g id="XMLID_857_">
			<rect x="10.9" y="23.6" class="st0" width="4.4" height="2.2"/>
		</g>
	</g>
	<g id="XMLID_850_">
		<path class="st0" d="M76,67H49.8V0H76V67z M51.9,64.8h21.9V2.2H51.9V64.8z"/>
	</g>
	<g>
		<g id="XMLID_849_">
			<rect x="55.2" y="56" class="st0" width="15.3" height="2.2"/>
		</g>
		<g id="XMLID_848_">
			<rect x="55.2" y="47.3" class="st0" width="15.3" height="2.2"/>
		</g>
		<g id="XMLID_847_">
			<rect x="55.2" y="38.5" class="st0" width="15.3" height="2.2"/>
		</g>
		<g id="XMLID_846_">
			<rect x="55.2" y="34.2" class="st0" width="15.3" height="2.2"/>
		</g>
		<g id="XMLID_845_">
			<rect x="55.2" y="42.9" class="st0" width="15.3" height="2.2"/>
		</g>
		<g id="XMLID_844_">
			<rect x="55.2" y="29.8" class="st0" width="15.3" height="2.2"/>
		</g>
		<g id="XMLID_3_">
			<rect x="55.2" y="19.8" class="st0" width="15.3" height="2.2"/>
		</g>
		<g id="XMLID_7_">
			<rect x="55.2" y="13.8" class="st0" width="15.3" height="2.2"/>
		</g>
		<g id="XMLID_8_">
			<rect x="55.2" y="8.8" class="st0" width="15.3" height="2.2"/>
		</g>
		<g id="XMLID_4_">
			<rect x="55.2" y="24.8" class="st0" width="15.3" height="2.2"/>
		</g>
		<g id="XMLID_843_">
			<rect x="60.7" y="51.7" class="st0" width="4.4" height="2.2"/>
		</g>
	</g>
	<g>
		<polygon class="st0" points="39.4,31.6 41,33.2 45,29.1 41,25.1 39.4,26.6 40.8,28 31.4,28 31.4,30.2 40.8,30.2 		"/>
		<polygon class="st0" points="36.6,35.4 35,33.8 31,37.9 35,41.9 36.6,40.4 35.2,39 44.6,39 44.6,36.8 35.2,36.8 		"/>
	</g>
</g>
</svg>
