<?xml version="1.0" encoding="utf-8"?>
<!-- Generator: Adobe Illustrator 23.0.3, SVG Export Plug-In . SVG Version: 6.00 Build 0)  -->
<svg version="1.1" id="Capa_1" xmlns="http://www.w3.org/2000/svg" xmlns:xlink="http://www.w3.org/1999/xlink" x="0px" y="0px"
	 viewBox="0 0 50 50" style="enable-background:new 0 0 50 50;" xml:space="preserve">
<style type="text/css">
	.st0{fill:#FFFFFF;}
</style>
<g>
	<rect x="4.2" y="28.1" class="st0" width="41.7" height="2.1"/>
	<path class="st0" d="M33.3,44.7l-1-8.3c-0.1-0.5-0.5-0.9-1-0.9H18.8c-0.5,0-1,0.4-1,0.9l-1,8.3v0.1c0,0.6,0.5,1,1,1h14.6h0.1
		C33,45.8,33.4,45.2,33.3,44.7z M18.9,43.8l0.8-6.2h10.7l0.8,6.2H18.9z"/>
	<path class="st0" d="M35.4,43.8H14.6c-0.6,0-1,0.5-1,1v3.1c0,1.2,0.9,2.1,2.1,2.1h18.7c1.2,0,2.1-0.9,2.1-2.1v-3.1
		C36.5,44.2,36,43.8,35.4,43.8z M34.4,47.9H15.7v-2.1h18.7V47.9z"/>
	<path class="st0" d="M47.9,22.9v11.5c0,0.6-0.5,1-1,1H3.2c-0.6,0-1-0.5-1-1V3.2c0-0.6,0.5-1,1-1h24V0h-24C1.5,0,0.1,1.4,0.1,3.1
		v31.2c0,1.7,1.4,3.1,3.1,3.1h43.7c1.7,0,3.1-1.4,3.1-3.1V22.8L47.9,22.9L47.9,22.9z"/>
	<rect x="11.5" y="47.9" class="st0" width="27.1" height="2.1"/>
	<path class="st0" d="M6.3,5.2c-0.6,0-1,0.5-1,1V26h2.1V7.3H24V5.2L6.3,5.2L6.3,5.2z"/>
	<path class="st0" d="M49,9.4h-2.6c-0.1-0.3-0.2-0.6-0.4-0.9l1.9-1.9c0.4-0.4,0.4-1.1,0-1.5L45,2.2c-0.4-0.4-1.1-0.4-1.5,0l-1.9,1.9
		C41.3,4,41,3.8,40.7,3.7V1c0-0.6-0.5-1-1-1h-4.2c-0.6,0-1,0.5-1,1v2.6c-0.3,0.1-0.6,0.2-0.9,0.4l-1.9-1.9c-0.4-0.4-1.1-0.4-1.5,0
		L27.3,5c-0.4,0.4-0.4,1.1,0,1.5l1.9,1.9c-0.1,0.3-0.3,0.6-0.4,0.9H26c-0.6,0-1,0.5-1,1v4.2c0,0.6,0.5,1,1,1h2.6
		c0.1,0.3,0.2,0.6,0.4,0.9l-1.9,1.9c-0.4,0.4-0.4,1.1,0,1.5l2.9,2.9c0.4,0.4,1.1,0.4,1.5,0l1.9-1.9c0.3,0.1,0.6,0.3,0.9,0.4v2.6
		c0,0.6,0.5,1,1,1h4.2c0.6,0,1-0.5,1-1v-2.6c0.3-0.1,0.6-0.2,0.9-0.4l1.9,1.9c0.4,0.4,1.1,0.4,1.5,0l2.9-2.9c0.4-0.4,0.4-1.1,0-1.5
		l-1.9-1.9c0.1-0.3,0.3-0.6,0.4-0.9h2.6c0.6,0,1-0.5,1-1v-4.2C50,9.8,49.5,9.4,49,9.4z M47.9,13.5h-2.4c-0.5,0-0.9,0.3-1,0.8
		c-0.2,0.7-0.4,1.3-0.8,1.9c-0.2,0.4-0.2,0.9,0.2,1.3l1.7,1.7l-1.5,1.5L42.4,19c-0.3-0.3-0.9-0.4-1.3-0.2c-0.6,0.3-1.2,0.6-1.9,0.8
		c-0.5,0.1-0.8,0.5-0.8,1V23h-2.1v-2.4c0-0.5-0.3-0.9-0.8-1c-0.7-0.2-1.3-0.4-1.9-0.8c-0.4-0.2-0.9-0.2-1.3,0.2l-1.7,1.7l-1.5-1.5
		l1.7-1.7c0.3-0.3,0.4-0.9,0.2-1.3c-0.3-0.6-0.6-1.2-0.8-1.9c-0.1-0.5-0.5-0.8-1-0.8h-2.4v-2.1h2.4c0.5,0,0.9-0.3,1-0.8
		c0.2-0.7,0.4-1.3,0.8-1.9c0.2-0.4,0.2-0.9-0.2-1.3l-1.7-1.7l1.5-1.5l1.7,1.7c0.3,0.3,0.9,0.4,1.3,0.2c0.6-0.3,1.2-0.6,1.9-0.8
		c0.5-0.1,0.8-0.5,0.8-1V1.9h2.1v2.4c0,0.5,0.3,0.9,0.8,1c0.7,0.2,1.3,0.4,1.9,0.8c0.4,0.2,0.9,0.2,1.3-0.2l1.7-1.7l1.5,1.5
		l-1.7,1.7c-0.3,0.3-0.4,0.9-0.2,1.3c0.3,0.6,0.6,1.2,0.8,1.9c0.1,0.5,0.5,0.8,1,0.8h2.4V13.5L47.9,13.5z"/>
	<path class="st0" d="M37.5,8.3c-2.3,0-4.2,1.9-4.2,4.2c0,2.3,1.9,4.2,4.2,4.2s4.2-1.9,4.2-4.2C41.7,10.2,39.8,8.3,37.5,8.3z
		 M37.5,14.6c-1.2,0-2.1-0.9-2.1-2.1s0.9-2.1,2.1-2.1c1.2,0,2.1,0.9,2.1,2.1S38.7,14.6,37.5,14.6z"/>
	<path class="st0" d="M20.8,9.4H10.4c-0.6,0-1,0.5-1,1v4.2c0,0.6,0.5,1,1,1h10.4c0.6,0,1-0.5,1-1v-4.2C21.9,9.8,21.4,9.4,20.8,9.4z
		 M19.8,13.5h-8.3v-2.1h8.3V13.5z"/>
	<rect x="9.4" y="17.7" class="st0" width="2.1" height="2.1"/>
	<rect x="13.5" y="17.7" class="st0" width="2.1" height="2.1"/>
	<rect x="9.4" y="21.9" class="st0" width="12.5" height="2.1"/>
</g>
</svg>
