<?xml version="1.0" encoding="utf-8"?>
<!-- Generator: Adobe Illustrator 23.0.3, SVG Export Plug-In . SVG Version: 6.00 Build 0)  -->
<svg version="1.1" id="Capa_1" xmlns="http://www.w3.org/2000/svg" xmlns:xlink="http://www.w3.org/1999/xlink" x="0px" y="0px"
	 viewBox="0 0 52.1 50" style="enable-background:new 0 0 52.1 50;" xml:space="preserve">
<style type="text/css">
	.st0{fill:#FFFFFF;}
</style>
<g>
	<g>
		<path class="st0" d="M51.3,8.2c-0.6-0.8-1.5-1.2-2.5-1.3V3.3c0-1.8-1.5-3.3-3.3-3.3h-39C4.7,0,3.2,1.5,3.2,3.3v3.6
			C2.2,7,1.4,7.5,0.7,8.2c-0.7,0.9-1,2-0.8,3.1l3.3,17.2L1.9,46.4c-0.1,0.9,0.3,1.8,0.9,2.5S4.3,50,5.2,50h41.4
			c0.9,0,1.8-0.4,2.4-1.1s1-1.6,0.9-2.5l-1.3-17.9l3.3-17.2C52.3,10.2,52,9.1,51.3,8.2z M5.5,3.3c0-0.6,0.5-1.1,1.1-1.1h39
			c0.6,0,1.1,0.5,1.1,1.1v3.6H5.4L5.5,3.3L5.5,3.3z M50,10.9l-3.2,16.5h-7.4c-0.6,0-1.1,0.5-1.1,1.1s0.5,1.1,1.1,1.1h7.3L48,46.7
			c0,0.3-0.1,0.7-0.3,0.9c-0.2,0.3-0.6,0.4-0.9,0.4H5.4c-0.3,0-0.7-0.1-0.9-0.4c-0.2-0.3-0.4-0.6-0.3-0.9l1.3-17.1h8
			c0.6,0,1.1-0.5,1.1-1.1s-0.5-1.1-1.1-1.1H5.4L2.2,10.9c-0.1-0.5,0-0.9,0.3-1.3S3.3,9,3.7,9h44.7c0.5,0,0.9,0.2,1.2,0.6
			C50,9.9,50.1,10.4,50,10.9z"/>
	</g>
	<g>
		<path class="st0" d="M31.6,27.4h-5.7c-0.6,0-1.1,0.5-1.1,1.1s0.5,1.1,1.1,1.1h5.7c0.6,0,1.1-0.5,1.1-1.1
			C32.6,27.9,32.2,27.4,31.6,27.4z"/>
	</g>
	<g>
		<path class="st0" d="M22.5,29c1.7-1.1,2.8-3,2.8-5.1c0-3.4-2.8-6.1-6.3-6.1s-6.3,2.8-6.3,6.1c0,0.6,0.5,1.1,1.1,1.1
			s1.1-0.5,1.1-1.1c0-2.2,1.9-4,4.2-4s4.2,1.8,4.2,4s-1.9,4-4.2,4h-2c-0.6,0-1.1,0.5-1.1,1.1s0.5,1.1,1.1,1.1h2c2.3,0,4.2,1.8,4.2,4
			s-1.9,4-4.2,4s-4.2-1.8-4.2-4c0-0.6-0.5-1.1-1.1-1.1s-1.1,0.5-1.1,1.1c0,3.4,2.8,6.1,6.3,6.1s6.3-2.8,6.3-6.1
			C25.3,32,24.2,30.1,22.5,29z"/>
	</g>
	<g>
		<path class="st0" d="M36.2,17.9c-0.3-0.2-0.7-0.2-1.1,0l-5.8,3.4c-0.5,0.3-0.7,0.9-0.4,1.4c0.3,0.5,0.9,0.7,1.4,0.4l4.2-2.5v18.5
			c0,0.6,0.5,1.1,1.1,1.1s1.1-0.5,1.1-1.1V18.7C36.7,18.4,36.5,18.1,36.2,17.9z"/>
	</g>
	<g>
		<circle class="st0" cx="36.9" cy="4.4" r="1.1"/>
	</g>
	<g>
		<circle class="st0" cx="15.6" cy="4.4" r="1.1"/>
	</g>
</g>
</svg>
