<?xml version="1.0" encoding="utf-8"?>
<!-- Generator: Adobe Illustrator 23.0.3, SVG Export Plug-In . SVG Version: 6.00 Build 0)  -->
<svg version="1.1" id="Capa_1" xmlns="http://www.w3.org/2000/svg" xmlns:xlink="http://www.w3.org/1999/xlink" x="0px" y="0px"
	 viewBox="0 0 36.8 50" style="enable-background:new 0 0 36.8 50;" xml:space="preserve">
<style type="text/css">
	.st0{fill:#FFFFFF;}
</style>
<g>
	<path class="st0" d="M36.5,13.4L23.3,0.2c-0.2-0.2-0.4-0.3-0.7-0.3H4.1C1.8-0.1,0,1.7,0,4v41.8c0,2.3,1.8,4.1,4.1,4.1h28.6
		c2.3,0,4.1-1.8,4.1-4.1V14C36.8,13.8,36.7,13.6,36.5,13.4z M23.6,3.3l9.8,9.8h-7.7c-1.2,0-2.1-0.9-2.1-2.1L23.6,3.3L23.6,3.3z
		 M34.8,45.9c0,1.2-0.9,2.1-2.1,2.1H4.1C2.9,48,2,47.1,2,45.9V4c0-1.2,0.9-2.1,2.1-2.1h17.5V11c0,2.3,1.8,4.1,4.1,4.1h9.1V45.9
		L34.8,45.9z"/>
</g>
<g>
	<path class="st0" d="M26,24.9H10.8c-0.5,0-1,0.4-1,1v13.2c0,0.5,0.4,1,1,1H26c0.5,0,1-0.4,1-1V25.9C27,25.3,26.5,24.9,26,24.9z
		 M11.8,26.8h5.6v2.4h-5.6V26.8z M17.4,38.1h-5.6v-2.4h5.6V38.1z M17.4,33.7L17.4,33.7h-5.6v-2.5h5.6V33.7z M25,38.1h-5.6v-2.4H25
		V38.1z M25,33.7h-5.6v-2.5H25V33.7z M25,29.2h-5.6v-2.4H25V29.2z"/>
</g>
</svg>
