<?xml version="1.0" encoding="utf-8"?>
<!-- Generator: Adobe Illustrator 23.0.3, SVG Export Plug-In . SVG Version: 6.00 Build 0)  -->
<svg version="1.1" id="Capa_1" xmlns="http://www.w3.org/2000/svg" xmlns:xlink="http://www.w3.org/1999/xlink" x="0px" y="0px"
	 viewBox="0 0 48.5 50" style="enable-background:new 0 0 48.5 50;" xml:space="preserve">
<style type="text/css">
	.st0{fill:#FFFFFF;}
</style>
<g>
	<path class="st0" d="M48.5,20c0-0.1,0-0.1,0-0.2v-0.1c0,0,0-0.1-0.1-0.1l-0.1-0.1l0,0l-7.8-6V7.2c0-1.3-1.1-2.4-2.4-2.4h-8.8
		l-3.5-4.2c-0.9-0.7-2.1-0.7-2.9,0l-3.5,4.2h-8.8c-1.3,0-2.4,1.1-2.4,2.4v6.3l-7.8,6l0,0l-0.1,0.1l-0.1,0.1v0.1c0,0.1,0,0.1,0,0.2
		l0,0v27.5c0,0.5,0.2,1,0.5,1.4l0,0l0,0c0.5,0.6,1.2,1,1.9,1h43.7c0.8,0,1.5-0.4,1.9-1l0,0l0,0c0.3-0.4,0.5-0.9,0.5-1.4L48.5,20
		C48.5,20.1,48.5,20.1,48.5,20z M23.8,1.8c0.3-0.2,0.7-0.2,1,0l1.9,2.9H22L23.8,1.8z M2.6,48.4L23.8,32c0.3-0.2,0.7-0.2,1,0L46,48.4
		H2.6z M46.9,47.1L25.7,30.7c-0.9-0.7-2.1-0.7-2.9,0L1.6,47.1V21.3l13.3,10.3c0.4,0.3,0.9,0.2,1.1-0.1c0.3-0.4,0.2-0.9-0.1-1.1
		L2.4,19.9l5.7-4.4v10.2c0,0.4,0.4,0.8,0.8,0.8s0.8-0.4,0.8-0.8V7.2c0-0.4,0.4-0.8,0.8-0.8H38c0.4,0,0.8,0.4,0.8,0.8v18.5
		c0,0.4,0.4,0.8,0.8,0.8s0.8-0.4,0.8-0.8V15.5l5.7,4.4L32.6,30.4c-0.2,0.2-0.4,0.5-0.3,0.8c0,0.3,0.2,0.5,0.5,0.6s0.6,0.1,0.8-0.1
		l13.3-10.3L46.9,47.1L46.9,47.1z"/>
	<path class="st0" d="M34,20.9v-3.2c0-5.4-4.3-9.7-9.7-9.7c-5.4,0-9.7,4.3-9.7,9.7c0,5.4,4.3,9.7,9.7,9.7c0.4,0,0.8-0.4,0.8-0.8
		s-0.4-0.8-0.8-0.8c-4.5,0-8.1-3.6-8.1-8.1s3.6-8.1,8.1-8.1s8.1,3.6,8.1,8.1v3.2c0,0.9-0.7,1.6-1.6,1.6s-1.6-0.7-1.6-1.6v-3.2
		c0-0.4-0.4-0.8-0.8-0.8s-0.8,0.4-0.8,0.8c0,1.8-1.4,3.2-3.2,3.2c-1.8,0-3.2-1.4-3.2-3.2c0-1.8,1.4-3.2,3.2-3.2
		c0.4,0,0.8-0.4,0.8-0.8s-0.4-0.8-0.8-0.8c-2.2,0-4.1,1.4-4.7,3.5s0.3,4.3,2.1,5.5c1.8,1.1,4.2,0.9,5.8-0.6c0.2,1.7,1.7,3,3.4,2.9
		C32.6,24,34,22.6,34,20.9z"/>
</g>
</svg>
