<?xml version="1.0" encoding="utf-8"?>
<!-- Generator: Adobe Illustrator 23.0.3, SVG Export Plug-In . SVG Version: 6.00 Build 0)  -->
<svg version="1.1" id="Capa_1" xmlns="http://www.w3.org/2000/svg" xmlns:xlink="http://www.w3.org/1999/xlink" x="0px" y="0px"
	 viewBox="0 0 42.4 50" style="enable-background:new 0 0 42.4 50;" xml:space="preserve">
<style type="text/css">
	.st0{fill:#FFFFFF;}
</style>
<g>
	<path class="st0" d="M37.2,38.2c3.4-5,5.2-11,5.2-17C42.4,9.5,32.9,0,21.2,0C9.5,0,0,9.5,0,21.2c0,11.1,8.6,20.3,19.6,21.1v6
		c0,0.5,0.3,1,0.7,1.3c0.4,0.3,1,0.4,1.5,0.2C28.1,47.8,33.5,43.7,37.2,38.2z M20.5,40.2c-11.1,0-19.3-9.4-18.6-20.6
		C2.5,10,10.3,2.2,20,1.5c11.2-0.7,20.6,8.2,20.6,19.3c0,9.8-6.1,21.6-18.3,26.8l-0.1-5.7c0-0.7-0.5-1.4-1.2-1.6
		C20.8,40.3,20.7,40.2,20.5,40.2z"/>
	<path class="st0" d="M18.1,15.5h-6.2c-0.9,0-1.6,0.7-1.6,1.6v6.2c0,0.9,0.7,1.6,1.6,1.6h4.6c-0.1,1.4-1,2.6-2.2,3.3
		c-0.8,0.4-1.1,1.3-0.7,2.1c0.4,0.8,1.3,1.1,2.1,0.7c2.4-1.2,4-3.7,4-6.4c0-1.7,0-5.7,0-7.4C19.6,16.2,18.9,15.5,18.1,15.5z
		 M16.5,21.7h-3.1v-3.1h3.1V21.7z"/>
	<path class="st0" d="M30.5,15.5h-6.2c-0.9,0-1.6,0.7-1.6,1.6v6.2c0,0.9,0.7,1.6,1.6,1.6h4.6c-0.1,1.4-1,2.6-2.2,3.3
		c-0.8,0.4-1.1,1.3-0.7,2.1c0.4,0.8,1.3,1.1,2.1,0.7c2.4-1.2,4-3.7,4-6.4c0-1.7,0-5.7,0-7.4C32,16.2,31.3,15.5,30.5,15.5z
		 M28.9,21.7h-3.1v-3.1h3.1V21.7z"/>
</g>
</svg>
