<?xml version="1.0" encoding="utf-8"?>
<!-- Generator: Adobe Illustrator 23.0.3, SVG Export Plug-In . SVG Version: 6.00 Build 0)  -->
<svg version="1.1" id="Capa_1" xmlns="http://www.w3.org/2000/svg" xmlns:xlink="http://www.w3.org/1999/xlink" x="0px" y="0px"
	 viewBox="0 0 56.4 50" style="enable-background:new 0 0 56.4 50;" xml:space="preserve">
<style type="text/css">
	.st0{fill:#FFFFFF;}
</style>
<g>
	<g>
		<path class="st0" d="M37,2l14.8,25.7H39.6L24.8,2H37 M38.1,0H21.3l17.1,29.7h16.8L38.1,0L38.1,0z"/>
	</g>
	<g>
		<path class="st0" d="M53,37.1L46.8,48H19l6.2-10.9H53 M56.5,35.1L56.5,35.1L56.5,35.1z M56.5,35.1H24.1L15.7,50h32.4L56.5,35.1
			L56.5,35.1z"/>
	</g>
	<g>
		<path class="st0" d="M16.2,7.7l6.3,10.9L8.5,43L2.4,32.2L16.2,7.7 M16.1,3.7L0,32.2l8.4,14.9l16.3-28.5L16.1,3.7L16.1,3.7z"/>
	</g>
</g>
</svg>
