<?xml version="1.0" encoding="utf-8"?>
<!-- Generator: Adobe Illustrator 23.0.3, SVG Export Plug-In . SVG Version: 6.00 Build 0)  -->
<svg version="1.1" id="Capa_1" xmlns="http://www.w3.org/2000/svg" xmlns:xlink="http://www.w3.org/1999/xlink" x="0px" y="0px"
	 viewBox="0 0 56 50" style="enable-background:new 0 0 56 50;" xml:space="preserve">
<style type="text/css">
	.st0{fill:#FFFFFF;}
</style>
<g>
	<path class="st0" d="M43.7,33.5c-0.4-0.4-1.1-0.4-1.5,0s-0.4,1.1,0,1.5l1.7,1.6c0.2,0.2,0.5,0.3,0.8,0.3l0,0c0.3,0,0.6-0.1,0.8-0.3
		l5.1-5.3c0.4-0.4,0.4-1.1,0-1.5s-1.1-0.4-1.5,0l-4.4,4.5L43.7,33.5z"/>
	<path class="st0" d="M51.5,20.1c2.5,0,4.5-2,4.5-4.3V4.4c0-2.4-2-4.3-4.5-4.3H8.8c-2.5,0-4.5,2-4.5,4.3v2.9
		c-2.5,0.1-4.4,2.1-4.4,4.5v25.1c0,2.5,2,4.5,4.5,4.5h13.7l-0.5,2.3h-2.1c-1.8,0-3.2,1.4-3.2,3.2c0,1.8,1.4,3.2,3.2,3.2h16.1
		c1.8,0,3.2-1.4,3.2-3.2c0-1.8-1.4-3.2-3.2-3.2h-2.1L29,41.4h10.6c0.5,0.6,1,1.2,1.7,1.8c0.3,0.3,1.1,1,2,1.6
		c1.6,1.3,2.2,1.5,2.7,1.5c0,0,0.1,0,0.2,0c0.5,0,1.7-0.2,4.2-2.6c1.6-1.5,3-3.2,3.8-4.5c2.2-4,2-9.7,1.7-12.8
		c0-0.4-0.3-0.8-0.7-0.9l-7.9-3.1V20L51.5,20.1L51.5,20.1z M32.7,46.8c0,0.5-0.4,1-1,1H15.6c-0.5,0-1-0.4-1-1c0-0.5,0.4-1,1-1h2.9
		l0,0l0,0h10.2l0,0l0,0h2.9C32.2,45.8,32.7,46.3,32.7,46.8z M27.4,43.6h-7.5l0.5-2.3h6.4L27.4,43.6z M52.2,38.2
		c-0.6,1-1.8,2.5-3.2,3.8c-1.6,1.5-2.6,2-2.9,2.1c-0.7-0.3-2.7-1.9-3.3-2.5c-2.7-2.5-4.1-5.4-4.2-8.4c-0.1-1.4-0.1-4.4,0-6l7.6-2.9
		l7.5,2.9C54.1,31.8,53.5,35.8,52.2,38.2z M45.1,22.4l-7.9,3c-0.4,0.1-0.6,0.5-0.7,0.9c-0.2,1.5-0.1,5.6-0.1,7c0,0.2,0,0.4,0.1,0.6
		H28c-0.6,0-1.1,0.5-1.1,1.1s0.5,1.1,1.1,1.1h8.9c0.3,1,0.7,2.1,1.3,3H4.6c-1.3,0-2.4-1.1-2.4-2.4V36h17.2c0.6,0,1.1-0.5,1.1-1.1
		s-0.5-1.1-1.1-1.1H2.2V11.6c0-1.3,1-2.3,2.2-2.3v6.3c0,2.4,2,4.3,4.5,4.3H28c0.6,0,1.1-0.5,1.1-1.1s-0.5-1.1-1.1-1.1H8.8
		c-1.3,0-2.3-1-2.3-2.2V4.1c0-1.2,1-2.2,2.3-2.2h42.7c1.3,0,2.3,1,2.3,2.2v11.4c0,1.2-1,2.2-2.3,2.2H36.7c-0.6,0-1.1,0.5-1.1,1.1
		s0.5,1.1,1.1,1.1H45L45.1,22.4L45.1,22.4z"/>
	<path class="st0" d="M40.2,12c-0.3,0-0.5,0.1-0.8,0.3c-0.2,0.2-0.3,0.5-0.3,0.8s0.1,0.5,0.3,0.8l0,0c0.2,0.2,0.5,0.3,0.8,0.3
		s0.5-0.1,0.7-0.3c0.2-0.2,0.3-0.5,0.3-0.7c0-0.3-0.1-0.6-0.3-0.8C40.7,12.1,40.5,12,40.2,12z"/>
	<path class="st0" d="M46.2,13.2c0,1.2,1.6,1.5,2,0.5l3-7.5c0-0.1,0.1-0.2,0.1-0.3c0-0.5-0.3-1-0.8-1.1s-1,0.2-1.1,0.6l-3,7.5
		C46.3,13,46.2,13.1,46.2,13.2z"/>
	<path class="st0" d="M37.1,11.9c0-0.7-0.3-1.2-0.9-1.6c-0.4-0.2-0.8-0.4-1.3-0.5c-0.2,0-0.6-0.2-0.7-0.2l-0.1-0.1
		c0-0.1,0-0.1,0.1-0.2s0.2-0.1,0.4-0.1c0.1,0,0.3,0,0.4,0.1l0.2,0.1c0.2,0.1,0.4,0.1,0.5,0.1c0.2,0,0.4-0.1,0.6-0.3
		c0.2-0.2,0.2-0.4,0.2-0.6c0-0.4-0.3-0.7-0.6-0.8c-0.4-0.2-0.9-0.3-1.3-0.3c-0.7,0-1.3,0.2-1.8,0.6S32.1,9,32.1,9.7
		c0,0.6,0.2,1.1,0.7,1.4c0.3,0.2,0.9,0.4,1.2,0.5c0.2,0.1,0.5,0.1,0.7,0.2c0.1,0,0.1,0.1,0.2,0.1c0,0.1,0,0.1,0,0.2
		s-0.1,0.2-0.2,0.3c-0.1,0.1-0.3,0.1-0.5,0.1c-0.3,0-0.6-0.1-0.8-0.2s-0.5-0.2-0.7-0.2s-0.4,0.1-0.6,0.3c-0.2,0.2-0.2,0.4-0.2,0.6
		l0,0c0,0.4,0.3,0.7,0.7,0.9c0.5,0.2,1,0.3,1.5,0.3c0.7,0,1.3-0.2,1.9-0.6C36.9,13.1,37.1,12.5,37.1,11.9z"/>
	<path class="st0" d="M19,7.7h-0.4V6.8c0-0.3-0.1-0.5-0.3-0.7s-0.4-0.3-0.7-0.3s-0.5,0.1-0.7,0.3c-0.2,0.2-0.3,0.4-0.3,0.7v0.9h-0.2
		c-0.2,0-0.5,0.1-0.6,0.2c-0.2,0.2-0.3,0.4-0.3,0.6s0.1,0.4,0.3,0.6s0.4,0.3,0.6,0.3h0.2V13c0,0.1,0,0.3,0.1,0.4
		c0,0.1,0.1,0.2,0.2,0.3c0.2,0.2,0.4,0.3,0.7,0.3s0.5-0.1,0.7-0.3c0.2-0.2,0.3-0.4,0.3-0.7V9.4H19c0.2,0,0.5-0.1,0.6-0.3
		c0.2-0.2,0.3-0.4,0.3-0.6S19.8,8,19.6,7.9C19.5,7.8,19.3,7.7,19,7.7z"/>
	<path class="st0" d="M11.4,7.9V6c0-0.3-0.1-0.5-0.3-0.7S10.7,5,10.4,5S9.9,5.1,9.7,5.3C9.5,5.5,9.4,5.7,9.4,6v7.1
		c0,0.3,0.1,0.5,0.3,0.7s0.4,0.3,0.7,0.3s0.5-0.1,0.7-0.3c0.2-0.2,0.3-0.4,0.3-0.7v-2.9c0-0.2,0.1-0.5,0.3-0.6
		c0.2-0.2,0.4-0.3,0.6-0.3c0.2,0,0.4,0.1,0.6,0.3c0.2,0.2,0.3,0.4,0.3,0.6v2.9c0,0.3,0.1,0.5,0.3,0.7s0.4,0.3,0.7,0.3
		s0.5-0.1,0.7-0.3c0.2-0.2,0.3-0.4,0.3-0.7V9.9C15.1,7.8,13.1,6.9,11.4,7.9z"/>
	<path class="st0" d="M31.4,9.6c-0.1-0.2-0.1-0.3-0.2-0.5c-0.1-0.2-0.3-0.4-0.5-0.6c-0.6-0.6-1.3-0.9-2.1-0.9
		c-0.5,0-1.1,0.1-1.5,0.4c-0.2-0.4-0.7-0.5-1.1-0.4c-0.4,0.1-0.6,0.6-0.6,1v6.9c0,0.3,0.1,0.5,0.3,0.7s0.4,0.3,0.7,0.3
		s0.5-0.1,0.7-0.3c0.2-0.2,0.3-0.4,0.3-0.7v-2.2c0.4,0.2,0.9,0.3,1.3,0.3c0.8,0,1.5-0.3,2.1-0.9s0.9-1.3,0.9-2.1
		C31.5,10.3,31.5,9.9,31.4,9.6z M28.5,11.7c-0.6,0-1.2-0.5-1.2-1.2c0-0.6,0.5-1.2,1.2-1.2c0.6,0,1.2,0.5,1.2,1.2
		S29.2,11.7,28.5,11.7z"/>
	<path class="st0" d="M23.6,7.7h-0.4V6.8c0-0.3-0.1-0.5-0.3-0.7s-0.4-0.3-0.7-0.3s-0.5,0.1-0.7,0.3c-0.2,0.2-0.3,0.4-0.3,0.7v0.9H21
		c-0.2,0-0.5,0.1-0.6,0.2c-0.2,0.2-0.3,0.4-0.3,0.6s0.1,0.4,0.3,0.6s0.4,0.3,0.7,0.3h0.2V13c0,0.1,0,0.3,0.1,0.4
		c0,0.1,0.1,0.2,0.2,0.3c0.2,0.2,0.4,0.3,0.7,0.3s0.5-0.1,0.7-0.3c0.2-0.2,0.3-0.4,0.3-0.7V9.4h0.4c0.2,0,0.5-0.1,0.6-0.3
		c0.2-0.2,0.3-0.4,0.3-0.6S24.5,8,24.3,7.9S23.9,7.7,23.6,7.7z"/>
	<path class="st0" d="M44.3,13.4l3-7.5c0-0.1,0.1-0.2,0.1-0.3c0-0.5-0.3-1-0.8-1.1s-1,0.2-1.1,0.6l-3,7.5c0,0.1-0.1,0.2-0.1,0.3
		C42.3,14.2,43.9,14.4,44.3,13.4z"/>
	<path class="st0" d="M40.2,10.5c0.3,0,0.5-0.1,0.8-0.3c0.2-0.2,0.3-0.5,0.3-0.8S41.2,8.9,41,8.7s-0.5-0.3-0.7-0.3
		c-0.3,0-0.5,0.1-0.8,0.3c-0.2,0.2-0.3,0.5-0.3,0.8s0.1,0.6,0.3,0.8C39.6,10.4,39.9,10.5,40.2,10.5z"/>
	<path class="st0" d="M32.4,17.9L32.4,17.9c-0.6,0-1.1,0.5-1.1,1.1s0.5,1.1,1.1,1.1l0,0c0.6,0,1.1-0.5,1.1-1.1S33,17.9,32.4,17.9z"
		/>
	<path class="st0" d="M23.6,34L23.6,34c-0.6,0-1.1,0.5-1.1,1.1s0.5,1.1,1.1,1.1l0,0c0.6,0,1.1-0.5,1.1-1.1
		C24.7,34.4,24.2,34,23.6,34z"/>
</g>
</svg>
