<?xml version="1.0" encoding="utf-8"?>
<!-- Generator: Adobe Illustrator 23.0.3, SVG Export Plug-In . SVG Version: 6.00 Build 0)  -->
<svg version="1.1" id="Capa_1" xmlns="http://www.w3.org/2000/svg" xmlns:xlink="http://www.w3.org/1999/xlink" x="0px" y="0px"
	 viewBox="0 0 36.8 50" style="enable-background:new 0 0 36.8 50;" xml:space="preserve">
<style type="text/css">
	.st0{fill:#FFFFFF;}
</style>
<g>
	<g>
		<path class="st0" d="M36.5,13.4L23.3,0.2c-0.2-0.2-0.4-0.3-0.7-0.3H4.1C1.8-0.1,0,1.7,0,4v41.8c0,2.3,1.8,4.1,4.1,4.1h28.6
			c2.3,0,4.1-1.8,4.1-4.1V14C36.8,13.9,36.7,13.6,36.5,13.4z M23.6,3.4l9.8,9.8h-7.7c-1.2,0-2.1-0.9-2.1-2.1L23.6,3.4L23.6,3.4z
			 M34.8,45.9c0,1.2-0.9,2.1-2.1,2.1H4.1C2.9,48,2,47.1,2,45.9V4.1C2,2.9,2.9,2,4.1,2h17.5v9.1c0,2.3,1.8,4.1,4.1,4.1h9.1V45.9z"/>
	</g>
	<g>
		<path class="st0" d="M26.3,25.1H10.5c-0.5,0-1,0.4-1,1c0,0.5,0.4,1,1,1h15.8c0.5,0,1-0.4,1-1S26.8,25.1,26.3,25.1z"/>
	</g>
	<g>
		<path class="st0" d="M26.3,29.5H10.5c-0.5,0-1,0.4-1,1c0,0.5,0.4,1,1,1h15.8c0.5,0,1-0.4,1-1C27.3,30,26.8,29.5,26.3,29.5z"/>
	</g>
	<g>
		<path class="st0" d="M26.3,33.9H10.5c-0.5,0-1,0.4-1,1s0.4,1,1,1h15.8c0.5,0,1-0.4,1-1S26.8,33.9,26.3,33.9z"/>
	</g>
	<g>
		<path class="st0" d="M21.2,38.3H10.5c-0.5,0-1,0.4-1,1c0,0.5,0.4,1,1,1h10.7c0.5,0,1-0.4,1-1C22.1,38.8,21.7,38.3,21.2,38.3z"/>
	</g>
</g>
</svg>
