<?xml version="1.0" encoding="utf-8"?>
<!-- Generator: Adobe Illustrator 23.0.3, SVG Export Plug-In . SVG Version: 6.00 Build 0)  -->
<svg version="1.1" id="layer_1" xmlns="http://www.w3.org/2000/svg" xmlns:xlink="http://www.w3.org/1999/xlink" x="0px" y="0px"
	 viewBox="0 0 40.7 48" style="enable-background:new 0 0 40.7 48;" xml:space="preserve">
<style type="text/css">
	.st0{fill:#FA2C68;}
</style>
<path class="st0" d="M32.6,15.3c-0.2-0.2-0.5-0.2-0.7-0.1l-14.1,6.2L15.8,0.7c0-0.4-0.3-0.6-0.7-0.7c-0.4,0-0.7,0.2-0.8,0.6
	L7.9,32.2c-0.1,0.3,0,0.5,0.3,0.7C8.4,33,8.6,33.1,8.9,33L23,26.8l1.8,20.6c0,0.4,0.3,0.6,0.7,0.7c0,0,0,0,0.1,0
	c0.3,0,0.6-0.2,0.7-0.6L32.8,16C32.9,15.8,32.8,15.5,32.6,15.3z M25.8,42.3l-1.4-16.7c0-0.2-0.2-0.5-0.3-0.6
	C23.9,25,23.8,25,23.6,25c-0.1,0-0.2,0-0.3,0.1l-13.7,6l5.2-25.4l1.6,16.9c0,0.2,0.2,0.4,0.4,0.6c0.2,0.1,0.4,0.1,0.7,0l13.7-6
	L25.8,42.3z M21.1,43.6c0,0.4-0.3,0.7-0.7,0.7C9.1,44.4,0,35.2,0,24c0-5.4,2-10.4,5.8-14.2L4.6,8.4l5-0.9l-1.8,4.8l-1.2-1.4
	C3.3,14.5,1.5,19.1,1.5,24c0,10.4,8.5,18.9,18.9,18.9C20.8,42.9,21.1,43.2,21.1,43.6z M34.9,38.2l1.2,1.4l-5,0.8l1.8-4.7l1.2,1.4
	c3.4-3.5,5.3-8.2,5.3-13.1c0-10.4-8.5-18.9-18.9-18.9c-0.4,0-0.7-0.3-0.7-0.7c0-0.4,0.3-0.7,0.7-0.7c11.2,0,20.4,9.1,20.4,20.4
	C40.7,29.4,38.7,34.4,34.9,38.2z"/>
</svg>
