<?xml version="1.0" encoding="utf-8"?>
<!-- Generator: Adobe Illustrator 23.0.3, SVG Export Plug-In . SVG Version: 6.00 Build 0)  -->
<svg version="1.1" id="layer_1" xmlns="http://www.w3.org/2000/svg" xmlns:xlink="http://www.w3.org/1999/xlink" x="0px" y="0px"
	 viewBox="0 0 40.1 48" style="enable-background:new 0 0 40.1 48;" xml:space="preserve">
<style type="text/css">
	.st0{fill:#FA2C68;}
</style>
<path class="st0" d="M36,31.5c-1.4-0.7-2.9-1.3-4.6-1.9c-0.8-0.3-1.4-0.5-2-0.6c-0.8-0.3-1.7-0.5-2.5-0.6c-0.7-0.8-1.2-1.7-1.5-2.8
	c1.9-1.5,3.4-3.8,4.2-6.5c0.4,0,0.7-0.2,1-0.4c0.7-0.6,1.2-1.6,1.3-2.8c0.1-0.9-0.1-1.7-0.4-2.4c0.2-0.9,0.3-1.8,0.3-2.8
	C31.9,4.2,27.2,0,20,0C12.9,0,8.2,4.2,8.2,10.7c0,0.9,0.1,1.9,0.3,2.7C8.2,14,8,14.9,8.1,15.8c0.1,1.2,0.6,2.3,1.3,2.8
	c0.3,0.3,0.7,0.4,1,0.4c0.8,2.7,2.3,5,4.2,6.5c-0.2,1.1-0.8,2.1-1.6,2.9c-1.5,0.3-2.4,0.5-2.4,0.5c-0.6,0.2-1.3,0.3-2.1,0.6
	c-1.7,0.5-3.2,1.2-4.6,1.9c-2.5,1.3-4,3.8-4,6.5v2c0,1.8,1,3.5,2.6,4.4C5.8,46,11.3,48,20,48c8.7,0,14.3-2,17.4-3.6
	c1.6-0.9,2.6-2.5,2.6-4.4v-2C40.1,35.2,38.5,32.8,36,31.5z M20,1.5c6.4,0,10.4,3.5,10.4,9.2c0,0.5,0,1.1-0.1,1.6
	c-0.1,0-0.1-0.1-0.2-0.1c-0.4-0.1-0.8-0.1-1.2,0c-0.2-0.5-0.5-1.4-1-2.8c0,0,0,0,0,0c0,0,0-0.1-0.1-0.1c0,0-0.1-0.1-0.1-0.1
	c0,0,0,0,0-0.1c-2.3-1.6-5.9-1.6-8.1,0c-1.8,1.3-4.7,1.3-6.4,0c0,0-0.1,0-0.1,0c0,0-0.1,0-0.1-0.1c0,0,0,0,0,0c0,0-0.1,0-0.1,0
	c0,0-0.1,0-0.1,0c0,0-0.1,0-0.1,0c-0.1,0-0.1,0-0.1,0c0,0-0.1,0-0.1,0.1c0,0-0.1,0.1-0.1,0.1c0,0,0,0,0,0c0,0,0,0.1,0,0.1
	c0,0,0,0.1-0.1,0.1c-0.5,1.4-0.8,2.2-1,2.8c-0.3-0.1-0.7-0.1-1.2,0c-0.1,0-0.1,0-0.2,0.1c-0.1-0.5-0.1-1-0.1-1.5
	C9.7,5,13.6,1.5,20,1.5z M11.7,18.1c-0.1-0.2-0.2-0.4-0.4-0.5c-0.2-0.1-0.5-0.1-0.7,0c-0.1,0-0.2-0.1-0.3-0.1
	c-0.3-0.3-0.7-0.9-0.8-1.9c-0.1-1.2,0.3-2,0.8-2.2c0.4-0.1,0.6,0,0.8,0.1c0.1,0.1,0.2,0.1,0.2,0.1c0.2,0.1,0.5,0,0.6-0.1
	c0.2-0.1,0.3-0.3,0.3-0.5c0.1-0.2,0.4-1.3,0.8-2.5c1,0.5,2.1,0.7,3.2,0.7c1.5,0,2.9-0.4,4.1-1.2c1.7-1.2,4.5-1.3,6.2-0.1
	c0.5,1.4,1,2.8,1,3.1c0,0.2,0.1,0.4,0.3,0.5c0.2,0.1,0.4,0.2,0.6,0.1c0.1,0,0.1,0,0.2-0.1c0.2-0.1,0.4-0.2,0.8-0.1
	c0.5,0.1,0.9,1,0.8,2.2c-0.1,1-0.5,1.6-0.7,1.9c-0.1,0-0.2,0.1-0.3,0.1c-0.2-0.1-0.4-0.1-0.6,0c-0.2,0.1-0.3,0.3-0.4,0.5
	c-0.7,2.8-2.2,5.1-4.1,6.5c-2.6,1.9-5.9,1.9-8.5,0C13.8,23.2,12.4,20.9,11.7,18.1z M19.3,46.5c-8.4-0.1-13.6-2.2-16-3.5
	c-1.1-0.6-1.8-1.8-1.8-3.1v-2c0-2.2,1.2-4.2,3.2-5.2C6,32.1,7.4,31.5,9.1,31l2-0.6c0,0,0.8-0.2,2-0.4c0.9,2.2,4.8,4.8,6.3,5.7V46.5z
	 M14.3,29.4c0.8-0.8,1.3-1.8,1.6-2.9c1.3,0.7,2.7,1.1,4.1,1.1c1.4,0,2.8-0.4,4.1-1.1c0.3,1.1,0.9,2.1,1.6,2.9
	c-0.4,1.2-3.1,3.4-5.7,5.1C17.4,32.8,14.7,30.5,14.3,29.4z M38.6,40c0,1.3-0.7,2.5-1.8,3.1c-2.4,1.3-7.6,3.3-16,3.5V35.7
	c1.5-0.9,5.4-3.5,6.3-5.7c0.7,0.1,1.3,0.3,1.9,0.5l2,0.6c1.6,0.5,3.1,1.1,4.4,1.8c2,1,3.2,3,3.2,5.2V40z"/>
</svg>
