<?xml version="1.0" encoding="utf-8"?>
<!-- Generator: Adobe Illustrator 23.0.3, SVG Export Plug-In . SVG Version: 6.00 Build 0)  -->
<svg version="1.1" id="layer_1" xmlns="http://www.w3.org/2000/svg" xmlns:xlink="http://www.w3.org/1999/xlink" x="0px" y="0px"
	 viewBox="0 0 37.4 48" style="enable-background:new 0 0 37.4 48;" xml:space="preserve">
<style type="text/css">
	.st0{fill:#FA2C68;}
</style>
<path class="st0" d="M34.5,19.2h-0.2v-3.7C34.3,7,27.3,0,18.7,0S3.2,7,3.2,15.6v3.7H2.9c-1.6,0-2.9,1.3-2.9,2.9v7.2
	C0,39.5,8.3,47.8,18.5,48c0.1,0,0.2,0,0.2,0c4.8,0,9.4-1.9,12.9-5.4c3.7-3.6,5.8-8.6,5.8-13.7v-6.8C37.4,20.5,36.1,19.2,34.5,19.2z
	 M4.6,15.6c0-7.8,6.3-14.1,14.1-14.1c7.8,0,14.1,6.3,14.1,14.1v3.7h-3.3v-3.7c0-6-4.8-10.8-10.8-10.8c-6,0-10.8,4.9-10.8,10.8v3.7
	H4.6V15.6z M28.1,15.6v3.7H9.4v-3.7c0-5.2,4.2-9.3,9.3-9.3S28.1,10.4,28.1,15.6z M36,28.9c0,4.7-2,9.3-5.3,12.7
	c-3.3,3.3-7.6,5.1-12.1,5c-9.4-0.1-17-7.9-17-17.2v-7.2c0-0.8,0.6-1.4,1.5-1.4h1h4.7h20.2h4.7h1c0.8,0,1.5,0.6,1.5,1.4V28.9z
	 M18.7,26c-2,0-3.6,1.6-3.6,3.6c0,1,0.4,1.9,1.1,2.6l-1.1,6c0,0.2,0,0.4,0.2,0.6c0.1,0.2,0.3,0.3,0.6,0.3h5.8c0.2,0,0.4-0.1,0.6-0.3
	c0.1-0.2,0.2-0.4,0.2-0.6l-1.1-6c0.7-0.7,1.1-1.6,1.1-2.6C22.3,27.6,20.7,26,18.7,26z M20.7,37.6h-4.1l1-5.5c0-0.3-0.1-0.5-0.3-0.7
	c-0.6-0.4-0.9-1.1-0.9-1.7c0-1.2,1-2.2,2.2-2.2c1.2,0,2.2,1,2.2,2.2c0,0.7-0.3,1.3-0.9,1.7c-0.2,0.1-0.3,0.4-0.3,0.7L20.7,37.6z"/>
</svg>
