<?xml version="1.0" encoding="utf-8"?>
<!-- Generator: Adobe Illustrator 23.0.3, SVG Export Plug-In . SVG Version: 6.00 Build 0)  -->
<svg version="1.1" id="layer_1" xmlns="http://www.w3.org/2000/svg" xmlns:xlink="http://www.w3.org/1999/xlink" x="0px" y="0px"
	 viewBox="0 0 48 51.3" style="enable-background:new 0 0 48 51.3;" xml:space="preserve">
<style type="text/css">
	.st0{fill:#2C5CFA;}
</style>
<g>
	<path class="st0" d="M6.9,21.8h4.2c0.4,0,0.8-0.4,0.8-0.8c0-0.4-0.3-0.8-0.8-0.8H6.9c-0.4,0-0.8,0.3-0.8,0.8
		C6.1,21.4,6.4,21.8,6.9,21.8z"/>
	<path class="st0" d="M47.2,20.2H43c-0.4,0-0.8,0.3-0.8,0.8c0,0.4,0.4,0.8,0.8,0.8h4.2c0.4,0,0.8-0.4,0.8-0.8
		C48,20.5,47.6,20.2,47.2,20.2z"/>
	<path class="st0" d="M27,5.8c0.4,0,0.8-0.3,0.8-0.8V0.8C27.8,0.3,27.5,0,27,0c-0.4,0-0.8,0.3-0.8,0.8V5C26.3,5.5,26.6,5.8,27,5.8z"
		/>
	<path class="st0" d="M40.8,13.8c0.1,0,0.3,0,0.4-0.1l3.7-2.1c0.4-0.2,0.5-0.7,0.3-1.1c-0.2-0.4-0.7-0.5-1.1-0.3l-3.7,2.1
		c-0.4,0.2-0.5,0.7-0.3,1.1C40.3,13.6,40.6,13.8,40.8,13.8z"/>
	<path class="st0" d="M18.4,7.5c0.2,0.3,0.4,0.4,0.7,0.4c0.1,0,0.3,0,0.4-0.1c0.4-0.2,0.5-0.7,0.3-1.1l-2.1-3.7
		c-0.2-0.4-0.7-0.5-1.1-0.3s-0.5,0.7-0.3,1.1L18.4,7.5z"/>
	<path class="st0" d="M9.2,11.6l3.7,2.1c0.1,0.1,0.3,0.1,0.4,0.1c0.3,0,0.5-0.1,0.7-0.4c0.2-0.4,0.1-0.9-0.3-1.1L10,10.2
		c-0.4-0.2-0.8-0.1-1.1,0.3C8.7,10.9,8.8,11.3,9.2,11.6z"/>
	<path class="st0" d="M40.4,29.6l3.7,2.1c0.1,0.1,0.3,0.1,0.4,0.1c0.3,0,0.5-0.1,0.7-0.4c0.2-0.4,0.1-0.9-0.3-1.1l-3.7-2.1
		c-0.4-0.2-0.8-0.1-1.1,0.3C40,28.9,40.1,29.4,40.4,29.6z"/>
	<path class="st0" d="M34.6,7.8c0.1,0.1,0.3,0.1,0.4,0.1c0.3,0,0.5-0.1,0.7-0.4l2.1-3.7C38,3.5,37.9,3,37.5,2.8
		c-0.4-0.2-0.8-0.1-1.1,0.3l-2.1,3.7C34.1,7.2,34.2,7.6,34.6,7.8z"/>
	<path class="st0" d="M42.7,39.2C43,38.6,43,38,43,37.4c0-3-2.4-5.4-5.4-5.4c-0.9,0-1.8,0.2-2.6,0.6c-0.1-0.5-0.3-0.9-0.5-1.4
		c3.2-2.3,5.3-6.1,5.3-10.3c0-7.1-5.8-12.8-12.8-12.8C20,8.1,14.2,13.9,14.2,21c0,0.5,0,1,0.1,1.5c-1.8,1.1-3.1,2.8-3.7,4.8
		c-0.7-0.4-1.5-0.6-2.3-0.6c-2.7,0-4.9,2.2-4.9,5c0,0.5,0.1,1,0.3,1.5C1.5,34,0,36.1,0,38.5c0,3.1,2.5,5.7,5.7,5.7h3.2
		c0.3,4,3.7,7.1,7.8,7.1h24c3.4,0,6.2-2.8,6.2-6.2C46.9,42.4,45.2,40.1,42.7,39.2z M15.8,21c0-6.2,5-11.3,11.3-11.3
		c6.2,0,11.3,5,11.3,11.3c0,3.7-1.8,6.9-4.5,9c-1.7-2.4-4.4-3.9-7.5-3.9c-0.1,0-0.1,0-0.2,0c-1.3-2.8-4.2-4.8-7.5-4.8
		c-1,0-1.9,0.2-2.8,0.5C15.8,21.5,15.8,21.2,15.8,21z M1.5,38.5c0-2,1.4-3.7,3.4-4.1c0.2,0,0.5-0.2,0.6-0.4c0.1-0.2,0.1-0.5,0-0.7
		C5.1,32.8,5,32.2,5,31.6c0-1.9,1.5-3.4,3.4-3.4c0.8,0,1.6,0.3,2.3,0.9c0.2,0.2,0.5,0.3,0.8,0.1c0.3-0.1,0.5-0.3,0.5-0.6
		c0.4-3.3,3.3-5.9,6.7-5.9c2.5,0,4.7,1.4,5.8,3.4c-4.1,0.9-7.3,4.5-7.3,8.9c0,0.2,0,0.4,0,0.6c-4.3-0.3-7.8,2.8-8.3,6.9H5.7
		C3.4,42.6,1.5,40.8,1.5,38.5z M40.6,49.7h-24c-3.4,0-6.3-2.8-6.3-6.2c0-3.5,2.8-6.2,6.3-6.2c0.4,0,0.9,0,1.3,0.1
		c0.3,0,0.5,0,0.7-0.2c0.2-0.2,0.3-0.4,0.2-0.7c-0.1-0.5-0.1-0.9-0.1-1.4c0-4.2,3.4-7.5,7.6-7.5c3.8,0,7,2.8,7.5,6.6
		c0,0.3,0.2,0.5,0.5,0.6c0.3,0.1,0.6,0,0.8-0.1c0.7-0.6,1.6-1,2.6-1c2.1,0,3.9,1.7,3.9,3.9c0,0.7-0.2,1.3-0.5,1.9
		c-0.1,0.2-0.1,0.5,0,0.7c0.1,0.2,0.3,0.4,0.6,0.4c2.2,0.4,3.8,2.4,3.8,4.6C45.3,47.6,43.2,49.7,40.6,49.7z"/>
</g>
</svg>
