<?xml version="1.0" encoding="utf-8"?>
<!-- Generator: Adobe Illustrator 23.0.3, SVG Export Plug-In . SVG Version: 6.00 Build 0)  -->
<svg version="1.1" id="layer_1" xmlns="http://www.w3.org/2000/svg" xmlns:xlink="http://www.w3.org/1999/xlink" x="0px" y="0px"
	 viewBox="0 0 48 48" style="enable-background:new 0 0 48 48;" xml:space="preserve">
<style type="text/css">
	.st0{fill:#D74141;}
</style>
<g>
	<path class="st0" d="M47.3,41.2c-0.4,0-0.7,0.3-0.7,0.7v4.6h-4.5c-0.4,0-0.7,0.3-0.7,0.7c0,0.4,0.3,0.7,0.7,0.7h5.2
		c0.4,0,0.7-0.3,0.7-0.7v-5.3C48,41.6,47.7,41.2,47.3,41.2z"/>
	<path class="st0" d="M29,46.5H1.5v-1.4c0-0.4-0.3-0.7-0.7-0.7S0,44.7,0,45.1v2.2C0,47.7,0.3,48,0.7,48H29c0.4,0,0.7-0.3,0.7-0.7
		C29.7,46.9,29.4,46.5,29,46.5z"/>
	<path class="st0" d="M47.3,0H0.7C0.3,0,0,0.3,0,0.7V8v24c0,0.4,0.3,0.7,0.7,0.7s0.7-0.3,0.7-0.7V8.7h45.1v5.6
		c0,0.4,0.3,0.7,0.7,0.7c0.4,0,0.7-0.3,0.7-0.7V8V0.7C48,0.3,47.7,0,47.3,0z M1.5,7.3V1.5h45.1v5.8H1.5z"/>
	<path class="st0" d="M42.9,3.9c-0.1,0.1-0.2,0.3-0.2,0.5c0,0.2,0.1,0.4,0.2,0.5c0.1,0.2,0.3,0.2,0.5,0.2c0.2,0,0.4-0.1,0.5-0.2
		c0.1-0.1,0.2-0.3,0.2-0.5c0-0.2-0.1-0.4-0.2-0.5C43.7,3.6,43.2,3.6,42.9,3.9z"/>
	<path class="st0" d="M39.5,3.6c-0.4,0-0.7,0.3-0.7,0.7c0,0.4,0.3,0.7,0.7,0.7c0.4,0,0.7-0.3,0.7-0.7C40.2,4,39.9,3.6,39.5,3.6z"/>
	<path class="st0" d="M34.9,3.9c-0.1,0.1-0.2,0.3-0.2,0.5c0,0.2,0.1,0.4,0.2,0.5c0.1,0.2,0.3,0.2,0.5,0.2c0.2,0,0.4-0.1,0.5-0.2
		c0.1-0.1,0.2-0.3,0.2-0.5c0-0.2-0.1-0.4-0.2-0.5C35.7,3.6,35.2,3.6,34.9,3.9z"/>
	<path class="st0" d="M47.7,18.1c-0.2-0.1-0.5-0.2-0.7,0c-0.1,0-5.1,2.2-10.9-3.7c0,0,0,0,0,0c-0.1-0.1-0.3-0.2-0.5-0.2
		c-0.2,0-0.4,0.1-0.5,0.2c0,0,0,0,0,0c-5.8,5.8-10.7,3.8-10.9,3.7c-0.2-0.1-0.5-0.1-0.7,0c-0.2,0.1-0.3,0.4-0.3,0.6V27
		c0,2.8,0.4,5.3,1,7.5H4c-2.2,0-4,1.8-4,4c0,2.2,1.8,4,4,4h24.3c3.2,3.8,6.7,5.3,7,5.4l0,0h0c0.1,0,0.2,0,0.3,0c0.1,0,0.2,0,0.3,0h0
		h0C36.2,47.8,48,42.8,48,27v-8.4C48,18.4,47.9,18.2,47.7,18.1z M4,41.1c-1.4,0-2.5-1.1-2.5-2.5C1.5,37.1,2.6,36,4,36h20.5
		c0.7,2,1.7,3.6,2.7,5.1H4z M24.5,27v-7.4c1.8,0.4,5.8,0.7,10.3-3.2v29.6C32,44.6,24.5,39.5,24.5,27z M46.6,27
		c0,12.4-7.5,17.6-10.3,19.1V16.5c4.5,3.8,8.5,3.6,10.3,3.2V27z"/>
	<path class="st0" d="M12.2,30.9c4.6,0,8.4-3.8,8.4-8.4c0-4.6-3.8-8.4-8.4-8.4s-8.4,3.8-8.4,8.4C3.8,27.1,7.6,30.9,12.2,30.9z
		 M12.2,15.6c3.8,0,6.9,3.1,6.9,6.9c0,3.8-3.1,6.9-6.9,6.9c-3.8,0-6.9-3.1-6.9-6.9C5.3,18.7,8.4,15.6,12.2,15.6z"/>
	<path class="st0" d="M12.2,25.7c-0.8,0-1.5-0.6-1.5-1.3c0-0.4-0.3-0.7-0.7-0.7c-0.4,0-0.7,0.3-0.7,0.7c0,1.3,0.9,2.3,2.2,2.6v0.5
		c0,0.4,0.3,0.7,0.7,0.7c0.4,0,0.7-0.3,0.7-0.7v-0.5c1.3-0.3,2.2-1.4,2.2-2.6c0-1.6-1.1-2.7-2.9-2.7c-1,0-1.5-0.4-1.5-1.3
		c0-0.7,0.7-1.3,1.5-1.3c0.8,0,1.5,0.6,1.5,1.3c0,0.4,0.3,0.7,0.7,0.7c0.4,0,0.7-0.3,0.7-0.7c0-1.3-0.9-2.3-2.2-2.6v-0.5
		c0-0.4-0.3-0.7-0.7-0.7c-0.4,0-0.7,0.3-0.7,0.7v0.5c-1.2,0.3-2.2,1.3-2.2,2.6c0,1.6,1.1,2.7,2.9,2.7c1,0,1.5,0.4,1.5,1.3
		C13.7,25.2,13,25.7,12.2,25.7z"/>
	<path class="st0" d="M3.6,38c-0.1,0.1-0.2,0.3-0.2,0.5c0,0.2,0.1,0.4,0.2,0.5c0.1,0.1,0.3,0.2,0.5,0.2c0.2,0,0.4-0.1,0.5-0.2
		c0.1-0.2,0.2-0.3,0.2-0.5c0-0.2-0.1-0.4-0.2-0.5C4.4,37.8,3.9,37.8,3.6,38z"/>
	<path class="st0" d="M18.8,37.8c-0.4,0-0.7,0.3-0.7,0.7c0,0.4,0.3,0.7,0.7,0.7c0.4,0,0.7-0.3,0.7-0.7
		C19.6,38.1,19.2,37.8,18.8,37.8z"/>
	<path class="st0" d="M15.2,37.8c-0.4,0-0.7,0.3-0.7,0.7c0,0.4,0.3,0.7,0.7,0.7c0.4,0,0.7-0.3,0.7-0.7
		C15.9,38.1,15.6,37.8,15.2,37.8z"/>
	<path class="st0" d="M11.5,37.8c-0.4,0-0.7,0.3-0.7,0.7c0,0.4,0.3,0.7,0.7,0.7c0.4,0,0.7-0.3,0.7-0.7
		C12.2,38.1,11.9,37.8,11.5,37.8z"/>
	<path class="st0" d="M7.8,37.8c-0.4,0-0.7,0.3-0.7,0.7c0,0.4,0.3,0.7,0.7,0.7c0.4,0,0.7-0.3,0.7-0.7C8.5,38.1,8.2,37.8,7.8,37.8z"
		/>
	<path class="st0" d="M23,38c-0.3-0.3-0.8-0.3-1,0c-0.1,0.1-0.2,0.3-0.2,0.5c0,0.2,0.1,0.4,0.2,0.5c0.1,0.1,0.3,0.2,0.5,0.2
		c0.2,0,0.4-0.1,0.5-0.2c0.1-0.2,0.2-0.3,0.2-0.5C23.2,38.3,23.2,38.2,23,38z"/>
</g>
</svg>
