<?xml version="1.0" encoding="utf-8"?>
<!-- Generator: Adobe Illustrator 23.0.3, SVG Export Plug-In . SVG Version: 6.00 Build 0)  -->
<svg version="1.1" id="layer_1" xmlns="http://www.w3.org/2000/svg" xmlns:xlink="http://www.w3.org/1999/xlink" x="0px" y="0px"
	 viewBox="0 0 48 50.8" style="enable-background:new 0 0 48 50.8;" xml:space="preserve">
<style type="text/css">
	.st0{fill:#FAA51E;}
</style>
<g>
	<g>
		<path class="st0" d="M47.2,41.1H0.8c-0.4,0-0.8,0.4-0.8,0.8V50c0,0.5,0.4,0.8,0.8,0.8h46.4c0.4,0,0.8-0.4,0.8-0.8v-8.1
			C48,41.4,47.6,41.1,47.2,41.1z M46.4,49.2H1.6v-6.5h44.7V49.2z"/>
		<path class="st0" d="M41.2,45.4c-0.1,0.1-0.2,0.4-0.2,0.6c0,0.2,0.1,0.4,0.2,0.6c0.1,0.2,0.4,0.2,0.6,0.2c0.2,0,0.4-0.1,0.6-0.2
			c0.2-0.1,0.2-0.3,0.2-0.6c0-0.2-0.1-0.4-0.2-0.6C42.1,45.1,41.5,45.1,41.2,45.4z"/>
		<path class="st0" d="M30.1,46.8H5.4c0,0,0,0,0,0v-1.5c0,0,0,0,0,0h24.7c0,0,0,0,0,0L30.1,46.8C30.2,46.7,30.1,46.8,30.1,46.8z"/>
	</g>
	<g>
		<path class="st0" d="M47.2,27.4H0.8c-0.4,0-0.8,0.4-0.8,0.8v8.1c0,0.5,0.4,0.8,0.8,0.8h46.4c0.4,0,0.8-0.4,0.8-0.8v-8.1
			C48,27.7,47.6,27.4,47.2,27.4z M46.4,35.5H1.6V29h44.7V35.5z"/>
		<path class="st0" d="M41.2,31.7c-0.1,0.1-0.2,0.4-0.2,0.6c0,0.2,0.1,0.4,0.2,0.6c0.1,0.2,0.4,0.2,0.6,0.2c0.2,0,0.4-0.1,0.6-0.2
			c0.2-0.1,0.2-0.3,0.2-0.6c0-0.2-0.1-0.4-0.2-0.6C42.1,31.4,41.5,31.4,41.2,31.7z"/>
		<path class="st0" d="M30.1,33.1H5.4c0,0,0,0,0,0v-1.5c0,0,0,0,0,0h24.7c0,0,0,0,0,0L30.1,33.1C30.2,33.1,30.1,33.1,30.1,33.1z"/>
	</g>
	<g>
		<path class="st0" d="M47.2,13.7H0.8c-0.4,0-0.8,0.4-0.8,0.8v8.1c0,0.5,0.4,0.8,0.8,0.8h46.4c0.4,0,0.8-0.4,0.8-0.8v-8.1
			C48,14.1,47.6,13.7,47.2,13.7z M46.4,21.8H1.6v-6.5h44.7V21.8z"/>
		<path class="st0" d="M41.2,18c-0.1,0.1-0.2,0.4-0.2,0.6c0,0.2,0.1,0.4,0.2,0.6c0.1,0.2,0.4,0.2,0.6,0.2c0.2,0,0.4-0.1,0.6-0.2
			c0.2-0.1,0.2-0.3,0.2-0.6c0-0.2-0.1-0.4-0.2-0.6C42.1,17.7,41.5,17.7,41.2,18z"/>
		<path class="st0" d="M30.1,19.4H5.4c0,0,0,0,0,0v-1.5c0,0,0,0,0,0h24.7c0,0,0,0,0,0L30.1,19.4C30.2,19.4,30.1,19.4,30.1,19.4z"/>
	</g>
	<g>
		<path class="st0" d="M47.2,0H0.8C0.4,0,0,0.4,0,0.8v8.1c0,0.5,0.4,0.8,0.8,0.8h46.4c0.4,0,0.8-0.4,0.8-0.8V0.8
			C48,0.4,47.6,0,47.2,0z M46.4,8.1H1.6V1.6h44.7V8.1z"/>
		<path class="st0" d="M41.2,4.3C41.1,4.5,41,4.7,41,4.9c0,0.2,0.1,0.4,0.2,0.6c0.1,0.2,0.4,0.2,0.6,0.2c0.2,0,0.4-0.1,0.6-0.2
			c0.2-0.1,0.2-0.3,0.2-0.6c0-0.2-0.1-0.4-0.2-0.6C42.1,4,41.5,4,41.2,4.3z"/>
		<path class="st0" d="M30.1,5.7H5.4c0,0,0,0,0,0V4.1c0,0,0,0,0,0h24.7c0,0,0,0,0,0L30.1,5.7C30.2,5.7,30.1,5.7,30.1,5.7z"/>
	</g>
</g>
</svg>
