<?xml version="1.0" encoding="utf-8"?>
<!-- Generator: Adobe Illustrator 23.0.3, SVG Export Plug-In . SVG Version: 6.00 Build 0)  -->
<svg version="1.1" id="layer_1" xmlns="http://www.w3.org/2000/svg" xmlns:xlink="http://www.w3.org/1999/xlink" x="0px" y="0px"
	 viewBox="0 0 48 47.3" style="enable-background:new 0 0 48 47.3;" xml:space="preserve">
<style type="text/css">
	.st0{fill:#32D05E;}
</style>
<path class="st0" d="M42.8,16.9C41.8,7.4,33.7,0,24,0C14.3,0,6.2,7.4,5.2,16.9c-3,0.6-5.2,3.2-5.2,6.4v4.1C0,31,2.9,34,6.5,34h0.7
	c1.6,0,2.9-1.3,2.9-2.9V19.7c0-1.6-1.3-2.9-2.9-2.9H6.7C7.8,8.1,15.1,1.4,24,1.4c8.9,0,16.2,6.7,17.3,15.3h-0.5
	c-1.6,0-2.9,1.3-2.9,2.9V31c0,1.4,1,2.6,2.4,2.9c-0.6,5.6-4.2,8.5-11.7,9.3c-0.3-1.2-1.5-2.1-2.8-2.1h-3.5c-1.6,0-2.9,1.3-2.9,2.9
	v0.4c0,1.6,1.3,2.9,2.9,2.9h3.5c1.5,0,2.7-1.1,2.9-2.6c8.3-0.9,12.4-4.3,13-10.7c3.5-0.2,6.3-3,6.3-6.5v-4.1
	C48,20.1,45.8,17.5,42.8,16.9z M7.2,18.2c0.8,0,1.4,0.6,1.4,1.4V31c0,0.8-0.6,1.5-1.4,1.5H6.5c-2.8,0-5.1-2.3-5.1-5.1v-4.1
	C1.5,21,3,19,5.1,18.4c0,0.2,0,0.3,0,0.5v6.7c0,0.4,0.3,0.7,0.7,0.7c0.4,0,0.7-0.3,0.7-0.7v-6.7c0-0.2,0-0.4,0-0.6H7.2z M27.3,44.4
	c0,0.8-0.6,1.4-1.5,1.4h-3.5c-0.8,0-1.5-0.7-1.5-1.4V44c0-0.8,0.7-1.4,1.5-1.4h3.5c0.8,0,1.5,0.6,1.5,1.4V44.4z M46.5,27.4
	c0,2.8-2.3,5.1-5.1,5.1h-0.7c-0.8,0-1.5-0.6-1.5-1.5V19.7c0-0.8,0.6-1.4,1.5-1.4h0.6c0,0.2,0,0.4,0,0.6v6.7c0,0.4,0.3,0.7,0.7,0.7
	c0.4,0,0.7-0.3,0.7-0.7v-6.7c0-0.2,0-0.3,0-0.5c2.1,0.6,3.7,2.6,3.7,4.9V27.4z"/>
</svg>
