<?xml version="1.0" encoding="utf-8"?>
<!-- Generator: Adobe Illustrator 23.0.3, SVG Export Plug-In . SVG Version: 6.00 Build 0)  -->
<svg version="1.1" id="layer_1" xmlns="http://www.w3.org/2000/svg" xmlns:xlink="http://www.w3.org/1999/xlink" x="0px" y="0px"
	 viewBox="0 0 48 48" style="enable-background:new 0 0 48 48;" xml:space="preserve">
<style type="text/css">
	.st0{fill:#FFFFFF;}
</style>
<path class="st0" d="M46.1,20.4h-2.5c-0.2-1-0.5-2-0.8-3l2.2-1.3c0.9-0.5,1.2-1.7,0.7-2.6l-1.7-3c-0.3-0.4-0.7-0.8-1.2-0.9
	c-0.5-0.1-1-0.1-1.4,0.2l-2.2,1.3c-0.7-0.8-1.4-1.5-2.2-2.2l1.3-2.2c0.2-0.4,0.3-0.9,0.2-1.4c-0.1-0.5-0.4-0.9-0.9-1.1l-3-1.7
	c-0.4-0.2-0.9-0.3-1.4-0.2c-0.5,0.1-0.9,0.5-1.2,0.9l-1.3,2.2c-1-0.4-2-0.6-3-0.8V1.9c0-1-0.9-1.9-1.9-1.9h-3.5
	c-1,0-1.9,0.8-1.9,1.9v2.5c-1,0.2-2,0.5-3,0.8L16.1,3c-0.5-0.9-1.7-1.2-2.6-0.7l-3,1.7C9.6,4.6,9.3,5.8,9.8,6.7l1.3,2.2
	c-0.8,0.7-1.5,1.4-2.2,2.2L6.7,9.8C6.2,9.5,5.7,9.5,5.2,9.6c-0.5,0.1-0.9,0.5-1.1,0.9l-1.7,3c-0.3,0.4-0.3,0.9-0.2,1.4
	c0.1,0.5,0.4,0.9,0.9,1.2l2.2,1.3c-0.4,1-0.6,2-0.8,3H1.9c-1,0-1.9,0.8-1.9,1.9v3.5c0,1,0.9,1.9,1.9,1.9h2.5c0.2,1,0.5,2,0.8,3
	L3,31.9c-0.9,0.5-1.2,1.7-0.7,2.6l1.7,3c0.5,0.9,1.7,1.2,2.6,0.7l2.2-1.3c0.7,0.8,1.4,1.5,2.2,2.2l-1.3,2.2
	c-0.5,0.9-0.2,2.1,0.7,2.6l3,1.7c0.4,0.3,0.9,0.3,1.4,0.2c0.5-0.1,0.9-0.5,1.2-0.9l1.3-2.2c1,0.3,2,0.6,3,0.8v2.5
	c0,1,0.9,1.9,1.9,1.9h3.5c1,0,1.9-0.8,1.9-1.9v-2.5c1-0.2,2-0.5,3-0.8l1.3,2.2c0.3,0.4,0.7,0.8,1.2,0.9c0.5,0.1,1,0.1,1.4-0.2l3-1.7
	c0.9-0.5,1.2-1.7,0.7-2.6l-1.3-2.2c0.8-0.7,1.5-1.4,2.2-2.2l2.2,1.3c0.4,0.2,0.9,0.3,1.4,0.2c0.5-0.1,0.9-0.4,1.2-0.9l1.7-3
	c0.5-0.9,0.2-2.1-0.7-2.6l-2.2-1.3c0.4-1,0.6-2,0.8-3h2.5c1,0,1.9-0.9,1.9-1.9v-3.5C48,21.2,47.2,20.4,46.1,20.4z M46.6,25.7
	c0,0.3-0.2,0.4-0.4,0.4H43c-0.4,0-0.7,0.3-0.7,0.6c-0.2,1.3-0.6,2.6-1.1,3.9c-0.1,0.3,0,0.7,0.3,0.9l2.7,1.6
	c0.2,0.1,0.3,0.4,0.2,0.6l-1.7,3c-0.1,0.1-0.1,0.2-0.3,0.2c-0.1,0-0.2,0-0.3,0l-2.7-1.6c-0.3-0.2-0.7-0.1-0.9,0.2
	c-0.8,1-1.8,2-2.9,2.8c-0.3,0.2-0.4,0.6-0.2,0.9l1.6,2.7c0.1,0.2,0.1,0.5-0.2,0.6l-3,1.7c-0.1,0.1-0.2,0.1-0.3,0
	c-0.1,0-0.2-0.1-0.3-0.2l-1.6-2.7c-0.2-0.3-0.6-0.4-0.9-0.3c-1.3,0.5-2.6,0.8-3.9,1.1c-0.4,0-0.6,0.3-0.6,0.7v3.1
	c0,0.2-0.2,0.4-0.4,0.4h-3.5c-0.2,0-0.4-0.2-0.4-0.4V43c0-0.4-0.3-0.7-0.6-0.7c-1.3-0.2-2.6-0.6-3.9-1.1c-0.1,0-0.2,0-0.3,0
	c-0.2,0-0.5,0.1-0.6,0.3l-1.6,2.7c-0.1,0.1-0.2,0.2-0.3,0.2c-0.1,0-0.2,0-0.3,0l-3-1.7c-0.2-0.1-0.3-0.4-0.2-0.6l1.6-2.7
	c0.2-0.3,0.1-0.7-0.2-0.9c-1.1-0.8-2-1.8-2.9-2.8c-0.2-0.3-0.6-0.4-0.9-0.2l-2.7,1.6c-0.2,0.1-0.5,0.1-0.6-0.1l-1.7-3
	c-0.1-0.2,0-0.5,0.2-0.6l2.7-1.6c0.3-0.2,0.5-0.6,0.3-0.9c-0.5-1.3-0.9-2.6-1-3.9c-0.1-0.3-0.4-0.6-0.7-0.6H1.9
	c-0.2,0-0.4-0.2-0.4-0.4v-3.5c0-0.2,0.2-0.5,0.4-0.5H5c0.4,0,0.7-0.3,0.7-0.6c0.2-1.3,0.6-2.6,1-3.9c0.1-0.3,0-0.7-0.3-0.9l-2.7-1.6
	c-0.1-0.1-0.2-0.1-0.2-0.3c0-0.1,0-0.2,0-0.3l1.7-3C5.4,11.1,5.5,11,5.6,11c0.1,0,0.2,0,0.3,0l2.7,1.6c0.3,0.2,0.7,0.1,0.9-0.2
	c0.8-1,1.8-2,2.9-2.8c0.3-0.2,0.3-0.6,0.2-0.9l-1.6-2.7c-0.1-0.2-0.1-0.5,0.2-0.6l3-1.7c0.2-0.1,0.5-0.1,0.6,0.1l1.6,2.7
	c0.2,0.3,0.6,0.4,0.9,0.3c1.3-0.5,2.6-0.8,3.9-1c0.4-0.1,0.6-0.4,0.6-0.7V1.9c0-0.2,0.2-0.4,0.4-0.4h3.5c0.2,0,0.4,0.2,0.4,0.4V5
	c0,0.4,0.3,0.7,0.6,0.7c1.3,0.2,2.6,0.5,3.9,1c0.3,0.1,0.7,0,0.9-0.3l1.6-2.7c0.1-0.1,0.2-0.2,0.3-0.2c0.1,0,0.2,0,0.3,0.1l3,1.7
	C36.9,5.4,37,5.5,37,5.6c0,0.1,0,0.2,0,0.3l-1.6,2.7c-0.2,0.3-0.1,0.7,0.2,0.9c1.1,0.8,2,1.8,2.9,2.8c0.2,0.3,0.6,0.4,0.9,0.2
	l2.7-1.6c0.1-0.1,0.2-0.1,0.3,0c0.1,0,0.2,0.1,0.3,0.2l1.7,3c0.1,0.2,0,0.5-0.2,0.6l-2.7,1.6c-0.3,0.2-0.5,0.6-0.3,0.9
	c0.5,1.3,0.9,2.6,1.1,3.9c0.1,0.3,0.4,0.6,0.7,0.6h3.1c0.2,0,0.4,0.2,0.4,0.5V25.7z M24,34.3c0.4,0,0.7,0.3,0.7,0.7
	c0,0.4-0.3,0.7-0.7,0.7c-6.5,0-11.7-5.3-11.7-11.7c0-2.4,0.7-4.7,2.1-6.6L13.1,16l4.9-1.3l-1.4,4.9l-1.2-1.3
	c-1.1,1.7-1.7,3.6-1.7,5.6C13.7,29.7,18.3,34.3,24,34.3z M35.7,24c0,2.4-0.7,4.7-2.1,6.6l1.3,1.3L30,33.2l1.4-4.9l1.2,1.3
	c1.1-1.7,1.7-3.6,1.7-5.6c0-5.7-4.6-10.3-10.3-10.3c-0.4,0-0.7-0.3-0.7-0.7c0-0.4,0.3-0.7,0.7-0.7C30.5,12.3,35.7,17.5,35.7,24z"/>
</svg>
