<?xml version="1.0" encoding="utf-8"?>
<!-- Generator: Adobe Illustrator 23.0.2, SVG Export Plug-In . SVG Version: 6.00 Build 0)  -->
<svg version="1.1" id="Icon_Set" xmlns="http://www.w3.org/2000/svg" xmlns:xlink="http://www.w3.org/1999/xlink" x="0px" y="0px"
	 viewBox="0 0 62 62" style="enable-background:new 0 0 62 62;" xml:space="preserve">
<style type="text/css">
	.st0{fill:none;stroke:#FFFFFF;stroke-width:2;stroke-linecap:round;stroke-linejoin:round;stroke-miterlimit:10;}
	.st1{fill:#344154;stroke:#FFFFFF;stroke-miterlimit:10;}
</style>
<g>
	<line class="st0" x1="6.29" y1="48.02" x2="55.71" y2="48.02"/>
	<line class="st0" x1="10.01" y1="52.27" x2="51.99" y2="52.27"/>
	<line class="st0" x1="15.32" y1="56.52" x2="46.68" y2="56.52"/>
	<g>
		<path class="st1" d="M9.52,41.4c0.2,0.17,0.3,0.44,0.3,0.8c0,0.5-0.17,0.85-0.52,1.06c-0.35,0.21-0.84,0.31-1.47,0.31H6.39V38.8
			h1.25c1.32,0,1.97,0.41,1.97,1.22c0,0.28-0.09,0.51-0.26,0.69C9.18,40.88,8.98,41,8.73,41.05C9.05,41.11,9.32,41.23,9.52,41.4z
			 M7.3,39.47v1.29h0.56c0.25,0,0.45-0.06,0.6-0.17s0.22-0.28,0.22-0.5c0-0.23-0.08-0.39-0.23-0.48c-0.15-0.09-0.39-0.14-0.72-0.14
			H7.3z M8.6,42.74c0.18-0.1,0.27-0.29,0.27-0.57c0-0.27-0.08-0.47-0.25-0.59c-0.17-0.12-0.4-0.18-0.69-0.18H7.3v1.49h0.53
			C8.17,42.89,8.42,42.84,8.6,42.74z"/>
		<path class="st1" d="M14.69,43.58l-0.3-1.1h-1.58l-0.3,1.1h-0.95l1.48-4.77h1.12l1.48,4.77H14.69z M13,41.78h1.22L13.6,39.5
			L13,41.78z"/>
		<path class="st1" d="M21.3,43.58h-1.18l-1.64-3.86c0.04,0.34,0.07,0.65,0.09,0.92c0.02,0.28,0.03,0.61,0.03,0.99v1.95h-0.83V38.8
			h1.15l1.66,3.87c-0.03-0.18-0.06-0.43-0.08-0.73c-0.03-0.3-0.04-0.6-0.04-0.9V38.8h0.83V43.58z"/>
		<path class="st1" d="M26.95,39.31c0.44,0.34,0.67,0.96,0.67,1.86c0,0.88-0.22,1.51-0.66,1.87c-0.44,0.36-0.99,0.54-1.66,0.54H24
			V38.8h1.17C25.91,38.8,26.51,38.97,26.95,39.31z M24.91,39.49v3.4h0.45c0.41,0,0.72-0.13,0.95-0.38c0.23-0.25,0.34-0.7,0.34-1.35
			c0-0.45-0.06-0.8-0.18-1.05c-0.12-0.25-0.27-0.41-0.46-0.5c-0.19-0.09-0.42-0.13-0.69-0.13H24.91z"/>
		<path class="st1" d="M35.16,38.8l-0.88,4.77H33.1l-0.73-3.8l-0.75,3.8h-1.15l-0.86-4.77h0.9l0.61,4.05l0.78-4.05h0.97l0.77,4.05
			l0.66-4.05H35.16z"/>
		<path class="st1" d="M38.33,38.8v4.77h-0.91V38.8H38.33z"/>
		<path class="st1" d="M43.98,39.31c0.44,0.34,0.67,0.96,0.67,1.86c0,0.88-0.22,1.51-0.66,1.87s-0.99,0.54-1.66,0.54h-1.3V38.8h1.17
			C42.94,38.8,43.54,38.97,43.98,39.31z M41.94,39.49v3.4h0.45c0.41,0,0.72-0.13,0.95-0.38c0.23-0.25,0.34-0.7,0.34-1.35
			c0-0.45-0.06-0.8-0.18-1.05c-0.12-0.25-0.27-0.41-0.46-0.5c-0.19-0.09-0.42-0.13-0.69-0.13H41.94z"/>
		<path class="st1" d="M49.91,38.8l-0.1,0.73h-1.24v4.05h-0.92v-4.05h-1.28V38.8H49.91z"/>
		<path class="st1" d="M54.7,43.58v-2.13H53v2.13h-0.91V38.8H53v1.91h1.7V38.8h0.92v4.77H54.7z"/>
	</g>
	<g>
		<circle class="st0" cx="31" cy="30.99" r="0.48"/>
		<line class="st0" x1="31" y1="5.38" x2="31" y2="8.78"/>
		<line class="st0" x1="24.33" y1="6.25" x2="25.21" y2="9.54"/>
		<line class="st0" x1="18.12" y1="8.83" x2="19.82" y2="11.78"/>
		<line class="st0" x1="12.78" y1="12.92" x2="15.19" y2="15.33"/>
		<line class="st0" x1="8.69" y1="18.26" x2="11.63" y2="19.96"/>
		<line class="st0" x1="6.11" y1="24.47" x2="9.4" y2="25.35"/>
		<line class="st0" x1="5.23" y1="31.14" x2="8.64" y2="31.14"/>
		<line class="st0" x1="56.77" y1="31.14" x2="53.36" y2="31.14"/>
		<line class="st0" x1="55.89" y1="24.47" x2="52.6" y2="25.35"/>
		<line class="st0" x1="53.31" y1="18.26" x2="50.37" y2="19.96"/>
		<line class="st0" x1="49.22" y1="12.92" x2="46.81" y2="15.33"/>
		<line class="st0" x1="43.88" y1="8.83" x2="42.18" y2="11.78"/>
		<line class="st0" x1="37.67" y1="6.25" x2="36.79" y2="9.54"/>
		<path class="st0" d="M33.51,34.05c0.66-0.62,1.12-1.42,1.41-2.28l5.39-16.04c0.03-0.08-0.07-0.15-0.13-0.08L28.28,28.3
			c-0.58,0.69-1.21,1.87-1.21,2.84c0,2.17,1.76,3.93,3.93,3.93C32.09,35.08,32.89,34.62,33.51,34.05z"/>
		<circle class="st0" cx="31" cy="31" r="30"/>
	</g>
</g>
</svg>
