<?xml version="1.0" encoding="utf-8"?>
<!-- Generator: Adobe Illustrator 23.0.2, SVG Export Plug-In . SVG Version: 6.00 Build 0)  -->
<svg version="1.1" id="Icon_Set" xmlns="http://www.w3.org/2000/svg" xmlns:xlink="http://www.w3.org/1999/xlink" x="0px" y="0px"
	 viewBox="0 0 54.15 62" style="enable-background:new 0 0 54.15 62;" xml:space="preserve">
<style type="text/css">
	.st0{fill:none;stroke:#FFFFFF;stroke-width:2;stroke-linecap:round;stroke-linejoin:round;stroke-miterlimit:10;}
	.st1{fill:none;stroke:#FFFFFF;stroke-width:2;stroke-linejoin:round;stroke-miterlimit:10;}
</style>
<g>
	<g>
		<line class="st0" x1="1" y1="11.07" x2="53.15" y2="11.07"/>
		<path class="st0" d="M50.87,6.09c0-1.26,1.02-2.28,2.28-2.28V1H1v2.81c1.26,0,2.28,1.02,2.28,2.28S2.26,8.37,1,8.37v6.43h13.94
			v-3.73h6.03v3.73h32.18V8.37C51.89,8.37,50.87,7.35,50.87,6.09z"/>
		<line class="st1" x1="7.55" y1="3.76" x2="7.55" y2="8.42"/>
		<line class="st1" x1="13.13" y1="3.76" x2="13.13" y2="8.42"/>
		<line class="st1" x1="18.71" y1="3.76" x2="18.71" y2="8.42"/>
		<line class="st1" x1="24.29" y1="3.76" x2="24.29" y2="8.42"/>
		<line class="st1" x1="29.86" y1="3.76" x2="29.86" y2="8.42"/>
		<line class="st1" x1="35.44" y1="3.76" x2="35.44" y2="8.42"/>
		<line class="st1" x1="41.02" y1="3.76" x2="41.02" y2="8.42"/>
		<line class="st1" x1="46.6" y1="3.76" x2="46.6" y2="8.42"/>
	</g>
	<g>
		<line class="st0" x1="1" y1="57.27" x2="53.15" y2="57.27"/>
		<path class="st0" d="M50.87,52.29c0-1.26,1.02-2.28,2.28-2.28V47.2H1v2.81c1.26,0,2.28,1.02,2.28,2.28S2.26,54.57,1,54.57V61
			h13.94v-3.73h6.03V61h32.18v-6.43C51.89,54.57,50.87,53.55,50.87,52.29z"/>
		<line class="st1" x1="7.55" y1="49.96" x2="7.55" y2="54.62"/>
		<line class="st1" x1="13.13" y1="49.96" x2="13.13" y2="54.62"/>
		<line class="st1" x1="18.71" y1="49.96" x2="18.71" y2="54.62"/>
		<line class="st1" x1="24.29" y1="49.96" x2="24.29" y2="54.62"/>
		<line class="st1" x1="29.86" y1="49.96" x2="29.86" y2="54.62"/>
		<line class="st1" x1="35.44" y1="49.96" x2="35.44" y2="54.62"/>
		<line class="st1" x1="41.02" y1="49.96" x2="41.02" y2="54.62"/>
		<line class="st1" x1="46.6" y1="49.96" x2="46.6" y2="54.62"/>
	</g>
	<g>
		<line class="st0" x1="1" y1="34.17" x2="53.15" y2="34.17"/>
		<path class="st0" d="M50.87,29.19c0-1.26,1.02-2.28,2.28-2.28V24.1H1v2.81c1.26,0,2.28,1.02,2.28,2.28S2.26,31.47,1,31.47v6.43
			h13.94v-3.73h6.03v3.73h32.18v-6.43C51.89,31.47,50.87,30.45,50.87,29.19z"/>
		<line class="st1" x1="7.55" y1="26.86" x2="7.55" y2="31.52"/>
		<line class="st1" x1="13.13" y1="26.86" x2="13.13" y2="31.52"/>
		<line class="st1" x1="18.71" y1="26.86" x2="18.71" y2="31.52"/>
		<line class="st1" x1="24.29" y1="26.86" x2="24.29" y2="31.52"/>
		<line class="st1" x1="29.86" y1="26.86" x2="29.86" y2="31.52"/>
		<line class="st1" x1="35.44" y1="26.86" x2="35.44" y2="31.52"/>
		<line class="st1" x1="41.02" y1="26.86" x2="41.02" y2="31.52"/>
		<line class="st1" x1="46.6" y1="26.86" x2="46.6" y2="31.52"/>
	</g>
</g>
</svg>
