<?xml version="1.0" encoding="utf-8"?>
<!-- Generator: Adobe Illustrator 23.0.2, SVG Export Plug-In . SVG Version: 6.00 Build 0)  -->
<svg version="1.1" id="Icon_Set" xmlns="http://www.w3.org/2000/svg" xmlns:xlink="http://www.w3.org/1999/xlink" x="0px" y="0px"
	 viewBox="0 0 52.54 62" style="enable-background:new 0 0 52.54 62;" xml:space="preserve">
<style type="text/css">
	.st0{fill:none;stroke:#FFFFFF;stroke-width:2;stroke-linecap:round;stroke-linejoin:round;stroke-miterlimit:10;}
</style>
<g>
	<path class="st0" d="M14.72,40.58c7.68,5.6,18.51,4.93,25.44-2c7.67-7.67,7.67-20.11,0-27.78c-7.67-7.67-20.11-7.67-27.78,0
		c-7.67,7.67-7.67,20.11,0,27.78c0.08,0.08,0.16,0.16,0.24,0.24 M19.34,31.61c-3.83-3.83-3.83-10.03,0-13.86
		c3.83-3.83,10.03-3.83,13.86,0c3.83,3.83,3.83,10.03,0,13.86C29.37,35.44,23.17,35.44,19.34,31.61z"/>
	<circle class="st0" cx="26.27" cy="24.68" r="4.59"/>
	<path class="st0" d="M6.49,5.73c0,0.42-0.34,0.76-0.76,0.76c-0.42,0-0.76-0.34-0.76-0.76c0-0.42,0.34-0.76,0.76-0.76
		C6.15,4.97,6.49,5.31,6.49,5.73z"/>
	<circle class="st0" cx="8.99" cy="45.66" r="0.7"/>
	<path class="st0" d="M47.57,5.73c0,0.42-0.34,0.76-0.76,0.76c-0.42,0-0.76-0.34-0.76-0.76c0-0.42,0.34-0.76,0.76-0.76
		C47.23,4.97,47.57,5.31,47.57,5.73z"/>
	<path class="st0" d="M6.49,56.27c0-0.42-0.34-0.76-0.76-0.76c-0.42,0-0.76,0.34-0.76,0.76c0,0.42,0.34,0.76,0.76,0.76
		C6.15,57.03,6.49,56.69,6.49,56.27z"/>
	<path class="st0" d="M47.57,56.27c0-0.42-0.34-0.76-0.76-0.76c-0.42,0-0.76,0.34-0.76,0.76c0,0.42,0.34,0.76,0.76,0.76
		C47.23,57.03,47.57,56.69,47.57,56.27z"/>
	<path class="st0" d="M44.29,61H8.25C4.25,61,1,57.75,1,53.75V8.25C1,4.25,4.25,1,8.25,1h36.04c4,0,7.25,3.25,7.25,7.25v45.5
		C51.54,57.75,48.3,61,44.29,61z"/>
	<path class="st0" d="M11.91,47.91c-1.25,1.59-3.55,1.86-5.14,0.62c-1.59-1.25-1.86-3.55-0.62-5.14c1-1.27,7.75-6.08,10.43-7.97
		c0.33-0.23,0.75,0.1,0.61,0.48C15.99,38.95,12.9,46.64,11.91,47.91z"/>
	<line class="st0" x1="17.74" y1="61" x2="17.74" y2="52.99"/>
	<line class="st0" x1="23.43" y1="61" x2="23.43" y2="55.59"/>
	<line class="st0" x1="29.12" y1="61" x2="29.12" y2="55.59"/>
	<line class="st0" x1="34.81" y1="61" x2="34.81" y2="52.99"/>
</g>
</svg>
