<?xml version="1.0" encoding="utf-8"?>
<!-- Generator: Adobe Illustrator 23.0.2, SVG Export Plug-In . SVG Version: 6.00 Build 0)  -->
<svg version="1.1" id="Icon_Set" xmlns="http://www.w3.org/2000/svg" xmlns:xlink="http://www.w3.org/1999/xlink" x="0px" y="0px"
	 viewBox="0 0 62 62" style="enable-background:new 0 0 62 62;" xml:space="preserve">
<style type="text/css">
	.st0{fill:none;stroke:#FFFFFF;stroke-width:2;stroke-linecap:round;stroke-linejoin:round;stroke-miterlimit:10;}
	.st1{fill:#344154;stroke:#FFFFFF;stroke-miterlimit:10;}
</style>
<g>
	<path class="st0" d="M47.65,21.29v-4.02V11.9h-33.3v9.38c-1.8,0-3.26,1.46-3.26,3.26v12.9c0,1.8,1.46,3.26,3.26,3.26v9.38h1.63
		h3.04h28.62v-9.38c1.8,0,3.26-1.46,3.26-3.26v-12.9C50.91,22.75,49.45,21.29,47.65,21.29z"/>
	<ellipse class="st0" cx="31" cy="31" rx="14.09" ry="9.4"/>
	<g>
		<line class="st0" x1="10.05" y1="6.13" x2="10.05" y2="1"/>
		<line class="st0" x1="14.7" y1="6.13" x2="14.7" y2="1"/>
		<line class="st0" x1="19.36" y1="6.13" x2="19.36" y2="1"/>
		<line class="st0" x1="24.02" y1="6.13" x2="24.02" y2="1"/>
		<line class="st0" x1="28.67" y1="6.13" x2="28.67" y2="1"/>
		<line class="st0" x1="33.33" y1="6.13" x2="33.33" y2="1"/>
		<line class="st0" x1="37.98" y1="6.13" x2="37.98" y2="1"/>
		<line class="st0" x1="42.64" y1="6.13" x2="42.64" y2="1"/>
		<line class="st0" x1="47.3" y1="6.13" x2="47.3" y2="1"/>
		<line class="st0" x1="51.95" y1="6.13" x2="51.95" y2="1"/>
	</g>
	<g>
		<line class="st0" x1="10.05" y1="55.87" x2="10.05" y2="61"/>
		<line class="st0" x1="14.7" y1="55.87" x2="14.7" y2="61"/>
		<line class="st0" x1="19.36" y1="55.87" x2="19.36" y2="61"/>
		<line class="st0" x1="24.02" y1="55.87" x2="24.02" y2="61"/>
		<line class="st0" x1="28.67" y1="55.87" x2="28.67" y2="61"/>
		<line class="st0" x1="33.33" y1="55.87" x2="33.33" y2="61"/>
		<line class="st0" x1="37.98" y1="55.87" x2="37.98" y2="61"/>
		<line class="st0" x1="42.64" y1="55.87" x2="42.64" y2="61"/>
		<line class="st0" x1="47.3" y1="55.87" x2="47.3" y2="61"/>
		<line class="st0" x1="51.95" y1="55.87" x2="51.95" y2="61"/>
	</g>
	<g>
		<line class="st0" x1="55.87" y1="10.05" x2="61" y2="10.05"/>
		<line class="st0" x1="55.87" y1="14.7" x2="61" y2="14.7"/>
		<line class="st0" x1="55.87" y1="19.36" x2="61" y2="19.36"/>
		<line class="st0" x1="55.87" y1="24.02" x2="61" y2="24.02"/>
		<line class="st0" x1="55.87" y1="28.67" x2="61" y2="28.67"/>
		<line class="st0" x1="55.87" y1="33.33" x2="61" y2="33.33"/>
		<line class="st0" x1="55.87" y1="37.98" x2="61" y2="37.98"/>
		<line class="st0" x1="55.87" y1="42.64" x2="61" y2="42.64"/>
		<line class="st0" x1="55.87" y1="47.3" x2="61" y2="47.3"/>
		<line class="st0" x1="55.87" y1="51.95" x2="61" y2="51.95"/>
	</g>
	<g>
		<line class="st0" x1="6.13" y1="10.05" x2="1" y2="10.05"/>
		<line class="st0" x1="6.13" y1="14.7" x2="1" y2="14.7"/>
		<line class="st0" x1="6.13" y1="19.36" x2="1" y2="19.36"/>
		<line class="st0" x1="6.13" y1="24.02" x2="1" y2="24.02"/>
		<line class="st0" x1="6.13" y1="28.67" x2="1" y2="28.67"/>
		<line class="st0" x1="6.13" y1="33.33" x2="1" y2="33.33"/>
		<line class="st0" x1="6.13" y1="37.98" x2="1" y2="37.98"/>
		<line class="st0" x1="6.13" y1="42.64" x2="1" y2="42.64"/>
		<line class="st0" x1="6.13" y1="47.3" x2="1" y2="47.3"/>
		<line class="st0" x1="6.13" y1="51.95" x2="1" y2="51.95"/>
	</g>
	<g>
		<path class="st1" d="M26.54,30.15c-0.01-0.16-0.05-0.31-0.12-0.44c-0.07-0.13-0.15-0.24-0.26-0.34c-0.11-0.09-0.24-0.16-0.38-0.21
			c-0.15-0.05-0.3-0.07-0.47-0.07c-0.24,0-0.45,0.04-0.64,0.13c-0.19,0.08-0.35,0.21-0.48,0.37c-0.13,0.16-0.24,0.36-0.31,0.6
			c-0.07,0.24-0.11,0.51-0.11,0.82s0.04,0.58,0.11,0.82c0.07,0.24,0.17,0.44,0.31,0.6c0.13,0.16,0.29,0.29,0.48,0.37
			c0.19,0.09,0.4,0.13,0.63,0.13c0.18,0,0.34-0.02,0.48-0.07c0.15-0.05,0.27-0.12,0.38-0.22c0.11-0.1,0.2-0.22,0.26-0.36
			c0.07-0.14,0.11-0.3,0.12-0.49h1.05c-0.03,0.33-0.11,0.62-0.23,0.88c-0.12,0.25-0.29,0.47-0.49,0.65c-0.2,0.18-0.44,0.31-0.7,0.4
			c-0.27,0.09-0.55,0.14-0.87,0.14c-0.4,0-0.75-0.07-1.07-0.2c-0.32-0.13-0.59-0.32-0.81-0.57c-0.22-0.25-0.4-0.54-0.52-0.9
			c-0.12-0.35-0.18-0.74-0.18-1.17c0-0.43,0.06-0.82,0.18-1.17c0.12-0.35,0.3-0.65,0.52-0.9c0.22-0.25,0.5-0.44,0.81-0.57
			c0.32-0.13,0.67-0.2,1.06-0.2c0.3,0,0.58,0.05,0.84,0.14c0.26,0.1,0.5,0.23,0.7,0.4c0.2,0.17,0.37,0.38,0.5,0.63
			c0.13,0.25,0.21,0.52,0.24,0.82H26.54z"/>
		<path class="st1" d="M29.12,28.25h2.11c0.19,0,0.37,0.01,0.55,0.03c0.18,0.02,0.35,0.06,0.51,0.11c0.16,0.05,0.31,0.12,0.44,0.2
			c0.13,0.08,0.25,0.19,0.35,0.31c0.1,0.12,0.17,0.27,0.23,0.44c0.05,0.17,0.08,0.36,0.08,0.59c0,0.58-0.18,1.02-0.53,1.32
			c-0.35,0.29-0.88,0.44-1.58,0.44h-1.13v2.07h-1.03V28.25z M30.14,30.74h1.15c0.19,0,0.35-0.02,0.48-0.05
			c0.13-0.04,0.24-0.09,0.32-0.15c0.08-0.07,0.14-0.15,0.18-0.25c0.04-0.1,0.06-0.21,0.06-0.34c0-0.16-0.03-0.28-0.09-0.38
			c-0.06-0.1-0.14-0.17-0.23-0.23s-0.21-0.09-0.34-0.11c-0.13-0.02-0.27-0.03-0.41-0.03h-1.13V30.74z"/>
		<path class="st1" d="M37.07,33.84c-0.35,0-0.64-0.03-0.88-0.1c-0.24-0.07-0.45-0.16-0.61-0.28c-0.16-0.12-0.29-0.26-0.39-0.42
			c-0.09-0.16-0.17-0.33-0.21-0.51c-0.05-0.18-0.08-0.37-0.09-0.56c-0.01-0.19-0.02-0.38-0.02-0.57v-3.15h1.03v3.14
			c0,0.31,0.03,0.57,0.08,0.76c0.05,0.2,0.13,0.35,0.23,0.46c0.1,0.11,0.22,0.18,0.37,0.22c0.15,0.04,0.31,0.06,0.5,0.06
			c0.19,0,0.36-0.02,0.51-0.06c0.15-0.04,0.27-0.12,0.37-0.23c0.1-0.11,0.17-0.26,0.22-0.46c0.05-0.2,0.08-0.45,0.08-0.76v-3.14
			h1.03v3.15c0,0.38-0.03,0.72-0.1,1.03c-0.07,0.3-0.18,0.56-0.35,0.77c-0.17,0.21-0.39,0.37-0.68,0.48
			C37.87,33.79,37.51,33.84,37.07,33.84z"/>
	</g>
	<polygon class="st0" points="55.87,55.87 55.87,13.12 55.87,6.13 6.13,6.13 6.13,55.87 13.12,55.87 	"/>
</g>
</svg>
