<?xml version="1.0" encoding="utf-8"?>
<!-- Generator: Adobe Illustrator 16.0.0, SVG Export Plug-In . SVG Version: 6.00 Build 0)  -->
<!DOCTYPE svg PUBLIC "-//W3C//DTD SVG 1.1//EN" "http://www.w3.org/Graphics/SVG/1.1/DTD/svg11.dtd">
<svg version="1.1" id="Layer_1" xmlns="http://www.w3.org/2000/svg" xmlns:xlink="http://www.w3.org/1999/xlink" x="0px" y="0px"
	 width="393.137px" height="235.472px" viewBox="0 0 393.137 235.472" enable-background="new 0 0 393.137 235.472"
	 xml:space="preserve">
<g>
	<path fill-rule="evenodd" clip-rule="evenodd" fill="none" stroke="#212121" stroke-width="1.5" stroke-miterlimit="10" d="
		M42.979,115.5c0-22.451,21.29-40.65,47.553-40.65"/>
	<path fill-rule="evenodd" clip-rule="evenodd" fill="#616161" d="M105.342,0h228.082C337.041,0,340,2.962,340,6.574v190.232
		c0,3.611-2.963,6.576-6.576,6.576H105.342c-3.612,0-6.574-2.961-6.574-6.576V6.574C98.768,2.958,101.725,0,105.342,0z"/>
	<path fill-rule="evenodd" clip-rule="evenodd" fill="#212121" d="M114.054,25.831h210.657c3.18,0,5.777,2.605,5.777,5.776v16.5
		c0,3.171-2.604,5.779-5.777,5.779H114.054c-3.17,0-5.777-2.601-5.777-5.779v-16.5C108.277,28.431,110.878,25.831,114.054,25.831z"
		/>
	<path fill-rule="evenodd" clip-rule="evenodd" fill="#43A047" d="M122.419,45.569c2.896,0,5.258-2.361,5.258-5.258
		c0-2.894-2.362-5.256-5.258-5.256c-2.895,0-5.256,2.363-5.256,5.256C117.164,43.208,119.525,45.569,122.419,45.569z"/>
	<path fill-rule="evenodd" clip-rule="evenodd" fill="#43A047" d="M136.095,45.569c2.895,0,5.255-2.361,5.255-5.258
		c0-2.894-2.36-5.256-5.255-5.256c-2.896,0-5.257,2.363-5.257,5.256C130.838,43.208,133.2,45.569,136.095,45.569z"/>
	<path fill-rule="evenodd" clip-rule="evenodd" fill="#43A047" d="M149.769,45.569c2.895,0,5.256-2.361,5.256-5.258
		c0-2.894-2.361-5.256-5.256-5.256c-2.896,0-5.256,2.363-5.256,5.256C144.513,43.208,146.874,45.569,149.769,45.569z"/>
	<path fill-rule="evenodd" clip-rule="evenodd" fill="#55ABDB" d="M302.832,45.569c2.895,0,5.256-2.361,5.256-5.258
		c0-2.894-2.361-5.256-5.256-5.256s-5.256,2.363-5.256,5.256C297.576,43.208,299.938,45.569,302.832,45.569z"/>
	<path fill-rule="evenodd" clip-rule="evenodd" fill="#55ABDB" d="M316.506,45.569c2.896,0,5.258-2.361,5.258-5.258
		c0-2.894-2.361-5.256-5.258-5.256c-2.895,0-5.254,2.363-5.254,5.256C311.252,43.208,313.611,45.569,316.506,45.569z"/>
	<rect x="161.88" y="32.843" fill-rule="evenodd" clip-rule="evenodd" fill="#424242" width="115.008" height="14.025"/>
	<rect x="171.206" y="36.883" fill-rule="evenodd" clip-rule="evenodd" width="6.056" height="6.056"/>
	<rect x="181.246" y="36.883" fill-rule="evenodd" clip-rule="evenodd" width="6.055" height="6.056"/>
	<rect x="191.286" y="36.883" fill-rule="evenodd" clip-rule="evenodd" width="6.056" height="6.056"/>
	<rect x="201.326" y="36.883" fill-rule="evenodd" clip-rule="evenodd" width="6.055" height="6.056"/>
	<rect x="211.367" y="36.883" fill-rule="evenodd" clip-rule="evenodd" width="6.057" height="6.056"/>
	<rect x="221.408" y="36.883" fill-rule="evenodd" clip-rule="evenodd" width="6.057" height="6.056"/>
	<rect x="231.449" y="36.883" fill-rule="evenodd" clip-rule="evenodd" width="6.055" height="6.056"/>
	<rect x="241.49" y="36.883" fill-rule="evenodd" clip-rule="evenodd" width="6.055" height="6.056"/>
	<rect x="251.531" y="36.883" fill-rule="evenodd" clip-rule="evenodd" width="6.055" height="6.056"/>
	<rect x="261.57" y="36.883" fill-rule="evenodd" clip-rule="evenodd" width="6.057" height="6.056"/>
	<path fill-rule="evenodd" clip-rule="evenodd" fill="#212121" d="M114.054,60.894h210.657c3.18,0,5.777,2.604,5.777,5.776v16.498
		c0,3.173-2.604,5.776-5.777,5.776H114.054c-3.17,0-5.777-2.6-5.777-5.776V66.67C108.277,63.494,110.878,60.894,114.054,60.894z"/>
	<path fill-rule="evenodd" clip-rule="evenodd" fill="#43A047" d="M122.419,80.63c2.896,0,5.258-2.361,5.258-5.256
		c0-2.896-2.362-5.257-5.258-5.257c-2.895,0-5.256,2.361-5.256,5.257C117.164,78.269,119.525,80.63,122.419,80.63z"/>
	<path fill-rule="evenodd" clip-rule="evenodd" fill="#43A047" d="M136.095,80.63c2.895,0,5.255-2.361,5.255-5.256
		c0-2.896-2.36-5.257-5.255-5.257c-2.896,0-5.257,2.361-5.257,5.257C130.838,78.269,133.2,80.63,136.095,80.63z"/>
	<path fill-rule="evenodd" clip-rule="evenodd" fill="#43A047" d="M149.769,80.63c2.895,0,5.256-2.361,5.256-5.256
		c0-2.896-2.361-5.257-5.256-5.257c-2.896,0-5.256,2.361-5.256,5.257C144.513,78.269,146.874,80.63,149.769,80.63z"/>
	<path fill-rule="evenodd" clip-rule="evenodd" fill="#55ABDB" d="M302.832,80.63c2.895,0,5.256-2.361,5.256-5.256
		c0-2.896-2.361-5.257-5.256-5.257s-5.256,2.361-5.256,5.257C297.576,78.269,299.938,80.63,302.832,80.63z"/>
	<path fill-rule="evenodd" clip-rule="evenodd" fill="#55ABDB" d="M316.506,80.63c2.896,0,5.258-2.361,5.258-5.256
		c0-2.896-2.361-5.257-5.258-5.257c-2.895,0-5.254,2.361-5.254,5.257C311.252,78.269,313.611,80.63,316.506,80.63z"/>
	<rect x="161.88" y="67.904" fill-rule="evenodd" clip-rule="evenodd" fill="#424242" width="115.008" height="14.025"/>
	<rect x="171.206" y="71.944" fill-rule="evenodd" clip-rule="evenodd" width="6.056" height="6.055"/>
	<rect x="181.246" y="71.944" fill-rule="evenodd" clip-rule="evenodd" width="6.055" height="6.055"/>
	<rect x="191.286" y="71.944" fill-rule="evenodd" clip-rule="evenodd" width="6.056" height="6.055"/>
	<rect x="201.326" y="71.944" fill-rule="evenodd" clip-rule="evenodd" width="6.055" height="6.055"/>
	<rect x="211.367" y="71.944" fill-rule="evenodd" clip-rule="evenodd" width="6.057" height="6.055"/>
	<rect x="221.408" y="71.944" fill-rule="evenodd" clip-rule="evenodd" width="6.057" height="6.055"/>
	<rect x="231.449" y="71.944" fill-rule="evenodd" clip-rule="evenodd" width="6.055" height="6.055"/>
	<rect x="241.49" y="71.944" fill-rule="evenodd" clip-rule="evenodd" width="6.055" height="6.055"/>
	<rect x="251.531" y="71.944" fill-rule="evenodd" clip-rule="evenodd" width="6.055" height="6.055"/>
	<rect x="261.57" y="71.944" fill-rule="evenodd" clip-rule="evenodd" width="6.057" height="6.055"/>
	<path fill-rule="evenodd" clip-rule="evenodd" fill="#212121" d="M114.054,95.956h210.657c3.18,0,5.777,2.605,5.777,5.776v16.5
		c0,3.172-2.604,5.778-5.777,5.778H114.054c-3.17,0-5.777-2.6-5.777-5.778v-16.5C108.277,98.555,110.878,95.956,114.054,95.956z"/>
	<path fill-rule="evenodd" clip-rule="evenodd" fill="#43A047" d="M122.419,115.691c2.896,0,5.258-2.359,5.258-5.253
		c0-2.897-2.362-5.257-5.258-5.257c-2.895,0-5.256,2.359-5.256,5.257C117.164,113.332,119.525,115.691,122.419,115.691z"/>
	<path fill-rule="evenodd" clip-rule="evenodd" fill="#43A047" d="M136.095,115.691c2.895,0,5.255-2.359,5.255-5.253
		c0-2.897-2.36-5.257-5.255-5.257c-2.896,0-5.257,2.359-5.257,5.257C130.838,113.332,133.2,115.691,136.095,115.691z"/>
	<path fill-rule="evenodd" clip-rule="evenodd" fill="#43A047" d="M149.769,115.691c2.895,0,5.256-2.359,5.256-5.253
		c0-2.897-2.361-5.257-5.256-5.257c-2.896,0-5.256,2.359-5.256,5.257C144.513,113.332,146.874,115.691,149.769,115.691z"/>
	<path fill-rule="evenodd" clip-rule="evenodd" fill="#55ABDB" d="M302.832,115.691c2.895,0,5.256-2.359,5.256-5.253
		c0-2.897-2.361-5.257-5.256-5.257s-5.256,2.359-5.256,5.257C297.576,113.332,299.938,115.691,302.832,115.691z"/>
	<path fill-rule="evenodd" clip-rule="evenodd" fill="#55ABDB" d="M316.506,115.691c2.896,0,5.258-2.359,5.258-5.253
		c0-2.897-2.361-5.257-5.258-5.257c-2.895,0-5.254,2.359-5.254,5.257C311.252,113.332,313.611,115.691,316.506,115.691z"/>
	<rect x="161.88" y="102.965" fill-rule="evenodd" clip-rule="evenodd" fill="#424242" width="115.008" height="14.028"/>
	<rect x="171.206" y="107.005" fill-rule="evenodd" clip-rule="evenodd" width="6.056" height="6.057"/>
	<rect x="181.246" y="107.005" fill-rule="evenodd" clip-rule="evenodd" width="6.055" height="6.057"/>
	<rect x="191.286" y="107.005" fill-rule="evenodd" clip-rule="evenodd" width="6.056" height="6.057"/>
	<rect x="201.326" y="107.005" fill-rule="evenodd" clip-rule="evenodd" width="6.055" height="6.057"/>
	<rect x="211.367" y="107.005" fill-rule="evenodd" clip-rule="evenodd" width="6.057" height="6.057"/>
	<rect x="221.408" y="107.005" fill-rule="evenodd" clip-rule="evenodd" width="6.057" height="6.057"/>
	<rect x="231.449" y="107.005" fill-rule="evenodd" clip-rule="evenodd" width="6.055" height="6.057"/>
	<rect x="241.49" y="107.005" fill-rule="evenodd" clip-rule="evenodd" width="6.055" height="6.057"/>
	<rect x="251.531" y="107.005" fill-rule="evenodd" clip-rule="evenodd" width="6.055" height="6.057"/>
	<rect x="261.57" y="107.005" fill-rule="evenodd" clip-rule="evenodd" width="6.057" height="6.057"/>
	<path fill-rule="evenodd" clip-rule="evenodd" fill="#212121" d="M114.054,131.019h210.657c3.18,0,5.777,2.604,5.777,5.775v16.5
		c0,3.17-2.604,5.775-5.777,5.775H114.054c-3.17,0-5.777-2.6-5.777-5.775v-16.5C108.277,133.617,110.878,131.019,114.054,131.019z"
		/>
	<path fill-rule="evenodd" clip-rule="evenodd" fill="#43A047" d="M122.419,150.755c2.896,0,5.258-2.361,5.258-5.256
		s-2.362-5.258-5.258-5.258c-2.895,0-5.256,2.363-5.256,5.258S119.525,150.755,122.419,150.755z"/>
	<path fill-rule="evenodd" clip-rule="evenodd" fill="#43A047" d="M136.095,150.755c2.895,0,5.255-2.361,5.255-5.256
		s-2.36-5.258-5.255-5.258c-2.896,0-5.257,2.363-5.257,5.258S133.2,150.755,136.095,150.755z"/>
	<path fill-rule="evenodd" clip-rule="evenodd" fill="#43A047" d="M149.769,150.755c2.895,0,5.256-2.361,5.256-5.256
		s-2.361-5.258-5.256-5.258c-2.896,0-5.256,2.363-5.256,5.258S146.874,150.755,149.769,150.755z"/>
	<path fill-rule="evenodd" clip-rule="evenodd" fill="#55ABDB" d="M302.832,150.755c2.895,0,5.256-2.361,5.256-5.256
		s-2.361-5.258-5.256-5.258s-5.256,2.363-5.256,5.258S299.938,150.755,302.832,150.755z"/>
	<path fill-rule="evenodd" clip-rule="evenodd" fill="#55ABDB" d="M316.506,150.755c2.896,0,5.258-2.361,5.258-5.256
		s-2.361-5.258-5.258-5.258c-2.895,0-5.254,2.363-5.254,5.258S313.611,150.755,316.506,150.755z"/>
	<rect x="161.88" y="138.029" fill-rule="evenodd" clip-rule="evenodd" fill="#424242" width="115.008" height="14.023"/>
	<rect x="171.206" y="142.07" fill-rule="evenodd" clip-rule="evenodd" width="6.056" height="6.057"/>
	<rect x="181.246" y="142.07" fill-rule="evenodd" clip-rule="evenodd" width="6.055" height="6.057"/>
	<rect x="191.286" y="142.07" fill-rule="evenodd" clip-rule="evenodd" width="6.056" height="6.057"/>
	<rect x="201.326" y="142.07" fill-rule="evenodd" clip-rule="evenodd" width="6.055" height="6.057"/>
	<rect x="211.367" y="142.07" fill-rule="evenodd" clip-rule="evenodd" width="6.057" height="6.057"/>
	<rect x="221.408" y="142.07" fill-rule="evenodd" clip-rule="evenodd" width="6.057" height="6.057"/>
	<rect x="231.449" y="142.07" fill-rule="evenodd" clip-rule="evenodd" width="6.055" height="6.057"/>
	<rect x="241.49" y="142.07" fill-rule="evenodd" clip-rule="evenodd" width="6.055" height="6.057"/>
	<rect x="251.531" y="142.07" fill-rule="evenodd" clip-rule="evenodd" width="6.055" height="6.057"/>
	<rect x="261.57" y="142.07" fill-rule="evenodd" clip-rule="evenodd" width="6.057" height="6.057"/>
	<path fill-rule="evenodd" clip-rule="evenodd" fill="#212121" d="M114.054,166.08h210.657c3.18,0,5.777,2.605,5.777,5.775v16.5
		c0,3.172-2.604,5.777-5.777,5.777H114.054c-3.17,0-5.777-2.598-5.777-5.777v-16.5C108.277,168.679,110.878,166.08,114.054,166.08z"
		/>
	<path fill-rule="evenodd" clip-rule="evenodd" fill="#43A047" d="M122.419,185.816c2.896,0,5.258-2.359,5.258-5.256
		s-2.362-5.254-5.258-5.254c-2.895,0-5.256,2.357-5.256,5.254S119.525,185.816,122.419,185.816z"/>
	<path fill-rule="evenodd" clip-rule="evenodd" fill="#43A047" d="M136.095,185.816c2.895,0,5.255-2.359,5.255-5.256
		s-2.36-5.254-5.255-5.254c-2.896,0-5.257,2.357-5.257,5.254S133.2,185.816,136.095,185.816z"/>
	<path fill-rule="evenodd" clip-rule="evenodd" fill="#43A047" d="M149.769,185.816c2.895,0,5.256-2.359,5.256-5.256
		s-2.361-5.254-5.256-5.254c-2.896,0-5.256,2.357-5.256,5.254S146.874,185.816,149.769,185.816z"/>
	<path fill-rule="evenodd" clip-rule="evenodd" fill="#55ABDB" d="M302.832,185.816c2.895,0,5.256-2.359,5.256-5.256
		s-2.361-5.254-5.256-5.254s-5.256,2.357-5.256,5.254S299.938,185.816,302.832,185.816z"/>
	<path fill-rule="evenodd" clip-rule="evenodd" fill="#55ABDB" d="M316.506,185.816c2.896,0,5.258-2.359,5.258-5.256
		s-2.361-5.254-5.258-5.254c-2.895,0-5.254,2.357-5.254,5.254S313.611,185.816,316.506,185.816z"/>
	<rect x="161.88" y="173.091" fill-rule="evenodd" clip-rule="evenodd" fill="#424242" width="115.008" height="14.025"/>
	<rect x="171.206" y="177.13" fill-rule="evenodd" clip-rule="evenodd" width="6.056" height="6.057"/>
	<rect x="181.246" y="177.13" fill-rule="evenodd" clip-rule="evenodd" width="6.055" height="6.057"/>
	<rect x="191.286" y="177.13" fill-rule="evenodd" clip-rule="evenodd" width="6.056" height="6.057"/>
	<rect x="201.326" y="177.13" fill-rule="evenodd" clip-rule="evenodd" width="6.055" height="6.057"/>
	<rect x="211.367" y="177.13" fill-rule="evenodd" clip-rule="evenodd" width="6.057" height="6.057"/>
	<rect x="221.408" y="177.13" fill-rule="evenodd" clip-rule="evenodd" width="6.057" height="6.057"/>
	<rect x="231.449" y="177.13" fill-rule="evenodd" clip-rule="evenodd" width="6.055" height="6.057"/>
	<rect x="241.49" y="177.13" fill-rule="evenodd" clip-rule="evenodd" width="6.055" height="6.057"/>
	<rect x="251.531" y="177.13" fill-rule="evenodd" clip-rule="evenodd" width="6.055" height="6.057"/>
	<rect x="261.57" y="177.13" fill-rule="evenodd" clip-rule="evenodd" width="6.057" height="6.057"/>
	<path fill-rule="evenodd" clip-rule="evenodd" fill="#757575" d="M318.613,19.092c3.439,0,6.25-2.807,6.25-6.249
		c0-3.441-2.811-6.249-6.25-6.249c-3.443,0-6.25,2.808-6.25,6.249C312.363,16.285,315.17,19.092,318.613,19.092z"/>
	<path fill-rule="evenodd" clip-rule="evenodd" fill="#424242" d="M318.613,16.816c2.188,0,3.971-1.785,3.971-3.973
		c0-2.188-1.783-3.972-3.971-3.972s-3.973,1.785-3.973,3.972C314.641,15.031,316.426,16.816,318.613,16.816z"/>
	<path fill-rule="evenodd" clip-rule="evenodd" fill="#757575" d="M120.155,19.092c3.442,0,6.247-2.807,6.247-6.249
		c0-3.441-2.805-6.249-6.247-6.249c-3.44,0-6.25,2.808-6.25,6.249C113.905,16.285,116.714,19.092,120.155,19.092z"/>
	<path fill-rule="evenodd" clip-rule="evenodd" fill="#424242" d="M120.155,16.816c2.188,0,3.972-1.785,3.972-3.973
		c0-2.188-1.784-3.972-3.972-3.972c-2.187,0-3.974,1.785-3.974,3.972C116.181,15.031,117.968,16.816,120.155,16.816z"/>
	<path fill-rule="evenodd" clip-rule="evenodd" fill="#212121" d="M98.768,83.291c-4.663,0-8.444-3.78-8.444-8.441
		c0-4.663,3.781-8.443,8.444-8.443V83.291z"/>
	<g>
		<g>
			<path fill-rule="evenodd" clip-rule="evenodd" fill="#CCD4D4" d="M5.682,221.972c-1.114,0-2.164-0.436-2.954-1.229
				c-0.792-0.791-1.228-1.84-1.228-2.955V114.445c0-1.114,0.436-2.164,1.227-2.954c0.792-0.793,1.841-1.229,2.955-1.229h72.95
				c1.114,0,2.164,0.436,2.955,1.228c0.792,0.791,1.228,1.841,1.228,2.955v103.344c0,1.113-0.436,2.164-1.228,2.955
				c-0.792,0.791-1.841,1.229-2.955,1.229H5.682z"/>
			<path fill="#212121" d="M78.632,111.762c0.713,0,1.386,0.279,1.896,0.789c0.507,0.508,0.787,1.18,0.787,1.894v103.344
				c0,0.713-0.28,1.387-0.788,1.895c-0.509,0.508-1.182,0.789-1.895,0.789H5.682c-0.713,0-1.386-0.279-1.894-0.789
				C3.28,219.175,3,218.501,3,217.789V114.445c0-0.714,0.28-1.386,0.789-1.896c0.507-0.508,1.18-0.787,1.893-0.787H78.632
				 M78.632,108.762H5.682c-1.565,0-2.987,0.638-4.015,1.667C0.639,111.457,0,112.878,0,114.445v103.344
				c0,1.566,0.639,2.988,1.667,4.016c1.028,1.029,2.45,1.668,4.015,1.668h72.95c1.565,0,2.987-0.639,4.016-1.668
				c1.028-1.029,1.667-2.451,1.667-4.016V114.445c0-1.566-0.639-2.988-1.667-4.016C81.619,109.4,80.197,108.762,78.632,108.762
				L78.632,108.762z"/>
		</g>
		<linearGradient id="SVGID_1_" gradientUnits="userSpaceOnUse" x1="21.2505" y1="142.3169" x2="74.4419" y2="142.3169">
			<stop  offset="0" style="stop-color:#9C2061"/>
			<stop  offset="1" style="stop-color:#EA202A"/>
		</linearGradient>
		<rect x="21.25" y="139.673" fill-rule="evenodd" clip-rule="evenodd" fill="url(#SVGID_1_)" width="53.191" height="5.287"/>
		<linearGradient id="SVGID_2_" gradientUnits="userSpaceOnUse" x1="21.2505" y1="158.1831" x2="74.4419" y2="158.1831">
			<stop  offset="0" style="stop-color:#9C2061"/>
			<stop  offset="1" style="stop-color:#EA202A"/>
		</linearGradient>
		<rect x="21.25" y="155.541" fill-rule="evenodd" clip-rule="evenodd" fill="url(#SVGID_2_)" width="53.191" height="5.285"/>
		<linearGradient id="SVGID_3_" gradientUnits="userSpaceOnUse" x1="21.2505" y1="174.0503" x2="74.4419" y2="174.0503">
			<stop  offset="0" style="stop-color:#9C2061"/>
			<stop  offset="1" style="stop-color:#EA202A"/>
		</linearGradient>
		<rect x="21.25" y="171.408" fill-rule="evenodd" clip-rule="evenodd" fill="url(#SVGID_3_)" width="53.191" height="5.285"/>
		<linearGradient id="SVGID_4_" gradientUnits="userSpaceOnUse" x1="21.2505" y1="189.9175" x2="74.4419" y2="189.9175">
			<stop  offset="0" style="stop-color:#9C2061"/>
			<stop  offset="1" style="stop-color:#EA202A"/>
		</linearGradient>
		<rect x="21.25" y="187.275" fill-rule="evenodd" clip-rule="evenodd" fill="url(#SVGID_4_)" width="53.191" height="5.285"/>
		<linearGradient id="SVGID_5_" gradientUnits="userSpaceOnUse" x1="21.2505" y1="205.7827" x2="74.4419" y2="205.7827">
			<stop  offset="0" style="stop-color:#9C2061"/>
			<stop  offset="1" style="stop-color:#EA202A"/>
		</linearGradient>
		<rect x="21.25" y="203.14" fill-rule="evenodd" clip-rule="evenodd" fill="url(#SVGID_5_)" width="53.191" height="5.285"/>
		<linearGradient id="SVGID_6_" gradientUnits="userSpaceOnUse" x1="9.8726" y1="126.4507" x2="15.7959" y2="126.4507">
			<stop  offset="0" style="stop-color:#9C2061"/>
			<stop  offset="1" style="stop-color:#EA202A"/>
		</linearGradient>
		<rect x="9.873" y="123.808" fill-rule="evenodd" clip-rule="evenodd" fill="url(#SVGID_6_)" width="5.923" height="5.285"/>
		<linearGradient id="SVGID_7_" gradientUnits="userSpaceOnUse" x1="9.8726" y1="142.3169" x2="15.7959" y2="142.3169">
			<stop  offset="0" style="stop-color:#9C2061"/>
			<stop  offset="1" style="stop-color:#EA202A"/>
		</linearGradient>
		<rect x="9.873" y="139.673" fill-rule="evenodd" clip-rule="evenodd" fill="url(#SVGID_7_)" width="5.923" height="5.287"/>
		<linearGradient id="SVGID_8_" gradientUnits="userSpaceOnUse" x1="9.8726" y1="174.0503" x2="15.7959" y2="174.0503">
			<stop  offset="0" style="stop-color:#9C2061"/>
			<stop  offset="1" style="stop-color:#EA202A"/>
		</linearGradient>
		<rect x="9.873" y="171.408" fill-rule="evenodd" clip-rule="evenodd" fill="url(#SVGID_8_)" width="5.923" height="5.285"/>
		<linearGradient id="SVGID_9_" gradientUnits="userSpaceOnUse" x1="9.8726" y1="158.1831" x2="15.7959" y2="158.1831">
			<stop  offset="0" style="stop-color:#9C2061"/>
			<stop  offset="1" style="stop-color:#EA202A"/>
		</linearGradient>
		<rect x="9.873" y="155.541" fill-rule="evenodd" clip-rule="evenodd" fill="url(#SVGID_9_)" width="5.923" height="5.285"/>
		<linearGradient id="SVGID_10_" gradientUnits="userSpaceOnUse" x1="9.8726" y1="189.9175" x2="15.7959" y2="189.9175">
			<stop  offset="0" style="stop-color:#9C2061"/>
			<stop  offset="1" style="stop-color:#EA202A"/>
		</linearGradient>
		<rect x="9.873" y="187.275" fill-rule="evenodd" clip-rule="evenodd" fill="url(#SVGID_10_)" width="5.923" height="5.285"/>
		<linearGradient id="SVGID_11_" gradientUnits="userSpaceOnUse" x1="9.8726" y1="205.7827" x2="15.7959" y2="205.7827">
			<stop  offset="0" style="stop-color:#9C2061"/>
			<stop  offset="1" style="stop-color:#EA202A"/>
		</linearGradient>
		<rect x="9.873" y="203.14" fill-rule="evenodd" clip-rule="evenodd" fill="url(#SVGID_11_)" width="5.923" height="5.285"/>
		<linearGradient id="SVGID_12_" gradientUnits="userSpaceOnUse" x1="21.2505" y1="126.4507" x2="74.4419" y2="126.4507">
			<stop  offset="0" style="stop-color:#9C2061"/>
			<stop  offset="1" style="stop-color:#EA202A"/>
		</linearGradient>
		<rect x="21.25" y="123.808" fill-rule="evenodd" clip-rule="evenodd" fill="url(#SVGID_12_)" width="53.191" height="5.285"/>
	</g>
	<g>
		<g>
			<path fill="#FFFFFF" d="M338.137,230.251c-27.447,0-49.777-22.332-49.777-49.777c0-27.449,22.33-49.781,49.777-49.781
				s49.779,22.332,49.779,49.779S365.584,230.251,338.137,230.251z"/>
			<path fill="#2F2F2F" d="M338.137,135.916c24.568,0,44.557,19.988,44.557,44.557c0,24.57-19.988,44.557-44.557,44.557
				s-44.557-19.988-44.557-44.557S313.568,135.916,338.137,135.916 M338.137,125.472c-30.375,0-55,24.625-55,55s24.625,55,55,55
				s55-24.625,55-55S368.512,125.472,338.137,125.472L338.137,125.472z"/>
		</g>
		<g>
			<rect x="337.49" y="141.089" fill="#CBD5DA" width="1.393" height="6.963"/>
		</g>
		<g>
			
				<rect x="307.017" y="158.95" transform="matrix(0.4899 -0.8718 0.8718 0.4899 15.3543 351.1043)" fill="#CBD5DA" width="1.391" height="6.961"/>
		</g>
		<g>
			
				<rect x="319.832" y="145.884" transform="matrix(0.8624 -0.5062 0.5062 0.8624 -31.5085 182.8112)" fill="#CBD5DA" width="1.393" height="6.963"/>
		</g>
		<g>
			
				<rect x="367.962" y="158.95" transform="matrix(-0.4893 -0.8721 0.8721 -0.4893 407.3973 563.42)" fill="#CBD5DA" width="1.393" height="6.962"/>
		</g>
		<g>
			
				<rect x="355.148" y="145.884" transform="matrix(-0.8628 -0.5056 0.5056 -0.8628 587.3345 458.1524)" fill="#CBD5DA" width="1.395" height="6.963"/>
		</g>
		<g>
			<g>
				<path fill="#81BD3B" d="M303.842,182.298c0.051,0.105,0.133,0.176,0.264,0.176c0.551-0.002,1.102,0,1.652,0
					c0.043,0,0.086,0,0.152,0c-0.08,0.162-0.15,0.309-0.223,0.451c-0.131,0.266-0.268,0.527-0.398,0.791
					c-0.133,0.266,0.031,0.459,0.279,0.455c0.623-0.012,1.246-0.006,1.869-0.002c0.158,0.002,0.264-0.057,0.332-0.203
					c0.129-0.271,0.264-0.537,0.404-0.801l1.279,0.029c0.73,0.021,1.461,0.068,2.191,0.063c0.555-0.004,1.107-0.072,1.658-0.125
					c0.531-0.047,1.057-0.148,1.572-0.291c0.064-0.018,0.098-0.002,0.125,0.064c0.135,0.348,0.279,0.689,0.414,1.037
					c0.064,0.158,0.141,0.225,0.314,0.225c0.635,0,1.271-0.006,1.906,0.004c0.248,0.004,0.387-0.221,0.27-0.445
					c-0.23-0.434-0.445-0.875-0.666-1.311c-0.037-0.072-0.053-0.119,0.039-0.18c1.105-0.762,2.029-1.699,2.791-2.801l0.316-0.479
					c0.201-0.369,0.406-0.734,0.6-1.107c0.09-0.168,0.154-0.35,0.238-0.523c0.016-0.033,0.066-0.066,0.104-0.07
					c0.088-0.012,0.178-0.002,0.266-0.004c0.184-0.004,0.309-0.1,0.32-0.277c0.041-0.574-0.006-1.133-0.34-1.629
					c-0.27-0.4-0.658-0.621-1.121-0.715c-0.344-0.07-0.691-0.102-1.033,0.02c-0.387,0.137-0.666,0.4-0.813,0.777
					c-0.088,0.225-0.115,0.473-0.168,0.709c-0.117,0.512-0.234,1.023-0.346,1.535c-0.012,0.059,0,0.133,0.027,0.186
					c0.104,0.195,0.23,0.377,0.324,0.574c0.154,0.318,0.104,0.625-0.082,0.924c-0.65,1.041-1.537,1.809-2.645,2.334
					c-0.598,0.283-1.219,0.49-1.861,0.629c-1.215,0.264-2.449,0.346-3.689,0.281c-0.625-0.033-1.252-0.086-1.873-0.158
					c-0.518-0.061-1.031-0.154-1.543-0.252c-0.486-0.088-0.969-0.189-1.447-0.305c-0.234-0.055-0.412-0.203-0.531-0.42
					c-0.014-0.025-0.031-0.051-0.053-0.09c-0.273,0.207-0.535,0.402-0.793,0.602C303.838,182.044,303.795,182.205,303.842,182.298z
					 M319.93,175.833c0.002-0.154,0.139-0.287,0.295-0.285s0.287,0.141,0.281,0.297c-0.006,0.158-0.127,0.275-0.285,0.275
					C320.055,176.121,319.93,175.994,319.93,175.833z"/>
				<path fill="#81BD3B" d="M313.387,181.82c-0.117,0.029-0.236,0.053-0.355,0.068c-0.717,0.092-1.438,0.162-2.162,0.125
					c-0.297,0-0.594,0.004-0.891-0.004c-0.047,0-0.111-0.043-0.137-0.086c-0.309-0.498-0.611-1.002-0.92-1.502
					c-0.043-0.074-0.051-0.135-0.014-0.211c0.285-0.576,0.57-1.154,0.857-1.729c0.018-0.037,0.063-0.074,0.102-0.082
					c0.211-0.045,0.426-0.08,0.639-0.115c0.5-0.082,0.998-0.162,1.496-0.242c0.258-0.043,0.514-0.088,0.771-0.127
					c0.041-0.004,0.1,0.01,0.127,0.039c0.465,0.457,0.926,0.918,1.383,1.383c0.025,0.025,0.037,0.088,0.023,0.123
					c-0.279,0.762-0.564,1.523-0.85,2.281C313.447,181.773,313.416,181.812,313.387,181.82z"/>
				<path fill="#81BD3B" d="M312.783,177.251c-0.029,0.043-0.09,0.076-0.141,0.088c-0.162,0.035-0.324,0.057-0.486,0.086
					c-0.377,0.064-0.752,0.129-1.127,0.193c-0.416,0.07-0.832,0.141-1.248,0.205c-0.055,0.008-0.129-0.006-0.174-0.037
					c-0.426-0.297-0.85-0.596-1.271-0.898c-0.154-0.109-0.305-0.225-0.471-0.346c1.014-0.771,2.143-1.219,3.387-1.359
					c0.949-0.109,1.889-0.041,2.814,0.25c-0.018,0.037-0.025,0.063-0.041,0.086C313.611,176.097,313.201,176.675,312.783,177.251z"
					/>
				<path fill="#81BD3B" d="M317.705,179.019c-0.459,0-0.918,0-1.377,0c-0.404,0-0.813-0.014-1.217,0.004
					c-0.232,0.012-0.395-0.057-0.555-0.227c-0.381-0.406-0.785-0.791-1.176-1.186c-0.037-0.037-0.102-0.066-0.043-0.146
					c0.418-0.576,0.83-1.154,1.24-1.734c0.053-0.078,0.104-0.08,0.176-0.047c0.688,0.311,1.311,0.715,1.855,1.236
					c0.533,0.51,0.967,1.094,1.305,1.75C318.021,178.878,317.938,179.019,317.705,179.019z"/>
				<path fill="#81BD3B" d="M309.172,178.38c-0.266,0.533-0.523,1.068-0.791,1.602c-0.02,0.043-0.076,0.084-0.123,0.094
					c-0.186,0.031-0.373,0.053-0.561,0.076c-0.668,0.082-1.338,0.164-2.006,0.25c-0.109,0.014-0.221,0.029-0.338,0.045
					c0.002-0.041-0.002-0.07,0.006-0.094c0.146-0.422,0.264-0.852,0.445-1.254c0.359-0.797,0.873-1.49,1.508-2.094
					c0.07-0.066,0.119-0.064,0.191-0.012c0.535,0.385,1.068,0.768,1.607,1.146C309.211,178.21,309.229,178.271,309.172,178.38z"/>
				<path fill="#81BD3B" d="M315.004,179.589c0.775,0.002,1.551,0.002,2.326,0.002c0.039,0,0.078,0.004,0.152,0.006
					c-0.439,0.549-0.943,0.969-1.52,1.307c-0.576,0.336-1.189,0.582-1.852,0.75c0.063-0.168,0.115-0.314,0.17-0.461
					c0.182-0.492,0.369-0.98,0.545-1.475C314.859,179.621,314.902,179.587,315.004,179.589z"/>
				<path fill="#81BD3B" d="M308.273,180.656c0.098-0.014,0.139,0.023,0.18,0.092c0.143,0.236,0.285,0.471,0.426,0.705
					c0.1,0.166,0.197,0.332,0.305,0.514c-0.346-0.043-0.67-0.076-0.992-0.119c-0.281-0.039-0.563-0.08-0.844-0.129
					c-0.344-0.059-0.688-0.121-1.029-0.189c-0.303-0.066-0.602-0.139-0.9-0.215c-0.119-0.031-0.174-0.133-0.16-0.277
					c0.258-0.031,0.508-0.061,0.76-0.092C306.77,180.851,307.521,180.757,308.273,180.656z"/>
			</g>
		</g>
		<path fill="#CBD5DA" d="M365.742,174.539h1.992c-2.611-13.314-14.334-23.363-28.412-23.363c-14.307,0-26.184,10.373-28.537,24.008
			c3.762-9.91,13.344-16.957,24.574-16.957c12.15,0,22.369,8.246,25.379,19.447h5.004V174.539L365.742,174.539z"/>
		<polygon fill="#9D1F60" points="361.908,161.646 332.428,190.169 344.852,198.763 		"/>
		<polygon fill="#EC1E28" points="361.908,161.646 332.428,190.169 339.756,193.296 		"/>
		<g>
			<path fill="#FFFFFF" d="M337.938,202.093c-3.648,0-6.615-2.967-6.615-6.613c0-3.648,2.969-6.615,6.615-6.615
				s6.613,2.967,6.613,6.615C344.551,199.126,341.584,202.093,337.938,202.093z"/>
			<path fill="#2F2F2F" d="M337.938,189.908c3.07,0,5.568,2.5,5.568,5.572c0,3.07-2.498,5.568-5.568,5.568
				c-3.072,0-5.57-2.498-5.57-5.568C332.367,192.408,334.865,189.908,337.938,189.908 M337.938,187.82
				c-4.23,0-7.658,3.43-7.658,7.66c0,4.229,3.428,7.658,7.658,7.658c4.229,0,7.658-3.43,7.658-7.658
				C345.596,191.25,342.166,187.82,337.938,187.82L337.938,187.82z"/>
		</g>
		<polygon fill="#FFA000" points="371.551,169.195 365.02,169.195 359.557,179.957 364.938,179.957 362.084,188.847 
			371.225,176.615 366.656,176.615 		"/>
		<path opacity="0.07" fill="#2F2F2F" enable-background="new    " d="M338.137,125.472c30.375,0,55,24.625,55,55s-24.625,55-55,55"
			/>
	</g>
</g>
</svg>
