<?xml version="1.0" encoding="utf-8"?>
<!-- Generator: Adobe Illustrator 16.0.0, SVG Export Plug-In . SVG Version: 6.00 Build 0)  -->
<!DOCTYPE svg PUBLIC "-//W3C//DTD SVG 1.1//EN" "http://www.w3.org/Graphics/SVG/1.1/DTD/svg11.dtd">
<svg version="1.1" id="Layer_1" xmlns="http://www.w3.org/2000/svg" xmlns:xlink="http://www.w3.org/1999/xlink" x="0px" y="0px"
	 width="540px" height="207.966px" viewBox="0 0 540 207.966" enable-background="new 0 0 540 207.966" xml:space="preserve">
<g>
	<path fill-rule="evenodd" clip-rule="evenodd" fill="none" stroke="#212121" stroke-width="1.5" stroke-miterlimit="10" d="
		M293.404,95.891c0-18.64,17.676-33.749,39.48-33.749"/>
	<g>
		<path fill-rule="evenodd" clip-rule="evenodd" fill="#616161" d="M345.18,0h189.361C537.544,0,540,2.459,540,5.458v157.935
			c0,2.998-2.459,5.459-5.459,5.459H345.18c-2.998,0-5.457-2.457-5.457-5.459V5.458C339.723,2.456,342.178,0,345.18,0z"/>
		<path fill-rule="evenodd" clip-rule="evenodd" fill="#212121" d="M352.414,21.446h174.894c2.639,0,4.796,2.163,4.796,4.795v13.698
			c0,2.633-2.162,4.797-4.796,4.797H352.414c-2.633,0-4.797-2.159-4.797-4.797V26.241C347.617,23.604,349.776,21.446,352.414,21.446
			z"/>
		<path fill-rule="evenodd" clip-rule="evenodd" fill="#43A047" d="M359.359,37.833c2.403,0,4.364-1.959,4.364-4.364
			c0-2.403-1.961-4.364-4.364-4.364s-4.363,1.961-4.363,4.364C354.996,35.873,356.956,37.833,359.359,37.833z"/>
		<path fill-rule="evenodd" clip-rule="evenodd" fill="#43A047" d="M370.713,37.833c2.402,0,4.362-1.959,4.362-4.364
			c0-2.403-1.96-4.364-4.362-4.364c-2.404,0-4.365,1.961-4.365,4.364C366.348,35.873,368.309,37.833,370.713,37.833z"/>
		<path fill-rule="evenodd" clip-rule="evenodd" fill="#43A047" d="M382.064,37.833c2.404,0,4.364-1.959,4.364-4.364
			c0-2.403-1.96-4.364-4.364-4.364c-2.403,0-4.363,1.961-4.363,4.364C377.701,35.873,379.661,37.833,382.064,37.833z"/>
		<path fill-rule="evenodd" clip-rule="evenodd" fill="#55ABDB" d="M509.142,37.833c2.403,0,4.363-1.959,4.363-4.364
			c0-2.403-1.96-4.364-4.363-4.364c-2.402,0-4.363,1.961-4.363,4.364C504.778,35.873,506.739,37.833,509.142,37.833z"/>
		<path fill-rule="evenodd" clip-rule="evenodd" fill="#55ABDB" d="M520.495,37.833c2.403,0,4.364-1.959,4.364-4.364
			c0-2.403-1.961-4.364-4.364-4.364c-2.404,0-4.363,1.961-4.363,4.364C516.132,35.873,518.091,37.833,520.495,37.833z"/>
		<rect x="392.12" y="27.267" fill-rule="evenodd" clip-rule="evenodd" fill="#424242" width="95.482" height="11.644"/>
		<rect x="399.862" y="30.622" fill-rule="evenodd" clip-rule="evenodd" width="5.027" height="5.027"/>
		<rect x="408.197" y="30.622" fill-rule="evenodd" clip-rule="evenodd" width="5.027" height="5.027"/>
		<rect x="416.533" y="30.622" fill-rule="evenodd" clip-rule="evenodd" width="5.027" height="5.027"/>
		<rect x="424.869" y="30.622" fill-rule="evenodd" clip-rule="evenodd" width="5.027" height="5.027"/>
		<rect x="433.205" y="30.622" fill-rule="evenodd" clip-rule="evenodd" width="5.028" height="5.027"/>
		<rect x="441.542" y="30.622" fill-rule="evenodd" clip-rule="evenodd" width="5.027" height="5.027"/>
		<rect x="449.878" y="30.622" fill-rule="evenodd" clip-rule="evenodd" width="5.027" height="5.027"/>
		<rect x="458.214" y="30.622" fill-rule="evenodd" clip-rule="evenodd" width="5.027" height="5.027"/>
		<rect x="466.55" y="30.622" fill-rule="evenodd" clip-rule="evenodd" width="5.027" height="5.027"/>
		<rect x="474.886" y="30.622" fill-rule="evenodd" clip-rule="evenodd" width="5.027" height="5.027"/>
		<path fill-rule="evenodd" clip-rule="evenodd" fill="#212121" d="M352.414,50.555h174.894c2.639,0,4.796,2.163,4.796,4.796v13.697
			c0,2.634-2.162,4.796-4.796,4.796H352.414c-2.633,0-4.797-2.158-4.797-4.796V55.352C347.617,52.713,349.776,50.555,352.414,50.555
			z"/>
		<path fill-rule="evenodd" clip-rule="evenodd" fill="#43A047" d="M359.359,66.941c2.403,0,4.364-1.96,4.364-4.363
			c0-2.404-1.961-4.364-4.364-4.364s-4.363,1.96-4.363,4.364C354.996,64.981,356.956,66.941,359.359,66.941z"/>
		<path fill-rule="evenodd" clip-rule="evenodd" fill="#43A047" d="M370.713,66.941c2.402,0,4.362-1.96,4.362-4.363
			c0-2.404-1.96-4.364-4.362-4.364c-2.404,0-4.365,1.96-4.365,4.364C366.348,64.981,368.309,66.941,370.713,66.941z"/>
		<path fill-rule="evenodd" clip-rule="evenodd" fill="#43A047" d="M382.064,66.941c2.404,0,4.364-1.96,4.364-4.363
			c0-2.404-1.96-4.364-4.364-4.364c-2.403,0-4.363,1.96-4.363,4.364C377.701,64.981,379.661,66.941,382.064,66.941z"/>
		<path fill-rule="evenodd" clip-rule="evenodd" fill="#55ABDB" d="M509.142,66.941c2.403,0,4.363-1.96,4.363-4.363
			c0-2.404-1.96-4.364-4.363-4.364c-2.402,0-4.363,1.96-4.363,4.364C504.778,64.981,506.739,66.941,509.142,66.941z"/>
		<path fill-rule="evenodd" clip-rule="evenodd" fill="#55ABDB" d="M520.495,66.941c2.403,0,4.364-1.96,4.364-4.363
			c0-2.404-1.961-4.364-4.364-4.364c-2.404,0-4.363,1.96-4.363,4.364C516.132,64.981,518.091,66.941,520.495,66.941z"/>
		<rect x="392.12" y="56.376" fill-rule="evenodd" clip-rule="evenodd" fill="#424242" width="95.482" height="11.643"/>
		<rect x="399.862" y="59.73" fill-rule="evenodd" clip-rule="evenodd" width="5.027" height="5.027"/>
		<rect x="408.197" y="59.73" fill-rule="evenodd" clip-rule="evenodd" width="5.027" height="5.027"/>
		<rect x="416.533" y="59.73" fill-rule="evenodd" clip-rule="evenodd" width="5.027" height="5.027"/>
		<rect x="424.869" y="59.73" fill-rule="evenodd" clip-rule="evenodd" width="5.027" height="5.027"/>
		<rect x="433.205" y="59.73" fill-rule="evenodd" clip-rule="evenodd" width="5.028" height="5.027"/>
		<rect x="441.542" y="59.73" fill-rule="evenodd" clip-rule="evenodd" width="5.027" height="5.027"/>
		<rect x="449.878" y="59.73" fill-rule="evenodd" clip-rule="evenodd" width="5.027" height="5.027"/>
		<rect x="458.214" y="59.73" fill-rule="evenodd" clip-rule="evenodd" width="5.027" height="5.027"/>
		<rect x="466.55" y="59.73" fill-rule="evenodd" clip-rule="evenodd" width="5.027" height="5.027"/>
		<rect x="474.886" y="59.73" fill-rule="evenodd" clip-rule="evenodd" width="5.027" height="5.027"/>
		<path fill-rule="evenodd" clip-rule="evenodd" fill="#212121" d="M352.414,79.665h174.894c2.639,0,4.796,2.163,4.796,4.796v13.698
			c0,2.633-2.162,4.796-4.796,4.796H352.414c-2.633,0-4.797-2.158-4.797-4.796V84.461C347.617,81.823,349.776,79.665,352.414,79.665
			z"/>
		<path fill-rule="evenodd" clip-rule="evenodd" fill="#43A047" d="M359.359,96.05c2.403,0,4.364-1.959,4.364-4.361
			c0-2.405-1.961-4.364-4.364-4.364s-4.363,1.959-4.363,4.364C354.996,94.091,356.956,96.05,359.359,96.05z"/>
		<path fill-rule="evenodd" clip-rule="evenodd" fill="#43A047" d="M370.713,96.05c2.402,0,4.362-1.959,4.362-4.361
			c0-2.405-1.96-4.364-4.362-4.364c-2.404,0-4.365,1.959-4.365,4.364C366.348,94.091,368.309,96.05,370.713,96.05z"/>
		<path fill-rule="evenodd" clip-rule="evenodd" fill="#43A047" d="M382.064,96.05c2.404,0,4.364-1.959,4.364-4.361
			c0-2.405-1.96-4.364-4.364-4.364c-2.403,0-4.363,1.959-4.363,4.364C377.701,94.091,379.661,96.05,382.064,96.05z"/>
		<path fill-rule="evenodd" clip-rule="evenodd" fill="#55ABDB" d="M509.142,96.05c2.403,0,4.363-1.959,4.363-4.361
			c0-2.405-1.96-4.364-4.363-4.364c-2.402,0-4.363,1.959-4.363,4.364C504.778,94.091,506.739,96.05,509.142,96.05z"/>
		<path fill-rule="evenodd" clip-rule="evenodd" fill="#55ABDB" d="M520.495,96.05c2.403,0,4.364-1.959,4.364-4.361
			c0-2.405-1.961-4.364-4.364-4.364c-2.404,0-4.363,1.959-4.363,4.364C516.132,94.091,518.091,96.05,520.495,96.05z"/>
		<rect x="392.12" y="85.484" fill-rule="evenodd" clip-rule="evenodd" fill="#424242" width="95.482" height="11.646"/>
		<rect x="399.862" y="88.839" fill-rule="evenodd" clip-rule="evenodd" width="5.027" height="5.028"/>
		<rect x="408.197" y="88.839" fill-rule="evenodd" clip-rule="evenodd" width="5.027" height="5.028"/>
		<rect x="416.533" y="88.839" fill-rule="evenodd" clip-rule="evenodd" width="5.027" height="5.028"/>
		<rect x="424.869" y="88.839" fill-rule="evenodd" clip-rule="evenodd" width="5.027" height="5.028"/>
		<rect x="433.205" y="88.839" fill-rule="evenodd" clip-rule="evenodd" width="5.028" height="5.028"/>
		<rect x="441.542" y="88.839" fill-rule="evenodd" clip-rule="evenodd" width="5.027" height="5.028"/>
		<rect x="449.878" y="88.839" fill-rule="evenodd" clip-rule="evenodd" width="5.027" height="5.028"/>
		<rect x="458.214" y="88.839" fill-rule="evenodd" clip-rule="evenodd" width="5.027" height="5.028"/>
		<rect x="466.55" y="88.839" fill-rule="evenodd" clip-rule="evenodd" width="5.027" height="5.028"/>
		<rect x="474.886" y="88.839" fill-rule="evenodd" clip-rule="evenodd" width="5.027" height="5.028"/>
		<path fill-rule="evenodd" clip-rule="evenodd" fill="#212121" d="M352.414,108.776h174.894c2.639,0,4.796,2.16,4.796,4.795v13.697
			c0,2.633-2.162,4.797-4.796,4.797H352.414c-2.633,0-4.797-2.16-4.797-4.797v-13.697
			C347.617,110.932,349.776,108.776,352.414,108.776z"/>
		<path fill-rule="evenodd" clip-rule="evenodd" fill="#43A047" d="M359.359,125.161c2.403,0,4.364-1.961,4.364-4.363
			c0-2.404-1.961-4.365-4.364-4.365s-4.363,1.961-4.363,4.365C354.996,123.2,356.956,125.161,359.359,125.161z"/>
		<path fill-rule="evenodd" clip-rule="evenodd" fill="#43A047" d="M370.713,125.161c2.402,0,4.362-1.961,4.362-4.363
			c0-2.404-1.96-4.365-4.362-4.365c-2.404,0-4.365,1.961-4.365,4.365C366.348,123.2,368.309,125.161,370.713,125.161z"/>
		<path fill-rule="evenodd" clip-rule="evenodd" fill="#43A047" d="M382.064,125.161c2.404,0,4.364-1.961,4.364-4.363
			c0-2.404-1.96-4.365-4.364-4.365c-2.403,0-4.363,1.961-4.363,4.365C377.701,123.2,379.661,125.161,382.064,125.161z"/>
		<path fill-rule="evenodd" clip-rule="evenodd" fill="#55ABDB" d="M509.142,125.161c2.403,0,4.363-1.961,4.363-4.363
			c0-2.404-1.96-4.365-4.363-4.365c-2.402,0-4.363,1.961-4.363,4.365C504.778,123.2,506.739,125.161,509.142,125.161z"/>
		<path fill-rule="evenodd" clip-rule="evenodd" fill="#55ABDB" d="M520.495,125.161c2.403,0,4.364-1.961,4.364-4.363
			c0-2.404-1.961-4.365-4.364-4.365c-2.404,0-4.363,1.961-4.363,4.365C516.132,123.2,518.091,125.161,520.495,125.161z"/>
		<rect x="392.12" y="114.594" fill-rule="evenodd" clip-rule="evenodd" fill="#424242" width="95.482" height="11.645"/>
		<rect x="399.862" y="117.95" fill-rule="evenodd" clip-rule="evenodd" width="5.027" height="5.027"/>
		<rect x="408.197" y="117.95" fill-rule="evenodd" clip-rule="evenodd" width="5.027" height="5.027"/>
		<rect x="416.533" y="117.95" fill-rule="evenodd" clip-rule="evenodd" width="5.027" height="5.027"/>
		<rect x="424.869" y="117.95" fill-rule="evenodd" clip-rule="evenodd" width="5.027" height="5.027"/>
		<rect x="433.205" y="117.95" fill-rule="evenodd" clip-rule="evenodd" width="5.028" height="5.027"/>
		<rect x="441.542" y="117.95" fill-rule="evenodd" clip-rule="evenodd" width="5.027" height="5.027"/>
		<rect x="449.878" y="117.95" fill-rule="evenodd" clip-rule="evenodd" width="5.027" height="5.027"/>
		<rect x="458.214" y="117.95" fill-rule="evenodd" clip-rule="evenodd" width="5.027" height="5.027"/>
		<rect x="466.55" y="117.95" fill-rule="evenodd" clip-rule="evenodd" width="5.027" height="5.027"/>
		<rect x="474.886" y="117.95" fill-rule="evenodd" clip-rule="evenodd" width="5.027" height="5.027"/>
		<path fill-rule="evenodd" clip-rule="evenodd" fill="#212121" d="M352.414,137.883h174.894c2.639,0,4.796,2.164,4.796,4.795
			v13.699c0,2.633-2.162,4.795-4.796,4.795H352.414c-2.633,0-4.797-2.156-4.797-4.795v-13.699
			C347.617,140.042,349.776,137.883,352.414,137.883z"/>
		<path fill-rule="evenodd" clip-rule="evenodd" fill="#43A047" d="M359.359,154.268c2.403,0,4.364-1.957,4.364-4.361
			c0-2.406-1.961-4.363-4.364-4.363s-4.363,1.957-4.363,4.363C354.996,152.311,356.956,154.268,359.359,154.268z"/>
		<path fill-rule="evenodd" clip-rule="evenodd" fill="#43A047" d="M370.713,154.268c2.402,0,4.362-1.957,4.362-4.361
			c0-2.406-1.96-4.363-4.362-4.363c-2.404,0-4.365,1.957-4.365,4.363C366.348,152.311,368.309,154.268,370.713,154.268z"/>
		<path fill-rule="evenodd" clip-rule="evenodd" fill="#43A047" d="M382.064,154.268c2.404,0,4.364-1.957,4.364-4.361
			c0-2.406-1.96-4.363-4.364-4.363c-2.403,0-4.363,1.957-4.363,4.363C377.701,152.311,379.661,154.268,382.064,154.268z"/>
		<path fill-rule="evenodd" clip-rule="evenodd" fill="#55ABDB" d="M509.142,154.268c2.403,0,4.363-1.957,4.363-4.361
			c0-2.406-1.96-4.363-4.363-4.363c-2.402,0-4.363,1.957-4.363,4.363C504.778,152.311,506.739,154.268,509.142,154.268z"/>
		<path fill-rule="evenodd" clip-rule="evenodd" fill="#55ABDB" d="M520.495,154.268c2.403,0,4.364-1.957,4.364-4.361
			c0-2.406-1.961-4.363-4.364-4.363c-2.404,0-4.363,1.957-4.363,4.363C516.132,152.311,518.091,154.268,520.495,154.268z"/>
		<rect x="392.12" y="143.704" fill-rule="evenodd" clip-rule="evenodd" fill="#424242" width="95.482" height="11.645"/>
		<rect x="399.862" y="147.057" fill-rule="evenodd" clip-rule="evenodd" width="5.027" height="5.029"/>
		<rect x="408.197" y="147.057" fill-rule="evenodd" clip-rule="evenodd" width="5.027" height="5.029"/>
		<rect x="416.533" y="147.057" fill-rule="evenodd" clip-rule="evenodd" width="5.027" height="5.029"/>
		<rect x="424.869" y="147.057" fill-rule="evenodd" clip-rule="evenodd" width="5.027" height="5.029"/>
		<rect x="433.205" y="147.057" fill-rule="evenodd" clip-rule="evenodd" width="5.028" height="5.029"/>
		<rect x="441.542" y="147.057" fill-rule="evenodd" clip-rule="evenodd" width="5.027" height="5.029"/>
		<rect x="449.878" y="147.057" fill-rule="evenodd" clip-rule="evenodd" width="5.027" height="5.029"/>
		<rect x="458.214" y="147.057" fill-rule="evenodd" clip-rule="evenodd" width="5.027" height="5.029"/>
		<rect x="466.55" y="147.057" fill-rule="evenodd" clip-rule="evenodd" width="5.027" height="5.029"/>
		<rect x="474.886" y="147.057" fill-rule="evenodd" clip-rule="evenodd" width="5.027" height="5.029"/>
		<path fill-rule="evenodd" clip-rule="evenodd" fill="#757575" d="M522.243,15.851c2.857,0,5.189-2.331,5.189-5.188
			s-2.332-5.188-5.189-5.188s-5.188,2.331-5.188,5.188S519.386,15.851,522.243,15.851z"/>
		<path fill-rule="evenodd" clip-rule="evenodd" fill="#424242" d="M522.243,13.961c1.817,0,3.298-1.482,3.298-3.298
			s-1.48-3.298-3.298-3.298c-1.815,0-3.298,1.481-3.298,3.298S520.428,13.961,522.243,13.961z"/>
		<path fill-rule="evenodd" clip-rule="evenodd" fill="#757575" d="M357.479,15.851c2.857,0,5.188-2.331,5.188-5.188
			s-2.33-5.188-5.188-5.188s-5.189,2.331-5.189,5.188S354.621,15.851,357.479,15.851z"/>
		<path fill-rule="evenodd" clip-rule="evenodd" fill="#424242" d="M357.479,13.961c1.816,0,3.297-1.482,3.297-3.298
			s-1.48-3.298-3.297-3.298s-3.299,1.481-3.299,3.298S355.662,13.961,357.479,13.961z"/>
	</g>
	<g>
		<path fill-rule="evenodd" clip-rule="evenodd" fill="#616161" d="M5.458,0h189.361c3.002,0,5.458,2.459,5.458,5.458v157.935
			c0,2.998-2.458,5.459-5.458,5.459H5.458c-2.999,0-5.458-2.457-5.458-5.459V5.458C0,2.456,2.455,0,5.458,0z"/>
		<path fill-rule="evenodd" clip-rule="evenodd" fill="#212121" d="M12.691,21.446h174.893c2.64,0,4.797,2.163,4.797,4.795v13.698
			c0,2.633-2.163,4.797-4.797,4.797H12.691c-2.633,0-4.797-2.159-4.797-4.797V26.241C7.895,23.604,10.054,21.446,12.691,21.446z"/>
		<path fill-rule="evenodd" clip-rule="evenodd" fill="#43A047" d="M19.636,37.833c2.404,0,4.365-1.959,4.365-4.364
			c0-2.403-1.961-4.364-4.365-4.364c-2.403,0-4.363,1.961-4.363,4.364C15.273,35.873,17.233,37.833,19.636,37.833z"/>
		<path fill-rule="evenodd" clip-rule="evenodd" fill="#43A047" d="M30.99,37.833c2.403,0,4.363-1.959,4.363-4.364
			c0-2.403-1.96-4.364-4.363-4.364c-2.404,0-4.364,1.961-4.364,4.364C26.625,35.873,28.586,37.833,30.99,37.833z"/>
		<path fill-rule="evenodd" clip-rule="evenodd" fill="#43A047" d="M42.342,37.833c2.404,0,4.364-1.959,4.364-4.364
			c0-2.403-1.96-4.364-4.364-4.364s-4.363,1.961-4.363,4.364C37.979,35.873,39.938,37.833,42.342,37.833z"/>
		<path fill-rule="evenodd" clip-rule="evenodd" fill="#55ABDB" d="M169.419,37.833c2.403,0,4.363-1.959,4.363-4.364
			c0-2.403-1.96-4.364-4.363-4.364s-4.364,1.961-4.364,4.364C165.055,35.873,167.017,37.833,169.419,37.833z"/>
		<path fill-rule="evenodd" clip-rule="evenodd" fill="#55ABDB" d="M180.773,37.833c2.403,0,4.362-1.959,4.362-4.364
			c0-2.403-1.959-4.364-4.362-4.364c-2.405,0-4.365,1.961-4.365,4.364C176.409,35.873,178.369,37.833,180.773,37.833z"/>
		<rect x="52.397" y="27.267" fill-rule="evenodd" clip-rule="evenodd" fill="#424242" width="95.481" height="11.644"/>
		<rect x="60.14" y="30.622" fill-rule="evenodd" clip-rule="evenodd" width="5.027" height="5.027"/>
		<rect x="68.475" y="30.622" fill-rule="evenodd" clip-rule="evenodd" width="5.026" height="5.027"/>
		<rect x="76.811" y="30.622" fill-rule="evenodd" clip-rule="evenodd" width="5.027" height="5.027"/>
		<rect x="85.147" y="30.622" fill-rule="evenodd" clip-rule="evenodd" width="5.028" height="5.027"/>
		<rect x="93.482" y="30.622" fill-rule="evenodd" clip-rule="evenodd" width="5.028" height="5.027"/>
		<rect x="101.819" y="30.622" fill-rule="evenodd" clip-rule="evenodd" width="5.027" height="5.027"/>
		<rect x="110.155" y="30.622" fill-rule="evenodd" clip-rule="evenodd" width="5.027" height="5.027"/>
		<rect x="118.491" y="30.622" fill-rule="evenodd" clip-rule="evenodd" width="5.028" height="5.027"/>
		<rect x="126.827" y="30.622" fill-rule="evenodd" clip-rule="evenodd" width="5.028" height="5.027"/>
		<rect x="135.163" y="30.622" fill-rule="evenodd" clip-rule="evenodd" width="5.027" height="5.027"/>
		<path fill-rule="evenodd" clip-rule="evenodd" fill="#212121" d="M12.691,50.555h174.893c2.64,0,4.797,2.163,4.797,4.796v13.697
			c0,2.634-2.163,4.796-4.797,4.796H12.691c-2.633,0-4.797-2.158-4.797-4.796V55.352C7.895,52.713,10.054,50.555,12.691,50.555z"/>
		<path fill-rule="evenodd" clip-rule="evenodd" fill="#43A047" d="M19.636,66.941c2.404,0,4.365-1.96,4.365-4.363
			c0-2.404-1.961-4.364-4.365-4.364c-2.403,0-4.363,1.96-4.363,4.364C15.273,64.981,17.233,66.941,19.636,66.941z"/>
		<path fill-rule="evenodd" clip-rule="evenodd" fill="#43A047" d="M30.99,66.941c2.403,0,4.363-1.96,4.363-4.363
			c0-2.404-1.96-4.364-4.363-4.364c-2.404,0-4.364,1.96-4.364,4.364C26.625,64.981,28.586,66.941,30.99,66.941z"/>
		<path fill-rule="evenodd" clip-rule="evenodd" fill="#43A047" d="M42.342,66.941c2.404,0,4.364-1.96,4.364-4.363
			c0-2.404-1.96-4.364-4.364-4.364s-4.363,1.96-4.363,4.364C37.979,64.981,39.938,66.941,42.342,66.941z"/>
		<path fill-rule="evenodd" clip-rule="evenodd" fill="#55ABDB" d="M169.419,66.941c2.403,0,4.363-1.96,4.363-4.363
			c0-2.404-1.96-4.364-4.363-4.364s-4.364,1.96-4.364,4.364C165.055,64.981,167.017,66.941,169.419,66.941z"/>
		<path fill-rule="evenodd" clip-rule="evenodd" fill="#55ABDB" d="M180.773,66.941c2.403,0,4.362-1.96,4.362-4.363
			c0-2.404-1.959-4.364-4.362-4.364c-2.405,0-4.365,1.96-4.365,4.364C176.409,64.981,178.369,66.941,180.773,66.941z"/>
		<rect x="52.397" y="56.376" fill-rule="evenodd" clip-rule="evenodd" fill="#424242" width="95.481" height="11.643"/>
		<rect x="60.14" y="59.73" fill-rule="evenodd" clip-rule="evenodd" width="5.027" height="5.027"/>
		<rect x="68.475" y="59.73" fill-rule="evenodd" clip-rule="evenodd" width="5.026" height="5.027"/>
		<rect x="76.811" y="59.73" fill-rule="evenodd" clip-rule="evenodd" width="5.027" height="5.027"/>
		<rect x="85.147" y="59.73" fill-rule="evenodd" clip-rule="evenodd" width="5.028" height="5.027"/>
		<rect x="93.482" y="59.73" fill-rule="evenodd" clip-rule="evenodd" width="5.028" height="5.027"/>
		<rect x="101.819" y="59.73" fill-rule="evenodd" clip-rule="evenodd" width="5.027" height="5.027"/>
		<rect x="110.155" y="59.73" fill-rule="evenodd" clip-rule="evenodd" width="5.027" height="5.027"/>
		<rect x="118.491" y="59.73" fill-rule="evenodd" clip-rule="evenodd" width="5.028" height="5.027"/>
		<rect x="126.827" y="59.73" fill-rule="evenodd" clip-rule="evenodd" width="5.028" height="5.027"/>
		<rect x="135.163" y="59.73" fill-rule="evenodd" clip-rule="evenodd" width="5.027" height="5.027"/>
		<path fill-rule="evenodd" clip-rule="evenodd" fill="#212121" d="M12.691,79.665h174.893c2.64,0,4.797,2.163,4.797,4.796v13.698
			c0,2.633-2.163,4.796-4.797,4.796H12.691c-2.633,0-4.797-2.158-4.797-4.796V84.461C7.895,81.823,10.054,79.665,12.691,79.665z"/>
		<path fill-rule="evenodd" clip-rule="evenodd" fill="#43A047" d="M19.636,96.05c2.404,0,4.365-1.959,4.365-4.361
			c0-2.405-1.961-4.364-4.365-4.364c-2.403,0-4.363,1.959-4.363,4.364C15.273,94.091,17.233,96.05,19.636,96.05z"/>
		<path fill-rule="evenodd" clip-rule="evenodd" fill="#43A047" d="M30.99,96.05c2.403,0,4.363-1.959,4.363-4.361
			c0-2.405-1.96-4.364-4.363-4.364c-2.404,0-4.364,1.959-4.364,4.364C26.625,94.091,28.586,96.05,30.99,96.05z"/>
		<path fill-rule="evenodd" clip-rule="evenodd" fill="#43A047" d="M42.342,96.05c2.404,0,4.364-1.959,4.364-4.361
			c0-2.405-1.96-4.364-4.364-4.364s-4.363,1.959-4.363,4.364C37.979,94.091,39.938,96.05,42.342,96.05z"/>
		<path fill-rule="evenodd" clip-rule="evenodd" fill="#55ABDB" d="M169.419,96.05c2.403,0,4.363-1.959,4.363-4.361
			c0-2.405-1.96-4.364-4.363-4.364s-4.364,1.959-4.364,4.364C165.055,94.091,167.017,96.05,169.419,96.05z"/>
		<path fill-rule="evenodd" clip-rule="evenodd" fill="#55ABDB" d="M180.773,96.05c2.403,0,4.362-1.959,4.362-4.361
			c0-2.405-1.959-4.364-4.362-4.364c-2.405,0-4.365,1.959-4.365,4.364C176.409,94.091,178.369,96.05,180.773,96.05z"/>
		<rect x="52.397" y="85.484" fill-rule="evenodd" clip-rule="evenodd" fill="#424242" width="95.481" height="11.646"/>
		<rect x="60.14" y="88.839" fill-rule="evenodd" clip-rule="evenodd" width="5.027" height="5.028"/>
		<rect x="68.475" y="88.839" fill-rule="evenodd" clip-rule="evenodd" width="5.026" height="5.028"/>
		<rect x="76.811" y="88.839" fill-rule="evenodd" clip-rule="evenodd" width="5.027" height="5.028"/>
		<rect x="85.147" y="88.839" fill-rule="evenodd" clip-rule="evenodd" width="5.028" height="5.028"/>
		<rect x="93.482" y="88.839" fill-rule="evenodd" clip-rule="evenodd" width="5.028" height="5.028"/>
		<rect x="101.819" y="88.839" fill-rule="evenodd" clip-rule="evenodd" width="5.027" height="5.028"/>
		<rect x="110.155" y="88.839" fill-rule="evenodd" clip-rule="evenodd" width="5.027" height="5.028"/>
		<rect x="118.491" y="88.839" fill-rule="evenodd" clip-rule="evenodd" width="5.028" height="5.028"/>
		<rect x="126.827" y="88.839" fill-rule="evenodd" clip-rule="evenodd" width="5.028" height="5.028"/>
		<rect x="135.163" y="88.839" fill-rule="evenodd" clip-rule="evenodd" width="5.027" height="5.028"/>
		<path fill-rule="evenodd" clip-rule="evenodd" fill="#212121" d="M12.691,108.776h174.893c2.64,0,4.797,2.16,4.797,4.795v13.697
			c0,2.633-2.163,4.797-4.797,4.797H12.691c-2.633,0-4.797-2.16-4.797-4.797v-13.697C7.895,110.932,10.054,108.776,12.691,108.776z"
			/>
		<path fill-rule="evenodd" clip-rule="evenodd" fill="#43A047" d="M19.636,125.161c2.404,0,4.365-1.961,4.365-4.363
			c0-2.404-1.961-4.365-4.365-4.365c-2.403,0-4.363,1.961-4.363,4.365C15.273,123.2,17.233,125.161,19.636,125.161z"/>
		<path fill-rule="evenodd" clip-rule="evenodd" fill="#43A047" d="M30.99,125.161c2.403,0,4.363-1.961,4.363-4.363
			c0-2.404-1.96-4.365-4.363-4.365c-2.404,0-4.364,1.961-4.364,4.365C26.625,123.2,28.586,125.161,30.99,125.161z"/>
		<path fill-rule="evenodd" clip-rule="evenodd" fill="#43A047" d="M42.342,125.161c2.404,0,4.364-1.961,4.364-4.363
			c0-2.404-1.96-4.365-4.364-4.365s-4.363,1.961-4.363,4.365C37.979,123.2,39.938,125.161,42.342,125.161z"/>
		<path fill-rule="evenodd" clip-rule="evenodd" fill="#55ABDB" d="M169.419,125.161c2.403,0,4.363-1.961,4.363-4.363
			c0-2.404-1.96-4.365-4.363-4.365s-4.364,1.961-4.364,4.365C165.055,123.2,167.017,125.161,169.419,125.161z"/>
		<path fill-rule="evenodd" clip-rule="evenodd" fill="#55ABDB" d="M180.773,125.161c2.403,0,4.362-1.961,4.362-4.363
			c0-2.404-1.959-4.365-4.362-4.365c-2.405,0-4.365,1.961-4.365,4.365C176.409,123.2,178.369,125.161,180.773,125.161z"/>
		<rect x="52.397" y="114.594" fill-rule="evenodd" clip-rule="evenodd" fill="#424242" width="95.481" height="11.645"/>
		<rect x="60.14" y="117.95" fill-rule="evenodd" clip-rule="evenodd" width="5.027" height="5.027"/>
		<rect x="68.475" y="117.95" fill-rule="evenodd" clip-rule="evenodd" width="5.026" height="5.027"/>
		<rect x="76.811" y="117.95" fill-rule="evenodd" clip-rule="evenodd" width="5.027" height="5.027"/>
		<rect x="85.147" y="117.95" fill-rule="evenodd" clip-rule="evenodd" width="5.028" height="5.027"/>
		<rect x="93.482" y="117.95" fill-rule="evenodd" clip-rule="evenodd" width="5.028" height="5.027"/>
		<rect x="101.819" y="117.95" fill-rule="evenodd" clip-rule="evenodd" width="5.027" height="5.027"/>
		<rect x="110.155" y="117.95" fill-rule="evenodd" clip-rule="evenodd" width="5.027" height="5.027"/>
		<rect x="118.491" y="117.95" fill-rule="evenodd" clip-rule="evenodd" width="5.028" height="5.027"/>
		<rect x="126.827" y="117.95" fill-rule="evenodd" clip-rule="evenodd" width="5.028" height="5.027"/>
		<rect x="135.163" y="117.95" fill-rule="evenodd" clip-rule="evenodd" width="5.027" height="5.027"/>
		<path fill-rule="evenodd" clip-rule="evenodd" fill="#212121" d="M12.691,137.883h174.893c2.64,0,4.797,2.164,4.797,4.795v13.699
			c0,2.633-2.163,4.795-4.797,4.795H12.691c-2.633,0-4.797-2.156-4.797-4.795v-13.699C7.895,140.042,10.054,137.883,12.691,137.883z
			"/>
		<path fill-rule="evenodd" clip-rule="evenodd" fill="#43A047" d="M19.636,154.268c2.404,0,4.365-1.957,4.365-4.361
			c0-2.406-1.961-4.363-4.365-4.363c-2.403,0-4.363,1.957-4.363,4.363C15.273,152.311,17.233,154.268,19.636,154.268z"/>
		<path fill-rule="evenodd" clip-rule="evenodd" fill="#43A047" d="M30.99,154.268c2.403,0,4.363-1.957,4.363-4.361
			c0-2.406-1.96-4.363-4.363-4.363c-2.404,0-4.364,1.957-4.364,4.363C26.625,152.311,28.586,154.268,30.99,154.268z"/>
		<path fill-rule="evenodd" clip-rule="evenodd" fill="#43A047" d="M42.342,154.268c2.404,0,4.364-1.957,4.364-4.361
			c0-2.406-1.96-4.363-4.364-4.363s-4.363,1.957-4.363,4.363C37.979,152.311,39.938,154.268,42.342,154.268z"/>
		<path fill-rule="evenodd" clip-rule="evenodd" fill="#55ABDB" d="M169.419,154.268c2.403,0,4.363-1.957,4.363-4.361
			c0-2.406-1.96-4.363-4.363-4.363s-4.364,1.957-4.364,4.363C165.055,152.311,167.017,154.268,169.419,154.268z"/>
		<path fill-rule="evenodd" clip-rule="evenodd" fill="#55ABDB" d="M180.773,154.268c2.403,0,4.362-1.957,4.362-4.361
			c0-2.406-1.959-4.363-4.362-4.363c-2.405,0-4.365,1.957-4.365,4.363C176.409,152.311,178.369,154.268,180.773,154.268z"/>
		<rect x="52.397" y="143.704" fill-rule="evenodd" clip-rule="evenodd" fill="#424242" width="95.481" height="11.645"/>
		<rect x="60.14" y="147.057" fill-rule="evenodd" clip-rule="evenodd" width="5.027" height="5.029"/>
		<rect x="68.475" y="147.057" fill-rule="evenodd" clip-rule="evenodd" width="5.026" height="5.029"/>
		<rect x="76.811" y="147.057" fill-rule="evenodd" clip-rule="evenodd" width="5.027" height="5.029"/>
		<rect x="85.147" y="147.057" fill-rule="evenodd" clip-rule="evenodd" width="5.028" height="5.029"/>
		<rect x="93.482" y="147.057" fill-rule="evenodd" clip-rule="evenodd" width="5.028" height="5.029"/>
		<rect x="101.819" y="147.057" fill-rule="evenodd" clip-rule="evenodd" width="5.027" height="5.029"/>
		<rect x="110.155" y="147.057" fill-rule="evenodd" clip-rule="evenodd" width="5.027" height="5.029"/>
		<rect x="118.491" y="147.057" fill-rule="evenodd" clip-rule="evenodd" width="5.028" height="5.029"/>
		<rect x="126.827" y="147.057" fill-rule="evenodd" clip-rule="evenodd" width="5.028" height="5.029"/>
		<rect x="135.163" y="147.057" fill-rule="evenodd" clip-rule="evenodd" width="5.027" height="5.029"/>
		<path fill-rule="evenodd" clip-rule="evenodd" fill="#757575" d="M182.521,15.851c2.858,0,5.189-2.331,5.189-5.188
			s-2.331-5.188-5.189-5.188c-2.858,0-5.187,2.331-5.187,5.188S179.663,15.851,182.521,15.851z"/>
		<path fill-rule="evenodd" clip-rule="evenodd" fill="#424242" d="M182.521,13.961c1.817,0,3.298-1.482,3.298-3.298
			s-1.481-3.298-3.298-3.298c-1.815,0-3.297,1.481-3.297,3.298S180.705,13.961,182.521,13.961z"/>
		<path fill-rule="evenodd" clip-rule="evenodd" fill="#757575" d="M17.756,15.851c2.857,0,5.187-2.331,5.187-5.188
			s-2.33-5.188-5.187-5.188c-2.857,0-5.189,2.331-5.189,5.188S14.899,15.851,17.756,15.851z"/>
		<path fill-rule="evenodd" clip-rule="evenodd" fill="#424242" d="M17.756,13.961c1.816,0,3.297-1.482,3.297-3.298
			s-1.481-3.298-3.297-3.298s-3.299,1.481-3.299,3.298S15.94,13.961,17.756,13.961z"/>
	</g>
	<path fill-rule="evenodd" clip-rule="evenodd" fill="#212121" d="M339.723,69.15c-3.871,0-7.01-3.139-7.01-7.009
		c0-3.872,3.139-7.01,7.01-7.01V69.15z"/>
	<path fill-rule="evenodd" clip-rule="evenodd" fill="none" stroke="#212121" stroke-width="1.5" stroke-miterlimit="10" d="
		M246.594,95.891c0-18.64-17.675-33.749-39.479-33.749"/>
	<path fill-rule="evenodd" clip-rule="evenodd" fill="#212121" d="M200.277,69.15c3.872,0,7.01-3.139,7.01-7.009
		c0-3.872-3.138-7.01-7.01-7.01V69.15z"/>
</g>
<g>
	<path fill-rule="evenodd" clip-rule="evenodd" fill="#CCD5D5" d="M270,205.965c-31.957,0-57.956-25.998-57.956-57.955
		c0-31.959,25.999-57.958,57.956-57.958s57.955,25.999,57.955,57.958C327.955,179.967,301.957,205.965,270,205.965z"/>
	<path fill="#212121" d="M270,92.053c30.819,0,55.955,25.137,55.955,55.958c0,30.818-25.136,55.955-55.955,55.955
		c-30.82,0-55.956-25.137-55.956-55.955C214.044,117.19,239.18,92.053,270,92.053 M270,88.053c-33.06,0-59.956,26.897-59.956,59.958
		c0,33.059,26.896,59.955,59.956,59.955c33.06,0,59.955-26.896,59.955-59.955C329.955,114.95,303.06,88.053,270,88.053L270,88.053z"
		/>
</g>
<g>
	<g>
		<linearGradient id="SVGID_1_" gradientUnits="userSpaceOnUse" x1="225.5317" y1="102.0972" x2="296.0293" y2="102.0972">
			<stop  offset="0" style="stop-color:#9D1F60"/>
			<stop  offset="1" style="stop-color:#EC1E28"/>
		</linearGradient>
		<path fill-rule="evenodd" clip-rule="evenodd" fill="url(#SVGID_1_)" d="M225.532,112.969l1.348-1.637
			c4.434-5.381,9.769-9.823,15.856-13.201c7.096-3.874,14.78-6.15,22.845-6.77c1.31-0.091,2.624-0.137,3.911-0.137
			c8.136,0,16.057,1.786,23.543,5.308l2.994,1.409l-5.378,0.797l-5.083-0.76l-3.354,2.231l-2.843,3.15l-10.201,0.941l-3.474-0.573
			l-2.649,4.175l-8.665,0.496l-4.778-1.381l-4.238,2.332l-9.76,1.35l-7.794,2.268H225.532z M255.521,101.969l5.727-1.503
			l-0.687-1.201l-2.791,0.894l-2.067-0.869c-0.386,0.391-1.006,0.908-2.007,1.607L255.521,101.969z M271.078,100.019l4.278-0.439
			l3.739-2.836l-1.769-1.023l-5.056,2.78l-1.8,1.121L271.078,100.019z"/>
		<path fill="#212121" d="M269.492,92.226c8.284,0,16.098,1.91,23.118,5.213l-1.957,0.29l-5.317-0.795l-3.779,2.515l-2.665,2.953
			l-9.684,0.894l-4-0.66l-2.729,4.301l-7.982,0.457l-5.011-1.449l-4.439,2.443l-9.649,1.334l-7.728,2.248h-0.018
			c4.315-5.238,9.597-9.649,15.57-12.963c6.756-3.688,14.355-6.026,22.436-6.646C266.924,92.271,268.203,92.226,269.492,92.226
			 M270.826,101.05l4.911-0.505l5.161-3.913l-3.559-2.061l-5.55,3.053l-3.175,1.975L270.826,101.05 M257.817,99.093l-2.444-1.027
			c-0.087,0.655-3.56,2.885-3.56,2.885l3.56,2.091l7.39-1.938l-1.736-3.037L257.817,99.093 M269.492,90.226
			c-1.311,0-2.647,0.047-3.973,0.139c-8.222,0.631-16.041,2.947-23.256,6.886c-6.21,3.446-11.641,7.969-16.155,13.448l-2.696,3.271
			h4.239h0.285l0.292-0.08l7.588-2.207l9.504-1.313l0.366-0.051l0.324-0.18l3.714-2.043l4.216,1.219l0.329,0.096l0.341-0.02
			l7.982-0.457l1.025-0.059l0.55-0.867l2.02-3.186l2.694,0.445l0.253,0.043l0.256-0.025l9.684-0.893l0.777-0.071l0.523-0.58
			l2.497-2.767l2.929-1.949l4.555,0.681l0.295,0.045l0.295-0.044l1.957-0.29l6.547-0.971l-5.988-2.817
			C285.84,92.044,277.775,90.226,269.492,90.226L269.492,90.226z M273.951,98.718l3.227-1.775l-2.202,1.67L273.951,98.718
			L273.951,98.718z M255.507,100.801c0.148-0.118,0.284-0.23,0.409-0.338l0.539,0.227l-0.785,0.206L255.507,100.801L255.507,100.801
			z"/>
	</g>
	<g>
		<linearGradient id="SVGID_2_" gradientUnits="userSpaceOnUse" x1="280.6641" y1="144.8657" x2="326.9551" y2="144.8657">
			<stop  offset="0" style="stop-color:#9D1F60"/>
			<stop  offset="1" style="stop-color:#EC1E28"/>
		</linearGradient>
		<path fill-rule="evenodd" clip-rule="evenodd" fill="url(#SVGID_2_)" d="M304.014,180.598l0.266-0.26
			c3.658-3.57,5.005-6.111,6.192-8.352c1.341-2.531,2.504-4.725,6.249-7.459l2.865-9.322l-7.9-2.871l-0.125-0.098
			c-0.713-0.561-1.287-1.07-1.795-1.521c-1.471-1.307-2.209-1.963-4.149-1.963c-0.216,0-0.444,0.008-0.688,0.025l-0.073,0.004
			l-5.023-0.396l-3.963,0.115l-3.77,1.85l-0.494-0.379c-0.438-0.338-0.783-0.621-1.074-0.857c-1.22-0.992-1.243-1.012-3.398-1.229
			l-0.793-0.08l-0.381-3.045l-1.15,0.254l-1.965,3.326l-0.787-1.783c-0.244-0.555-0.461-1.016-0.645-1.404
			c-1.205-2.566-1.066-3.09,1.245-4.66c0.376-0.254,0.827-0.561,1.36-0.945l0.379-0.273l4.113,1.041l0.957-0.178
			c0.779-7.373,6.411-11.672,11.4-15.479l0.244-0.188l3.758-0.205v-0.707c-0.42-0.293-0.812-0.563-1.179-0.816
			c-3.127-2.156-4.626-3.189-7.351-6.707c-0.795,0.119-1.572,0.176-2.358,0.176c-1.366,0-2.445-0.176-3.312-0.318
			c-0.502-0.082-0.936-0.154-1.235-0.154c-0.194,0-0.251,0.031-0.251,0.031c-0.158,0.121-0.419,0.801-0.385,3.982l0.011,1.018
			l-6.696-0.043l-1.404-4.43l0.833-0.357c3.144-1.348,3.144-1.348,3.117-3.414c-0.009-0.699-0.021-1.568,0.028-2.693l0.051-1.174
			l5.754,1.195l0.318,2.252c1.25,0.262,2.402,0.479,3.754,0.631l0.939-0.736c-1.516-1.773-3.457-3.049-6.309-4.168l-0.547-0.215
			l-0.493-3.667l1.153,0.011c7.305,0.066,9.041,2.02,12.248,8.014l6.221,3.818l0.566,0.068l1.305-3.34l3.904-1.084l0.412,0.502
			c8.377,10.16,12.99,23.02,12.99,36.209c0,8.762-1.939,17.17-5.764,24.99l-0.06,0.121l-0.089,0.102
			c-4.451,5.049-9.809,8.994-15.926,11.727l-1.549,0.693L304.014,180.598z"/>
		<path fill="#212121" d="M289.299,104.961c6.865,0.063,8.27,1.645,11.504,7.723c2.212,1.359,4.425,2.717,6.638,4.076l1.552,0.188
			l1.406-3.596l2.795-0.775c7.973,9.668,12.762,22.063,12.762,35.572c0,8.809-2.037,17.139-5.662,24.551
			c-4.248,4.818-9.528,8.771-15.584,11.477l0.269-3.121c7.876-7.688,5.36-10.75,12.601-15.914l3.242-10.551l-8.643-3.141
			c-2.809-2.207-3.488-3.697-6.562-3.697c-0.237,0-0.487,0.01-0.755,0.027c-1.668-0.131-3.336-0.264-5.005-0.395
			c-1.411,0.039-2.821,0.082-4.232,0.121c-1.136,0.559-2.272,1.115-3.407,1.672c-2.394-1.846-1.993-1.986-4.984-2.289
			c-0.139-1.113-0.279-2.227-0.418-3.34c-0.882,0.193-1.764,0.387-2.646,0.582c-0.398,0.674-0.797,1.348-1.195,2.023
			c-1.854-4.199-2.112-3.098,1.631-5.797c1.291,0.326,2.582,0.654,3.874,0.98c0.642-0.119,1.282-0.238,1.923-0.357
			c0.412-7.227,5.742-11.459,11.074-15.527c1.466-0.082,2.93-0.16,4.396-0.24c-0.001-0.727-0.002-1.451-0.004-2.178
			c-4.465-3.127-5.799-3.732-9.1-8.086c-1.037,0.193-1.963,0.262-2.786,0.262c-2.143,0-3.593-0.473-4.547-0.473
			c-1.301,0-1.681,0.877-1.636,5.025c-1.65-0.012-3.301-0.021-4.952-0.033c-0.304-0.959-0.607-1.914-0.911-2.871
			c4.712-2.021,3.517-1.563,3.752-6.984c1.304,0.271,2.608,0.543,3.913,0.814c0.105,0.75,0.212,1.498,0.317,2.248
			c1.754,0.377,3.158,0.656,4.944,0.838c0.683-0.535,1.364-1.072,2.048-1.607c-1.82-2.48-4.105-3.994-7.35-5.266
			C289.473,106.254,289.386,105.608,289.299,104.961 M287.012,102.94l0.305,2.285l0.262,1.945l0.146,1.086l-1.631-0.338
			l-2.303-0.479l-0.102,2.35c-0.051,1.152-0.039,2.037-0.029,2.75c0.006,0.498,0.013,1.057-0.021,1.305
			c-0.348,0.258-1.482,0.744-2.49,1.178l-1.666,0.713l0.547,1.729l0.422,1.332l0.488,1.539l0.439,1.387l1.455,0.01l1.645,0.012
			l3.307,0.021l2.035,0.014l-0.021-2.035c-0.018-1.623,0.043-2.492,0.108-2.957c0.185,0.025,0.39,0.059,0.601,0.094
			c0.854,0.141,2.025,0.332,3.474,0.332c0.644,0,1.28-0.035,1.925-0.109c2.527,3.184,4.128,4.334,6.939,6.273l-1.482,0.08
			l-0.613,0.035l-0.489,0.373c-4.741,3.617-10.567,8.063-11.692,15.424l-0.025,0.004l-1.512-0.383l-1.938-0.49l-0.904-0.229
			l-0.757,0.545c-0.524,0.379-0.968,0.68-1.337,0.932c-2.722,1.85-3.004,2.898-1.588,5.912c0.18,0.383,0.393,0.836,0.635,1.383
			l1.572,3.564l1.979-3.355l0.46-0.777l0.008,0.061l0.086,0.686l0.199,1.58l1.585,0.16c1.856,0.188,1.856,0.188,2.867,1.01
			c0.296,0.242,0.649,0.529,1.096,0.873l0.985,0.76l1.118-0.549l1.853-0.908l1.164-0.572l1.699-0.049l1.992-0.057l2.42,0.191
			l2.479,0.195l0.145,0.01l0.146-0.01c0.219-0.014,0.426-0.021,0.619-0.021c1.562,0,2.047,0.432,3.486,1.711
			c0.518,0.459,1.105,0.98,1.841,1.559l0.252,0.199l0.301,0.109l6.855,2.49l-2.488,8.098c-3.722,2.785-4.964,5.127-6.274,7.6
			c-1.209,2.283-2.461,4.643-6.008,8.105l-0.531,0.52l-0.064,0.74l-0.268,3.121l-0.291,3.383l3.1-1.385
			c6.248-2.793,11.722-6.822,16.268-11.98l0.178-0.201l0.118-0.242c3.894-7.959,5.866-16.514,5.866-25.43
			c0-13.422-4.693-26.508-13.219-36.846l-0.826-1.002l-1.252,0.348l-2.795,0.777l-0.964,0.268l-0.364,0.932l-0.775,1.984
			l-1.256-0.771l-4.193-2.574c-3.274-6.08-5.281-8.233-12.993-8.303L287.012,102.94L287.012,102.94z M291.702,111.268l-0.121-0.857
			l-0.054-0.385c0.85,0.484,1.579,1.008,2.229,1.6C293.051,111.524,292.383,111.403,291.702,111.268L291.702,111.268z"/>
	</g>
	<g>
		<linearGradient id="SVGID_3_" gradientUnits="userSpaceOnUse" x1="213.0435" y1="166.1636" x2="269.3037" y2="166.1636">
			<stop  offset="0" style="stop-color:#9D1F60"/>
			<stop  offset="1" style="stop-color:#EC1E28"/>
		</linearGradient>
		<path fill-rule="evenodd" clip-rule="evenodd" fill="url(#SVGID_3_)" d="M263.97,204.788
			c-29.033-3.055-50.927-27.404-50.927-56.639c0-4.246,0.472-8.488,1.403-12.609l0.021-0.09l0.037-0.084
			c0.817-1.898,1.765-3.771,2.818-5.568l0.218-0.373l8.274-1.895l-5.938,4.678l1.364,0.9h5.107l8.757-1.566l5.654,9.182v0.283
			c0,8.041,0.354,8.486,3.736,12.744c0.685,0.861,1.508,1.898,2.469,3.176v-3.854l1.569,1.088c1.357,0.939,3.431,1.98,5.625,3.082
			c5.25,2.637,11.202,5.623,12.551,9.582l0.132,0.387l-3.23,6.73l3.37,6.25l0.029,0.098c2.293,7.752,2.293,8.021,2.293,8.201
			c0,0.152,0,0.408-2.241,9.186l0.586,6.736l-0.962,0.115c-0.838,0.1-1.681,0.189-2.527,0.262l-0.095,0.008L263.97,204.788z"/>
		<path fill="#212121" d="M221.702,129.497l-3.532,2.783l2.771,1.828h5.496l8.173-1.463c1.716,2.787,3.433,5.574,5.148,8.361
			c0,10.42,0.765,8.861,7.016,17.34c0.397,0,0.792,0,1.189,0c0-1.121,0-2.242,0-3.363c4.561,3.158,16.034,6.986,17.8,12.164
			c-1.092,2.273-2.182,4.547-3.274,6.82c1.188,2.203,2.375,4.404,3.562,6.607c0,0,2.252,7.611,2.252,7.916
			c0,0.287-2.252,9.104-2.252,9.104l0.518,5.939c-0.828,0.1-1.659,0.188-2.494,0.26c-28.118-2.959-50.031-26.742-50.031-55.645
			c0-4.258,0.478-8.402,1.379-12.389c0.811-1.883,1.735-3.703,2.763-5.457L221.702,129.497 M229.928,125.561l-8.673,1.986
			l-3.517,0.807l-0.842,0.191l-0.437,0.746c-1.074,1.834-2.041,3.744-2.874,5.678l-0.073,0.17l-0.041,0.18
			c-0.948,4.193-1.428,8.51-1.428,12.83c0,14.41,5.323,28.223,14.989,38.893c9.597,10.596,22.678,17.25,36.833,18.74l0.189,0.02
			l0.19-0.016c0.787-0.066,1.625-0.154,2.561-0.266l1.924-0.229l-0.168-1.932l-0.488-5.602c2.23-8.736,2.23-8.959,2.23-9.268
			c0-0.346,0-0.596-2.334-8.484l-0.059-0.199l-0.099-0.182l-1.781-3.303l-1.298-2.408l1.019-2.121l1.814-3.779l0.354-0.738
			l-0.264-0.773c-1.482-4.346-7.627-7.432-13.05-10.152c-2.162-1.086-4.205-2.111-5.504-3.012l-3.139-2.174v2.83
			c-0.242-0.309-0.471-0.596-0.686-0.867c-3.32-4.178-3.519-4.43-3.519-12.121v-0.566l-0.297-0.482l-1.467-2.383l-3.682-5.979
			l-0.714-1.16l-1.341,0.24l-7.999,1.432h-4.639l1.319-1.039L229.928,125.561L229.928,125.561z"/>
	</g>
</g>
</svg>
