<?xml version="1.0" encoding="utf-8"?>
<!-- Generator: Adobe Illustrator 16.0.0, SVG Export Plug-In . SVG Version: 6.00 Build 0)  -->
<!DOCTYPE svg PUBLIC "-//W3C//DTD SVG 1.1//EN" "http://www.w3.org/Graphics/SVG/1.1/DTD/svg11.dtd">
<svg version="1.1" id="ICONS_1.0" xmlns="http://www.w3.org/2000/svg" xmlns:xlink="http://www.w3.org/1999/xlink" x="0px" y="0px"
	 width="64.001px" height="60px" viewBox="0 0 64.001 60" enable-background="new 0 0 64.001 60" xml:space="preserve">
<g id="_x32_4_x5F_vending_x5F_machine">
</g>
<linearGradient id="SVGID_1_" gradientUnits="userSpaceOnUse" x1="4.882813e-004" y1="30" x2="64.0005" y2="30">
	<stop  offset="0" style="stop-color:#9D1F60"/>
	<stop  offset="1" style="stop-color:#EC1E28"/>
</linearGradient>
<path fill="url(#SVGID_1_)" d="M64,21c0-0.34-0.173-0.656-0.458-0.84l-31-20c-0.33-0.213-0.754-0.213-1.084,0l-31,20
	C0.173,20.344,0,20.66,0,21s0.173,0.656,0.458,0.84l5.673,3.66l-5.673,3.66C0.173,29.344,0,29.66,0,30s0.173,0.656,0.458,0.84
	l5.673,3.66l-5.673,3.66C0.173,38.344,0,38.66,0,39s0.173,0.656,0.458,0.84l31,20C31.624,59.947,31.812,60,32,60
	s0.377-0.053,0.542-0.16l31-20C63.828,39.656,64,39.34,64,39s-0.173-0.656-0.458-0.84L57.87,34.5l5.673-3.66
	C63.828,30.656,64,30.34,64,30s-0.173-0.656-0.458-0.84L57.87,25.5l5.673-3.66C63.828,21.656,64,21.34,64,21z M2.845,30l5.13-3.31
	L13.106,30l-5.131,3.31L2.845,30z M31.458,41.84C31.624,41.947,31.812,42,32,42s0.377-0.053,0.542-0.16L49.05,31.19l5.131,3.31
	L32,48.81L9.82,34.5l5.131-3.31L31.458,41.84z M16.795,30L32,20.19L47.206,30L32,39.81L16.795,30z M32.542,18.16
	c-0.33-0.213-0.754-0.213-1.084,0L14.951,28.81L9.82,25.5L32,11.19L54.181,25.5l-5.131,3.31L32.542,18.16z M61.156,39L32,57.81
	L2.845,39l5.13-3.31l23.483,15.15C31.624,50.947,31.812,51,32,51s0.377-0.053,0.542-0.16l23.483-15.15L61.156,39z M61.156,30
	l-5.13,3.31L50.895,30l5.131-3.31L61.156,30z M56.026,24.31L32.542,9.16c-0.33-0.213-0.754-0.213-1.084,0L7.975,24.31L2.845,21
	L32,2.19L61.156,21L56.026,24.31z M33,29h-2v-2h2V29z M33,25h-2v-2h2V25z M33,33h-2v-2h2V33z M37,29h-2v-2h2V29z M41,31h-2v-2h2V31z
	 M23,29h2v2h-2V29z M37,33h-2v-2h2V33z M27,27h2v2h-2V27z M27,31h2v2h-2V31z M33,37h-2v-2h2V37z M62,50h2v2h-2V50z M62,46h2v2h-2V46
	z M62,54h2v2h-2V54z M62,58h2v2h-2V58z M62,4h2v2h-2V4z M64,0v2h-2V0H64z M62,8h2v2h-2V8z M62,12h2v2h-2V12z M0,50h2v2H0V50z M0,46
	h2v2H0V46z M0,54h2v2H0V54z M0,58h2v2H0V58z M2,6H0V4h2V6z M2,2H0V0h2V2z M6,2H4V0h2V2z M10,2H8V0h2V2z M14,2h-2V0h2V2z M18,2h-2V0
	h2V2z M22,2h-2V0h2V2z M44,2h-2V0h2V2z M48,2h-2V0h2V2z M52,2h-2V0h2V2z M56,2h-2V0h2V2z M60,2h-2V0h2V2z M4,58h2v2H4V58z M8,58h2v2
	H8V58z M12,58h2v2h-2V58z M16,58h2v2h-2V58z M20,58h2v2h-2V58z M42,58h2v2h-2V58z M46,58h2v2h-2V58z M50,58h2v2h-2V58z M54,58h2v2
	h-2V58z M58,58h2v2h-2V58z M2,10H0V8h2V10z M2,14H0v-2h2V14z"/>
</svg>
