<?xml version="1.0" encoding="utf-8"?>
<!-- Generator: Adobe Illustrator 16.0.0, SVG Export Plug-In . SVG Version: 6.00 Build 0)  -->
<!DOCTYPE svg PUBLIC "-//W3C//DTD SVG 1.1//EN" "http://www.w3.org/Graphics/SVG/1.1/DTD/svg11.dtd">
<svg version="1.1" id="ICONS_1.0" xmlns="http://www.w3.org/2000/svg" xmlns:xlink="http://www.w3.org/1999/xlink" x="0px" y="0px"
	 width="64.001px" height="64px" viewBox="0 0 64.001 64" enable-background="new 0 0 64.001 64" xml:space="preserve">
<g id="_x32_4_x5F_vending_x5F_machine">
</g>
<linearGradient id="SVGID_1_" gradientUnits="userSpaceOnUse" x1="9.765625e-004" y1="32" x2="64.001" y2="32">
	<stop  offset="0" style="stop-color:#9D1F60"/>
	<stop  offset="1" style="stop-color:#EC1E28"/>
</linearGradient>
<path fill="url(#SVGID_1_)" d="M46.001,14c-2.206,0-4,1.794-4,4s1.794,4,4,4s4-1.794,4-4S48.207,14,46.001,14z M46.001,20
	c-1.103,0-2-0.897-2-2s0.897-2,2-2s2,0.897,2,2S47.104,20,46.001,20z M6.001,34h-2V7c0-1.654,1.346-3,3-3h27v2h-27
	c-0.551,0-1,0.448-1,1V34z M58.001,30h2v27c0,1.654-1.346,3-3,3h-27v-2h27c0.551,0,1-0.448,1-1V30z M22.001,10h-14V8h14V10z
	 M8.001,12h2v2h-2V12z M12.001,14v-2h2v2H12.001z M16.001,14v-2h2v2H16.001z M33.001,33h-2v-2h2V33z M42.001,54h14v2h-14V54z
	 M56.001,52h-2v-2h2V52z M52.001,50v2h-2v-2H52.001z M48.001,50v2h-2v-2H48.001z M59.602,18l4.024-3.219
	c0.344-0.275,0.468-0.743,0.304-1.152l-2-5C61.777,8.249,61.41,8,61.001,8h-5V3c0-0.409-0.249-0.776-0.628-0.929l-5-2
	c-0.41-0.163-0.877-0.04-1.152,0.304l-3.219,4.024l-3.219-4.024c-0.275-0.344-0.742-0.467-1.152-0.304l-5,2
	C36.25,2.223,36.001,2.59,36.001,3v5h-5c-0.409,0-0.776,0.249-0.929,0.629l-2,5c-0.164,0.409-0.04,0.877,0.304,1.152L32.4,18
	l-4.024,3.219c-0.344,0.275-0.468,0.743-0.304,1.152l2,5C30.225,27.75,30.592,28,31.001,28h5v5c0,0.409,0.249,0.776,0.628,0.929l5,2
	c0.41,0.164,0.877,0.04,1.152-0.304l3.219-4.024l3.219,4.024C49.414,35.867,49.704,36,50.001,36c0.125,0,0.25-0.023,0.371-0.071l5-2
	c0.379-0.152,0.628-0.52,0.628-0.929v-5h5c0.409,0,0.776-0.249,0.929-0.629l2-5c0.164-0.409,0.04-0.877-0.304-1.152L59.602,18z
	 M60.324,26h-5.323c-0.552,0-1,0.448-1,1v5.323l-3.683,1.473l-3.537-4.421C46.592,29.138,46.305,29,46.001,29
	s-0.591,0.138-0.781,0.375l-3.537,4.421l-3.683-1.473V27c0-0.552-0.448-1-1-1h-5.323l-1.473-3.683l4.42-3.537
	c0.237-0.19,0.375-0.477,0.375-0.781s-0.138-0.591-0.375-0.781l-4.42-3.537L31.678,10h5.323c0.552,0,1-0.448,1-1V3.676l3.683-1.473
	l3.537,4.421c0.379,0.474,1.183,0.474,1.562,0l3.537-4.421l3.683,1.473V9c0,0.552,0.448,1,1,1h5.323l1.473,3.683l-4.42,3.537
	c-0.237,0.19-0.375,0.477-0.375,0.781s0.138,0.591,0.375,0.781l4.42,3.537L60.324,26z M46.001,9c-4.962,0-9,4.037-9,9s4.038,9,9,9
	s9-4.037,9-9S50.963,9,46.001,9z M46.001,25c-3.86,0-7-3.14-7-7s3.14-7,7-7s7,3.14,7,7S49.861,25,46.001,25z M18.001,42
	c-2.206,0-4,1.794-4,4s1.794,4,4,4s4-1.794,4-4S20.207,42,18.001,42z M18.001,48c-1.103,0-2-0.897-2-2s0.897-2,2-2s2,0.897,2,2
	S19.104,48,18.001,48z M18.001,37c-4.962,0-9,4.037-9,9s4.038,9,9,9s9-4.037,9-9S22.963,37,18.001,37z M18.001,53
	c-3.86,0-7-3.14-7-7s3.14-7,7-7s7,3.14,7,7S21.861,53,18.001,53z M33.93,55.371l2-5c0.164-0.409,0.04-0.877-0.304-1.152L31.602,46
	l4.024-3.219c0.344-0.275,0.468-0.743,0.304-1.152l-2-5C33.777,36.249,33.41,36,33.001,36h-5v-5c0-0.409-0.249-0.776-0.628-0.929
	l-5-2c-0.411-0.164-0.877-0.04-1.152,0.304l-3.219,4.024l-3.219-4.024c-0.275-0.344-0.741-0.468-1.152-0.304l-5,2
	C8.25,30.223,8.001,30.59,8.001,31v5h-5c-0.409,0-0.776,0.249-0.929,0.629l-2,5c-0.164,0.409-0.04,0.877,0.304,1.152L4.4,46
	l-4.024,3.219c-0.344,0.275-0.468,0.743-0.304,1.152l2,5C2.225,55.75,2.592,56,3.001,56h5v5c0,0.409,0.249,0.776,0.628,0.929l5,2
	c0.411,0.164,0.877,0.04,1.152-0.304l3.219-4.024l3.219,4.024C21.414,63.867,21.704,64,22.001,64c0.125,0,0.25-0.023,0.371-0.071
	l5-2c0.379-0.152,0.628-0.52,0.628-0.929v-5h5C33.41,56,33.777,55.75,33.93,55.371z M27.001,54c-0.552,0-1,0.448-1,1v5.323
	l-3.683,1.473l-3.537-4.421C18.592,57.138,18.305,57,18.001,57s-0.591,0.138-0.781,0.375l-3.537,4.421l-3.683-1.473V55
	c0-0.552-0.448-1-1-1H3.678l-1.473-3.683l4.42-3.537C6.863,46.59,7.001,46.303,7.001,46s-0.138-0.591-0.375-0.781l-4.42-3.537
	L3.678,38h5.323c0.552,0,1-0.448,1-1v-5.323l3.683-1.473l3.537,4.421c0.379,0.474,1.183,0.474,1.562,0l3.537-4.421l3.683,1.473V37
	c0,0.552,0.448,1,1,1h5.323l1.473,3.683l-4.42,3.537c-0.237,0.19-0.375,0.477-0.375,0.781s0.138,0.591,0.375,0.781l4.42,3.537
	L32.324,54H27.001z"/>
</svg>
