<?xml version="1.0" encoding="utf-8"?>
<!-- Generator: Adobe Illustrator 16.0.0, SVG Export Plug-In . SVG Version: 6.00 Build 0)  -->
<!DOCTYPE svg PUBLIC "-//W3C//DTD SVG 1.1//EN" "http://www.w3.org/Graphics/SVG/1.1/DTD/svg11.dtd">
<svg version="1.1" id="ICONS_1.0" xmlns="http://www.w3.org/2000/svg" xmlns:xlink="http://www.w3.org/1999/xlink" x="0px" y="0px"
	 width="64.001px" height="64px" viewBox="0 0 64.001 64" enable-background="new 0 0 64.001 64" xml:space="preserve">
<g id="_x32_4_x5F_vending_x5F_machine">
</g>
<linearGradient id="SVGID_1_" gradientUnits="userSpaceOnUse" x1="4.882813e-004" y1="32" x2="64.0005" y2="32">
	<stop  offset="0" style="stop-color:#9D1F60"/>
	<stop  offset="1" style="stop-color:#EC1E28"/>
</linearGradient>
<path fill="url(#SVGID_1_)" d="M62.592,27.1C60.494,13.917,50.088,3.505,36.901,1.407C36.647,0.595,35.896,0,35,0h-6
	c-0.896,0-1.646,0.596-1.9,1.409C13.923,3.506,3.504,13.914,1.407,27.1C0.595,27.354,0,28.105,0,29v6
	c0,0.895,0.594,1.645,1.405,1.899C3.504,50.085,13.924,60.494,27.1,62.591C27.354,63.404,28.104,64,29,64h6
	c0.895,0,1.646-0.595,1.9-1.407c13.193-2.099,23.593-12.507,25.69-25.692C63.405,36.646,64,35.896,64,35v-6
	C64,28.104,63.405,27.354,62.592,27.1z M37,47.194C41.792,45.615,45.616,41.79,47.195,37h4.165
	C49.551,43.994,43.989,49.556,37,51.364V47.194z M37,12.64c7.061,1.81,12.544,7.291,14.357,14.36H47.2
	C45.62,22.199,41.81,18.389,37,16.807V12.64z M46,35v-6h16l0.002,6H46z M60.545,27h-7.131C51.516,18.816,45.173,12.482,37,10.586
	V3.455C49.001,5.543,58.457,15.003,60.545,27z M29,2h6l0.002,16H29V2z M16.805,27h-4.161C14.451,20.02,20.031,14.444,27,12.637
	v4.166C22.198,18.384,18.387,22.193,16.805,27z M27,51.367C20.003,49.559,14.449,44.004,12.639,37h4.166
	c1.583,4.807,5.396,8.618,10.195,10.198V51.367z M2,35v-6h16l0.002,6H2z M27,3.456v7.13C18.819,12.482,12.488,18.801,10.586,27
	H3.456C5.543,15.001,15.01,5.543,27,3.456z M3.455,37h7.134C12.479,45.104,18.906,51.524,27,53.413v7.132
	C15.01,58.456,5.543,48.998,3.455,37z M27.198,45.148c-3.856-1.412-6.936-4.482-8.348-8.345C19.528,36.483,20,35.799,20,35v-6
	c0-0.798-0.473-1.482-1.148-1.803c1.412-3.862,4.486-6.934,8.346-8.345C27.52,19.528,28.204,20,29,20h6
	c0.798,0,1.482-0.473,1.803-1.15c3.865,1.413,6.934,4.49,8.345,8.349C44.472,27.52,44,28.203,44,29v6
	c0,0.789,0.463,1.466,1.128,1.791c-1.411,3.852-4.484,6.926-8.337,8.336C36.466,44.463,35.79,44,35,44h-6
	C28.204,44,27.52,44.472,27.198,45.148z M29,62V46h6l0.002,16H29z M37,60.546v-7.133c8.084-1.89,14.522-8.321,16.411-16.413h7.134
	C58.458,49,49.006,58.456,37,60.546z M31,14h2v2h-2V14z M48,31h2v2h-2V31z M31,48h2v2h-2V48z M31,58h2v2h-2V58z M14,31h2v2h-2V31z"
	/>
</svg>
