<?xml version="1.0" encoding="utf-8"?>
<!-- Generator: Adobe Illustrator 16.0.0, SVG Export Plug-In . SVG Version: 6.00 Build 0)  -->
<!DOCTYPE svg PUBLIC "-//W3C//DTD SVG 1.1//EN" "http://www.w3.org/Graphics/SVG/1.1/DTD/svg11.dtd">
<svg version="1.1" id="ICONS_1.0" xmlns="http://www.w3.org/2000/svg" xmlns:xlink="http://www.w3.org/1999/xlink" x="0px" y="0px"
	 width="64.001px" height="59px" viewBox="0 0 64.001 59" enable-background="new 0 0 64.001 59" xml:space="preserve">
<g id="_x32_4_x5F_vending_x5F_machine">
</g>
<linearGradient id="SVGID_1_" gradientUnits="userSpaceOnUse" x1="4.882813e-004" y1="29.5" x2="64.0005" y2="29.5">
	<stop  offset="0" style="stop-color:#9D1F60"/>
	<stop  offset="1" style="stop-color:#EC1E28"/>
</linearGradient>
<path fill="url(#SVGID_1_)" d="M32,0C14.355,0,0,14.355,0,32c0,8.483,3.386,16.759,9.291,22.705L9.584,55h44.833l0.293-0.295
	C60.614,48.757,64,40.481,64,32C64,14.355,49.646,0,32,0z M53.58,53H10.421C5.064,47.449,2,39.82,2,32C2,15.458,15.458,2,32,2
	s30,13.458,30,30C62,39.818,58.937,47.447,53.58,53z M58,32c0,5.678-1.797,11.073-5.198,15.601l-1.6-1.201
	c2.938-3.911,4.56-8.527,4.758-13.399H54v-2h1.975c-0.242-5.864-2.595-11.191-6.322-15.239l-1.946,1.946l-1.414-1.414l1.946-1.946
	C44.191,10.621,38.865,8.267,33,8.025V10h-2V8.025c-5.864,0.242-11.191,2.595-15.239,6.322l1.946,1.946l-1.414,1.414l-1.946-1.946
	C10.621,19.809,8.268,25.136,8.026,31H10v2H8.04c0.198,4.874,1.821,9.491,4.76,13.402l-1.599,1.201C7.799,43.076,6,37.68,6,32
	C6,17.664,17.664,6,32,6S58,17.664,58,32z M31,47h2v2h-2V47z M27,47h2v2h-2V47z M35,47h2v2h-2V47z M39,47h2v2h-2V47z M23,47h2v2h-2
	V47z M43.293,19.293l-4.259,4.259C37.126,21.96,34.674,21,32,21c-6.065,0-11,4.935-11,11c0,2.403,0.761,4.686,2.201,6.603
	l1.599-1.201C23.623,35.834,23,33.966,23,32c0-4.962,4.038-9,9-9c2.122,0,4.071,0.742,5.611,1.975l-3.592,3.592
	C33.425,28.215,32.74,28,32,28c-2.206,0-4,1.794-4,4s1.794,4,4,4s4-1.794,4-4c0-0.739-0.215-1.424-0.567-2.019l3.592-3.592
	C40.258,27.93,41,29.878,41,32c0,1.965-0.622,3.832-1.799,5.4l1.6,1.2C42.24,36.684,43,34.401,43,32c0-2.673-0.96-5.125-2.552-7.034
	l4.259-4.259L43.293,19.293z M32,34c-1.103,0-2-0.897-2-2s0.897-2,2-2s2,0.897,2,2S33.104,34,32,34z M12,57h40v2H12V57z"/>
</svg>
