<?xml version="1.0" encoding="utf-8"?>
<!-- Generator: Adobe Illustrator 16.0.0, SVG Export Plug-In . SVG Version: 6.00 Build 0)  -->
<!DOCTYPE svg PUBLIC "-//W3C//DTD SVG 1.1//EN" "http://www.w3.org/Graphics/SVG/1.1/DTD/svg11.dtd">
<svg version="1.1" id="ICONS_1.0" xmlns="http://www.w3.org/2000/svg" xmlns:xlink="http://www.w3.org/1999/xlink" x="0px" y="0px"
	 width="64px" height="64px" viewBox="0 0 64 64" enable-background="new 0 0 64 64" xml:space="preserve">
<g id="_x32_4_x5F_vending_x5F_machine">
</g>
<linearGradient id="SVGID_1_" gradientUnits="userSpaceOnUse" x1="9.765625e-004" y1="32" x2="64.0015" y2="32">
	<stop  offset="0" style="stop-color:#9D1F60"/>
	<stop  offset="1" style="stop-color:#EC1E28"/>
</linearGradient>
<path fill="url(#SVGID_1_)" d="M32.001,24c-7.706,0-16,1.564-16,5s8.294,5,16,5c7.706,0,16-1.564,16-5S39.707,24,32.001,24z
	 M32.001,32c-9.237,0-14-2.103-14-3s4.763-3,14-3s14,2.103,14,3S41.238,32,32.001,32z M64.001,29c0,7.168-5.832,13-13,13h-1v-2h1
	c6.064,0,11-4.935,11-11c0-5.701-3.869-10-9-10h-1v-1c0-3.868-2.102-8-8-8h-1.59l-0.285-0.516C39.531,4.798,34.624,2,29.001,2
	c-8.271,0-15,6.729-15,15v1h-1c-6.065,0-11,4.935-11,11s4.935,11,11,11h1v2h-1c-7.168,0-13-5.832-13-13
	c0-6.841,5.312-12.465,12.027-12.964C12.529,7.108,19.95,0,29.001,0c6.153,0,11.557,2.979,14.577,8h0.424
	c5.748,0,9.572,3.516,9.966,9.042C59.751,17.542,64.001,22.515,64.001,29z M20.001,18h-2c0-6.393,5.14-12,11-12v2
	C24.752,8,20.001,12.276,20.001,18z M46.001,33h2v6c0,3.436-8.295,5-16,5c-7.706,0-16-1.564-16-5v-6h2v6c0,0.896,4.763,3,14,3
	s14-2.104,14-3V33z M46.001,43h2v6c0,3.436-8.295,5-16,5c-7.706,0-16-1.564-16-5v-6h2v6c0,0.896,4.763,3,14,3s14-2.104,14-3V43z
	 M46.001,53h2v6c0,3.436-8.295,5-16,5c-7.706,0-16-1.564-16-5v-6h2v6c0,0.896,4.763,3,14,3s14-2.104,14-3V53z M33,39h-2v-2h2V39z
	 M29.001,37v2h-2v-2H29.001z M37.001,37v2h-2v-2H37.001z M33,49h-2v-2h2V49z M29.001,47v2h-2v-2H29.001z M37.001,47v2h-2v-2H37.001z
	 M33,59h-2v-2h2V59z M29.001,57v2h-2v-2H29.001z M37.001,57v2h-2v-2H37.001z"/>
</svg>
