<?xml version="1.0" encoding="utf-8"?>
<!-- Generator: Adobe Illustrator 16.0.0, SVG Export Plug-In . SVG Version: 6.00 Build 0)  -->
<!DOCTYPE svg PUBLIC "-//W3C//DTD SVG 1.1//EN" "http://www.w3.org/Graphics/SVG/1.1/DTD/svg11.dtd">
<svg version="1.1" id="ICONS_1.0" xmlns="http://www.w3.org/2000/svg" xmlns:xlink="http://www.w3.org/1999/xlink" x="0px" y="0px"
	 width="64px" height="64px" viewBox="0 0 64 64" enable-background="new 0 0 64 64" xml:space="preserve">
<g id="_x32_4_x5F_vending_x5F_machine">
</g>
<linearGradient id="SVGID_1_" gradientUnits="userSpaceOnUse" x1="9.765625e-004" y1="32" x2="64.0005" y2="32">
	<stop  offset="0" style="stop-color:#9D1F60"/>
	<stop  offset="1" style="stop-color:#EC1E28"/>
</linearGradient>
<path fill="url(#SVGID_1_)" d="M31,57h2v2h-2V57z M31,55h2v-2h-2V55z M55,54v0.41l-0.289,0.293C48.776,60.697,40.709,64,32,64
	c-8.641,0-16.706-3.301-22.706-9.293l-0.293-0.293V54c0-0.381,0.188-3.783,6.684-5.949l2.832-0.943l5.248-4.197L25,43.219v-5.018
	c-2.703-2.656-3.893-6.687-3.992-9.781L20,27.415V16c0-2.206,1.795-4,4-4h0.127c0.445-1.723,2.014-3,3.873-3h11c2.756,0,5,2.243,5,5
	v13.415l-1.008,1.006c-0.098,3.094-1.289,7.125-3.992,9.781v5.018l1.238-0.309l5.246,4.197l2.832,0.943
	C54.813,50.217,55,53.619,55,54z M39.762,45.09L33,46.781v0.805l3.221,3.221l6.871-3.053L39.762,45.09z M22,23c0.553,0,1-0.449,1-1
	v-2c0-1.654,1.346-3,3-3h7.764L39,14.382v2.79c1.164,0.413,2,1.525,2,2.829v2c0,0.551,0.449,1,1,1v-9c0-1.654-1.346-3-3-3H28
	c-1.102,0-2,0.897-2,2v1h-2c-1.102,0-2,0.897-2,2V23z M23,27.586V28c0,4.252,2.443,11,9,11s9-6.748,9-11v-0.414l1-1V25
	c-1.654,0-3-1.346-3-3v-2c0-0.551-0.449-1-1-1h-1v-1.382L34.237,19H26c-0.551,0-1,0.449-1,1v2c0,1.654-1.346,3-3,3v1.586L23,27.586z
	 M27,43.719l5,1.25l5-1.25V39.73C35.614,40.523,33.958,41,32,41s-3.613-0.477-5-1.27V43.719z M20.909,47.754l6.871,3.053L31,47.586
	v-0.805l-6.762-1.691L20.909,47.754z M52.911,53.672c-0.262-0.707-1.287-2.41-5.227-3.723l-2.633-0.879l-9.273,4.123L32,49.414
	l-3.777,3.779L18.95,49.07l-2.632,0.879c-3.915,1.305-4.951,2.994-5.223,3.723C16.676,59.047,24.077,62,32,62
	C39.989,62,47.393,59.047,52.911,53.672z M60.03,47.574C62.633,42.883,64,37.545,64,32C64,14.355,49.645,0,32,0s-32,14.355-32,32
	c0,5.544,1.366,10.882,3.97,15.574L1.197,47.02L0.805,48.98l5,1C5.871,49.994,5.937,50,6.002,50c0.467,0,0.885-0.328,0.979-0.805
	l1-5l-1.961-0.393l-0.487,2.434C3.223,41.93,2.001,37.063,2.001,32c0-16.542,13.458-30,30-30c16.541,0,30,13.458,30,30
	c0,5.06-1.223,9.929-3.533,14.236l-0.486-2.434l-1.961,0.393l1,5C57.114,49.672,57.532,50,57.999,50c0.066,0,0.131-0.006,0.197-0.02
	l5-1l-0.393-1.961L60.03,47.574z"/>
</svg>
