<?xml version="1.0" encoding="utf-8"?>
<!-- Generator: Adobe Illustrator 23.0.3, SVG Export Plug-In . SVG Version: 6.00 Build 0)  -->
<svg version="1.1" id="Layer_1" xmlns="http://www.w3.org/2000/svg" xmlns:xlink="http://www.w3.org/1999/xlink" x="0px" y="0px"
	 viewBox="0 0 75.3 80" style="enable-background:new 0 0 75.3 80;" xml:space="preserve">
<style type="text/css">
	.st0{fill:#FD5481;}
</style>
<g>
	<path class="st0" d="M35.2,42c0.4,0.5,1.1,0.5,1.5,0.1l5.5-4.5c0.5-0.4,0.5-1.1,0.2-1.5c-0.4-0.5-1.1-0.5-1.5-0.2l-4.7,3.8l-1.7-2
		c-0.4-0.5-1.1-0.5-1.5-0.1c-0.5,0.4-0.5,1.1-0.1,1.5L35.2,42z"/>
	<path class="st0" d="M37.6,49.3c5.6,0,10.2-4.6,10.2-10.2c0-2.6-1-5.2-2.9-7.1v-7.1c0-4-3.3-7.3-7.3-7.3c-4,0-7.3,3.3-7.3,7.3v6.9
		c-3,2.9-3.9,7.3-2.3,11.2C29.7,46.8,33.5,49.3,37.6,49.3z M32.6,24.9c0-2.8,2.3-5.1,5.1-5.1c2.8,0,5.1,2.3,5.1,5.1v5.4
		c-3.1-1.8-7-1.9-10.2-0.1V24.9z M37.6,31c4.4,0,8,3.6,8,8s-3.6,8-8,8s-8-3.6-8-8c0-2.1,0.8-4.2,2.3-5.7C33.4,31.9,35.5,31,37.6,31z
		"/>
	<path class="st0" d="M73,31.2l-11.9-7.4c0,0-0.1,0-0.1-0.1l-0.3-0.1v-5.1c0-0.3-0.1-0.5-0.3-0.7L44.8,0.4c0,0,0,0,0,0
		C44.5,0.1,44.2,0,43.9,0c0,0-0.1,0-0.1,0l0,0c0,0-0.1,0-0.1,0H21.5c-3.8,0-6.9,3.1-6.9,6.9v16.8L2.3,31.2C0.9,32,0,33.6,0,35.2
		v35.6C0,75.9,4.1,80,9.2,80h56.8c5.1,0,9.2-4.1,9.2-9.2V35.2C75.3,33.6,74.4,32,73,31.2z M71.9,33c0.8,0.5,1.2,1.3,1.2,2.2v2
		l-12.4,7.6V26.1L71.9,33z M45,4l10.5,11.7h-5.8c-2.6,0-4.7-2.1-4.7-4.7V4z M21.5,2.2h21.3V11c0,3.8,3.1,6.9,6.9,6.9h7.8l1,1.1v27.2
		L37.6,58.9L16.8,46.2V6.9C16.8,4.3,18.9,2.2,21.5,2.2z M3.4,33l11.2-6.8v18.6L2.2,37.3v-2C2.2,34.3,2.7,33.5,3.4,33z M66.1,77.8
		H9.2c-3.9,0-7-3.1-7-7V39.8l12.8,7.8c0.1,0.1,0.3,0.2,0.4,0.3l21.7,13.3c0.4,0.2,0.8,0.2,1.1,0l21.7-13.3c0.2-0.1,0.3-0.1,0.4-0.3
		l12.8-7.8v30.9C73.1,74.7,69.9,77.8,66.1,77.8z"/>
</g>
</svg>
