<?xml version="1.0" encoding="utf-8"?>
<!-- Generator: Adobe Illustrator 23.0.3, SVG Export Plug-In . SVG Version: 6.00 Build 0)  -->
<svg version="1.1" id="Layer_1" xmlns="http://www.w3.org/2000/svg" xmlns:xlink="http://www.w3.org/1999/xlink" x="0px" y="0px"
	 viewBox="0 0 61.9 80" style="enable-background:new 0 0 61.9 80;" xml:space="preserve">
<style type="text/css">
	.st0{fill:#FD5481;}
</style>
<g>
	<path class="st0" d="M31,6.5c-7.1,0-12.9,5.8-12.9,12.9S23.9,32.3,31,32.3s12.9-5.8,12.9-12.9S38.1,6.5,31,6.5z M31,29.7
		c-5.7,0-10.3-4.6-10.3-10.3S25.3,9,31,9s10.3,4.6,10.3,10.3S36.7,29.7,31,29.7z"/>
	<path class="st0" d="M29.7,11.6h2.6v10.3h-2.6V11.6z"/>
	<path class="st0" d="M29.7,24.5h2.6v2.6h-2.6V24.5z"/>
	<path class="st0" d="M50.3,16.2V0H11.6v16.2L0,27.9v32.8h10.3v9h2.6V58.1H4.4l17.4-17.4l9.1,7.5l9.1-7.5l17.4,17.4H49v11.6h2.6v-9
		h10.3V27.9L50.3,16.2z M57.5,27.1h-5.1l-2.1,1.7v-9L57.5,27.1z M11.6,28.8l-2.1-1.7H4.4l7.2-7.2V28.8z M2.6,56.2V29.7h6l3,2.5v0.1
		h0.1l8.1,6.7L2.6,56.2z M14.2,31V2.6h33.5V31L31,44.8L14.2,31z M50.2,32.3L50.2,32.3L50.2,32.3l3.1-2.6h6v26.6L42.1,39L50.2,32.3z"
		/>
	<path class="st0" d="M10.3,72.3h2.6v2.6h-2.6V72.3z"/>
	<path class="st0" d="M10.3,77.4h2.6V80h-2.6V77.4z"/>
	<path class="st0" d="M49,72.3h2.6v2.6H49V72.3z"/>
	<path class="st0" d="M49,77.4h2.6V80H49V77.4z"/>
	<path class="st0" d="M15.5,50.3h2.6v2.6h-2.6V50.3z"/>
	<path class="st0" d="M15.5,55.5h2.6v2.6h-2.6V55.5z"/>
	<path class="st0" d="M15.5,60.6h2.6V80h-2.6V60.6z"/>
	<path class="st0" d="M20.6,50.3h2.6v11.6h-2.6V50.3z"/>
	<path class="st0" d="M20.6,64.5h2.6v2.6h-2.6V64.5z"/>
	<path class="st0" d="M20.6,69.7h2.6v2.6h-2.6V69.7z"/>
	<path class="st0" d="M25.8,50.3h2.6v2.6h-2.6V50.3z"/>
	<path class="st0" d="M25.8,55.5h2.6v2.6h-2.6V55.5z"/>
	<path class="st0" d="M25.8,60.6h2.6V80h-2.6V60.6z"/>
	<path class="st0" d="M33.5,50.3h2.6v2.6h-2.6V50.3z"/>
	<path class="st0" d="M33.5,55.5h2.6v2.6h-2.6V55.5z"/>
	<path class="st0" d="M33.5,60.6h2.6V80h-2.6V60.6z"/>
	<path class="st0" d="M38.7,50.3h2.6v11.6h-2.6V50.3z"/>
	<path class="st0" d="M38.7,64.5h2.6v2.6h-2.6V64.5z"/>
	<path class="st0" d="M38.7,69.7h2.6v2.6h-2.6V69.7z"/>
	<path class="st0" d="M43.9,50.3h2.6v2.6h-2.6V50.3z"/>
	<path class="st0" d="M43.9,55.5h2.6v2.6h-2.6V55.5z"/>
	<path class="st0" d="M43.9,60.6h2.6V80h-2.6V60.6z"/>
</g>
</svg>
