<?xml version="1.0" encoding="utf-8"?>
<!-- Generator: Adobe Illustrator 23.0.3, SVG Export Plug-In . SVG Version: 6.00 Build 0)  -->
<svg version="1.1" id="Layer_1" xmlns="http://www.w3.org/2000/svg" xmlns:xlink="http://www.w3.org/1999/xlink" x="0px" y="0px"
	 viewBox="0 0 80 80" style="enable-background:new 0 0 80 80;" xml:space="preserve">
<style type="text/css">
	.st0{fill:#FD5481;}
</style>
<g>
	<path class="st0" d="M74.7,0H5.3C2.4,0,0,2.4,0,5.3V12c0,0.7,0.6,1.3,1.3,1.3H36c0.7,0,1.3-0.6,1.3-1.3c0-0.7-0.6-1.3-1.3-1.3H2.7
		V5.3c0-1.5,1.2-2.7,2.7-2.7h69.3c1.5,0,2.7,1.2,2.7,2.7v5.3H44c-0.7,0-1.3,0.6-1.3,1.3c0,0.7,0.6,1.3,1.3,1.3h34.7
		c0.7,0,1.3-0.6,1.3-1.3V5.3C80,2.4,77.6,0,74.7,0z"/>
	<path class="st0" d="M78.7,16c-0.7,0-1.3,0.6-1.3,1.3v57.3c0,1.5-1.2,2.7-2.7,2.7H5.3c-1.5,0-2.7-1.2-2.7-2.7V17.3
		c0-0.7-0.6-1.3-1.3-1.3S0,16.6,0,17.3v57.3C0,77.6,2.4,80,5.3,80h69.3c2.9,0,5.3-2.4,5.3-5.3V17.3C80,16.6,79.4,16,78.7,16z"/>
	<path class="st0" d="M6.7,5.3c-0.7,0-1.3,0.6-1.3,1.3S5.9,8,6.7,8H8c0.7,0,1.3-0.6,1.3-1.3S8.7,5.3,8,5.3H6.7z"/>
	<path class="st0" d="M13.3,5.3c-0.7,0-1.3,0.6-1.3,1.3S12.6,8,13.3,8h1.3C15.4,8,16,7.4,16,6.7s-0.6-1.3-1.3-1.3H13.3z"/>
	<path class="st0" d="M20,5.3c-0.7,0-1.3,0.6-1.3,1.3S19.3,8,20,8h1.3c0.7,0,1.3-0.6,1.3-1.3s-0.6-1.3-1.3-1.3L20,5.3L20,5.3z"/>
	<path class="st0" d="M20.3,33.5c-1.4,0-2.5,1.1-2.5,2.5v28.9c0,1.4,1.1,2.5,2.5,2.5h39.5c1.4,0,2.5-1.1,2.5-2.5V36
		c0-1.4-1.1-2.5-2.5-2.5H45.3v-2.1h3.2c0.4,0,0.8-0.3,1-0.7c0.2-0.4,0-0.9-0.3-1.2l-8.5-7.4c-0.4-0.3-1-0.3-1.4,0l-8.5,7.4
		c-0.3,0.3-0.5,0.8-0.3,1.2s0.6,0.7,1,0.7h3.2v2.1H20.3z M35.8,29.3h-1.4l5.7-5l5.7,5h-1.4c-0.6,0-1.1,0.5-1.1,1.1v8.5
		c0,0.6,0.5,1.1,1.1,1.1s1.1-0.5,1.1-1.1v-3.2h14.4c0.1,0,0.2,0,0.3,0.1c0.1,0.1,0.1,0.2,0.1,0.3v28.9c0,0.1,0,0.2-0.1,0.3
		c-0.1,0.1-0.2,0.1-0.3,0.1H20.3c-0.1,0-0.2,0-0.3-0.1s-0.1-0.2-0.1-0.3V36c0-0.1,0-0.2,0.1-0.3c0.1-0.1,0.2-0.1,0.3-0.1h14.4v3.2
		c0,0.6,0.5,1.1,1.1,1.1c0.6,0,1.1-0.5,1.1-1.1v-8.5C36.8,29.8,36.3,29.3,35.8,29.3z"/>
	<path class="st0" d="M22.2,38.2c-0.4,0.5-0.3,1.1,0.2,1.5L38,51.9c1.2,0.9,2.9,0.9,4.1,0l15.6-12.2c0.3-0.2,0.5-0.6,0.4-1
		c-0.1-0.4-0.3-0.7-0.7-0.8c-0.4-0.1-0.8-0.1-1.1,0.2L40.7,50.3c-0.4,0.3-1,0.3-1.5,0L23.7,38C23.2,37.6,22.6,37.7,22.2,38.2z"/>
	<path class="st0" d="M32.9,52.6c-0.4-0.1-0.8,0-1.1,0.2l-9.5,8.5c-0.3,0.2-0.4,0.6-0.4,1c0.1,0.4,0.3,0.7,0.7,0.8s0.8,0,1.1-0.2
		l9.5-8.5c0.3-0.2,0.4-0.6,0.4-1C33.6,53.1,33.3,52.8,32.9,52.6z"/>
	<path class="st0" d="M57.7,61.4l-9.5-8.5c-0.4-0.4-1.1-0.3-1.5,0.1c-0.4,0.4-0.4,1.1,0.1,1.5l9.5,8.5c0.3,0.3,0.7,0.4,1.1,0.2
		s0.6-0.4,0.7-0.8C58.1,62,58,61.6,57.7,61.4z"/>
</g>
</svg>
