<?xml version="1.0" encoding="utf-8"?>
<!-- Generator: Adobe Illustrator 23.0.3, SVG Export Plug-In . SVG Version: 6.00 Build 0)  -->
<svg version="1.1" id="Icon_Set" xmlns="http://www.w3.org/2000/svg" xmlns:xlink="http://www.w3.org/1999/xlink" x="0px" y="0px"
	 viewBox="0 0 85.7 80" style="enable-background:new 0 0 85.7 80;" xml:space="preserve">
<style type="text/css">
	.st0{fill:#FD5481;}
</style>
<path class="st0" d="M81.4,38.6V7.1c0-3.9-3.2-7.1-7.1-7.1H11.4C7.5,0,4.3,3.2,4.3,7.1v21.4c-2.4,0-4.3,1.9-4.3,4.3v42.9
	C0,78.1,1.9,80,4.3,80h31.4c2.4,0,4.3-1.9,4.3-4.3h12c1.3,0,2.6-0.6,3.4-1.7c0.8-1.1,1.1-2.4,0.7-3.7L53.3,60h8.1v15.7
	c0,2.4,1.9,4.3,4.3,4.3h15.7c2.4,0,4.3-1.9,4.3-4.3V42.9C85.7,40.5,83.8,38.6,81.4,38.6z M38.2,76.8c0,0.8-1.7,1.4-2.5,1.4H3.2
	c-0.8,0-1.4-0.6-1.4-1.4v-5h36.4V76.8z M38.2,70H1.8V38.6h36.4V70z M38.2,36.8H1.8v-3.9c0-0.8,0.6-2.5,1.4-2.5h33.6
	c0.8,0,1.4,1.7,1.4,2.5V36.8z M53.4,71.1c0.1,0.4,0,2-0.2,2.3c-0.3,0.4-0.7,0.6-1.1,0.6H40V70h13.1L53.4,71.1z M40,68.2V60h10.3
	l1.9,8.2H40z M61.4,58.2H40V47.5h21.4V58.2z M61.4,42.9v2.9H40V32.9c0-2.4-1.9-4.3-4.3-4.3H6.1V7.1c0-2.4,1.9-5.4,4.3-5.4h63.9
	c2.4,0,5.4,3,5.4,5.4v31.4H65.7C63.4,38.6,61.4,40.5,61.4,42.9z M83.9,76.8c0,0.8-1.7,1.4-2.5,1.4H64.6c-0.8,0-1.4-0.6-1.4-1.4v-5
	h20.7V76.8z M83.9,70H63.2V48.6h20.7V70z M83.9,46.8H63.2v-5c0-0.8,0.6-1.4,1.4-1.4h17.9c0.8,0,1.4,0.6,1.4,1.4V46.8z"/>
<rect x="7.4" y="55.7" transform="matrix(0.7071 -0.7071 0.7071 0.7071 -37.0578 24.8172)" class="st0" width="8.1" height="2.9"/>
<rect x="10.7" y="54.3" transform="matrix(0.7071 -0.7071 0.7071 0.7071 -32.7007 32.4797)" class="st0" width="24.2" height="2.9"/>
<rect x="15.4" y="45.7" transform="matrix(0.7071 -0.7071 0.7071 0.7071 -27.0597 28.9592)" class="st0" width="12.1" height="2.9"/>
<rect x="67.1" y="55" transform="matrix(0.7071 -0.7071 0.7071 0.7071 -18.773 67.5373)" class="st0" width="10.1" height="2.9"/>
<rect x="69.9" y="60.7" transform="matrix(0.7071 -0.7071 0.7071 0.7071 -21.9812 71.2335)" class="st0" width="10.1" height="2.9"/>
<rect x="36.8" y="20" transform="matrix(0.7071 -0.7071 0.7071 0.7071 -2.6006 36.5796)" class="st0" width="12.1" height="2.9"/>
<rect x="49.7" y="17.1" transform="matrix(0.7071 -0.7071 0.7071 0.7071 3.1859 44.835)" class="st0" width="12.1" height="2.9"/>
<rect x="41.7" y="27.1" transform="matrix(0.7071 -0.7071 0.7071 0.7071 -6.8154 40.6928)" class="st0" width="8.1" height="2.9"/>
<rect x="48.8" y="10" transform="matrix(0.7071 -0.7071 0.7071 0.7071 7.3918 40.7245)" class="st0" width="8.1" height="2.9"/>
<rect x="10" y="5.7" class="st0" width="2.9" height="2.9"/>
<rect x="15.7" y="5.7" class="st0" width="2.9" height="2.9"/>
<rect x="21.4" y="5.7" class="st0" width="2.9" height="2.9"/>
</svg>
