<?xml version="1.0" encoding="utf-8"?>
<!-- Generator: Adobe Illustrator 23.0.3, SVG Export Plug-In . SVG Version: 6.00 Build 0)  -->
<svg version="1.1" id="Layer_1" xmlns="http://www.w3.org/2000/svg" xmlns:xlink="http://www.w3.org/1999/xlink" x="0px" y="0px"
	 viewBox="0 0 67.8 80" style="enable-background:new 0 0 67.8 80;" xml:space="preserve">
<style type="text/css">
	.st0{fill:#FD5481;}
</style>
<g>
	<path class="st0" d="M59.5,61.1c5.4-8,8.3-17.7,8.3-27.2C67.8,15.2,52.6,0,33.9,0C15.2,0,0,15.2,0,33.9c0,17.8,13.8,32.5,31.3,33.8
		v9.7c0,0.8,0.4,1.6,1.1,2.1c0.7,0.5,1.6,0.6,2.4,0.4C45,76.4,53.6,70,59.5,61.1z M32.8,64.4c-17.7,0-30.9-15-29.8-32.9
		C4,16.1,16.5,3.5,31.9,2.6c18-1.1,32.9,13.2,32.9,30.9c0,15.8-9.8,34.6-29.2,42.8l-0.2-9.2c0-1.2-0.7-2.3-1.9-2.6
		C33.4,64.4,33.1,64.4,32.8,64.4z"/>
	<g>
		<path class="st0" d="M28.9,24.8H19c-1.4,0-2.5,1.1-2.5,2.5v9.9c0,1.4,1.1,2.5,2.5,2.5h7.4c-0.2,2.2-1.5,4.2-3.6,5.2
			c-1.2,0.6-1.7,2.1-1.1,3.3c0.6,1.2,2.1,1.7,3.3,1.1c3.9-2,6.3-5.9,6.3-10.3c0-2.7,0-9.2,0-11.8C31.4,25.9,30.3,24.8,28.9,24.8z
			 M26.5,34.7h-5v-5h5V34.7z"/>
		<path class="st0" d="M48.8,24.8h-9.9c-1.4,0-2.5,1.1-2.5,2.5v9.9c0,1.4,1.1,2.5,2.5,2.5h7.4c-0.2,2.2-1.5,4.2-3.6,5.2
			c-1.2,0.6-1.7,2.1-1.1,3.3c0.6,1.2,2.1,1.7,3.3,1.1c3.9-2,6.3-5.9,6.3-10.3c0-2.7,0-9.2,0-11.8C51.3,25.9,50.2,24.8,48.8,24.8z
			 M46.3,34.7h-5v-5h5V34.7z"/>
	</g>
</g>
</svg>
