<?xml version="1.0" encoding="utf-8"?>
<!-- Generator: Adobe Illustrator 23.0.3, SVG Export Plug-In . SVG Version: 6.00 Build 0)  -->
<svg version="1.1" id="Icon_Set" xmlns="http://www.w3.org/2000/svg" xmlns:xlink="http://www.w3.org/1999/xlink" x="0px" y="0px"
	 viewBox="0 0 58.8 80" style="enable-background:new 0 0 58.8 80;" xml:space="preserve">
<style type="text/css">
	.st0{fill:#FD5481;}
</style>
<g>
	<g>
		<path class="st0" d="M58.4,21.5l-21-21C37,0.2,36.6,0,36.2,0H6.5C2.9,0,0,2.9,0,6.5v66.9C0,77.1,2.9,80,6.5,80h45.8
			c3.6,0,6.5-2.9,6.5-6.5V22.6C58.8,22.2,58.6,21.8,58.4,21.5z M37.8,5.4L53.4,21H41.1c-1.9,0-3.4-1.5-3.4-3.4L37.8,5.4L37.8,5.4z
			 M55.7,73.5c0,1.9-1.5,3.4-3.4,3.4H6.5c-1.9,0-3.4-1.5-3.4-3.4V6.5c0-1.9,1.5-3.4,3.4-3.4h28.1v14.5c0,3.6,2.9,6.5,6.5,6.5h14.5
			V73.5z"/>
	</g>
	<g>
		<path class="st0" d="M42.1,40.2H16.8c-0.9,0-1.6,0.7-1.6,1.6c0,0.9,0.7,1.6,1.6,1.6h25.3c0.9,0,1.6-0.7,1.6-1.6
			C43.6,40.9,42.9,40.2,42.1,40.2z"/>
	</g>
	<g>
		<path class="st0" d="M42.1,47.2H16.8c-0.9,0-1.6,0.7-1.6,1.6c0,0.9,0.7,1.6,1.6,1.6h25.3c0.9,0,1.6-0.7,1.6-1.6
			C43.6,47.9,42.9,47.2,42.1,47.2z"/>
	</g>
	<g>
		<path class="st0" d="M42.1,54.3H16.8c-0.9,0-1.6,0.7-1.6,1.6s0.7,1.6,1.6,1.6h25.3c0.9,0,1.6-0.7,1.6-1.6S42.9,54.3,42.1,54.3z"/>
	</g>
	<g>
		<path class="st0" d="M33.8,61.3H16.8c-0.9,0-1.6,0.7-1.6,1.6c0,0.9,0.7,1.6,1.6,1.6h17.1c0.9,0,1.6-0.7,1.6-1.6
			C35.4,62.1,34.7,61.3,33.8,61.3z"/>
	</g>
</g>
</svg>
