<?xml version="1.0" encoding="utf-8"?>
<!-- Generator: Adobe Illustrator 23.0.3, SVG Export Plug-In . SVG Version: 6.00 Build 0)  -->
<svg version="1.1" id="Layer_1" xmlns="http://www.w3.org/2000/svg" xmlns:xlink="http://www.w3.org/1999/xlink" x="0px" y="0px"
	 viewBox="0 0 90.3 80" style="enable-background:new 0 0 90.3 80;" xml:space="preserve">
<style type="text/css">
	.st0{fill:#FD5481;}
</style>
<g>
	<g>
		<path class="st0" d="M59.2,3l23.9,41.6h-20L39.2,3H59.2 M61,0H34l27.3,47.6h26.9L61,0L61,0z"/>
	</g>
	<g>
		<path class="st0" d="M85.2,59.2L75.1,77h-45l10.1-17.8H85.2 M90.3,56.2H38.4L24.9,80h51.9L90.3,56.2L90.3,56.2z"/>
	</g>
	<g>
		<path class="st0" d="M25.8,12l10.4,17.8L13.5,69.2l-10-17.7L25.8,12 M25.8,5.9L0,51.5l13.5,23.8l26.2-45.6L25.8,5.9L25.8,5.9z"/>
	</g>
</g>
</svg>
