<?xml version="1.0" encoding="utf-8"?>
<!-- Generator: Adobe Illustrator 23.0.3, SVG Export Plug-In . SVG Version: 6.00 Build 0)  -->
<svg version="1.1" id="Layer_1" xmlns="http://www.w3.org/2000/svg" xmlns:xlink="http://www.w3.org/1999/xlink" x="0px" y="0px"
	 viewBox="0 0 83.4 80" style="enable-background:new 0 0 83.4 80;" xml:space="preserve">
<style type="text/css">
	.st0{fill:#FD5481;}
</style>
<g>
	<g>
		<path class="st0" d="M82,13.2c-1-1.2-2.4-2-3.9-2.1V5.2c0-2.9-2.3-5.2-5.2-5.2H10.5C7.6,0,5.3,2.3,5.3,5.2V11
			c-1.5,0.2-2.9,0.9-3.9,2.1c-1.1,1.4-1.6,3.1-1.3,4.9l5.3,27.6L3.2,74.3c-0.1,1.5,0.4,2.9,1.4,4c1,1.1,2.4,1.7,3.9,1.7h66.3
			c1.5,0,2.9-0.6,3.9-1.7c1-1.1,1.5-2.6,1.4-4L78,45.6l5.3-27.6C83.6,16.3,83.2,14.5,82,13.2z M8.7,5.2c0-1,0.8-1.8,1.8-1.8h62.4
			c1,0,1.8,0.8,1.8,1.8V11H8.7V5.2z M80,17.4l-5.1,26.4H63c-0.9,0-1.7,0.8-1.7,1.7s0.8,1.7,1.7,1.7h11.7l2.1,27.3
			c0,0.6-0.1,1.1-0.5,1.5c-0.4,0.4-0.9,0.6-1.4,0.6H8.6c-0.6,0-1.1-0.2-1.4-0.6c-0.4-0.4-0.6-0.9-0.5-1.5l2.1-27.3h12.8
			c0.9,0,1.7-0.8,1.7-1.7s-0.8-1.7-1.7-1.7h-13L3.4,17.4c-0.1-0.8,0.1-1.5,0.5-2.1c0.5-0.6,1.2-0.9,2-0.9h71.5c0.8,0,1.5,0.3,2,0.9
			C79.9,15.9,80.1,16.7,80,17.4z"/>
	</g>
	<g>
		<path class="st0" d="M50.5,43.8h-9.1c-0.9,0-1.7,0.8-1.7,1.7s0.8,1.7,1.7,1.7h9.1c0.9,0,1.7-0.8,1.7-1.7S51.4,43.8,50.5,43.8z"/>
	</g>
	<g>
		<path class="st0" d="M35.9,46.4c2.7-1.8,4.5-4.8,4.5-8.1c0-5.4-4.5-9.8-10.1-9.8s-10.1,4.4-10.1,9.8c0,0.9,0.8,1.7,1.7,1.7
			c0.9,0,1.7-0.8,1.7-1.7c0-3.6,3-6.5,6.7-6.5s6.7,2.9,6.7,6.5s-3,6.5-6.7,6.5h-3.1c-0.9,0-1.7,0.8-1.7,1.7c0,0.9,0.8,1.7,1.7,1.7
			h3.1c3.7,0,6.7,2.9,6.7,6.5S34,61,30.2,61s-6.7-2.9-6.7-6.5c0-0.9-0.8-1.7-1.7-1.7c-0.9,0-1.7,0.8-1.7,1.7c0,5.4,4.5,9.8,10.1,9.8
			s10.1-4.4,10.1-9.8C40.3,51.2,38.6,48.2,35.9,46.4z"/>
	</g>
	<g>
		<path class="st0" d="M57.8,28.6c-0.5-0.3-1.2-0.3-1.7,0l-9.2,5.5c-0.8,0.5-1.1,1.5-0.6,2.3c0.5,0.8,1.5,1.1,2.3,0.6l6.7-4v29.6
			c0,0.9,0.8,1.7,1.7,1.7s1.7-0.8,1.7-1.7V30.1C58.7,29.5,58.3,28.9,57.8,28.6z"/>
	</g>
	<g>
		<circle class="st0" cx="59" cy="7" r="1.7"/>
	</g>
	<g>
		<circle class="st0" cx="24.8" cy="7" r="1.7"/>
	</g>
</g>
</svg>
