<?xml version="1.0" encoding="utf-8"?>
<!-- Generator: Adobe Illustrator 23.0.3, SVG Export Plug-In . SVG Version: 6.00 Build 0)  -->
<svg version="1.1" id="Icon_Set" xmlns="http://www.w3.org/2000/svg" xmlns:xlink="http://www.w3.org/1999/xlink" x="0px" y="0px"
	 viewBox="0 0 80 80" style="enable-background:new 0 0 80 80;" xml:space="preserve">
<style type="text/css">
	.st0{fill:#FD5481;}
</style>
<g>
	<path class="st0" d="M80,30.6c0-0.1,0-0.2-0.1-0.3c0-0.1,0-0.2-0.1-0.2c0-0.1-0.1-0.1-0.1-0.2c-0.1-0.1-0.1-0.1-0.2-0.2
		c0,0,0,0-0.1-0.1l-12.8-10V9.3c0-2.2-1.8-4-4-4H48.2l-5.8-4.5c-1.4-1.1-3.4-1.1-4.9,0l-5.8,4.5H17.3c-2.2,0-4,1.8-4,4v10.3
		l-12.8,10c0,0,0,0-0.1,0.1c-0.1,0.1-0.1,0.1-0.2,0.2c-0.1,0.1-0.1,0.1-0.1,0.2c0,0.1-0.1,0.2-0.1,0.2c0,0.1,0,0.2-0.1,0.3
		c0,0,0,0.1,0,0.1V76c0,0.8,0.3,1.7,0.8,2.4c0,0,0,0,0,0c0,0,0,0,0,0C1.6,79.4,2.8,80,4,80h72c1.2,0,2.4-0.6,3.2-1.6c0,0,0,0,0,0
		c0,0,0,0,0,0c0.5-0.7,0.8-1.5,0.8-2.4L80,30.6C80,30.6,80,30.6,80,30.6z M39.2,2.9c0.5-0.4,1.1-0.4,1.6,0l3.1,2.4h-7.7L39.2,2.9z
		 M4.3,77.3l34.9-27.1c0.5-0.4,1.1-0.4,1.6,0l34.9,27.1H4.3z M77.3,75.3L42.4,48.1C41,47,39,47,37.6,48.1L2.7,75.3V32.7l21.9,17
		c0.6,0.5,1.4,0.3,1.9-0.2c0.5-0.6,0.3-1.4-0.2-1.9L3.9,30.3l9.4-7.3v10.3c0,0.7,0.6,1.3,1.3,1.3c0.7,0,1.3-0.6,1.3-1.3v-24
		C16,8.6,16.6,8,17.3,8h45.3C63.4,8,64,8.6,64,9.3v24c0,0.7,0.6,1.3,1.3,1.3c0.7,0,1.3-0.6,1.3-1.3V23l9.4,7.3L53.8,47.6
		c-0.4,0.3-0.6,0.8-0.5,1.2c0.1,0.5,0.4,0.9,0.8,1.1c0.4,0.2,1,0.1,1.3-0.2l21.9-17L77.3,75.3L77.3,75.3z"/>
	<path class="st0" d="M56,32v-5.3c0-8.8-7.2-16-16-16c-8.8,0-16,7.2-16,16c0,8.8,7.2,16,16,16c0.7,0,1.3-0.6,1.3-1.3
		c0-0.7-0.6-1.3-1.3-1.3c-7.4,0-13.3-6-13.3-13.3c0-7.4,6-13.3,13.3-13.3c7.4,0,13.3,6,13.3,13.3V32c0,1.5-1.2,2.7-2.7,2.7
		c-1.5,0-2.7-1.2-2.7-2.7v-5.3c0-0.7-0.6-1.3-1.3-1.3c-0.7,0-1.3,0.6-1.3,1.3c0,2.9-2.4,5.3-5.3,5.3c-2.9,0-5.3-2.4-5.3-5.3
		s2.4-5.3,5.3-5.3c0.7,0,1.3-0.6,1.3-1.3c0-0.7-0.6-1.3-1.3-1.3c-3.6,0-6.7,2.4-7.7,5.8c-1,3.4,0.4,7.1,3.5,9c3,1.9,7,1.5,9.6-0.9
		c0.3,2.8,2.7,4.9,5.6,4.8C53.8,37.2,56,34.8,56,32z"/>
</g>
</svg>
