<?xml version="1.0" encoding="utf-8"?>
<!-- Generator: Adobe Illustrator 23.0.3, SVG Export Plug-In . SVG Version: 6.00 Build 0)  -->
<svg version="1.1" id="Layer_1" xmlns="http://www.w3.org/2000/svg" xmlns:xlink="http://www.w3.org/1999/xlink" x="0px" y="0px"
	 viewBox="0 0 58.8 80" style="enable-background:new 0 0 58.8 80;" xml:space="preserve">
<style type="text/css">
	.st0{fill:#FD5481;}
</style>
<g>
	<path class="st0" d="M58.4,21.5l-21-21C37,0.2,36.6,0,36.2,0H6.5C2.9,0,0,2.9,0,6.5v66.9C0,77.1,2.9,80,6.5,80h45.8
		c3.6,0,6.5-2.9,6.5-6.5V22.6C58.8,22.2,58.6,21.8,58.4,21.5z M37.8,5.4L53.4,21H41.1c-1.9,0-3.4-1.5-3.4-3.4L37.8,5.4L37.8,5.4z
		 M55.7,73.5c0,1.9-1.5,3.4-3.4,3.4H6.5c-1.9,0-3.4-1.5-3.4-3.4V6.5c0-1.9,1.5-3.4,3.4-3.4h28.1v14.5c0,3.6,2.9,6.5,6.5,6.5h14.5
		L55.7,73.5L55.7,73.5z"/>
</g>
<g>
	<path class="st0" d="M41.6,39.8H17.2c-0.9,0-1.6,0.7-1.6,1.6v21.2c0,0.9,0.7,1.6,1.6,1.6h24.3c0.9,0,1.6-0.7,1.6-1.6V41.4
		C43.2,40.5,42.5,39.8,41.6,39.8z M18.8,43h9v3.8h-9V43z M27.8,61h-9v-3.8h9V61z M27.8,54L27.8,54h-9v-4h9V54z M40,61h-9v-3.8h9V61z
		 M40,54h-9v-4h9V54z M40,46.8h-9V43h9V46.8z"/>
</g>
</svg>
