<?xml version="1.0" encoding="utf-8"?>
<!-- Generator: Adobe Illustrator 23.0.3, SVG Export Plug-In . SVG Version: 6.00 Build 0)  -->
<svg version="1.1" id="Icon_Set" xmlns="http://www.w3.org/2000/svg" xmlns:xlink="http://www.w3.org/1999/xlink" x="0px" y="0px"
	 viewBox="0 0 80 80" style="enable-background:new 0 0 80 80;" xml:space="preserve">
<style type="text/css">
	.st0{fill:#FD5481;}
</style>
<path class="st0" d="M64,34.7c-0.2,0-0.4,0-0.6,0l-6.9-9.2c2.8-2.5,4.6-6.1,4.8-10.1l8.4,4c-0.2,0.6-0.3,1.2-0.3,1.8
	c0,2.9,2.4,5.3,5.3,5.3c2.9,0,5.3-2.4,5.3-5.3c0-2.9-2.4-5.3-5.3-5.3c-1.3,0-2.5,0.5-3.4,1.3l-10.1-4.9C60,5.4,54,0,46.7,0
	C38.8,0,32.4,6.2,32,14l-7.9,6.8c-2.2-1.9-5-3.1-8.1-3.4v-6.9c2.3-0.6,4-2.7,4-5.1C20,2.4,17.6,0,14.7,0c-2.9,0-5.3,2.4-5.3,5.3
	c0,2.5,1.7,4.5,4,5.1v6.9C5.9,18.1,0,24.4,0,32c0,5.4,2.9,10.1,7.3,12.7c0,0,0,0,0.1,0c0,0,0.1,0,0.1,0.1C7.6,44.9,7.8,45,8,45
	c0.2,0.1,0.3,0.2,0.5,0.3c0.3,0.1,0.6,0.3,0.9,0.4c0.2,0.1,0.4,0.2,0.7,0.2c0.2,0.1,0.4,0.1,0.6,0.2c0.2,0.1,0.5,0.1,0.7,0.2
	c0.2,0,0.3,0.1,0.5,0.1c0.4,0.1,0.8,0.1,1.1,0.2c0.1,0,0.3,0,0.4,0c0.4,0,0.9,0.1,1.3,0.1s0.9,0,1.3-0.1c0.1,0,0.3,0,0.4,0
	c0.4,0,0.8-0.1,1.1-0.2c0.2,0,0.3-0.1,0.5-0.1c0.2-0.1,0.5-0.1,0.7-0.2c0.2-0.1,0.4-0.1,0.6-0.2c0.2-0.1,0.4-0.2,0.7-0.2
	c0.3-0.1,0.6-0.2,0.9-0.4c0.2-0.1,0.4-0.2,0.5-0.3c0.2-0.1,0.4-0.2,0.6-0.3c0,0,0.1,0,0.1-0.1c0,0,0,0,0.1,0c3.6-2.1,6.3-5.8,7-10.1
	l6,4.7c-0.3,0.6-0.4,1.4-0.4,2.1c0,2.9,2.4,5.3,5.3,5.3c2.9,0,5.3-2.4,5.3-5.3c0-2.9-2.4-5.3-5.3-5.3c-1.2,0-2.3,0.4-3.2,1.1
	l-7.5-5.8c-0.2-3.3-1.4-6.3-3.3-8.6l6.3-5.4c0.8,4.3,3.4,7.9,7,10c0,0,0,0,0.1,0c0,0,0.1,0,0.1,0.1c0.2,0.1,0.4,0.2,0.6,0.3
	c0.2,0.1,0.3,0.2,0.5,0.3c0.3,0.1,0.6,0.3,0.9,0.4c0.2,0.1,0.4,0.2,0.7,0.2c0.2,0.1,0.4,0.1,0.6,0.2c0.2,0.1,0.5,0.1,0.7,0.2
	c0.2,0,0.3,0.1,0.5,0.1c0.4,0.1,0.8,0.1,1.1,0.2c0.1,0,0.3,0,0.4,0c0.4,0,0.9,0.1,1.3,0.1s0.9,0,1.3-0.1c0.1,0,0.3,0,0.4,0
	c0.4,0,0.8-0.1,1.1-0.2c0.2,0,0.3-0.1,0.5-0.1c0.2-0.1,0.5-0.1,0.7-0.2c0.2-0.1,0.4-0.1,0.6-0.2c0.2-0.1,0.4-0.2,0.7-0.2
	c0.3-0.1,0.6-0.2,0.9-0.4c0.2-0.1,0.4-0.2,0.5-0.3c0.2-0.1,0.4-0.2,0.6-0.3c0,0,0.1,0,0.1-0.1c0,0,0,0,0.1,0
	c0.1-0.1,0.2-0.1,0.3-0.2l6,8c-6.3,1.6-11,7.4-11,14.2c0,1.7,0.3,3.2,0.8,4.7l-5.4,4c-2.5-4.4-7.3-7.4-12.7-7.4
	c-7.6,0-13.9,5.9-14.6,13.3h-6.9c-0.6-2.3-2.7-4-5.1-4C2.4,60,0,62.4,0,65.3c0,2.9,2.4,5.3,5.3,5.3c2.5,0,4.5-1.7,5.1-4h6.9
	c0.4,4.8,3.2,9,7.2,11.3c0,0,0,0,0,0c0,0,0.1,0,0.1,0.1c0.2,0.1,0.4,0.2,0.6,0.3c0.2,0.1,0.3,0.2,0.5,0.3c0.3,0.1,0.6,0.3,0.9,0.4
	c0.2,0.1,0.4,0.2,0.6,0.2c0.2,0.1,0.4,0.1,0.6,0.2c0.2,0.1,0.5,0.1,0.7,0.2c0.2,0,0.3,0.1,0.5,0.1c0.4,0.1,0.8,0.1,1.1,0.2
	c0.1,0,0.3,0,0.4,0c0.4,0,0.9,0.1,1.3,0.1s0.9,0,1.3-0.1c0.1,0,0.3,0,0.4,0c0.4,0,0.8-0.1,1.1-0.2c0.2,0,0.3-0.1,0.5-0.1
	c0.2-0.1,0.5-0.1,0.7-0.2c0.2-0.1,0.4-0.1,0.6-0.2c0.2-0.1,0.4-0.2,0.6-0.2c0.3-0.1,0.6-0.2,0.9-0.4c0.2-0.1,0.3-0.2,0.5-0.3
	c0.2-0.1,0.4-0.2,0.6-0.3c0,0,0.1,0,0.1-0.1c0,0,0,0,0.1,0c3.4-2,6-5.4,6.9-9.4l8.7,4.2c-0.2,0.6-0.3,1.2-0.3,1.8
	c0,2.9,2.4,5.3,5.3,5.3s5.3-2.4,5.3-5.3c0-2.9-2.4-5.3-5.3-5.3c-1.3,0-2.5,0.5-3.4,1.3l-9.9-4.8c0-0.2,0-0.3,0-0.5
	c0-1.7-0.3-3.2-0.8-4.7l5.4-4c1.3,2.2,3.1,4.1,5.4,5.4c0,0,0,0,0,0c0,0,0.1,0,0.1,0.1c0.2,0.1,0.4,0.2,0.6,0.3
	c0.2,0.1,0.3,0.2,0.5,0.2c0.3,0.1,0.6,0.3,0.9,0.4c0.2,0.1,0.4,0.2,0.6,0.2c0.2,0.1,0.4,0.1,0.6,0.2c0.2,0.1,0.5,0.1,0.7,0.2
	c0.2,0,0.3,0.1,0.5,0.1c0.4,0.1,0.8,0.1,1.1,0.2c0.1,0,0.3,0,0.4,0c0.4,0,0.9,0.1,1.3,0.1c0,0,0,0,0,0s0,0,0,0c0.4,0,0.9,0,1.3-0.1
	c0.1,0,0.3,0,0.4,0c0.4,0,0.8-0.1,1.1-0.2c0.2,0,0.3-0.1,0.5-0.1c0.2-0.1,0.5-0.1,0.7-0.2c0.2-0.1,0.4-0.1,0.6-0.2
	c0.2-0.1,0.4-0.2,0.6-0.2c0.3-0.1,0.6-0.2,0.9-0.4c0.2-0.1,0.3-0.2,0.5-0.2c0.2-0.1,0.4-0.2,0.6-0.3c0,0,0.1,0,0.1-0.1
	c0,0,0,0,0.1,0c4.3-2.5,7.3-7.3,7.3-12.7C78.7,41.2,72.1,34.7,64,34.7z M51.9,25.5c-0.4,0.2-0.7,0.3-1.1,0.5c0,0-0.1,0-0.1,0
	c-2.6,0.9-5.4,0.9-8,0c0,0-0.1,0-0.1,0c-0.4-0.1-0.7-0.3-1.1-0.5c0,0-0.1,0-0.1-0.1v-2.7c0-0.7,0.7-1.4,1.5-1.4h7.7
	c0.8,0,1.5,0.6,1.5,1.4v2.7C52,25.4,51.9,25.4,51.9,25.5z M77.3,21.3c0,1.5-1.2,2.7-2.7,2.7c-1.5,0-2.7-1.2-2.7-2.7s1.2-2.7,2.7-2.7
	C76.1,18.7,77.3,19.9,77.3,21.3z M12,5.3c0-1.5,1.2-2.7,2.7-2.7s2.7,1.2,2.7,2.7c0,1.5-1.2,2.7-2.7,2.7C13.2,8,12,6.8,12,5.3z
	 M20,42.7c0,0-0.1,0-0.1,0.1c-0.4,0.2-0.7,0.3-1.1,0.5c0,0-0.1,0-0.1,0c-2.6,0.9-5.4,0.9-8,0c0,0-0.1,0-0.1,0
	c-0.4-0.1-0.7-0.3-1.1-0.5c0,0-0.1,0-0.1-0.1V40c0-0.7,0.7-1.4,1.5-1.4h7.7c0.8,0,1.5,0.6,1.5,1.4V42.7z M42.7,41.3
	c0,1.5-1.2,2.7-2.7,2.7s-2.7-1.2-2.7-2.7s1.2-2.7,2.7-2.7C41.5,38.7,42.7,39.9,42.7,41.3z M22.7,40.9V40c0-2.2-1.9-4-4.1-4h-7.7
	c-2.3,0-4.1,1.8-4.1,4v0.9c-2.4-2.2-4-5.4-4-8.9c0-6.6,5.4-12,12-12c6.6,0,12,5.4,12,12C26.7,35.5,25.1,38.7,22.7,40.9z M34.7,14.7
	c0-6.6,5.4-12,12-12c6.6,0,12,5.4,12,12c0,3.5-1.6,6.7-4,8.9v-0.9c0-2.2-1.9-4-4.1-4h-7.7c-2.3,0-4.1,1.8-4.1,4v0.9
	C36.2,21.4,34.7,18.2,34.7,14.7z M62.7,74.7c0,1.5-1.2,2.7-2.7,2.7s-2.7-1.2-2.7-2.7c0-1.5,1.2-2.7,2.7-2.7S62.7,73.2,62.7,74.7z
	 M5.3,68c-1.5,0-2.7-1.2-2.7-2.7c0-1.5,1.2-2.7,2.7-2.7c1.5,0,2.7,1.2,2.7,2.7C8,66.8,6.8,68,5.3,68z M37.3,76.1c0,0-0.1,0-0.1,0.1
	c-0.4,0.2-0.7,0.3-1.1,0.5c0,0-0.1,0-0.1,0c-2.6,0.9-5.4,0.9-8,0c0,0-0.1,0-0.1,0c-0.4-0.1-0.7-0.3-1.1-0.5c0,0-0.1,0-0.1-0.1v-2.7
	c0-0.7,0.7-1.4,1.5-1.4h7.7c0.8,0,1.5,0.6,1.5,1.4V76.1z M40,74.3v-0.9c0-2.2-1.9-4-4.1-4h-7.7c-2.3,0-4.1,1.8-4.1,4v0.9
	c-2.4-2.2-4-5.4-4-8.9c0-6.6,5.4-12,12-12c6.6,0,12,5.4,12,12C44,68.9,42.4,72.1,40,74.3z M69.3,60.1c0,0-0.1,0-0.1,0.1
	c-0.4,0.2-0.7,0.3-1.1,0.5c0,0-0.1,0-0.1,0c-2.6,0.9-5.4,0.9-8,0c0,0-0.1,0-0.1,0c-0.4-0.1-0.7-0.3-1.1-0.5c0,0-0.1,0-0.1-0.1v-2.7
	c0-0.7,0.7-1.4,1.5-1.4h7.7c0.8,0,1.5,0.6,1.5,1.4V60.1z M72,58.3v-0.9c0-2.2-1.9-4-4.1-4h-7.7c-2.3,0-4.1,1.8-4.1,4v0.9
	c-2.4-2.2-4-5.4-4-8.9c0-6.6,5.4-12,12-12c6.6,0,12,5.4,12,12C76,52.9,74.4,56.1,72,58.3z M64,40c-2.9,0-5.3,2.4-5.3,5.3
	c0,2.9,2.4,5.3,5.3,5.3c2.9,0,5.3-2.4,5.3-5.3C69.3,42.4,66.9,40,64,40z M64,48c-1.5,0-2.7-1.2-2.7-2.7s1.2-2.7,2.7-2.7
	c1.5,0,2.7,1.2,2.7,2.7C66.7,46.8,65.5,48,64,48z M32,56c-2.9,0-5.3,2.4-5.3,5.3c0,2.9,2.4,5.3,5.3,5.3s5.3-2.4,5.3-5.3
	C37.3,58.4,34.9,56,32,56z M32,64c-1.5,0-2.7-1.2-2.7-2.7s1.2-2.7,2.7-2.7c1.5,0,2.7,1.2,2.7,2.7C34.7,62.8,33.5,64,32,64z
	 M14.7,22.7c-2.9,0-5.3,2.4-5.3,5.3c0,2.9,2.4,5.3,5.3,5.3c2.9,0,5.3-2.4,5.3-5.3C20,25.1,17.6,22.7,14.7,22.7z M14.7,30.7
	c-1.5,0-2.7-1.2-2.7-2.7c0-1.5,1.2-2.7,2.7-2.7s2.7,1.2,2.7,2.7C17.3,29.5,16.1,30.7,14.7,30.7z M46.7,16c2.9,0,5.3-2.4,5.3-5.3
	c0-2.9-2.4-5.3-5.3-5.3c-2.9,0-5.3,2.4-5.3,5.3C41.3,13.6,43.7,16,46.7,16z M46.7,8c1.5,0,2.7,1.2,2.7,2.7c0,1.5-1.2,2.7-2.7,2.7
	c-1.5,0-2.7-1.2-2.7-2.7C44,9.2,45.2,8,46.7,8z"/>
</svg>
