<?xml version="1.0" encoding="utf-8"?>
<!-- Generator: Adobe Illustrator 23.0.3, SVG Export Plug-In . SVG Version: 6.00 Build 0)  -->
<svg version="1.1" id="Layer_1" xmlns="http://www.w3.org/2000/svg" xmlns:xlink="http://www.w3.org/1999/xlink" x="0px" y="0px"
	 viewBox="0 0 80 80" style="enable-background:new 0 0 80 80;" xml:space="preserve">
<style type="text/css">
	.st0{fill:#FD5481;}
</style>
<path class="st0" d="M76.1,10.3h-7.7v1.5c-1.2-1.2-2.4-2.3-3.7-3.3C66.9,7.3,69,5.9,71,4.2v3.5h2.6V0h-7.7v2.6h3.1
	c-2,1.7-4.2,3.1-6.6,4.2C55.8,2.4,48.1,0,40,0C17.9,0,0,17.9,0,40c0,4,0.6,8,1.8,11.7C0.8,52.1,0,53,0,54.2v2.6
	c0,1.4,1.2,2.6,2.6,2.6v2.6c0,0.5,0.1,0.9,0.4,1.3c-0.2,0.4-0.4,0.8-0.4,1.3v2.6c0,1.4,1.2,2.6,2.6,2.6v2.6c-1.4,0-2.6,1.2-2.6,2.6
	v2.6c0,1.4,1.2,2.6,2.6,2.6h24.5c0.8,0,1.5-0.4,1.9-0.9c2.7,0.6,5.6,0.9,8.4,0.9c22.1,0,40-17.9,40-40c0-6-1.3-11.8-3.9-17.2V10.3z
	 M71,12.9h2.6v20.6H71V12.9z M38.7,2.6v74.8c-2.2-0.1-4.3-0.3-6.5-0.8v-1.8c1.4,0,2.6-1.2,2.6-2.6v-2.6c0-1.4-1.2-2.6-2.6-2.6v-2.6
	c0-0.5-0.1-0.9-0.4-1.3c0.2-0.4,0.4-0.8,0.4-1.3v-2.6c0-1.4-1.2-2.6-2.6-2.6v-2.6h2.6c1.4,0,2.6-1.2,2.6-2.6V49
	c0-1.4-1.2-2.6-2.6-2.6H7.7c-1.4,0-2.6,1.2-2.6,2.6v2.6H4.4C3.2,47.9,2.6,44,2.6,40C2.6,19.8,18.7,3.3,38.7,2.6z M5.2,64.5h24.5
	l0,2.6H7.7H5.2V64.5z M2.6,54.2h5.2h19.4l0,2.6H5.2H2.6V54.2z M27.1,51.6H7.7V49h24.5l0,2.6H27.1z M27.1,59.4h2.6l0,2.6h0H5.2v-2.6
	H27.1z M7.7,69.7h21.9h2.6l0,2.6h-2.6H7.7V69.7z M5.2,77.4v-2.6h2.6h21.9l0,2.6H5.2z M41.3,77.4V41.3h36.1
	C76.7,60.9,60.9,76.7,41.3,77.4z M77.4,38.7H41.3V2.6c6.5,0.2,12.8,2.1,18.2,5.5c-3.8,1.5-7.9,2.3-12.2,2.3h-3.5v2.6h3.5
	c5.2,0,10.2-1.1,14.7-3.1c2.3,1.7,4.4,3.6,6.3,5.8v17.9h-2.6V16.8h-7.7v16.8h-2.6V20.6h-7.7v12.9h-3.9v2.6h32.3v-5.9
	C76.9,33,77.3,35.8,77.4,38.7z M63.2,33.5h-2.6V19.4h2.6V33.5z M52.9,33.5h-2.6V23.2h2.6V33.5z M49,51.6h2.6v2.6H49V51.6z
	 M56.8,51.6h2.6v2.6h-2.6V51.6z M67.1,51.6v2.6h-2.6v-2.6H67.1z M27.1,33.5c0-1.4-1.2-2.6-2.6-2.6h-5.2c-2.8,0-5.2-2.3-5.2-5.2
	s2.3-5.2,5.2-5.2h1.3v-2.6h2.6v2.6h1.3c2.8,0,5.2,2.3,5.2,5.2h-2.6c0-1.4-1.2-2.6-2.6-2.6h-5.2c-1.4,0-2.6,1.2-2.6,2.6
	s1.2,2.6,2.6,2.6h5.2c2.8,0,5.2,2.3,5.2,5.2s-2.3,5.2-5.2,5.2h-1.3v2.6h-2.6v-2.6h-1.3c-2.8,0-5.2-2.3-5.2-5.2h2.6
	c0,1.4,1.2,2.6,2.6,2.6h5.2C25.9,36.1,27.1,35,27.1,33.5z"/>
</svg>
