<?xml version="1.0" encoding="utf-8"?>
<!-- Generator: Adobe Illustrator 23.0.3, SVG Export Plug-In . SVG Version: 6.00 Build 0)  -->
<svg version="1.1" id="Layer_1" xmlns="http://www.w3.org/2000/svg" xmlns:xlink="http://www.w3.org/1999/xlink" x="0px" y="0px"
	 viewBox="0 0 74.7 80" style="enable-background:new 0 0 74.7 80;" xml:space="preserve">
<style type="text/css">
	.st0{fill:#FD5481;}
</style>
<g>
	<path class="st0" d="M73,53.4c-1.1-0.9-2.5-1.3-3.8-1l-28.5,5l-8.1-8.1c-0.3-0.3-0.6-0.4-1-0.4H17.2c0-0.8-0.6-1.4-1.4-1.4h-5.7H0
		v2.9h8.6v20.1H0v2.9h10.1h5.7c0.8,0,1.4-0.6,1.4-1.4h4l15.4,7.7c0.7,0.3,1.4,0.5,2.1,0.5c0.8,0,1.6-0.2,2.4-0.6l31.3-18.3
		c1.4-0.8,2.3-2.4,2.3-4.1C74.7,55.6,74.1,54.3,73,53.4z M14.4,70.4h-2.9V50.3h2.9V70.4z M70.9,58.6L39.6,76.9
		c-0.5,0.3-1.2,0.3-1.7,0.1l-15.7-7.8C22,69,21.8,69,21.5,69h-4.3V51.7H31L42.3,63c0.5,0.5,0.8,1.2,0.8,1.9c0,1.4-1.2,2.6-2.6,2.6
		c-0.7,0-1.4-0.3-1.9-0.8l-7.4-7.4l-2,2l7.4,7.4c1,1,2.4,1.6,3.9,1.6c3,0,5.5-2.5,5.5-5.5c0-1.5-0.6-2.8-1.6-3.9l-1.2-1.2l26.5-4.6
		c0.5-0.1,1.1,0.1,1.5,0.4c0.4,0.3,0.6,0.9,0.6,1.4C71.8,57.7,71.5,58.3,70.9,58.6z"/>
	
		<rect x="32.4" y="22.3" transform="matrix(0.6727 -0.7399 0.7399 0.6727 -3.4349 39.6448)" class="st0" width="21.4" height="2.9"/>
	<path class="st0" d="M37.3,23.7c2.4,0,4.3-1.9,4.3-4.3s-1.9-4.3-4.3-4.3S33,17,33,19.4S35,23.7,37.3,23.7z M37.3,18
		c0.8,0,1.4,0.6,1.4,1.4c0,0.8-0.6,1.4-1.4,1.4c-0.8,0-1.4-0.6-1.4-1.4C35.9,18.6,36.6,18,37.3,18z"/>
	<path class="st0" d="M44.5,28c0,2.4,1.9,4.3,4.3,4.3s4.3-1.9,4.3-4.3s-1.9-4.3-4.3-4.3S44.5,25.6,44.5,28z M50.3,28
		c0,0.8-0.6,1.4-1.4,1.4s-1.4-0.6-1.4-1.4c0-0.8,0.6-1.4,1.4-1.4S50.3,27.2,50.3,28z"/>
	<path class="st0" d="M42.1,54.1c0.3,0.3,0.6,0.4,1,0.4c0.4,0,0.8-0.2,1-0.4l22.8-24c6.5-6.9,6.5-18.1,0-24.9C63.7,1.8,59.5,0,55,0
		c-4.5,0-8.7,1.8-11.9,5.1C39.9,1.8,35.7,0,31.2,0c-4.5,0-8.8,1.8-11.9,5.2c-6.5,6.9-6.5,18.1,0,24.9L42.1,54.1z M21.4,7.2
		c2.6-2.8,6.1-4.3,9.9-4.3c3.7,0,7.2,1.5,9.9,4.3l1,1c0.5,0.6,1.5,0.6,2.1,0l1-1c2.6-2.8,6.1-4.3,9.9-4.3c3.7,0,7.2,1.5,9.9,4.3
		c5.5,5.8,5.5,15.2,0,21L43.1,51.1L21.4,28.2C15.9,22.4,15.9,13,21.4,7.2z"/>
	<rect x="35.9" y="34.5" class="st0" width="2.9" height="2.9"/>
	<rect x="41.7" y="34.5" class="st0" width="2.9" height="2.9"/>
	<rect x="47.4" y="34.5" class="st0" width="2.9" height="2.9"/>
</g>
</svg>
