<?xml version="1.0" encoding="utf-8"?>
<!-- Generator: Adobe Illustrator 23.0.3, SVG Export Plug-In . SVG Version: 6.00 Build 0)  -->
<svg version="1.1" id="Layer_1" xmlns="http://www.w3.org/2000/svg" xmlns:xlink="http://www.w3.org/1999/xlink" x="0px" y="0px"
	 viewBox="0 0 80 80" style="enable-background:new 0 0 80 80;" xml:space="preserve">
<style type="text/css">
	.st0{fill:#FD5481;}
</style>
<g>
	<path class="st0" d="M12.9,6.5v7.7h2.6V7.7h6.5V5.2h-7.7C13.5,5.2,12.9,5.7,12.9,6.5z"/>
	<path class="st0" d="M65.8,5.2h-7.7v2.6h6.5v6.5h2.6V6.5C67.1,5.7,66.5,5.2,65.8,5.2z"/>
	<path class="st0" d="M64.5,33.5h-6.5v2.6h7.7c0.7,0,1.3-0.6,1.3-1.3v-7.7h-2.6V33.5z"/>
	<path class="st0" d="M15.5,27.1h-2.6v7.7c0,0.7,0.6,1.3,1.3,1.3h7.7v-2.6h-6.5V27.1z"/>
	<path class="st0" d="M36.1,19.4H25.8v-6.5h-2.6v15.5h2.6v-6.5h10.3v6.5h2.6V12.9h-2.6V19.4z"/>
	<path class="st0" d="M49,12.9h-6.5c-0.7,0-1.3,0.6-1.3,1.3v12.9c0,0.7,0.6,1.3,1.3,1.3H49c4.3,0,7.7-3.5,7.7-7.7S53.3,12.9,49,12.9
		z M49,25.8h-5.2V15.5H49c2.8,0,5.2,2.3,5.2,5.2S51.9,25.8,49,25.8z"/>
	<path class="st0" d="M34.8,43.9h10.3v2.6H34.8V43.9z"/>
	<path class="st0" d="M78.7,61.9H63.2v-3.9c0-0.7-0.6-1.3-1.3-1.3H46.5v-5.2h21.9c2.1,0,3.9-1.7,3.9-3.9V3.9c0-2.1-1.7-3.9-3.9-3.9
		H11.6C9.5,0,7.7,1.7,7.7,3.9v43.9c0,2.1,1.7,3.9,3.9,3.9h21.9v5.2H18.1c-0.7,0-1.3,0.6-1.3,1.3v3.9H1.3c-0.7,0-1.3,0.6-1.3,1.3V80
		h2.6V64.5h36.1V80h2.6V64.5h36.1V80H80V63.2C80,62.5,79.4,61.9,78.7,61.9z M10.3,3.9c0-0.7,0.6-1.3,1.3-1.3h56.8
		c0.7,0,1.3,0.6,1.3,1.3v34.8H10.3V3.9z M10.3,47.7v-6.5h59.4v6.5c0,0.7-0.6,1.3-1.3,1.3H11.6C10.9,49,10.3,48.5,10.3,47.7z
		 M36.1,51.6h7.7v5.2h-7.7V51.6z M19.4,61.9v-2.6h41.3v2.6H19.4z"/>
	<path class="st0" d="M43.9,69.7h2.6v5.2h-2.6V69.7z"/>
	<path class="st0" d="M33.5,69.7h2.6v5.2h-2.6V69.7z"/>
</g>
</svg>
