<?xml version="1.0" encoding="utf-8"?>
<!-- Generator: Adobe Illustrator 23.0.3, SVG Export Plug-In . SVG Version: 6.00 Build 0)  -->
<svg version="1.1" id="Layer_1" xmlns="http://www.w3.org/2000/svg" xmlns:xlink="http://www.w3.org/1999/xlink" x="0px" y="0px"
	 viewBox="0 0 79 80" style="enable-background:new 0 0 79 80;" xml:space="preserve">
<style type="text/css">
	.st0{fill:#FD5481;}
</style>
<g>
	<g>
		<path class="st0" d="M51,72.2v-1c0-1.8-1.2-3.3-2.9-3.7l-7.3-1.8V62l0.6-0.4c1.2-0.7,1.9-1.9,1.9-3.3v-2.5c0-1.1-0.5-2.1-1.2-2.8
			c-0.8-0.7-1.8-1.1-2.9-1c-1.9,0.2-3.5,2-3.5,4.1v2.3c0,1.4,0.7,2.6,1.9,3.3l0.6,0.4v3.7l-7.3,1.8c-1.7,0.4-2.9,2-2.9,3.7v1
			c2.8,3.2,6.9,5.2,11.5,5.2S48.2,75.4,51,72.2z M54.8,62.2c0-8.4-6.9-15.3-15.3-15.3s-15.3,6.9-15.3,15.3c0,2.5,0.6,4.8,1.7,6.9
			c0.7-1.9,2.3-3.5,4.4-4l5.4-1.3v-0.3c-1.6-1.2-2.5-3.1-2.5-5.1v-2.3c0-3.4,2.6-6.3,5.8-6.6c1.8-0.2,3.6,0.4,4.9,1.6
			c1.3,1.2,2.1,2.9,2.1,4.7v2.5c0,2-1,3.9-2.5,5.1v0.3l5.4,1.3c2.1,0.5,3.7,2.1,4.4,4C54.2,67,54.8,64.6,54.8,62.2z M56.6,57.1
			c0.5,1.6,0.8,3.3,0.8,5.1c0,9.8-8,17.8-17.8,17.8s-17.8-8-17.8-17.8c0-1.8,0.3-3.5,0.8-5.1l1-2.5c0.6-1.2,1.3-2.3,2.1-3.3L18,41.8
			H7.1V16.3H30v25.5h-8.4l5.6,7.5c3.2-3.1,7.5-5,12.3-5s9.1,1.9,12.3,5l5.6-7.5H49V16.3h22.9v25.5H61l-7.4,9.4
			c0.8,1,1.5,2.1,2.1,3.3L56.6,57.1z M70.4,40.2V17.8H50.6v22.4H70.4z M28.5,40.2V17.8H8.6v22.4H28.5z M12.2,23.5h12.7v10.2H12.2
			V23.5z M13.7,32.1h9.6v-7.1h-9.6V32.1z M54.1,24.3h12.7v10.2H54.1V24.3z M55.7,33h9.6v-7.1h-9.6V33z"/>
	</g>
	<g>
		<rect x="15.3" y="5.1" class="st0" width="2.5" height="2.5"/>
		<path class="st0" d="M0,0v56.1h21.8l1-2.5H2.5V12.7h73.9v40.8H56.1l1.1,2.5H79V0H0z M76.5,10.2H2.5V2.5h73.9V10.2z"/>
		<rect x="10.2" y="5.1" class="st0" width="2.5" height="2.5"/>
		<rect x="5.1" y="5.1" class="st0" width="2.5" height="2.5"/>
	</g>
</g>
</svg>
