<?xml version="1.0" encoding="utf-8"?>
<!-- Generator: Adobe Illustrator 23.0.3, SVG Export Plug-In . SVG Version: 6.00 Build 0)  -->
<svg version="1.1" id="Layer_1" xmlns="http://www.w3.org/2000/svg" xmlns:xlink="http://www.w3.org/1999/xlink" x="0px" y="0px"
	 viewBox="0 0 84.9 80" style="enable-background:new 0 0 84.9 80;" xml:space="preserve">
<style type="text/css">
	.st0{fill:#FD5481;}
</style>
<g>
	<path class="st0" d="M43.6,31.5c-0.2,0-0.4,0-0.5,0c-1.8-0.2-3.2-1.7-3.2-3.6c0-0.9-0.7-1.6-1.6-1.6s-1.6,0.7-1.6,1.6
		c0,3,2,5.7,5,6.5V36c0,0.9,0.7,1.6,1.6,1.6c0.9,0,1.6-0.7,1.6-1.6v-1.5c3.4-0.7,5.7-3.9,5.3-7.3c-0.4-3.4-3.3-6.1-6.7-6.1
		c-2,0-3.6-1.6-3.6-3.6s1.6-3.6,3.6-3.6s3.6,1.6,3.6,3.6c0,0.9,0.7,1.6,1.6,1.6s1.6-0.7,1.6-1.6c0-3.2-2.2-5.9-5.4-6.6V9.6
		c0-0.9-0.7-1.6-1.6-1.6c-0.9,0-1.6,0.7-1.6,1.6v1.5c-3.3,0.9-5.4,4.1-4.9,7.4c0.4,3.3,3.3,5.9,6.7,5.8c2,0,3.5,1.6,3.6,3.5
		C47,29.8,45.5,31.5,43.6,31.5z"/>
	<path class="st0" d="M20.5,22.9c0,12.7,10.3,22.9,22.9,22.9s22.9-10.3,22.9-22.9S56.1,0,43.4,0C30.8,0,20.5,10.3,20.5,22.9z
		 M43.4,3.2c10.9,0,19.8,8.8,19.8,19.8s-8.8,19.8-19.8,19.8s-19.8-8.8-19.8-19.8C23.7,12,32.5,3.2,43.4,3.2z"/>
	<path class="st0" d="M74.1,54.4l-12.4,5.8c-1.7-3.2-5-5.2-8.6-5.3l-11.4-0.3c-1.8-0.1-3.6-0.5-5.2-1.3l-1.2-0.6c-6-3.1-13-3.1-19,0
		l0.1-2.6c0-0.9-0.7-1.6-1.5-1.6L2.4,48.1c-0.9,0-1.6,0.7-1.6,1.5L0,77.2c0,0.9,0.7,1.6,1.5,1.6l12.5,0.3h0c0.9,0,1.6-0.7,1.6-1.5
		l0-1.3l3.3-1.7c1.3-0.7,2.8-0.9,4.2-0.5l19.4,5.5c0,0,0.1,0,0.1,0c1.4,0.3,2.8,0.4,4.3,0.4c3,0,6-0.7,8.8-1.9
		c0.1,0,0.1-0.1,0.2-0.1l28.2-18.2c0.7-0.5,0.9-1.4,0.5-2.1C82.6,53.9,77.9,52.5,74.1,54.4z M3.2,75.7l0.7-24.3l9.4,0.3l-0.7,24.3
		L3.2,75.7z M54.3,75.3c-3.4,1.5-7.3,2-11,1.2L24,71c-2.2-0.6-4.5-0.4-6.5,0.7l-1.7,0.9l0.4-16.2c5.3-3.5,12-3.9,17.6-0.9l1.2,0.6
		c2,1,4.3,1.6,6.6,1.7l11.4,0.3c3.2,0.1,5.9,2.4,6.6,5.5l-17-0.5c-0.9,0-1.6,0.7-1.6,1.5c0,0.9,0.7,1.6,1.5,1.6l18.8,0.5h0
		c0.9,0,1.6-0.7,1.6-1.5c0-0.7,0-1.4-0.2-2l12.7-6c0,0,0,0,0,0c1.8-0.9,4-0.6,5.5,0.8L54.3,75.3z"/>
</g>
</svg>
