<?xml version="1.0" encoding="utf-8"?>
<!-- Generator: Adobe Illustrator 23.0.3, SVG Export Plug-In . SVG Version: 6.00 Build 0)  -->
<svg version="1.1" id="Layer_1" xmlns="http://www.w3.org/2000/svg" xmlns:xlink="http://www.w3.org/1999/xlink" x="0px" y="0px"
	 viewBox="0 0 82.4 80.2" style="enable-background:new 0 0 82.4 80.2;" xml:space="preserve">
<style type="text/css">
	.st0{fill:#FD5481;}
</style>
<g>
	<g>
		<path class="st0" d="M41.3,46.1l-2.2-2.2l-6.8,6.8L29.6,48l6.8-6.8L34.2,39l-1.7,1.7l-5.1,5.1l-1.1-1.1c-1.3-1.2-3.3-1.2-4.5,0
			l-1.6,1.6c-1.2,1.2-1.3,3.1-0.2,4.3L1.3,69.2c-1.3,1.2-1.3,3.2-0.1,4.4c0,0,0.1,0.1,0.1,0.1L6.6,79c1.2,1.3,3.2,1.3,4.4,0.1
			c0,0,0.1-0.1,0.1-0.1l18.6-18.6c1.3,1.1,3.2,1,4.3-0.2l1.6-1.6c1.3-1.2,1.3-3.2,0.1-4.4c0,0-0.1-0.1-0.1-0.1L34.6,53l5-5.1
			L41.3,46.1z M8.9,76.8l-5.4-5.4l18.7-18.7l2.7,2.7l2.6,2.7L8.9,76.8z M32,57.9l-2.1-2.1L29.1,55l-6.6-6.7l1.6-1.6l9.4,9.6L32,57.9
			z"/>
		<path class="st0" d="M79.9,6l-5.5-5.5c-0.5-0.5-1.3-0.6-1.9-0.2L61.8,6.6C61.3,6.9,61,7.4,61,7.9l-0.1,4.4L42.1,31.1l-2.7,2.7
			l2.2,2.2l21.9-21.9c0.3-0.3,0.4-0.7,0.5-1.1l0.1-4.2L73,3.5l3.8,3.8l-5.2,8.9l-4.3,0.2c-0.4,0-0.8,0.2-1.1,0.5L44.3,38.7l2.2,2.2
			l2.7-2.7L68,19.5l4.5-0.1c0.5,0,1-0.3,1.3-0.8l6.4-10.7C80.5,7.3,80.4,6.5,79.9,6z"/>
	</g>
	<path class="st0" d="M54.2,63.4c-1.3,7.8,4,15.3,11.8,16.6c4.6,0.8,9.4-0.8,12.7-4.1c0.6-0.6,0.5-1.6-0.1-2.2
		c-0.2-0.1-0.4-0.3-0.6-0.3L69.1,71c-0.9-0.3-1.6-0.9-1.9-1.8c-0.5-1.2-0.5-2.5-0.2-3.7c0.7-2.5,2.8-4.2,4.5-3.8l8.8,2.4
		c0.1,0,0.3,0,0.4,0c0.9,0,1.6-0.7,1.6-1.6c0-0.3-0.1-0.5-0.2-0.7c-0.7-2.3-1.9-4.3-3.6-6c-2.7-2.7-6.4-4.2-10.2-4.2
		c-2,0-3.9,0.4-5.7,1.2L28.6,18.5c1.4-7.8-3.9-15.3-11.7-16.6C13.2,1.3,9.5,2,6.4,4.1C5.7,4.6,5.5,5.6,6,6.3
		c0.1,0.2,0.3,0.4,0.5,0.5l7.1,4c1.6,0.9,1.9,3.6,0.6,5.8C13,18.8,10.5,20,9,19.1l-6.6-3.6c-0.8-0.4-1.7-0.1-2.1,0.6
		C0.1,16.4,0,16.7,0,17C0.5,25,7.3,31,15.3,30.5c1.6-0.1,3.2-0.5,4.8-1.1L54.2,63.4z M46.4,36.3 M72.4,58.6
		c-0.5-0.1-0.9-0.2-1.4-0.2c-3.4,0.3-6.3,2.8-6.9,6.2c-0.5,1.9-0.4,3.9,0.3,5.7c0.7,1.8,2.1,3.1,3.9,3.6l5.9,1.6
		c-5.3,3.2-12.2,1.4-15.4-3.9c-1.5-2.5-2-5.5-1.3-8.3c0.1-0.5,0-1.1-0.4-1.5L21.5,26.3c-0.5-0.5-1.3-0.6-1.9-0.2
		c-1.6,0.9-3.4,1.3-5.3,1.3c-4.7,0-9-3-10.6-7.4l3.6,2c0.8,0.5,1.8,0.7,2.7,0.7c2.9-0.2,5.5-1.9,6.8-4.5c2.1-3.8,1.3-8.4-1.8-10.1
		l-4.6-2.6c5.9-2.1,12.3,1,14.4,6.8c0.7,2,0.9,4.2,0.4,6.3c-0.1,0.5,0,1.1,0.4,1.5l35.5,35.5c0.5,0.5,1.2,0.6,1.8,0.3
		c1.6-0.9,3.4-1.3,5.3-1.3c4,0,7.7,2.1,9.7,5.5L72.4,58.6z"/>
</g>
</svg>
