<?xml version="1.0" encoding="utf-8"?>
<!-- Generator: Adobe Illustrator 23.0.3, SVG Export Plug-In . SVG Version: 6.00 Build 0)  -->
<svg version="1.1" id="Icon_Set" xmlns="http://www.w3.org/2000/svg" xmlns:xlink="http://www.w3.org/1999/xlink" x="0px" y="0px"
	 viewBox="0 0 69.2 80" style="enable-background:new 0 0 69.2 80;" xml:space="preserve">
<style type="text/css">
	.st0{fill:#FD5481;}
</style>
<g>
	<g>
		<g>
			<path class="st0" d="M49.7,51.4H16.7c-0.3,0-0.7,0.1-0.9,0.4L0,67.6l1.9,1.9L17.3,54h30.9c-0.3,1.6-1.1,4-3.8,4H29.9v2.6h14.5
				c5.2,0,6.6-5.2,6.6-7.9C51,52,50.4,51.4,49.7,51.4z"/>
		</g>
	</g>
	<g>
		<g>
			<path class="st0" d="M66.4,42.6c-0.5-0.5-1.3-0.5-1.9,0L52.7,54.4l1.9,1.9l10.8-10.8c1.8,2.4,1.4,5.7-0.8,7.6L49.1,68.5H22
				c-0.3,0-0.7,0.1-0.9,0.4l-9.2,9.2l1.9,1.9l8.8-8.8h27.1c0.3,0,0.7-0.1,0.9-0.4L66.4,55C71.3,50.1,68.6,44.7,66.4,42.6z"/>
		</g>
	</g>
	<g>
		<g>
			<path class="st0" d="M58.9,18.4h-4.7c-0.4-1.2-0.8-2.4-1.4-3.5l3.4-3.4c0.5-0.5,0.5-1.3,0-1.9l-5.6-5.6c-0.5-0.5-1.3-0.5-1.9,0
				l-3.4,3.4c-1.1-0.6-2.3-1.1-3.5-1.4V1.3c0-0.7-0.6-1.3-1.3-1.3h-7.9c-0.7,0-1.3,0.6-1.3,1.3v4.7c-1.2,0.4-2.4,0.8-3.5,1.4
				l-3.4-3.4c-0.5-0.5-1.3-0.5-1.9,0l-5.6,5.6c-0.5,0.5-0.5,1.3,0,1.9l3.4,3.4c-0.6,1.1-1.1,2.3-1.4,3.5h-4.7
				c-0.7,0-1.3,0.6-1.3,1.3v7.9c0,0.7,0.6,1.3,1.3,1.3h4.7c0.4,1.2,0.8,2.4,1.4,3.5l-3.4,3.4c-0.5,0.5-0.5,1.3,0,1.9l5.6,5.6
				c0.5,0.5,1.3,0.5,1.9,0l3.4-3.4c1.1,0.6,2.3,1.1,3.5,1.4v4.7c0,0.7,0.6,1.3,1.3,1.3h7.9c0.7,0,1.3-0.6,1.3-1.3v-4.7
				c1.2-0.4,2.4-0.8,3.5-1.4l3.4,3.4c0.2,0.2,0.6,0.4,0.9,0.4c0.3,0,0.7-0.1,0.9-0.4l5.6-5.6c0.5-0.5,0.5-1.3,0-1.9l-3.4-3.4
				c0.6-1.1,1.1-2.3,1.4-3.5h4.7c0.7,0,1.3-0.6,1.3-1.3v-7.9C60.2,19,59.6,18.4,58.9,18.4z M57.6,26.4h-4.4c-0.6,0-1.1,0.4-1.3,1
				c-0.4,1.6-1,3.2-1.9,4.6c-0.3,0.5-0.2,1.2,0.2,1.6l3.1,3.1l-3.7,3.7l-3.1-3.1c-0.4-0.4-1.1-0.5-1.6-0.2c-1.4,0.9-3,1.5-4.6,1.9
				c-0.6,0.1-1,0.7-1,1.3v4.4h-5.3v-4.4c0-0.6-0.4-1.1-1-1.3c-1.6-0.4-3.2-1-4.6-1.9c-0.5-0.3-1.2-0.2-1.6,0.2l-3.1,3.1l-3.7-3.7
				l3.1-3.1c0.4-0.4,0.5-1.1,0.2-1.6c-0.9-1.4-1.5-3-1.9-4.6c-0.1-0.6-0.7-1-1.3-1h-4.4v-5.3h4.4c0.6,0,1.1-0.4,1.3-1
				c0.4-1.6,1-3.2,1.9-4.6c0.3-0.5,0.2-1.2-0.2-1.6l-3.1-3.1l3.7-3.7l3.1,3.1c0.4,0.4,1.1,0.5,1.6,0.2c1.4-0.9,3-1.5,4.6-1.9
				c0.6-0.1,1-0.7,1-1.3V2.6h5.3v4.4c0,0.6,0.4,1.1,1,1.3c1.6,0.4,3.2,1,4.6,1.9c0.5,0.3,1.2,0.2,1.6-0.2l3.1-3.1l3.7,3.7l-3.1,3.1
				c-0.4,0.4-0.5,1.1-0.2,1.6c0.9,1.4,1.5,3,1.9,4.6c0.1,0.6,0.7,1,1.3,1h4.4V26.4L57.6,26.4z"/>
		</g>
	</g>
	<g>
		<g>
			<path class="st0" d="M36.5,15.8c-4.4,0-7.9,3.5-7.9,7.9s3.5,7.9,7.9,7.9c4.4,0,7.9-3.5,7.9-7.9C44.4,19.4,40.9,15.8,36.5,15.8z
				 M36.5,29c-2.9,0-5.3-2.4-5.3-5.3s2.4-5.3,5.3-5.3c2.9,0,5.3,2.4,5.3,5.3S39.4,29,36.5,29z"/>
		</g>
	</g>
</g>
</svg>
