<?xml version="1.0" encoding="utf-8"?>
<!-- Generator: Adobe Illustrator 23.0.3, SVG Export Plug-In . SVG Version: 6.00 Build 0)  -->
<svg version="1.1" id="Icon_Set" xmlns="http://www.w3.org/2000/svg" xmlns:xlink="http://www.w3.org/1999/xlink" x="0px" y="0px"
	 viewBox="0 0 51.8 80" style="enable-background:new 0 0 51.8 80;" xml:space="preserve">
<style type="text/css">
	.st0{fill:#FD5481;}
</style>
<g>
	<path class="st0" d="M16.7,37.2c0.6-0.3,0.8-1,0.4-1.6c-1.4-2.4-2.3-4.7-2.6-6.5c-0.2-1.6-0.1-4.2,1.1-6c0.6-0.9,1.5-1.8,2.4-2.2
		c0.5-0.2,1.2-0.3,1.4-0.3c0.7,0.4,1.4,2.4,1.6,3.2c0,0,0,0,0,0c1,2.8,0.7,3.2-0.1,3.8c-0.4,0.2-0.8,0.6-1,1.1
		c-0.5,1.4,0,3.8,1.3,6.1c0.3,0.6,0.7,1.1,1.1,1.7c0.4,0.6,0.8,1.1,1.3,1.6c1.7,1.9,3.9,3.2,5.4,3.1c0.6,0,1-0.2,1.4-0.5
		c0.9-0.6,1.3-0.7,3.7,1.1c0,0,0,0,0,0c0.6,0.4,2.4,1.8,2.5,2.5c0,0.2-0.4,0.9-0.7,1.2c-0.7,0.7-1.8,1.3-2.9,1.6
		c-2.1,0.5-4.6-0.1-6.1-0.9c-2.1-1-4.7-3.3-7-6.3c-0.4-0.5-1.1-0.6-1.7-0.2c-0.5,0.4-0.6,1.1-0.2,1.7c2.6,3.3,5.3,5.7,7.8,6.9
		c1.4,0.7,3.4,1.3,5.5,1.3c0.7,0,1.5-0.1,2.2-0.3c1.5-0.4,3-1.2,4-2.3c0,0,1.5-1.6,1.3-3.1c-0.2-1.6-1.8-2.9-3.4-4.1
		c-2.5-2-4.2-2.7-6.6-1.2c0,0-0.1,0-0.1,0.1c-0.5,0-2-0.7-3.5-2.4c-0.4-0.4-0.8-0.9-1.1-1.4c-0.4-0.5-0.7-1-1-1.5
		c-1.1-1.9-1.3-3.5-1.2-4c0,0,0.1,0,0.1-0.1c2.2-1.7,2.1-3.6,1-6.6c-0.7-1.9-1.4-3.9-2.9-4.5c-1.3-0.6-3.4,0.3-3.4,0.3
		c-1.3,0.6-2.6,1.7-3.4,3.1c-1.5,2.4-1.7,5.5-1.4,7.6c0.3,2.1,1.3,4.7,2.9,7.4C15.4,37.3,16.1,37.5,16.7,37.2z"/>
	<path class="st0" d="M14.1,57.2c-0.6,0-1.2,0.5-1.2,1.2c0,0.6,0.5,1.2,1.2,1.2h23.1c0.6,0,1.2-0.5,1.2-1.2c0-0.6-0.5-1.2-1.2-1.2
		H14.1z"/>
	<path class="st0" d="M38.4,64.7c0-0.6-0.5-1.2-1.2-1.2H14.1c-0.6,0-1.2,0.5-1.2,1.2c0,0.6,0.5,1.2,1.2,1.2h23.1
		C37.9,65.9,38.4,65.4,38.4,64.7z"/>
	<path class="st0" d="M35.3,32.4c0.2,0.1,0.3,0.1,0.5,0.1c0.4,0,0.9-0.2,1.1-0.7c0.4-0.9,0.6-1.9,0.5-2.9c-0.1-1-0.4-2-1-2.8
		c-0.6-0.8-1.4-1.5-2.3-1.9c-0.9-0.4-1.9-0.6-3-0.5C30.5,23.8,30,24.4,30,25c0.1,0.6,0.6,1.1,1.3,1.1c0.6-0.1,1.2,0,1.8,0.3
		c0.5,0.2,1,0.6,1.4,1.1c0.3,0.5,0.5,1.1,0.6,1.6c0,0.6-0.1,1.2-0.3,1.7C34.4,31.5,34.7,32.2,35.3,32.4z"/>
	<path class="st0" d="M30.6,20.2c0.1,0,0.1,0,0.2,0c1.4,0,2.7,0.4,4,0.9c1.6,0.7,3,1.9,4,3.4c1,1.4,1.6,3.1,1.8,4.9
		c0.1,1.4-0.1,2.9-0.6,4.2c-0.2,0.6,0.1,1.3,0.7,1.5c0.1,0,0.3,0.1,0.4,0.1c0.5,0,0.9-0.3,1.1-0.8c0.6-1.6,0.8-3.4,0.7-5.2
		c-0.2-2.1-0.9-4.2-2.2-6c-1.3-1.8-3-3.2-4.9-4.1c-1.6-0.7-3.3-1.1-5.1-1.1c0,0,0,0,0,0c-0.6,0-1.2,0.5-1.2,1.2v0
		C29.5,19.7,30,20.2,30.6,20.2z"/>
	<path class="st0" d="M45.9,0h-40C2.6,0,0,2.6,0,5.8v68.3C0,77.4,2.6,80,5.9,80h40c3.2,0,5.9-2.6,5.9-5.8V5.8
		C51.8,2.6,49.1,0,45.9,0z M15.5,2.4h20.8v2c0,0.5-0.4,0.8-0.9,0.8H16.3c-0.5,0-0.9-0.4-0.9-0.8V2.4z M45.9,77.6h-40
		c-1.7,0-3.2-1.3-3.5-2.9h20.8c0.6,0,1.2-0.5,1.2-1.2s-0.5-1.2-1.2-1.2H2.4V5.8c0-1.9,1.6-3.5,3.5-3.5h7.2v2c0,1.8,1.4,3.2,3.2,3.2
		h19.1c1.8,0,3.2-1.4,3.2-3.2v-2h7.2c1.9,0,3.5,1.6,3.5,3.5v66.6H28.6c-0.6,0-1.2,0.5-1.2,1.2s0.5,1.2,1.2,1.2h20.7
		C49.1,76.4,47.6,77.6,45.9,77.6z"/>
</g>
</svg>
