<?xml version="1.0" encoding="utf-8"?>
<!-- Generator: Adobe Illustrator 23.0.3, SVG Export Plug-In . SVG Version: 6.00 Build 0)  -->
<svg version="1.1" id="Layer_1" xmlns="http://www.w3.org/2000/svg" xmlns:xlink="http://www.w3.org/1999/xlink" x="0px" y="0px"
	 viewBox="0 0 95.3 80" style="enable-background:new 0 0 95.3 80;" xml:space="preserve">
<style type="text/css">
	.st0{fill:#FD5481;}
</style>
<g>
	<g>
		<g>
			<path class="st0" d="M79.2,0c-7.3,0-13,5.8-13,13.1s5.8,13,13,13c7.2,0,13.1-5.8,13.1-13.1S86.5,0,79.2,0z M79.2,23.3
				c-5.7,0-10.2-4.6-10.2-10.2S73.6,2.9,79.2,2.9c5.7,0,10.2,4.6,10.2,10.2S84.9,23.3,79.2,23.3z"/>
		</g>
	</g>
	<g>
		<g>
			<path class="st0" d="M83.3,15.1c-0.1-0.3-0.1-0.4-0.3-0.7c-0.1-0.2-0.2-0.4-0.4-0.6c-0.2-0.2-0.3-0.4-0.4-0.5
				c-0.2-0.2-0.4-0.4-0.6-0.4c-0.2-0.2-0.4-0.3-0.6-0.4c-0.3-0.1-0.4-0.3-0.7-0.4c-0.3-0.1-0.5-0.2-0.7-0.3c-0.1,0-0.3-0.1-0.4-0.2
				c-0.1-0.1-0.3-0.1-0.4-0.2c-0.1-0.1-0.3-0.1-0.4-0.2c-0.1-0.1-0.2-0.2-0.3-0.3c-0.1-0.1-0.2-0.2-0.2-0.4
				c-0.1-0.1-0.1-0.3-0.1-0.4c0-0.2,0-0.3,0-0.4c0-0.1,0.1-0.3,0.1-0.4c0.1-0.1,0.1-0.3,0.2-0.4c0.1-0.1,0.2-0.2,0.3-0.3
				c0.1-0.1,0.3-0.2,0.4-0.2c0.2-0.1,0.3-0.1,0.4-0.1c0.1,0,0.2,0,0.3,0c0.1,0,0.2,0,0.3,0c0.2,0,0.3,0,0.4,0.1
				c0.2,0,0.4,0.1,0.4,0.1c0.1,0,0.3,0.1,0.4,0.1c0.2,0,0.3,0.1,0.4,0.1L82,9.1l0.1-0.5l0.2-1.4V6.7l-0.4-0.1
				c-0.1,0-0.3-0.1-0.4-0.1c-0.1,0-0.2-0.1-0.4-0.1c-0.1,0-0.3-0.1-0.4-0.1s-0.3-0.1-0.4-0.1h-0.1V5V4.6h-0.4h-1.3H78V5v1.3h-0.1
				c-0.3,0.1-0.5,0.2-0.8,0.4c-0.3,0.1-0.4,0.3-0.6,0.4c-0.2,0.2-0.4,0.4-0.5,0.6c-0.2,0.2-0.3,0.4-0.4,0.7
				c-0.1,0.3-0.2,0.5-0.3,0.8c-0.1,0.3-0.1,0.6-0.1,0.9c0,0.3,0,0.4,0.1,0.7c0.1,0.3,0.1,0.4,0.3,0.7c0.1,0.2,0.3,0.4,0.4,0.6
				c0.2,0.2,0.3,0.4,0.4,0.5c0.2,0.2,0.4,0.4,0.6,0.4c0.2,0.2,0.4,0.3,0.6,0.4c0.3,0.1,0.5,0.3,0.7,0.4c0.3,0.1,0.5,0.2,0.7,0.3
				c0.1,0,0.3,0.1,0.4,0.2c0.1,0.1,0.3,0.1,0.4,0.2c0.1,0.1,0.2,0.2,0.3,0.2c0.1,0.1,0.2,0.2,0.3,0.3c0.1,0.1,0.1,0.2,0.2,0.4
				c0,0.1,0.1,0.3,0.1,0.4s0,0.3,0,0.4c0,0.1-0.1,0.3-0.2,0.4c-0.1,0.1-0.2,0.2-0.3,0.3c-0.1,0.1-0.2,0.2-0.4,0.3
				c-0.1,0.1-0.3,0.1-0.4,0.2c-0.1,0-0.3,0.1-0.4,0.1c-0.1,0-0.2,0-0.4,0c-0.1,0-0.3,0-0.4,0c-0.2,0-0.4,0-0.4,0
				c-0.2,0-0.4-0.1-0.4-0.1c-0.2,0-0.4-0.1-0.5-0.2c-0.2-0.1-0.4-0.1-0.5-0.2c-0.1,0-0.2-0.1-0.3-0.1c-0.1,0-0.2-0.1-0.3-0.1
				l-0.5-0.3l-0.1,0.6L75,18.9v0.3l0.3,0.1c0.4-0.1,0.5,0,0.8,0.1c0.2,0.1,0.4,0.2,0.6,0.2c0.2,0.1,0.4,0.1,0.7,0.2
				c0.3,0.1,0.4,0.1,0.7,0.1h0.2v1.3v0.4h0.4H80h0.4v-0.4v-1.4h0.1c0.3-0.1,0.5-0.2,0.8-0.4c0.3-0.1,0.4-0.3,0.7-0.4
				c0.2-0.2,0.4-0.4,0.5-0.6c0.2-0.2,0.3-0.4,0.4-0.7c0.1-0.3,0.2-0.5,0.3-0.8c0.1-0.3,0.1-0.5,0.1-0.9
				C83.4,15.6,83.4,15.4,83.3,15.1z"/>
		</g>
	</g>
	<g>
		<g>
			<path class="st0" d="M72.9,27.9c-0.4-0.6-1.4-0.7-2.1-0.3L56.3,39.2l-18.8-7.8c-0.4-0.2-1-0.1-1.3,0.2L16,45.9
				c-0.6,0.4-0.8,1.3-0.4,2c0.3,0.4,0.7,0.6,1.2,0.6c0.3,0,0.5-0.1,0.8-0.3l19.5-13.9L56,42.2c0.4,0.2,1.1,0.1,1.4-0.2l15.2-12
				C73.3,29.5,73.3,28.5,72.9,27.9z"/>
		</g>
	</g>
	<g>
		<path class="st0" d="M93.9,77.1h-6.7V35.5c0-0.8-0.6-1.4-1.4-1.4H72.6c-0.8,0-1.4,0.6-1.4,1.4v41.6h-4.9V49.9
			c0-0.8-0.6-1.4-1.4-1.4H51.6c-0.8,0-1.4,0.6-1.4,1.4v27.2h-4.9V47.7c0-0.8-0.6-1.4-1.4-1.4H30.7c-0.8,0-1.4,0.6-1.4,1.4v29.4h-4.9
			V56.2c0-0.8-0.6-1.4-1.4-1.4H9.6c-0.8,0-1.4,0.6-1.4,1.4v20.9H1.4c-0.8,0-1.4,0.6-1.4,1.4S0.6,80,1.4,80h8.1h13.2h7.9h13.2h7.7
			h13.2h7.7h13.2h8.1c0.8,0,1.4-0.6,1.4-1.4C95.4,77.8,94.7,77.1,93.9,77.1z M21.4,77.1H11.1V57.6h10.3V77.1z M42.4,77.1H32.1v-28
			h10.3V77.1z M63.4,77.1H53V51.3h10.3V77.1z M84.4,77.1H74.1V36.9h10.3V77.1z"/>
	</g>
</g>
</svg>
