<?xml version="1.0" encoding="utf-8"?>
<!-- Generator: Adobe Illustrator 23.0.3, SVG Export Plug-In . SVG Version: 6.00 Build 0)  -->
<svg version="1.1" id="Layer_1" xmlns="http://www.w3.org/2000/svg" xmlns:xlink="http://www.w3.org/1999/xlink" x="0px" y="0px"
	 viewBox="0 0 96.9 80" style="enable-background:new 0 0 96.9 80;" xml:space="preserve">
<style type="text/css">
	.st0{fill:#FD5481;}
</style>
<g>
	<g>
		<path class="st0" d="M90.8,0h-9.1c-0.8,0-1.4,0.6-1.4,1.4c0,0.8,0.6,1.4,1.4,1.4h9.1c1.8,0,3.2,1.5,3.2,3.2V28
			c0,1.8-1.5,3.2-3.2,3.2H57.2c-0.4,0-0.7,0.2-1,0.4L47.9,40v-7.3c0-0.8-0.6-1.4-1.4-1.4h-2.7c-1.8,0-3.2-1.5-3.2-3.2V6.1
			c0-1.8,1.5-3.2,3.2-3.2h33.1c0.8,0,1.4-0.6,1.4-1.4c0-0.8-0.6-1.4-1.4-1.4H43.8c-3.4,0-6.1,2.7-6.1,6.1V28c0,3.4,2.7,6.1,6.1,6.1
			h1.3v9.3c0,0.6,0.3,1.1,0.9,1.3c0.2,0.1,0.4,0.1,0.5,0.1c0.4,0,0.7-0.1,1-0.4l10.3-10.3h33c3.4,0,6.1-2.7,6.1-6.1V6.1
			C96.9,2.7,94.2,0,90.8,0L90.8,0z"/>
	</g>
	<g>
		<path class="st0" d="M13.3,5.4c-1.1,0-2.1,0.4-2.8,1.2l-3.8,3.8c-5.8,5.8-7.9,14.2-6,23.9C2.6,43.8,8.5,54,17.2,62.8
			c8.8,8.8,18.9,14.7,28.6,16.6c2.3,0.5,4.5,0.7,6.7,0.7c0,0,0,0,0,0c6.9,0,12.8-2.3,17.2-6.7l3.8-3.8c0.7-0.7,1.2-1.7,1.2-2.8
			c0-1.1-0.4-2.1-1.2-2.8L59.4,49.9c-0.7-0.7-1.7-1.2-2.8-1.2s-2.1,0.4-2.8,1.2L45,58.7c-3.5-1.8-6.5-3.6-9.9-6.4
			c-0.3-0.2-0.6-0.3-0.9-0.3c-0.4,0-0.8,0.2-1.1,0.5c-0.5,0.6-0.4,1.5,0.2,2c3.9,3.3,7.3,5.2,11.4,7.3c0.2,0.1,0.4,0.2,0.7,0.2
			c0.4,0,0.7-0.1,1-0.4l4.7-4.7l15.6,15.6c-3.7,3.2-8.6,4.8-14.1,4.8c-2,0-4-0.2-6.1-0.6c-9.1-1.8-18.7-7.4-27.1-15.8
			c-8.4-8.4-14-18-15.8-27.1c-1.6-8.1-0.1-15.2,4.2-20.2L23.3,29l-4.7,4.7c-0.4,0.4-0.5,1.1-0.3,1.7c2.9,5.5,5.2,9.6,10.9,15.4
			c0.3,0.3,0.6,0.4,1,0.4c0.4,0,0.7-0.1,1-0.4c0.6-0.6,0.6-1.5,0-2c-5.2-5.2-7.4-8.8-9.9-13.7l8.8-8.8c0.7-0.7,1.2-1.7,1.2-2.8
			s-0.4-2.1-1.2-2.8L16,6.5C15.3,5.8,14.3,5.4,13.3,5.4L13.3,5.4z M25.3,26.9L9.7,11.3l2.8-2.8c0.2-0.2,0.5-0.3,0.8-0.3
			c0.3,0,0.6,0.1,0.8,0.3l14.1,14.1c0.2,0.2,0.3,0.5,0.3,0.8s-0.1,0.6-0.3,0.8L25.3,26.9L25.3,26.9z M68.7,70.3L53.1,54.7l2.8-2.8
			c0.2-0.2,0.5-0.3,0.8-0.3c0.3,0,0.6,0.1,0.8,0.3L71.4,66c0.4,0.4,0.4,1.1,0,1.5L68.7,70.3L68.7,70.3z"/>
	</g>
	<g>
		<g>
			<path class="st0" d="M73,8.3h-2.8l-0.7,4.5h-2.4l0.7-4.5h-2.8l-0.7,4.5h-2.7v2.9h2.3l-0.4,2.7h-2.7v2.9h2.2l-0.7,4.6h2.8l0.7-4.6
				h2.3l-0.7,4.6h2.8l0.7-4.6h2.7v-2.9h-2.2l0.4-2.7h2.6v-2.9h-2.1L73,8.3L73,8.3z M69.1,15.7l-0.4,2.7h-2.3l0.4-2.7H69.1L69.1,15.7
				z"/>
		</g>
	</g>
</g>
</svg>
