<?xml version="1.0" encoding="utf-8"?>
<!-- Generator: Adobe Illustrator 23.0.3, SVG Export Plug-In . SVG Version: 6.00 Build 0)  -->
<svg version="1.1" id="Layer_1" xmlns="http://www.w3.org/2000/svg" xmlns:xlink="http://www.w3.org/1999/xlink" x="0px" y="0px"
	 viewBox="0 0 464.2 433.5" style="enable-background:new 0 0 464.2 433.5;" xml:space="preserve">
<style type="text/css">
	.st0{fill:#0A2E63;}
	.st1{fill:#D3008D;}
	.st2{fill:#FF2C9C;}
	.st3{fill:#FFFFFF;}
	.st4{fill:#5793CE;}
	.st5{fill:#D4ECFF;}
	.st6{opacity:0.5;fill:#173D7A;}
	.st7{fill:#173D7A;}
	.st8{fill:#396CAA;}
	.st9{fill:#274F89;}
	.st10{fill:#092856;}
	.st11{fill:#FFC2B0;}
	.st12{fill:#EA9C92;}
	.st13{fill:#983BE9;}
	.st14{fill:#D29FFF;}
	.st15{fill:#B45EF4;}
	.st16{fill:#D8892B;}
</style>
<g>
	<path class="st0" d="M367.4,17.8C343.2,6.4,315.9-3.8,290,3.3c-10.5,2.9-20.1,8.4-30.7,11.3c-12.4,3.4-25.6,2.8-38.3,1
		c-29.9-4.2-58.9-15-89.1-15.5c-30.2-0.5-63.9,13-74,41.5c-4.6,12.9-3.7,27.1-3.9,40.8c-0.6,34.5-8.8,68.9-24,100
		c-13.5,27.6-33,57.7-22.2,86.5c12.3,32.9,57.1,42.5,73.6,73.5c9.7,18.1,7.8,39.8,6,60.2c-0.3,3.9-0.7,7.9,0.6,11.6
		c2.2,6.5,8.6,10.5,15,13.1c24.8,10.2,53.3,6.5,79-1.2c13-3.9,25.9-8.8,36.9-16.7c11-7.9,19.9-18.5,31.6-25.3
		c21.4-12.3,47.8-9.6,72.5-8.3c21.8,1.2,43.7,0.9,65.4-0.7c14.4-1.1,29.1-2.8,42.3-8.9c13.1-6.1,24.7-17.2,27.9-31.3
		c4-17.6-5.6-35.9-18.9-48.2c-7.1-6.5-15.2-11.9-22.1-18.7c-23.2-22.8-29-57.9-28.6-90.3c0.3-22.8,3.6-46.8,17.8-64.6
		c6.8-8.6,15.9-15.2,22.3-24.1C463.9,40.2,399.2,32.8,367.4,17.8"/>
	<g>
		<g>
			<g>
				<path class="st1" d="M186.4,98.8l-46.7-27c-0.9-0.5-1.9-0.6-2.7-0.2c0,0,0,0,0,0l-5.6,2.6c0,0,2.1,0.7,3.3,1.2l-6.7,34
					c-0.5,2.8,0.7,6,2.8,7.2l44.7,25.8l-0.8,4l5.6-2.6l0,0c1-0.5,1.7-1.5,2-3l6.9-34.7C189.7,103.2,188.5,100,186.4,98.8z"/>
				<path class="st2" d="M171.9,146.2l-46.7-27c-2.1-1.2-3.3-4.4-2.8-7.2l6.9-34.7c0.5-2.8,2.7-4,4.8-2.8l46.7,27
					c2.1,1.2,3.3,4.4,2.8,7.2l-6.9,34.7C176.1,146.1,173.9,147.4,171.9,146.2z"/>
				<path class="st3" d="M181.8,101l-46.7-27c-1.1-0.6-2.2-0.6-3.1,0c0.6-0.1,1.3,0,2,0.4l46.7,27c2.1,1.2,3.3,4.4,2.8,7.2
					l-6.9,34.7c-0.3,1.3-0.9,2.3-1.7,2.8c1.3-0.2,2.4-1.4,2.7-3.2l6.9-34.7C185.1,105.4,183.9,102.2,181.8,101z"/>
			</g>
			<g>
				<path class="st3" d="M145,107.2c-0.4,2-2.1,2.8-3.9,1.8c-1.7-1-2.8-3.4-2.4-5.5c0.4-2,2.1-2.8,3.9-1.8
					C144.3,102.8,145.4,105.2,145,107.2z"/>
				<path class="st3" d="M154.6,112.7c-0.4,2-2.1,2.8-3.9,1.8s-2.8-3.4-2.4-5.5c0.4-2,2.1-2.8,3.9-1.8
					C153.9,108.3,155,110.7,154.6,112.7z"/>
				<path class="st3" d="M164.1,118.3c-0.4,2-2.1,2.8-3.9,1.8c-1.7-1-2.8-3.4-2.4-5.5c0.4-2,2.1-2.8,3.9-1.8
					S164.5,116.2,164.1,118.3z"/>
			</g>
		</g>
		<g>
			<g>
				<path class="st4" d="M165.4,55.1l-46.7-27c-0.9-0.5-1.9-0.6-2.7-0.2c0,0,0,0,0,0l-5.6,2.6c0,0,2.1,0.7,3.3,1.2l-6.7,34
					c-0.5,2.8,0.7,6,2.8,7.2l44.7,25.8l-0.8,4l5.6-2.6l0,0c1-0.5,1.7-1.5,2-3l6.9-34.7C168.7,59.5,167.5,56.3,165.4,55.1z"/>
				<path class="st5" d="M150.9,102.5l-46.7-27c-2.1-1.2-3.3-4.4-2.8-7.2l6.9-34.7c0.5-2.8,2.7-4,4.8-2.8l46.7,27
					c2.1,1.2,3.3,4.4,2.8,7.2l-6.9,34.7C155.1,102.4,153,103.7,150.9,102.5z"/>
				<path class="st3" d="M160.8,57.3l-46.7-27c-1.1-0.6-2.2-0.6-3.1,0c0.6-0.1,1.3,0,2,0.4l46.7,27c2.1,1.2,3.3,4.4,2.8,7.2
					l-6.9,34.7c-0.3,1.3-0.9,2.3-1.7,2.8c1.3-0.2,2.4-1.4,2.7-3.2l6.9-34.7C164.1,61.8,162.9,58.5,160.8,57.3z"/>
			</g>
			<g>
				<path class="st3" d="M124,63.6c-0.4,2-2.1,2.8-3.9,1.8c-1.7-1-2.8-3.4-2.4-5.5c0.4-2,2.1-2.8,3.9-1.8
					C123.4,59.1,124.4,61.6,124,63.6z"/>
				<path class="st3" d="M133.6,69.1c-0.4,2-2.1,2.8-3.9,1.8c-1.7-1-2.8-3.4-2.4-5.5c0.4-2,2.1-2.8,3.9-1.8
					C132.9,64.6,134,67.1,133.6,69.1z"/>
				<path class="st3" d="M143.1,74.6c-0.4,2-2.1,2.8-3.9,1.8c-1.7-1-2.8-3.4-2.4-5.5c0.4-2,2.1-2.8,3.9-1.8
					C142.5,70.1,143.5,72.6,143.1,74.6z"/>
			</g>
		</g>
		<path class="st6" d="M260.4,378.6L83.9,276.6c-5-2.9-4.4-7.9,1.4-11.2L205.5,196c5.8-3.3,14.5-3.7,19.5-0.8l176.6,101.9
			c5,2.9,4.4,7.9-1.4,11.2l-120.2,69.4C274.1,381.1,265.4,381.4,260.4,378.6z"/>
		<path class="st7" d="M442.9,116.5L266.3,14.6c-2.1-1.2-4.1-1.4-6-0.7l0,0L260,14c0,0-0.1,0-0.1,0l-6.4,2.4l5.7,2.8
			c0,0.1-0.1,0.2-0.1,0.3l-28.8,130.9c-1.4,6.6,1.4,14.2,6.4,17.1L409.2,267l-0.6,7.3l7-2.7c2.3-1.1,4.2-3.6,5-7.1l28.8-130.9
			C450.8,127.1,447.9,119.4,442.9,116.5z"/>
		<path class="st8" d="M442.9,116.5L266.3,14.6c-2.1-1.2-4.1-1.4-6-0.7l0,0L260,14c0,0-0.1,0-0.1,0l-6.4,2.4l5.7,2.8
			c0,0.1-0.1,0.2-0.1,0.3l-19,86.3l86.4,67.3l121.8-49.6C447.3,120.5,445.3,118,442.9,116.5z"/>
		<path class="st9" d="M436.2,136.7l13.4-5.7c0.2-5.2-1.9-10.6-5.4-13.5l-21.3,8.9L436.2,136.7z"/>
		<path class="st5" d="M402.5,273.6L225.9,171.7c-5-2.9-7.9-10.5-6.4-17.1l28.8-130.9c1.4-6.6,6.7-9.5,11.6-6.6L436.4,119
			c5,2.9,7.9,10.5,6.4,17.1L414.1,267C412.7,273.6,407.5,276.5,402.5,273.6z"/>
		<path class="st3" d="M398.6,263.9l-166-95.8c-4.6-2.6-7.2-9.6-5.9-15.6L253,32.7c1.3-6,6.1-8.7,10.7-6.1l166,95.8
			c4.6,2.6,7.2,9.6,5.9,15.6l-26.3,119.8C408,263.8,403.2,266.5,398.6,263.9z"/>
		<path class="st3" d="M398.6,263.9l-166-95.8c-4.6-2.6-7.2-9.6-5.9-15.6L253,32.7c1.3-6,6.1-8.7,10.7-6.1l166,95.8
			c4.6,2.6,7.2,9.6,5.9,15.6l-26.3,119.8C408,263.8,403.2,266.5,398.6,263.9z"/>
		<path class="st7" d="M404.9,278.1l-24.1-3.2L225,185c-5-2.9-13.7-2.5-19.5,0.8L95.1,249.5l-14.6-1.9v8.3l0,0
			c-0.1,1.9,1,3.8,3.4,5.1l176.6,101.9c5,2.9,13.7,2.5,19.5-0.8l120.2-69.4c3.2-1.9,4.9-4.3,4.8-6.6l0,0V278.1z"/>
		<path class="st8" d="M287.8,221.2l-11.1-6.4H155.1l-60,34.6l-14.6-1.9v8.3l0,0c-0.1,1.9,1,3.8,3.4,5.1l176.6,101.9
			c2.6,1.5,6.3,2.1,10.1,1.9L287.8,221.2z"/>
		<path class="st4" d="M87,248.4l-6.5-0.9v8.3l0,0c-0.1,1.9,1,3.8,3.4,5.1l3.1,1.8V248.4z"/>
		<path class="st9" d="M262.2,363.7c4.7,1.8,11.5,1.4,16.6-1v-18.5h-16.6V363.7z"/>
		<path class="st5" d="M260.4,354.6L83.9,252.7c-5-2.9-4.4-7.9,1.4-11.2L205.5,172c5.8-3.3,14.5-3.7,19.5-0.8l176.6,101.9
			c5,2.9,4.4,7.9-1.4,11.2l-120.2,69.4C274.1,357.1,265.4,357.5,260.4,354.6z"/>
		<path class="st3" d="M400.1,281.4l-120.2,69.4c-5.8,3.3-14.5,3.7-19.5,0.8L83.9,249.6c-1.6-0.9-2.7-2.1-3.1-3.4
			c-0.8,2.4,0.2,4.8,3.1,6.4l176.6,101.9c5,2.9,13.7,2.5,19.5-0.8l120.2-69.4c3.9-2.2,5.4-5.2,4.5-7.9
			C404.1,278.3,402.6,280,400.1,281.4z"/>
		<g>
			<path class="st7" d="M159,218.9l-8-4.6c-0.6-0.4-0.6-1,0.2-1.4l9.4-5.4c0.7-0.4,1.9-0.5,2.5-0.1l8,4.6c0.6,0.4,0.6,1-0.2,1.4
				l-9.4,5.4C160.7,219.2,159.6,219.3,159,218.9z"/>
			<path class="st7" d="M171.3,226l-8-4.6c-0.6-0.4-0.6-1,0.2-1.4l9.4-5.4c0.7-0.4,1.9-0.5,2.5-0.1l8,4.6c0.6,0.4,0.6,1-0.2,1.4
				l-9.4,5.4C173.1,226.4,171.9,226.4,171.3,226z"/>
			<path class="st7" d="M183.6,233.2l-8-4.6c-0.6-0.4-0.6-1,0.2-1.4l9.4-5.4c0.7-0.4,1.9-0.5,2.5-0.1l8,4.6c0.6,0.4,0.6,1-0.2,1.4
				l-9.4,5.4C185.4,233.5,184.3,233.5,183.6,233.2z"/>
			<path class="st7" d="M200.7,227.3l-8-4.6c-0.6-0.4-0.6-1,0.2-1.4l7.9-4.6c0.7-0.4,1.9-0.5,2.5-0.1l8,4.6c0.6,0.4,0.6,1-0.2,1.4
				l-7.9,4.6C202.5,227.6,201.3,227.7,200.7,227.3z"/>
			<path class="st7" d="M213,234.4l-8-4.6c-0.6-0.4-0.6-1,0.2-1.4l7.9-4.6c0.7-0.4,1.9-0.5,2.5-0.1l8,4.6c0.6,0.4,0.6,1-0.2,1.4
				l-7.9,4.6C214.8,234.7,213.7,234.8,213,234.4z"/>
			<path class="st7" d="M225.4,241.5l-8-4.6c-0.6-0.4-0.6-1,0.2-1.4l7.9-4.6c0.7-0.4,1.9-0.5,2.5-0.1l8,4.6c0.6,0.4,0.6,1-0.2,1.4
				l-7.9,4.6C227.1,241.9,226,241.9,225.4,241.5z"/>
			<path class="st7" d="M237.7,248.7l-8-4.6c-0.6-0.4-0.6-1,0.2-1.4l7.9-4.6c0.7-0.4,1.9-0.5,2.5-0.1l8,4.6c0.6,0.4,0.6,1-0.2,1.4
				l-7.9,4.6C239.5,249,238.4,249,237.7,248.7z"/>
			<path class="st7" d="M250,255.8l-8-4.6c-0.6-0.4-0.6-1,0.2-1.4l7.9-4.6c0.7-0.4,1.9-0.5,2.5-0.1l8,4.6c0.6,0.4,0.6,1-0.2,1.4
				l-7.9,4.6C251.8,256.1,250.7,256.1,250,255.8z"/>
			<path class="st7" d="M262.4,262.9l-8-4.6c-0.6-0.4-0.6-1,0.2-1.4l7.9-4.6c0.7-0.4,1.9-0.5,2.5-0.1l8,4.6c0.6,0.4,0.6,1-0.2,1.4
				l-7.9,4.6C264.1,263.2,263,263.3,262.4,262.9z"/>
			<path class="st7" d="M274.7,270l-8-4.6c-0.6-0.4-0.6-1,0.2-1.4l7.9-4.6c0.7-0.4,1.9-0.5,2.5-0.1l8,4.6c0.6,0.4,0.6,1-0.2,1.4
				l-7.9,4.6C276.5,270.3,275.4,270.4,274.7,270z"/>
			<path class="st7" d="M287.1,277.1l-8-4.6c-0.6-0.4-0.6-1,0.2-1.4l7.9-4.6c0.7-0.4,1.9-0.5,2.5-0.1l8,4.6c0.6,0.4,0.6,1-0.2,1.4
				l-7.9,4.6C288.8,277.5,287.7,277.5,287.1,277.1z"/>
			<path class="st7" d="M299.4,284.3l-8-4.6c-0.6-0.4-0.6-1,0.2-1.4l7.9-4.6c0.7-0.4,1.9-0.5,2.5-0.1l8,4.6c0.6,0.4,0.6,1-0.2,1.4
				l-7.9,4.6C301.2,284.6,300,284.6,299.4,284.3z"/>
			<path class="st7" d="M311.7,291.4l-8-4.6c-0.6-0.4-0.6-1,0.2-1.4l7.9-4.6c0.7-0.4,1.9-0.5,2.5-0.1l8,4.6c0.6,0.4,0.6,1-0.2,1.4
				l-7.9,4.6C313.5,291.7,312.4,291.8,311.7,291.4z"/>
			<path class="st8" d="M218.9,223.9l-8-4.6c-0.6-0.4-0.6-1,0.2-1.4l7.9-4.6c0.7-0.4,1.9-0.5,2.5-0.1l8,4.6c0.6,0.4,0.6,1-0.2,1.4
				l-7.9,4.6C220.6,224.2,219.5,224.3,218.9,223.9z"/>
			<path class="st8" d="M206.4,216.7l-8-4.6c-0.6-0.4-0.6-1,0.2-1.4l7.9-4.6c0.7-0.4,1.9-0.5,2.5-0.1l8,4.6c0.6,0.4,0.6,1-0.2,1.4
				l-7.9,4.6C208.1,217,207,217.1,206.4,216.7z"/>
			<path class="st7" d="M193.8,209.4l-17.2-9.9c-0.6-0.4-0.6-1,0.2-1.4l7.9-4.6c0.7-0.4,1.9-0.5,2.5-0.1l17.2,9.9
				c0.6,0.4,0.6,1-0.2,1.4l-7.9,4.6C195.6,209.8,194.5,209.8,193.8,209.4z"/>
			<path class="st7" d="M202.6,200.6l-14-8.1c-0.6-0.4-0.6-1,0.2-1.4l7.9-4.6c0.7-0.4,1.9-0.5,2.5-0.1l14,8.1c0.6,0.4,0.6,1-0.2,1.4
				l-7.9,4.6C204.3,201,203.2,201,202.6,200.6z"/>
			<path class="st8" d="M231.2,231l-8-4.6c-0.6-0.4-0.6-1,0.2-1.4l7.9-4.6c0.7-0.4,1.9-0.5,2.5-0.1l8,4.6c0.6,0.4,0.6,1-0.2,1.4
				l-7.9,4.6C233,231.4,231.9,231.4,231.2,231z"/>
			<path class="st7" d="M243.6,238.2l-8-4.6c-0.6-0.4-0.6-1,0.2-1.4l7.9-4.6c0.7-0.4,1.9-0.5,2.5-0.1l8,4.6c0.6,0.4,0.6,1-0.2,1.4
				l-7.9,4.6C245.3,238.5,244.2,238.5,243.6,238.2z"/>
			<path class="st7" d="M255.9,245.3l-8-4.6c-0.6-0.4-0.6-1,0.2-1.4l7.9-4.6c0.7-0.4,1.9-0.5,2.5-0.1l8,4.6c0.6,0.4,0.6,1-0.2,1.4
				l-7.9,4.6C257.7,245.6,256.5,245.6,255.9,245.3z"/>
			<path class="st7" d="M268.2,252.4l-8-4.6c-0.6-0.4-0.6-1,0.2-1.4l7.9-4.6c0.7-0.4,1.9-0.5,2.5-0.1l8,4.6c0.6,0.4,0.6,1-0.2,1.4
				l-7.9,4.6C270,252.7,268.9,252.8,268.2,252.4z"/>
			<path class="st7" d="M280.6,259.5l-8-4.6c-0.6-0.4-0.6-1,0.2-1.4l7.9-4.6c0.7-0.4,1.9-0.5,2.5-0.1l8,4.6c0.6,0.4,0.6,1-0.2,1.4
				l-7.9,4.6C282.3,259.8,281.2,259.9,280.6,259.5z"/>
			<path class="st7" d="M292.9,266.6l-8-4.6c-0.6-0.4-0.6-1,0.2-1.4l7.9-4.6c0.7-0.4,1.9-0.5,2.5-0.1l8,4.6c0.6,0.4,0.6,1-0.2,1.4
				l-7.9,4.6C294.7,267,293.5,267,292.9,266.6z"/>
			<path class="st7" d="M305.2,273.8l-8-4.6c-0.6-0.4-0.6-1,0.2-1.4l7.9-4.6c0.7-0.4,1.9-0.5,2.5-0.1l8,4.6c0.6,0.4,0.6,1-0.2,1.4
				l-7.9,4.6C307,274.1,305.9,274.1,305.2,273.8z"/>
			<path class="st7" d="M317.6,280.9l-8-4.6c-0.6-0.4-0.6-1,0.2-1.4l7.9-4.6c0.7-0.4,1.9-0.5,2.5-0.1l8,4.6c0.6,0.4,0.6,1-0.2,1.4
				l-7.9,4.6C319.3,281.2,318.2,281.3,317.6,280.9z"/>
			<path class="st7" d="M329.9,288l-8-4.6c-0.6-0.4-0.6-1,0.2-1.4l7.9-4.6c0.7-0.4,1.9-0.5,2.5-0.1l8,4.6c0.6,0.4,0.6,1-0.2,1.4
				l-7.9,4.6C331.7,288.3,330.5,288.4,329.9,288z"/>
			<path class="st7" d="M351.8,300.7l-17.4-10.1c-0.6-0.4-0.6-1,0.2-1.4l7.9-4.6c0.7-0.4,1.9-0.5,2.5-0.1l17.4,10.1
				c0.6,0.4,0.6,1-0.2,1.4l-7.9,4.6C353.6,301,352.5,301,351.8,300.7z"/>
			<path class="st7" d="M375.9,286.8l-14.7-8.5c-0.6-0.4-0.6-1,0.2-1.4l7.9-4.6c0.7-0.4,1.9-0.5,2.5-0.1l14.7,8.5
				c0.6,0.4,0.6,1-0.2,1.4l-7.9,4.6C377.6,287.1,376.5,287.2,375.9,286.8z"/>
			<path class="st7" d="M252.8,229.6l-8-4.6c-0.6-0.4-0.6-1,0.2-1.4l7.9-4.6c0.7-0.4,1.9-0.5,2.5-0.1l8,4.6c0.6,0.4,0.6,1-0.2,1.4
				l-7.9,4.6C254.6,230,253.5,230,252.8,229.6z"/>
			<path class="st7" d="M240.2,222.3l-8-4.6c-0.6-0.4-0.6-1,0.2-1.4l7.9-4.6c0.7-0.4,1.9-0.5,2.5-0.1l8,4.6c0.6,0.4,0.6,1-0.2,1.4
				l-7.9,4.6C241.9,222.7,240.8,222.7,240.2,222.3z"/>
			<path class="st8" d="M227.5,215l-8-4.6c-0.6-0.4-0.6-1,0.2-1.4l7.9-4.6c0.7-0.4,1.9-0.5,2.5-0.1l8,4.6c0.6,0.4,0.6,1-0.2,1.4
				l-7.9,4.6C229.3,215.4,228.2,215.4,227.5,215z"/>
			<path class="st7" d="M214.9,207.7l-8-4.6c-0.6-0.4-0.6-1,0.2-1.4l7.9-4.6c0.7-0.4,1.9-0.5,2.5-0.1l8,4.6c0.6,0.4,0.6,1-0.2,1.4
				l-7.9,4.6C216.7,208.1,215.5,208.1,214.9,207.7z"/>
			<path class="st7" d="M265.2,236.8l-8-4.6c-0.6-0.4-0.6-1,0.2-1.4l7.9-4.6c0.7-0.4,1.9-0.5,2.5-0.1l8,4.6c0.6,0.4,0.6,1-0.2,1.4
				l-7.9,4.6C266.9,237.1,265.8,237.1,265.2,236.8z"/>
			<path class="st7" d="M277.5,243.9l-8-4.6c-0.6-0.4-0.6-1,0.2-1.4l7.9-4.6c0.7-0.4,1.9-0.5,2.5-0.1l8,4.6c0.6,0.4,0.6,1-0.2,1.4
				l-7.9,4.6C279.3,244.2,278.1,244.3,277.5,243.9z"/>
			<path class="st7" d="M289.8,251l-8-4.6c-0.6-0.4-0.6-1,0.2-1.4l7.9-4.6c0.7-0.4,1.9-0.5,2.5-0.1l8,4.6c0.6,0.4,0.6,1-0.2,1.4
				l-7.9,4.6C291.6,251.3,290.5,251.4,289.8,251z"/>
			<path class="st7" d="M302.2,258.1l-8-4.6c-0.6-0.4-0.6-1,0.2-1.4l7.9-4.6c0.7-0.4,1.9-0.5,2.5-0.1l8,4.6c0.6,0.4,0.6,1-0.2,1.4
				l-7.9,4.6C303.9,258.5,302.8,258.5,302.2,258.1z"/>
			<path class="st7" d="M314.5,265.3l-8-4.6c-0.6-0.4-0.6-1,0.2-1.4l7.9-4.6c0.7-0.4,1.9-0.5,2.5-0.1l8,4.6c0.6,0.4,0.6,1-0.2,1.4
				l-7.9,4.6C316.3,265.6,315.1,265.6,314.5,265.3z"/>
			<path class="st7" d="M326.8,272.4l-8-4.6c-0.6-0.4-0.6-1,0.2-1.4l7.9-4.6c0.7-0.4,1.9-0.5,2.5-0.1l8,4.6c0.6,0.4,0.6,1-0.2,1.4
				l-7.9,4.6C328.6,272.7,327.5,272.7,326.8,272.4z"/>
			<path class="st7" d="M339.2,279.5l-8-4.6c-0.6-0.4-0.6-1,0.2-1.4l7.9-4.6c0.7-0.4,1.9-0.5,2.5-0.1l8,4.6c0.6,0.4,0.6,1-0.2,1.4
				l-7.9,4.6C340.9,279.8,339.8,279.9,339.2,279.5z"/>
			<path class="st7" d="M351.5,286.6l-8-4.6c-0.6-0.4-0.6-1,0.2-1.4l7.9-4.6c0.7-0.4,1.9-0.5,2.5-0.1l8,4.6c0.6,0.4,0.6,1-0.2,1.4
				l-7.9,4.6C353.3,286.9,352.2,287,351.5,286.6z"/>
			<path class="st7" d="M363.8,293.7l-8-4.6c-0.6-0.4-0.6-1,0.2-1.4l7.9-4.6c0.7-0.4,1.9-0.5,2.5-0.1l8,4.6c0.6,0.4,0.6,1-0.2,1.4
				l-7.9,4.6C365.6,294.1,364.5,294.1,363.8,293.7z"/>
			<path class="st7" d="M246.3,212l-8-4.6c-0.6-0.4-0.6-1,0.2-1.4l7.9-4.6c0.7-0.4,1.9-0.5,2.5-0.1l8,4.6c0.6,0.4,0.6,1-0.2,1.4
				l-7.9,4.6C248.1,212.3,247,212.4,246.3,212z"/>
			<path class="st7" d="M234,204.9l-8-4.6c-0.6-0.4-0.6-1,0.2-1.4l7.9-4.6c0.7-0.4,1.9-0.5,2.5-0.1l8,4.6c0.6,0.4,0.6,1-0.2,1.4
				l-7.9,4.6C235.8,205.3,234.7,205.3,234,204.9z"/>
			<path class="st7" d="M221.8,197.9l-8-4.6c-0.6-0.4-0.6-1,0.2-1.4l7.9-4.6c0.7-0.4,1.9-0.5,2.5-0.1l8,4.6c0.6,0.4,0.6,1-0.2,1.4
				l-7.9,4.6C223.5,198.2,222.4,198.2,221.8,197.9z"/>
			<path class="st7" d="M209.5,190.8l-8-4.6c-0.6-0.4-0.6-1,0.2-1.4l7.9-4.6c0.7-0.4,1.9-0.5,2.5-0.1l8,4.6c0.6,0.4,0.6,1-0.2,1.4
				l-7.9,4.6C211.3,191.1,210.1,191.1,209.5,190.8z"/>
			<path class="st7" d="M222.1,183.5l-8-4.6c-0.6-0.4-0.6-1,0.2-1.4l2.6-1.5c0.7-0.4,1.9-0.5,2.5-0.1l8,4.6c0.6,0.4,0.6,1-0.2,1.4
				l-2.6,1.5C223.9,183.8,222.8,183.8,222.1,183.5z"/>
			<path class="st7" d="M238.1,192.7l-8-4.6c-0.6-0.4-0.6-1,0.2-1.4l2.6-1.5c0.7-0.4,1.9-0.5,2.5-0.1l8,4.6c0.6,0.4,0.6,1-0.2,1.4
				l-2.6,1.5C239.9,193,238.8,193.1,238.1,192.7z"/>
			<path class="st7" d="M250.4,199.8l-8-4.6c-0.6-0.4-0.6-1,0.2-1.4l2.6-1.5c0.7-0.4,1.9-0.5,2.5-0.1l8,4.6c0.6,0.4,0.6,1-0.2,1.4
				l-2.6,1.5C252.1,200.1,251,200.2,250.4,199.8z"/>
			<path class="st7" d="M262.6,206.8l-8-4.6c-0.6-0.4-0.6-1,0.2-1.4l2.6-1.5c0.7-0.4,1.9-0.5,2.5-0.1l8,4.6c0.6,0.4,0.6,1-0.2,1.4
				l-2.6,1.5C264.3,207.2,263.2,207.2,262.6,206.8z"/>
			<path class="st7" d="M274.8,213.9l-8-4.6c-0.6-0.4-0.6-1,0.2-1.4l2.6-1.5c0.7-0.4,1.9-0.5,2.5-0.1l8,4.6c0.6,0.4,0.6,1-0.2,1.4
				l-2.6,1.5C276.6,214.2,275.5,214.3,274.8,213.9z"/>
			<path class="st7" d="M343.1,253.3l-8-4.6c-0.6-0.4-0.6-1,0.2-1.4l2.6-1.5c0.7-0.4,1.9-0.5,2.5-0.1l8,4.6c0.6,0.4,0.6,1-0.2,1.4
				l-2.6,1.5C344.8,253.6,343.7,253.7,343.1,253.3z"/>
			<path class="st7" d="M355.3,260.4l-8-4.6c-0.6-0.4-0.6-1,0.2-1.4l2.6-1.5c0.7-0.4,1.9-0.5,2.5-0.1l8,4.6c0.6,0.4,0.6,1-0.2,1.4
				l-2.6,1.5C357,260.7,355.9,260.7,355.3,260.4z"/>
			<path class="st7" d="M367.5,267.4l-8-4.6c-0.6-0.4-0.6-1,0.2-1.4l2.6-1.5c0.7-0.4,1.9-0.5,2.5-0.1l8,4.6c0.6,0.4,0.6,1-0.2,1.4
				l-2.6,1.5C369.3,267.7,368.1,267.8,367.5,267.4z"/>
			<path class="st7" d="M379.7,274.5l-8-4.6c-0.6-0.4-0.6-1,0.2-1.4l2.6-1.5c0.7-0.4,1.9-0.5,2.5-0.1l8,4.6c0.6,0.4,0.6,1-0.2,1.4
				l-2.6,1.5C381.5,274.8,380.4,274.8,379.7,274.5z"/>
			<path class="st7" d="M258.7,219.1l-8-4.6c-0.6-0.4-0.6-1,0.2-1.4l7.9-4.6c0.7-0.4,1.9-0.5,2.5-0.1l8,4.6c0.6,0.4,0.6,1-0.2,1.4
				l-7.9,4.6C260.4,219.5,259.3,219.5,258.7,219.1z"/>
			<path class="st7" d="M271,226.3l-8-4.6c-0.6-0.4-0.6-1,0.2-1.4l7.9-4.6c0.7-0.4,1.9-0.5,2.5-0.1l8,4.6c0.6,0.4,0.6,1-0.2,1.4
				l-7.9,4.6C272.8,226.6,271.6,226.6,271,226.3z"/>
			<path class="st7" d="M283.3,233.4l-8-4.6c-0.6-0.4-0.6-1,0.2-1.4l7.9-4.6c0.7-0.4,1.9-0.5,2.5-0.1l8,4.6c0.6,0.4,0.6,1-0.2,1.4
				l-7.9,4.6C285.1,233.7,284,233.8,283.3,233.4z"/>
			<path class="st7" d="M295.7,240.5l-8-4.6c-0.6-0.4-0.6-1,0.2-1.4l7.9-4.6c0.7-0.4,1.9-0.5,2.5-0.1l8,4.6c0.6,0.4,0.6,1-0.2,1.4
				l-7.9,4.6C297.4,240.8,296.3,240.9,295.7,240.5z"/>
			<path class="st7" d="M308,247.6l-8-4.6c-0.6-0.4-0.6-1,0.2-1.4l7.9-4.6c0.7-0.4,1.9-0.5,2.5-0.1l8,4.6c0.6,0.4,0.6,1-0.2,1.4
				l-7.9,4.6C309.8,248,308.6,248,308,247.6z"/>
			<path class="st7" d="M320.3,254.8l-8-4.6c-0.6-0.4-0.6-1,0.2-1.4l7.9-4.6c0.7-0.4,1.9-0.5,2.5-0.1l8,4.6c0.6,0.4,0.6,1-0.2,1.4
				l-7.9,4.6C322.1,255.1,321,255.1,320.3,254.8z"/>
			<path class="st7" d="M332.7,261.9l-8-4.6c-0.6-0.4-0.6-1,0.2-1.4l7.9-4.6c0.7-0.4,1.9-0.5,2.5-0.1l8,4.6c0.6,0.4,0.6,1-0.2,1.4
				l-7.9,4.6C334.4,262.2,333.3,262.3,332.7,261.9z"/>
			<path class="st7" d="M345,269l-8-4.6c-0.6-0.4-0.6-1,0.2-1.4l7.9-4.6c0.7-0.4,1.9-0.5,2.5-0.1l8,4.6c0.6,0.4,0.6,1-0.2,1.4
				l-7.9,4.6C346.8,269.3,345.7,269.4,345,269z"/>
			<path class="st7" d="M357.4,276.1l-8-4.6c-0.6-0.4-0.6-1,0.2-1.4l7.9-4.6c0.7-0.4,1.9-0.5,2.5-0.1l8,4.6c0.6,0.4,0.6,1-0.2,1.4
				l-7.9,4.6C359.1,276.4,358,276.5,357.4,276.1z"/>
			<path class="st7" d="M188.1,220l-23.5-13.6c-0.6-0.4-0.6-1,0.2-1.4l7.9-4.6c0.7-0.4,1.9-0.5,2.5-0.1l23.5,13.6
				c0.6,0.4,0.6,1-0.2,1.4l-7.9,4.6C189.9,220.4,188.8,220.4,188.1,220z"/>
			<path class="st7" d="M339.7,307.5l-23.5-13.6c-0.6-0.4-0.6-1,0.2-1.4l7.9-4.6c0.7-0.4,1.9-0.5,2.5-0.1l23.5,13.6
				c0.6,0.4,0.6,1-0.2,1.4l-7.9,4.6C341.4,307.8,340.3,307.9,339.7,307.5z"/>
			<path class="st7" d="M290.4,294.8l-8-4.6c-0.6-0.4-0.6-1,0.2-1.4l9.4-5.4c0.7-0.4,1.9-0.5,2.5-0.1l8,4.6c0.6,0.4,0.6,1-0.2,1.4
				l-9.4,5.4C292.1,295.1,291,295.1,290.4,294.8z"/>
			<path class="st7" d="M200.8,243.1l-12.8-7.4c-0.6-0.4-0.6-1,0.2-1.4l9.4-5.4c0.7-0.4,1.9-0.5,2.5-0.1l12.8,7.4
				c0.6,0.4,0.6,1-0.2,1.4l-9.4,5.4C202.5,243.4,201.4,243.4,200.8,243.1z"/>
			<path class="st7" d="M278.5,287.9l-12.8-7.4c-0.6-0.4-0.6-1,0.2-1.4l9.4-5.4c0.7-0.4,1.9-0.5,2.5-0.1l12.8,7.4
				c0.6,0.4,0.6,1-0.2,1.4l-9.4,5.4C280.2,288.2,279.1,288.3,278.5,287.9z"/>
			<path class="st7" d="M218.6,253.3l-12.8-7.4c-0.6-0.4-0.6-1,0.2-1.4l9.4-5.4c0.7-0.4,1.9-0.5,2.5-0.1l12.8,7.4
				c0.6,0.4,0.6,1-0.2,1.4l-9.4,5.4C220.3,253.7,219.2,253.7,218.6,253.3z"/>
			<path class="st7" d="M218,239l55.5,32.1c0.7,0.4,0.7,1,0,1.4l-9.6,5.6c-0.7,0.4-1.8,0.4-2.5,0L205.9,246L218,239z"/>
			<path class="st7" d="M324.8,307.7l8.9,5.1c0.5,0.3,0.5,0.8-0.1,1.2l-3.9,2.2c-0.6,0.4-1.5,0.4-2.1,0.1l-8.9-5.1
				c-0.5-0.3-0.5-0.8,0.1-1.2l3.9-2.2C323.4,307.4,324.3,307.4,324.8,307.7z"/>
			<path class="st7" d="M312.4,300.5l8.9,5.1c0.5,0.3,0.5,0.8-0.1,1.2l-3.9,2.2c-0.6,0.4-1.5,0.4-2.1,0.1l-8.9-5.1
				c-0.5-0.3-0.5-0.8,0.1-1.2l3.9-2.2C310.9,300.2,311.9,300.2,312.4,300.5z"/>
			<path class="st7" d="M300.1,293.4l8.9,5.1c0.5,0.3,0.5,0.8-0.1,1.2l-3.9,2.2c-0.6,0.4-1.5,0.4-2.1,0.1l-8.9-5.1
				c-0.5-0.3-0.5-0.8,0.1-1.2l3.9-2.2C298.6,293.1,299.5,293.1,300.1,293.4z"/>
			<path class="st7" d="M319.2,296.6l8.9,5.1c0.5,0.3,0.5,0.8-0.1,1.2l-3.9,2.2c-0.6,0.4-1.5,0.4-2.1,0.1l-8.9-5.1
				c-0.5-0.3-0.5-0.8,0.1-1.2l3.9-2.2C317.8,296.3,318.7,296.3,319.2,296.6z"/>
		</g>
		<g>
			<path class="st5" d="M302.9,78.3l-11.8-6.8c-1.1-0.6-1.7-2.2-1.4-3.5l0,0c0.3-1.3,1.4-1.8,2.5-1.2l11.8,6.8
				c1.1,0.6,1.7,2.2,1.4,3.5l0,0C305.1,78.3,304,78.9,302.9,78.3z"/>
			<path class="st5" d="M331,94.5l-17.4-10c-1.1-0.6-1.7-2.2-1.4-3.5l0,0c0.3-1.3,1.4-1.8,2.5-1.2l17.4,10c1.1,0.6,1.7,2.2,1.4,3.5
				l0,0C333.2,94.6,332.1,95.1,331,94.5z"/>
			<path class="st5" d="M282.3,133.4l-11.8-6.8c-1.1-0.6-1.7-2.2-1.4-3.5l0,0c0.3-1.3,1.4-1.8,2.5-1.2l11.8,6.8
				c1.1,0.6,1.7,2.2,1.4,3.5l0,0C284.5,133.4,283.4,134,282.3,133.4z"/>
			<path class="st5" d="M307.3,147.8l-17.4-10.1c-1.1-0.6-1.7-2.2-1.4-3.5l0,0c0.3-1.3,1.4-1.8,2.5-1.2l17.4,10
				c1.1,0.6,1.7,2.2,1.4,3.5l0,0C309.6,147.9,308.4,148.5,307.3,147.8z"/>
			<path class="st5" d="M268,69.3l-7.4-4.3c-1.1-0.6-1.7-2.2-1.4-3.5l0,0c0.3-1.3,1.4-1.8,2.5-1.2l7.4,4.3c1.1,0.6,1.7,2.2,1.4,3.5
				l0,0C270.3,69.4,269.1,69.9,268,69.3z"/>
			<path class="st5" d="M290.8,93.6l-22.5-13c-1.1-0.6-1.7-2.2-1.4-3.5h0c0.3-1.3,1.4-1.8,2.5-1.2l22.5,13c1.1,0.6,1.7,2.2,1.4,3.5
				l0,0C293,93.7,291.9,94.2,290.8,93.6z"/>
			<path class="st5" d="M271.1,104.5l-7.4-4.3c-1.1-0.6-1.7-2.2-1.4-3.5l0,0c0.3-1.3,1.4-1.8,2.5-1.2l7.4,4.3
				c1.1,0.6,1.7,2.2,1.4,3.5l0,0C273.3,104.6,272.2,105.2,271.1,104.5z"/>
			<path class="st5" d="M311.1,172.3L291.4,161c-1.1-0.6-1.7-2.2-1.4-3.5l0,0c0.3-1.3,1.4-1.8,2.5-1.2l19.7,11.4
				c1.1,0.6,1.7,2.2,1.4,3.5l0,0C313.4,172.4,312.2,173,311.1,172.3z"/>
			<path class="st5" d="M263.9,122.7l-4.7-2.7c-1.1-0.6-1.7-2.2-1.4-3.5l0,0c0.3-1.3,1.4-1.8,2.5-1.2l4.7,2.7
				c1.1,0.6,1.7,2.2,1.4,3.5l0,0C266.1,122.8,265,123.4,263.9,122.7z"/>
			<path class="st5" d="M260.5,143.1l-5.9-3.4c-1.1-0.6-1.7-2.2-1.4-3.5l0,0c0.3-1.3,1.4-1.8,2.5-1.2l5.9,3.4
				c1.1,0.6,1.7,2.2,1.4,3.5l0,0C262.7,143.2,261.6,143.7,260.5,143.1z"/>
			<path class="st5" d="M283.3,156.3l-15.5-8.9c-1.1-0.6-1.7-2.2-1.4-3.5l0,0c0.3-1.3,1.4-1.8,2.5-1.2l15.5,8.9
				c1.1,0.6,1.7,2.2,1.4,3.5l0,0C285.6,156.4,284.4,156.9,283.3,156.3z"/>
			<path class="st5" d="M263.5,156l-11.1-6.4c-1.1-0.6-1.7-2.2-1.4-3.5l0,0c0.3-1.3,1.4-1.8,2.5-1.2l11.1,6.4
				c1.1,0.6,1.7,2.2,1.4,3.5l0,0C265.7,156.1,264.6,156.6,263.5,156z"/>
			<path class="st5" d="M328,182.2l-7.2-4.1c-1.1-0.6-1.7-2.2-1.4-3.5l0,0c0.3-1.3,1.4-1.8,2.5-1.2l7.2,4.1c1.1,0.6,1.7,2.2,1.4,3.5
				l0,0C330.3,182.2,329.1,182.8,328,182.2z"/>
			<path class="st5" d="M298.5,120.4L278.8,109c-1.1-0.6-1.7-2.2-1.4-3.5h0c0.3-1.3,1.4-1.8,2.5-1.2l19.7,11.4
				c1.1,0.6,1.7,2.2,1.4,3.5l0,0C300.7,120.5,299.6,121,298.5,120.4z"/>
			<path class="st5" d="M300.3,110.3L266,90.4c-1.1-0.6-1.7-2.2-1.4-3.5l0,0c0.3-1.3,1.4-1.8,2.5-1.2l34.3,19.8
				c1.1,0.6,1.7,2.2,1.4,3.5l0,0C302.5,110.4,301.4,110.9,300.3,110.3z"/>
			<path class="st5" d="M281.1,121.5l-19.7-11.4c-1.1-0.6-1.7-2.2-1.4-3.5l0,0c0.3-1.3,1.4-1.8,2.5-1.2l19.7,11.4
				c1.1,0.6,1.7,2.2,1.4,3.5l0,0C283.3,121.6,282.2,122.1,281.1,121.5z"/>
			<path class="st5" d="M313.4,129l-7.2-4.1c-1.1-0.6-1.7-2.2-1.4-3.5l0,0c0.3-1.3,1.4-1.8,2.5-1.2l7.2,4.1c1.1,0.6,1.7,2.2,1.4,3.5
				l0,0C315.7,129.1,314.5,129.6,313.4,129z"/>
			<path class="st5" d="M384.1,125.1l-42.4-24.5c-1.1-0.6-1.7-2.2-1.4-3.5l0,0c0.3-1.3,1.4-1.8,2.5-1.2l42.4,24.5
				c1.1,0.6,1.7,2.2,1.4,3.5l0,0C386.3,125.2,385.2,125.8,384.1,125.1z"/>
			<path class="st5" d="M280.5,143.5l-23.7-13.7c-1.1-0.6-1.7-2.2-1.4-3.5l0,0c0.3-1.3,1.4-1.8,2.5-1.2l23.7,13.7
				c1.1,0.6,1.7,2.2,1.4,3.5l0,0C282.8,143.6,281.6,144.1,280.5,143.5z"/>
			<path class="st5" d="M280.3,65.3l-17.4-10c-1.1-0.6-1.7-2.2-1.4-3.5l0,0c0.3-1.3,1.4-1.8,2.5-1.2l17.4,10
				c1.1,0.6,1.7,2.2,1.4,3.5l0,0C282.6,65.3,281.4,65.9,280.3,65.3z"/>
			<path class="st5" d="M260.4,165.4l-20.2-11.6c-1.1-0.6-1.7-2.2-1.4-3.5l0,0c0.3-1.3,1.4-1.8,2.5-1.2l20.2,11.6
				c1.1,0.6,1.7,2.2,1.4,3.5l0,0C262.6,165.4,261.5,166,260.4,165.4z"/>
		</g>
		<g>
			<path class="st5" d="M396.8,207.8L385,201c-1.1-0.6-1.7-2.2-1.4-3.5l0,0c0.3-1.3,1.4-1.8,2.5-1.2l11.8,6.8
				c1.1,0.6,1.7,2.2,1.4,3.5l0,0C399,207.9,397.9,208.5,396.8,207.8z"/>
			<path class="st5" d="M405.3,168.1l-22.5-13c-1.1-0.6-1.7-2.2-1.4-3.5v0c0.3-1.3,1.4-1.8,2.5-1.2l22.5,13c1.1,0.6,1.7,2.2,1.4,3.5
				l0,0C407.5,168.2,406.4,168.7,405.3,168.1z"/>
			<path class="st5" d="M385.6,179l-7.4-4.3c-1.1-0.6-1.7-2.2-1.4-3.5l0,0c0.3-1.3,1.4-1.8,2.5-1.2l7.4,4.3c1.1,0.6,1.7,2.2,1.4,3.5
				l0,0C387.8,179.1,386.7,179.7,385.6,179z"/>
			<path class="st5" d="M378.4,197.2l-4.7-2.7c-1.1-0.6-1.7-2.2-1.4-3.5l0,0c0.3-1.3,1.4-1.8,2.5-1.2l4.7,2.7
				c1.1,0.6,1.7,2.2,1.4,3.5l0,0C380.6,197.3,379.5,197.8,378.4,197.2z"/>
			<path class="st5" d="M413,194.9l-19.7-11.4c-1.1-0.6-1.7-2.2-1.4-3.5l0,0c0.3-1.3,1.4-1.8,2.5-1.2l19.7,11.4
				c1.1,0.6,1.7,2.2,1.4,3.5l0,0C415.2,195,414.1,195.5,413,194.9z"/>
			<path class="st5" d="M414.8,184.7l-34.3-19.8c-1.1-0.6-1.7-2.2-1.4-3.5l0,0c0.3-1.3,1.4-1.8,2.5-1.2l34.3,19.8
				c1.1,0.6,1.7,2.2,1.4,3.5l0,0C417,184.8,415.9,185.4,414.8,184.7z"/>
			<path class="st5" d="M395.6,196l-19.7-11.4c-1.1-0.6-1.7-2.2-1.4-3.5l0,0c0.3-1.3,1.4-1.8,2.5-1.2l19.7,11.4
				c1.1,0.6,1.7,2.2,1.4,3.5l0,0C397.8,196.1,396.7,196.6,395.6,196z"/>
			<path class="st5" d="M395,218l-23.7-13.7c-1.1-0.6-1.7-2.2-1.4-3.5l0,0c0.3-1.3,1.4-1.8,2.5-1.2l23.7,13.7
				c1.1,0.6,1.7,2.2,1.4,3.5l0,0C397.3,218.1,396.1,218.6,395,218z"/>
		</g>
		<g>
			<path class="st6" d="M403.5,375.5L364.5,353c-2.4-1.4-2.1-3.8,0.7-5.4l37.7-21.8c2.8-1.6,7-1.8,9.4-0.4l39.1,22.6
				c2.4,1.4,2.1,3.8-0.7,5.4l-37.7,21.8C410.1,376.8,405.9,376.9,403.5,375.5z"/>
			<g>
				<path class="st8" d="M464.2,330.8L464.2,330.8v-16.9l-37.8,0l-13.1-7.6c-3-1.7-8.2-1.5-11.7,0.5l-12.2,7l-37.9,0v17.4
					c-0.1,1.2,0.6,2.3,2,3.1l48.9,28.2c3,1.7,8.2,1.5,11.7-0.5l47.2-27.3C463.4,333.7,464.3,332.2,464.2,330.8z"/>
				<path class="st8" d="M407.9,305.2c-2.2,0.1-4.5,0.6-6.3,1.6l-12.2,7l-37.9,0v17.4c-0.1,1.2,0.6,2.3,2,3.1l48.9,28.2
					c1.4,0.8,3.4,1.2,5.4,1.2V305.2z"/>
				<path class="st4" d="M355.8,313.9l-4.3,0v17.4c-0.1,1.2,0.6,2.3,2,3.1l2.3,1.3V313.9z"/>
				<path class="st4" d="M403.2,363c2.6,1.1,6.3,1,9.4-0.1v-19.7h-9.4V363z"/>
				<path class="st5" d="M402.4,345.3l-48.9-28.2c-3-1.7-2.6-4.8,0.8-6.8l47.2-27.3c3.5-2,8.7-2.2,11.7-0.5l48.9,28.2
					c3,1.7,2.6,4.8-0.8,6.8l-47.2,27.3C410.7,346.8,405.4,347,402.4,345.3z"/>
				<path class="st4" d="M403.3,340.2l-41-23.7c-2.5-1.5-2.2-4,0.7-5.7l39.6-22.9c2.9-1.7,7.3-1.9,9.8-0.4l41,23.7
					c2.5,1.5,2.2,4-0.7,5.7l-39.6,22.9C410.2,341.5,405.8,341.7,403.3,340.2z"/>
				<g>
					<path class="st5" d="M446.2,335.3c0,1.3-0.9,2.8-2,3.4c-1.1,0.6-2,0.1-2-1.1c0-1.3,0.9-2.8,2-3.4
						C445.4,333.5,446.2,334,446.2,335.3z"/>
					<path class="st5" d="M452.6,331.6c0,1.3-0.9,2.8-2,3.4s-2,0.1-2-1.1c0-1.3,0.9-2.8,2-3.4C451.7,329.8,452.6,330.3,452.6,331.6z
						"/>
					<path class="st5" d="M458.9,327.9c0,1.3-0.9,2.8-2,3.4c-1.1,0.6-2,0.1-2-1.1s0.9-2.8,2-3.4
						C458.1,326.1,458.9,326.7,458.9,327.9z"/>
				</g>
			</g>
			<g>
				<path class="st8" d="M464.2,303.8L464.2,303.8V287l-37.8,0l-13.1-7.6c-3-1.7-8.2-1.5-11.7,0.5l-12.2,7l-37.9,0v17.4
					c-0.1,1.2,0.6,2.3,2,3.1l48.9,28.2c3,1.7,8.2,1.5,11.7-0.5l47.2-27.3C463.4,306.7,464.3,305.2,464.2,303.8z"/>
				<path class="st8" d="M407.9,278.2c-2.2,0.1-4.5,0.6-6.3,1.6l-12.2,7l-37.9,0v17.4c-0.1,1.2,0.6,2.3,2,3.1l48.9,28.2
					c1.4,0.8,3.4,1.2,5.4,1.2V278.2z"/>
				<path class="st4" d="M355.8,286.9l-4.3,0v17.4c-0.1,1.2,0.6,2.3,2,3.1l2.3,1.3V286.9z"/>
				<path class="st4" d="M403.2,336c2.6,1.1,6.3,1,9.4-0.1v-19.7h-9.4V336z"/>
				<path class="st5" d="M402.4,318.3l-48.9-28.2c-3-1.7-2.6-4.8,0.8-6.8l47.2-27.3c3.5-2,8.7-2.2,11.7-0.5l48.9,28.2
					c3,1.7,2.6,4.8-0.8,6.8l-47.2,27.3C410.7,319.8,405.4,320.1,402.4,318.3z"/>
				<path class="st4" d="M403.3,313.3l-41-23.7c-2.5-1.5-2.2-4,0.7-5.7l39.6-22.9c2.9-1.7,7.3-1.9,9.8-0.4l41,23.7
					c2.5,1.5,2.2,4-0.7,5.7l-39.6,22.9C410.2,314.5,405.8,314.7,403.3,313.3z"/>
				<g>
					<path class="st5" d="M446.2,308.3c0,1.3-0.9,2.8-2,3.4c-1.1,0.6-2,0.1-2-1.1c0-1.3,0.9-2.8,2-3.4
						C445.4,306.5,446.2,307,446.2,308.3z"/>
					<path class="st5" d="M452.6,304.6c0,1.3-0.9,2.8-2,3.4c-1.1,0.6-2,0.1-2-1.1c0-1.3,0.9-2.8,2-3.4
						C451.7,302.8,452.6,303.4,452.6,304.6z"/>
					<path class="st5" d="M458.9,300.9c0,1.3-0.9,2.8-2,3.4c-1.1,0.6-2,0.1-2-1.1s0.9-2.8,2-3.4
						C458.1,299.2,458.9,299.7,458.9,300.9z"/>
				</g>
			</g>
			<g>
				<path class="st8" d="M464.2,276.9L464.2,276.9V260l-37.8,0l-13.1-7.6c-3-1.7-8.2-1.5-11.7,0.5l-12.2,7l-37.9,0v17.4
					c-0.1,1.2,0.6,2.3,2,3.1l48.9,28.2c3,1.7,8.2,1.5,11.7-0.5l47.2-27.3C463.4,279.7,464.3,278.3,464.2,276.9z"/>
				<path class="st8" d="M407.9,251.3c-2.2,0.1-4.5,0.6-6.3,1.6l-12.2,7l-37.9,0v17.4c-0.1,1.2,0.6,2.3,2,3.1l48.9,28.2
					c1.4,0.8,3.4,1.2,5.4,1.2V251.3z"/>
				<path class="st4" d="M355.8,259.9l-4.3,0v17.4c-0.1,1.2,0.6,2.3,2,3.1l2.3,1.3V259.9z"/>
				<path class="st4" d="M403.2,309c2.6,1.1,6.3,1,9.4-0.1v-19.7h-9.4V309z"/>
				<path class="st5" d="M402.4,291.4l-48.9-28.2c-3-1.7-2.6-4.8,0.8-6.8l47.2-27.3c3.5-2,8.7-2.2,11.7-0.5l48.9,28.2
					c3,1.7,2.6,4.8-0.8,6.8l-47.2,27.3C410.7,292.9,405.4,293.1,402.4,291.4z"/>
				<path class="st3" d="M461.4,260.3l-47.2,27.3c-3.5,2-8.7,2.2-11.7,0.5l-48.9-28.2c-0.7-0.4-1.2-0.8-1.5-1.3
					c-1,1.7-0.6,3.5,1.5,4.7l48.9,28.2c3,1.7,8.2,1.5,11.7-0.5l47.2-27.3c2.7-1.6,3.5-3.7,2.3-5.4
					C463.2,258.9,462.5,259.7,461.4,260.3z"/>
				<g>
					<path class="st5" d="M446.2,281.3c0,1.3-0.9,2.8-2,3.4c-1.1,0.6-2,0.1-2-1.1c0-1.3,0.9-2.8,2-3.4
						C445.4,279.5,446.2,280.1,446.2,281.3z"/>
					<path class="st5" d="M452.6,277.6c0,1.3-0.9,2.8-2,3.4s-2,0.1-2-1.1c0-1.3,0.9-2.8,2-3.4S452.6,276.4,452.6,277.6z"/>
					<path class="st5" d="M458.9,274c0,1.3-0.9,2.8-2,3.4c-1.1,0.6-2,0.1-2-1.1c0-1.3,0.9-2.8,2-3.4
						C458.1,272.2,458.9,272.7,458.9,274z"/>
				</g>
				<g>
					<path class="st4" d="M405.3,273.9l-22.9-13.2c-1.4-0.8-1.2-2.2,0.4-3.2l22.1-12.8c1.6-0.9,4.1-1,5.5-0.2l22.9,13.2
						c1.4,0.8,1.2,2.2-0.4,3.2l-22.1,12.8C409.2,274.6,406.7,274.7,405.3,273.9z"/>
					<path class="st5" d="M407.5,262.8l-3.2-1.8c-0.2-0.1-0.2-0.3,0.1-0.4l3.1-1.8c0.2-0.1,0.6-0.1,0.8,0l3.2,1.8
						c0.2,0.1,0.2,0.3-0.1,0.4l-3.1,1.8C408.1,262.9,407.7,262.9,407.5,262.8z"/>
					<path class="st8" d="M382.4,260.6L382.4,260.6c0.2,0,0.3-0.1,0.4-0.2l22.1-12.8c1.6-0.9,4.1-1,5.5-0.2l22.8,13.2
						c1.3-0.9,1.4-2.2,0.1-2.9l-22.9-13.2c-1.4-0.8-3.9-0.7-5.5,0.2l-22.1,12.8C381.2,258.4,381,259.8,382.4,260.6z"/>
				</g>
			</g>
		</g>
		<g>
			<path class="st7" d="M359.6,307.7l-4.8-0.6l-30.9-17.9c-1-0.6-2.7-0.5-3.9,0.2l-21.9,12.6l-2.9-0.4v2.9l0,0c0,0.4,0.2,0.7,0.7,1
				l35,20.2c1,0.6,2.7,0.5,3.9-0.2l23.9-13.8c0.6-0.4,1-0.9,0.9-1.3l0,0V307.7z"/>
			<path class="st8" d="M336.3,296.5l-2.2-1.3H310l-11.9,6.9l-2.9-0.4v2.9l0,0c0,0.4,0.2,0.7,0.7,1l35,20.2c0.5,0.3,1.3,0.4,2,0.4
				L336.3,296.5z"/>
			<path class="st4" d="M296.5,301.9l-1.3-0.2v2.9l0,0c0,0.4,0.2,0.7,0.7,1l0.6,0.4V301.9z"/>
			<path class="st9" d="M331.3,326c0.9,0.4,2.3,0.3,3.3-0.2v-4.9h-3.3V326z"/>
			<path class="st3" d="M330.9,322.9l-35-20.2c-1-0.6-0.9-1.6,0.3-2.2l23.9-13.8c1.1-0.7,2.9-0.7,3.9-0.2l35,20.2
				c1,0.6,0.9,1.6-0.3,2.2l-23.9,13.8C333.6,323.4,331.9,323.5,330.9,322.9z"/>
			<path class="st5" d="M330.3,319.9L301.2,303c-0.8-0.5-0.7-1.3,0.2-1.9l12.8-7.2c1-0.5,2.4-0.6,3.2-0.1l29.1,16.8
				c0.8,0.5,0.7,1.3-0.2,1.9l-12.8,7.2C332.6,320.3,331.1,320.3,330.3,319.9z"/>
		</g>
		<path class="st3" d="M346.6,210.6l-3.6-1c0,0,1.7,2.7,4.2,3.4c2.5,0.7,2.9-1.4,2.9-1.4L346.6,210.6z"/>
		<path class="st6" d="M62.6,329.3c-9.6,5.6-25.2,5.6-34.8,0c-9.6-5.6-9.6-14.6,0-20.1c9.6-5.6,25.2-5.6,34.8,0
			C72.2,314.8,72.2,323.8,62.6,329.3z"/>
		<path class="st6" d="M207.9,411.9c-9.6,5.6-25.2,5.6-34.8,0c-9.6-5.6-9.6-14.6,0-20.1c9.6-5.6,25.2-5.6,34.8,0
			C217.5,397.4,217.5,406.4,207.9,411.9z"/>
		<path class="st0" d="M29.6,126.8c0,0,0.7,14.6,1.8,24.4c1.1,9.8,24.7-7.5,24.7-7.5v-11.2L29.6,126.8z"/>
		<path class="st10" d="M42.2,308.3c0.4,0.9,6.5,8.3,12.6,10.2c2.7,0.8,4.4,0.9,5.6,0.8c1.2-0.1,1.9-1.4,1.5-2.5
			c-1.1-3-4.1-9.1-11.7-12.9C39.8,298.7,42.2,308.3,42.2,308.3z"/>
		<path class="st10" d="M40.2,311.1c0,0,2.3,5.4,3,9.9c0.4,2.8-1.1,6.3-2.3,8.7c-0.8,1.5-2.7,1.8-4,0.7c-2-1.8-4.5-5-5-9.5
			c-0.7-7.6,0-9,0-9L40.2,311.1z"/>
		<path class="st7" d="M25.4,219c0,0-0.8,9.6,0,20.3c0.8,10.6,3.7,60.4,4.2,72.4c0,0-0.3,3.6,6.7,2.8c7-0.8,6.4-4.8,6.4-4.8
			s9.9-0.1,10.2-5.9c0.3-5.8,10.1-69.3,10.1-92.2L25.4,219z"/>
		<polygon class="st11" points="59.7,169.3 65.4,204.1 70.5,204 70.1,172.1 		"/>
		<path class="st2" d="M57.3,138.5c0,0,7.7-0.2,10.3,10.9c2.7,11.1,4.8,25,2.4,26.1c-7,3.5-11.4-0.6-11.4-0.6L57.3,138.5z"/>
		<path class="st2" d="M59.6,139c-1.3-0.5-2.8-0.6-4.1-0.2c-6.5,1.9-31.1,9.1-35.2,12.5c-4.7,4,7,26.5,6.8,33.8
			c-0.2,7.4-1,16-1.7,24.1c-0.7,8-1.5,12.4,5,15.8c6.5,3.4,17.7,3.6,26.1-2.8c8.4-6.4,6.9-10.7,6.5-15.4s-3.2-24.7-2.9-30.3
			c0,0,3-2.2,5.1-5.9c2.2-3.7-1.7-10.6-3.3-15c-1.6-4.5,0.9-9.5,0.4-13.2C62.2,140.5,61,139.6,59.6,139z"/>
		<path class="st3" d="M51.7,146.7c0.5,4-3.2,7.9-8.3,8.5c-5.1,0.7-9.6-2.1-10.2-6.1c-0.5-4,3.2-7.9,8.3-8.5
			C46.7,139.9,51.2,142.6,51.7,146.7z"/>
		<path class="st11" d="M49.1,147c0.4,2.9-2.3,5.6-5.9,6.1c-3.6,0.5-6.9-1.5-7.3-4.4c-0.4-2.9,2.3-5.6,5.9-6.1
			C45.5,142.2,48.7,144.1,49.1,147z"/>
		<path class="st11" d="M45.5,137.5c0,0-4.4-3.6-5.3-1.8c-0.9,1.8-1.6,9.8-1.6,9.8l8.8,2.4l-1.3-8C46.1,139.8,47.8,138.3,45.5,137.5
			z"/>
		
			<ellipse transform="matrix(0.6251 -0.7805 0.7805 0.6251 -82.6581 84.0122)" class="st11" cx="46.1" cy="128.1" rx="13.1" ry="13.1"/>
		<path class="st12" d="M39.6,138c-0.1,0.4-0.2,0.9-0.2,1.3c0.9,4.6,7.7,6.6,7.7,6.6l-1-6.1c0,0,0.8-0.7,0.6-1.4
			C44,137.6,40.6,136.8,39.6,138z"/>
		
			<ellipse transform="matrix(0.6251 -0.7805 0.7805 0.6251 -82.6581 84.0122)" class="st11" cx="46.1" cy="128.1" rx="13.1" ry="13.1"/>
		<polygon class="st11" points="13.7,183.7 15.2,218.9 20.4,219.4 23.7,187.7 		"/>
		<path class="st1" d="M30.6,180.8c-1.7-7.5-5.1-24.1-5.1-24.1l-1.4,16.5c1.7,4.9,3.1,9.4,3,12c-0.1,4.3-0.4,9.1-0.8,13.9l0,0
			C26.4,199.1,32.3,188.3,30.6,180.8z"/>
		<path class="st2" d="M21.3,150.6c0,0-4.1,1.6-6.4,14.2c-2.3,12.6-4.1,25.3,0.1,26.9c4.1,1.6,7.6,2.9,8.8-0.5
			c1.2-3.4,2-19.7,2.1-25.5C26.1,159.8,26.3,151.8,21.3,150.6z"/>
		<path class="st0" d="M42.8,309.6c0,0,1.2,0,2.8-0.3l0,0l1.9-77.3L42.8,309.6z"/>
		<g>
			<path class="st13" d="M35.4,267.8l-2.7-3.6L3.9,247.6c-0.9-0.5-1.7-2-1.7-3.2l0-23.6l-1.7-2.2l1.6-0.9l0,0
				c0.3-0.2,0.7-0.2,1.1,0.1l32.6,18.9c0.9,0.5,1.7,2,1.7,3.2l0,25.7c0,0.7-0.2,1.2-0.6,1.4l0,0L35.4,267.8z"/>
			<path class="st14" d="M15.5,254.3l-2-1.2L2.2,233.6l0-12.8l-1.7-2.2l1.6-0.9l0,0c0.3-0.2,0.7-0.2,1.1,0.1l32.6,18.9
				c0.5,0.3,0.9,0.8,1.2,1.4L15.5,254.3z"/>
			<path class="st14" d="M1.3,219.6l-0.7-1l1.6-0.9l0,0c0.3-0.2,0.7-0.2,1.1,0.1l0.6,0.3L1.3,219.6z"/>
			<path class="st13" d="M36.2,236.9c0.7,0.6,1.3,1.7,1.4,2.7l-3.2,1.8l-1.5-2.7L36.2,236.9z"/>
			<path class="st15" d="M34.3,237.6L1.7,218.7c-0.9-0.5-1.7,0-1.7,1.3l0,25.7c0,1.2,0.7,2.7,1.7,3.2l32.6,18.9
				c0.9,0.5,1.7,0,1.7-1.3l0-25.7C36,239.6,35.2,238.1,34.3,237.6z"/>
		</g>
		<path class="st11" d="M15.3,218.6c0,0-1.4,8.2-1.2,10.8c0.2,2.6,1.6,7,2.7,6.9c1.1-0.1,0-10.6,1.9-9.5c1.9,1,2.1,2.8,2.9,2.2
			c0.8-0.6-1.5-9.6-0.9-13.5C21.4,211.6,15.3,218.6,15.3,218.6z"/>
		<path class="st11" d="M70.5,204c0,0,1.4,8.2,1.2,10.8c-0.2,2.6-1.6,7-2.7,6.9c-1.1-0.1,0-10.6-1.9-9.5c-1.9,1-2.1,2.8-2.9,2.2
			c-0.8-0.6,1.5-9.6,0.9-13.5C64.4,197,70.5,204,70.5,204z"/>
		<path class="st12" d="M51.2,129.2c6.6,2.3,7.9,0.9,7.9,0.8c0.1-0.4,0.1-0.8,0.1-1.2c0.1-1.5-0.1-2.9-0.4-4.2l-17.1-2.3
			C41.7,122.3,44.4,126.8,51.2,129.2z"/>
		<path class="st0" d="M59.7,115.7c-1.6-1.3-7.2-7.9-17.2-6.4c-6.3,1-11.6,5.3-12.7,15c-0.8,6.6,1.6,13.1,6.1,17.9
			c0.2-0.1,0.5-0.2,0.7-0.4c2.5-1.7,2.8-2.6,2.8-2.6l0.6-5c0-0.7-0.5-1.3-1.3-1.4c-0.5,0-1.2-0.3-1.8-1.1c-1.4-1.9-0.8-4.8,2.1-4.9
			c1.5-0.1,2.1-0.9,2.3-1.6c0.2-0.7,0.9-1,1.5-0.8c3.3,1.2,11.4,3.7,16.6,2.3C66,124.8,61.3,117.1,59.7,115.7z"/>
		<path class="st3" d="M52.2,135.1l4-1.1c0,0-1.9,3-4.7,3.8c-2.8,0.8-3.2-1.6-3.2-1.6L52.2,135.1z"/>
		<polygon class="st14" points="22.1,228.7 18.7,226.8 20,228.9 21.7,229.5 		"/>
		<path class="st6" d="M114.2,388.1l-39.1-22.6c-2.4-1.4-2.1-3.8,0.7-5.4l37.7-21.8c2.8-1.6,7-1.8,9.4-0.4l39.1,22.6
			c2.4,1.4,2.1,3.8-0.7,5.4l-37.7,21.8C120.8,389.3,116.6,389.5,114.2,388.1z"/>
		<g>
			<path class="st8" d="M174.9,343.3L174.9,343.3v-16.9l-37.8,0l-13.1-7.6c-3-1.7-8.2-1.5-11.7,0.5l-12.2,7l-37.9,0v17.4
				c-0.1,1.2,0.6,2.3,2,3.1l48.9,28.2c3,1.7,8.2,1.5,11.7-0.5l47.2-27.3C174,346.2,175,344.7,174.9,343.3z"/>
			<path class="st8" d="M118.5,317.7c-2.2,0.1-4.5,0.6-6.3,1.6l-12.2,7l-37.9,0v17.4c-0.1,1.2,0.6,2.3,2,3.1l48.9,28.2
				c1.4,0.8,3.4,1.2,5.4,1.2V317.7z"/>
			<path class="st4" d="M66.5,326.4l-4.3,0v17.4c-0.1,1.2,0.6,2.3,2,3.1l2.3,1.3V326.4z"/>
			<path class="st4" d="M113.9,375.5c2.6,1.1,6.3,1,9.4-0.1v-19.7h-9.4V375.5z"/>
			<path class="st5" d="M113.1,357.8l-48.9-28.2c-3-1.7-2.6-4.8,0.8-6.8l47.2-27.3c3.5-2,8.7-2.2,11.7-0.5l48.9,28.2
				c3,1.7,2.6,4.8-0.8,6.8l-47.2,27.3C121.4,359.4,116.1,359.6,113.1,357.8z"/>
			<path class="st4" d="M114,352.8l-41-23.7c-2.5-1.5-2.2-4,0.7-5.7l39.6-22.9c2.9-1.7,7.3-1.9,9.8-0.4l41,23.7
				c2.5,1.5,2.2,4-0.7,5.7l-39.6,22.9C120.9,354,116.5,354.2,114,352.8z"/>
			<g>
				<path class="st5" d="M156.9,347.8c0,1.3-0.9,2.8-2,3.4c-1.1,0.6-2,0.1-2-1.1c0-1.3,0.9-2.8,2-3.4
					C156,346,156.9,346.5,156.9,347.8z"/>
				<path class="st5" d="M163.3,344.1c0,1.3-0.9,2.8-2,3.4c-1.1,0.6-2,0.1-2-1.1c0-1.3,0.9-2.8,2-3.4
					C162.4,342.4,163.3,342.9,163.3,344.1z"/>
				<path class="st5" d="M169.6,340.5c0,1.3-0.9,2.8-2,3.4c-1.1,0.6-2,0.1-2-1.1s0.9-2.8,2-3.4C168.7,338.7,169.6,339.2,169.6,340.5
					z"/>
			</g>
		</g>
		<g>
			<path class="st8" d="M174.9,316.4L174.9,316.4v-16.9l-37.8,0l-13.1-7.6c-3-1.7-8.2-1.5-11.7,0.5l-12.2,7l-37.9,0v17.4
				c-0.1,1.2,0.6,2.3,2,3.1l48.9,28.2c3,1.7,8.2,1.5,11.7-0.5l47.2-27.3C174,319.3,175,317.8,174.9,316.4z"/>
			<path class="st8" d="M118.5,290.8c-2.2,0.1-4.5,0.6-6.3,1.6l-12.2,7l-37.9,0v17.4c-0.1,1.2,0.6,2.3,2,3.1l48.9,28.2
				c1.4,0.8,3.4,1.2,5.4,1.2V290.8z"/>
			<path class="st4" d="M66.5,299.4l-4.3,0v17.4c-0.1,1.2,0.6,2.3,2,3.1l2.3,1.3V299.4z"/>
			<path class="st4" d="M113.9,348.5c2.6,1.1,6.3,1,9.4-0.1v-19.7h-9.4V348.5z"/>
			<path class="st5" d="M113.1,330.9l-48.9-28.2c-3-1.7-2.6-4.8,0.8-6.8l47.2-27.3c3.5-2,8.7-2.2,11.7-0.5l48.9,28.2
				c3,1.7,2.6,4.8-0.8,6.8l-47.2,27.3C121.4,332.4,116.1,332.6,113.1,330.9z"/>
			<path class="st4" d="M114,325.8l-41-23.7c-2.5-1.5-2.2-4,0.7-5.7l39.6-22.9c2.9-1.7,7.3-1.9,9.8-0.4l41,23.7
				c2.5,1.5,2.2,4-0.7,5.7l-39.6,22.9C120.9,327.1,116.5,327.2,114,325.8z"/>
			<g>
				<path class="st5" d="M156.9,320.8c0,1.3-0.9,2.8-2,3.4c-1.1,0.6-2,0.1-2-1.1c0-1.3,0.9-2.8,2-3.4
					C156,319.1,156.9,319.6,156.9,320.8z"/>
				<path class="st5" d="M163.3,317.2c0,1.3-0.9,2.8-2,3.4c-1.1,0.6-2,0.1-2-1.1s0.9-2.8,2-3.4S163.3,315.9,163.3,317.2z"/>
				<path class="st5" d="M169.6,313.5c0,1.3-0.9,2.8-2,3.4c-1.1,0.6-2,0.1-2-1.1s0.9-2.8,2-3.4C168.7,311.7,169.6,312.2,169.6,313.5
					z"/>
			</g>
		</g>
		<g>
			<path class="st8" d="M174.9,289.4L174.9,289.4v-16.9l-37.8,0L124,265c-3-1.7-8.2-1.5-11.7,0.5l-12.2,7l-37.9,0v17.4
				c-0.1,1.2,0.6,2.3,2,3.1l48.9,28.2c3,1.7,8.2,1.5,11.7-0.5l47.2-27.3C174,292.3,175,290.8,174.9,289.4z"/>
			<path class="st8" d="M118.5,263.8c-2.2,0.1-4.5,0.6-6.3,1.6l-12.2,7l-37.9,0v17.4c-0.1,1.2,0.6,2.3,2,3.1l48.9,28.2
				c1.4,0.8,3.4,1.2,5.4,1.2V263.8z"/>
			<path class="st4" d="M66.5,272.5l-4.3,0v17.4c-0.1,1.2,0.6,2.3,2,3.1l2.3,1.3V272.5z"/>
			<path class="st4" d="M113.9,321.6c2.6,1.1,6.3,1,9.4-0.1v-19.7h-9.4V321.6z"/>
			<path class="st5" d="M113.1,303.9l-48.9-28.2c-3-1.7-2.6-4.8,0.8-6.8l47.2-27.3c3.5-2,8.7-2.2,11.7-0.5l48.9,28.2
				c3,1.7,2.6,4.8-0.8,6.8l-47.2,27.3C121.4,305.4,116.1,305.6,113.1,303.9z"/>
			<path class="st4" d="M114,298.8l-41-23.7c-2.5-1.5-2.2-4,0.7-5.7l39.6-22.9c2.9-1.7,7.3-1.9,9.8-0.4l41,23.7
				c2.5,1.5,2.2,4-0.7,5.7l-39.6,22.9C120.9,300.1,116.5,300.3,114,298.8z"/>
			<g>
				<path class="st5" d="M156.9,293.9c0,1.3-0.9,2.8-2,3.4c-1.1,0.6-2,0.1-2-1.1c0-1.3,0.9-2.8,2-3.4
					C156,292.1,156.9,292.6,156.9,293.9z"/>
				<path class="st5" d="M163.3,290.2c0,1.3-0.9,2.8-2,3.4c-1.1,0.6-2,0.1-2-1.1s0.9-2.8,2-3.4S163.3,288.9,163.3,290.2z"/>
				<path class="st5" d="M169.6,286.5c0,1.3-0.9,2.8-2,3.4c-1.1,0.6-2,0.1-2-1.1s0.9-2.8,2-3.4C168.7,284.7,169.6,285.3,169.6,286.5
					z"/>
			</g>
		</g>
		<g>
			<path class="st8" d="M174.9,262.4L174.9,262.4v-16.9l-37.8,0L124,238c-3-1.7-8.2-1.5-11.7,0.5l-12.2,7l-37.9,0v17.4
				c-0.1,1.2,0.6,2.3,2,3.1l48.9,28.2c3,1.7,8.2,1.5,11.7-0.5l47.2-27.3C174,265.3,175,263.8,174.9,262.4z"/>
			<path class="st8" d="M118.5,236.8c-2.2,0.1-4.5,0.6-6.3,1.6l-12.2,7l-37.9,0v17.4c-0.1,1.2,0.6,2.3,2,3.1l48.9,28.2
				c1.4,0.8,3.4,1.2,5.4,1.2V236.8z"/>
			<path class="st4" d="M66.5,245.5l-4.3,0v17.4c-0.1,1.2,0.6,2.3,2,3.1l2.3,1.3V245.5z"/>
			<path class="st4" d="M113.9,294.6c2.6,1.1,6.3,1,9.4-0.1v-19.7h-9.4V294.6z"/>
			<path class="st5" d="M113.1,276.9l-48.9-28.2c-3-1.7-2.6-4.8,0.8-6.8l47.2-27.3c3.5-2,8.7-2.2,11.7-0.5l48.9,28.2
				c3,1.7,2.6,4.8-0.8,6.8l-47.2,27.3C121.4,278.4,116.1,278.7,113.1,276.9z"/>
			<path class="st4" d="M114,271.8l-41-23.7c-2.5-1.5-2.2-4,0.7-5.7l39.6-22.9c2.9-1.7,7.3-1.9,9.8-0.4l41,23.7
				c2.5,1.5,2.2,4-0.7,5.7l-39.6,22.9C120.9,273.1,116.5,273.3,114,271.8z"/>
			<g>
				<path class="st5" d="M156.9,266.9c0,1.3-0.9,2.8-2,3.4c-1.1,0.6-2,0.1-2-1.1s0.9-2.8,2-3.4C156,265.1,156.9,265.6,156.9,266.9z"
					/>
				<path class="st5" d="M163.3,263.2c0,1.3-0.9,2.8-2,3.4c-1.1,0.6-2,0.1-2-1.1c0-1.3,0.9-2.8,2-3.4S163.3,262,163.3,263.2z"/>
				<path class="st5" d="M169.6,259.5c0,1.3-0.9,2.8-2,3.4c-1.1,0.6-2,0.1-2-1.1s0.9-2.8,2-3.4C168.7,257.8,169.6,258.3,169.6,259.5
					z"/>
			</g>
		</g>
		<g>
			<path class="st8" d="M174.9,235.5L174.9,235.5v-16.9l-37.8,0L124,211c-3-1.7-8.2-1.5-11.7,0.5l-12.2,7l-37.9,0v17.4
				c-0.1,1.2,0.6,2.3,2,3.1l48.9,28.2c3,1.7,8.2,1.5,11.7-0.5l47.2-27.3C174,238.3,175,236.9,174.9,235.5z"/>
			<path class="st8" d="M118.5,209.8c-2.2,0.1-4.5,0.6-6.3,1.6l-12.2,7l-37.9,0v17.4c-0.1,1.2,0.6,2.3,2,3.1l48.9,28.2
				c1.4,0.8,3.4,1.2,5.4,1.2V209.8z"/>
			<path class="st4" d="M66.5,218.5l-4.3,0v17.4c-0.1,1.2,0.6,2.3,2,3.1l2.3,1.3V218.5z"/>
			<path class="st4" d="M113.9,267.6c2.6,1.1,6.3,1,9.4-0.1v-19.7h-9.4V267.6z"/>
			<path class="st5" d="M113.1,250l-48.9-28.2c-3-1.7-2.6-4.8,0.8-6.8l47.2-27.3c3.5-2,8.7-2.2,11.7-0.5l48.9,28.2
				c3,1.7,2.6,4.8-0.8,6.8l-47.2,27.3C121.4,251.5,116.1,251.7,113.1,250z"/>
			<path class="st4" d="M114,244.9l-41-23.7c-2.5-1.5-2.2-4,0.7-5.7l39.6-22.9c2.9-1.7,7.3-1.9,9.8-0.4l41,23.7
				c2.5,1.5,2.2,4-0.7,5.7l-39.6,22.9C120.9,246.1,116.5,246.3,114,244.9z"/>
			<g>
				
					<rect x="134" y="246.5" transform="matrix(0.8663 -0.4995 0.4995 0.8663 -103.9176 105.576)" class="st3" width="22.7" height="0.8"/>
				<path class="st5" d="M156.9,239.9c0,1.3-0.9,2.8-2,3.4c-1.1,0.6-2,0.1-2-1.1c0-1.3,0.9-2.8,2-3.4
					C156,238.1,156.9,238.7,156.9,239.9z"/>
				<path class="st5" d="M163.3,236.2c0,1.3-0.9,2.8-2,3.4s-2,0.1-2-1.1c0-1.3,0.9-2.8,2-3.4S163.3,235,163.3,236.2z"/>
				<path class="st5" d="M169.6,232.6c0,1.3-0.9,2.8-2,3.4c-1.1,0.6-2,0.1-2-1.1c0-1.3,0.9-2.8,2-3.4
					C168.7,230.8,169.6,231.3,169.6,232.6z"/>
			</g>
		</g>
		<g>
			<path class="st8" d="M174.9,208.3L174.9,208.3v-16.9l-37.8,0l-13.1-7.6c-3-1.7-8.2-1.5-11.7,0.5l-12.2,7l-37.9,0v17.4
				c-0.1,1.2,0.6,2.3,2,3.1l48.9,28.2c3,1.7,8.2,1.5,11.7-0.5l47.2-27.3C174,211.2,175,209.7,174.9,208.3z"/>
			<path class="st8" d="M118.5,182.7c-2.2,0.1-4.5,0.6-6.3,1.6l-12.2,7l-37.9,0v17.4c-0.1,1.2,0.6,2.3,2,3.1l48.9,28.2
				c1.4,0.8,3.4,1.2,5.4,1.2V182.7z"/>
			<path class="st4" d="M66.5,191.4l-4.3,0v17.4c-0.1,1.2,0.6,2.3,2,3.1l2.3,1.3V191.4z"/>
			<path class="st4" d="M113.9,240.5c2.6,1.1,6.3,1,9.4-0.1v-19.7h-9.4V240.5z"/>
			<path class="st5" d="M113.1,222.8l-48.9-28.2c-3-1.7-2.6-4.8,0.8-6.8l47.2-27.3c3.5-2,8.7-2.2,11.7-0.5l48.9,28.2
				c3,1.7,2.6,4.8-0.8,6.8l-47.2,27.3C121.4,224.3,116.1,224.5,113.1,222.8z"/>
			<path class="st3" d="M172,191.7L124.8,219c-3.5,2-8.7,2.2-11.7,0.5l-48.9-28.2c-0.7-0.4-1.2-0.8-1.5-1.3c-1,1.7-0.6,3.5,1.5,4.7
				l48.9,28.2c3,1.7,8.2,1.5,11.7-0.5l47.2-27.3c2.7-1.6,3.5-3.7,2.3-5.4C173.9,190.4,173.1,191.1,172,191.7z"/>
			<g>
				<path class="st5" d="M156.9,212.8c0,1.3-0.9,2.8-2,3.4c-1.1,0.6-2,0.1-2-1.1s0.9-2.8,2-3.4C156,211,156.9,211.5,156.9,212.8z"/>
				<path class="st5" d="M137.4,223.5c0,1.3-0.9,2.8-2,3.4c-1.1,0.6-2,0.1-2-1.1c0-1.3,0.9-2.8,2-3.4
					C136.6,221.7,137.4,222.2,137.4,223.5z"/>
				<path class="st3" d="M137.4,251.4c0,1.3-0.9,2.8-2,3.4c-1.1,0.6-2,0.1-2-1.1c0-1.3,0.9-2.8,2-3.4
					C136.6,249.7,137.4,250.2,137.4,251.4z"/>
				<path class="st5" d="M163.3,209.1c0,1.3-0.9,2.8-2,3.4c-1.1,0.6-2,0.1-2-1.1c0-1.3,0.9-2.8,2-3.4
					C162.4,207.3,163.3,207.8,163.3,209.1z"/>
				<path class="st5" d="M169.6,205.4c0,1.3-0.9,2.8-2,3.4c-1.1,0.6-2,0.1-2-1.1c0-1.3,0.9-2.8,2-3.4
					C168.7,203.6,169.6,204.2,169.6,205.4z"/>
			</g>
			<g>
				<path class="st4" d="M116,205.3l-22.9-13.2c-1.4-0.8-1.2-2.2,0.4-3.2l22.1-12.8c1.6-0.9,4.1-1,5.5-0.2l22.9,13.2
					c1.4,0.8,1.2,2.2-0.4,3.2l-22.1,12.8C119.9,206,117.4,206.1,116,205.3z"/>
				<path class="st5" d="M118.2,194.2l-3.2-1.8c-0.2-0.1-0.2-0.3,0.1-0.4l3.1-1.8c0.2-0.1,0.6-0.1,0.8,0l3.2,1.8
					c0.2,0.1,0.2,0.3-0.1,0.4l-3.1,1.8C118.7,194.3,118.4,194.3,118.2,194.2z"/>
				<path class="st8" d="M93.1,192.1L93.1,192.1c0.2,0,0.3-0.1,0.4-0.2l22.1-12.8c1.6-0.9,4.1-1,5.5-0.2l22.8,13.2
					c1.3-0.9,1.4-2.2,0.1-2.9l-22.9-13.2c-1.4-0.8-3.9-0.7-5.5,0.2l-22.1,12.8C91.9,189.9,91.7,191.3,93.1,192.1z"/>
			</g>
		</g>
		<path class="st10" d="M213.9,389.8c2.7,1.2,4.4,4.2,4.2,7.4c-0.1,1.5-0.3,3-0.6,3.6c-0.9,1.8-3.7,4.3-8.2,2.5
			c-4.5-1.8-14.6-11.2-14.9-17.4C193.6,374.5,206.8,386.8,213.9,389.8z"/>
		<path class="st10" d="M187.3,408.8c0,0,1.1,6.6,0.6,7.8c-0.5,1.2-3.7,3.8-8.3,3.2c-4.6-0.6-18-5.2-21-14c-4.6-13.7,25.8,1,25.8,1
			L187.3,408.8z"/>
		<path class="st7" d="M174.3,303.1l-1,103.2c0.1,3.6,2.5,6.6,5.6,7.2c0.4,0.1,0.8,0.1,1.3,0.2c3.2,0.3,5.1-1.1,6.1-2.5
			c0.9-1.2,1.3-2.7,1.4-4.2l1.3-44.1l6.6-39.4l9.1,69.7c0.1,1.9,1,3.6,2.5,4.6c1,0.7,2.4,1.2,4.2,1.1c2.6-0.1,4.4-1.5,5.5-2.7
			c0.9-1,1.3-2.3,1.3-3.7l-3.6-42l-1.3-53.5L174.3,303.1z"/>
		<path class="st11" d="M217.4,269.2c-0.2,0-0.4,0-0.6,0l-16.5-2.6c-2-0.3-3.4-2.2-3.1-4.2c0.3-2,2.2-3.4,4.2-3.1l11.4,1.8
			l-3.9-22.2c-0.4-2,1-3.9,3-4.3c2-0.4,3.9,1,4.3,3l4.8,27.3c0.2,1.2-0.2,2.4-1,3.2C219.3,268.8,218.4,269.2,217.4,269.2z"/>
		<path class="st13" d="M202.3,216.4c0,0,5.5-0.3,12.6,14.3c7.1,14.6-2.6,19.3-2.6,19.3L202.3,216.4z"/>
		<path class="st13" d="M187.2,220.2c0.2-0.1,15.2-9.7,20.7,0.3c9,16.4,8.5,69.3,5.6,76.2c-2.6,6.3-9.2,11-13.8,13.7
			c-4.1,2.3-8.7,3.8-13.4,3.8c-4.7,0-13.6-4.1-13.3-10.2c1.5-28.1-1-51.8-3.3-74.8C169.8,229.2,172.6,226.1,187.2,220.2z"/>
		<g>
			<path class="st11" d="M163.6,277.6c0.4,0,0.8-0.1,1.2-0.3c1.1-0.5,1.9-1.6,2.1-3l7.1-20.7c0.3-2.1-3.4-10.5-5.3-10.8
				c-1.9-0.4-6.7,3.4-7.1,5.6l-1.7,18.5l-14.9-4.8c-1.8-1-3.3-2.9-4.4-1.1c-1.1,1.8-0.6,4.2,1,5.5l19.9,10.6
				C162.2,277.4,162.9,277.7,163.6,277.6z"/>
		</g>
		<path class="st11" d="M143.9,261.5l-1.1-2.7c-0.4-1-1-1.8-1.8-2.6l-4.6-4.3c-0.4-0.4-1-0.3-1.3,0.1l0,0c-0.3,0.3-0.2,0.8,0.1,1.1
			l1.9,2.1c0.3,0.3,0.4,0.8,0.3,1.3l-0.7,2.1c-0.2,0.7-0.1,1.5,0.4,2l4.6,5.6L143.9,261.5z"/>
		<path class="st13" d="M169.8,229.2c0,0-10,7.7-11.5,31.1c0,0-0.2,2.6,5.6,4.2c5.8,1.6,9.7-2.9,9.7-2.9S180.2,246.1,169.8,229.2z"
			/>
		<path class="st11" d="M188.6,211.2l1.6,9.4c0,0,0.1,3.2-3.5,4.1c-3.6,0.9-4.7-1.4-4.7-1.4l-1.6-10.6L188.6,211.2z"/>
		<path class="st11" d="M169.2,211.5c3.9,7.5,12.4,10.8,19.1,7.3c6.7-3.5,8.9-12.4,5.1-19.9c-3.9-7.5-12.4-10.8-19.1-7.3
			C167.6,195.1,165.3,204,169.2,211.5z"/>
		<path class="st7" d="M178.9,210.1c-0.6,0.1-1.1-0.1-1.5-0.5c-0.7-0.7-1-4.5-2.8-4.8c-2.9-0.5-8.7,4-11-5.6c-1.2-5,1-6.8,0.5-9.5
			c0,0,0,1.4,12.9-1.7c12.9-3.1,19.1,7.7,20.3,13.2c1.3,5.4,0.2,14.9-8.5,17.7c-1.4,0.5-8.5-3.5-8.4-4.1c0-0.7,2.4-1,1.7-2.9
			C181.4,210.3,180.4,209.9,178.9,210.1z"/>
		<path class="st16" d="M195.5,323.4l9.1,69.7c0.1,1.9,1,3.6,2.5,4.6c0.2,0.2,0.5,0.3,0.8,0.4c-1.9-1.4-7.4-60-8.4-66.5
			C198.5,325.2,195.5,323.4,195.5,323.4z"/>
	</g>
</g>
</svg>
