<?xml version="1.0" encoding="utf-8"?>
<!-- Generator: Adobe Illustrator 23.0.3, SVG Export Plug-In . SVG Version: 6.00 Build 0)  -->
<svg version="1.1" id="Layer_1" xmlns="http://www.w3.org/2000/svg" xmlns:xlink="http://www.w3.org/1999/xlink" x="0px" y="0px"
	 viewBox="0 0 447.5 460.9" style="enable-background:new 0 0 447.5 460.9;" xml:space="preserve">
<style type="text/css">
	.st0{fill:#0A2E63;}
	.st1{fill:#E5EEFE;}
	.st2{fill:#4C59E0;}
	.st3{fill:none;}
	.st4{opacity:0.1;}
	.st5{opacity:0.3;clip-path:url(#SVGID_2_);}
	.st6{clip-path:url(#SVGID_4_);fill:#444444;}
	.st7{clip-path:url(#SVGID_6_);fill:#444444;}
	.st8{clip-path:url(#SVGID_8_);fill:#444444;}
	.st9{clip-path:url(#SVGID_10_);fill:#444444;}
	.st10{clip-path:url(#SVGID_12_);fill:#444444;}
	.st11{clip-path:url(#SVGID_14_);fill:#444444;}
	.st12{fill:#78D2FF;}
	.st13{fill:#F0F0FC;}
	.st14{fill:#DAF3FF;}
	.st15{fill:#46B09E;}
	.st16{fill:#FFD23C;}
	.st17{fill:#31C9AC;}
	.st18{fill:#B7B7CE;}
	.st19{opacity:0.3;}
	.st20{clip-path:url(#SVGID_16_);}
	.st21{clip-path:url(#SVGID_18_);}
	.st22{fill:#FFFFFF;}
	.st23{fill:#E1E0FE;}
	.st24{fill:#CACAED;}
	.st25{opacity:0.5;}
	.st26{clip-path:url(#SVGID_20_);fill:#627AF4;}
	.st27{clip-path:url(#SVGID_22_);fill:#627AF4;}
	.st28{clip-path:url(#SVGID_24_);fill:#627AF4;}
	.st29{clip-path:url(#SVGID_26_);fill:#627AF4;}
	.st30{clip-path:url(#SVGID_28_);fill:#444444;}
	.st31{clip-path:url(#SVGID_30_);fill:#444444;}
	.st32{clip-path:url(#SVGID_32_);fill:#444444;}
	.st33{fill:#B4B4DB;}
	.st34{fill:#474E5D;}
	.st35{fill:#8683E4;}
	.st36{opacity:0.2;}
	.st37{clip-path:url(#SVGID_34_);fill:#FFFFFF;}
	.st38{clip-path:url(#SVGID_36_);fill:#444444;}
	.st39{clip-path:url(#SVGID_38_);fill:#444444;}
	.st40{fill:#E1E1EF;}
	.st41{fill:#CECDE8;}
	.st42{fill:#FF2C9C;}
	.st43{fill:#163C79;}
	.st44{fill:#DBDBE6;}
	.st45{fill:#5468DA;}
	.st46{fill:#9696CC;}
	.st47{fill:#72D0FF;}
</style>
<path class="st0" d="M346.9,58c-22.7-10.7-48.1-20.2-72.3-13.6c-9.8,2.7-18.8,7.9-28.6,10.5c-11.6,3.1-23.9,2.6-35.8,0.9
	c-27.9-4-55.1-14-83.3-14.5c-28.2-0.5-59.7,12.2-69.1,38.8c-4.3,12.1-3.4,25.3-3.6,38.1c-0.5,32.3-8.3,64.4-22.5,93.4
	C19,237.4,0.8,265.5,10.8,292.4c11.5,30.8,53.3,39.7,68.8,68.6c9,16.9,7.3,37.2,5.6,56.3c-0.3,3.6-0.6,7.4,0.5,10.8
	c2,6.1,8.1,9.8,14,12.3c23.2,9.6,49.8,6,73.8-1.2c12.2-3.6,24.2-8.2,34.5-15.6c10.3-7.4,18.6-17.3,29.5-23.6
	c20-11.5,44.7-9,67.7-7.7c20.4,1.1,40.8,0.9,61.1-0.6c13.5-1,27.2-2.7,39.5-8.4c12.3-5.7,23-16.1,26.1-29.3
	c3.8-16.5-5.2-33.6-17.7-45.1c-6.6-6.1-14.2-11.1-20.6-17.5c-21.6-21.3-27.1-54.1-26.7-84.4c0.3-21.3,3.4-43.8,16.6-60.4
	c6.4-8,14.9-14.2,20.8-22.6C437,78.9,376.5,71.9,346.9,58"/>
<path class="st1" d="M328.6,420.2c-13,0-26.3-1.1-38.8-4.8c-6.7-2-13.2-4.7-19.5-7.3c-4.5-1.9-9.1-3.8-13.7-5.4
	c-16.6-5.9-34-8.4-50.3-10.5c-21.4-2.7-44.1-5.1-66.7-1.6c-8.2,1.3-16.5,3.4-24.6,5.4c-15.2,3.9-31,7.9-46.8,6.4
	c-8.5-0.8-14.7-3.2-18.8-7.3c-6.3-6.3-7.4-15.7-8.1-24.9c-1.1-16.1-2-34.8,0.8-53.1c1.5-9.7,4.1-19.4,6.5-28.7
	c2.6-9.7,5.2-19.7,6.7-29.8c2-13.6,2.9-39.1-13.2-56.1c-3.8-4-8.3-7.3-12.7-10.5c-4.6-3.4-9.4-6.8-13.3-11.1
	c-5.8-6.3-8.5-12.9-8-19.5c1.1-14,16.3-26.3,28.5-36.1c3.4-2.7,6.6-5.3,9.3-7.8l0.3,0.4l-0.3-0.4c30.7-27.8,62.5-56.5,101.6-72.8
	c33.9-14.1,83.3-19.8,120.3,6.9c6.7,4.8,12.9,10.6,18.8,16.3c4.3,4,8.7,8.2,13.3,12c15.1,12.4,33.2,21.4,52.3,25.8
	c4.6,1.1,9.4,1.9,14,2.7c11.6,2,23.6,4.1,33.9,10c15.9,9,27,27.2,29,47.3c1.7,17.7-3.4,37.1-14.3,54.6c-3.4,5.4-7.3,10.7-11,15.8
	c-7.6,10.2-15.4,20.8-19.1,33c-3.9,12.7-3.2,26.2-2.5,39.3l3.7,68.8c0.7,13.6,0.1,32.4-13.6,39.1c-4.5,2.2-9.7,2.5-14.3,2.8
	C348.6,419.6,338.7,420.2,328.6,420.2 M163.9,387.8c14.5,0,28.8,1.6,42.5,3.4c16.4,2.1,33.9,4.7,50.6,10.6c4.7,1.7,9.3,3.6,13.8,5.5
	c6.3,2.6,12.7,5.3,19.4,7.3c22.1,6.5,45.3,5,67.8,3.5c4.5-0.3,9.6-0.6,13.9-2.7c13.1-6.4,13.7-24.8,13-38.1l-3.7-68.8
	c-0.7-13.1-1.4-26.7,2.5-39.6c3.8-12.4,11.7-23,19.3-33.3c3.7-5.1,7.6-10.3,11-15.7c10.8-17.4,15.8-36.6,14.1-54
	c-1.9-19.8-12.8-37.6-28.5-46.5c-10.2-5.8-22.1-7.9-33.6-9.9c-4.6-0.8-9.4-1.6-14.1-2.7c-19.2-4.4-37.5-13.4-52.7-26
	c-4.6-3.8-9-8-13.3-12c-5.9-5.6-12-11.4-18.7-16.2c-36.7-26.4-85.7-20.8-119.3-6.7c-38.9,16.2-70.6,44.9-101.3,72.6
	c-2.7,2.5-5.9,5.1-9.4,7.8C25.1,135.8,10.1,148,9,161.5c-0.5,6.4,2.1,12.5,7.8,18.8c3.9,4.2,8.6,7.6,13.2,11
	c4.4,3.2,9,6.6,12.9,10.6c16.3,17.3,15.4,43.1,13.4,56.9c-1.5,10.1-4.1,20.2-6.7,29.9c-2.5,9.3-5,19-6.5,28.6
	c-2.8,18.2-1.9,36.8-0.8,52.9c0.6,9,1.7,18.2,7.8,24.2c4,4,10,6.3,18.2,7c15.7,1.4,31.3-2.5,46.5-6.4c8.1-2,16.4-4.2,24.7-5.5
	C147.6,388.3,155.8,387.8,163.9,387.8"/>
<path class="st2" d="M350,170.3c-1-0.2-2-0.3-3-0.5l0.1-1c1,0.1,2,0.3,3,0.5L350,170.3z"/>
<path class="st2" d="M339.8,319.5l-0.8-0.6c1.2-1.5,2.5-3,3.9-4.5l0.7,0.7C342.3,316.5,341,318,339.8,319.5 M347.7,310.9l-0.7-0.7
	c1.4-1.3,2.8-2.6,4.4-4l0.7,0.8C350.5,308.3,349.1,309.6,347.7,310.9 M356.6,303.2l-0.6-0.8c1.5-1.2,3-2.4,4.6-3.6l0.6,0.8
	C359.5,300.9,358,302,356.6,303.2 M365.9,296.1l-0.6-0.8c1.6-1.2,3.2-2.3,4.8-3.5l0.6,0.8C369.1,293.8,367.5,294.9,365.9,296.1
	 M375.4,289.2l-0.6-0.8c1.6-1.1,3.2-2.3,4.8-3.4l0.6,0.8C378.6,286.9,377,288.1,375.4,289.2 M384.9,282.2l-0.6-0.8l0.3-0.2
	c1.5-1.1,2.9-2.3,4.3-3.4l0.6,0.8c-1.4,1.2-2.9,2.3-4.3,3.4L384.9,282.2z M394,274.7l-0.7-0.7c1.5-1.3,2.9-2.7,4.3-4l0.7,0.7
	C396.9,272,395.5,273.4,394,274.7 M402.4,266.4l-0.7-0.7c1.3-1.5,2.6-3,3.8-4.5l0.8,0.6C405,263.4,403.7,264.9,402.4,266.4
	 M409.7,257.1l-0.8-0.6c1.1-1.6,2.1-3.3,3.1-5l0.9,0.5C411.8,253.7,410.8,255.4,409.7,257.1 M415.4,246.8l-0.9-0.4
	c0.8-1.8,1.5-3.6,2-5.4l1,0.3C416.9,243,416.2,244.9,415.4,246.8 M418.9,235.4l-1-0.2c0.3-1.9,0.5-3.9,0.6-5.8l1,0
	C419.4,231.5,419.2,233.5,418.9,235.4 M418.3,223.7c-0.2-1.9-0.5-3.8-1-5.7l1-0.2c0.5,1.9,0.8,3.9,1,5.9L418.3,223.7z M415.6,212.4
	c-0.7-1.8-1.5-3.6-2.4-5.3l0.9-0.5c0.9,1.8,1.8,3.6,2.5,5.4L415.6,212.4z M410.2,202.1c-1.1-1.6-2.3-3.2-3.5-4.7l0.8-0.6
	c1.3,1.5,2.5,3.1,3.6,4.7L410.2,202.1z M402.8,193.2c-1.4-1.4-2.8-2.7-4.3-3.9l0.6-0.8c1.5,1.3,3,2.6,4.4,4L402.8,193.2z
	 M393.8,185.8l-0.3-0.2c-1.5-1-3-1.9-4.6-2.8l0.5-0.9c1.6,0.9,3.2,1.9,4.7,2.9l0.3,0.2L393.8,185.8z M383.6,180.1
	c-1.7-0.8-3.5-1.6-5.4-2.3l0.4-0.9c1.9,0.7,3.7,1.5,5.4,2.4L383.6,180.1z M372.8,175.7c-1.8-0.6-3.7-1.2-5.6-1.7l0.3-1
	c1.9,0.5,3.8,1.1,5.6,1.7L372.8,175.7z M361.5,172.6c-1.8-0.4-3.8-0.8-5.7-1.2l0.2-1c2,0.4,3.9,0.8,5.8,1.2L361.5,172.6z"/>
<path class="st2" d="M334.7,326.7l-0.9-0.5c0.5-0.9,1.1-1.7,1.6-2.5l0.8,0.6C335.8,325.1,335.2,325.9,334.7,326.7"/>
<path class="st2" d="M62.4,417.1l0-1c2-0.1,4-0.2,5.9-0.5l0.1,1C66.4,416.8,64.4,417,62.4,417.1 M56.4,416.9c-2-0.2-4-0.4-6-0.8
	l0.2-1c1.9,0.4,3.9,0.6,5.9,0.8L56.4,416.9z M74.4,415.5l-0.2-1c1.9-0.5,3.8-1,5.7-1.7l0.3,0.9C78.3,414.4,76.3,415,74.4,415.5
	 M44.5,414.8c-1.9-0.6-3.9-1.2-5.7-2l0.4-0.9c1.8,0.7,3.7,1.4,5.6,2L44.5,414.8z M85.8,411.4l-0.4-0.9c0.8-0.4,1.7-0.9,2.5-1.3
	c0.9-0.5,1.8-1,2.7-1.6l0.5,0.8c-0.9,0.6-1.8,1.1-2.7,1.6C87.5,410.5,86.6,411,85.8,411.4 M33.3,410.1c-1.8-1-3.5-2.1-5.1-3.2
	l0.6-0.8c1.6,1.1,3.3,2.2,5,3.2L33.3,410.1z M96,405l-0.6-0.8c1.5-1.1,3-2.4,4.6-3.8l0.7,0.8C99.1,402.6,97.5,403.9,96,405
	 M23.5,403.1c-1.5-1.4-2.9-2.8-4.2-4.4l0.8-0.6c1.3,1.5,2.7,3,4.1,4.3L23.5,403.1z M105.2,397.2l-0.7-0.7c1.3-1.2,2.6-2.5,4.3-4.2
	l0.7,0.7C107.8,394.7,106.4,396,105.2,397.2 M15.7,393.8c-1.1-1.7-2.1-3.4-3-5.3l0.9-0.4c0.9,1.8,1.9,3.5,3,5.2L15.7,393.8z
	 M113.8,388.8l-0.7-0.7c1.4-1.4,2.9-2.8,4.3-4.2l0.7,0.7C116.6,386,115.2,387.4,113.8,388.8 M10.3,383c-0.7-1.9-1.3-3.8-1.8-5.8
	l1-0.2c0.5,1.9,1.1,3.8,1.7,5.7L10.3,383z M122.5,380.6l-0.7-0.8c0.9-0.8,1.8-1.6,2.8-2.4c0.6-0.5,1.2-1,1.8-1.5l0.6,0.8
	c-0.6,0.5-1.2,1-1.8,1.5C124.3,379,123.4,379.8,122.5,380.6 M131.9,373.3l-0.5-0.8c1.7-1.1,3.5-2.1,5.2-3l0.5,0.9
	C135.3,371.3,133.6,372.3,131.9,373.3 M7.4,371.2c-0.3-2-0.4-4-0.5-6l1,0c0,2,0.2,4,0.4,5.9L7.4,371.2z M142.5,367.9l-0.4-0.9
	c1.9-0.7,3.9-1.4,5.8-1.8l0.2,1C146.3,366.6,144.4,367.2,142.5,367.9 M169.6,367.9c-1.3-0.6-2.6-1.2-3.9-1.6l0.3-1
	c1.4,0.4,2.7,1,4,1.6L169.6,367.9z M154,365.1l-0.1-1c2.1-0.2,4.1-0.2,6.1,0l-0.1,1C158,365,156,365,154,365.1 M8.2,359.3l-1-0.1
	c0.2-2,0.5-4,1-6l1,0.2C8.7,355.3,8.4,357.3,8.2,359.3 M10.8,347.7l-0.9-0.3c0.7-1.9,1.5-3.7,2.4-5.5l0-0.1l0.9,0.5l0,0.1
	C12.2,344.1,11.5,345.9,10.8,347.7 M16.2,337.2l-0.8-0.6c1.1-1.6,2.2-3.2,3.6-4.9l0.8,0.6C18.4,334,17.3,335.6,16.2,337.2
	 M23.6,327.8l-0.7-0.7c1.2-1.3,2.5-2.7,4.1-4.4l0.7,0.7C26.1,325.1,24.8,326.5,23.6,327.8 M31.9,319.2l-0.7-0.7
	c1.4-1.4,2.8-2.9,4.1-4.3l0.7,0.7C34.7,316.3,33.3,317.7,31.9,319.2 M40.1,310.3l-0.8-0.7c1.3-1.5,2.5-3.1,3.7-4.7l0.8,0.6
	C42.7,307.2,41.4,308.8,40.1,310.3 M47.1,300.5l-0.9-0.5c1-1.8,1.9-3.5,2.7-5.3l0.9,0.4C49.1,296.9,48.2,298.7,47.1,300.5 M52,289.4
	l-1-0.3c0.6-2,0.9-3.9,1.2-5.8l1,0.1C52.9,285.4,52.5,287.4,52,289.4 M52.2,277.5c-0.2-2-0.6-3.9-1.2-5.7l0.9-0.3
	c0.7,1.9,1.1,3.9,1.3,6L52.2,277.5z"/>
<path class="st2" d="M256.6,206.5l-1-0.1c0.1-0.9,0.2-1.7,0.3-2.6l1,0.1C256.8,204.8,256.7,205.6,256.6,206.5 M258,198.1l-1-0.2
	c0.4-2,1-3.9,1.6-5.8l1,0.3C259,194.2,258.4,196.1,258,198.1 M261.6,186.7l-0.9-0.4c0.8-1.8,1.6-3.7,2.6-5.5l0.9,0.5
	C263.2,183.1,262.4,184.9,261.6,186.7 M267.1,176.2l-0.8-0.5c1.1-1.7,2.2-3.4,3.4-5l0.8,0.6C269.3,172.8,268.2,174.5,267.1,176.2
	 M274.3,166.7l-0.7-0.7c1.3-1.5,2.8-2.9,4.2-4.3l0.7,0.7C277,163.8,275.6,165.2,274.3,166.7 M283,158.5l-0.6-0.8
	c0.6-0.5,1.2-0.9,1.8-1.4c1-0.7,2-1.4,3.1-2.1l0.6,0.8c-1.1,0.7-2.1,1.4-3,2.1C284.2,157.6,283.6,158.1,283,158.5 M292.9,151.9
	l-0.5-0.9c1.7-1,3.5-2,5.2-3l0.5,0.9C296.4,149.9,294.6,150.9,292.9,151.9 M303.3,145.9l-0.5-0.9c2-1.2,3.6-2.2,5.1-3.1l0.5,0.8
	C306.9,143.7,305.3,144.7,303.3,145.9 M78,144.8l-1-0.1c0.2-1.9,0.3-3.9,0.4-6l1,0C78.3,140.9,78.2,142.9,78,144.8 M313.4,139.2
	l-0.6-0.8c1.7-1.3,3.1-2.6,4.5-3.9l0.7,0.7C316.5,136.6,315.1,137.9,313.4,139.2 M77.4,132.8c0-1.8-0.1-3.8-0.2-6l1,0
	c0.1,2.2,0.2,4.2,0.2,6L77.4,132.8z M321.9,130.7l-0.8-0.6c0.6-0.8,1.1-1.5,1.6-2.3c0.5-0.9,1-1.8,1.5-2.7l0.9,0.4
	c-0.5,1-1,1.9-1.5,2.8C323.1,129.1,322.5,129.9,321.9,130.7 M76.9,120.8l-0.4-6l1-0.1l0.4,6L76.9,120.8z M327.2,119.8l-1-0.3
	c0.5-1.9,0.8-3.8,0.9-5.8l1,0.1C328,115.9,327.7,117.9,327.2,119.8 M76.1,108.8c-0.1-2.2-0.2-4.2-0.2-6l1,0c0,1.8,0.1,3.8,0.2,6
	L76.1,108.8z M327.1,107.8c-0.2-1.9-0.6-3.9-1.1-5.8l1-0.3c0.5,2,0.9,4,1.1,6L327.1,107.8z M76.9,96.8l-1,0c0.1-2.1,0.2-4.1,0.4-6
	l1,0.1C77.1,92.8,77,94.7,76.9,96.8 M324,96.5c-0.8-1.8-1.8-3.5-2.9-5.1l0.8-0.6c1.1,1.7,2.1,3.4,3,5.3L324,96.5z M317.4,86.7
	c-1.4-1.4-2.9-2.7-4.5-3.8l0.6-0.8c1.7,1.1,3.2,2.4,4.7,3.9L317.4,86.7z M78.2,85l-1-0.2c0.4-2,0.9-4,1.5-5.9l1,0.3
	C79,81,78.5,83,78.2,85 M307.6,80.2c-1.7-0.7-3.6-1.4-5.6-1.9l0.2-1c2,0.5,4,1.2,5.8,1.9L307.6,80.2z M223.7,79
	c-1.9,0-3.7,0-5.4-0.2l0.1-1c1.7,0.1,3.4,0.1,5.3,0.1l0.6,0l0,1L223.7,79z M230.4,78.8l0-1c1.7-0.1,3.6-0.2,6-0.4l0.1,1
	C234,78.6,232.1,78.7,230.4,78.8 M212.3,78.2c-2.1-0.3-4-0.7-5.9-1.2l0.3-1c1.8,0.5,3.8,0.9,5.8,1.2L212.3,78.2z M242.3,78l-0.1-1
	l0.8-0.1c1.7-0.1,3.5-0.3,5.2-0.4l0.1,1c-1.7,0.1-3.5,0.2-5.2,0.4L242.3,78z M296.2,77.2c-1.9-0.3-3.8-0.4-5.9-0.6l0.1-1
	c2.2,0.1,4.1,0.3,6,0.6L296.2,77.2z M254.3,77.2l-0.1-1c2-0.1,4-0.2,6-0.3l0,1C258.3,77,256.3,77.1,254.3,77.2 M266.3,76.7l0-1
	c2-0.1,4-0.1,6-0.1l0,1C270.3,76.6,268.3,76.6,266.3,76.7 M284.3,76.4c-0.9,0-1.8,0-2.6,0l-1,0c-0.8,0-1.6,0-2.4,0l0-1
	c0.8,0,1.6,0,2.4,0l1,0c0.9,0,1.8,0,2.6,0L284.3,76.4z M200.6,75.1c-1.8-0.7-3.6-1.6-5.5-2.6l0.5-0.9c1.9,1,3.6,1.8,5.4,2.6
	L200.6,75.1z M81.7,73.7l-0.9-0.4c0.3-0.6,0.6-1.2,0.8-1.8c0.6-1.2,1.3-2.4,2-3.6l0.8,0.5c-0.7,1.1-1.4,2.3-2,3.5
	C82.2,72.5,81.9,73.1,81.7,73.7 M190,69.4c-1.5-0.9-3-2-5-3.3l0.6-0.8c2,1.4,3.5,2.4,5,3.3L190,69.4z M88,63.7L87.2,63
	c1.3-1.5,2.7-3,4.2-4.4l0.7,0.7C90.6,60.7,89.2,62.2,88,63.7 M180,62.6c-1.8-1.2-3.2-2.1-4.5-3l-0.5-0.3l0.5-0.8l0.5,0.3
	c1.3,0.9,2.7,1.8,4.5,3L180,62.6z M169.9,56.3c-1.7-1-3.5-1.9-5.3-2.8l0.4-0.9c1.8,0.9,3.6,1.8,5.3,2.8L169.9,56.3z M96.7,55.6
	l-0.6-0.8c1.6-1.2,3.3-2.3,5.1-3.3l0.5,0.9C100,53.4,98.3,54.5,96.7,55.6 M159.2,51.1c-1.9-0.8-3.7-1.5-5.6-2.1l0.3-0.9
	c1.9,0.6,3.8,1.3,5.7,2.1L159.2,51.1z M107,49.8l-0.4-0.9c1.8-0.8,3.7-1.5,5.7-2.1l0.3,1C110.7,48.3,108.8,49,107,49.8 M147.9,47.3
	c-1.9-0.5-3.9-0.9-5.8-1.2l0.2-1c2,0.3,3.9,0.8,5.9,1.3L147.9,47.3z M118.3,46.2l-0.2-1c2-0.4,4-0.7,6-0.9l0.1,1
	C122.3,45.5,120.3,45.8,118.3,46.2 M136.1,45.3c-2-0.2-4-0.3-5.9-0.3l0-1h0c2,0,4,0.1,6,0.3L136.1,45.3z"/>
<rect class="st3" width="447.5" height="460.9"/>
<g class="st4">
	<g>
		<defs>
			<rect id="SVGID_1_" x="61.8" y="116.3" width="303.4" height="317.7"/>
		</defs>
		<clipPath id="SVGID_2_">
			<use xlink:href="#SVGID_1_"  style="overflow:visible;"/>
		</clipPath>
		<g class="st5">
			<g>
				<defs>
					<rect id="SVGID_3_" x="61.8" y="116.3" width="245.9" height="187.3"/>
				</defs>
				<clipPath id="SVGID_4_">
					<use xlink:href="#SVGID_3_"  style="overflow:visible;"/>
				</clipPath>
				<path class="st6" d="M302.3,224.3L121.5,303c-4.7,2.1-10.6-0.7-13.5-6.3l-44.6-76.9c-3.3-6.3-1.5-13.7,3.8-16L266.7,117
					c5.3-2.3,11.9,1.4,14.3,8.1l25.9,85.1C309,216.1,307,222.3,302.3,224.3"/>
			</g>
		</g>
		<g class="st5">
			<g>
				<defs>
					<rect id="SVGID_5_" x="116.6" y="226.4" width="248.6" height="207.7"/>
				</defs>
				<clipPath id="SVGID_6_">
					<use xlink:href="#SVGID_5_"  style="overflow:visible;"/>
				</clipPath>
				<path class="st7" d="M358.2,355.2l-179,77.9c-5.9,2.6-12.8-0.1-15.3-6l-46.3-106.5c-2.6-5.9,0.1-12.8,6-15.3l179-77.9
					c5.9-2.6,12.8,0.1,15.3,6l46.3,106.5C366.8,345.8,364.1,352.6,358.2,355.2"/>
			</g>
		</g>
	</g>
</g>
<g class="st4">
	<g>
		<defs>
			<rect id="SVGID_7_" x="58.2" y="111.1" width="307.6" height="324.4"/>
		</defs>
		<clipPath id="SVGID_8_">
			<use xlink:href="#SVGID_7_"  style="overflow:visible;"/>
		</clipPath>
		<path class="st8" d="M364.9,341.3l-46.3-106.5c-0.2-0.4-0.3-0.7-0.5-1l-0.2-0.4c-2.6-5.9-9.4-8.6-15.3-6l-15.1,6.6
			c-0.1-0.3-0.2-0.6-0.3-0.8l-0.1-0.2c-0.3-0.6-0.6-1.1-0.9-1.6l17.1-7.4c4.8-2.1,6.8-8.3,4.7-14.2l-25.8-85.1
			c-0.1-0.2-0.2-0.4-0.3-0.7l-1.2-4.1c-2.4-6.7-9-10.4-14.5-8.1l-202.3,88c-5.4,2.4-7.2,9.8-3.9,16.1l2.1,3.7
			c0.1,0.2,0.2,0.4,0.3,0.7l44.7,76.9c2.9,5.6,8.8,8.3,13.6,6.2l17-7.4c0.1,0.4,0.2,0.8,0.4,1.2l0.1,0.2c0.2,0.4,0.4,0.9,0.7,1.2
			l-15.2,6.6c-5.9,2.6-8.6,9.4-6,15.3L163.9,427c0.2,0.4,0.3,0.7,0.5,1l0.2,0.4c2.6,5.9,9.4,8.6,15.3,6l179-77.9
			C364.8,354.1,367.5,347.2,364.9,341.3 M171,283.1l-0.1-0.2c-0.2-0.4-0.4-0.8-0.6-1.1l103.4-45l-20.4,8.9c0.1,0.6,0.3,1.2,0.5,1.8
			l0.1,0.2c0.1,0.3,0.3,0.5,0.4,0.8l-82.9,36.1C171.3,284,171.2,283.5,171,283.1"/>
	</g>
</g>
<g class="st4">
	<g>
		<defs>
			<rect id="SVGID_9_" x="51.7" y="320.2" width="105.7" height="65.1"/>
		</defs>
		<clipPath id="SVGID_10_">
			<use xlink:href="#SVGID_9_"  style="overflow:visible;"/>
		</clipPath>
		<path class="st9" d="M143.4,347.6c0.1-0.8,0.1-1.7,0.1-2.6c0-13.7-11.1-24.8-24.8-24.8c-5.9,0-11.2,2-15.5,5.4
			c-2.1-1.5-4.6-2.3-7.3-2.3c-5.8,0-10.7,3.9-12.2,9.2c-0.3,0-0.6,0-0.9,0c-8.6,0-15.7,6.5-16.5,14.9c-8.4,2.1-14.6,9.6-14.6,18.6
			c0,10.6,8.6,19.2,19.2,19.2h67.2c10.6,0,19.2-8.6,19.2-19.2C157.4,357.3,151.4,349.9,143.4,347.6"/>
	</g>
</g>
<g class="st4">
	<g>
		<defs>
			<rect id="SVGID_11_" x="169.2" y="48.7" width="82.3" height="91.5"/>
		</defs>
		<clipPath id="SVGID_12_">
			<use xlink:href="#SVGID_11_"  style="overflow:visible;"/>
		</clipPath>
		<path class="st10" d="M251.5,76.7c-0.3-8.4-4.2-16.5-11.4-22c-7.2-5.5-16.1-7.1-24.3-5.1c-6.3,1.5-12.1,5.1-16.4,10.6
			c-8.4,11.1-7.7,26.2,1,36.4l-7.3,9.5l-21.2,7.8c-2.3,0.8-3.4,3.3-2.6,5.6s3.3,3.4,5.6,2.6l13.1-4.8l-2.8,3.7
			c-1.3,1.7-1,4.2,0.8,5.5c1.7,1.3,4.2,1,5.5-0.8l2.2-2.9l-1.1,12.7c-0.2,2.4,1.6,4.5,4,4.7c2.4,0.2,4.5-1.6,4.7-4l1.9-22.9l-0.1,0
			l7.1-9.3c12.1,5.7,26.9,2.3,35.3-8.7C249.9,89.7,251.8,83.1,251.5,76.7"/>
	</g>
</g>
<g class="st4">
	<g>
		<defs>
			<rect id="SVGID_13_" x="28.5" y="84.3" width="124.2" height="123"/>
		</defs>
		<clipPath id="SVGID_14_">
			<use xlink:href="#SVGID_13_"  style="overflow:visible;"/>
		</clipPath>
		<path class="st11" d="M99.6,84.3l-71.1,63.6c8.7,9.8,43.2,48.3,53.1,59.4c0,0,58.8-52.6,71.1-63.6
			C152.7,143.7,109.6,95.4,99.6,84.3"/>
	</g>
</g>
<path class="st12" d="M143.4,344.3c0.1-0.8,0.1-1.7,0.1-2.6c0-13.7-11.1-24.8-24.8-24.8c-5.9,0-11.2,2-15.5,5.4
	c-2.1-1.5-4.6-2.3-7.3-2.3c-5.8,0-10.7,3.9-12.2,9.2c-0.3,0-0.6,0-0.9,0c-8.6,0-15.7,6.5-16.5,14.9c-8.4,2.1-14.6,9.6-14.6,18.6
	c0,10.6,8.6,19.2,19.2,19.2h67.2c10.6,0,19.2-8.6,19.2-19.2C157.4,354,151.4,346.6,143.4,344.3"/>
<path class="st13" d="M93,84.3c9.9,11.1,53.1,59.4,53.1,59.4c-12.3,11-71.1,63.6-71.1,63.6c-9.9-11.1-44.4-49.6-53.1-59.4L93,84.3z"
	/>
<path class="st14" d="M93.2,87.1c9.4,10.5,50.3,56.3,50.3,56.3c-11.8,10.5-68.4,61.2-68.4,61.2c-9.4-10.5-42.1-47.1-50.3-56.3
	L93.2,87.1z"/>
<path class="st15" d="M75.1,204.5C61.8,189.6,48.7,175,48.7,175c0.5-0.5,1.1-1,1.6-1.5c22.7-20.2,52.9-23.6,68.3-7.8L75.1,204.5z"/>
<path class="st16" d="M101.6,105.1c4.2,4.6,3.8,11.8-0.9,15.9c-4.6,4.2-11.8,3.7-15.9-0.9s-3.8-11.8,0.9-15.9
	C90.4,100,97.5,100.5,101.6,105.1"/>
<path class="st17" d="M85.1,195.7c0,0-2.9-55.8,34.7-79l23.9,26.7L85.1,195.7z"/>
<path class="st18" d="M367.1,348.1l-179,77.9c-5.9,2.6-12.8-0.1-15.3-6l-46.3-106.5c-2.6-5.9,0.1-12.8,6-15.3l179-77.9
	c5.9-2.6,12.8,0.1,15.3,6l46.3,106.5C375.7,338.7,373,345.5,367.1,348.1"/>
<g class="st19">
	<g>
		<defs>
			<rect id="SVGID_15_" x="70" y="107.7" width="245.9" height="187.3"/>
		</defs>
		<clipPath id="SVGID_16_">
			<use xlink:href="#SVGID_15_"  style="overflow:visible;"/>
		</clipPath>
		<path class="st20" d="M310.5,215.7l-180.7,78.6c-4.7,2.1-10.6-0.7-13.5-6.3l-44.6-76.9c-3.3-6.3-1.5-13.7,3.8-16l199.4-86.8
			c5.3-2.3,11.9,1.4,14.3,8.1l25.9,85.1C317.2,207.5,315.2,213.7,310.5,215.7"/>
	</g>
</g>
<g class="st19">
	<g>
		<defs>
			<rect id="SVGID_17_" x="124.8" y="217.8" width="248.6" height="207.7"/>
		</defs>
		<clipPath id="SVGID_18_">
			<use xlink:href="#SVGID_17_"  style="overflow:visible;"/>
		</clipPath>
		<path class="st21" d="M366.4,346.6l-179,77.9c-5.9,2.6-12.8-0.1-15.3-6L125.7,312c-2.6-5.9,0.1-12.8,6-15.3l179-77.9
			c5.9-2.6,12.8,0.1,15.3,6l46.3,106.5C375,337.2,372.3,344.1,366.4,346.6"/>
	</g>
</g>
<path class="st18" d="M309.8,210.6l-183.4,79.8c-4.8,2.1-10.7-0.6-13.6-6.2l-44.7-76.9c-3.3-6.3-1.5-13.7,3.9-16.1l202.3-88
	c5.4-2.4,12.1,1.4,14.5,8.1l25.8,85.1C316.7,202.4,314.6,208.5,309.8,210.6"/>
<path class="st22" d="M311.4,215.3l-182.6,79.4c-4.8,2.1-10.7-0.6-13.6-6.2l-44.7-76.9c-3.3-6.3-1.5-13.7,3.9-16.1L275.9,108
	c5.4-2.3,12,1.4,14.4,8.1l25.8,85.1C318.2,207.1,316.2,213.3,311.4,215.3"/>
<path class="st2" d="M125,287c-0.3,0.1-1.8-0.3-2.8-2.2l-0.1-0.2l-44.7-76.8c-0.7-1.4-0.7-2.7-0.4-3.5c0.1-0.3,0.3-0.6,0.4-0.6
	l202.3-88c0.1-0.1,0.4,0,0.8,0.1c0.7,0.3,1.7,1.2,2.3,2.6l25.7,85.1l0.1,0.2c0.7,2,0,3.4-0.3,3.5L125,287z"/>
<path class="st22" d="M366.4,346.6l-179,77.9c-5.9,2.6-12.8-0.1-15.3-6L125.7,312c-2.6-5.9,0.1-12.8,6-15.3l179-77.9
	c5.9-2.6,12.8,0.1,15.3,6l46.3,106.5C375,337.2,372.3,344.1,366.4,346.6"/>
<rect x="142.8" y="267.4" transform="matrix(0.9169 -0.399 0.399 0.9169 -100.5558 121.009)" class="st23" width="195.1" height="69.2"/>
<path class="st24" d="M145,317.7l5.7-2.5c0.7-0.3,1-1.1,0.7-1.7l-2.5-5.7c-0.3-0.7-1.1-1-1.7-0.7l-5.7,2.5c-0.7,0.3-1,1.1-0.7,1.7
	l2.5,5.7C143.5,317.7,144.3,318,145,317.7"/>
<path class="st24" d="M150,329.3l5.7-2.5c0.7-0.3,1-1.1,0.7-1.7l-2.5-5.7c-0.3-0.7-1.1-1-1.7-0.7l-5.7,2.5c-0.7,0.3-1,1.1-0.7,1.7
	l2.5,5.7C148.6,329.3,149.3,329.6,150,329.3"/>
<path class="st24" d="M159.7,325.1l5.7-2.5c0.7-0.3,1-1.1,0.7-1.7l-2.5-5.7c-0.3-0.7-1.1-1-1.7-0.7l-5.7,2.5c-0.7,0.3-1,1.1-0.7,1.7
	l2.5,5.7C158.3,325.1,159,325.4,159.7,325.1"/>
<path class="st24" d="M175.3,328.8l-2.5-5.7c-0.3-0.7-1.1-1-1.7-0.7l-5.7,2.5c-0.7,0.3-1,1.1-0.7,1.7l2.5,5.7c0.3,0.7,1.1,1,1.7,0.7
	l5.7-2.5C175.3,330.2,175.6,329.4,175.3,328.8"/>
<path class="st24" d="M154.4,339.3l10.6-4.6c0.7-0.3,1-1.1,0.7-1.7l-2.5-5.7c-0.3-0.7-1.1-1-1.7-0.7l-10.6,4.6
	c-0.7,0.3-1,1.1-0.7,1.7l2.5,5.7C152.9,339.3,153.7,339.6,154.4,339.3"/>
<path class="st24" d="M178.6,328.8l5.7-2.5c0.7-0.3,1-1.1,0.7-1.7l-2.5-5.7c-0.3-0.7-1.1-1-1.7-0.7l-5.7,2.5c-0.7,0.3-1,1.1-0.7,1.7
	l2.5,5.7C177.2,328.7,178,329,178.6,328.8"/>
<path class="st24" d="M194.8,320.3l-2.5-5.7c-0.3-0.7-1.1-1-1.7-0.7l-5.7,2.5c-0.7,0.3-1,1.1-0.7,1.7l2.5,5.7c0.3,0.7,1.1,1,1.7,0.7
	l5.7-2.5C194.8,321.7,195.1,321,194.8,320.3"/>
<path class="st24" d="M198.1,320.3l5.7-2.5c0.7-0.3,1-1.1,0.7-1.7l-2.5-5.7c-0.3-0.7-1.1-1-1.7-0.7l-5.7,2.5c-0.7,0.3-1,1.1-0.7,1.7
	l2.5,5.7C196.7,320.3,197.4,320.6,198.1,320.3"/>
<path class="st24" d="M207.8,316l5.7-2.5c0.7-0.3,1-1.1,0.7-1.7l-2.5-5.7c-0.3-0.7-1.1-1-1.7-0.7l-5.7,2.5c-0.7,0.3-1,1.1-0.7,1.7
	l2.5,5.7C206.4,316,207.2,316.3,207.8,316"/>
<path class="st24" d="M213.4,305.4l2.5,5.7c0.3,0.7,1.1,1,1.7,0.7l5.7-2.5c0.7-0.3,1-1.1,0.7-1.7l-2.5-5.7c-0.3-0.7-1.1-1-1.7-0.7
	l-5.7,2.5C213.4,304,213.1,304.7,213.4,305.4"/>
<path class="st24" d="M223.1,301.2l2.5,5.7c0.3,0.7,1.1,1,1.7,0.7l5.7-2.5c0.7-0.3,1-1.1,0.7-1.7l-2.5-5.7c-0.3-0.7-1.1-1-1.7-0.7
	l-5.7,2.5C223.1,299.7,222.8,300.5,223.1,301.2"/>
<path class="st24" d="M232.8,296.9l2.5,5.7c0.3,0.7,1.1,1,1.7,0.7l5.7-2.5c0.7-0.3,1-1.1,0.7-1.7l-2.5-5.7c-0.3-0.7-1.1-1-1.7-0.7
	l-5.7,2.5C232.8,295.5,232.5,296.3,232.8,296.9"/>
<path class="st24" d="M242.6,292.7l2.5,5.7c0.3,0.7,1.1,1,1.7,0.7l5.7-2.5c0.7-0.3,1-1.1,0.7-1.7l-2.5-5.7c-0.3-0.7-1.1-1-1.7-0.7
	l-5.7,2.5C242.6,291.3,242.3,292,242.6,292.7"/>
<path class="st24" d="M262.9,290.6l-2.5-5.7c-0.3-0.7-1.1-1-1.7-0.7l-5.7,2.5c-0.7,0.3-1,1.1-0.7,1.7l2.5,5.7c0.3,0.7,1.1,1,1.7,0.7
	l5.7-2.5C262.9,292.1,263.2,291.3,262.9,290.6"/>
<path class="st24" d="M266.3,290.6l5.7-2.5c0.7-0.3,1-1.1,0.7-1.7l-2.5-5.7c-0.3-0.7-1.1-1-1.7-0.7l-5.7,2.5c-0.7,0.3-1,1.1-0.7,1.7
	l2.5,5.7C264.8,290.6,265.6,290.9,266.3,290.6"/>
<path class="st24" d="M282.4,282.2l-2.5-5.7c-0.3-0.7-1.1-1-1.7-0.7l-5.7,2.5c-0.7,0.3-1,1.1-0.7,1.7l2.5,5.7c0.3,0.7,1.1,1,1.7,0.7
	l5.7-2.5C282.4,283.6,282.7,282.8,282.4,282.2"/>
<path class="st24" d="M169.4,320.8l5.7-2.5c0.7-0.3,1-1.1,0.7-1.7l-2.5-5.7c-0.3-0.7-1.1-1-1.7-0.7l-5.7,2.5c-0.7,0.3-1,1.1-0.7,1.7
	l2.5,5.7C168,320.8,168.8,321.1,169.4,320.8"/>
<path class="st24" d="M179.1,316.6l5.7-2.5c0.7-0.3,1-1.1,0.7-1.7l-2.5-5.7c-0.3-0.7-1.1-1-1.7-0.7l-5.7,2.5c-0.7,0.3-1,1.1-0.7,1.7
	l2.5,5.7C177.7,316.6,178.5,316.9,179.1,316.6"/>
<path class="st24" d="M188.8,312.4l5.7-2.5c0.7-0.3,1-1.1,0.7-1.7l-2.5-5.7c-0.3-0.7-1.1-1-1.7-0.7l-5.7,2.5c-0.7,0.3-1,1.1-0.7,1.7
	l2.5,5.7C187.4,312.4,188.2,312.7,188.8,312.4"/>
<path class="st24" d="M198.5,308.2l5.7-2.5c0.7-0.3,1-1.1,0.7-1.7l-2.5-5.7c-0.3-0.7-1.1-1-1.7-0.7L195,300c-0.7,0.3-1,1.1-0.7,1.7
	l2.5,5.7C197.1,308.2,197.9,308.5,198.5,308.2"/>
<path class="st24" d="M164.4,309.2l5.7-2.5c0.7-0.3,1-1.1,0.7-1.7l-2.5-5.7c-0.3-0.7-1.1-1-1.7-0.7l-5.7,2.5c-0.7,0.3-1,1.1-0.7,1.7
	l2.5,5.7C162.9,309.2,163.7,309.5,164.4,309.2"/>
<path class="st24" d="M174.1,305l5.7-2.5c0.7-0.3,1-1.1,0.7-1.7l-2.5-5.7c-0.3-0.7-1.1-1-1.7-0.7l-5.7,2.5c-0.7,0.3-1,1.1-0.7,1.7
	l2.5,5.7C172.6,305,173.4,305.3,174.1,305"/>
<path class="st24" d="M183.8,300.8l5.7-2.5c0.7-0.3,1-1.1,0.7-1.7l-2.5-5.7c-0.3-0.7-1.1-1-1.7-0.7l-5.7,2.5c-0.7,0.3-1,1.1-0.7,1.7
	l2.5,5.7C182.3,300.8,183.1,301.1,183.8,300.8"/>
<path class="st24" d="M193.5,296.6l5.7-2.5c0.7-0.3,1-1.1,0.7-1.7l-2.5-5.7c-0.3-0.7-1.1-1-1.7-0.7l-5.7,2.5c-0.7,0.3-1,1.1-0.7,1.7
	l2.5,5.7C192,296.6,192.8,296.9,193.5,296.6"/>
<path class="st24" d="M208.2,304l5.7-2.5c0.7-0.3,1-1.1,0.7-1.7l-2.5-5.7c-0.3-0.7-1.1-1-1.7-0.7l-5.7,2.5c-0.7,0.3-1,1.1-0.7,1.7
	l2.5,5.7C206.8,303.9,207.6,304.2,208.2,304"/>
<path class="st24" d="M220.1,289.1l-5.7,2.5c-0.7,0.3-1,1.1-0.7,1.7l2.5,5.7c0.3,0.7,1.1,1,1.7,0.7l5.7-2.5c0.7-0.3,1-1.1,0.7-1.7
	l-2.5-5.7C221.6,289.1,220.8,288.8,220.1,289.1"/>
<path class="st24" d="M229.8,284.9l-5.7,2.5c-0.7,0.3-1,1.1-0.7,1.7l2.5,5.7c0.3,0.7,1.1,1,1.7,0.7l5.7-2.5c0.7-0.3,1-1.1,0.7-1.7
	l-2.5-5.7C231.3,284.9,230.5,284.6,229.8,284.9"/>
<path class="st24" d="M239.5,280.7l-5.7,2.5c-0.7,0.3-1,1.1-0.7,1.7l2.5,5.7c0.3,0.7,1.1,1,1.7,0.7l5.7-2.5c0.7-0.3,1-1.1,0.7-1.7
	l-2.5-5.7C241,280.7,240.2,280.4,239.5,280.7"/>
<path class="st24" d="M242.8,280.7l2.5,5.7c0.3,0.7,1.1,1,1.7,0.7l5.7-2.5c0.7-0.3,1-1.1,0.7-1.7l-2.5-5.7c-0.3-0.7-1.1-1-1.7-0.7
	l-5.7,2.5C242.9,279.2,242.5,280,242.8,280.7"/>
<path class="st24" d="M256.8,282.8l5.7-2.5c0.7-0.3,1-1.1,0.7-1.7l-2.5-5.7c-0.3-0.7-1.1-1-1.7-0.7l-5.7,2.5c-0.7,0.3-1,1.1-0.7,1.7
	l2.5,5.7C255.3,282.8,256.1,283.1,256.8,282.8"/>
<path class="st24" d="M266.5,278.6l5.7-2.5c0.7-0.3,1-1.1,0.7-1.7l-2.5-5.7c-0.3-0.7-1.1-1-1.7-0.7l-5.7,2.5c-0.7,0.3-1,1.1-0.7,1.7
	l2.5,5.7C265,278.6,265.8,278.9,266.5,278.6"/>
<path class="st24" d="M276.2,274.4l5.7-2.5c0.7-0.3,1-1.1,0.7-1.7l-2.5-5.7c-0.3-0.7-1.1-1-1.7-0.7l-5.7,2.5c-0.7,0.3-1,1.1-0.7,1.7
	l2.5,5.7C274.7,274.4,275.5,274.7,276.2,274.4"/>
<path class="st24" d="M288.1,259.5l-5.7,2.5c-0.7,0.3-1,1.1-0.7,1.7l2.5,5.7c0.3,0.7,1.1,1,1.7,0.7l5.7-2.5c0.7-0.3,1-1.1,0.7-1.7
	l-2.5-5.7C289.5,259.6,288.7,259.3,288.1,259.5"/>
<path class="st24" d="M299,254.8l-5.7,2.5c-0.7,0.3-1,1.1-0.7,1.7l2.5,5.7c0.3,0.7,1.1,1,1.7,0.7l5.7-2.5c0.7-0.3,1-1.1,0.7-1.7
	l-2.5-5.7C300.4,254.8,299.7,254.5,299,254.8"/>
<path class="st24" d="M308.7,250.6l-5.7,2.5c-0.7,0.3-1,1.1-0.7,1.7l2.5,5.7c0.3,0.7,1.1,1,1.7,0.7l5.7-2.5c0.7-0.3,1-1.1,0.7-1.7
	l-2.5-5.7C310.1,250.6,309.4,250.3,308.7,250.6"/>
<path class="st24" d="M318.4,246.3l-5.7,2.5c-0.7,0.3-1,1.1-0.7,1.7l2.5,5.7c0.3,0.7,1.1,1,1.7,0.7l5.7-2.5c0.7-0.3,1-1.1,0.7-1.7
	l-2.5-5.7C319.9,246.4,319.1,246,318.4,246.3"/>
<path class="st24" d="M303.4,264.8l-5.7,2.5c-0.7,0.3-1,1.1-0.7,1.7l2.5,5.7c0.3,0.7,1.1,1,1.7,0.7l5.7-2.5c0.7-0.3,1-1.1,0.7-1.7
	l-2.5-5.7C304.8,264.8,304,264.5,303.4,264.8"/>
<path class="st24" d="M313.1,260.6l-5.7,2.5c-0.7,0.3-1,1.1-0.7,1.7l2.5,5.7c0.3,0.7,1.1,1,1.7,0.7l5.7-2.5c0.7-0.3,1-1.1,0.7-1.7
	l-2.5-5.7C314.5,260.6,313.7,260.3,313.1,260.6"/>
<path class="st24" d="M322.8,256.4l-5.7,2.5c-0.7,0.3-1,1.1-0.7,1.7l2.5,5.7c0.3,0.7,1.1,1,1.7,0.7l5.7-2.5c0.7-0.3,1-1.1,0.7-1.7
	l-2.5-5.7C324.2,256.4,323.4,256.1,322.8,256.4"/>
<path class="st24" d="M307.7,274.8l-5.7,2.5c-0.7,0.3-1,1.1-0.7,1.7l2.5,5.7c0.3,0.7,1.1,1,1.7,0.7l5.7-2.5c0.7-0.3,1-1.1,0.7-1.7
	l-2.5-5.7C309.2,274.8,308.4,274.5,307.7,274.8"/>
<path class="st24" d="M317.4,270.6l-5.7,2.5c-0.7,0.3-1,1.1-0.7,1.7l2.5,5.7c0.3,0.7,1.1,1,1.7,0.7l5.7-2.5c0.7-0.3,1-1.1,0.7-1.7
	l-2.5-5.7C318.9,270.6,318.1,270.3,317.4,270.6"/>
<path class="st24" d="M327.1,266.4l-5.7,2.5c-0.7,0.3-1,1.1-0.7,1.7l2.5,5.7c0.3,0.7,1.1,1,1.7,0.7l5.7-2.5c0.7-0.3,1-1.1,0.7-1.7
	l-2.5-5.7C328.6,266.4,327.8,266.1,327.1,266.4"/>
<path class="st24" d="M316.4,294.9l-5.7,2.5c-0.7,0.3-1,1.1-0.7,1.7l2.5,5.7c0.3,0.7,1.1,1,1.7,0.7l5.7-2.5c0.7-0.3,1-1.1,0.7-1.7
	l-2.5-5.7C317.9,294.9,317.1,294.6,316.4,294.9"/>
<path class="st24" d="M326.2,290.6l-5.7,2.5c-0.7,0.3-1,1.1-0.7,1.7l2.5,5.7c0.3,0.7,1.1,1,1.7,0.7l5.7-2.5c0.7-0.3,1-1.1,0.7-1.7
	l-2.5-5.7C327.6,290.7,326.8,290.4,326.2,290.6"/>
<path class="st24" d="M335.9,286.4l-5.7,2.5c-0.7,0.3-1,1.1-0.7,1.7l2.5,5.7c0.3,0.7,1.1,1,1.7,0.7l5.7-2.5c0.7-0.3,1-1.1,0.7-1.7
	l-2.5-5.7C337.3,286.4,336.5,286.1,335.9,286.4"/>
<path class="st24" d="M207.6,290.4l5.7-2.5c0.7-0.3,1-1.1,0.7-1.7l-2.5-5.7c-0.3-0.7-1.1-1-1.7-0.7l-5.7,2.5c-0.7,0.3-1,1.1-0.7,1.7
	l2.5,5.7C206.2,290.4,206.9,290.7,207.6,290.4"/>
<path class="st24" d="M217.6,286.1l5.7-2.5c0.7-0.3,1-1.1,0.7-1.7l-2.5-5.7c-0.3-0.7-1.1-1-1.7-0.7l-5.7,2.5c-0.7,0.3-1,1.1-0.7,1.7
	l2.5,5.7C216.2,286.1,216.9,286.4,217.6,286.1"/>
<path class="st24" d="M227.6,281.7l5.7-2.5c0.7-0.3,1-1.1,0.7-1.7l-2.5-5.7c-0.3-0.7-1.1-1-1.7-0.7l-5.7,2.5c-0.7,0.3-1,1.1-0.7,1.7
	l2.5,5.7C226.1,281.7,226.9,282,227.6,281.7"/>
<path class="st24" d="M237.6,277.4l5.7-2.5c0.7-0.3,1-1.1,0.7-1.7l-2.5-5.7c-0.3-0.7-1.1-1-1.7-0.7l-5.7,2.5c-0.7,0.3-1,1.1-0.7,1.7
	l2.5,5.7C236.1,277.4,236.9,277.7,237.6,277.4"/>
<path class="st24" d="M251.7,271.2l5.7-2.5c0.7-0.3,1-1.1,0.7-1.7l-2.5-5.7c-0.3-0.7-1.1-1-1.7-0.7l-5.7,2.5c-0.7,0.3-1,1.1-0.7,1.7
	l2.5,5.7C250.3,271.2,251,271.5,251.7,271.2"/>
<path class="st24" d="M261.4,267l5.7-2.5c0.7-0.3,1-1.1,0.7-1.7l-2.5-5.7c-0.3-0.7-1.1-1-1.7-0.7l-5.7,2.5c-0.7,0.3-1,1.1-0.7,1.7
	l2.5,5.7C260,267,260.7,267.3,261.4,267"/>
<path class="st24" d="M271.1,262.8l5.7-2.5c0.7-0.3,1-1.1,0.7-1.7l-2.5-5.7c-0.3-0.7-1.1-1-1.7-0.7l-5.7,2.5c-0.7,0.3-1,1.1-0.7,1.7
	l2.5,5.7C269.7,262.8,270.5,263.1,271.1,262.8"/>
<path class="st24" d="M283,247.9l-5.7,2.5c-0.7,0.3-1,1.1-0.7,1.7l2.5,5.7c0.3,0.7,1.1,1,1.7,0.7l5.7-2.5c0.7-0.3,1-1.1,0.7-1.7
	l-2.5-5.7C284.4,248,283.7,247.6,283,247.9"/>
<path class="st24" d="M294,243.2l-5.7,2.5c-0.7,0.3-1,1.1-0.7,1.7l2.5,5.7c0.3,0.7,1.1,1,1.7,0.7l5.7-2.5c0.7-0.3,1-1.1,0.7-1.7
	l-2.5-5.7C295.4,243.2,294.6,242.9,294,243.2"/>
<path class="st24" d="M303.7,239l-5.7,2.5c-0.7,0.3-1,1.1-0.7,1.7l2.5,5.7c0.3,0.7,1.1,1,1.7,0.7l5.7-2.5c0.7-0.3,1-1.1,0.7-1.7
	l-2.5-5.7C305.1,239,304.3,238.7,303.7,239"/>
<path class="st24" d="M313.4,234.7l-5.7,2.5c-0.7,0.3-1,1.1-0.7,1.7l2.5,5.7c0.3,0.7,1.1,1,1.7,0.7l5.7-2.5c0.7-0.3,1-1.1,0.7-1.7
	l-2.5-5.7C314.8,234.7,314,234.4,313.4,234.7"/>
<path class="st24" d="M176.1,341.8l5.7-2.5c0.7-0.3,1-1.1,0.7-1.7l-2.5-5.7c-0.3-0.7-1.1-1-1.7-0.7l-5.7,2.5c-0.7,0.3-1,1.1-0.7,1.7
	l2.5,5.7C174.7,341.8,175.4,342.1,176.1,341.8"/>
<path class="st24" d="M158.7,349.3l13.4-5.8c0.7-0.3,1-1.1,0.7-1.7l-2.5-5.7c-0.3-0.7-1.1-1-1.7-0.7l-13.4,5.8
	c-0.7,0.3-1,1.1-0.7,1.7l2.5,5.7C157.3,349.3,158.1,349.6,158.7,349.3"/>
<path class="st24" d="M192.2,333.3l-2.5-5.7c-0.3-0.7-1.1-1-1.7-0.7l-5.7,2.5c-0.7,0.3-1,1.1-0.7,1.7l2.5,5.7c0.3,0.7,1.1,1,1.7,0.7
	l5.7-2.5C192.2,334.8,192.5,334,192.2,333.3"/>
<path class="st24" d="M195.6,333.3l5.7-2.5c0.7-0.3,1-1.1,0.7-1.7l-2.5-5.7c-0.3-0.7-1.1-1-1.7-0.7l-5.7,2.5c-0.7,0.3-1,1.1-0.7,1.7
	l2.5,5.7C194.1,333.3,194.9,333.6,195.6,333.3"/>
<path class="st24" d="M211.7,324.9l-2.5-5.7c-0.3-0.7-1.1-1-1.7-0.7l-5.7,2.5c-0.7,0.3-1,1.1-0.7,1.7l2.5,5.7c0.3,0.7,1.1,1,1.7,0.7
	l5.7-2.5C211.7,326.3,212,325.5,211.7,324.9"/>
<path class="st24" d="M221.4,320.6l-2.5-5.7c-0.3-0.7-1.1-1-1.7-0.7l-5.7,2.5c-0.7,0.3-1,1.1-0.7,1.7l2.5,5.7c0.3,0.7,1.1,1,1.7,0.7
	l5.7-2.5C221.4,322.1,221.7,321.3,221.4,320.6"/>
<path class="st24" d="M231.2,316.4l-2.5-5.7c-0.3-0.7-1.1-1-1.7-0.7l-5.7,2.5c-0.7,0.3-1,1.1-0.7,1.7l2.5,5.7c0.3,0.7,1.1,1,1.7,0.7
	l5.7-2.5C231.2,317.8,231.5,317,231.2,316.4"/>
<path class="st24" d="M240.9,312.1l-2.5-5.7c-0.3-0.7-1.1-1-1.7-0.7l-5.7,2.5c-0.7,0.3-1,1.1-0.7,1.7l2.5,5.7c0.3,0.7,1.1,1,1.7,0.7
	l5.7-2.5C240.9,313.6,241.2,312.8,240.9,312.1"/>
<path class="st24" d="M250.7,307.9l-2.5-5.7c-0.3-0.7-1.1-1-1.7-0.7l-5.7,2.5c-0.7,0.3-1,1.1-0.7,1.7l2.5,5.7c0.3,0.7,1.1,1,1.7,0.7
	l5.7-2.5C250.6,309.3,250.9,308.6,250.7,307.9"/>
<path class="st24" d="M260.4,303.7l-2.5-5.7c-0.3-0.7-1.1-1-1.7-0.7l-5.7,2.5c-0.7,0.3-1,1.1-0.7,1.7l2.5,5.7c0.3,0.7,1.1,1,1.7,0.7
	l5.7-2.5C260.4,305.1,260.7,304.3,260.4,303.7"/>
<path class="st24" d="M263.7,303.7l5.7-2.5c0.7-0.3,1-1.1,0.7-1.7l-2.5-5.7c-0.3-0.7-1.1-1-1.7-0.7l-5.7,2.5c-0.7,0.3-1,1.1-0.7,1.7
	l2.5,5.7C262.3,303.6,263.1,303.9,263.7,303.7"/>
<path class="st24" d="M279.9,295.2l-2.5-5.7c-0.3-0.7-1.1-1-1.7-0.7l-5.7,2.5c-0.7,0.3-1,1.1-0.7,1.7l2.5,5.7c0.3,0.7,1.1,1,1.7,0.7
	l5.7-2.5C279.8,296.6,280.2,295.9,279.9,295.2"/>
<path class="st24" d="M184.5,350l5.7-2.5c0.7-0.3,1-1.1,0.7-1.7l-2.5-5.7c-0.3-0.7-1.1-1-1.7-0.7l-5.7,2.5c-0.7,0.3-1,1.1-0.7,1.7
	l2.5,5.7C183.1,350,183.9,350.3,184.5,350"/>
<path class="st24" d="M163.1,359.4l17.4-7.6c0.7-0.3,1-1.1,0.7-1.7l-2.5-5.7c-0.3-0.7-1.1-1-1.7-0.7l-17.4,7.6
	c-0.7,0.3-1,1.1-0.7,1.7l2.5,5.7C161.6,359.3,162.4,359.7,163.1,359.4"/>
<path class="st24" d="M200.7,341.6l-2.5-5.7c-0.3-0.7-1.1-1-1.7-0.7l-5.7,2.5c-0.7,0.3-1,1.1-0.7,1.7l2.5,5.7c0.3,0.7,1.1,1,1.7,0.7
	l5.7-2.5C200.6,343,201,342.2,200.7,341.6"/>
<path class="st24" d="M198.3,346.3l-8.5,3.7c-0.7,0.3-1,1.1-0.7,1.7l2.5,5.7c0.3,0.7,1.1,1,1.7,0.7l8.5-3.7c0.7-0.3,1-1.1,0.7-1.7
	l-2.5-5.7C199.8,346.3,199,346,198.3,346.3"/>
<path class="st24" d="M256.2,321.1l-53.9,23.4c-0.7,0.3-1,1.1-0.7,1.7l2.5,5.7c0.3,0.7,1.1,1,1.7,0.7l53.9-23.4
	c0.7-0.3,1-1.1,0.7-1.7l-2.5-5.7C257.6,321.1,256.8,320.8,256.2,321.1"/>
<path class="st24" d="M204,341.6l5.7-2.5c0.7-0.3,1-1.1,0.7-1.7l-2.5-5.7c-0.3-0.7-1.1-1-1.7-0.7l-5.7,2.5c-0.7,0.3-1,1.1-0.7,1.7
	l2.5,5.7C202.5,341.6,203.3,341.9,204,341.6"/>
<path class="st24" d="M213.7,337.3l5.7-2.5c0.7-0.3,1-1.1,0.7-1.7l-2.5-5.7c-0.3-0.7-1.1-1-1.7-0.7l-5.7,2.5c-0.7,0.3-1,1.1-0.7,1.7
	l2.5,5.7C212.3,337.3,213,337.6,213.7,337.3"/>
<path class="st24" d="M223.4,333.1l5.7-2.5c0.7-0.3,1-1.1,0.7-1.7l-2.5-5.7c-0.3-0.7-1.1-1-1.7-0.7l-5.7,2.5c-0.7,0.3-1,1.1-0.7,1.7
	l2.5,5.7C222,333.1,222.8,333.4,223.4,333.1"/>
<path class="st24" d="M233.1,328.9l5.7-2.5c0.7-0.3,1-1.1,0.7-1.7l-2.5-5.7c-0.3-0.7-1.1-1-1.7-0.7l-5.7,2.5c-0.7,0.3-1,1.1-0.7,1.7
	l2.5,5.7C231.7,328.9,232.5,329.2,233.1,328.9"/>
<path class="st24" d="M242.9,324.6l5.7-2.5c0.7-0.3,1-1.1,0.7-1.7l-2.5-5.7c-0.3-0.7-1.1-1-1.7-0.7l-5.7,2.5c-0.7,0.3-1,1.1-0.7,1.7
	l2.5,5.7C241.4,324.6,242.2,324.9,242.9,324.6"/>
<path class="st24" d="M252.6,320.4l5.7-2.5c0.7-0.3,1-1.1,0.7-1.7l-2.5-5.7c-0.3-0.7-1.1-1-1.7-0.7l-5.7,2.5c-0.7,0.3-1,1.1-0.7,1.7
	l2.5,5.7C251.1,320.4,251.9,320.7,252.6,320.4"/>
<path class="st24" d="M264.5,305.6l-5.7,2.5c-0.7,0.3-1,1.1-0.7,1.7l2.5,5.7c0.3,0.7,1.1,1,1.7,0.7l5.7-2.5c0.7-0.3,1-1.1,0.7-1.7
	l-2.5-5.7C265.9,305.6,265.2,305.3,264.5,305.6"/>
<path class="st24" d="M268.3,315.8l-8.1,3.5c-0.7,0.3-1,1.1-0.7,1.7l2.5,5.7c0.3,0.7,1.1,1,1.7,0.7l8.1-3.5c0.7-0.3,1-1.1,0.7-1.7
	l-2.5-5.7C269.7,315.9,268.9,315.6,268.3,315.8"/>
<path class="st24" d="M280.3,310.6l-8.1,3.5c-0.7,0.3-1,1.1-0.7,1.7l2.5,5.7c0.3,0.7,1.1,1,1.7,0.7l8.1-3.5c0.7-0.3,1-1.1,0.7-1.7
	l-2.5-5.7C281.8,310.6,281,310.3,280.3,310.6"/>
<path class="st24" d="M185.8,351.7l-8.1,3.5c-0.7,0.3-1,1.1-0.7,1.7l2.5,5.7c0.3,0.7,1.1,1,1.7,0.7l8.1-3.5c0.7-0.3,1-1.1,0.7-1.7
	l-2.5-5.7C187.3,351.7,186.5,351.4,185.8,351.7"/>
<path class="st24" d="M173.8,357l-9.8,4.3c-0.7,0.3-1,1.1-0.7,1.7l2.5,5.7c0.3,0.7,1.1,1,1.7,0.7l9.8-4.3c0.7-0.3,1-1.1,0.7-1.7
	l-2.5-5.7C175.2,357,174.4,356.7,173.8,357"/>
<path class="st24" d="M292.4,305.4l-8.1,3.5c-0.7,0.3-1,1.1-0.7,1.7l2.5,5.7c0.3,0.7,1.1,1,1.7,0.7l8.1-3.5c0.7-0.3,1-1.1,0.7-1.7
	l-2.5-5.7C293.8,305.4,293,305.1,292.4,305.4"/>
<path class="st24" d="M305.5,299.6l-9.2,4c-0.7,0.3-1,1.1-0.7,1.7l2.5,5.7c0.3,0.7,1.1,1,1.7,0.7l9.2-4c0.7-0.3,1-1.1,0.7-1.7
	l-2.5-5.7C306.9,299.6,306.2,299.3,305.5,299.6"/>
<path class="st24" d="M272,312l5.7-2.5c0.7-0.3,1-1.1,0.7-1.7l-2.5-5.7c-0.3-0.7-1.1-1-1.7-0.7l-5.7,2.5c-0.7,0.3-1,1.1-0.7,1.7
	l2.5,5.7C270.6,311.9,271.4,312.2,272,312"/>
<path class="st24" d="M321.8,280.6l-5.7,2.5c-0.7,0.3-1,1.1-0.7,1.7l2.5,5.7c0.3,0.7,1.1,1,1.7,0.7l5.7-2.5c0.7-0.3,1-1.1,0.7-1.7
	l-2.5-5.7C323.2,280.6,322.5,280.3,321.8,280.6"/>
<path class="st24" d="M301.1,289.6l-22.8,9.9c-0.7,0.3-1,1.1-0.7,1.7l2.5,5.7c0.3,0.7,1.1,1,1.7,0.7l22.8-9.9c0.7-0.3,1-1.1,0.7-1.7
	l-2.5-5.7C302.6,289.6,301.8,289.3,301.1,289.6"/>
<path class="st24" d="M292.5,269.6l-10.3,4.5c-0.6,0.3-0.9,1-0.7,1.7l3.1,7.1l0.2,0.5c0.3,0.7,0,1.4-0.7,1.7l-0.6,0.3l-3.8,1.6
	c-0.7,0.3-1,1.1-0.7,1.7l2.5,5.7c0.3,0.7,1.1,1,1.7,0.7l17-7.4c0.7-0.3,1-1.1,0.7-1.7l-6.9-15.8
	C293.9,269.6,293.1,269.3,292.5,269.6"/>
<path class="st24" d="M179.2,274.5l-0.1-0.2c-0.2-0.4-0.4-0.8-0.6-1.1l-32.7,14.2c0.1,0.4,0.2,0.8,0.4,1.2l0.1,0.2
	c0.2,0.4,0.4,0.9,0.7,1.2l32.7-14.2C179.5,275.4,179.4,274.9,179.2,274.5"/>
<path class="st24" d="M262,238.8l0.1,0.2c0.1,0.3,0.3,0.5,0.4,0.8l33.2-14.4c-0.1-0.3-0.2-0.6-0.3-0.8l-0.1-0.2
	c-0.3-0.6-0.6-1.1-0.9-1.6l-32.8,14.3C261.6,237.6,261.7,238.2,262,238.8"/>
<path class="st23" d="M300.3,365.7l-53.7,23.4c-4.5,2-9.8-0.1-11.8-4.6l-8.9-20.5c-2-4.5,0.1-9.8,4.6-11.8l53.7-23.4
	c4.5-2,9.8,0.1,11.8,4.6l8.9,20.5C306.9,358.5,304.8,363.8,300.3,365.7"/>
<g class="st25">
	<g>
		<defs>
			<rect id="SVGID_19_" x="133" y="160.4" width="46.6" height="122.2"/>
		</defs>
		<clipPath id="SVGID_20_">
			<use xlink:href="#SVGID_19_"  style="overflow:visible;"/>
		</clipPath>
		<polygon class="st26" points="177.2,160.4 179.5,263.3 135.3,282.5 133,179.6 		"/>
	</g>
</g>
<g class="st25">
	<g>
		<defs>
			<rect id="SVGID_21_" x="190.2" y="148.8" width="16" height="108.9"/>
		</defs>
		<clipPath id="SVGID_22_">
			<use xlink:href="#SVGID_21_"  style="overflow:visible;"/>
		</clipPath>
		<polygon class="st27" points="203.8,148.8 206.2,251.7 192.5,257.6 190.2,154.7 		"/>
	</g>
</g>
<g class="st25">
	<g>
		<defs>
			<rect id="SVGID_23_" x="226.6" y="119.6" width="46.6" height="122.2"/>
		</defs>
		<clipPath id="SVGID_24_">
			<use xlink:href="#SVGID_23_"  style="overflow:visible;"/>
		</clipPath>
		<polygon class="st28" points="270.8,119.6 273.1,222.6 228.9,241.8 226.6,138.9 		"/>
	</g>
</g>
<g class="st25">
	<g>
		<defs>
			<rect id="SVGID_25_" x="284" y="123.1" width="15.8" height="93.8"/>
		</defs>
		<clipPath id="SVGID_26_">
			<use xlink:href="#SVGID_25_"  style="overflow:visible;"/>
		</clipPath>
		<polygon class="st29" points="284,123.1 298.9,172.4 299.8,211 286.1,216.9 		"/>
	</g>
</g>
<g class="st4">
	<g>
		<defs>
			<rect id="SVGID_27_" x="309.6" y="123.7" width="76.8" height="114.1"/>
		</defs>
		<clipPath id="SVGID_28_">
			<use xlink:href="#SVGID_27_"  style="overflow:visible;"/>
		</clipPath>
		<path class="st30" d="M381.2,134.8l-34-10.8c-3.9-1.2-8,0.9-9.2,4.8l-28,88.6c-1.2,3.9,0.9,8,4.8,9.2l34,10.8
			c3.9,1.2,8-0.9,9.2-4.8l28-88.6C387.2,140.1,385.1,136,381.2,134.8"/>
	</g>
</g>
<g class="st4">
	<g>
		<defs>
			<rect id="SVGID_29_" x="143.7" y="391.8" width="67" height="45.9"/>
		</defs>
		<clipPath id="SVGID_30_">
			<use xlink:href="#SVGID_29_"  style="overflow:visible;"/>
		</clipPath>
		<path class="st31" d="M207.9,424.4c-0.3-0.1-0.5-0.2-0.8-0.3l1.2-2.3c1.1-2.1,0.2-4.7-1.9-5.8l-40.3-20.2l0.2-0.3l-1.5-0.8
			l-1.3,2.5l-10.5-5.3c-0.7-0.3-1.5-0.1-1.9,0.6l-7.2,14.4c-0.3,0.7-0.1,1.5,0.6,1.9c0,0,4.9,2.4,10.5,5.3l-1.2,2.4l1.5,0.8l0.2-0.3
			l40.3,20.2c2.1,1.1,4.7,0.2,5.8-1.9l1.2-2.3c0.2,0.2,0.5,0.3,0.7,0.4c2.5,1.3,5.5,0.2,6.8-2.3S210.4,425.6,207.9,424.4
			 M208.4,430.3c-0.8,1.5-2.6,2.2-4.2,1.4c-0.3-0.1-0.5-0.3-0.7-0.5l2.7-5.4c0.3,0.1,0.5,0.1,0.8,0.3
			C208.5,426.9,209.2,428.8,208.4,430.3"/>
	</g>
</g>
<g class="st4">
	<g>
		<defs>
			<rect id="SVGID_31_" x="351.8" y="265.1" width="35" height="57.9"/>
		</defs>
		<clipPath id="SVGID_32_">
			<use xlink:href="#SVGID_31_"  style="overflow:visible;"/>
		</clipPath>
		<path class="st32" d="M373.9,265.1h-8.2c-3.3,0-6.4,1.3-8.7,3.4c-3.2,2.3-5.4,6.1-5.4,10.4v31.3c0,7.1,5.8,12.8,12.8,12.8h8.2
			c3.3,0,6.4-1.3,8.7-3.4c3.2-2.3,5.4-6.1,5.4-10.4V278C386.8,270.9,381,265.1,373.9,265.1"/>
	</g>
</g>
<path class="st33" d="M185.1,119L185.1,119c1.7,1.3,4.2,1,5.5-0.8l12.7-16.7l-6.3-4.8l-12.7,16.7C183,115.2,183.3,117.7,185.1,119"
	/>
<rect x="189.8" y="91.6" transform="matrix(0.6056 -0.7958 0.7958 0.6056 1.278 198.2129)" class="st24" width="21.6" height="12.3"/>
<path class="st22" d="M244.6,87.9c-9.7,12.7-27.9,15.2-40.6,5.5c-12.7-9.7-15.2-27.9-5.5-40.6c4.2-5.6,10.1-9.2,16.4-10.7
	c8.2-1.9,17.1-0.3,24.3,5.1c7.2,5.5,11.1,13.6,11.4,22C250.8,75.7,248.8,82.3,244.6,87.9"/>
<path class="st2" d="M236.9,82c-6.5,8.5-18.6,10.1-27.1,3.7c-8.5-6.5-10.1-18.6-3.7-27.1c6.5-8.5,18.6-10.1,27.1-3.7
	C241.7,61.4,243.4,73.5,236.9,82"/>
<path class="st34" d="M233.1,79.1c-4.9,6.4-14,7.6-20.4,2.8c-6.4-4.9-7.6-14-2.8-20.4c4.9-6.4,14-7.6,20.4-2.8
	C236.8,63.6,238,72.7,233.1,79.1"/>
<path class="st24" d="M230.1,76.8c-3.6,4.7-10.3,5.6-15,2c-4.7-3.6-5.6-10.3-2-15c3.6-4.7,10.3-5.6,15-2
	C232.7,65.4,233.7,72.1,230.1,76.8"/>
<path class="st13" d="M227.6,74.9c-2.5,3.3-7.3,4-10.7,1.4c-3.3-2.5-4-7.3-1.4-10.7c2.5-3.3,7.3-4,10.7-1.4
	C229.5,66.8,230.1,71.6,227.6,74.9"/>
<path class="st34" d="M224.3,72.4c-1.2,1.5-3.3,1.8-4.9,0.7c-1.5-1.2-1.8-3.3-0.7-4.9c1.2-1.5,3.3-1.8,4.9-0.7
	C225.2,68.7,225.5,70.9,224.3,72.4"/>
<path class="st35" d="M219.4,73.1c-1.5-1.2-1.8-3.3-0.7-4.8c1.2-1.5,3.3-1.8,4.8-0.7c1.5,1.2,1.8,3.3,0.7,4.9
	C223.1,73.9,221,74.2,219.4,73.1"/>
<path class="st16" d="M250.5,69.2c-3.4,0.4-6.4-10.7-15-17.3c-8.6-6.6-20.1-6.5-20.6-9.9c8.2-1.9,17.1-0.3,24.3,5.1
	C246.3,52.7,250.2,60.9,250.5,69.2"/>
<g class="st36">
	<g>
		<defs>
			<rect id="SVGID_33_" x="219.4" y="68.1" width="2.1" height="2.1"/>
		</defs>
		<clipPath id="SVGID_34_">
			<use xlink:href="#SVGID_33_"  style="overflow:visible;"/>
		</clipPath>
		<path class="st37" d="M221.3,69.8c-0.4,0.5-1,0.6-1.5,0.2c-0.5-0.4-0.6-1-0.2-1.5c0.4-0.5,1-0.6,1.5-0.2
			C221.6,68.6,221.7,69.3,221.3,69.8"/>
	</g>
</g>
<path class="st24" d="M168.5,112L168.5,112c-0.8-2.3,0.3-4.8,2.6-5.6l21.6-8l3,8.2l-21.6,8C171.8,115.5,169.3,114.3,168.5,112"/>
<path class="st24" d="M195.7,132.8L195.7,132.8c2.4,0.2,4.5-1.6,4.7-4l1.9-22.9l-8.7-0.7l-1.9,22.9
	C191.6,130.5,193.3,132.6,195.7,132.8"/>
<g class="st4">
	<g>
		<defs>
			<rect id="SVGID_35_" x="286.5" y="34.8" width="90.2" height="87.8"/>
		</defs>
		<clipPath id="SVGID_36_">
			<use xlink:href="#SVGID_35_"  style="overflow:visible;"/>
		</clipPath>
		<path class="st38" d="M290.3,105.7c-1.9,1.1-2.6,3.5-1.6,5.4l1.4,2.5c1.1,1.9,3.5,2.6,5.4,1.5l2.8-1.6l-5.2-9.4L290.3,105.7z"/>
		<path class="st38" d="M376.1,66l-1.3-2.3c-1.1-2-3.6-2.7-5.5-1.6l-2.7,1.5l4.9,8.9l-9.2-16.7l-1,0.5c-6-8.9-15.3-15.3-25.4-18
			c-0.1-1.9-1.7-3.5-3.7-3.6c-8.4-0.4-17,1.5-24.7,5.5c-7.8,3.9-14.3,9.7-19,16.8c-1.1,1.7-0.7,3.9,0.8,5.1
			c-4,10.5-3.9,22.9,0.8,33.5l-1.3,0.7l13.8,25l5.6-3.1l1.3,2.4c1,1.9,3.4,2.5,5.2,1.5l8.1-4.5c1.9-1,2.5-3.4,1.5-5.2L311,88.2
			l0.2-0.1l-0.2,0.1l-3-5.4c-1-1.9-3.4-2.5-5.2-1.5l-8.1,4.5c-1.9,1-2.5,3.4-1.5,5.2l3,5.4l-1.7-3.1l-0.9,0.5
			c-4.3-9.8-4.2-21.4-0.3-31.1c0.7-0.3,1.2-0.8,1.7-1.4c3.9-5.9,9.5-10.8,16.1-14.2c6.6-3.3,13.8-4.9,20.9-4.6
			c0.7,0,1.3-0.1,1.9-0.4c0.1-0.1,0.2-0.1,0.4-0.2c9.4,2.3,18.2,8.2,23.8,16.4l-1.3,0.7l-1.3-2.4c-1-1.9-3.4-2.5-5.2-1.5l-8.1,4.5
			c-1.9,1-2.5,3.4-1.5,5.2l16.4,29.7c1,1.9,3.4,2.5,5.2,1.5l8.1-4.5c1.9-1,2.5-3.4,1.5-5.2l-8.4-15.3l7.1,12.9l5.6-3.1l-4.3-7.8
			l2.7-1.5C376.5,70.5,377.2,68,376.1,66 M296.1,96.3l4.9,8.9L296.1,96.3z"/>
	</g>
</g>
<g class="st4">
	<g>
		<defs>
			<rect id="SVGID_37_" x="10.4" y="225.4" width="88.5" height="82.2"/>
		</defs>
		<clipPath id="SVGID_38_">
			<use xlink:href="#SVGID_37_"  style="overflow:visible;"/>
		</clipPath>
		<path class="st39" d="M97.4,261.8l-56.9-35.9c-1.6-1-3.6-0.5-4.6,1l-25,39.6c-1,1.6-0.5,3.6,1,4.6L68.8,307c1.6,1,3.6,0.5,4.6-1
			l14-22.1l4.1-6.5l7-11.1C99.4,264.8,98.9,262.7,97.4,261.8"/>
	</g>
</g>
<path class="st18" d="M352.9,309c0,7.1,5.8,12.8,12.8,12.8h8.2c7.1,0,12.8-5.8,12.8-12.8v-31.3c0-7.1-5.8-12.8-12.8-12.8h-8.2
	c-7.1,0-12.8,5.8-12.8,12.8V309z"/>
<path class="st40" d="M354,308.1c0,7.1,5.8,12.8,12.8,12.8h8.2c7.1,0,12.8-5.8,12.8-12.8v-31.3c0-7.1-5.8-12.8-12.8-12.8h-8.2
	c-7.1,0-12.8,5.8-12.8,12.8V308.1z"/>
<path class="st2" d="M367.2,277.7c0,2.1,1.7,3.7,3.7,3.7s3.7-1.7,3.7-3.7c0-2.1-1.7-3.7-3.7-3.7S367.2,275.7,367.2,277.7"/>
<path class="st41" d="M166.3,396.4c-0.1,0-0.2,0-0.2,0l-12.9-6.5c-0.7-0.3-1.5-0.1-1.9,0.6l-7.2,14.4c-0.3,0.7-0.1,1.5,0.6,1.9
	c0,0,6.5,3.2,13.1,6.6L166.3,396.4z"/>
<rect x="153.1" y="397.8" transform="matrix(0.4489 -0.8936 0.8936 0.4489 -277.3768 360.5534)" class="st2" width="1.1" height="14.8"/>
<rect x="152.1" y="399.7" transform="matrix(0.4489 -0.8936 0.8936 0.4489 -279.5867 360.7465)" class="st2" width="1.1" height="14.8"/>
<rect x="154" y="395.9" transform="matrix(0.4489 -0.8936 0.8936 0.4489 -275.1937 360.3627)" class="st2" width="1.1" height="14.8"/>
<rect x="154.9" y="394" transform="matrix(0.4489 -0.8936 0.8936 0.4489 -273.0114 360.1726)" class="st2" width="1.1" height="14.8"/>
<rect x="155.9" y="392.2" transform="matrix(0.4489 -0.8936 0.8936 0.4489 -270.8279 359.9817)" class="st2" width="1.1" height="14.8"/>
<rect x="156.8" y="390.3" transform="matrix(0.4488 -0.8936 0.8936 0.4488 -268.6477 359.817)" class="st2" width="1.1" height="14.8"/>
<rect x="157.7" y="388.5" transform="matrix(0.4486 -0.8937 0.8937 0.4486 -266.4736 359.7245)" class="st2" width="1.1" height="14.8"/>
<path class="st42" d="M208.2,422.4c-0.3-0.1-0.5-0.2-0.8-0.3l1.2-2.3c1.1-2.1,0.2-4.7-1.9-5.8l-41.1-20.7l-10.7,21.2l41.1,20.7
	c2.1,1.1,4.7,0.2,5.8-1.9l1.2-2.3c0.2,0.2,0.5,0.3,0.7,0.4c2.5,1.3,5.5,0.2,6.8-2.3C211.7,426.7,210.7,423.7,208.2,422.4
	 M204.5,429.7c-0.3-0.1-0.5-0.3-0.7-0.5l2.7-5.4c0.3,0.1,0.5,0.1,0.8,0.3c1.5,0.8,2.2,2.6,1.4,4.2
	C207.9,429.9,206,430.5,204.5,429.7"/>
<rect x="148" y="403.2" transform="matrix(0.4491 -0.8935 0.8935 0.4491 -272.7023 365.7693)" class="st41" width="24.5" height="1.7"/>
<path class="st22" d="M97.5,262.3l-25,39.6c-1,1.6-3,2-4.6,1L11,267.1c-1.6-1-2-3-1-4.6l25-39.6c1-1.6,3-2,4.6-1l56.9,35.9
	C98,258.7,98.5,260.8,97.5,262.3"/>
<path class="st2" d="M13.5,263.4c0.5,0.3,0.7,1,0.3,1.5c-0.3,0.5-1,0.7-1.5,0.3c-0.5-0.3-0.7-1-0.3-1.5
	C12.3,263.2,13,263,13.5,263.4"/>
<path class="st2" d="M38.5,223.8c0.5,0.3,0.7,1,0.3,1.5c-0.3,0.5-1,0.7-1.5,0.3c-0.5-0.3-0.7-1-0.3-1.5
	C37.3,223.6,38,223.5,38.5,223.8"/>
<path class="st2" d="M69.9,299c0.5,0.3,0.7,1,0.3,1.5c-0.3,0.5-1,0.7-1.5,0.3c-0.5-0.3-0.7-1-0.3-1.5
	C68.7,298.8,69.4,298.6,69.9,299"/>
<path class="st2" d="M94.9,259.4c0.5,0.3,0.7,1,0.3,1.5c-0.3,0.5-1,0.7-1.5,0.3c-0.5-0.3-0.7-1-0.3-1.5
	C93.7,259.2,94.4,259.1,94.9,259.4"/>
<rect x="83.2" y="273.9" transform="matrix(0.5337 -0.8457 0.8457 0.5337 -192.5518 202.1554)" class="st24" width="7.6" height="3.5"/>
<path class="st35" d="M86.8,272.7l2.1,1.3l0.3-0.5l-2.1-1.3L86.8,272.7z M88.2,275.2l0.3-0.5l-2.1-1.3l-0.3,0.5L88.2,275.2z
	 M87.4,276.3l0.3-0.5l-2.1-1.3l-0.3,0.5L87.4,276.3z M86.7,277.5l0.3-0.6l-2.1-1.3l-0.3,0.6L86.7,277.5z M86,278.6l0.3-0.5l-2.1-1.3
	l-0.3,0.6L86,278.6z"/>
<path class="st42" d="M59.8,238.4c11,6.9,14.3,21.4,7.3,32.4c-6.9,11-21.4,14.3-32.4,7.3c-11-6.9-14.3-21.4-7.3-32.4
	C34.3,234.8,48.8,231.5,59.8,238.4"/>
<path class="st40" d="M54.5,254.7c2,4,0.4,8.9-3.6,10.9c-4,2-8.9,0.4-10.9-3.6c-2-4-0.4-8.9,3.6-10.9
	C47.6,249,52.5,250.6,54.5,254.7"/>
<path class="st43" d="M53.9,255c1.8,3.6,0.4,8.1-3.3,9.9c-3.6,1.8-8.1,0.4-9.9-3.3c-1.8-3.6-0.3-8.1,3.3-9.9
	C47.6,249.9,52,251.4,53.9,255"/>
<path class="st40" d="M50.7,256.6c1,1.9,0.2,4.3-1.7,5.2c-1.9,1-4.3,0.2-5.2-1.7c-1-1.9-0.2-4.3,1.7-5.2
	C47.4,253.9,49.8,254.6,50.7,256.6"/>
<path class="st40" d="M42.8,260.5c0.2,0.4,0,0.8-0.3,1c-0.4,0.2-0.8,0-1-0.3c-0.2-0.4,0-0.8,0.3-1C42.1,260,42.6,260.2,42.8,260.5"
	/>
<path class="st40" d="M53.1,255.4c0.2,0.4,0,0.8-0.3,1c-0.4,0.2-0.8,0-1-0.3c-0.2-0.4,0-0.8,0.3-1C52.4,254.9,52.9,255,53.1,255.4"
	/>
<path class="st40" d="M49.5,262.8c0.4-0.2,0.8,0,1,0.3c0.2,0.4,0,0.8-0.3,1c-0.4,0.2-0.8,0-1-0.3C49,263.4,49.1,263,49.5,262.8"/>
<path class="st40" d="M44.3,252.5c0.4-0.2,0.8,0,1,0.3c0.2,0.4,0,0.8-0.3,1s-0.8,0-1-0.3C43.8,253.1,44,252.7,44.3,252.5"/>
<polygon class="st23" points="344.1,64.9 344.1,64.9 360.2,56.1 "/>
<path class="st23" d="M308.5,36.2l-2.3,1.3C287.1,48,281.5,74.6,292,93.6l19.4-10.7l-16.1,8.9c-9.5-17.2-4.6-41.4,12.6-50.9l2.3-1.3
	c17.2-9.5,40.3-0.7,49.8,16.5l3.4-1.9C353,35.1,327.6,25.7,308.5,36.2"/>
<rect x="295.6" y="87.9" transform="matrix(0.8757 -0.4829 0.4829 0.8757 -12.1692 157.0208)" class="st44" width="6.4" height="28.5"/>
<path class="st45" d="M295.8,110l2.8-1.6l-5.2-9.4l-2.8,1.6c-1.9,1.1-2.6,3.5-1.6,5.4l1.4,2.5C291.5,110.3,293.9,111,295.8,110"/>
<path class="st2" d="M324.7,107.3c1,1.9,0.3,4.2-1.5,5.2l-8.1,4.5c-1.9,1-4.2,0.4-5.2-1.5l-16.4-29.7c-1-1.9-0.4-4.2,1.5-5.2
	l8.1-4.5c1.9-1,4.2-0.3,5.2,1.5L324.7,107.3z"/>
<rect x="363.5" y="50.4" transform="matrix(0.8757 -0.4829 0.4829 0.8757 14.3575 185.1575)" class="st44" width="6.4" height="28.5"/>
<path class="st45" d="M374.9,66.4l-2.7,1.5l-5.2-9.4l2.7-1.5c2-1.1,4.4-0.4,5.5,1.6l1.3,2.3C377.6,62.8,376.8,65.3,374.9,66.4"/>
<path class="st2" d="M357.3,89.3c1,1.9,3.4,2.5,5.2,1.5l8.1-4.5c1.9-1,2.5-3.4,1.5-5.2l-16.4-29.7c-1-1.9-3.4-2.5-5.2-1.5l-8.1,4.5
	c-1.9,1-2.5,3.4-1.5,5.2L357.3,89.3z"/>
<path class="st46" d="M334.2,36.9c-0.6,0.3-1.2,0.4-1.9,0.4c-7.1-0.3-14.4,1.3-20.9,4.6c-6.6,3.3-12.1,8.2-16.1,14.2
	c-1.2,1.8-3.6,2.3-5.3,1.1c-1.8-1.2-2.3-3.6-1.1-5.3c4.7-7,11.3-12.8,19-16.8c7.8-3.9,16.3-5.8,24.7-5.5c2.1,0.1,3.8,1.9,3.7,4
	C336.2,35.1,335.4,36.3,334.2,36.9"/>
<path class="st40" d="M357,228.6c-1.2,3.9-5.4,6-9.2,4.8l-34-10.8c-3.9-1.2-6-5.4-4.8-9.2l28-88.6c1.2-3.9,5.3-6,9.2-4.8l34,10.8
	c3.9,1.2,6,5.3,4.8,9.2L357,228.6z"/>
<rect x="308.7" y="153" transform="matrix(0.3015 -0.9535 0.9535 0.3015 75.4991 453.7773)" class="st22" width="77.5" height="44.7"/>
<path class="st16" d="M355.9,203.3c-0.2,0.7-0.9,1-1.6,0.8l-30.2-9.5c-0.7-0.2-1-0.9-0.8-1.6c0.2-0.7,0.9-1,1.6-0.8l30.2,9.5
	C355.7,202,356.1,202.7,355.9,203.3"/>
<path class="st16" d="M354.5,207.8c-0.2,0.7-0.9,1-1.6,0.8l-30.2-9.5c-0.7-0.2-1-0.9-0.8-1.6c0.2-0.7,0.9-1,1.6-0.8l30.2,9.5
	C354.3,206.4,354.7,207.1,354.5,207.8"/>
<path class="st16" d="M357.4,198.7c-0.2,0.7-0.9,1-1.6,0.8l-30.2-9.5c-0.7-0.2-1-0.9-0.8-1.6c0.2-0.7,0.9-1,1.6-0.8l30.2,9.5
	C357.2,197.3,357.6,198,357.4,198.7"/>
<path class="st47" d="M365.6,172.7c-0.2,0.7-0.9,1-1.6,0.8l-30.2-9.5c-0.7-0.2-1-0.9-0.8-1.6c0.2-0.7,0.9-1,1.6-0.8l30.2,9.5
	C365.4,171.4,365.8,172.1,365.6,172.7"/>
<path class="st47" d="M364.2,177.1c-0.2,0.7-0.9,1-1.6,0.8l-30.2-9.5c-0.7-0.2-1-0.9-0.8-1.6c0.2-0.7,0.9-1,1.6-0.8l30.2,9.5
	C364,175.8,364.4,176.5,364.2,177.1"/>
<path class="st47" d="M367,168.1c-0.2,0.7-0.9,1-1.6,0.8l-30.2-9.5c-0.7-0.2-1-0.9-0.8-1.6c0.2-0.7,0.9-1,1.6-0.8l30.2,9.5
	C366.9,166.7,367.2,167.4,367,168.1"/>
<path class="st42" d="M354.9,192.9l-24.7-7.8c-1.5-0.5-2.4-2.1-1.9-3.6l2.3-7.2c0.5-1.5,2.1-2.4,3.6-1.9l24.7,7.8
	c1.5,0.5,2.4,2.1,1.9,3.6l-2.3,7.2C358,192.5,356.4,193.4,354.9,192.9"/>
<path class="st43" d="M349.1,157.9l-10.1-3.2c-1.1-0.4-1.8-1.6-1.4-2.7l3.2-10.1c0.4-1.1,1.6-1.8,2.7-1.4l10.1,3.2
	c1.1,0.4,1.8,1.6,1.4,2.7l-3.2,10.1C351.5,157.6,350.3,158.3,349.1,157.9"/>
<path class="st43" d="M365.1,163l-10.1-3.2c-1.1-0.4-1.8-1.6-1.4-2.7l3.2-10.1c0.4-1.1,1.6-1.8,2.7-1.4l10.1,3.2
	c1.1,0.4,1.8,1.6,1.4,2.7l-3.2,10.1C367.5,162.7,366.3,163.3,365.1,163"/>
<path class="st24" d="M337.6,222.1c-0.8,2.5-3.4,3.8-5.9,3c-2.5-0.8-3.8-3.4-3-5.9c0.8-2.5,3.4-3.8,5.9-3S338.3,219.7,337.6,222.1"
	/>
<path class="st2" d="M426.4,83.4L426.4,83.4c-1.8-0.8-2.7-2.9-1.9-4.7l9.2-22c0.8-1.8,2.9-2.7,4.7-1.9c1.8,0.8,2.7,2.9,1.9,4.7
	l-9.2,22C430.3,83.3,428.2,84.2,426.4,83.4"/>
<path class="st2" d="M418.6,63.4L418.6,63.4c0.8-1.8,2.9-2.7,4.7-1.9l22,9.2c1.8,0.8,2.7,2.9,1.9,4.7c-0.8,1.8-2.9,2.7-4.7,1.9
	l-22-9.2C418.7,67.3,417.8,65.2,418.6,63.4"/>
<path class="st2" d="M22.7,460.7L22.7,460.7c-1.4-0.6-2-2.2-1.4-3.5l6.9-16.6c0.6-1.4,2.2-2,3.5-1.4c1.4,0.6,2,2.2,1.4,3.5
	l-6.9,16.6C25.6,460.6,24.1,461.3,22.7,460.7"/>
<path class="st2" d="M16.8,445.6L16.8,445.6c0.6-1.4,2.2-2,3.5-1.4l16.6,6.9c1.4,0.6,2,2.2,1.4,3.5c-0.6,1.4-2.2,2-3.5,1.4
	l-16.6-6.9C16.9,448.5,16.2,447,16.8,445.6"/>
<path class="st2" d="M432,408.4L432,408.4c-1,0.6-2.3,0.3-3-0.7l-7.5-12.3c-0.6-1-0.3-2.3,0.7-3c1-0.6,2.3-0.3,3,0.7l7.5,12.3
	C433.3,406.4,433,407.7,432,408.4"/>
<path class="st2" d="M419.4,405.1L419.4,405.1c-0.6-1-0.3-2.3,0.7-3l12.3-7.5c1-0.6,2.3-0.3,3,0.7c0.6,1,0.3,2.3-0.7,3l-12.3,7.5
	C421.3,406.4,420,406.1,419.4,405.1"/>
<path class="st42" d="M242,6.4c0,0,10.7,1.5,13.5,7.6c2.9,6.1,8.1,2.9,12.8,2.6c4.8-0.3,9,7.4,9,12.3l-5.9,2.5c0,0-1-8.7-7.4-7.9
	c-6.4,0.8-12.8,2.4-14.7-6c-1.9-8.4-11.6-5.1-11.6-5.1L242,6.4z"/>
<polygon class="st42" points="227.4,4.3 241.5,20 248.1,0 "/>
<path class="st16" d="M330.9,410.4c0,0-6.4,8.7-13.2,8.2c-6.7-0.5-6.4,5.7-8.5,10c-2,4.3-10.8,4.4-15.2,2l0.7-6.4
	c0,0,8.1,3.4,10.4-2.7c2.4-6,4.1-12.4,12.4-10c8.3,2.4,10.1-7.8,10.1-7.8L330.9,410.4z"/>
<polygon class="st16" points="339.8,398.6 319.2,403.3 333.6,418.7 "/>
<path class="st16" d="M5.7,222.8c0,0-2.5-6.8,0.2-10.4c2.7-3.6-0.9-5.7-2.5-8.4c-1.7-2.7,1.5-7.7,4.4-9.3l3.4,2.7
	c0,0-4.8,3.3-2.3,6.9c2.5,3.5,5.5,6.8,1.1,10.6c-4.4,3.8,0.7,8.5,0.7,8.5L5.7,222.8z"/>
<polygon class="st16" points="9.1,232.1 13.9,218.8 0,221.2 "/>
<path class="st17" d="M424.9,315.3c0,3-2.4,5.4-5.4,5.4c-3,0-5.4-2.4-5.4-5.4s2.4-5.4,5.4-5.4C422.5,309.9,424.9,312.3,424.9,315.3"
	/>
<path class="st17" d="M62.6,81.9c0,3-2.4,5.4-5.4,5.4c-3,0-5.4-2.4-5.4-5.4c0-3,2.4-5.4,5.4-5.4C60.1,76.5,62.6,79,62.6,81.9"/>
<path class="st17" d="M391.6,116.4c0,1.5-1.2,2.7-2.7,2.7c-1.5,0-2.7-1.2-2.7-2.7c0-1.5,1.2-2.7,2.7-2.7
	C390.4,113.7,391.6,114.9,391.6,116.4"/>
<path class="st17" d="M394.3,38.5c0,2.1-1.7,3.8-3.8,3.8c-2.1,0-3.8-1.7-3.8-3.8c0-2.1,1.7-3.8,3.8-3.8
	C392.7,34.8,394.3,36.4,394.3,38.5"/>
<path class="st17" d="M255.1,428.9c0,3.2-2.6,5.7-5.7,5.7s-5.7-2.6-5.7-5.7c0-3.2,2.6-5.7,5.7-5.7S255.1,425.8,255.1,428.9"/>
<rect class="st3" width="447.5" height="460.9"/>
<rect class="st3" width="447.5" height="460.9"/>
</svg>
