<?xml version="1.0" encoding="utf-8"?>
<!-- Generator: Adobe Illustrator 23.0.3, SVG Export Plug-In . SVG Version: 6.00 Build 0)  -->
<svg version="1.1" id="Layer_1" xmlns="http://www.w3.org/2000/svg" xmlns:xlink="http://www.w3.org/1999/xlink" x="0px" y="0px"
	 viewBox="0 0 464.3 437.1" style="enable-background:new 0 0 464.3 437.1;" xml:space="preserve">
<style type="text/css">
	.st0{fill:#0A2E63;}
	.st1{opacity:0.5;fill:#173D7A;}
	.st2{fill:#173D7A;}
	.st3{fill:#396CAA;}
	.st4{fill:#274F89;}
	.st5{fill:#D4ECFF;}
	.st6{fill:#FFFFFF;}
	.st7{fill:#5793CE;}
	.st8{fill:#FF2C9C;}
	.st9{fill:#D3008D;}
	.st10{fill:#FFC2B0;}
	.st11{fill:#EA9C92;}
	.st12{fill:url(#SVGID_1_);}
	.st13{fill:url(#SVGID_2_);}
	.st14{fill:url(#SVGID_3_);}
	.st15{opacity:0.3;fill:#06033E;}
</style>
<g>
	<path class="st0" d="M375.5,36.3c-23.4-11-49.7-20.8-74.7-14c-10.1,2.8-19.4,8.1-29.6,10.9c-12,3.2-24.7,2.7-36.9,0.9
		c-28.8-4.1-56.8-14.5-86-14.9c-29.1-0.5-61.6,12.5-71.3,40c-4.4,12.5-3.5,26.1-3.8,39.3c-0.6,33.3-8.5,66.5-23.2,96.4
		c-13,26.6-31.8,55.7-21.4,83.4c11.9,31.8,55,40.9,71,70.8c9.3,17.4,7.5,38.4,5.8,58.1c-0.3,3.7-0.6,7.6,0.6,11.2
		c2.1,6.3,8.3,10.1,14.4,12.7c24,9.9,51.4,6.2,76.2-1.2c12.5-3.8,25-8.5,35.6-16.1c10.6-7.6,19.2-17.9,30.5-24.4
		c20.6-11.9,46.1-9.3,69.9-8c21,1.1,42.1,0.9,63.1-0.6c13.9-1,28.1-2.7,40.8-8.6c12.7-5.9,23.8-16.6,26.9-30.2
		c3.9-17-5.4-34.7-18.2-46.5c-6.8-6.3-14.6-11.5-21.3-18c-22.3-22-28-55.8-27.6-87.1c0.3-22,3.5-45.2,17.2-62.3
		c6.6-8.3,15.3-14.7,21.5-23.3C468.5,57.9,406.1,50.7,375.5,36.3"/>
	<g>
		<path class="st1" d="M241.2,385.2l-166.4-96c-4.7-2.7-4.1-7.5,1.3-10.6l113.3-65.4c5.4-3.1,13.7-3.5,18.4-0.8l166.4,96
			c4.7,2.7,4.1,7.5-1.3,10.6l-113.3,65.4C254.1,387.6,245.9,388,241.2,385.2z"/>
		<path class="st2" d="M429.7,104.3L250.9,1.1c-2.1-1.2-4.2-1.4-6.1-0.7l0,0l-0.3,0.1c0,0-0.1,0-0.1,0L238,3l5.8,2.8
			c0,0.1-0.1,0.2-0.1,0.3l-31.6,143.7c-1.5,6.6,1.5,14.4,6.5,17.3l174.5,100.7l-0.6,7.4l7.1-2.7c2.4-1.1,4.3-3.6,5.1-7.2l31.6-143.7
			C437.7,115,434.7,107.2,429.7,104.3z"/>
		<path class="st3" d="M429.7,104.3L250.9,1.1c-2.1-1.2-4.2-1.4-6.1-0.7l0,0l-0.3,0.1c0,0-0.1,0-0.1,0L238,3l5.8,2.8
			c0,0.1-0.1,0.2-0.1,0.3L222,104.6l87.5,68.2l125.8-61.3C434.1,108.4,432.2,105.8,429.7,104.3z"/>
		<path class="st4" d="M422.9,124.7l13.6-5.8c0.2-5.3-1.9-10.7-5.5-13.6l-21.5,9.1L422.9,124.7z"/>
		<path class="st5" d="M386.3,274.5L207.5,171.3c-5.1-2.9-8-10.7-6.5-17.3l31.6-143.7c1.5-6.6,6.7-9.6,11.8-6.7l178.8,103.2
			c5.1,2.9,8,10.7,6.5,17.3l-31.6,143.7C396.6,274.4,391.3,277.4,386.3,274.5z"/>
		<path class="st6" d="M424.9,106.2L246.1,3c-2.5-1.4-4.9-1.4-7-0.3c1.7-0.4,3.5-0.1,5.3,0.9l178.8,103.2c5.1,2.9,8,10.7,6.5,17.3
			l-31.6,143.7c-0.8,3.4-2.5,5.9-4.8,7c3-0.7,5.5-3.4,6.5-7.7l31.6-143.7C432.8,116.9,429.9,109.1,424.9,106.2z"/>
		<path class="st6" d="M382.4,264.6l-168.1-97c-4.6-2.7-7.3-9.8-6-15.8l29.1-132.4c1.3-6.1,6.2-8.8,10.8-6.2l168.1,97
			c4.6,2.7,7.3,9.8,6,15.8l-29.1,132.4C391.9,264.6,387,267.3,382.4,264.6z"/>
		<path class="st2" d="M382.4,264.6l-168.1-97c-4.6-2.7-7.3-9.8-6-15.8l29.1-132.4c1.3-6.1,6.2-8.8,10.8-6.2l168.1,97
			c4.6,2.7,7.3,9.8,6,15.8l-29.1,132.4C391.9,264.6,387,267.3,382.4,264.6z"/>
		<path class="st7" d="M383.9,264l-168.1-97c-4.6-2.7-7.3-9.8-6-15.8l29.1-132.4c0.7-3.1,2.2-5.3,4.2-6.4c-2.7,0.7-4.9,3.2-5.7,7
			l-29.1,132.4c-1.3,6.1,1.3,13.2,6,15.8l168.1,97c2.3,1.3,4.6,1.3,6.6,0.2C387.4,265.3,385.6,265.1,383.9,264z"/>
		<path class="st2" d="M388.8,279l-24.4-3.2l-157.8-91.1c-5.1-2.9-13.9-2.6-19.7,0.8L75.1,250l-14.8-2v8.4l0,0
			c-0.1,1.9,1,3.8,3.4,5.2l178.8,103.2c5.1,2.9,13.9,2.6,19.7-0.8l121.7-70.3c3.3-1.9,4.9-4.3,4.8-6.6h0V279z"/>
		<path class="st3" d="M270.2,221.5L259,215H135.8l-60.7,35l-14.8-2v8.4l0,0c-0.1,1.9,1,3.8,3.4,5.2l178.8,103.2
			c2.7,1.5,6.4,2.2,10.2,1.9L270.2,221.5z"/>
		<path class="st7" d="M66.8,248.9l-6.6-0.9v8.4l0,0c-0.1,1.9,1,3.8,3.4,5.2l3.2,1.8V248.9z"/>
		<path class="st4" d="M244.3,365.7c4.8,1.8,11.6,1.4,16.8-1V346h-16.8V365.7z"/>
		<path class="st5" d="M242.5,356.5L63.7,253.3c-5.1-2.9-4.4-8,1.4-11.4l121.7-70.3c5.8-3.4,14.7-3.7,19.7-0.8L385.3,274
			c5.1,2.9,4.4,8-1.4,11.4l-121.7,70.3C256.4,359,247.5,359.4,242.5,356.5z"/>
		<path class="st6" d="M383.9,282.3l-121.7,70.3c-5.8,3.4-14.7,3.7-19.7,0.8L63.7,250.2c-1.7-1-2.7-2.2-3.1-3.4
			c-0.8,2.4,0.2,4.8,3.1,6.5l178.8,103.2c5.1,2.9,13.9,2.6,19.7-0.8l121.7-70.3c3.9-2.3,5.5-5.3,4.6-8
			C387.9,279.2,386.4,280.9,383.9,282.3z"/>
		<g>
			<path class="st7" d="M139.7,219.1l-8.1-4.7c-0.6-0.4-0.6-1,0.2-1.5l9.5-5.5c0.7-0.4,1.9-0.5,2.5-0.1l8.1,4.7
				c0.6,0.4,0.6,1-0.2,1.5l-9.5,5.5C141.5,219.4,140.4,219.5,139.7,219.1z"/>
			<path class="st7" d="M152.2,226.3l-8.1-4.7c-0.6-0.4-0.6-1,0.2-1.5l9.5-5.5c0.7-0.4,1.9-0.5,2.5-0.1l8.1,4.7
				c0.6,0.4,0.6,1-0.2,1.5l-9.5,5.5C154,226.6,152.9,226.7,152.2,226.3z"/>
			<path class="st7" d="M164.7,233.5l-8.1-4.7c-0.6-0.4-0.6-1,0.2-1.5l9.5-5.5c0.7-0.4,1.9-0.5,2.5-0.1l8.1,4.7
				c0.6,0.4,0.6,1-0.2,1.5l-9.5,5.5C166.5,233.8,165.4,233.9,164.7,233.5z"/>
			<path class="st7" d="M182,227.6l-8.1-4.7c-0.6-0.4-0.6-1,0.2-1.5l8-4.6c0.7-0.4,1.9-0.5,2.5-0.1l8.1,4.7c0.6,0.4,0.6,1-0.2,1.5
				l-8,4.6C183.8,227.9,182.6,227.9,182,227.6z"/>
			<path class="st7" d="M194.5,234.8l-8.1-4.7c-0.6-0.4-0.6-1,0.2-1.5l8-4.6c0.7-0.4,1.9-0.5,2.5-0.1l8.1,4.7c0.6,0.4,0.6,1-0.2,1.5
				l-8,4.6C196.3,235.1,195.1,235.2,194.5,234.8z"/>
			<path class="st7" d="M207,242l-8.1-4.7c-0.6-0.4-0.6-1,0.2-1.5l8-4.6c0.7-0.4,1.9-0.5,2.5-0.1l8.1,4.7c0.6,0.4,0.6,1-0.2,1.5
				l-8,4.6C208.7,242.3,207.6,242.4,207,242z"/>
			<path class="st7" d="M219.5,249.2l-8.1-4.7c-0.6-0.4-0.6-1,0.2-1.5l8-4.6c0.7-0.4,1.9-0.5,2.5-0.1l8.1,4.7c0.6,0.4,0.6,1-0.2,1.5
				l-8,4.6C221.2,249.5,220.1,249.6,219.5,249.2z"/>
			<path class="st7" d="M231.9,256.4l-8.1-4.7c-0.6-0.4-0.6-1,0.2-1.5l8-4.6c0.7-0.4,1.9-0.5,2.5-0.1l8.1,4.7c0.6,0.4,0.6,1-0.2,1.5
				l-8,4.6C233.7,256.7,232.6,256.8,231.9,256.4z"/>
			<path class="st7" d="M244.4,263.6l-8.1-4.7c-0.6-0.4-0.6-1,0.2-1.5l8-4.6c0.7-0.4,1.9-0.5,2.5-0.1l8.1,4.7c0.6,0.4,0.6,1-0.2,1.5
				l-8,4.6C246.2,264,245.1,264,244.4,263.6z"/>
			<path class="st7" d="M256.9,270.8l-8.1-4.7c-0.6-0.4-0.6-1,0.2-1.5l8-4.6c0.7-0.4,1.9-0.5,2.5-0.1l8.1,4.7c0.6,0.4,0.6,1-0.2,1.5
				l-8,4.6C258.7,271.2,257.6,271.2,256.9,270.8z"/>
			<path class="st7" d="M269.4,278.1l-8.1-4.7c-0.6-0.4-0.6-1,0.2-1.5l8-4.6c0.7-0.4,1.9-0.5,2.5-0.1l8.1,4.7c0.6,0.4,0.6,1-0.2,1.5
				l-8,4.6C271.2,278.4,270.1,278.4,269.4,278.1z"/>
			<path class="st7" d="M281.9,285.3l-8.1-4.7c-0.6-0.4-0.6-1,0.2-1.5l8-4.6c0.7-0.4,1.9-0.5,2.5-0.1l8.1,4.7c0.6,0.4,0.6,1-0.2,1.5
				l-8,4.6C283.7,285.6,282.6,285.6,281.9,285.3z"/>
			<path class="st7" d="M294.4,292.5l-8.1-4.7c-0.6-0.4-0.6-1,0.2-1.5l8-4.6c0.7-0.4,1.9-0.5,2.5-0.1l8.1,4.7c0.6,0.4,0.6,1-0.2,1.5
				l-8,4.6C296.2,292.8,295.1,292.8,294.4,292.5z"/>
			<path class="st7" d="M200.4,224.2l-8.1-4.7c-0.6-0.4-0.6-1,0.2-1.5l8-4.6c0.7-0.4,1.9-0.5,2.5-0.1l8.1,4.7c0.6,0.4,0.6,1-0.2,1.5
				l-8,4.6C202.2,224.5,201,224.5,200.4,224.2z"/>
			<path class="st7" d="M187.7,216.8l-8.1-4.7c-0.6-0.4-0.6-1,0.2-1.5l8-4.6c0.7-0.4,1.9-0.5,2.5-0.1l8.1,4.7c0.6,0.4,0.6,1-0.2,1.5
				l-8,4.6C189.5,217.2,188.4,217.2,187.7,216.8z"/>
			<path class="st7" d="M175,209.5l-17.4-10.1c-0.6-0.4-0.6-1,0.2-1.5l8-4.6c0.7-0.4,1.9-0.5,2.5-0.1l17.4,10.1
				c0.6,0.4,0.6,1-0.2,1.5l-8,4.6C176.8,209.8,175.7,209.9,175,209.5z"/>
			<path class="st7" d="M183.9,200.6l-14.1-8.2c-0.6-0.4-0.6-1,0.2-1.5l8-4.6c0.7-0.4,1.9-0.5,2.5-0.1l14.1,8.2
				c0.6,0.4,0.6,1-0.2,1.5l-8,4.6C185.7,200.9,184.5,201,183.9,200.6z"/>
			<path class="st7" d="M212.9,231.4l-8.1-4.7c-0.6-0.4-0.6-1,0.2-1.5l8-4.6c0.7-0.4,1.9-0.5,2.5-0.1l8.1,4.7c0.6,0.4,0.6,1-0.2,1.5
				l-8,4.6C214.7,231.7,213.5,231.7,212.9,231.4z"/>
			<path class="st7" d="M225.4,238.6l-8.1-4.7c-0.6-0.4-0.6-1,0.2-1.5l8-4.6c0.7-0.4,1.9-0.5,2.5-0.1l8.1,4.7c0.6,0.4,0.6,1-0.2,1.5
				l-8,4.6C227.2,238.9,226,238.9,225.4,238.6z"/>
			<path class="st7" d="M237.9,245.8l-8.1-4.7c-0.6-0.4-0.6-1,0.2-1.5l8-4.6c0.7-0.4,1.9-0.5,2.5-0.1l8.1,4.7c0.6,0.4,0.6,1-0.2,1.5
				l-8,4.6C239.6,246.1,238.5,246.2,237.9,245.8z"/>
			<path class="st7" d="M250.4,253l-8.1-4.7c-0.6-0.4-0.6-1,0.2-1.5l8-4.6c0.7-0.4,1.9-0.5,2.5-0.1l8.1,4.7c0.6,0.4,0.6,1-0.2,1.5
				l-8,4.6C252.1,253.3,251,253.4,250.4,253z"/>
			<path class="st7" d="M262.8,260.2l-8.1-4.7c-0.6-0.4-0.6-1,0.2-1.5l8-4.6c0.7-0.4,1.9-0.5,2.5-0.1l8.1,4.7c0.6,0.4,0.6,1-0.2,1.5
				l-8,4.6C264.6,260.5,263.5,260.6,262.8,260.2z"/>
			<path class="st7" d="M275.3,267.4l-8.1-4.7c-0.6-0.4-0.6-1,0.2-1.5l8-4.6c0.7-0.4,1.9-0.5,2.5-0.1l8.1,4.7c0.6,0.4,0.6,1-0.2,1.5
				l-8,4.6C277.1,267.8,276,267.8,275.3,267.4z"/>
			<path class="st7" d="M287.8,274.6l-8.1-4.7c-0.6-0.4-0.6-1,0.2-1.5l8-4.6c0.7-0.4,1.9-0.5,2.5-0.1l8.1,4.7c0.6,0.4,0.6,1-0.2,1.5
				l-8,4.6C289.6,275,288.5,275,287.8,274.6z"/>
			<path class="st7" d="M300.3,281.8l-8.1-4.7c-0.6-0.4-0.6-1,0.2-1.5l8-4.6c0.7-0.4,1.9-0.5,2.5-0.1l8.1,4.7c0.6,0.4,0.6,1-0.2,1.5
				l-8,4.6C302.1,282.2,301,282.2,300.3,281.8z"/>
			<path class="st7" d="M312.8,289.1l-8.1-4.7c-0.6-0.4-0.6-1,0.2-1.5l8-4.6c0.7-0.4,1.9-0.5,2.5-0.1l8.1,4.7c0.6,0.4,0.6,1-0.2,1.5
				l-8,4.6C314.6,289.4,313.5,289.4,312.8,289.1z"/>
			<path class="st7" d="M335,301.9l-17.6-10.2c-0.6-0.4-0.6-1,0.2-1.5l8-4.6c0.7-0.4,1.9-0.5,2.5-0.1l17.6,10.2
				c0.6,0.4,0.6,1-0.2,1.5l-8,4.6C336.8,302.2,335.7,302.3,335,301.9z"/>
			<path class="st7" d="M359.3,287.8l-14.9-8.6c-0.6-0.4-0.6-1,0.2-1.5l8-4.6c0.7-0.4,1.9-0.5,2.5-0.1l14.9,8.6
				c0.6,0.4,0.6,1-0.2,1.5l-8,4.6C361.1,288.2,360,288.2,359.3,287.8z"/>
			<path class="st7" d="M234.8,230l-8.1-4.7c-0.6-0.4-0.6-1,0.2-1.5l8-4.6c0.7-0.4,1.9-0.5,2.5-0.1l8.1,4.7c0.6,0.4,0.6,1-0.2,1.5
				l-8,4.6C236.5,230.3,235.4,230.3,234.8,230z"/>
			<path class="st7" d="M222,222.6l-8.1-4.7c-0.6-0.4-0.6-1,0.2-1.5l8-4.6c0.7-0.4,1.9-0.5,2.5-0.1l8.1,4.7c0.6,0.4,0.6,1-0.2,1.5
				l-8,4.6C223.7,222.9,222.6,222.9,222,222.6z"/>
			<path class="st7" d="M209.1,215.2l-8.1-4.7c-0.6-0.4-0.6-1,0.2-1.5l8-4.6c0.7-0.4,1.9-0.5,2.5-0.1l8.1,4.7c0.6,0.4,0.6,1-0.2,1.5
				l-8,4.6C210.9,215.5,209.8,215.5,209.1,215.2z"/>
			<path class="st7" d="M196.3,207.8l-8.1-4.7c-0.6-0.4-0.6-1,0.2-1.5l8-4.6c0.7-0.4,1.9-0.5,2.5-0.1l8.1,4.7c0.6,0.4,0.6,1-0.2,1.5
				l-8,4.6C198.1,208.1,197,208.2,196.3,207.8z"/>
			<path class="st7" d="M247.2,237.2l-8.1-4.7c-0.6-0.4-0.6-1,0.2-1.5l8-4.6c0.7-0.4,1.9-0.5,2.5-0.1l8.1,4.7c0.6,0.4,0.6,1-0.2,1.5
				l-8,4.6C249,237.5,247.9,237.5,247.2,237.2z"/>
			<path class="st7" d="M259.7,244.4l-8.1-4.7c-0.6-0.4-0.6-1,0.2-1.5l8-4.6c0.7-0.4,1.9-0.5,2.5-0.1l8.1,4.7c0.6,0.4,0.6,1-0.2,1.5
				l-8,4.6C261.5,244.7,260.4,244.8,259.7,244.4z"/>
			<path class="st7" d="M272.2,251.6l-8.1-4.7c-0.6-0.4-0.6-1,0.2-1.5l8-4.6c0.7-0.4,1.9-0.5,2.5-0.1l8.1,4.7c0.6,0.4,0.6,1-0.2,1.5
				l-8,4.6C274,251.9,272.9,252,272.2,251.6z"/>
			<path class="st7" d="M284.7,258.8l-8.1-4.7c-0.6-0.4-0.6-1,0.2-1.5l8-4.6c0.7-0.4,1.9-0.5,2.5-0.1l8.1,4.7c0.6,0.4,0.6,1-0.2,1.5
				l-8,4.6C286.5,259.1,285.4,259.2,284.7,258.8z"/>
			<path class="st7" d="M297.2,266l-8.1-4.7c-0.6-0.4-0.6-1,0.2-1.5l8-4.6c0.7-0.4,1.9-0.5,2.5-0.1l8.1,4.7c0.6,0.4,0.6,1-0.2,1.5
				l-8,4.6C299,266.3,297.9,266.4,297.2,266z"/>
			<path class="st7" d="M309.7,273.2l-8.1-4.7c-0.6-0.4-0.6-1,0.2-1.5l8-4.6c0.7-0.4,1.9-0.5,2.5-0.1l8.1,4.7c0.6,0.4,0.6,1-0.2,1.5
				l-8,4.6C311.5,273.6,310.4,273.6,309.7,273.2z"/>
			<path class="st7" d="M322.2,280.4l-8.1-4.7c-0.6-0.4-0.6-1,0.2-1.5l8-4.6c0.7-0.4,1.9-0.5,2.5-0.1l8.1,4.7c0.6,0.4,0.6,1-0.2,1.5
				l-8,4.6C324,280.8,322.8,280.8,322.2,280.4z"/>
			<path class="st7" d="M334.7,287.6l-8.1-4.7c-0.6-0.4-0.6-1,0.2-1.5l8-4.6c0.7-0.4,1.9-0.5,2.5-0.1l8.1,4.7c0.6,0.4,0.6,1-0.2,1.5
				l-8,4.6C336.5,288,335.3,288,334.7,287.6z"/>
			<path class="st7" d="M347.2,294.9l-8.1-4.7c-0.6-0.4-0.6-1,0.2-1.5l8-4.6c0.7-0.4,1.9-0.5,2.5-0.1l8.1,4.7c0.6,0.4,0.6,1-0.2,1.5
				l-8,4.6C349,295.2,347.8,295.2,347.2,294.9z"/>
			<path class="st7" d="M228.2,212.1l-8.1-4.7c-0.6-0.4-0.6-1,0.2-1.5l8-4.6c0.7-0.4,1.9-0.5,2.5-0.1l8.1,4.7c0.6,0.4,0.6,1-0.2,1.5
				l-8,4.6C230,212.4,228.8,212.5,228.2,212.1z"/>
			<path class="st7" d="M215.7,204.9l-8.1-4.7c-0.6-0.4-0.6-1,0.2-1.5l8-4.6c0.7-0.4,1.9-0.5,2.5-0.1l8.1,4.7c0.6,0.4,0.6,1-0.2,1.5
				l-8,4.6C217.5,205.3,216.4,205.3,215.7,204.9z"/>
			<path class="st7" d="M203.3,197.8l-8.1-4.7c-0.6-0.4-0.6-1,0.2-1.5l8-4.6c0.7-0.4,1.9-0.5,2.5-0.1l8.1,4.7c0.6,0.4,0.6,1-0.2,1.5
				l-8,4.6C205.1,198.1,204,198.1,203.3,197.8z"/>
			<path class="st7" d="M190.9,190.6l-8.1-4.7c-0.6-0.4-0.6-1,0.2-1.5l8-4.6c0.7-0.4,1.9-0.5,2.5-0.1l8.1,4.7c0.6,0.4,0.6,1-0.2,1.5
				l-8,4.6C192.7,190.9,191.5,191,190.9,190.6z"/>
			<path class="st7" d="M203.7,183.2l-8.1-4.7c-0.6-0.4-0.6-1,0.2-1.5l2.6-1.5c0.7-0.4,1.9-0.5,2.5-0.1l8.1,4.7
				c0.6,0.4,0.6,1-0.2,1.5l-2.6,1.5C205.5,183.5,204.3,183.6,203.7,183.2z"/>
			<path class="st7" d="M219.9,192.6l-8.1-4.7c-0.6-0.4-0.6-1,0.2-1.5l2.6-1.5c0.7-0.4,1.9-0.5,2.5-0.1l8.1,4.7
				c0.6,0.4,0.6,1-0.2,1.5l-2.6,1.5C221.7,192.9,220.5,192.9,219.9,192.6z"/>
			<path class="st7" d="M232.3,199.7l-8.1-4.7c-0.6-0.4-0.6-1,0.2-1.5l2.6-1.5c0.7-0.4,1.9-0.5,2.5-0.1l8.1,4.7
				c0.6,0.4,0.6,1-0.2,1.5l-2.6,1.5C234.1,200,232.9,200.1,232.3,199.7z"/>
			<path class="st7" d="M244.6,206.9l-8.1-4.7c-0.6-0.4-0.6-1,0.2-1.5l2.6-1.5c0.7-0.4,1.9-0.5,2.5-0.1l8.1,4.7
				c0.6,0.4,0.6,1-0.2,1.5l-2.6,1.5C246.4,207.2,245.3,207.2,244.6,206.9z"/>
			<path class="st7" d="M257,214l-8.1-4.7c-0.6-0.4-0.6-1,0.2-1.5l2.6-1.5c0.7-0.4,1.9-0.5,2.5-0.1l8.1,4.7c0.6,0.4,0.6,1-0.2,1.5
				l-2.6,1.5C258.8,214.3,257.7,214.4,257,214z"/>
			<path class="st7" d="M326.1,253.9l-8.1-4.7c-0.6-0.4-0.6-1,0.2-1.5l2.6-1.5c0.7-0.4,1.9-0.5,2.5-0.1l8.1,4.7
				c0.6,0.4,0.6,1-0.2,1.5l-2.6,1.5C327.9,254.2,326.8,254.3,326.1,253.9z"/>
			<path class="st7" d="M338.5,261.1l-8.1-4.7c-0.6-0.4-0.6-1,0.2-1.5l2.6-1.5c0.7-0.4,1.9-0.5,2.5-0.1l8.1,4.7
				c0.6,0.4,0.6,1-0.2,1.5l-2.6,1.5C340.3,261.4,339.2,261.4,338.5,261.1z"/>
			<path class="st7" d="M350.9,268.2l-8.1-4.7c-0.6-0.4-0.6-1,0.2-1.5l2.6-1.5c0.7-0.4,1.9-0.5,2.5-0.1l8.1,4.7
				c0.6,0.4,0.6,1-0.2,1.5l-2.6,1.5C352.7,268.5,351.5,268.6,350.9,268.2z"/>
			<path class="st7" d="M363.3,275.3l-8.1-4.7c-0.6-0.4-0.6-1,0.2-1.5l2.6-1.5c0.7-0.4,1.9-0.5,2.5-0.1l8.1,4.7
				c0.6,0.4,0.6,1-0.2,1.5l-2.6,1.5C365,275.7,363.9,275.7,363.3,275.3z"/>
			<path class="st7" d="M240.7,219.3l-8.1-4.7c-0.6-0.4-0.6-1,0.2-1.5l8-4.6c0.7-0.4,1.9-0.5,2.5-0.1l8.1,4.7c0.6,0.4,0.6,1-0.2,1.5
				l-8,4.6C242.5,219.7,241.3,219.7,240.7,219.3z"/>
			<path class="st7" d="M253.2,226.5l-8.1-4.7c-0.6-0.4-0.6-1,0.2-1.5l8-4.6c0.7-0.4,1.9-0.5,2.5-0.1l8.1,4.7c0.6,0.4,0.6,1-0.2,1.5
				l-8,4.6C254.9,226.9,253.8,226.9,253.2,226.5z"/>
			<path class="st7" d="M265.7,233.7l-8.1-4.7c-0.6-0.4-0.6-1,0.2-1.5l8-4.6c0.7-0.4,1.9-0.5,2.5-0.1l8.1,4.7c0.6,0.4,0.6,1-0.2,1.5
				l-8,4.6C267.4,234.1,266.3,234.1,265.7,233.7z"/>
			<path class="st7" d="M278.1,241l-8.1-4.7c-0.6-0.4-0.6-1,0.2-1.5l8-4.6c0.7-0.4,1.9-0.5,2.5-0.1l8.1,4.7c0.6,0.4,0.6,1-0.2,1.5
				l-8,4.6C279.9,241.3,278.8,241.3,278.1,241z"/>
			<path class="st7" d="M290.6,248.2l-8.1-4.7c-0.6-0.4-0.6-1,0.2-1.5l8-4.6c0.7-0.4,1.9-0.5,2.5-0.1l8.1,4.7c0.6,0.4,0.6,1-0.2,1.5
				l-8,4.6C292.4,248.5,291.3,248.5,290.6,248.2z"/>
			<path class="st7" d="M303.1,255.4l-8.1-4.7c-0.6-0.4-0.6-1,0.2-1.5l8-4.6c0.7-0.4,1.9-0.5,2.5-0.1l8.1,4.7c0.6,0.4,0.6,1-0.2,1.5
				l-8,4.6C304.9,255.7,303.8,255.8,303.1,255.4z"/>
			<path class="st7" d="M315.6,262.6l-8.1-4.7c-0.6-0.4-0.6-1,0.2-1.5l8-4.6c0.7-0.4,1.9-0.5,2.5-0.1l8.1,4.7c0.6,0.4,0.6,1-0.2,1.5
				l-8,4.6C317.4,262.9,316.3,263,315.6,262.6z"/>
			<path class="st7" d="M328.1,269.8l-8.1-4.7c-0.6-0.4-0.6-1,0.2-1.5l8-4.6c0.7-0.4,1.9-0.5,2.5-0.1l8.1,4.7c0.6,0.4,0.6,1-0.2,1.5
				l-8,4.6C329.9,270.1,328.8,270.2,328.1,269.8z"/>
			<path class="st7" d="M340.6,277l-8.1-4.7c-0.6-0.4-0.6-1,0.2-1.5l8-4.6c0.7-0.4,1.9-0.5,2.5-0.1l8.1,4.7c0.6,0.4,0.6,1-0.2,1.5
				l-8,4.6C342.4,277.4,341.3,277.4,340.6,277z"/>
			<path class="st7" d="M169.2,220.2l-23.8-13.8c-0.6-0.4-0.6-1,0.2-1.5l8-4.6c0.7-0.4,1.9-0.5,2.5-0.1L180,214
				c0.6,0.4,0.6,1-0.2,1.5l-8,4.6C171,220.5,169.9,220.6,169.2,220.2z"/>
			<path class="st7" d="M322.7,308.8l-23.8-13.8c-0.6-0.4-0.6-1,0.2-1.5l8-4.6c0.7-0.4,1.9-0.5,2.5-0.1l23.8,13.8
				c0.6,0.4,0.6,1-0.2,1.5l-8,4.6C324.5,309.1,323.4,309.2,322.7,308.8z"/>
			<path class="st7" d="M272.8,295.9l-8.1-4.7c-0.6-0.4-0.6-1,0.2-1.5l9.5-5.5c0.8-0.4,1.9-0.5,2.5-0.1l8.1,4.7
				c0.6,0.4,0.6,1-0.2,1.5l-9.5,5.5C274.5,296.2,273.4,296.3,272.8,295.9z"/>
			<path class="st7" d="M182,243.5l-12.9-7.5c-0.6-0.4-0.6-1,0.2-1.5l9.5-5.5c0.7-0.4,1.9-0.5,2.5-0.1l12.9,7.5
				c0.6,0.4,0.6,1-0.2,1.5l-9.5,5.5C183.8,243.9,182.7,243.9,182,243.5z"/>
			<path class="st7" d="M260.7,289l-12.9-7.5c-0.6-0.4-0.6-1,0.2-1.5l9.5-5.5c0.7-0.4,1.9-0.5,2.5-0.1l12.9,7.5
				c0.6,0.4,0.6,1-0.2,1.5l-9.5,5.5C262.5,289.3,261.4,289.3,260.7,289z"/>
			<path class="st7" d="M200.1,253.9l-12.9-7.5c-0.6-0.4-0.6-1,0.2-1.5l9.5-5.5c0.7-0.4,1.9-0.5,2.5-0.1l12.9,7.5
				c0.6,0.4,0.6,1-0.2,1.5l-9.5,5.5C201.8,254.3,200.7,254.3,200.1,253.9z"/>
			<path class="st7" d="M199.5,239.4l56.2,32.5c0.7,0.4,0.7,1.1,0,1.5L246,279c-0.7,0.4-1.8,0.4-2.5,0l-56.2-32.5L199.5,239.4z"/>
			<path class="st7" d="M307.7,309l9,5.2c0.5,0.3,0.5,0.8-0.1,1.2l-3.9,2.3c-0.6,0.4-1.5,0.4-2.1,0.1l-9-5.2
				c-0.5-0.3-0.5-0.8,0.1-1.2l3.9-2.3C306.2,308.7,307.1,308.7,307.7,309z"/>
			<path class="st7" d="M295.1,301.7l9,5.2c0.5,0.3,0.5,0.8-0.1,1.2l-3.9,2.3c-0.6,0.4-1.5,0.4-2.1,0.1l-9-5.2
				c-0.5-0.3-0.5-0.8,0.1-1.2l3.9-2.3C293.6,301.4,294.5,301.4,295.1,301.7z"/>
			<path class="st7" d="M282.6,294.5l9,5.2c0.5,0.3,0.5,0.8-0.1,1.2l-3.9,2.3c-0.6,0.4-1.5,0.4-2.1,0.1l-9-5.2
				c-0.5-0.3-0.5-0.8,0.1-1.2l3.9-2.3C281.1,294.2,282.1,294.2,282.6,294.5z"/>
			<path class="st7" d="M302,297.7l9,5.2c0.5,0.3,0.5,0.8-0.1,1.2l-3.9,2.3c-0.6,0.4-1.5,0.4-2.1,0.1l-9-5.2
				c-0.5-0.3-0.5-0.8,0.1-1.2l3.9-2.3C300.5,297.5,301.4,297.4,302,297.7z"/>
		</g>
		<g>
			<polygon class="st5" points="351.3,157 284,118.2 284.9,113.8 352.2,152.6 			"/>
			<polygon class="st5" points="327.2,164.4 280.3,137.3 281.1,132.9 328.1,160 			"/>
			<polygon class="st6" points="322.8,151.2 282.1,127.7 283,123.3 323.6,146.8 			"/>
			<polygon class="st8" points="349.4,166.6 329.1,154.8 330,150.5 350.3,162.2 			"/>
			<polygon class="st5" points="276.9,80 256.5,68.3 257.4,63.9 277.7,75.6 			"/>
			<polygon class="st6" points="274.7,90.2 254.3,78.4 255.2,74 275.5,85.8 			"/>
			<polygon class="st5" points="374.4,231.2 354.1,219.4 354.9,215.1 375.2,226.8 			"/>
			<polygon class="st5" points="270.3,110.5 249.9,98.8 250.8,94.4 271.1,106.1 			"/>
		</g>
		<g>
			<path class="st8" d="M314.2,113.6c-0.6,1.4-2.3,1.9-3.7,1.1c-1.4-0.8-2-2.6-1.3-4c0.6-1.4,2.3-1.9,3.7-1.1
				C314.2,110.4,314.8,112.2,314.2,113.6z"/>
			<path class="st6" d="M322.9,118.7c-0.6,1.4-2.3,1.9-3.7,1.1c-1.4-0.8-2-2.6-1.3-4c0.6-1.4,2.3-1.9,3.7-1.1
				C323,115.5,323.5,117.3,322.9,118.7z"/>
			<path class="st5" d="M331.7,123.7c-0.6,1.4-2.3,1.9-3.7,1.1c-1.4-0.8-2-2.6-1.3-4c0.6-1.4,2.3-1.9,3.7-1.1
				C331.7,120.5,332.3,122.3,331.7,123.7z"/>
			<path class="st8" d="M340.4,128.8c-0.6,1.4-2.3,1.9-3.7,1.1c-1.4-0.8-2-2.6-1.3-4c0.6-1.4,2.3-1.9,3.7-1.1
				C340.5,125.6,341.1,127.4,340.4,128.8z"/>
		</g>
	</g>
	<g>
		<g>
			<path class="st9" d="M192.6,106l-43.8-25.3c-0.9-0.5-1.7-0.5-2.5-0.2c0,0,0,0,0,0L141,83c0,0,2,0.7,3.1,1.1l-6.3,31.9
				c-0.5,2.6,0.6,5.6,2.6,6.7l41.9,24.2l-0.7,3.7l5.3-2.5l0,0c0.9-0.4,1.6-1.4,1.9-2.8l6.5-32.6C195.7,110.2,194.5,107.2,192.6,106z
				"/>
			<path class="st8" d="M178.9,150.5l-43.8-25.3c-1.9-1.1-3.1-4.1-2.6-6.7l6.5-32.6c0.5-2.6,2.5-3.8,4.5-2.7l43.8,25.3
				c1.9,1.1,3.1,4.1,2.6,6.7l-6.5,32.6C182.9,150.4,180.9,151.6,178.9,150.5z"/>
			<path class="st6" d="M188.2,108.1l-43.8-25.3c-1-0.6-2-0.5-2.9,0c0.6-0.1,1.2,0,1.9,0.4l43.8,25.3c1.9,1.1,3.1,4.1,2.6,6.7
				l-6.5,32.6c-0.2,1.2-0.8,2.1-1.6,2.6c1.2-0.2,2.2-1.3,2.6-3l6.5-32.6C191.3,112.3,190.2,109.3,188.2,108.1z"/>
		</g>
		<g>
			<path class="st6" d="M153.7,114c-0.4,1.9-2,2.6-3.6,1.7c-1.6-0.9-2.7-3.2-2.3-5.1s2-2.6,3.6-1.7
				C153.1,109.8,154.1,112.1,153.7,114z"/>
			<path class="st6" d="M162.7,119.2c-0.4,1.9-2,2.6-3.6,1.7c-1.6-0.9-2.7-3.2-2.3-5.1s2-2.6,3.6-1.7
				C162,115,163.1,117.3,162.7,119.2z"/>
			<path class="st6" d="M171.7,124.3c-0.4,1.9-2,2.6-3.6,1.7c-1.6-0.9-2.7-3.2-2.3-5.1c0.4-1.9,2-2.6,3.6-1.7
				C171,120.1,172,122.4,171.7,124.3z"/>
		</g>
	</g>
	<g>
		<g>
			<path class="st7" d="M172.9,65.1l-43.8-25.3c-0.9-0.5-1.7-0.5-2.5-0.2c0,0,0,0,0,0l-5.2,2.5c0,0,2,0.7,3.1,1.1L118.1,75
				c-0.5,2.6,0.6,5.6,2.6,6.7l41.9,24.2l-0.7,3.7l5.3-2.5l0,0c0.9-0.4,1.6-1.4,1.9-2.8l6.5-32.6C176,69.2,174.8,66.2,172.9,65.1z"/>
			<path class="st5" d="M159.2,109.5l-43.8-25.3c-1.9-1.1-3.1-4.1-2.6-6.7l6.5-32.6c0.5-2.6,2.5-3.8,4.5-2.7l43.8,25.3
				c1.9,1.1,3.1,4.1,2.6,6.7l-6.5,32.6C163.2,109.5,161.2,110.7,159.2,109.5z"/>
			<path class="st6" d="M168.6,67.2l-43.8-25.3c-1-0.6-2-0.5-2.9,0c0.6-0.1,1.2,0,1.9,0.4l43.8,25.3c1.9,1.1,3.1,4.1,2.6,6.7
				l-6.5,32.6c-0.2,1.2-0.8,2.1-1.6,2.6c1.2-0.2,2.2-1.3,2.6-3l6.5-32.6C171.7,71.3,170.5,68.3,168.6,67.2z"/>
		</g>
		<g>
			<path class="st6" d="M134.1,73c-0.4,1.9-2,2.6-3.6,1.7c-1.6-0.9-2.7-3.2-2.3-5.1c0.4-1.9,2-2.6,3.6-1.7
				C133.4,68.9,134.4,71.1,134.1,73z"/>
			<path class="st6" d="M143,78.2c-0.4,1.9-2,2.6-3.6,1.7c-1.6-0.9-2.7-3.2-2.3-5.1s2-2.6,3.6-1.7C142.4,74,143.4,76.3,143,78.2z"/>
			<path class="st6" d="M152,83.4c-0.4,1.9-2,2.6-3.6,1.7c-1.6-0.9-2.7-3.2-2.3-5.1c0.4-1.9,2-2.6,3.6-1.7
				C151.3,79.2,152.4,81.5,152,83.4z"/>
		</g>
	</g>
	<g>
		<g>
			<g>
				<path class="st8" d="M116,323.4c0,0-4.3-2.2-6.9,1.1c-2.6,3.2-6.4,10.8-6.5,15.9c-0.1,5.1,4,4.8,6.5,3.6
					c2.5-1.2,9.7-11.7,10.1-13.8c0.4-2.1-0.5-4.8-1.2-5.4C117.4,324.2,116,323.4,116,323.4z"/>
				<path class="st5" d="M117,322.3l0.2,4.4c0,0.9-0.4,1.8-1.2,2.3c-0.7,0.4-1.8,0.7-3.3,0.5c-3.2-0.5-3.5-1.4-3.7-5.9
					C108.7,319.3,117,322.3,117,322.3z"/>
				<g>
					<path class="st8" d="M100.4,314.9c0,0-4.3-2.2-6.9,1.1c-2.6,3.2-6.4,10.8-6.5,15.9c-0.1,5.1,4,4.8,6.5,3.6
						c2.5-1.2,9.7-11.7,10.1-13.8c0.4-2.1-0.5-4.8-1.2-5.4C101.8,315.7,100.4,314.9,100.4,314.9z"/>
					<path class="st5" d="M101.3,313.8l0.2,4.4c0,0.9-0.4,1.8-1.2,2.3c-0.7,0.4-1.8,0.7-3.3,0.5c-3.2-0.5-3.5-1.4-3.7-5.9
						C93,310.8,101.3,313.8,101.3,313.8z"/>
					<path class="st2" d="M139.4,232.6c-1.3-20.6-22.3,3-22.3,3l-14.4,14.1L89.9,264c-2.5,2.8-3.7,6.5-3.2,10.3l5.2,39.9
						c0.3,2,1.9,3.4,3.9,3.4c0.6,0,1.2-0.1,1.9-0.2c4.7-0.7,4.3-5.2,4.3-5.2l-1-37.3l27.2-16.4C128.3,258.5,140.7,253.2,139.4,232.6
						z"/>
				</g>
				<path class="st2" d="M155.1,240.4c-1.3-20.6-22.3,3-22.3,3l-14.4,14.1l-12.9,14.2c-2.5,2.8-3.7,6.5-3.2,10.3l5.2,39.9
					c0.3,2,1.9,3.4,3.9,3.4c0.6,0,1.2-0.1,1.9-0.2c4.7-0.7,4.3-5.2,4.3-5.2l-0.9-36.2l27.2-17.5C143.9,266.3,156.3,261,155.1,240.4z
					"/>
				<path class="st8" d="M142.6,174.4c15.9,6.6,15.6,16,15.6,16s-3.1,34.5-2.1,57.6c0.4,9.6-51.2,10.4-43.5-15.3
					c9.1-30.3,5.7-54.8,9.9-58.5C126.9,170.4,138.5,172.7,142.6,174.4z"/>
				<path class="st10" d="M147.8,182.8c-0.8,3.2-5.1,4.9-9.5,3.8c-4.4-1.1-7.3-4.7-6.4-7.9c0.8-3.2,5.1-4.9,9.5-3.8
					C145.7,176,148.6,179.6,147.8,182.8z"/>
				<path class="st6" d="M141,187.7c-1,0-1.9-0.1-2.9-0.4c-2.3-0.6-4.3-1.8-5.6-3.4c-1.4-1.7-1.9-3.6-1.4-5.4s1.8-3.2,3.8-4.1
					c1.9-0.8,4.3-0.9,6.5-0.3c2.3,0.6,4.3,1.8,5.6,3.4c1.4,1.7,1.9,3.6,1.4,5.4s-1.8,3.2-3.8,4.1C143.5,187.5,142.3,187.7,141,187.7
					z M138.6,175.3c-1.1,0-2.1,0.2-3.1,0.6c-1.6,0.6-2.6,1.7-2.9,3c-0.3,1.3,0.1,2.8,1.1,4.1c1.1,1.4,2.8,2.4,4.8,2.9
					c2,0.5,4,0.4,5.6-0.2c1.6-0.6,2.6-1.7,2.9-3l0,0c0.3-1.3-0.1-2.8-1.1-4.1c-1.1-1.4-2.8-2.4-4.8-2.9
					C140.3,175.4,139.4,175.3,138.6,175.3z"/>
				<path class="st10" d="M136.3,173.7c0,0,0.1,0.6-0.1,5.7c-0.1,1.6,5.5,3.1,6.9,1.6c1.4-1.4,0.9-2.9,1.2-8.3
					S136.3,173.7,136.3,173.7z"/>
				<path class="st11" d="M144.2,172.7c0,0-1.4,5-8.1,6.9l0.1-4.5L144.2,172.7z"/>
				<path class="st10" d="M148.5,160c1.7,6.6-2.2,13.2-8.8,14.9c-6.6,1.7-13.2-2.2-14.9-8.8c-1.7-6.6,2.2-13.2,8.8-14.9
					C140.1,149.5,146.8,153.4,148.5,160z"/>
				<path class="st11" d="M139.5,163.5c0,0-6.7,2.9-11.4,2.9c-4.7,0-3.6-3.9-3.6-3.9l13.9-2L139.5,163.5z"/>
				<path class="st5" d="M126.6,164.3c0,0,5.9-2.5,11-1.5c1.2,0.2,2.3,0.9,3.1,1.9c0.3,0.3,0.6,0.6,0.9,0.7c0.9,0.2,2.4-3.6,4.2-3.7
					c1.8-0.1,3,1.2,1.5,3.5c-1.5,2.3-1,4.9-0.3,5.3c0.7,0.4,9-5.4,2.7-17.8c-6.3-12.4-23.4-5.4-25.9-2.9c0,0-2.6,2.3-4.7,0.3
					C119.2,150,116.8,167.9,126.6,164.3z"/>
				<path class="st10" d="M149.3,215.7v9.3c0,1.1-0.5,2.1-1.2,2.8l-19.2,17.5l2.2,3.3l26.4-17.3c1.2-0.9,1.9-2.2,2.1-3.6l1.8-17.3
					L149.3,215.7z"/>
				<path class="st8" d="M156.9,185.8c0,0,5.8,8.7,8,31.7c0,0-9.9,3.2-15.6,1.4C143.7,217.1,156.9,185.8,156.9,185.8z"/>
				<path class="st9" d="M148.3,196.8c0,0-2.3,12.2-2.4,17.9c0,1.6,0.9,3,2.4,3.5l0,0V196.8z"/>
			</g>
			<g>
				<path class="st7" d="M143.3,257.4l-4.2-0.6l-27.3-15.8c-0.9-0.5-2.4-0.4-3.4,0.1l-19.4,11.2l-2.6-0.3v2.5l0,0
					c0,0.3,0.2,0.7,0.6,0.9l31,17.9c0.9,0.5,2.4,0.4,3.4-0.1l21.1-12.2c0.6-0.3,0.9-0.8,0.8-1.1l0,0V257.4z"/>
				<path class="st3" d="M122.8,247.4l-1.9-1.1H99.5l-10.5,6.1l-2.6-0.3v2.5l0,0c0,0.3,0.2,0.7,0.6,0.9l31,17.9
					c0.5,0.3,1.1,0.4,1.8,0.3L122.8,247.4z"/>
				<path class="st7" d="M87.5,252.2l-1.1-0.2v2.5l0,0c0,0.3,0.2,0.7,0.6,0.9l0.5,0.3V252.2z"/>
				<path class="st7" d="M118.3,273.5c0.8,0.3,2,0.2,2.9-0.2V269h-2.9V273.5z"/>
				<path class="st6" d="M117.9,270.8l-31-17.9c-0.9-0.5-0.8-1.4,0.2-2l21.1-12.2c1-0.6,2.5-0.6,3.4-0.1l31,17.9
					c0.9,0.5,0.8,1.4-0.2,2l-21.1,12.2C120.3,271.3,118.8,271.3,117.9,270.8z"/>
				<path class="st5" d="M117.4,268.1l-25.8-14.9c-0.7-0.4-0.6-1.2,0.2-1.6l11.3-6.4c0.8-0.5,2.1-0.5,2.8-0.1l25.8,14.9
					c0.7,0.4,0.6,1.2-0.2,1.6l-11.3,6.4C119.4,268.5,118.1,268.5,117.4,268.1z"/>
			</g>
			<path class="st10" d="M109.5,238.2l-0.3,2.1c-0.3,1.8-0.2,3.7,0.1,5.5l0.4,1.9c0.2,1.1,1.1,1.9,2.1,2.1l0,0
				c0.8,0.2,1.6-0.4,1.7-1.3l0.5-4.6c0,0,1.2,1.5,1.7,1.5c0.6,0-0.6-4.6-1.9-7.2C112.6,235.7,109.5,238.2,109.5,238.2z"/>
			<path class="st10" d="M120,204.2l-3.3,6.6c-0.8,1.6-1.2,3.3-1.4,5l-1.4,22.5l-4.4-0.1l-2-25.3c-0.1-0.8,0-1.6,0.1-2.3l2.3-12.8
				L120,204.2z"/>
			<g>
				<path class="st2" d="M116.9,272.5l-2.6-3.4L87,253.3c-0.9-0.5-1.6-1.9-1.6-3l0-22.4l-1.6-2.1l1.5-0.9l0,0
					c0.3-0.2,0.7-0.2,1.1,0.1l31,17.9c0.9,0.5,1.6,1.9,1.6,3l0,24.4c0,0.7-0.2,1.1-0.6,1.3l0,0L116.9,272.5z"/>
				<path class="st3" d="M98,259.7l-1.9-1.1l-10.7-18.5l0-12.2l-1.6-2.1l1.5-0.9l0,0c0.3-0.2,0.7-0.2,1.1,0.1l31,17.9
					c0.5,0.3,0.9,0.8,1.2,1.4L98,259.7z"/>
				<path class="st7" d="M84.6,226.8l-0.7-0.9l1.5-0.9l0,0c0.3-0.2,0.7-0.2,1.1,0.1l0.5,0.3L84.6,226.8z"/>
				<path class="st4" d="M117.6,243.2c0.7,0.6,1.2,1.6,1.3,2.6l-3,1.7l-1.4-2.5L117.6,243.2z"/>
				<path class="st7" d="M115.9,243.9l-31-17.9c-0.9-0.5-1.6,0-1.6,1.2l0,24.4c0,1.2,0.7,2.5,1.6,3l31,17.9c0.9,0.5,1.6,0,1.6-1.2
					l0-24.4C117.5,245.7,116.8,244.4,115.9,243.9z"/>
			</g>
			<path class="st10" d="M131.1,248.6l-0.5,1c-0.6,1.2-1.5,2.2-2.6,2.9l-3.1,1.9c-1,0.6-2.2,0.6-3.1,0.1c0,0-0.1,0-0.1-0.1
				c-1-0.6-1.1-2-0.3-2.8l3.2-3.3c0,0-1.8,1.4-2.3,0.8c-0.4-0.4,1.8-2.4,3.4-2.5c1.6-0.1,3.2-1.3,3.2-1.3L131.1,248.6z"/>
			<path class="st8" d="M123,174.1c0,0-11.8,12.8-16.5,24.6c0,0,4,7.3,13.9,10.1C130.2,211.6,123,174.1,123,174.1z"/>
			<path class="st9" d="M118.1,208l1.9-18.4l-4.5,17.3C116.3,207.3,117.2,207.6,118.1,208z"/>
			<path class="st6" d="M131.8,171.5l-3.2-0.9c0,0,1.5,2.4,3.7,3c2.2,0.6,2.5-1.3,2.5-1.3L131.8,171.5z"/>
		</g>
		<path class="st6" d="M148.7,166.4c0,1-0.8,1.8-1.8,1.8s-1.8-0.8-1.8-1.8c0-1,0.8-1.8,1.8-1.8S148.7,165.5,148.7,166.4z"/>
	</g>
	<path class="st6" d="M196.1,312.2l-52.8-30.5c-1.5-0.9-1.3-2.4,0.4-3.5l31.8-18.4c1.8-1,4.5-1.1,6-0.2l52.8,30.5
		c1.5,0.9,1.3,2.4-0.4,3.5l-31.8,18.4C200.3,313,197.6,313.1,196.1,312.2z"/>
	<g>
		<g>
			
				<ellipse transform="matrix(0.9939 -0.1101 0.1101 0.9939 -34.5261 29.6728)" class="st1" cx="251.4" cy="327.4" rx="23.2" ry="13.4"/>
			<path class="st8" d="M276.4,313.1l-0.8-7.4l-1.4,0.2c-1.5-2-3.8-3.8-6.9-5.2c-10.9-4.8-27.5-2.9-37.1,4.1c-2.8,2-4.6,4.3-5.6,6.6
				l-1.4,0.2l0.8,7.3l0,0c0.4,3.9,3.4,7.5,8.9,9.9c10.9,4.8,27.5,2.9,37.1-4.1C274.7,321.1,276.8,317,276.4,313.1z"/>
			
				<ellipse transform="matrix(0.9939 -0.1101 0.1101 0.9939 -32.4728 29.33)" class="st8" cx="249.3" cy="308.6" rx="26.4" ry="15.2"/>
			<path class="st6" d="M269,317.3c-9.6,7.1-26.2,8.9-37.1,4.1c-5.2-2.3-8.2-5.7-8.8-9.4c0.2,4.1,3.2,7.9,8.9,10.4
				c10.9,4.8,27.5,2.9,37.1-4.1c5-3.7,7.1-8,6.4-12C275.8,310,273.6,313.9,269,317.3z"/>
		</g>
		<g>
			<path class="st6" d="M237.2,315.1c-0.5-0.2-0.8-0.5-0.8-0.9l-1.1-9.9c-0.1-0.8,0.9-1.5,2.2-1.6c1.3-0.1,2.4,0.4,2.5,1.1l0.9,8.2
				l23.4-5.5c1.3-0.3,2.6,0,2.9,0.7c0.4,0.7-0.4,1.5-1.6,1.8l-26.3,6.2c-0.7,0.2-1.4,0.1-2-0.1C237.3,315.1,237.3,315.1,237.2,315.1
				z"/>
		</g>
	</g>
	<g>
		<g>
			<polygon class="st1" points="137,391.5 119.6,381.5 137,371.4 154.5,381.5 			"/>
			<polygon class="st2" points="154.5,368.7 137,378.7 137,358.6 154.5,348.5 			"/>
			<polygon class="st5" points="137,358.6 119.6,348.5 137,338.4 154.5,348.5 			"/>
			<polygon class="st7" points="137,378.7 119.6,368.7 119.6,348.5 137,358.6 			"/>
		</g>
		<polygon class="st6" points="130.7,367.9 125.9,365 125.9,359.4 130.7,362.2 		"/>
	</g>
	<g>
		<g>
			<g>
				<g>
					<path class="st1" d="M365.7,430.2l-53.1-30.7c-1.9-1.1-1.7-3.1,0.5-4.4l56.3-32.6c2.2-1.3,5.6-1.4,7.6-0.3l53.1,30.7
						c1.9,1.1,1.7,3.1-0.5,4.4l-56.3,32.6C371,431.2,367.6,431.3,365.7,430.2z"/>
					<g>
						
							<linearGradient id="SVGID_1_" gradientUnits="userSpaceOnUse" x1="125.8986" y1="1411.1359" x2="125.8986" y2="1284.2446" gradientTransform="matrix(0.866 0.5 0 1.1547 293.8667 -1336.2423)">
							<stop  offset="0" style="stop-color:#2D0979"/>
							<stop  offset="1" style="stop-color:#5B04F7"/>
						</linearGradient>
						<path class="st12" d="M431.3,372.5l-56.8-32.8c-2.2-1.3-4-4.7-4-7.6V196.3c0-2.9,1.8-4.3,4-3l56.8,32.8c2.2,1.3,4,4.7,4,7.6
							v135.9C435.3,372.5,433.5,373.8,431.3,372.5z"/>
						<path class="st3" d="M431.3,226l-56.8-32.8c-1-0.6-1.9-0.6-2.6-0.2l0,0l-64.8,37.4l3.1,11.3L369.3,410l64.6-37.2c0,0,0,0,0,0
							l0.1-0.1l0,0c0.8-0.5,1.3-1.6,1.3-3.2V233.7C435.3,230.7,433.5,227.3,431.3,226z"/>
						<path class="st5" d="M431.3,226l-56.8-32.8c-1-0.6-1.9-0.6-2.6-0.2l0,0l-64.8,37.4l3.1,11.3l16.3,46.3l3.1,1.8l104.7-60.4
							C433.4,227.9,432.4,226.7,431.3,226z"/>
						<path class="st7" d="M366.5,409.9l-56.8-32.8c-2.2-1.3-4-4.7-4-7.6V233.6c0-2.9,1.8-4.3,4-3l56.8,32.8c2.2,1.3,4,4.7,4,7.6
							v135.9C370.5,409.8,368.7,411.2,366.5,409.9z"/>
						
							<linearGradient id="SVGID_2_" gradientUnits="userSpaceOnUse" x1="15.8907" y1="1419.8896" x2="79.6546" y2="1405.4407" gradientTransform="matrix(0.866 0.5 0 1.1547 293.8667 -1336.2423)">
							<stop  offset="0" style="stop-color:#3919BB"/>
							<stop  offset="1" style="stop-color:#6507FA"/>
						</linearGradient>
						<path class="st13" d="M362.9,401.7l-49.6-28.7c-1.9-1.1-3.5-4.1-3.5-6.7V240.2c0-2.6,1.6-3.8,3.5-2.6l49.6,28.7
							c1.9,1.1,3.5,4.1,3.5,6.7v126.2C366.4,401.6,364.9,402.8,362.9,401.7z"/>
						
							<linearGradient id="SVGID_3_" gradientUnits="userSpaceOnUse" x1="15.8907" y1="1419.8896" x2="79.6546" y2="1405.4407" gradientTransform="matrix(0.866 0.5 0 1.1547 293.8667 -1336.2423)">
							<stop  offset="0" style="stop-color:#3919BB"/>
							<stop  offset="1" style="stop-color:#6507FA"/>
						</linearGradient>
						<path class="st14" d="M362.9,401.7l-49.6-28.7c-1.9-1.1-3.5-4.1-3.5-6.7V240.2c0-2.6,1.6-3.8,3.5-2.6l49.6,28.7
							c1.9,1.1,3.5,4.1,3.5,6.7v126.2C366.4,401.6,364.9,402.8,362.9,401.7z"/>
						<path class="st2" d="M362.9,401.7l-49.6-28.7c-1.9-1.1-3.5-4.1-3.5-6.7V240.2c0-2.6,1.6-3.8,3.5-2.6l49.6,28.7
							c1.9,1.1,3.5,4.1,3.5,6.7v126.2C366.4,401.6,364.9,402.8,362.9,401.7z"/>
						<path class="st3" d="M364.6,400.8l-49.6-28.7c-1.9-1.1-3.5-4.1-3.5-6.7V239.3c0-0.9,0.2-1.6,0.5-2.1c-1.2,0-2.1,1.1-2.1,3.1
							v126.2c0,2.6,1.6,5.6,3.5,6.7l49.6,28.7c1.3,0.7,2.4,0.5,3-0.5C365.5,401.2,365,401,364.6,400.8z"/>
					</g>
				</g>
			</g>
			<g>
				<g>
					<path class="st2" d="M362.9,343.8l-18.4-10.7l-29.4,17l51.4,29.7v-29.3C366.4,347.9,364.9,344.9,362.9,343.8z"/>
					<path class="st2" d="M362.9,317.9l-18.4-10.7l-29.4,17l51.4,29.7v-29.3C366.4,322,364.9,319,362.9,317.9z"/>
					<path class="st2" d="M362.9,292.1l-18.4-10.7l-29.4,17l51.4,29.7v-29.3C366.4,296.2,364.9,293.2,362.9,292.1z"/>
					<path class="st2" d="M362.9,266.2l-18.4-10.7l-29.4,17l51.4,29.7v-29.3C366.4,270.3,364.9,267.3,362.9,266.2z"/>
					<path class="st2" d="M362.9,266.2l-40.8-23.6l-7,4.1l51.4,29.7v-3.5C366.4,270.3,364.9,267.3,362.9,266.2z"/>
				</g>
				<polygon class="st7" points="366.4,276.4 315.1,246.7 315.1,263 366.4,292.7 				"/>
				<polygon class="st7" points="366.4,302.2 315.1,272.6 315.1,288.9 366.4,318.6 				"/>
				<polygon class="st7" points="366.4,328.1 315.1,298.4 315.1,314.8 366.4,344.4 				"/>
				<polygon class="st7" points="366.4,353.9 315.1,324.3 315.1,340.6 366.4,370.3 				"/>
				<polygon class="st7" points="366.4,379.8 315.1,350.1 315.1,366.5 366.4,396.1 				"/>
			</g>
			<g>
				<path class="st2" d="M361.9,286.9l-38.7-22.3c-1.1-0.6-2-2.3-2-3.8v-4.4c0-1.5,0.9-2.1,2-1.5l38.7,22.3c1.1,0.6,2,2.3,2,3.8v4.4
					C363.9,286.8,363,287.5,361.9,286.9z"/>
				<path class="st15" d="M325.2,263.7c-1.1-0.6-2-2.3-2-3.8v-4.4c0-0.2,0-0.4,0.1-0.6l0,0c-1.1-0.6-2,0-2,1.5v4.4
					c0,1.5,0.9,3.1,2,3.8l38.7,22.3c0.9,0.5,1.7,0.1,1.9-0.9L325.2,263.7z"/>
				<path class="st6" d="M349.8,274.9l-23.3-13.4c-0.4-0.2-0.7-0.8-0.7-1.3l0,0c0-0.5,0.3-0.7,0.7-0.5l23.3,13.4
					c0.4,0.2,0.7,0.8,0.7,1.3l0,0C350.5,274.9,350.2,275.1,349.8,274.9z"/>
			</g>
			<g>
				<path class="st2" d="M361.9,312.6l-38.7-22.3c-1.1-0.6-2-2.3-2-3.8v-4.4c0-1.5,0.9-2.1,2-1.5l38.7,22.3c1.1,0.6,2,2.3,2,3.8v4.4
					C363.9,312.5,363,313.2,361.9,312.6z"/>
				<path class="st15" d="M325.2,289.4c-1.1-0.6-2-2.3-2-3.8v-4.4c0-0.2,0-0.4,0.1-0.6l0,0c-1.1-0.6-2,0-2,1.5v4.4
					c0,1.5,0.9,3.1,2,3.8l38.7,22.3c0.9,0.5,1.7,0.1,1.9-0.9L325.2,289.4z"/>
				<path class="st6" d="M349.8,300.6l-23.3-13.4c-0.4-0.2-0.7-0.8-0.7-1.3v0c0-0.5,0.3-0.7,0.7-0.5l23.3,13.4
					c0.4,0.2,0.7,0.8,0.7,1.3l0,0C350.5,300.6,350.2,300.8,349.8,300.6z"/>
			</g>
			<g>
				<path class="st2" d="M361.9,338.5l-38.7-22.3c-1.1-0.6-2-2.3-2-3.8V308c0-1.5,0.9-2.1,2-1.5l38.7,22.3c1.1,0.6,2,2.3,2,3.8v4.4
					C363.9,338.5,363,339.1,361.9,338.5z"/>
				<path class="st15" d="M325.2,315.3c-1.1-0.6-2-2.3-2-3.8v-4.4c0-0.2,0-0.4,0.1-0.6l0,0c-1.1-0.6-2,0-2,1.5v4.4
					c0,1.5,0.9,3.1,2,3.8l38.7,22.3c0.9,0.5,1.7,0.1,1.9-0.9L325.2,315.3z"/>
				<path class="st5" d="M349.8,326.5l-23.3-13.4c-0.4-0.2-0.7-0.8-0.7-1.3l0,0c0-0.5,0.3-0.7,0.7-0.5l23.3,13.4
					c0.4,0.2,0.7,0.8,0.7,1.3l0,0C350.5,326.5,350.2,326.7,349.8,326.5z"/>
			</g>
			<g>
				<path class="st2" d="M361.9,364.7l-38.7-22.3c-1.1-0.6-2-2.3-2-3.8v-4.4c0-1.5,0.9-2.1,2-1.5l38.7,22.3c1.1,0.6,2,2.3,2,3.8v4.4
					C363.9,364.6,363,365.3,361.9,364.7z"/>
				<path class="st15" d="M325.2,341.5c-1.1-0.6-2-2.3-2-3.8v-4.4c0-0.2,0-0.4,0.1-0.6l0,0c-1.1-0.6-2,0-2,1.5v4.4
					c0,1.5,0.9,3.1,2,3.8l38.7,22.3c0.9,0.5,1.7,0.1,1.9-0.9L325.2,341.5z"/>
				<path class="st8" d="M349.8,352.7l-23.3-13.4c-0.4-0.2-0.7-0.8-0.7-1.3l0,0c0-0.5,0.3-0.7,0.7-0.5l23.3,13.4
					c0.4,0.2,0.7,0.8,0.7,1.3l0,0C350.5,352.7,350.2,352.9,349.8,352.7z"/>
			</g>
			<g>
				<path class="st2" d="M361.9,390.3L323.2,368c-1.1-0.6-2-2.3-2-3.8v-4.4c0-1.5,0.9-2.1,2-1.5l38.7,22.3c1.1,0.6,2,2.3,2,3.8v4.4
					C363.9,390.3,363,391,361.9,390.3z"/>
				<path class="st15" d="M325.2,367.2c-1.1-0.6-2-2.3-2-3.8V359c0-0.2,0-0.4,0.1-0.6l0,0c-1.1-0.6-2,0-2,1.5v4.4
					c0,1.5,0.9,3.1,2,3.8l38.7,22.3c0.9,0.5,1.7,0.1,1.9-0.9L325.2,367.2z"/>
				<path class="st5" d="M349.8,378.3l-23.3-13.4c-0.4-0.2-0.7-0.8-0.7-1.3l0,0c0-0.5,0.3-0.7,0.7-0.5l23.3,13.4
					c0.4,0.2,0.7,0.8,0.7,1.3l0,0C350.5,378.3,350.2,378.6,349.8,378.3z"/>
			</g>
			<polygon class="st1" points="315.1,246.7 319.1,249 319.1,265.4 315.1,263 			"/>
			<polygon class="st1" points="315.1,272.6 319.1,274.9 319.1,291.2 315.1,288.9 			"/>
			<polygon class="st1" points="315.1,298.4 319.1,300.7 319.1,317.1 315.1,314.8 			"/>
			<polygon class="st1" points="315.1,324.3 319.1,326.6 319.1,342.9 315.1,340.6 			"/>
			<polygon class="st1" points="315.1,350.1 319.1,352.5 319.1,368.8 315.1,366.5 			"/>
		</g>
		<path class="st5" d="M354.4,276.5c0,0.5-0.4,0.7-0.8,0.5c-0.5-0.3-0.8-0.9-0.8-1.4s0.4-0.7,0.8-0.5
			C354,275.3,354.4,276,354.4,276.5z"/>
		<path class="st8" d="M357.8,278.5c0,0.5-0.4,0.7-0.8,0.5c-0.5-0.3-0.8-0.9-0.8-1.4s0.4-0.7,0.8-0.5
			C357.5,277.3,357.8,278,357.8,278.5z"/>
		<path class="st5" d="M361.3,280.5c0,0.5-0.4,0.7-0.8,0.5c-0.5-0.3-0.8-0.9-0.8-1.4s0.4-0.7,0.8-0.5
			C360.9,279.3,361.3,280,361.3,280.5z"/>
		<path class="st8" d="M354.4,302.3c0,0.5-0.4,0.7-0.8,0.5c-0.5-0.3-0.8-0.9-0.8-1.4s0.4-0.7,0.8-0.5
			C354,301.2,354.4,301.8,354.4,302.3z"/>
		<path class="st5" d="M357.8,304.3c0,0.5-0.4,0.7-0.8,0.5c-0.5-0.3-0.8-0.9-0.8-1.4s0.4-0.7,0.8-0.5
			C357.5,303.2,357.8,303.8,357.8,304.3z"/>
		<path class="st6" d="M361.3,306.3c0,0.5-0.4,0.7-0.8,0.5c-0.5-0.3-0.8-0.9-0.8-1.4s0.4-0.7,0.8-0.5
			C360.9,305.2,361.3,305.8,361.3,306.3z"/>
		<path class="st6" d="M354.4,328.4c0,0.5-0.4,0.7-0.8,0.5c-0.5-0.3-0.8-0.9-0.8-1.4s0.4-0.7,0.8-0.5
			C354,327.2,354.4,327.9,354.4,328.4z"/>
		<path class="st8" d="M357.8,330.4c0,0.5-0.4,0.7-0.8,0.5c-0.5-0.3-0.8-0.9-0.8-1.4s0.4-0.7,0.8-0.5
			C357.5,329.2,357.8,329.9,357.8,330.4z"/>
		<path class="st6" d="M361.3,332.4c0,0.5-0.4,0.7-0.8,0.5c-0.5-0.3-0.8-0.9-0.8-1.4s0.4-0.7,0.8-0.5
			C360.9,331.2,361.3,331.9,361.3,332.4z"/>
		<path class="st6" d="M354.4,354c0,0.5-0.4,0.7-0.8,0.5c-0.5-0.3-0.8-0.9-0.8-1.4s0.4-0.7,0.8-0.5C354,352.9,354.4,353.5,354.4,354
			z"/>
		<path class="st5" d="M357.8,356c0,0.5-0.4,0.7-0.8,0.5c-0.5-0.3-0.8-0.9-0.8-1.4s0.4-0.7,0.8-0.5
			C357.5,354.9,357.8,355.5,357.8,356z"/>
		<path class="st5" d="M361.3,358c0,0.5-0.4,0.7-0.8,0.5c-0.5-0.3-0.8-0.9-0.8-1.4s0.4-0.7,0.8-0.5
			C360.9,356.9,361.3,357.5,361.3,358z"/>
		<path class="st6" d="M354.4,380c0,0.5-0.4,0.7-0.8,0.5c-0.5-0.3-0.8-0.9-0.8-1.4s0.4-0.7,0.8-0.5C354,378.9,354.4,379.5,354.4,380
			z"/>
		<path class="st8" d="M357.8,382c0,0.5-0.4,0.7-0.8,0.5c-0.5-0.3-0.8-0.9-0.8-1.4s0.4-0.7,0.8-0.5
			C357.5,380.9,357.8,381.5,357.8,382z"/>
		<path class="st5" d="M361.3,384c0,0.5-0.4,0.7-0.8,0.5c-0.5-0.3-0.8-0.9-0.8-1.4s0.4-0.7,0.8-0.5
			C360.9,382.9,361.3,383.5,361.3,384z"/>
		<g>
			<path class="st2" d="M379.1,391.5V275.8l0.2-0.1l48.3-27.9v115.7l-0.2,0.1L379.1,391.5z M380,276.4v113.5l46.7-26.9V249.5
				L380,276.4z"/>
		</g>
		<g>
			<path class="st2" d="M415.1,299.8l-21.7,12.5c-1.5,0.8-2.6-0.1-2.6-2v-12c0-1.9,1.2-4.2,2.6-5l21.7-12.5c1.5-0.8,2.6,0.1,2.6,2
				v12C417.7,296.7,416.5,299,415.1,299.8z"/>
			<path class="st7" d="M415.6,280.6c0.1,0.3,0.2,0.7,0.2,1.2v12c0,1.9-1.2,4.2-2.6,5l-21.7,12.5c-0.2,0.1-0.4,0.2-0.5,0.2
				c0.4,1.1,1.3,1.4,2.4,0.8l21.7-12.5c1.5-0.8,2.6-3.1,2.6-5v-12C417.7,281.1,416.8,280.2,415.6,280.6z"/>
			<g>
				<g>
					<path class="st6" d="M411.1,292.6c0.4-0.2,0.7,0,0.7,0.4v2.7c0,0.5-0.3,1-0.7,1.3c-0.4,0.2-0.7,0-0.7-0.4v-2.7
						C410.4,293.4,410.7,292.8,411.1,292.6z"/>
					<path class="st5" d="M408,294.7c0.4-0.2,0.7,0,0.7,0.4v2.4c0,0.5-0.3,1-0.7,1.3c-0.4,0.2-0.7,0-0.7-0.4V296
						C407.3,295.5,407.6,295,408,294.7z"/>
					<path class="st8" d="M404.9,293.9c0.4-0.2,0.7,0,0.7,0.4v5.1c0,0.5-0.3,1-0.7,1.3c-0.4,0.2-0.7,0-0.7-0.4v-5.1
						C404.2,294.7,404.5,294.1,404.9,293.9z"/>
					<path class="st5" d="M401.8,292.7c0.4-0.2,0.7,0,0.7,0.4v8c0,0.5-0.3,1-0.7,1.3c-0.4,0.2-0.7,0-0.7-0.4v-8
						C401.1,293.5,401.4,293,401.8,292.7z"/>
					<path class="st5" d="M398.7,295.4c0.4-0.2,0.7,0,0.7,0.4v7.2c0,0.5-0.3,1-0.7,1.3c-0.4,0.2-0.7,0-0.7-0.4v-7.2
						C398,296.2,398.3,295.6,398.7,295.4z"/>
					<path class="st6" d="M395.6,300.4c0.4-0.2,0.7,0,0.7,0.4v3.9c0,0.5-0.3,1-0.7,1.3c-0.4,0.2-0.7,0-0.7-0.4v-3.9
						C394.9,301.2,395.2,300.7,395.6,300.4z"/>
				</g>
				<path class="st8" d="M410.4,291.2c0,0.5,0.3,0.6,0.7,0.4c0.4-0.2,0.7-0.8,0.7-1.2c0-0.5-0.3-0.6-0.7-0.4
					C410.7,290.2,410.4,290.8,410.4,291.2z"/>
				<path class="st6" d="M410.4,288.6c0,0.5,0.3,0.6,0.7,0.4c0.4-0.2,0.7-0.8,0.7-1.2c0-0.5-0.3-0.6-0.7-0.4
					C410.7,287.6,410.4,288.2,410.4,288.6z"/>
			</g>
		</g>
	</g>
	<g>
		<path class="st1" d="M32.4,256.9l-31.1-18c-1.9-1.1-1.7-3,0.5-4.3l30-17.3c2.2-1.3,5.5-1.4,7.4-0.3l31.1,18c1.9,1.1,1.7,3-0.5,4.3
			l-30,17.3C37.6,257.9,34.3,258,32.4,256.9z"/>
		<path class="st3" d="M71.7,217.7L71.7,217.7V207l-24.1,0l-8.3-4.8c-1.9-1.1-5.2-1-7.4,0.3l-7.8,4.5L0,207v11
			c-0.1,0.7,0.4,1.5,1.3,2l31.1,18c1.9,1.1,5.2,1,7.4-0.3l30-17.3C71.1,219.6,71.7,218.6,71.7,217.7z"/>
		<path class="st3" d="M35.8,201.5c-1.4,0-2.8,0.4-4,1l-7.8,4.5L0,207v11c-0.1,0.7,0.4,1.5,1.3,2l31.1,18c0.9,0.5,2.2,0.8,3.5,0.7
			V201.5z"/>
		<path class="st7" d="M2.7,207L0,207v11c-0.1,0.7,0.4,1.5,1.3,2l1.4,0.8V207z"/>
		<path class="st7" d="M32.9,238.2c1.6,0.7,4,0.7,6-0.1v-12.5h-6V238.2z"/>
		<path class="st5" d="M32.4,227L1.3,209c-1.9-1.1-1.7-3,0.5-4.3l30-17.3c2.2-1.3,5.5-1.4,7.4-0.3l31.1,18c1.9,1.1,1.7,3-0.5,4.3
			l-30,17.3C37.6,227.9,34.3,228.1,32.4,227z"/>
		<path class="st6" d="M69.9,207.2l-30,17.3c-2.2,1.3-5.5,1.4-7.4,0.3l-31.1-18c-0.4-0.2-0.7-0.5-1-0.8c-0.7,1.1-0.4,2.2,1,3
			l31.1,18c1.9,1.1,5.2,1,7.4-0.3l30-17.3c1.7-1,2.2-2.4,1.5-3.5C71,206.3,70.5,206.8,69.9,207.2z"/>
		<g>
			<path class="st5" d="M60.2,220.6c0,0.8-0.6,1.8-1.3,2.2c-0.7,0.4-1.3,0.1-1.3-0.7c0-0.8,0.6-1.8,1.3-2.2
				C59.7,219.4,60.2,219.8,60.2,220.6z"/>
			<path class="st5" d="M64.3,218.2c0,0.8-0.6,1.8-1.3,2.2c-0.7,0.4-1.3,0.1-1.3-0.7c0-0.8,0.6-1.8,1.3-2.2
				C63.7,217.1,64.3,217.4,64.3,218.2z"/>
			<path class="st5" d="M68.3,215.9c0,0.8-0.6,1.8-1.3,2.2c-0.7,0.4-1.3,0.1-1.3-0.7c0-0.8,0.6-1.8,1.3-2.2
				C67.7,214.8,68.3,215.1,68.3,215.9z"/>
		</g>
		<g>
			<path class="st7" d="M34.2,215.8l-14.6-8.4c-0.9-0.5-0.8-1.4,0.3-2l14-8.1c1-0.6,2.6-0.7,3.5-0.1l14.6,8.4c0.9,0.5,0.8,1.4-0.3,2
				l-14.1,8.1C36.7,216.3,35.1,216.3,34.2,215.8z"/>
			<path class="st5" d="M35.6,208.8l-2-1.2c-0.1-0.1-0.1-0.2,0-0.3l1.9-1.1c0.1-0.1,0.4-0.1,0.5,0l2,1.2c0.1,0.1,0.1,0.2,0,0.3
				l-1.9,1.1C36,208.9,35.7,208.9,35.6,208.8z"/>
			<path class="st3" d="M19.7,207.4L19.7,207.4c0.1,0,0.2-0.1,0.3-0.1l14-8.1c1-0.6,2.6-0.7,3.5-0.1l14.5,8.4c0.8-0.6,0.9-1.4,0-1.9
				l-14.6-8.4c-0.9-0.5-2.5-0.5-3.5,0.1l-14,8.1C18.9,206,18.8,206.9,19.7,207.4z"/>
		</g>
	</g>
</g>
</svg>
