<?xml version="1.0" encoding="utf-8"?>
<!-- Generator: Adobe Illustrator 23.0.3, SVG Export Plug-In . SVG Version: 6.00 Build 0)  -->
<svg version="1.1" id="Capa_1" xmlns="http://www.w3.org/2000/svg" xmlns:xlink="http://www.w3.org/1999/xlink" x="0px" y="0px"
	 viewBox="0 0 74.4 69.7" style="enable-background:new 0 0 74.4 69.7;" xml:space="preserve">
<style type="text/css">
	.st0{fill:#163C79;}
	.st1{fill:#FF2C9C;}
</style>
<g>
	<g>
		<path class="st0" d="M64.8,36.6H36.6c-1.2,0-2.1,1-2.1,2.1v3.8c0,1.2,1,2.1,2.1,2.1h16.2c0.6,0,1.1-0.5,1.1-1.1
			c0-0.6-0.5-1.1-1.1-1.1H36.6v-3.7h28.1v3.7h-7.6c-0.6,0-1.1,0.5-1.1,1.1c0,0.6,0.5,1.1,1.1,1.1h7.7c1.2,0,2.1-1,2.1-2.1v-3.8
			C66.9,37.5,66,36.6,64.8,36.6z"/>
	</g>
	<g>
		<path class="st0" d="M38.7,46.5h-2c-1.3,0-2.3,1-2.3,2.3v2c0,1.3,1,2.3,2.3,2.3h2c1.3,0,2.3-1,2.3-2.3v-2
			C41,47.6,40,46.5,38.7,46.5z M38.8,50.8C38.8,50.9,38.8,50.9,38.8,50.8l-2.1,0.1c0,0-0.1,0-0.1-0.1v-2c0,0,0-0.1,0.1-0.1h2
			c0,0,0.1,0,0.1,0.1V50.8z"/>
	</g>
	<g>
		<path class="st0" d="M47.5,46.5h-2c-1.3,0-2.3,1-2.3,2.3v2c0,1.3,1,2.3,2.3,2.3h2c1.3,0,2.3-1,2.3-2.3v-2
			C49.8,47.6,48.8,46.5,47.5,46.5z M47.6,50.8C47.6,50.9,47.6,50.9,47.6,50.8l-2.1,0.1c0,0-0.1,0-0.1-0.1v-2c0,0,0-0.1,0.1-0.1h2
			c0,0,0.1,0,0.1,0.1V50.8z"/>
	</g>
	<g>
		<path class="st0" d="M56.3,46.5h-2c-1.3,0-2.3,1-2.3,2.3v2c0,1.3,1,2.3,2.3,2.3h2c1.3,0,2.3-1,2.3-2.3v-2
			C58.6,47.6,57.6,46.5,56.3,46.5z M56.4,50.8C56.4,50.9,56.3,50.9,56.4,50.8l-2.1,0.1c0,0-0.1,0-0.1-0.1v-2c0,0,0-0.1,0.1-0.1h2
			c0,0,0.1,0,0.1,0.1V50.8z"/>
	</g>
	<g>
		<path class="st0" d="M65.1,46.5h-2c-1.3,0-2.3,1-2.3,2.3v2c0,1.3,1,2.3,2.3,2.3h2c1.3,0,2.3-1,2.3-2.3v-2
			C67.4,47.6,66.3,46.5,65.1,46.5z M65.2,50.8C65.2,50.9,65.1,50.9,65.2,50.8l-2.1,0.1c0,0-0.1,0-0.1-0.1v-2c0,0,0-0.1,0.1-0.1h2
			c0,0,0.1,0,0.1,0.1V50.8z"/>
	</g>
	<g>
		<path class="st0" d="M38.7,53.9h-2c-1.3,0-2.3,1-2.3,2.3v2c0,1.3,1,2.3,2.3,2.3h2c1.3,0,2.3-1,2.3-2.3v-2
			C41,54.9,40,53.9,38.7,53.9z M38.8,58.2C38.8,58.2,38.8,58.3,38.8,58.2l-2.1,0.1c0,0-0.1,0-0.1-0.1v-2c0,0,0-0.1,0.1-0.1h2
			c0,0,0.1,0,0.1,0.1V58.2z"/>
	</g>
	<g>
		<path class="st0" d="M47.5,53.9h-2c-1.3,0-2.3,1-2.3,2.3v2c0,1.3,1,2.3,2.3,2.3h2c1.3,0,2.3-1,2.3-2.3v-2
			C49.8,54.9,48.8,53.9,47.5,53.9z M47.6,58.2C47.6,58.2,47.6,58.3,47.6,58.2l-2.1,0.1c0,0-0.1,0-0.1-0.1v-2c0,0,0-0.1,0.1-0.1h2
			c0,0,0.1,0,0.1,0.1V58.2z"/>
	</g>
	<g>
		<path class="st0" d="M56.3,53.9h-2c-1.3,0-2.3,1-2.3,2.3v2c0,1.3,1,2.3,2.3,2.3h2c1.3,0,2.3-1,2.3-2.3v-2
			C58.6,54.9,57.6,53.9,56.3,53.9z M56.4,58.2C56.4,58.2,56.3,58.3,56.4,58.2l-2.1,0.1c0,0-0.1,0-0.1-0.1v-2c0,0,0-0.1,0.1-0.1h2
			c0,0,0.1,0,0.1,0.1V58.2z"/>
	</g>
	<g>
		<path class="st0" d="M65.1,53.9h-2c-1.3,0-2.3,1-2.3,2.3v2c0,1.3,1,2.3,2.3,2.3h2c1.3,0,2.3-1,2.3-2.3v-2
			C67.4,54.9,66.3,53.9,65.1,53.9z M65.2,58.2C65.2,58.2,65.1,58.3,65.2,58.2l-2.1,0.1c0,0-0.1,0-0.1-0.1v-2c0,0,0-0.1,0.1-0.1h2
			c0,0,0.1,0,0.1,0.1V58.2z"/>
	</g>
	<g>
		<path class="st0" d="M23.9,48.2H16c-0.6,0-1.1,0.5-1.1,1.1c0,0.6,0.5,1.1,1.1,1.1h7.9c0.6,0,1.1-0.5,1.1-1.1
			C25,48.6,24.6,48.2,23.9,48.2z"/>
	</g>
	<path class="st0" d="M70.2,21.2h-6.1v2.2h6.1c1.1,0,2,0.9,2,2v34.8c0,1.1-0.9,2-2,2H18.6v-5.6H25c2.1,0,3.8-1.7,3.8-3.8V23.4H35
		v-2.2h-6.2v-3.1c0-2.1-1.7-3.8-3.8-3.8H14.6c-2.1,0-3.8,1.7-3.8,3.8v3.1H9.5c-2.3,0-4.2,1.9-4.2,4.2v29.4C2.3,55.4,0,58,0,61.1v2.2
		c0,3.5,2.9,6.4,6.4,6.4h5.8c3.1,0,5.8-2.3,6.3-5.3h51.7c2.3,0,4.2-1.9,4.2-4.2V25.4C74.4,23.1,72.5,21.2,70.2,21.2z M12.2,67.5H6.4
		c-2.3,0-4.2-1.9-4.2-4.2v-2.2c0-1.9,1.3-3.5,3.1-4v3.1c0,2.3,1.9,4.2,4.2,4.2h6.8C15.8,66.2,14.1,67.5,12.2,67.5z M11.9,40.3
		c-0.6,0-1.1,0.5-1.1,1.1v11.4c0,2.1,1.7,3.8,3.8,3.8h1.7v5.6H9.5c-1.1,0-2-0.9-2-2V25.4c0-1.1,0.9-2,2-2h1.4V37
		c0,0.6,0.5,1.1,1.1,1.1S13,37.6,13,37V18.1c0-0.9,0.7-1.6,1.6-1.6H25c0.9,0,1.6,0.7,1.6,1.6v34.7c0,0.9-0.7,1.6-1.6,1.6H14.6v0
		c-0.9,0-1.6-0.7-1.6-1.6V41.4C13,40.8,12.5,40.3,11.9,40.3z"/>
	<g>
		<g>
			<path class="st1" d="M32.9,33.5c-1.2,0-2.1-1-2.1-2.2v-3.7c0-1.2,0.9-2.2,2.1-2.2h1.5c0.3,0,0.5-0.2,0.5-0.5V4.4
				c0-2.1,1.7-3.9,3.9-3.9l28.6,0c1.7,0.1,3.1,1.5,3.1,3.3v4.5c0,0.9-0.7,1.6-1.6,1.6h-3.1c-0.3,0-0.5,0.2-0.5,0.5v14.5
				c0,0.3,0.2,0.5,0.5,0.5h1.5c1.2,0,2.1,1,2.1,2.2v3.7c0,1.2-0.9,2.2-2.1,2.2H32.9z M32.9,26.6c-0.5,0-0.9,0.5-0.9,1v3.7
				c0,0.6,0.4,1,0.9,1h34.4c0.5,0,0.9-0.5,0.9-1v-3.7c0-0.6-0.4-1-0.9-1h-1.5c-0.3,0-0.5,0.2-0.5,0.5v2.1c0,0.3-0.3,0.6-0.6,0.6
				H35.5c-0.3,0-0.6-0.3-0.6-0.6v-2.1c0-0.3-0.2-0.5-0.5-0.5H32.9z M38.8,1.7c-1.5,0-2.7,1.2-2.7,2.7v23.7c0,0.3,0.2,0.5,0.5,0.5
				h26.9c0.3,0,0.5-0.2,0.5-0.5V3.7c0-0.5,0.1-0.9,0.3-1.3c0.1-0.2,0.1-0.3,0-0.5c-0.1-0.1-0.3-0.2-0.4-0.2H38.8z M67.3,1.7
				c-0.5,0-1,0.2-1.4,0.6c-0.4,0.4-0.6,0.9-0.6,1.5v4.5c0,0.3,0.2,0.5,0.5,0.5h3.1c0.3,0,0.5-0.2,0.5-0.5V3.8
				C69.3,2.7,68.4,1.7,67.3,1.7C67.4,1.7,67.3,1.7,67.3,1.7z"/>
			<path class="st1" d="M67.3,1C67.3,1,67.3,1,67.3,1c0,0,0.1,0,0.1,0C68.9,1.1,70,2.3,70,3.8v4.5c0,0.6-0.5,1.1-1.1,1.1h-3.1
				c-0.6,0-1,0.4-1,1v11.1v2.2v1.2c0,0.6,0.4,1,1,1h1.5c0.9,0,1.6,0.8,1.6,1.7v3.7c0,0.9-0.7,1.7-1.6,1.7H32.9
				c-0.9,0-1.6-0.8-1.6-1.7v-3.7c0-0.9,0.7-1.7,1.6-1.7h1.5c0.6,0,1-0.4,1-1v-1.2v-2.2V4.4c0-1.9,1.5-3.4,3.4-3.4H67.3 M36.6,29.1
				h26.9c0.6,0,1-0.4,1-1V3.7c0-0.4,0.1-0.8,0.2-1.1c0.1-0.3,0.1-0.7-0.1-1c-0.2-0.3-0.5-0.5-0.8-0.5H38.8c-1.8,0-3.2,1.4-3.2,3.2
				v23.7C35.6,28.7,36.1,29.1,36.6,29.1 M65.8,9.2h3.1c0.6,0,1-0.4,1-1V3.8c0-1.4-1.1-2.6-2.4-2.6l-0.1,0c-0.7,0-1.3,0.3-1.8,0.7
				C65,2.4,64.8,3,64.8,3.7v4.5C64.8,8.8,65.2,9.2,65.8,9.2 M35.5,29.3C35.5,29.3,35.4,29.3,35.5,29.3l-0.1-2.2c0-0.6-0.4-1-1-1
				h-1.5c-0.8,0-1.4,0.7-1.4,1.5v3.7c0,0.8,0.6,1.5,1.4,1.5h34.4c0.8,0,1.4-0.7,1.4-1.5v-3.7c0-0.8-0.6-1.5-1.4-1.5h-1.5
				c-0.6,0-1,0.4-1,1v2.1c0,0.1,0,0.1-0.1,0.1H35.5 M67.3,0H38.8c-2.4,0-4.4,2-4.4,4.4v17.2v2.2v1.2h-1.5c-1.4,0-2.6,1.2-2.6,2.7
				v3.7c0,1.5,1.2,2.7,2.6,2.7h34.4c1.4,0,2.6-1.2,2.6-2.7v-3.7c0-1.5-1.2-2.7-2.6-2.7h-1.5v-1.2v-2.2V10.4h3.1c1.2,0,2.1-1,2.1-2.1
				V3.8c0-2.1-1.6-3.7-3.6-3.8C67.4,0,67.4,0,67.3,0C67.3,0,67.3,0,67.3,0L67.3,0z M36.6,28.1V4.4c0-1.2,1-2.2,2.2-2.2h25.1
				c-0.2,0.5-0.3,1-0.3,1.5v24.4H36.6L36.6,28.1z M65.8,8.2V3.7c0-0.4,0.2-0.8,0.5-1.1c0.3-0.3,0.7-0.4,1.1-0.4c0,0,0,0,0.1,0
				c0.8,0,1.5,0.7,1.5,1.6v4.4H65.8L65.8,8.2z M35.5,30.3h29.1c0.6,0,1.1-0.5,1.1-1.1v-2.1h1.5c0.2,0,0.4,0.2,0.4,0.5v3.7
				c0,0.3-0.2,0.5-0.4,0.5H32.9c-0.2,0-0.4-0.2-0.4-0.5v-3.7c0-0.3,0.2-0.5,0.4-0.5h1.5v2.1C34.4,29.8,34.9,30.3,35.5,30.3
				L35.5,30.3z"/>
		</g>
		<g>
			<path class="st0" d="M41.9,5h-2.1c-0.6,0-1.1,0.5-1.1,1.1s0.5,1.1,1.1,1.1h2.1c0.6,0,1.1-0.5,1.1-1.1S42.5,5,41.9,5z"/>
		</g>
		<g>
			<path class="st0" d="M59.8,5H45c-0.6,0-1.1,0.5-1.1,1.1s0.5,1.1,1.1,1.1h14.8c0.6,0,1.1-0.5,1.1-1.1S60.4,5,59.8,5z"/>
		</g>
		<g>
			<path class="st0" d="M59.8,9.8h-2.1c-0.6,0-1.1,0.5-1.1,1.1c0,0.6,0.5,1.1,1.1,1.1h2.1c0.6,0,1.1-0.5,1.1-1.1
				C60.9,10.3,60.4,9.8,59.8,9.8z"/>
		</g>
		<g>
			<path class="st0" d="M54.7,9.8H39.9c-0.6,0-1.1,0.5-1.1,1.1c0,0.6,0.5,1.1,1.1,1.1h14.8c0.6,0,1.1-0.5,1.1-1.1
				C55.8,10.3,55.3,9.8,54.7,9.8z"/>
		</g>
		<g>
			<path class="st0" d="M41.9,14.6h-2.1c-0.6,0-1.1,0.5-1.1,1.1c0,0.6,0.5,1.1,1.1,1.1h2.1c0.6,0,1.1-0.5,1.1-1.1
				C43,15.1,42.5,14.6,41.9,14.6z"/>
		</g>
		<g>
			<path class="st0" d="M59.8,14.6H45c-0.6,0-1.1,0.5-1.1,1.1c0,0.6,0.5,1.1,1.1,1.1h14.8c0.6,0,1.1-0.5,1.1-1.1
				C60.9,15.1,60.4,14.6,59.8,14.6z"/>
		</g>
		<g>
			<path class="st0" d="M59.8,19.5h-2.1c-0.6,0-1.1,0.5-1.1,1.1c0,0.6,0.5,1.1,1.1,1.1h2.1c0.6,0,1.1-0.5,1.1-1.1
				C60.9,20,60.4,19.5,59.8,19.5z"/>
		</g>
		<g>
			<path class="st0" d="M54.7,19.5H39.9c-0.6,0-1.1,0.5-1.1,1.1c0,0.6,0.5,1.1,1.1,1.1h14.8c0.6,0,1.1-0.5,1.1-1.1
				C55.8,20,55.3,19.5,54.7,19.5z"/>
		</g>
	</g>
</g>
</svg>
