<?xml version="1.0" encoding="utf-8"?>
<!-- Generator: Adobe Illustrator 23.0.3, SVG Export Plug-In . SVG Version: 6.00 Build 0)  -->
<svg version="1.1" id="Capa_1" xmlns="http://www.w3.org/2000/svg" xmlns:xlink="http://www.w3.org/1999/xlink" x="0px" y="0px"
	 viewBox="0 0 67.5 70" style="enable-background:new 0 0 67.5 70;" xml:space="preserve">
<style type="text/css">
	.st0{fill:#FF2C9C;}
	.st1{fill:#163C79;}
</style>
<g>
	<path class="st0" d="M66.5,51.4l-1.8-0.3c-0.8-0.2-1.5-0.7-1.8-1.5c-0.3-0.8-0.2-1.6,0.3-2.3l1.1-1.5c0.4-0.5,0.3-1.2-0.1-1.6
		l-2.4-2.4c-0.4-0.4-1.1-0.5-1.6-0.1l-1.5,1c-0.7,0.5-1.5,0.6-2.3,0.2c-0.8-0.3-1.3-1-1.4-1.9l-0.3-1.9c-0.1-0.6-0.6-1-1.2-1h-3.4
		c-0.6,0-1.1,0.4-1.2,1l-0.4,2.3c-0.2,0.8-0.7,1.5-1.5,1.8c-0.8,0.3-1.6,0.2-2.3-0.2l-1.9-1.3c-0.5-0.3-1.1-0.3-1.6,0.1l-2.4,2.4
		c-0.4,0.4-0.5,1.1-0.1,1.6l1.1,1.5c0.5,0.7,0.6,1.5,0.3,2.3c-0.3,0.8-1,1.3-1.8,1.5l-1.8,0.3c-0.6,0.1-1,0.6-1,1.2V56
		c0,0.6,0.4,1.1,1,1.2l1.9,0.3c0.8,0.1,1.5,0.6,1.9,1.4c0.3,0.8,0.3,1.6-0.2,2.3l-1,1.5c-0.3,0.5-0.3,1.1,0.1,1.6l2.4,2.4
		c0.4,0.4,1.1,0.5,1.6,0.1l1.5-1.1c0.7-0.5,1.5-0.6,2.3-0.3c0.8,0.3,1.3,1,1.5,1.8L49,69c0.1,0.6,0.6,1,1.2,1h3.4
		c0.6,0,1.1-0.4,1.2-1l0.2-1.3c0.1-0.8,0.7-1.5,1.5-1.9c0.8-0.3,1.7-0.2,2.4,0.3l1.1,0.8c0.5,0.4,1.2,0.3,1.6-0.1l2.4-2.4
		c0.4-0.4,0.5-1.1,0.1-1.6l-1-1.5c-0.5-0.7-0.6-1.5-0.2-2.3c0.3-0.8,1-1.3,1.9-1.4l1.9-0.3c0.6-0.1,1-0.6,1-1.2v-3.4
		C67.5,52,67.1,51.5,66.5,51.4z M65.1,55l-0.8,0.1c-1.7,0.3-3.1,1.3-3.7,2.9c-0.7,1.5-0.5,3.3,0.4,4.7l0.4,0.7l-0.9,0.9l-0.2-0.2
		c-1.4-1-3.2-1.2-4.8-0.6c-1.6,0.7-2.7,2.1-3,3.8l0,0.3h-1.3L51,66.8c-0.3-1.7-1.4-3-3-3.6c-1.6-0.6-3.3-0.4-4.7,0.6l-0.7,0.5
		l-0.9-0.9l0.4-0.7c0.9-1.4,1.1-3.1,0.4-4.7c-0.7-1.5-2.1-2.6-3.7-2.9L38.1,55v-1.3l0.8-0.1c1.7-0.3,3-1.4,3.6-3
		c0.6-1.6,0.4-3.3-0.6-4.7l-0.5-0.7l0.9-0.9l1.1,0.7c1.4,0.9,3.1,1.1,4.6,0.5c1.5-0.6,2.6-2,2.9-3.6l0.2-1.3h1.3l0.1,0.8
		c0.3,1.7,1.3,3.1,2.9,3.7c1.5,0.7,3.3,0.5,4.7-0.4l0.7-0.4l0.9,0.9l-0.5,0.7c-1,1.4-1.2,3.1-0.6,4.7c0.6,1.6,2,2.7,3.6,3l0.8,0.1
		V55z"/>
	<path class="st0" d="M51.6,47.9c-3.4,0-6.1,2.8-6.1,6.1s2.8,6.1,6.1,6.1c3.4,0,6.1-2.8,6.1-6.1S55,47.9,51.6,47.9z M51.6,57.7
		c-2,0-3.7-1.7-3.7-3.7s1.7-3.7,3.7-3.7s3.7,1.7,3.7,3.7S53.6,57.7,51.6,57.7z"/>
	<path class="st1" d="M30.7,50.4c-1,0-2,0-3-0.1c-0.6,0-1.2-0.1-1.8-0.1c-0.4,0-0.7,0-1.1-0.1c-0.8-0.1-1.5-0.1-2.3-0.2
		c-0.1,0-0.3,0-0.4,0c-0.9-0.1-1.7-0.2-2.5-0.3c0,0,0,0-0.1,0C15.5,49,11.9,48,9.1,46.9c0,0,0,0,0,0c-0.5-0.2-1-0.4-1.5-0.6
		c-0.1,0-0.1-0.1-0.2-0.1C7,46,6.7,45.8,6.3,45.6c-0.1,0-0.2-0.1-0.3-0.1c-0.3-0.2-0.6-0.4-0.9-0.6c-0.1-0.1-0.2-0.1-0.3-0.2
		c-0.2-0.2-0.4-0.3-0.6-0.5C4.1,44,4,43.9,3.9,43.8c-0.2-0.2-0.3-0.3-0.4-0.5c-0.1-0.1-0.2-0.2-0.3-0.3C3,42.8,3,42.7,2.9,42.5
		c-0.1-0.1-0.1-0.2-0.2-0.4c-0.1-0.1-0.1-0.3-0.1-0.4c0-0.2-0.1-0.4-0.1-0.6V31.1c0,0,0.1,0.1,0.1,0.1c0.3,0.2,0.5,0.5,0.8,0.7
		c4.6,3.5,13.9,6.2,27.3,6.2c13.4,0,22.6-2.7,27.2-6.2c0.4-0.3,0.7-0.5,1-0.8l0,0l0,4.6c0,0.7,0.5,1.2,1.2,1.2
		c0.7,0,1.2-0.5,1.2-1.2V27v-0.6V11.7v-0.6c0-0.2-0.1-0.4-0.2-0.6C59.8,5.2,49.2,0,30.7,0S1.6,5.2,0.2,10.5C0.1,10.6,0,10.8,0,11.1
		v0.6v14.7V27v14.1v0.6v14.7c0,0.2,0.1,0.4,0.1,0.6c1.4,5.9,13.1,9.4,24.3,10.3c0,0,0.1,0,0.1,0c0.6,0,1.2-0.5,1.2-1.1
		c0.1-0.7-0.5-1.3-1.1-1.3c-13.6-1-21.6-5.2-22.2-8.6c0-0.1,0-0.1,0-0.2V45.8c0,0,0.1,0.1,0.1,0.1c0.3,0.2,0.5,0.5,0.8,0.7
		c4.6,3.5,13.9,6.2,27.3,6.2c0.7,0,1.2-0.5,1.2-1.2C31.9,50.9,31.4,50.4,30.7,50.4z M3.2,16.9c0.4,0.3,0.8,0.6,1.2,0.9
		c0.1,0.1,0.2,0.1,0.3,0.2c0.4,0.2,0.7,0.4,1.1,0.7c0.1,0.1,0.3,0.2,0.5,0.2c0.4,0.2,0.9,0.4,1.4,0.7c0.1,0,0.2,0.1,0.2,0.1
		c0.6,0.2,1.2,0.5,1.8,0.7c0.2,0.1,0.4,0.1,0.5,0.2c0.5,0.2,1,0.3,1.6,0.5c0.2,0.1,0.4,0.1,0.6,0.2c0.7,0.2,1.5,0.4,2.2,0.6
		c0.1,0,0.2,0,0.3,0.1c0.7,0.1,1.4,0.3,2.1,0.4c0.2,0,0.5,0.1,0.8,0.1c0.7,0.1,1.4,0.2,2.1,0.3c0.2,0,0.4,0.1,0.6,0.1
		c0.9,0.1,1.9,0.2,2.8,0.3c0.2,0,0.5,0,0.7,0.1c0.8,0.1,1.6,0.1,2.4,0.1c0.3,0,0.6,0,0.9,0c1.1,0,2.1,0.1,3.3,0.1
		c1.1,0,2.2,0,3.3-0.1c0.3,0,0.6,0,0.9,0c0.8,0,1.6-0.1,2.4-0.1c0.2,0,0.5,0,0.7-0.1c1-0.1,1.9-0.2,2.8-0.3c0.2,0,0.4-0.1,0.6-0.1
		c0.7-0.1,1.5-0.2,2.1-0.3c0.3,0,0.5-0.1,0.8-0.1c0.7-0.1,1.4-0.3,2.1-0.4c0.1,0,0.2,0,0.3-0.1c0.8-0.2,1.5-0.4,2.2-0.6
		c0.2-0.1,0.4-0.1,0.6-0.2c0.5-0.2,1.1-0.3,1.6-0.5c0.2-0.1,0.4-0.1,0.5-0.2c0.6-0.2,1.2-0.5,1.8-0.7c0.1,0,0.2-0.1,0.2-0.1
		c0.5-0.2,1-0.4,1.4-0.7c0.2-0.1,0.3-0.2,0.5-0.2c0.4-0.2,0.8-0.4,1.1-0.7c0.1-0.1,0.2-0.1,0.3-0.2c0.4-0.3,0.8-0.6,1.2-0.9
		c0.1-0.1,0.2-0.1,0.3-0.2c0.2-0.1,0.3-0.3,0.5-0.4v10.1c0,0.2-0.1,0.4-0.1,0.6c0,0.1-0.1,0.3-0.1,0.4c0,0.1-0.1,0.2-0.2,0.4
		c-0.1,0.2-0.2,0.3-0.3,0.5c-0.1,0.1-0.2,0.2-0.3,0.3c-0.1,0.2-0.3,0.3-0.4,0.5c-0.1,0.1-0.2,0.2-0.3,0.3c-0.2,0.2-0.4,0.4-0.6,0.5
		c-0.1,0.1-0.2,0.1-0.3,0.2c-0.3,0.2-0.6,0.4-0.9,0.6c-0.1,0.1-0.2,0.1-0.3,0.1c-0.4,0.2-0.7,0.4-1.2,0.6c-0.1,0-0.1,0.1-0.2,0.1
		c-0.5,0.2-0.9,0.4-1.5,0.6c0,0,0,0,0,0c-2.8,1.1-6.4,2.1-10.5,2.7c0,0,0,0-0.1,0c-0.8,0.1-1.6,0.2-2.5,0.3c-0.1,0-0.3,0-0.4,0
		c-0.7,0.1-1.5,0.1-2.3,0.2c-0.4,0-0.7,0-1.1,0.1c-0.6,0-1.2,0.1-1.8,0.1c-1,0-2,0.1-3,0.1s-2,0-3-0.1c-0.6,0-1.2-0.1-1.8-0.1
		c-0.4,0-0.7,0-1.1-0.1c-0.8-0.1-1.5-0.1-2.3-0.2c-0.1,0-0.3,0-0.4,0c-0.9-0.1-1.7-0.2-2.5-0.3c0,0,0,0-0.1,0
		c-4.2-0.6-7.7-1.6-10.5-2.7c0,0,0,0,0,0c-0.5-0.2-1-0.4-1.5-0.6c-0.1,0-0.1-0.1-0.2-0.1C7,31.2,6.7,31,6.3,30.8
		c-0.1,0-0.2-0.1-0.3-0.1c-0.3-0.2-0.6-0.4-0.9-0.6C5,30,4.9,30,4.8,29.9c-0.2-0.2-0.4-0.3-0.6-0.5c-0.1-0.1-0.2-0.2-0.3-0.3
		c-0.2-0.2-0.3-0.3-0.4-0.5c-0.1-0.1-0.2-0.2-0.3-0.3C3,28.1,3,28,2.9,27.8c-0.1-0.1-0.1-0.2-0.2-0.4c-0.1-0.1-0.1-0.3-0.1-0.4
		c0-0.2-0.1-0.4-0.1-0.6V16.3c0.1,0.1,0.3,0.3,0.5,0.4C3,16.8,3.1,16.9,3.2,16.9z M30.7,2.5c16.6,0,28.2,4.9,28.2,9.2
		s-11.6,9.2-28.2,9.2S2.5,16,2.5,11.7S14.1,2.5,30.7,2.5z"/>
</g>
</svg>
