<?xml version="1.0" encoding="utf-8"?>
<!-- Generator: Adobe Illustrator 23.0.3, SVG Export Plug-In . SVG Version: 6.00 Build 0)  -->
<svg version="1.1" id="Capa_1" xmlns="http://www.w3.org/2000/svg" xmlns:xlink="http://www.w3.org/1999/xlink" x="0px" y="0px"
	 viewBox="0 0 56 70" style="enable-background:new 0 0 56 70;" xml:space="preserve">
<style type="text/css">
	.st0{fill:#163C79;}
	.st1{fill:#FF2C9C;}
</style>
<g>
	<path class="st0" d="M50.2,0H5.8C2.6,0,0,2.6,0,5.8v31.5c0,3.2,2.6,5.8,5.8,5.8h16L20.1,49h-3.8v2.3h23.3V49h-3.8l-1.7-5.8h16
		c3.2,0,5.8-2.6,5.8-5.8V5.8C56,2.6,53.4,0,50.2,0z M22.5,49l1.7-5.8h7.6l1.7,5.8H22.5z M53.7,37.3c0,1.9-1.6,3.5-3.5,3.5H5.8
		c-1.9,0-3.5-1.6-3.5-3.5V35h51.3V37.3z M53.7,32.7H2.3V5.8c0-1.9,1.6-3.5,3.5-3.5h44.3c1.9,0,3.5,1.6,3.5,3.5V32.7z"/>
	<path class="st0" d="M37.3,53.7H4.7c-0.6,0-1.2,0.5-1.2,1.2v14C3.5,69.5,4,70,4.7,70h32.7c0.6,0,1.2-0.5,1.2-1.2v-14
		C38.5,54.2,38,53.7,37.3,53.7z M36.2,67.7H5.8V56h30.3V67.7z"/>
	<rect x="8.2" y="63" class="st0" width="2.3" height="2.3"/>
	<rect x="8.2" y="58.3" class="st0" width="2.3" height="2.3"/>
	<rect x="12.8" y="58.3" class="st0" width="2.3" height="2.3"/>
	<rect x="17.5" y="58.3" class="st0" width="2.3" height="2.3"/>
	<rect x="26.8" y="58.3" class="st0" width="2.3" height="2.3"/>
	<rect x="22.2" y="58.3" class="st0" width="2.3" height="2.3"/>
	<rect x="31.5" y="63" class="st0" width="2.3" height="2.3"/>
	<rect x="31.5" y="58.3" class="st0" width="2.3" height="2.3"/>
	<rect x="12.8" y="63" class="st0" width="16.3" height="2.3"/>
	<path class="st1" d="M46.7,53.7c-3.2,0-5.8,2.6-5.8,5.8v4.7c0,3.2,2.6,5.8,5.8,5.8c3.2,0,5.8-2.6,5.8-5.8v-4.7
		C52.5,56.3,49.9,53.7,46.7,53.7z M50.2,64.2c0,1.9-1.6,3.5-3.5,3.5s-3.5-1.6-3.5-3.5v-4.7c0-1.9,1.6-3.5,3.5-3.5s3.5,1.6,3.5,3.5
		V64.2z"/>
	<rect x="45.5" y="58.3" class="st1" width="2.3" height="2.3"/>
	<rect x="19.5" y="17.5" transform="matrix(0.2751 -0.9614 0.9614 0.2751 2.3259 40.4578)" class="st1" width="17" height="2.3"/>
	<path class="st1" d="M21.7,13.7l-1.5-1.8l-7,5.8c-0.5,0.4-0.6,1.1-0.1,1.6c0,0.1,0.1,0.1,0.1,0.1l7,5.8l1.5-1.8l-5.9-4.9L21.7,13.7
		z"/>
	<path class="st1" d="M42.9,17.9c0-0.1-0.1-0.1-0.1-0.1l-7-5.8l-1.5,1.8l5.9,4.9l-5.9,4.9l1.5,1.8l7-5.8
		C43.2,19.1,43.3,18.4,42.9,17.9z"/>
</g>
</svg>
