<?xml version="1.0" encoding="utf-8"?>
<!-- Generator: Adobe Illustrator 23.0.3, SVG Export Plug-In . SVG Version: 6.00 Build 0)  -->
<svg version="1.1" id="Capa_1" xmlns="http://www.w3.org/2000/svg" xmlns:xlink="http://www.w3.org/1999/xlink" x="0px" y="0px"
	 viewBox="0 0 58.7 70" style="enable-background:new 0 0 58.7 70;" xml:space="preserve">
<style type="text/css">
	.st0{fill:#163C79;}
	.st1{fill:#FF2C9C;}
</style>
<g>
	<path class="st0" d="M38,0H20.6l-1.1,1.1v6.2l1.1,1.1H38l1.1-1.1V1.1L38,0z M37.1,6.4h-2.2V3.8h-2v2.6h-2.5V3.8h-2v2.6h-2.5V3.8h-2
		v2.6h-2.2V2h15.6L37.1,6.4L37.1,6.4z"/>
	<path class="st0" d="M50.1,19.9c-5.5-5.5-12.9-8.6-20.7-8.6s-15.2,3.1-20.7,8.6C3.1,25.5,0,32.8,0,40.7s3.1,15.2,8.6,20.7
		S21.5,70,29.3,70s15.2-3.1,20.7-8.6c5.5-5.5,8.6-12.9,8.6-20.7S55.6,25.5,50.1,19.9z M29.3,68C14.3,68,2,55.7,2,40.7
		s12.2-27.3,27.3-27.3c15,0,27.3,12.2,27.3,27.3S44.4,68,29.3,68z"/>
	<path class="st1" d="M29.3,18.2C17,18.2,6.9,28.3,6.9,40.7S17,63.1,29.3,63.1S51.8,53,51.8,40.7S41.7,18.2,29.3,18.2z M43,25.6
		L39.5,29l1.4,1.4l3.5-3.5c3.3,3.6,5.3,8.4,5.3,13.7s-2,10-5.3,13.7L41,50.9l-1.4,1.4l3.5,3.5c-3.4,3.1-7.8,5-12.6,5.2v-4.9h-2V61
		c-4.8-0.2-9.3-2.2-12.6-5.2l3.5-3.5l-1.4-1.4l-3.5,3.5c-3.1-3.4-5-7.8-5.2-12.6h4.9v-2H9c0.2-4.8,2.2-9.3,5.2-12.6l3.5,3.5l1.4-1.4
		l-3.5-3.5c3.6-3.3,8.4-5.3,13.7-5.3C34.6,20.3,39.4,22.3,43,25.6z"/>
	<path class="st1" d="M48,39.6H30.3V22h-2v19.7H48V39.6z"/>
</g>
</svg>
