<?xml version="1.0" encoding="utf-8"?>
<!-- Generator: Adobe Illustrator 23.0.3, SVG Export Plug-In . SVG Version: 6.00 Build 0)  -->
<svg version="1.1" id="Layer_1" xmlns="http://www.w3.org/2000/svg" xmlns:xlink="http://www.w3.org/1999/xlink" x="0px" y="0px"
	 viewBox="0 0 70 70" style="enable-background:new 0 0 70 70;" xml:space="preserve">
<g>
	<path d="M66.5,38.5c2,0,3.5-1.6,3.5-3.5c0-2-1.6-3.5-3.5-3.5h-3.1V27h3.1c2,0,3.5-1.6,3.5-3.5c0-2-1.6-3.5-3.5-3.5h-3.1v-8
		C63.3,9,61,6.7,58,6.7h-8V3.5c0-2-1.6-3.5-3.5-3.5c-2,0-3.5,1.6-3.5,3.5v3.1h-4.4V3.5C38.5,1.6,37,0,35,0c-2,0-3.5,1.6-3.5,3.5v3.1
		H27V3.5c0-2-1.6-3.5-3.5-3.5c-2,0-3.5,1.6-3.5,3.5v3.1h-8C9,6.7,6.7,9,6.7,12v8H3.5c-2,0-3.5,1.6-3.5,3.5S1.6,27,3.5,27h3.1v4.4
		H3.5C1.6,31.5,0,33,0,35c0,2,1.6,3.5,3.5,3.5h3.1V43H3.5c-2,0-3.5,1.6-3.5,3.5c0,2,1.6,3.5,3.5,3.5h3.1v8c0,2.9,2.4,5.3,5.3,5.3h8
		v3.1c0,2,1.6,3.5,3.5,3.5c2,0,3.5-1.6,3.5-3.5v-3.1h4.4v3.1c0,2,1.6,3.5,3.5,3.5c2,0,3.5-1.6,3.5-3.5v-3.1H43v3.1
		c0,2,1.6,3.5,3.5,3.5c2,0,3.5-1.6,3.5-3.5v-3.1h8c2.9,0,5.3-2.4,5.3-5.3v-8h3.1c2,0,3.5-1.6,3.5-3.5c0-2-1.6-3.5-3.5-3.5h-3.1v-4.4
		H66.5z M66.5,33.5c0.8,0,1.5,0.7,1.5,1.5c0,0.8-0.7,1.5-1.5,1.5h-3.1v-3H66.5z M66.5,22c0.8,0,1.5,0.7,1.5,1.5S67.3,25,66.5,25
		h-3.1v-3H66.5z M45,3.5c0-0.8,0.7-1.5,1.5-1.5c0.8,0,1.5,0.7,1.5,1.5v3.1h-3V3.5z M33.5,3.5c0-0.8,0.7-1.5,1.5-1.5
		c0.8,0,1.5,0.7,1.5,1.5v3.1h-3V3.5z M22,3.5c0-0.8,0.7-1.5,1.5-1.5c0.8,0,1.5,0.7,1.5,1.5v3.1h-3V3.5z M3.5,25
		c-0.8,0-1.5-0.7-1.5-1.5S2.7,22,3.5,22h3.1v3H3.5z M3.5,36.5c-0.8,0-1.5-0.7-1.5-1.5c0-0.8,0.7-1.5,1.5-1.5h3.1v3H3.5z M3.5,48
		c-0.8,0-1.5-0.7-1.5-1.5c0-0.8,0.7-1.5,1.5-1.5h3.1v3H3.5z M25,66.5c0,0.8-0.7,1.5-1.5,1.5S22,67.3,22,66.5v-3.1h3V66.5z
		 M36.5,66.5c0,0.8-0.7,1.5-1.5,1.5c-0.8,0-1.5-0.7-1.5-1.5v-3.1h3V66.5z M48,66.5c0,0.8-0.7,1.5-1.5,1.5c-0.8,0-1.5-0.7-1.5-1.5
		v-3.1h3V66.5z M61.3,58c0,1.8-1.4,3.2-3.2,3.2H12c-1.8,0-3.2-1.4-3.2-3.2V12c0-1.8,1.4-3.2,3.2-3.2H58c1.8,0,3.2,1.5,3.2,3.2V58z
		 M66.5,45c0.8,0,1.5,0.7,1.5,1.5c0,0.8-0.7,1.5-1.5,1.5h-3.1v-3H66.5z"/>
	<path d="M43.9,23.4h-7.5c-0.6,0-1,0.5-1,1c0,0.6,0.5,1,1,1h7.5c0.3,0,0.6,0.3,0.6,0.6v17.9c0,0.3-0.3,0.6-0.6,0.6H26.1
		c-0.3,0-0.6-0.3-0.6-0.6V26.1c0-0.3,0.3-0.6,0.6-0.6h6.3c0.6,0,1-0.5,1-1c0-0.6-0.5-1-1-1h-6.3c-1.5,0-2.7,1.2-2.7,2.7v17.9
		c0,1.5,1.2,2.7,2.7,2.7h17.9c1.5,0,2.7-1.2,2.7-2.7V26.1C46.6,24.6,45.4,23.4,43.9,23.4z"/>
	<path d="M56.8,23.7c0.6,0,1-0.5,1-1c0-0.6-0.5-1-1-1h-3.3v-1.4c0-2.1-1.7-3.8-3.8-3.8h-1.4v-3.3c0-0.6-0.5-1-1-1c-0.6,0-1,0.5-1,1
		v3.3h-4v-3.3c0-0.6-0.5-1-1-1c-0.6,0-1,0.5-1,1v3.3H36v-3.3c0-0.6-0.5-1-1-1c-0.6,0-1,0.5-1,1v3.3h-4.2v-3.3c0-0.6-0.5-1-1-1
		c-0.6,0-1,0.5-1,1v3.3h-4v-3.3c0-0.6-0.5-1-1-1c-0.6,0-1,0.5-1,1v3.3h-1.4c-2.1,0-3.8,1.7-3.8,3.8v1.4h-3.3c-0.6,0-1,0.5-1,1
		c0,0.6,0.5,1,1,1h3.3v4h-3.3c-0.6,0-1,0.5-1,1c0,0.6,0.5,1,1,1h3.3V34h-3.3c-0.6,0-1,0.5-1,1c0,0.6,0.5,1,1,1h3.3v4.2h-3.3
		c-0.6,0-1,0.5-1,1c0,0.6,0.5,1,1,1h3.3v4h-3.3c-0.6,0-1,0.5-1,1c0,0.6,0.5,1,1,1h3.3v1.4c0,2.1,1.7,3.8,3.8,3.8h1.4v3.3
		c0,0.6,0.5,1,1,1c0.6,0,1-0.5,1-1v-3.3h4v3.3c0,0.6,0.5,1,1,1c0.6,0,1-0.5,1-1v-3.3H34v3.3c0,0.6,0.5,1,1,1c0.6,0,1-0.5,1-1v-3.3
		h4.2v3.3c0,0.6,0.5,1,1,1c0.6,0,1-0.5,1-1v-3.3h4v3.3c0,0.6,0.5,1,1,1c0.6,0,1-0.5,1-1v-3.3h1.4c2.1,0,3.8-1.7,3.8-3.8v-1.4h3.3
		c0.6,0,1-0.5,1-1c0-0.6-0.5-1-1-1h-3.3v-4h3.3c0.6,0,1-0.5,1-1c0-0.6-0.5-1-1-1h-3.3V36h3.3c0.6,0,1-0.5,1-1c0-0.6-0.5-1-1-1h-3.3
		v-4.2h3.3c0.6,0,1-0.5,1-1c0-0.6-0.5-1-1-1h-3.3v-4H56.8z M49.8,51.5h-2.4c0,0-0.1,0-0.1,0c0,0-0.1,0-0.1,0h-5.9c0,0-0.1,0-0.1,0
		c0,0-0.1,0-0.1,0h-6.1c0,0-0.1,0-0.1,0c0,0-0.1,0-0.1,0h-6.1c0,0-0.1,0-0.1,0c0,0-0.1,0-0.1,0h-5.9c0,0-0.1,0-0.1,0
		c0,0-0.1,0-0.1,0h-2.4c-0.9,0-1.7-0.8-1.7-1.7V20.2c0-0.9,0.8-1.7,1.7-1.7h29.5c0.9,0,1.7,0.8,1.7,1.7v2.4c0,0,0,0.1,0,0.1
		c0,0,0,0.1,0,0.1v5.9c0,0,0,0.1,0,0.1c0,0,0,0.1,0,0.1v6.1c0,0,0,0.1,0,0.1s0,0.1,0,0.1v6.1c0,0,0,0.1,0,0.1c0,0,0,0.1,0,0.1v5.9
		c0,0,0,0.1,0,0.1s0,0.1,0,0.1v2.4C51.5,50.7,50.7,51.5,49.8,51.5z"/>
</g>
</svg>
