<?xml version="1.0" encoding="utf-8"?>
<!-- Generator: Adobe Illustrator 23.0.3, SVG Export Plug-In . SVG Version: 6.00 Build 0)  -->
<svg version="1.1" id="Layer_1" xmlns="http://www.w3.org/2000/svg" xmlns:xlink="http://www.w3.org/1999/xlink" x="0px" y="0px"
	 viewBox="0 0 70 70" style="enable-background:new 0 0 70 70;" xml:space="preserve">
<g>
	<path d="M66.6,42.1c-0.2-0.3-0.6-0.5-0.9-0.5H4.4c-0.4,0-0.7,0.2-0.9,0.5l-3.3,5.5C0.1,47.7,0,47.9,0,48.1v5.5
		c0,0.6,0.5,1.1,1.1,1.1c0.6,0,1.1,0.5,1.1,1.1s-0.5,1.1-1.1,1.1C0.5,56.9,0,57.4,0,58v4.4c0,0.6,0.5,1.1,1.1,1.1h1.1v5.5
		c0,0.6,0.5,1.1,1.1,1.1h29.5c0.6,0,1.1-0.5,1.1-1.1c0-0.6,0.5-1.1,1.1-1.1s1.1,0.5,1.1,1.1c0,0.6,0.5,1.1,1.1,1.1h29.5
		c0.6,0,1.1-0.5,1.1-1.1v-5.5h1.1c0.6,0,1.1-0.5,1.1-1.1V58c0-0.6-0.5-1.1-1.1-1.1c-0.6,0-1.1-0.5-1.1-1.1s0.5-1.1,1.1-1.1
		c0.6,0,1.1-0.5,1.1-1.1v-5.5c0-0.2-0.1-0.4-0.2-0.6L66.6,42.1z M67.8,52.7c-1.3,0.5-2.2,1.7-2.2,3.1s0.9,2.6,2.2,3.1v2.4H53.6v2.2
		h12v4.4h-2.2v-2.2h-2.2v2.2h-4.4v-2.2h-2.2v2.2h-4.4v-2.2h-2.2v2.2h-4.4v-2.2h-2.2v2.2h-3.5c-0.5-1.3-1.7-2.2-3.1-2.2
		s-2.6,0.9-3.1,2.2h-3.5v-2.2h-2.2v2.2h-4.4v-2.2h-2.2v2.2h-4.4v-2.2h-2.2v2.2H8.8v-2.2H6.6v2.2H4.4v-4.4h47v-2.2H2.2v-2.4
		c1.3-0.5,2.2-1.7,2.2-3.1s-0.9-2.6-2.2-3.1v-4.3L5,43.8h60l2.8,4.7V52.7z"/>
	<path d="M14.2,47c0-0.6-0.5-1.1-1.1-1.1H8.8c-0.6,0-1.1,0.5-1.1,1.1v1.1H6.6v2.2h1.1v1.1H6.6v2.2h1.1v1.1H6.6v2.2h1.1V58
		c0,0.6,0.5,1.1,1.1,1.1h4.4c0.6,0,1.1-0.5,1.1-1.1v-1.1h1.1v-2.2h-1.1v-1.1h1.1v-2.2h-1.1v-1.1h1.1v-2.2h-1.1V47z M12,56.9H9.8
		v-8.8H12V56.9z"/>
	<path d="M27.3,47c0-0.6-0.5-1.1-1.1-1.1h-4.4c-0.6,0-1.1,0.5-1.1,1.1v1.1h-1.1v2.2h1.1v1.1h-1.1v2.2h1.1v1.1h-1.1v2.2h1.1V58
		c0,0.6,0.5,1.1,1.1,1.1h4.4c0.6,0,1.1-0.5,1.1-1.1v-1.1h1.1v-2.2h-1.1v-1.1h1.1v-2.2h-1.1v-1.1h1.1v-2.2h-1.1V47z M25.2,56.9H23
		v-8.8h2.2V56.9z"/>
	<path d="M49.2,47c0-0.6-0.5-1.1-1.1-1.1h-4.4c-0.6,0-1.1,0.5-1.1,1.1v1.1h-1.1v2.2h1.1v1.1h-1.1v2.2h1.1v1.1h-1.1v2.2h1.1V58
		c0,0.6,0.5,1.1,1.1,1.1h4.4c0.6,0,1.1-0.5,1.1-1.1v-1.1h1.1v-2.2h-1.1v-1.1h1.1v-2.2h-1.1v-1.1h1.1v-2.2h-1.1V47z M47,56.9h-2.2
		v-8.8H47V56.9z"/>
	<path d="M62.3,47c0-0.6-0.5-1.1-1.1-1.1h-4.4c-0.6,0-1.1,0.5-1.1,1.1v1.1h-1.1v2.2h1.1v1.1h-1.1v2.2h1.1v1.1h-1.1v2.2h1.1V58
		c0,0.6,0.5,1.1,1.1,1.1h4.4c0.6,0,1.1-0.5,1.1-1.1v-1.1h1.1v-2.2h-1.1v-1.1h1.1v-2.2h-1.1v-1.1h1.1v-2.2h-1.1V47z M60.2,56.9H58
		v-8.8h2.2V56.9z"/>
	<path d="M36.1,50.3h-2.2v3.9l-3,3l1.5,1.5l2.5-2.5l2.5,2.5l1.5-1.5l-3-3V50.3z"/>
	<path d="M33.9,45.9h2.2v2.2h-2.2V45.9z"/>
	<path d="M68.9,13.1c0.6,0,1.1-0.5,1.1-1.1V6.6c0-0.2-0.1-0.4-0.2-0.6l-3.3-5.5C66.4,0.2,66,0,65.6,0H4.4C4,0,3.6,0.2,3.4,0.5L0.2,6
		C0.1,6.2,0,6.4,0,6.6V12c0,0.6,0.5,1.1,1.1,1.1c0.6,0,1.1,0.5,1.1,1.1s-0.5,1.1-1.1,1.1c-0.6,0-1.1,0.5-1.1,1.1v4.4
		c0,0.6,0.5,1.1,1.1,1.1h1.1v5.5c0,0.6,0.5,1.1,1.1,1.1h29.5c0.6,0,1.1-0.5,1.1-1.1c0-0.6,0.5-1.1,1.1-1.1s1.1,0.5,1.1,1.1
		c0,0.6,0.5,1.1,1.1,1.1h29.5c0.6,0,1.1-0.5,1.1-1.1v-5.5h1.1c0.6,0,1.1-0.5,1.1-1.1v-4.4c0-0.6-0.5-1.1-1.1-1.1
		c-0.6,0-1.1-0.5-1.1-1.1S68.3,13.1,68.9,13.1z M65.6,26.3h-2.2v-2.2h-2.2v2.2h-4.4v-2.2h-2.2v2.2h-4.4v-2.2h-2.2v2.2h-4.4v-2.2
		h-2.2v2.2h-3.5c-0.5-1.3-1.7-2.2-3.1-2.2s-2.6,0.9-3.1,2.2h-3.5v-2.2h-2.2v2.2h-4.4v-2.2h-2.2v2.2h-4.4v-2.2h-2.2v2.2H8.8v-2.2H6.6
		v2.2H4.4v-4.4h61.3V26.3z M67.8,11.1c-1.3,0.5-2.2,1.7-2.2,3.1s0.9,2.6,2.2,3.1v2.4H2.2v-2.4c1.3-0.5,2.2-1.7,2.2-3.1
		s-0.9-2.6-2.2-3.1V6.9L5,2.2h60l2.8,4.7V11.1z"/>
	<path d="M14.2,5.5c0-0.6-0.5-1.1-1.1-1.1H8.8c-0.6,0-1.1,0.5-1.1,1.1v1.1H6.6v2.2h1.1v1.1H6.6V12h1.1v1.1H6.6v2.2h1.1v1.1
		c0,0.6,0.5,1.1,1.1,1.1h4.4c0.6,0,1.1-0.5,1.1-1.1v-1.1h1.1v-2.2h-1.1V12h1.1V9.8h-1.1V8.8h1.1V6.6h-1.1V5.5z M12,15.3H9.8V6.6H12
		V15.3z"/>
	<path d="M27.3,5.5c0-0.6-0.5-1.1-1.1-1.1h-4.4c-0.6,0-1.1,0.5-1.1,1.1v1.1h-1.1v2.2h1.1v1.1h-1.1V12h1.1v1.1h-1.1v2.2h1.1v1.1
		c0,0.6,0.5,1.1,1.1,1.1h4.4c0.6,0,1.1-0.5,1.1-1.1v-1.1h1.1v-2.2h-1.1V12h1.1V9.8h-1.1V8.8h1.1V6.6h-1.1V5.5z M25.2,15.3H23V6.6
		h2.2V15.3z"/>
	<path d="M49.2,5.5c0-0.6-0.5-1.1-1.1-1.1h-4.4c-0.6,0-1.1,0.5-1.1,1.1v1.1h-1.1v2.2h1.1v1.1h-1.1V12h1.1v1.1h-1.1v2.2h1.1v1.1
		c0,0.6,0.5,1.1,1.1,1.1h4.4c0.6,0,1.1-0.5,1.1-1.1v-1.1h1.1v-2.2h-1.1V12h1.1V9.8h-1.1V8.8h1.1V6.6h-1.1V5.5z M47,15.3h-2.2V6.6H47
		V15.3z"/>
	<path d="M62.3,5.5c0-0.6-0.5-1.1-1.1-1.1h-4.4c-0.6,0-1.1,0.5-1.1,1.1v1.1h-1.1v2.2h1.1v1.1h-1.1V12h1.1v1.1h-1.1v2.2h1.1v1.1
		c0,0.6,0.5,1.1,1.1,1.1h4.4c0.6,0,1.1-0.5,1.1-1.1v-1.1h1.1v-2.2h-1.1V12h1.1V9.8h-1.1V8.8h1.1V6.6h-1.1V5.5z M60.2,15.3H58V6.6
		h2.2V15.3z"/>
	<path d="M36.1,8.8h-2.2v3.9l-3,3l1.5,1.5l2.5-2.5l2.5,2.5l1.5-1.5l-3-3V8.8z"/>
	<path d="M33.9,4.4h2.2v2.2h-2.2V4.4z"/>
</g>
</svg>
