<?xml version="1.0" encoding="utf-8"?>
<!-- Generator: Adobe Illustrator 23.0.3, SVG Export Plug-In . SVG Version: 6.00 Build 0)  -->
<svg version="1.1" id="Layer_1" xmlns="http://www.w3.org/2000/svg" xmlns:xlink="http://www.w3.org/1999/xlink" x="0px" y="0px"
	 viewBox="0 0 70 70" style="enable-background:new 0 0 70 70;" xml:space="preserve">
<g>
	<path d="M35,33.9c-10,0-18.1,8.1-18.1,18.1S25,70,35,70s18.1-8.1,18.1-18.1S45,33.9,35,33.9z M35,67.7c-8.3,0-15.2-6.5-15.7-14.7
		h3.3v-2.3h-3.3c0.2-3.5,1.6-6.7,3.8-9.2l2.4,2.4l1.6-1.6L24.7,40c2.5-2.2,5.7-3.6,9.2-3.8v3.3h2.3v-3.3c3.5,0.2,6.7,1.6,9.2,3.8
		L43,42.4l1.6,1.6l2.4-2.4c2.2,2.5,3.6,5.7,3.8,9.2h-3.3v2.3h3.3C50.2,61.3,43.3,67.7,35,67.7z"/>
	<path d="M38.4,48.1L35,44.7l-3.4,3.4V58c-0.7,0.8-1.1,1.9-1.1,3c0,2.5,2,4.5,4.5,4.5s4.5-2,4.5-4.5c0-1.1-0.4-2.1-1.1-3V48.1z
		 M35,63.2c-1.2,0-2.3-1-2.3-2.3c0-0.6,0.3-1.2,0.8-1.7l0.4-0.3V49l1.1-1.1l1.1,1.1V59l0.4,0.3c0.5,0.4,0.8,1,0.8,1.7
		C37.3,62.2,36.2,63.2,35,63.2z"/>
	<path d="M12.4,38.4h-2.3v19.2h1.5l-3.7,6.7l-3.7-6.7h1.5V38.4H3.4v16.9h-3l7.6,13.6l7.6-13.6h-3V38.4z"/>
	<path d="M54.5,48.5h3v16.9h2.3V46.3h-1.5l3.7-6.7l3.7,6.7h-1.5v19.2h2.3V48.5h3l-7.6-13.6L54.5,48.5z"/>
	<path d="M58.7,13.5H61v2.3h-2.3V13.5z"/>
	<path d="M54.2,13.5h2.3v2.3h-2.3V13.5z"/>
	<path d="M49.7,13.5h2.3v2.3h-2.3V13.5z"/>
	<path d="M9,13.5h2.3v2.3H9V13.5z"/>
	<path d="M13.5,13.5h2.3v2.3h-2.3V13.5z"/>
	<path d="M18.1,13.5h2.3v2.3h-2.3V13.5z"/>
	<path d="M14.7,29.4c2.9,0,5.7-0.9,8.1-2.5L35,18.7l12.2,8.1c2.4,1.6,5.2,2.5,8.1,2.5c8.1,0,14.7-6.6,14.7-14.7
		C70,6.6,63.4,0,55.3,0c-2.9,0-5.7,0.9-8.1,2.5L35,10.6L22.8,2.5C20.4,0.9,17.6,0,14.7,0C6.6,0,0,6.6,0,14.7
		C0,22.8,6.6,29.4,14.7,29.4z M14.7,2.3c2.5,0,4.8,0.7,6.9,2.1L33,12l-2,1.4L20.3,6.2c-1.7-1.1-3.6-1.7-5.6-1.7
		C9.1,4.5,4.5,9.1,4.5,14.7c0,5.6,4.5,10.1,10.1,10.1c2,0,4-0.6,5.6-1.7L48.5,4.3c2-1.4,4.4-2.1,6.9-2.1c6.8,0,12.4,5.6,12.4,12.4
		c0,6.9-5.6,12.4-12.4,12.4c-2.5,0-4.8-0.7-6.9-2.1L37,17.4l2-1.4l10.7,7.1c1.7,1.1,3.6,1.7,5.6,1.7c5.6,0,10.1-4.6,10.1-10.2
		c0-5.6-4.5-10.1-10.1-10.1c-2,0-4,0.6-5.6,1.7L21.5,25c-2,1.4-4.4,2.1-6.9,2.1c-6.8,0-12.4-5.6-12.4-12.4C2.3,7.8,7.8,2.3,14.7,2.3
		z M28.9,14.7L19,21.3c-1.3,0.9-2.8,1.3-4.4,1.3c-4.3,0-7.9-3.5-7.9-7.9c0-4.4,3.5-7.9,7.9-7.9c1.6,0,3.1,0.5,4.4,1.3L28.9,14.7z
		 M41.1,14.7L51,8.1c1.3-0.9,2.8-1.3,4.4-1.3c4.3,0,7.9,3.5,7.9,7.9c0,4.4-3.5,7.9-7.9,7.9c-1.6,0-3.1-0.5-4.4-1.3L41.1,14.7z"/>
</g>
</svg>
