<?xml version="1.0" encoding="utf-8"?>
<!-- Generator: Adobe Illustrator 23.0.3, SVG Export Plug-In . SVG Version: 6.00 Build 0)  -->
<svg version="1.1" id="Capa_1" xmlns="http://www.w3.org/2000/svg" xmlns:xlink="http://www.w3.org/1999/xlink" x="0px" y="0px"
	 viewBox="0 0 73.4 70" style="enable-background:new 0 0 73.4 70;" xml:space="preserve">
<style type="text/css">
	.st0{fill:#163C79;}
	.st1{fill:#FF2C9C;}
</style>
<g>
	<g>
		<path class="st0" d="M68.9,0H4.5C2,0,0,2,0,4.5v50.6c0,2.5,2,4.5,4.5,4.5H16c0.6,0,1.1-0.5,1.1-1.1s-0.5-1.1-1.1-1.1H4.5
			c-1.3,0-2.4-1.1-2.4-2.4V13.7h69.1v41.5c0,1.3-1.1,2.4-2.4,2.4H57.4c-0.6,0-1.1,0.5-1.1,1.1s0.5,1.1,1.1,1.1h11.5
			c2.5,0,4.5-2,4.5-4.5V4.5C73.4,2,71.4,0,68.9,0z M71.3,11.5H2.2v-7c0-1.3,1.1-2.4,2.4-2.4h64.4c1.3,0,2.4,1.1,2.4,2.4V11.5
			L71.3,11.5z"/>
	</g>
	<g>
		<path class="st0" d="M5.7,5.7L5.7,5.7c-0.6,0-1.1,0.5-1.1,1.1c0,0.6,0.5,1.1,1.1,1.1s1.1-0.5,1.1-1.1C6.8,6.2,6.3,5.7,5.7,5.7z"/>
	</g>
	<g>
		<path class="st0" d="M12.6,5.7L12.6,5.7c-0.6,0-1.1,0.5-1.1,1.1c0,0.6,0.5,1.1,1.1,1.1c0.6,0,1.1-0.5,1.1-1.1
			C13.7,6.2,13.2,5.7,12.6,5.7z"/>
	</g>
	<g>
		<path class="st0" d="M9.1,5.7L9.1,5.7C8.5,5.7,8,6.2,8,6.8c0,0.6,0.5,1.1,1.1,1.1c0.6,0,1.1-0.5,1.1-1.1C10.2,6.2,9.7,5.7,9.1,5.7
			z"/>
	</g>
	<g>
		<path class="st0" d="M67.8,5.7H17.2c-0.6,0-1.1,0.5-1.1,1.1c0,0.6,0.5,1.1,1.1,1.1h50.6c0.6,0,1.1-0.5,1.1-1.1
			C68.9,6.2,68.4,5.7,67.8,5.7z"/>
	</g>
	<g>
		<path class="st1" d="M50.5,38.1v-6c0-7.6-6.2-13.7-13.7-13.7S23,24.6,23,32.1v6c-2,0.5-3.4,2.3-3.4,4.4v10.3
			c0,9.5,7.7,17.2,17.2,17.2s17.2-7.7,17.2-17.2V42.5C53.9,40.3,52.4,38.6,50.5,38.1z M25.2,32.1c0-6.4,5.2-11.6,11.6-11.6
			s11.6,5.2,11.6,11.6v5.8h-2.4v-5.8c0-5-4.1-9.1-9.1-9.1s-9.1,4.1-9.1,9.1v5.8h-2.4V32.1z M36.7,67.8c-8.3,0-15-6.7-15-15V42.5
			c0-1.3,1.1-2.4,2.4-2.4h13.8c0.6,0,1.1-0.5,1.1-1.1c0-0.6-0.5-1.1-1.1-1.1h-8.1v-5.8c0-3.8,3.1-7,7-7s7,3.1,7,7v5.8h-1.2
			c-0.6,0-1.1,0.5-1.1,1.1c0,0.6,0.5,1.1,1.1,1.1h6.9c1.3,0,2.4,1.1,2.4,2.4v10.3h0C51.7,61.1,45,67.8,36.7,67.8z"/>
	</g>
	<g>
		<path class="st1" d="M36.7,47.1c-2.5,0-4.5,2-4.5,4.5c0,2.1,1.5,3.9,3.4,4.4v3.7c0,0.6,0.5,1.1,1.1,1.1s1.1-0.5,1.1-1.1v-3.7
			c2-0.5,3.4-2.3,3.4-4.4C41.3,49.2,39.2,47.1,36.7,47.1z M36.7,54c-1.3,0-2.4-1.1-2.4-2.4s1.1-2.4,2.4-2.4s2.4,1.1,2.4,2.4
			S38,54,36.7,54z"/>
	</g>
</g>
</svg>
