<?xml version="1.0" encoding="utf-8"?>
<!-- Generator: Adobe Illustrator 23.0.3, SVG Export Plug-In . SVG Version: 6.00 Build 0)  -->
<svg version="1.1" id="Capa_1" xmlns="http://www.w3.org/2000/svg" xmlns:xlink="http://www.w3.org/1999/xlink" x="0px" y="0px"
	 viewBox="0 0 70 70" style="enable-background:new 0 0 70 70;" xml:space="preserve">
<style type="text/css">
	.st0{fill:#163C79;}
	.st1{fill:#FF2C9C;}
</style>
<g>
	<path class="st0" d="M30.6,15.3h2.2V23h-2.2V15.3z"/>
	<path class="st0" d="M36.1,19.7h2.2v7.7h-2.2V19.7z"/>
	<path class="st0" d="M41.6,23h2.2v7.7h-2.2V23z"/>
	<path class="st1" d="M45.9,43.8h-1.3c-0.5-1.3-1.7-2.2-3.1-2.2h-2.4c-0.5-1.3-1.7-2.2-3.1-2.2h-2.2v-2.2h16.4V0H29.1l-9.4,9.4v27.8
		h6.6v11l-1-1.7c-1.1-1.9-3.6-2.6-5.5-1.5S17,48.5,18,50.5l6.3,12.6c0.6,1.2,1.7,2.1,3.1,2.4V70h2.2v-4.4h3.3v-2.2h-4.4
		c-0.9,0-1.8-0.5-2.2-1.4L20,49.5c-0.5-0.9-0.1-2.1,0.8-2.6c0.9-0.5,2.1-0.2,2.6,0.7l3,4.9h2.1V30.1c0-0.9,0.7-1.6,1.6-1.6
		s1.6,0.7,1.6,1.6v15.9h2.2v-4.4h2.2c0.6,0,1.1,0.5,1.1,1.1v5.5h2.2v-4.4h2.2c0.6,0,1.1,0.5,1.1,1.1v5.5h2.2v-4.4h1.1
		c0.6,0,1.1,0.5,1.1,1.1v12.8l-3.3,4.4V70h2.2v-5.1l3.3-4.4V47C49.2,45.2,47.7,43.8,45.9,43.8z M28.4,3.7v5h-5L28.4,3.7z M30.1,26.3
		c-2.1,0-3.8,1.7-3.8,3.8V35h-4.4V10.9h8.8V2.2h17.5V35H33.9v-4.9C33.9,28,32.2,26.3,30.1,26.3z"/>
	<path class="st0" d="M0,62.3h19.7v2.2H0V62.3z"/>
	<path class="st0" d="M0,53.6h13.1v2.2H0V53.6z"/>
	<path class="st0" d="M50.3,62.3H70v2.2H50.3V62.3z"/>
	<path class="st0" d="M56.9,53.6H70v2.2H56.9V53.6z"/>
	<path class="st0" d="M2.2,43.8h13.1V19.2l-6.1-6.1h-7V6.6H0v41.6h2.2V43.8z M8.8,15.8l3.9,3.9H8.8V15.8z M2.2,15.3h4.4v6.6h6.6
		v19.7H2.2V15.3z"/>
	<path class="st0" d="M67.8,6.6v6.6h-7l-6.1,6.1v24.5h13.1v4.4H70V6.6H67.8z M61.3,15.8v3.9h-3.9L61.3,15.8z M67.8,41.6H56.9V21.9
		h6.6v-6.6h4.4V41.6z"/>
</g>
</svg>
