<?xml version="1.0" encoding="utf-8"?>
<!-- Generator: Adobe Illustrator 23.0.3, SVG Export Plug-In . SVG Version: 6.00 Build 0)  -->
<svg version="1.1" id="Capa_1" xmlns="http://www.w3.org/2000/svg" xmlns:xlink="http://www.w3.org/1999/xlink" x="0px" y="0px"
	 viewBox="0 0 70 70" style="enable-background:new 0 0 70 70;" xml:space="preserve">
<style type="text/css">
	.st0{fill:#FF2C9C;}
	.st1{fill:#163C79;}
</style>
<g>
	<path class="st0" d="M57.2,46.7c0-0.7-0.5-1.2-1.2-1.2h-5.8V19.8h2.3c0.7,0,1.2-0.5,1.2-1.2V7c0-0.7-0.5-1.2-1.2-1.2h-14
		c-0.7,0-1.2,0.5-1.2,1.2v3.5H19.8V8.2c0-0.7-0.5-1.2-1.2-1.2h-2.3V4.7H14V7h-2.3c-0.7,0-1.2,0.5-1.2,1.2v2.3H8.2v2.3h2.3v2.3
		c0,0.7,0.5,1.2,1.2,1.2H14v2.3h2.3v-2.3h2.3c0.7,0,1.2-0.5,1.2-1.2v-2.3h17.5v5.8c0,0.7,0.5,1.2,1.2,1.2h2.3v11.7h-21v-2.3
		c0-0.7-0.5-1.2-1.2-1.2h-2.3v-2.3H14V28h-2.3c-0.7,0-1.2,0.5-1.2,1.2v2.3H8.2v2.3h2.3v2.3c0,0.7,0.5,1.2,1.2,1.2H14v2.3h2.3v-2.3
		h2.3c0.7,0,1.2-0.5,1.2-1.2v-2.3h21v11.7H35c-0.7,0-1.2,0.5-1.2,1.2v5.8c0,0.7,0.5,1.2,1.2,1.2h3.5V70h2.3v-4.7h4.7V63h-4.7v-3.5
		h4.7v-2.3h-4.7v-3.5h9.3V70h2.3V53.7H56c0.7,0,1.2-0.5,1.2-1.2V46.7z M17.5,14h-4.7V9.3h4.7V14z M17.5,35h-4.7v-4.7h4.7V35z
		 M39.7,8.2h11.7v9.3H49h-7h-2.3V8.2z M43.2,19.8h4.7v25.7h-4.7V19.8z M54.8,51.3h-3.5H39.7h-3.5v-3.5H42h7h5.8V51.3z"/>
	<path class="st1" d="M68.8,0H1.2C0.5,0,0,0.5,0,1.2v64.2c0,0.7,0.5,1.2,1.2,1.2h32.7v-2.3H2.3V44.3h30.3V42H2.3V23.3h30.3V21H2.3
		V2.3h65.3V21h-9.3v2.3h9.3V42h-9.3v2.3h9.3v19.8H57.2v2.3h11.7c0.7,0,1.2-0.5,1.2-1.2V1.2C70,0.5,69.5,0,68.8,0z"/>
	<rect x="8.2" y="47.8" class="st1" width="2.3" height="12.8"/>
	<rect x="14" y="47.8" class="st1" width="2.3" height="12.8"/>
	<rect x="19.8" y="47.8" class="st1" width="2.3" height="12.8"/>
	<rect x="25.7" y="47.8" class="st1" width="2.3" height="12.8"/>
	<rect x="61.8" y="47.8" class="st1" width="2.3" height="12.8"/>
	<rect x="61.8" y="26.8" class="st1" width="2.3" height="11.7"/>
	<rect x="61.8" y="5.8" class="st1" width="2.3" height="11.7"/>
</g>
</svg>
