<?xml version="1.0" encoding="utf-8"?>
<!-- Generator: Adobe Illustrator 23.0.3, SVG Export Plug-In . SVG Version: 6.00 Build 0)  -->
<svg version="1.1" id="Capa_1" xmlns="http://www.w3.org/2000/svg" xmlns:xlink="http://www.w3.org/1999/xlink" x="0px" y="0px"
	 viewBox="0 0 80 70" style="enable-background:new 0 0 80 70;" xml:space="preserve">
<style type="text/css">
	.st0{fill:#163C79;}
	.st1{fill:#FF2C9C;}
</style>
<g>
	<path class="st0" d="M13.4,33.4H8.8V31h4.6c0.6,0,1.2-0.5,1.2-1.2s-0.5-1.2-1.2-1.2h-2.3c-1.9,0-3.5-1.6-3.5-3.5s1.6-3.5,3.5-3.5
		h4.6v2.3h-4.6c-0.6,0-1.2,0.5-1.2,1.2c0,0.6,0.5,1.2,1.2,1.2h2.3c1.9,0,3.5,1.6,3.5,3.5S15.3,33.4,13.4,33.4z"/>
	<path class="st0" d="M23.8,33.4h-4.6V31h4.6c0.6,0,1.2-0.5,1.2-1.2s-0.5-1.2-1.2-1.2h-2.3c-1.9,0-3.5-1.6-3.5-3.5s1.6-3.5,3.5-3.5
		h4.6v2.3h-4.6c-0.6,0-1.2,0.5-1.2,1.2c0,0.6,0.5,1.2,1.2,1.2h2.3c1.9,0,3.5,1.6,3.5,3.5S25.7,33.4,23.8,33.4z"/>
	<path class="st0" d="M36.5,33.4h-6.9V21.8h2.3V31h4.6V33.4z"/>
	<path class="st1" d="M48.1,51.9h2.3v2.3h-2.3V51.9z"/>
	<path class="st0" d="M60.8,56.5h11.6v2.3H60.8V56.5z"/>
	<path class="st0" d="M60.8,51.9h9.3v2.3h-9.3V51.9z"/>
	<path class="st0" d="M60.8,47.2h4.6v2.3h-4.6V47.2z"/>
	<path class="st1" d="M41.2,50v8.8h16.2V44.9H55v-3.5c0-1.4-0.5-2.8-1.5-3.8l10.1-10.1L55,19L30.7,43.3l-6.9-6.9l-8.6,8.6l15.5,15.5
		L41.2,50z M55,47.2v9.3H43.5v-9.3H55z M45.8,44.9v-3.5c0-1.9,1.6-3.5,3.5-3.5c1.9,0,3.5,1.6,3.5,3.5v3.5H45.8z M23.8,39.6l6.9,6.9
		L55,22.3l5.3,5.3l-8.7,8.7c-0.8-0.4-1.6-0.6-2.4-0.6c-3.2,0-5.8,2.6-5.8,5.8v3.5h-2.3v1.8L30.7,57.2L18.5,44.9L23.8,39.6z"/>
</g>
<path class="st0" d="M74.2,0H5.8C2.6,0,0,2.6,0,5.8v58.3C0,67.4,2.6,70,5.8,70h68.3c3.2,0,5.8-2.6,5.8-5.8V5.8C80,2.6,77.4,0,74.2,0
	z M5.8,2.3h68.3c1.9,0,3.5,1.6,3.5,3.5v3.5H2.3V5.8C2.3,3.9,3.9,2.3,5.8,2.3z M74.2,67.7H5.8c-1.9,0-3.5-1.6-3.5-3.5V11.7h75.3v52.5
	C77.7,66.1,76.1,67.7,74.2,67.7z"/>
<path class="st0" d="M5.8,4.7h2.3V7H5.8V4.7z"/>
<path class="st0" d="M10.5,4.7h2.3V7h-2.3V4.7z"/>
<path class="st0" d="M15.2,4.7h2.3V7h-2.3V4.7z"/>
</svg>
