<?xml version="1.0" encoding="utf-8"?>
<!-- Generator: Adobe Illustrator 23.0.3, SVG Export Plug-In . SVG Version: 6.00 Build 0)  -->
<svg version="1.1" id="Capa_1" xmlns="http://www.w3.org/2000/svg" xmlns:xlink="http://www.w3.org/1999/xlink" x="0px" y="0px"
	 viewBox="0 0 65.6 70" style="enable-background:new 0 0 65.6 70;" xml:space="preserve">
<style type="text/css">
	.st0{fill:#163C79;}
	.st1{fill:#FF2C9C;}
</style>
<g>
	<path class="st0" d="M5.4,25.1L5.4,25.1c-0.6,0-1-0.5-1-1V5.4c0-0.6,0.5-1,1-1h3.4c0.6,0,1,0.5,1,1v0c0,0.6-0.5,1-1,1H7.5
		c-0.6,0-1,0.5-1,1v16.6C6.4,24.7,6,25.1,5.4,25.1z"/>
	<path class="st0" d="M4.4,27.3h2.1v2.2H4.4V27.3z"/>
	<path class="st0" d="M50.3,4.4h2.2v2.1h-2.2V4.4z"/>
	<path class="st0" d="M46,4.4h2.2v2.1H46V4.4z"/>
	<path class="st0" d="M55.8,7.6L55.8,7.6c0.6,0,1-0.5,1-1V1c0-0.6-0.5-1-1-1H22.9c-0.6,0-1,0.5-1,1v0c0,0.6,0.5,1,1,1h30.9
		c0.6,0,1,0.5,1,1v3.5C54.8,7.1,55.2,7.6,55.8,7.6z"/>
	<path class="st0" d="M3.1,2.1h14.4c0.6,0,1-0.5,1-1v0c0-0.6-0.5-1-1-1H1C0.5,0,0,0.5,0,1V69c0,0.6,0.5,1,1,1h14.3c0.6,0,1-0.5,1-1
		l0,0c0-0.6-0.5-1-1-1H3.1c-0.6,0-1-0.5-1-1V3.1C2.1,2.5,2.5,2.1,3.1,2.1z"/>
	<path class="st0" d="M53.8,53.7H41.6c-0.6,0-1,0.5-1,1v12.2c0,0.6-0.5,1-1,1H20.7c-0.6,0-1,0.5-1,1l0,0c0,0.6,0.5,1,1,1h20.9
		c0.3,0,0.5-0.1,0.7-0.3l14.2-14.2c0.2-0.2,0.3-0.5,0.3-0.7V41.5c0-0.6-0.5-1-1-1l0,0c-0.6,0-1,0.5-1,1v11.2
		C54.8,53.2,54.3,53.7,53.8,53.7z M51.6,57.5l-7.2,7.2c-0.6,0.6-1.8,0.2-1.8-0.7v-7.2c0-0.6,0.5-1,1-1h7.2
		C51.8,55.8,52.2,56.9,51.6,57.5z"/>
	<path class="st0" d="M13.1,37.3h25.2v2.1H13.1V37.3z"/>
	<path class="st0" d="M7.6,42.7h41.6v2.1H7.6V42.7z"/>
	<path class="st0" d="M7.6,48.2h41.6v2.1H7.6V48.2z"/>
	<path class="st0" d="M7.6,53.7h30.7v2.1H7.6V53.7z"/>
	<path class="st0" d="M7.6,59.2h24.1v2.1H7.6V59.2z"/>
	<path class="st0" d="M15.3,15.3c0,1.6,0.7,3.1,1.9,4.1c-3,1.4-5.2,4.4-5.2,8c0,1.9,0.9,5.4,4.3,5.4h8.8c3.4,0,4.3-3.5,4.3-5.4
		c0-3.5-2.1-6.6-5.2-8c1.2-1,1.9-2.5,1.9-4.1c0-3-2.4-5.4-5.4-5.4C17.8,9.9,15.3,12.3,15.3,15.3z M22.4,20.9l-1.7,1.7l-1.7-1.7
		c0.5-0.1,1.1-0.2,1.7-0.2S21.9,20.8,22.4,20.9z M27.4,27.3c0,0,0,1-0.4,1.9c-0.5,1.3-1.3,1.5-1.9,1.5h-8.8c-0.6,0-1.4-0.2-1.9-1.5
		c-0.4-0.9-0.4-1.9-0.4-1.9c0-2.3,1.2-4.3,3-5.5l3.7,3.7l3.7-3.7C26.2,23,27.4,25,27.4,27.3z M20.8,11.9c1.8,0,3.4,1.5,3.4,3.4
		c0,1.8-1.5,3.4-3.4,3.4s-3.4-1.5-3.4-3.4C17.4,13.4,18.9,11.9,20.8,11.9z"/>
	<path class="st1" d="M50.3,8.8c-8.4,0-15.3,6.9-15.3,15.3c0,8.4,6.9,15.3,15.3,15.3c4.2,0,8.1-1.7,11-4.7l-1.5-1.4
		c-2.5,2.6-5.9,4.1-9.5,4.1c-7.3,0-13.2-5.9-13.2-13.2c0-7.3,5.9-13.2,13.2-13.2c7.3,0,13.2,5.9,13.2,13.2c0,2.5-0.7,4.9-2,7
		l1.7,1.1c1.5-2.4,2.4-5.3,2.4-8.1C65.6,15.6,58.8,8.8,50.3,8.8z"/>
	<path class="st1" d="M51.4,32.8v-7.7h7.7V23h-7.7v-7.7h-2.1V23h-7.7v2.1h7.7v7.7H51.4z"/>
</g>
</svg>
