<?xml version="1.0" encoding="utf-8"?>
<!-- Generator: Adobe Illustrator 23.0.3, SVG Export Plug-In . SVG Version: 6.00 Build 0)  -->
<svg version="1.1" id="Capa_1" xmlns="http://www.w3.org/2000/svg" xmlns:xlink="http://www.w3.org/1999/xlink" x="0px" y="0px"
	 viewBox="0 0 70 70" style="enable-background:new 0 0 70 70;" xml:space="preserve">
<style type="text/css">
	.st0{fill:#163C79;}
	.st1{fill:#FF2C9C;}
</style>
<g>
	<path class="st0" d="M70,58.5v-8.5l-3.3-0.8c0-0.1,0-0.1-0.1-0.2l1.7-2.9l-6-6l-2.9,1.7c-0.1,0-0.1,0-0.2-0.1l-0.8-3.3h-8.5
		l-0.8,3.3c-0.1,0-0.1,0-0.2,0.1L46,40l-6,6l1.7,2.9c0,0.1,0,0.1-0.1,0.2l-3.3,0.8v8.5l3.3,0.8c0,0.1,0,0.1,0.1,0.2L40,62.4l6,6
		l2.9-1.7c0.1,0,0.1,0,0.2,0.1l0.8,3.3h8.5l0.8-3.3c0.1,0,0.1,0,0.2-0.1l2.9,1.7l6-6l-1.7-2.9c0-0.1,0-0.1,0.1-0.2L70,58.5z
		 M65.5,62L62,65.5l-2.4-1.4L59,64.4c-0.4,0.2-0.7,0.3-1.1,0.4L57.4,65l-0.7,2.7h-5L51,65l-0.6-0.2c-0.4-0.1-0.7-0.3-1.1-0.4
		l-0.5-0.3l-2.4,1.4L42.8,62l1.4-2.4L44,59c-0.2-0.4-0.3-0.7-0.4-1.1l-0.2-0.6l-2.7-0.7v-5l2.7-0.7l0.2-0.6c0.1-0.4,0.3-0.7,0.4-1.1
		l0.3-0.5l-1.4-2.4l3.5-3.5l2.4,1.4l0.5-0.3c0.4-0.2,0.7-0.3,1.1-0.4l0.6-0.2l0.7-2.7h5l0.7,2.7l0.6,0.2c0.4,0.1,0.7,0.3,1.1,0.4
		l0.5,0.3l2.4-1.4l3.5,3.5l-1.4,2.4l0.3,0.5c0.2,0.4,0.3,0.7,0.4,1.1L65,51l2.7,0.7v5L65,57.4L64.8,58c-0.1,0.4-0.3,0.7-0.4,1.1
		l-0.3,0.5L65.5,62z"/>
	<path class="st0" d="M54.2,45.2c-5,0-9,4.1-9,9s4.1,9,9,9s9-4.1,9-9S59.2,45.2,54.2,45.2z M54.2,61c-3.7,0-6.8-3-6.8-6.8
		c0-3.7,3-6.8,6.8-6.8c3.7,0,6.8,3,6.8,6.8C61,57.9,57.9,61,54.2,61z"/>
	<path class="st0" d="M54.2,49.7c-2.5,0-4.5,2-4.5,4.5c0,2.5,2,4.5,4.5,4.5c2.5,0,4.5-2,4.5-4.5C58.7,51.7,56.7,49.7,54.2,49.7z
		 M54.2,56.5c-1.2,0-2.3-1-2.3-2.3c0-1.2,1-2.3,2.3-2.3c1.2,0,2.3,1,2.3,2.3C56.5,55.4,55.4,56.5,54.2,56.5z"/>
	<path class="st1" d="M28.6,19.1c0.4,1.1,1,2.1,1.9,2.9v1l-5.4,2c-2.2,0.8-3.7,2.9-3.7,5.3v5.9h27.1v-5.9c0-2.3-1.5-4.5-3.7-5.3
		l-5.4-2v-1c0.9-0.8,1.5-1.7,1.9-2.9c2.1-0.4,3.8-2.2,3.8-4.4v-4.5C45.2,4.6,40.6,0,35,0S24.8,4.6,24.8,10.2v4.5
		C24.8,16.9,26.5,18.8,28.6,19.1z M37.3,23.4L35,27.2l-2.3-3.8v-0.1c0.7,0.3,1.5,0.4,2.3,0.4S36.6,23.6,37.3,23.4L37.3,23.4z
		 M31.1,25.1l2.3,3.8L31.1,30l-1.5-4.4L31.1,25.1z M46.3,30.2v3.6H23.7v-3.6c0-1.4,0.9-2.7,2.2-3.2l1.7-0.6l2.3,6.8l5.2-2.6l5.2,2.6
		l2.3-6.8l1.7,0.6C45.4,27.5,46.3,28.8,46.3,30.2z M40.3,25.6L38.9,30l-2.3-1.1l2.3-3.8L40.3,25.6z M35,21.5c-2.5,0-4.5-2-4.5-4.5
		v-4.6c1.7-0.2,3.2-0.8,4.5-1.8c1.3,1,2.9,1.6,4.5,1.8v4.6C39.5,19.4,37.5,21.5,35,21.5z M41.8,16.6v-3.9c0.7,0.4,1.1,1.1,1.1,1.9
		C42.9,15.5,42.4,16.2,41.8,16.6z M35,2.3c4.4,0,7.9,3.5,7.9,7.9v0.6c-0.7-0.4-1.4-0.6-2.3-0.6h-0.2c-1.8,0-3.4-0.7-4.7-1.9L35,7.4
		l-0.8,0.8c-1.2,1.2-2.9,1.9-4.7,1.9h-0.2c-0.8,0-1.6,0.2-2.3,0.6v-0.6C27.1,5.8,30.6,2.3,35,2.3z M28.2,12.7v3.9
		c-0.7-0.4-1.1-1.1-1.1-1.9C27.1,13.8,27.6,13.1,28.2,12.7z"/>
	<path class="st1" d="M0,70h22.6V40.6H0V70z M2.3,42.9h18.1v24.8H2.3V42.9z"/>
	<path class="st1" d="M4.5,45.2h13.5v2.3H4.5V45.2z"/>
	<path class="st1" d="M4.5,49.7h2.3v2.3H4.5V49.7z"/>
	<path class="st1" d="M9,49.7h9v2.3H9V49.7z"/>
	<path class="st0" d="M4.5,54.2h13.5v2.3H4.5V54.2z"/>
	<path class="st0" d="M4.5,58.7h13.5V61H4.5V58.7z"/>
	<path class="st0" d="M15.8,63.2h2.3v2.3h-2.3V63.2z"/>
	<path class="st0" d="M4.5,63.2h9v2.3h-9V63.2z"/>
	<path class="st1" d="M31.2,50.5l-1.6-1.6l-5.3,5.3l5.3,5.3l1.6-1.6l-2.6-2.6h8.6v-2.3h-8.6L31.2,50.5z"/>
	<path class="st0" d="M12.4,18.1c0-0.6,0.5-1.1,1.1-1.1h5.2l-2.6,2.6l1.6,1.6l5.3-5.3l-5.3-5.3l-1.6,1.6l2.6,2.6h-5.2
		c-1.9,0-3.4,1.5-3.4,3.4v20.3h2.3V18.1z"/>
	<path class="st0" d="M54.2,18.1v14.2l-2.6-2.6L50,31.3l5.3,5.3l5.3-5.3L59,29.7l-2.6,2.6V18.1c0-1.9-1.5-3.4-3.4-3.4h-5.6v2.3h5.6
		C53.7,16.9,54.2,17.4,54.2,18.1z"/>
</g>
</svg>
