<?xml version="1.0" encoding="utf-8"?>
<!-- Generator: Adobe Illustrator 16.0.0, SVG Export Plug-In . SVG Version: 6.00 Build 0)  -->
<!DOCTYPE svg PUBLIC "-//W3C//DTD SVG 1.1//EN" "http://www.w3.org/Graphics/SVG/1.1/DTD/svg11.dtd">
<svg version="1.1" id="Layer_1" xmlns="http://www.w3.org/2000/svg" xmlns:xlink="http://www.w3.org/1999/xlink" x="0px" y="0px"
	 width="612.065px" height="109.151px" viewBox="0 341.403 612.065 109.151" enable-background="new 0 341.403 612.065 109.151"
	 xml:space="preserve">
<title>logo</title>
<g>
	<polygon fill="#6F75FF" points="67.006,383.777 29.16,383.777 29.16,343.138 0,372.297 0,449.387 29.16,449.387 29.16,409.576 
		67.006,409.576 67.006,449.387 97.824,449.387 97.824,343.138 67.006,343.138 	"/>
	<path fill="#6F75FF" d="M197.656,356.015c-22.055-19.081-54.772-19.081-76.827,0c-10.913,9.516-16.064,22.699-16.064,40.072
		c0,17.374,5.326,30.557,15.977,40.073c21.999,19.286,54.917,19.174,76.784-0.263c11.084-10.184,17.053-24.777,16.282-39.811
		C213.895,378.714,208.307,365.226,197.656,356.015z M177.75,415.905c-10.837,9.322-26.899,9.192-37.584-0.306
		c-5.441-5.014-8.328-12.216-7.857-19.6c-0.507-7.479,2.378-14.789,7.857-19.905c5.213-4.514,11.92-6.926,18.814-6.766
		c6.896,0.024,13.554,2.518,18.77,7.028C188.141,387.492,188.141,404.77,177.75,415.905z"/>
	<path fill="#6F75FF" d="M257.546,383.734c-2.878,0.028-5.731-0.536-8.381-1.659c-2.166-1.252-3.383-3.669-3.099-6.155
		c-0.1-1.567,0.65-3.068,1.964-3.929c1.288-0.882,2.805-1.367,4.365-1.396h38.719l27.544-27.195h-65.478
		c-8.802-0.045-17.269,3.373-23.572,9.516c-6.552,5.619-10.343,13.806-10.39,22.437c-0.225,19.285,15.227,35.102,34.512,35.326
		c0.471,0.006,0.942,0.002,1.414-0.012c5.02,0,7.552,1.965,7.552,5.588c0.045,1.835-0.558,3.628-1.702,5.063
		c-1.079,1.286-2.687,2.01-4.365,1.964l-38.719-0.262v26.191h41.513c8.742,0.009,17.087-3.649,23.004-10.084
		c6.083-6.194,9.472-14.541,9.429-23.223c0.204-8.665-3.25-17.016-9.516-23.004C275.632,386.656,266.704,383.355,257.546,383.734z"
		/>
	<polygon fill="#6F75FF" points="393.042,343.399 356.331,343.399 356.331,343.138 356.331,343.399 328.001,343.399 
		300.806,370.595 327.171,370.595 327.171,449.387 356.331,449.387 356.331,370.595 365.585,370.595 	"/>
	<polygon fill="#6F75FF" points="375.101,372.297 375.101,449.387 404.261,449.387 404.261,343.138 	"/>
	<polygon fill="#82C0FF" points="521.466,343.138 484.188,343.138 442.412,385.436 442.412,343.138 413.253,372.297 
		413.253,449.387 442.412,449.387 442.412,424.155 456.163,410.1 495.668,449.387 495.668,412.369 473.798,391.067 	"/>
	<path fill="#82C0FF" d="M596.023,355.709c-22.041-19.075-54.743-19.075-76.784,0c-10.956,9.516-16.282,23.004-16.282,40.116
		s5.326,30.557,15.978,40.335c22.013,19.292,54.945,19.18,76.827-0.263c11.053-10.202,17.002-24.788,16.238-39.811
		C612,378.714,606.675,365.254,596.023,355.709z M575.856,415.905L575.856,415.905c-10.838,9.322-26.9,9.192-37.585-0.306
		c-10.628-10.898-10.743-28.248-0.262-39.287c5.193-4.514,11.893-6.913,18.771-6.722c6.905,0.041,13.573,2.531,18.814,7.028
		C586.453,387.421,586.57,404.959,575.856,415.905z"/>
</g>
</svg>
