<?xml version="1.0" encoding="utf-8"?>
<!-- Generator: Adobe Illustrator 23.0.3, SVG Export Plug-In . SVG Version: 6.00 Build 0)  -->
<svg version="1.1" id="Capa_1" xmlns="http://www.w3.org/2000/svg" xmlns:xlink="http://www.w3.org/1999/xlink" x="0px" y="0px"
	 viewBox="175 376.5 56 50" style="enable-background:new 175 376.5 56 50;" xml:space="preserve">
<style type="text/css">
	.st0{fill:#3E7CCC;}
</style>
<path class="st0" d="M218.7,410c-0.4-0.4-1.1-0.4-1.5,0c-0.4,0.4-0.4,1.1,0,1.5l1.7,1.6c0.2,0.2,0.5,0.3,0.8,0.3h0
	c0.3,0,0.6-0.1,0.8-0.3l5.1-5.3c0.4-0.4,0.4-1.1,0-1.5c-0.4-0.4-1.1-0.4-1.5,0l-4.4,4.5L218.7,410z"/>
<path class="st0" d="M226.5,396.6c2.5,0,4.5-2,4.5-4.3v-11.4c0-2.4-2-4.3-4.5-4.3h-42.7c-2.5,0-4.5,2-4.5,4.3v2.9
	c-2.5,0.1-4.4,2.1-4.4,4.5v25.1c0,2.5,2,4.5,4.5,4.5h13.7l-0.5,2.3h-2.1c-1.8,0-3.2,1.4-3.2,3.2c0,1.8,1.4,3.2,3.2,3.2h16.1
	c1.8,0,3.2-1.4,3.2-3.2c0-1.8-1.4-3.2-3.2-3.2h-2.1l-0.5-2.3h10.6c0.5,0.6,1,1.2,1.7,1.8c0.3,0.3,1.1,1,2,1.6
	c1.6,1.3,2.2,1.5,2.7,1.5c0,0,0.1,0,0.2,0c0.5,0,1.7-0.2,4.2-2.6c1.6-1.5,3-3.2,3.8-4.5c2.2-4,2-9.7,1.7-12.8c0-0.4-0.3-0.8-0.7-0.9
	l-7.9-3.1v-2.4H226.5z M207.7,423.3c0,0.5-0.4,1-1,1h-16.1c-0.5,0-1-0.4-1-1c0-0.5,0.4-1,1-1h2.9c0,0,0,0,0,0c0,0,0,0,0,0h10.2
	c0,0,0,0,0,0c0,0,0,0,0,0h2.9C207.2,422.3,207.7,422.8,207.7,423.3z M202.4,420.1h-7.5l0.5-2.3h6.4L202.4,420.1z M227.2,414.7
	c-0.6,1-1.8,2.5-3.2,3.8c-1.6,1.5-2.6,2-2.9,2.1c-0.7-0.3-2.7-1.9-3.3-2.5c-2.7-2.5-4.1-5.4-4.2-8.4c-0.1-1.4-0.1-4.4,0-6l7.6-2.9
	l7.5,2.9C229.1,408.3,228.5,412.3,227.2,414.7z M220.1,398.9l-7.9,3c-0.4,0.1-0.6,0.5-0.7,0.9c-0.2,1.5-0.1,5.6-0.1,7
	c0,0.2,0,0.4,0.1,0.6H203c-0.6,0-1.1,0.5-1.1,1.1c0,0.6,0.5,1.1,1.1,1.1h8.9c0.3,1,0.7,2.1,1.3,3h-33.6c-1.3,0-2.4-1.1-2.4-2.4v-0.7
	h17.2c0.6,0,1.1-0.5,1.1-1.1s-0.5-1.1-1.1-1.1h-17.2v-22.2c0-1.3,1-2.3,2.2-2.3v6.3c0,2.4,2,4.3,4.5,4.3H203c0.6,0,1.1-0.5,1.1-1.1
	c0-0.6-0.5-1.1-1.1-1.1h-19.2c-1.3,0-2.3-1-2.3-2.2v-11.4c0-1.2,1-2.2,2.3-2.2h42.7c1.3,0,2.3,1,2.3,2.2v11.4c0,1.2-1,2.2-2.3,2.2
	h-14.8c-0.6,0-1.1,0.5-1.1,1.1c0,0.6,0.5,1.1,1.1,1.1h8.3L220.1,398.9L220.1,398.9z"/>
<path class="st0" d="M215.2,388.5c-0.3,0-0.5,0.1-0.8,0.3c-0.2,0.2-0.3,0.5-0.3,0.8c0,0.3,0.1,0.5,0.3,0.8l0,0
	c0.2,0.2,0.5,0.3,0.8,0.3c0.3,0,0.5-0.1,0.7-0.3c0.2-0.2,0.3-0.5,0.3-0.7c0-0.3-0.1-0.6-0.3-0.8
	C215.7,388.6,215.5,388.5,215.2,388.5z"/>
<path class="st0" d="M221.2,389.7c0,1.2,1.6,1.5,2,0.5l3-7.5c0-0.1,0.1-0.2,0.1-0.3c0-0.5-0.3-1-0.8-1.1c-0.5-0.1-1,0.2-1.1,0.6
	l-3,7.5C221.3,389.5,221.2,389.6,221.2,389.7z"/>
<path class="st0" d="M212.1,388.4c0-0.7-0.3-1.2-0.9-1.6c-0.4-0.2-0.8-0.4-1.3-0.5c-0.2,0-0.6-0.2-0.7-0.2c0,0-0.1-0.1-0.1-0.1
	c0-0.1,0-0.1,0.1-0.2c0.1-0.1,0.2-0.1,0.4-0.1c0.1,0,0.3,0,0.4,0.1l0.2,0.1c0.2,0.1,0.4,0.1,0.5,0.1c0.2,0,0.4-0.1,0.6-0.3
	c0.2-0.2,0.2-0.4,0.2-0.6c0-0.4-0.3-0.7-0.6-0.8c-0.4-0.2-0.9-0.3-1.3-0.3c-0.7,0-1.3,0.2-1.8,0.6c-0.5,0.4-0.7,0.9-0.7,1.6
	c0,0.6,0.2,1.1,0.7,1.4c0.3,0.2,0.9,0.4,1.2,0.5c0.2,0.1,0.5,0.1,0.7,0.2c0.1,0,0.1,0.1,0.2,0.1c0,0.1,0,0.1,0,0.2
	c0,0.1-0.1,0.2-0.2,0.3c-0.1,0.1-0.3,0.1-0.5,0.1c-0.3,0-0.6-0.1-0.8-0.2c-0.2-0.1-0.5-0.2-0.7-0.2c-0.2,0-0.4,0.1-0.6,0.3
	c-0.2,0.2-0.2,0.4-0.2,0.6v0c0,0.4,0.3,0.7,0.7,0.9c0.5,0.2,1,0.3,1.5,0.3c0.7,0,1.3-0.2,1.9-0.6C211.9,389.6,212.1,389,212.1,388.4
	z"/>
<path class="st0" d="M194,384.2h-0.4l0-0.9c0-0.3-0.1-0.5-0.3-0.7c-0.2-0.2-0.4-0.3-0.7-0.3c-0.3,0-0.5,0.1-0.7,0.3
	c-0.2,0.2-0.3,0.4-0.3,0.7v0.9h-0.2c-0.2,0-0.5,0.1-0.6,0.2c-0.2,0.2-0.3,0.4-0.3,0.6c0,0.2,0.1,0.4,0.3,0.6
	c0.2,0.2,0.4,0.3,0.6,0.3h0.2v3.6c0,0.1,0,0.3,0.1,0.4c0,0.1,0.1,0.2,0.2,0.3c0.2,0.2,0.4,0.3,0.7,0.3c0.3,0,0.5-0.1,0.7-0.3
	c0.2-0.2,0.3-0.4,0.3-0.7l0-3.6h0.4c0.2,0,0.5-0.1,0.6-0.3c0.2-0.2,0.3-0.4,0.3-0.6c0-0.2-0.1-0.5-0.3-0.6
	C194.5,384.3,194.3,384.2,194,384.2z"/>
<path class="st0" d="M186.4,384.4v-1.9c0-0.3-0.1-0.5-0.3-0.7c-0.2-0.2-0.4-0.3-0.7-0.3c-0.3,0-0.5,0.1-0.7,0.3
	c-0.2,0.2-0.3,0.4-0.3,0.7v7.1c0,0.3,0.1,0.5,0.3,0.7c0.2,0.2,0.4,0.3,0.7,0.3c0.3,0,0.5-0.1,0.7-0.3c0.2-0.2,0.3-0.4,0.3-0.7v-2.9
	c0-0.2,0.1-0.5,0.3-0.6c0.2-0.2,0.4-0.3,0.6-0.3c0.2,0,0.4,0.1,0.6,0.3c0.2,0.2,0.3,0.4,0.3,0.6v2.9c0,0.3,0.1,0.5,0.3,0.7
	c0.2,0.2,0.4,0.3,0.7,0.3c0.3,0,0.5-0.1,0.7-0.3c0.2-0.2,0.3-0.4,0.3-0.7v-3.2C190.1,384.3,188.1,383.4,186.4,384.4z"/>
<path class="st0" d="M206.4,386.1c-0.1-0.2-0.1-0.3-0.2-0.5c-0.1-0.2-0.3-0.4-0.5-0.6c-0.6-0.6-1.3-0.9-2.1-0.9
	c-0.5,0-1.1,0.1-1.5,0.4c-0.2-0.4-0.7-0.5-1.1-0.4c-0.4,0.1-0.6,0.6-0.6,1v6.9c0,0.3,0.1,0.5,0.3,0.7c0.2,0.2,0.4,0.3,0.7,0.3
	c0.3,0,0.5-0.1,0.7-0.3c0.2-0.2,0.3-0.4,0.3-0.7v-2.2c0.4,0.2,0.9,0.3,1.3,0.3c0.8,0,1.5-0.3,2.1-0.9c0.6-0.6,0.9-1.3,0.9-2.1
	C206.5,386.8,206.5,386.4,206.4,386.1z M203.5,388.2c-0.6,0-1.2-0.5-1.2-1.2c0-0.6,0.5-1.2,1.2-1.2c0.6,0,1.2,0.5,1.2,1.2
	C204.7,387.7,204.2,388.2,203.5,388.2z"/>
<path class="st0" d="M198.6,384.2h-0.4l0-0.9c0-0.3-0.1-0.5-0.3-0.7c-0.2-0.2-0.4-0.3-0.7-0.3c-0.3,0-0.5,0.1-0.7,0.3
	c-0.2,0.2-0.3,0.4-0.3,0.7v0.9h-0.2c-0.2,0-0.5,0.1-0.6,0.2c-0.2,0.2-0.3,0.4-0.3,0.6c0,0.2,0.1,0.4,0.3,0.6
	c0.2,0.2,0.4,0.3,0.7,0.3h0.2v3.6c0,0.1,0,0.3,0.1,0.4c0,0.1,0.1,0.2,0.2,0.3c0.2,0.2,0.4,0.3,0.7,0.3c0.3,0,0.5-0.1,0.7-0.3
	c0.2-0.2,0.3-0.4,0.3-0.7l0-3.6h0.4c0.2,0,0.5-0.1,0.6-0.3c0.2-0.2,0.3-0.4,0.3-0.6c0-0.2-0.1-0.5-0.3-0.6
	C199.1,384.3,198.9,384.2,198.6,384.2z"/>
<path class="st0" d="M219.3,389.9l3-7.5c0-0.1,0.1-0.2,0.1-0.3c0-0.5-0.3-1-0.8-1.1c-0.5-0.1-1,0.2-1.1,0.6l-3,7.5
	c0,0.1-0.1,0.2-0.1,0.3C217.3,390.7,218.9,390.9,219.3,389.9z"/>
<path class="st0" d="M215.2,387c0.3,0,0.5-0.1,0.8-0.3c0.2-0.2,0.3-0.5,0.3-0.8c0-0.3-0.1-0.5-0.3-0.7c-0.2-0.2-0.5-0.3-0.7-0.3
	c-0.3,0-0.5,0.1-0.8,0.3c-0.2,0.2-0.3,0.5-0.3,0.8c0,0.3,0.1,0.6,0.3,0.8C214.6,386.9,214.9,387,215.2,387z"/>
<path class="st0" d="M207.4,394.4L207.4,394.4c-0.6,0-1.1,0.5-1.1,1.1c0,0.6,0.5,1.1,1.1,1.1h0c0.6,0,1.1-0.5,1.1-1.1
	S208,394.4,207.4,394.4z"/>
<path class="st0" d="M198.6,410.5L198.6,410.5c-0.6,0-1.1,0.5-1.1,1.1c0,0.6,0.5,1.1,1.1,1.1h0c0.6,0,1.1-0.5,1.1-1.1
	C199.7,410.9,199.2,410.5,198.6,410.5z"/>
</svg>
