<?xml version="1.0" encoding="utf-8"?>
<!-- Generator: Adobe Illustrator 23.0.3, SVG Export Plug-In . SVG Version: 6.00 Build 0)  -->
<svg version="1.1" id="Capa_1" xmlns="http://www.w3.org/2000/svg" xmlns:xlink="http://www.w3.org/1999/xlink" x="0px" y="0px"
	 viewBox="239.7 315.5 52.7 50" style="enable-background:new 239.7 315.5 52.7 50;" xml:space="preserve">
<style type="text/css">
	.st0{fill:#3E7CCC;}
</style>
<g>
	<path class="st0" d="M288.8,315.5h-45.6c-1.9,0-3.5,1.6-3.5,3.5v4.4c0,0.5,0.4,0.9,0.9,0.9h22.8c0.5,0,0.9-0.3,0.9-0.8
		c0-0.5-0.4-1-0.9-1h-21.9V319c0-1,0.8-1.8,1.8-1.8h45.6c1,0,1.8,0.8,1.8,1.8v3.5h-27.3c-0.5,0-0.9,0.4-0.9,0.9s0.4,0.9,0.9,0.9
		h28.1c0.5,0,0.9-0.4,0.9-0.9V319C292.3,317.1,290.8,315.5,288.8,315.5z"/>
	<path class="st0" d="M291.5,320.7c-0.5,0-0.9,0.4-0.9,0.9V362c0,1-0.8,1.8-1.8,1.8h-45.6c-1,0-1.8-0.8-1.8-1.8v-40.4
		c0-0.5-0.4-0.9-0.9-0.9s-0.9,0.4-0.9,0.9V362c0,1.9,1.6,3.5,3.5,3.5h45.6c1.9,0,3.5-1.6,3.5-3.5v-40.4
		C292.3,321.1,291.9,320.7,291.5,320.7z"/>
	<g>
		<path class="st0" d="M244.1,319c-0.5,0-0.9,0.4-0.9,0.9c0,0.5,0.4,0.9,0.9,0.9h0.9c0.5,0,0.9-0.4,0.9-0.9c0-0.5-0.4-0.9-0.9-0.9
			H244.1z"/>
		<path class="st0" d="M248.4,319c-0.5,0-0.9,0.4-0.9,0.9c0,0.5,0.4,0.9,0.9,0.9h0.9c0.5,0,0.9-0.4,0.9-0.9c0-0.5-0.4-0.9-0.9-0.9
			H248.4z"/>
		<path class="st0" d="M252.8,319c-0.5,0-0.9,0.4-0.9,0.9c0,0.5,0.4,0.9,0.9,0.9h0.9c0.5,0,0.9-0.4,0.9-0.9s-0.4-0.9-0.9-0.9
			L252.8,319L252.8,319z"/>
	</g>
	<path class="st0" d="M253,336.5c-0.9,0-1.7,0.7-1.7,1.7v19c0,0.9,0.7,1.7,1.7,1.7h26c0.9,0,1.7-0.7,1.7-1.7v-19
		c0-0.9-0.7-1.7-1.7-1.7h-9.5v-1.4h2.1c0.3,0,0.6-0.2,0.7-0.5c0.1-0.3,0-0.6-0.2-0.8l-5.6-4.9c-0.3-0.2-0.7-0.2-0.9,0l-5.6,4.9
		c-0.2,0.2-0.3,0.5-0.2,0.8c0.1,0.3,0.4,0.5,0.7,0.5h2.1v1.4H253z M263.2,333.7h-0.9l3.7-3.3l3.7,3.3h-0.9c-0.4,0-0.7,0.3-0.7,0.7
		v5.6c0,0.4,0.3,0.7,0.7,0.7s0.7-0.3,0.7-0.7v-2.1h9.5c0.1,0,0.1,0,0.2,0.1c0,0,0.1,0.1,0.1,0.2v19c0,0.1,0,0.1-0.1,0.2
		c0,0-0.1,0.1-0.2,0.1h-26c-0.1,0-0.1,0-0.2-0.1c0,0-0.1-0.1-0.1-0.2v-19c0-0.1,0-0.1,0.1-0.2c0,0,0.1-0.1,0.2-0.1h9.5v2.1
		c0,0.4,0.3,0.7,0.7,0.7c0.4,0,0.7-0.3,0.7-0.7v-5.6C263.9,334,263.6,333.7,263.2,333.7z"/>
	<path class="st0" d="M254.3,339.6c-0.2,0.3-0.2,0.7,0.1,1l10.3,8.1c0.8,0.6,1.9,0.6,2.7,0l10.3-8.1c0.2-0.2,0.3-0.4,0.3-0.7
		c0-0.2-0.2-0.5-0.4-0.6c-0.2-0.1-0.5-0.1-0.7,0.1l-10.3,8.1c-0.3,0.2-0.7,0.2-1,0l-10.3-8.1C255,339.2,254.5,339.3,254.3,339.6z"/>
	<path class="st0" d="M261.3,349.1c-0.2-0.1-0.5,0-0.7,0.2l-6.3,5.6c-0.2,0.2-0.3,0.4-0.2,0.7c0,0.3,0.2,0.5,0.5,0.5s0.5,0,0.7-0.2
		l6.3-5.6c0.2-0.2,0.3-0.4,0.2-0.7C261.8,349.4,261.6,349.2,261.3,349.1z"/>
	<path class="st0" d="M277.6,354.8l-6.3-5.6c-0.3-0.2-0.7-0.2-1,0.1c-0.3,0.3-0.2,0.7,0,1l6.3,5.6c0.2,0.2,0.5,0.2,0.7,0.2
		c0.2-0.1,0.4-0.3,0.5-0.5C277.9,355.3,277.8,355,277.6,354.8z"/>
</g>
</svg>
