<?xml version="1.0" encoding="utf-8"?>
<!-- Generator: Adobe Illustrator 23.0.3, SVG Export Plug-In . SVG Version: 6.00 Build 0)  -->
<svg version="1.1" id="Capa_1" xmlns="http://www.w3.org/2000/svg" xmlns:xlink="http://www.w3.org/1999/xlink" x="0px" y="0px"
	 viewBox="179.1 379.5 47.1 50" style="enable-background:new 179.1 379.5 47.1 50;" xml:space="preserve">
<style type="text/css">
	.st0{fill:#3E7CCC;}
</style>
<g>
	<path class="st0" d="M201.1,405.8c0.2,0.3,0.7,0.3,1,0.1l3.4-2.8c0.3-0.2,0.3-0.7,0.1-1c-0.2-0.3-0.7-0.3-1-0.1l-2.9,2.4l-1-1.2
		c-0.2-0.3-0.7-0.3-1-0.1c-0.3,0.2-0.3,0.7-0.1,1L201.1,405.8z"/>
	<path class="st0" d="M202.6,410.3c3.5,0,6.4-2.9,6.4-6.4c0-1.7-0.6-3.2-1.8-4.4v-4.4c0-2.5-2-4.5-4.5-4.5c-2.5,0-4.5,2-4.5,4.5v4.3
		c-1.9,1.8-2.4,4.6-1.4,7C197.6,408.8,200,410.3,202.6,410.3z M199.5,395.1c0-1.8,1.4-3.2,3.2-3.2s3.2,1.4,3.2,3.2v3.3
		c-2-1.1-4.4-1.2-6.4-0.1V395.1z M202.6,398.9c2.8,0,5,2.2,5,5c0,2.8-2.2,5-5,5c-2.8,0-5-2.2-5-5c0-1.3,0.5-2.6,1.5-3.6
		C200,399.4,201.2,398.9,202.6,398.9z"/>
	<path class="st0" d="M207,379.7C207,379.7,207,379.7,207,379.7c-0.1-0.2-0.3-0.2-0.5-0.2c0,0-0.1,0-0.1,0l0,0c0,0,0,0-0.1,0h-13.8
		c-2.4,0-4.3,1.9-4.3,4.3v10.5l-7.7,4.7c-0.9,0.5-1.4,1.5-1.4,2.5v22.2c0,3.2,2.6,5.8,5.8,5.8h35.5c3.2,0,5.8-2.6,5.8-5.8v-22.2
		c0-1-0.5-2-1.4-2.5l-7.5-4.6c0,0,0,0-0.1,0l-0.2-0.1v-3.2c0-0.2-0.1-0.3-0.2-0.5 M224,400.2c0.5,0.3,0.8,0.8,0.8,1.4v1.3l-7.8,4.7
		v-11.7L224,400.2z M207.2,382l6.6,7.3h-3.6c-1.6,0-2.9-1.3-2.9-2.9V382z M192.5,380.9h13.3v5.5c0,2.4,1.9,4.3,4.3,4.3h4.9l0.6,0.7
		v17l-13,8l-13-8v-24.6C189.6,382.2,190.9,380.9,192.5,380.9z M181.2,400.2l7-4.2v11.6l-7.8-4.7v-1.3
		C180.4,401,180.7,400.4,181.2,400.2z M220.3,428.1h-35.5c-2.4,0-4.4-2-4.4-4.4v-19.3l8,4.9c0.1,0.1,0.2,0.1,0.3,0.2l13.6,8.3
		c0.2,0.1,0.5,0.1,0.7,0l13.6-8.3c0.1,0,0.2-0.1,0.3-0.2l8-4.9v19.3C224.7,426.2,222.8,428.1,220.3,428.1z"/>
</g>
</svg>
