<?xml version="1.0" encoding="utf-8"?>
<!-- Generator: Adobe Illustrator 23.0.3, SVG Export Plug-In . SVG Version: 6.00 Build 0)  -->
<svg version="1.1" id="Capa_1" xmlns="http://www.w3.org/2000/svg" xmlns:xlink="http://www.w3.org/1999/xlink" x="0px" y="0px"
	 viewBox="164.5 312.6 53.6 50" style="enable-background:new 164.5 312.6 53.6 50;" xml:space="preserve">
<style type="text/css">
	.st0{fill:#3E7CCC;}
</style>
<path class="st0" d="M215.4,336.7v-19.6c0-2.5-2-4.5-4.5-4.5h-39.3c-2.5,0-4.5,2-4.5,4.5v13.4c-1.5,0-2.7,1.2-2.7,2.7V360
	c0,1.5,1.2,2.7,2.7,2.7h19.6c1.5,0,2.7-1.2,2.7-2.7h7.5c0.8,0,1.6-0.4,2.1-1.1c0.5-0.7,0.7-1.5,0.5-2.3l-1.8-6.4h5.1v9.8
	c0,1.5,1.2,2.7,2.7,2.7h9.8c1.5,0,2.7-1.2,2.7-2.7v-20.5C218.1,337.9,216.9,336.7,215.4,336.7z M188.4,360.6c0,0.5-1.1,0.9-1.6,0.9
	h-20.3c-0.5,0-0.9-0.4-0.9-0.9v-3.1h22.8V360.6z M188.4,356.4h-22.8v-19.6h22.8V356.4z M188.4,335.6h-22.8v-2.5
	c0-0.5,0.4-1.6,0.9-1.6h21c0.5,0,0.9,1.1,0.9,1.6V335.6z M197.9,357c0.1,0.3,0,1.2-0.2,1.4c-0.2,0.2-0.4,0.4-0.7,0.4h-7.5v-2.5h8.2
	L197.9,357z M189.5,355.3v-5.1h6.5l1.2,5.1H189.5z M202.9,349h-13.4v-6.7h13.4V349z M202.9,339.4v1.8h-13.4v-8
	c0-1.5-1.2-2.7-2.7-2.7h-18.5v-13.4c0-1.5,1.2-3.3,2.7-3.3h40c1.5,0,3.3,1.9,3.3,3.3v19.6h-8.7C204.1,336.7,202.9,337.9,202.9,339.4
	z M217,360.6c0,0.5-1.1,0.9-1.6,0.9h-10.5c-0.5,0-0.9-0.4-0.9-0.9v-3.1H217V360.6z M217,356.4h-12.9V343H217V356.4z M217,341.9
	h-12.9v-3.1c0-0.5,0.4-0.9,0.9-0.9h11.2c0.5,0,0.9,0.4,0.9,0.9V341.9z"/>
<rect x="169.2" y="347.4" transform="matrix(0.7071 -0.7071 0.7071 0.7071 -196.0282 223.4303)" class="st0" width="5.1" height="1.8"/>
<rect x="171.3" y="346.6" transform="matrix(0.7071 -0.7071 0.7071 0.7071 -193.305 228.2196)" class="st0" width="15.2" height="1.8"/>
<rect x="174.2" y="341.2" transform="matrix(0.7071 -0.7071 0.7071 0.7071 -189.7793 226.0189)" class="st0" width="7.6" height="1.8"/>
<rect x="206.5" y="347" transform="matrix(0.7071 -0.7071 0.7071 0.7071 -184.5994 250.1277)" class="st0" width="6.3" height="1.8"/>
<rect x="208.3" y="350.6" transform="matrix(0.7071 -0.7071 0.7071 0.7071 -186.6054 252.4409)" class="st0" width="6.3" height="1.8"/>
<rect x="187.5" y="325.1" transform="matrix(0.7071 -0.7071 0.7071 0.7071 -174.4924 230.7819)" class="st0" width="7.6" height="1.8"/>
<rect x="195.6" y="323.3" transform="matrix(0.7071 -0.7071 0.7071 0.7071 -170.8765 235.9434)" class="st0" width="7.6" height="1.8"/>
<rect x="190.6" y="329.6" transform="matrix(0.7071 -0.7071 0.7071 0.7071 -177.1276 233.3556)" class="st0" width="5.1" height="1.8"/>
<rect x="195" y="318.9" transform="matrix(0.7071 -0.7071 0.7071 0.7071 -168.2481 233.3754)" class="st0" width="5.1" height="1.8"/>
<rect x="170.8" y="316.2" class="st0" width="1.8" height="1.8"/>
<rect x="174.4" y="316.2" class="st0" width="1.8" height="1.8"/>
<rect x="177.9" y="316.2" class="st0" width="1.8" height="1.8"/>
</svg>
