<?xml version="1.0" encoding="utf-8"?>
<!-- Generator: Adobe Illustrator 23.0.3, SVG Export Plug-In . SVG Version: 6.00 Build 0)  -->
<svg version="1.1" id="Capa_1" xmlns="http://www.w3.org/2000/svg" xmlns:xlink="http://www.w3.org/1999/xlink" x="0px" y="0px"
	 viewBox="202 385 38.7 50" style="enable-background:new 202 385 38.7 50;" xml:space="preserve">
<style type="text/css">
	.st0{fill:#3E7CCC;}
</style>
<g>
	<path class="st0" d="M221.4,389c-4.4,0-8.1,3.6-8.1,8.1s3.6,8.1,8.1,8.1c4.4,0,8.1-3.6,8.1-8.1S225.8,389,221.4,389z M221.4,403.5
		c-3.6,0-6.5-2.9-6.5-6.5s2.9-6.5,6.5-6.5c3.6,0,6.5,2.9,6.5,6.5S224.9,403.5,221.4,403.5z"/>
	<path class="st0" d="M220.6,392.3h1.6v6.5h-1.6V392.3z"/>
	<path class="st0" d="M220.6,400.3h1.6v1.6h-1.6V400.3z"/>
	<path class="st0" d="M233.5,395.1V385h-24.2v10.1l-7.3,7.3v20.5h6.5v5.6h1.6v-7.3h-5.3l10.9-10.9l5.7,4.7l5.7-4.7l10.9,10.9h-5.3
		v7.3h1.6v-5.6h6.5v-20.5L233.5,395.1z M238,401.9h-3.2l-1.3,1.1v-5.6L238,401.9z M209.3,403l-1.3-1.1h-3.2l4.5-4.5V403z
		 M203.6,420.1v-16.6h3.7l1.9,1.6v0h0.1l5.1,4.2L203.6,420.1z M210.9,404.4v-17.7h21v17.7l-10.5,8.6L210.9,404.4z M233.4,405.2
		L233.4,405.2L233.4,405.2l2-1.6h3.7v16.6l-10.8-10.8L233.4,405.2z"/>
	<path class="st0" d="M208.5,430.2h1.6v1.6h-1.6V430.2z"/>
	<path class="st0" d="M208.5,433.4h1.6v1.6h-1.6V433.4z"/>
	<path class="st0" d="M232.7,430.2h1.6v1.6h-1.6V430.2z"/>
	<path class="st0" d="M232.7,433.4h1.6v1.6h-1.6V433.4z"/>
	<path class="st0" d="M211.7,416.5h1.6v1.6h-1.6V416.5z"/>
	<path class="st0" d="M211.7,419.7h1.6v1.6h-1.6V419.7z"/>
	<path class="st0" d="M211.7,422.9h1.6V435h-1.6V422.9z"/>
	<path class="st0" d="M214.9,416.5h1.6v7.3h-1.6V416.5z"/>
	<path class="st0" d="M214.9,425.3h1.6v1.6h-1.6V425.3z"/>
	<path class="st0" d="M214.9,428.5h1.6v1.6h-1.6V428.5z"/>
	<path class="st0" d="M218.2,416.5h1.6v1.6h-1.6V416.5z"/>
	<path class="st0" d="M218.2,419.7h1.6v1.6h-1.6V419.7z"/>
	<path class="st0" d="M218.2,422.9h1.6V435h-1.6V422.9z"/>
	<path class="st0" d="M223,416.5h1.6v1.6H223V416.5z"/>
	<path class="st0" d="M223,419.7h1.6v1.6H223V419.7z"/>
	<path class="st0" d="M223,422.9h1.6V435H223V422.9z"/>
	<path class="st0" d="M226.2,416.5h1.6v7.3h-1.6V416.5z"/>
	<path class="st0" d="M226.2,425.3h1.6v1.6h-1.6V425.3z"/>
	<path class="st0" d="M226.2,428.5h1.6v1.6h-1.6V428.5z"/>
	<path class="st0" d="M229.4,416.5h1.6v1.6h-1.6V416.5z"/>
	<path class="st0" d="M229.4,419.7h1.6v1.6h-1.6V419.7z"/>
	<path class="st0" d="M229.4,422.9h1.6V435h-1.6V422.9z"/>
</g>
</svg>
