<?xml version="1.0" encoding="utf-8"?>
<!-- Generator: Adobe Illustrator 23.0.3, SVG Export Plug-In . SVG Version: 6.00 Build 0)  -->
<svg version="1.1" id="Capa_1" xmlns="http://www.w3.org/2000/svg" xmlns:xlink="http://www.w3.org/1999/xlink" x="0px" y="0px"
	 viewBox="175 365 64 64" style="enable-background:new 175 365 64 64;" xml:space="preserve">
<style type="text/css">
	.st0{fill:#FFFFFF;}
</style>
<g>
	<path class="st0" d="M234.9,419.7v-35.1h-8.3v35.1h-4.1v-28.9h-8.3v28.9h-4.1V397h-8.3v22.7h-4.1v-16.5h-8.3v16.5h-4.1V365h-2.1
		v5.2h-2.1v2.1h2.1v6.2h-2.1v2.1h2.1v6.2h-2.1v2.1h2.1v6.2h-2.1v2h2.1v6.2h-2.1v2.1h2.1v6.2h-2.1v2.1h2.1v6.2H175v2.1h8.3v7.2h2.1
		v-7.2h4.1h8.3h4.1h8.3h4.1h8.3h4.1h8.3h4.1v-2.1L234.9,419.7L234.9,419.7z M191.5,419.7v-14.5h4.1v14.5L191.5,419.7L191.5,419.7z
		 M203.9,419.7v-20.6h4.1v20.6H203.9z M216.3,419.7v-26.8h4.1v26.8H216.3z M228.7,419.7v-33h4.1v33H228.7L228.7,419.7z"/>
	<polygon class="st0" points="203.4,383.4 205.5,389.6 217.8,377.3 219.9,384.5 232.8,371.6 232.8,375.3 234.9,375.3 234.9,368.1 
		227.6,368.1 227.6,370.2 231.4,370.2 220.9,380.6 218.9,373.4 206.4,385.8 204.4,379.6 188.7,395.2 190.2,396.7 	"/>
</g>
</svg>
