<?xml version="1.0" encoding="utf-8"?>
<!-- Generator: Adobe Illustrator 23.0.3, SVG Export Plug-In . SVG Version: 6.00 Build 0)  -->
<svg version="1.1" id="Capa_1" xmlns="http://www.w3.org/2000/svg" xmlns:xlink="http://www.w3.org/1999/xlink" x="0px" y="0px"
	 viewBox="175 365 64 64" style="enable-background:new 175 365 64 64;" xml:space="preserve">
<style type="text/css">
	.st0{fill:#FFFFFF;}
</style>
<g>
	<rect x="206" y="421.8" class="st0" width="2.1" height="2.1"/>
	<path class="st0" d="M239,379.5V365h-64v14.5h31v3.1h-31V397h31v3.1h-31v14.5h31v2.1h-5.2v5.2h-19.6v2.1h19.6v5.2h12.4v-5.2h19.6
		v-2.1h-19.6v-5.2H208v-2.1h31v-14.5h-31V397h31v-14.5h-31v-3.1H239z M211.1,418.7v8.3h-8.3v-8.3H211.1z M236.9,402.2v10.3h-59.9
		v-10.3H236.9z M236.9,384.6v10.3h-59.9v-10.3H236.9z M177.1,377.4v-10.3h59.9v10.3H177.1z"/>
	<rect x="181.2" y="371.2" class="st0" width="25.8" height="2.1"/>
	<rect x="230.7" y="371.2" class="st0" width="2.1" height="2.1"/>
	<rect x="226.6" y="371.2" class="st0" width="2.1" height="2.1"/>
	<rect x="222.5" y="371.2" class="st0" width="2.1" height="2.1"/>
	<rect x="181.2" y="388.7" class="st0" width="25.8" height="2.1"/>
	<rect x="230.7" y="388.7" class="st0" width="2.1" height="2.1"/>
	<rect x="226.6" y="388.7" class="st0" width="2.1" height="2.1"/>
	<rect x="222.5" y="388.7" class="st0" width="2.1" height="2.1"/>
	<rect x="181.2" y="406.3" class="st0" width="25.8" height="2.1"/>
	<rect x="230.7" y="406.3" class="st0" width="2.1" height="2.1"/>
	<rect x="226.6" y="406.3" class="st0" width="2.1" height="2.1"/>
	<rect x="222.5" y="406.3" class="st0" width="2.1" height="2.1"/>
</g>
</svg>
