<?xml version="1.0" encoding="utf-8"?>
<!-- Generator: Adobe Illustrator 23.0.3, SVG Export Plug-In . SVG Version: 6.00 Build 0)  -->
<svg version="1.1" id="Capa_1" xmlns="http://www.w3.org/2000/svg" xmlns:xlink="http://www.w3.org/1999/xlink" x="0px" y="0px"
	 viewBox="175 367 64 60" style="enable-background:new 175 367 64 60;" xml:space="preserve">
<style type="text/css">
	.st0{fill:#FFFFFF;}
</style>
<path class="st0" d="M189.4,388.3c-0.1,0.1-0.1,0.3-0.2,0.4h-0.8c-1.1,0-2.1,0.9-2.1,2.1v4.1c0,1.1,0.9,2.1,2.1,2.1h0.8
	c0.1,0.1,0.1,0.3,0.2,0.4l-0.6,0.6c-0.8,0.8-0.8,2.1,0,2.9l2.9,2.9c0.8,0.8,2.1,0.8,2.9,0l0.6-0.6c0.1,0.1,0.3,0.1,0.4,0.2v0.8
	c0,1.1,0.9,2.1,2.1,2.1h4.1c1.1,0,2.1-0.9,2.1-2.1v-0.8c0.1-0.1,0.3-0.1,0.4-0.2l0.6,0.6c0.8,0.8,2.1,0.8,2.9,0l2.9-2.9
	c0.8-0.8,0.8-2.1,0-2.9l-0.6-0.6c0.1-0.1,0.1-0.3,0.2-0.4h0.8c1.1,0,2.1-0.9,2.1-2.1v-4.1c0-1.1-0.9-2.1-2.1-2.1h-0.8
	c-0.1-0.1-0.1-0.3-0.2-0.4l0.6-0.6c0.8-0.8,0.8-2.1,0-2.9l-2.9-2.9c-0.8-0.8-2.1-0.8-2.9,0l-0.6,0.6c-0.1-0.1-0.3-0.1-0.4-0.2v-0.8
	c0-1.1-0.9-2.1-2.1-2.1h-4.1c-1.1,0-2.1,0.9-2.1,2.1v0.8c-0.1,0.1-0.3,0.1-0.4,0.2l-0.6-0.6c-0.8-0.8-2.1-0.8-2.9,0l-2.9,2.9
	c-0.8,0.8-0.8,2.1,0,2.9L189.4,388.3z M193.2,383.3l1.6,1.6l0.7-0.4c0.5-0.3,1-0.5,1.5-0.6l0.7-0.2v-2.3h4.1v2.3l0.7,0.2
	c0.5,0.2,1,0.4,1.5,0.6l0.7,0.4l1.6-1.6l2.9,2.9l-1.6,1.6l0.4,0.7c0.3,0.5,0.5,1,0.6,1.5l0.2,0.7h2.3v4.1h-2.3l-0.2,0.7
	c-0.2,0.5-0.4,1-0.6,1.5l-0.4,0.7l1.6,1.6l-2.9,2.9l-1.6-1.6l-0.7,0.4c-0.5,0.3-1,0.5-1.5,0.6l-0.7,0.2v2.3h-4.1v-2.3l-0.7-0.2
	c-0.5-0.2-1-0.4-1.5-0.6l-0.7-0.4l-1.6,1.6l-2.9-2.9l1.6-1.6l-0.4-0.7c-0.3-0.5-0.5-1-0.6-1.5l-0.2-0.7h-2.3v-4.1h2.3l0.2-0.7
	c0.2-0.5,0.4-1,0.6-1.5l0.4-0.7l-1.6-1.6L193.2,383.3z"/>
<path class="st0" d="M199.8,400.1c4,0,7.2-3.2,7.2-7.2c0-4-3.2-7.2-7.2-7.2s-7.2,3.2-7.2,7.2C192.5,396.8,195.8,400.1,199.8,400.1z
	 M199.8,387.7c2.8,0,5.2,2.3,5.2,5.2c0,2.8-2.3,5.2-5.2,5.2s-5.2-2.3-5.2-5.2C194.6,390,196.9,387.7,199.8,387.7z"/>
<path class="st0" d="M218.4,380.4c2.3,0,4.1-1.9,4.1-4.1s-1.9-4.1-4.1-4.1c-2.3,0-4.1,1.9-4.1,4.1S216.1,380.4,218.4,380.4z
	 M218.4,374.2c1.1,0,2.1,0.9,2.1,2.1s-0.9,2.1-2.1,2.1c-1.1,0-2.1-0.9-2.1-2.1S217.2,374.2,218.4,374.2z"/>
<path class="st0" d="M239,418.6v-43.4h-11.4v-0.3c0-0.9-0.8-1.7-1.7-1.7h-0.1l0.1-0.1c0.3-0.3,0.5-0.8,0.5-1.2
	c0-0.5-0.2-0.9-0.5-1.2l-1.9-1.9c-0.7-0.7-1.8-0.7-2.4,0l-0.1,0.1v-0.1c0-0.9-0.8-1.7-1.7-1.7H217c-0.9,0-1.7,0.8-1.7,1.7v0.1
	l-0.1-0.1c-0.3-0.3-0.8-0.5-1.2-0.5l0,0c-0.5,0-0.9,0.2-1.2,0.5l-2,1.9c-0.3,0.3-0.5,0.8-0.5,1.2c0,0.5,0.2,0.9,0.5,1.2l0.1,0.1
	h-0.1c-0.9,0-1.7,0.8-1.7,1.7v0.3H175v43.4h19.6v6.3h-8.3v2.1h8.3h24.8h8.3v-2.1h-8.3v-6.3L239,418.6L239,418.6z M212.5,371.9
	l1.5-1.5l1,1l0.7-0.4c0.3-0.2,0.6-0.3,0.9-0.4l0.7-0.2v-1.4h2.1v1.4l0.7,0.2c0.3,0.1,0.6,0.2,0.9,0.4l0.7,0.4l1-1l1.5,1.5l-1,1
	l0.4,0.7c0.2,0.3,0.3,0.6,0.4,0.9l0.2,0.7h1.4v2.1h-1.4l-0.2,0.7c-0.1,0.3-0.2,0.6-0.4,0.9l-0.4,0.7l1,1l-1.5,1.5l-1-1l-0.7,0.4
	c-0.3,0.2-0.6,0.3-0.9,0.4l-0.7,0.2v1.4h-2.1v-1.4l-0.7-0.2c-0.3-0.1-0.6-0.2-0.9-0.4l-0.7-0.4l-1,1l-1.5-1.5l1-1l-0.4-0.7
	c-0.2-0.3-0.3-0.6-0.4-0.9l-0.2-0.7h-1.4v-2.1h1.4l0.2-0.7c0.1-0.3,0.2-0.6,0.4-0.9l0.4-0.7L212.5,371.9z M209.1,377.3v0.3
	c0,0.9,0.8,1.7,1.7,1.7h0.1l-0.1,0.1c-0.3,0.3-0.5,0.8-0.5,1.2c0,0.5,0.2,0.9,0.5,1.2l2,2c0.7,0.6,1.8,0.6,2.4,0l0.1-0.1v0.1
	c0,0.9,0.8,1.7,1.7,1.7h2.7c0.9,0,1.7-0.8,1.7-1.7v-0.1l0.1,0.1c0.7,0.7,1.8,0.7,2.4,0l1.9-1.9c0.3-0.3,0.5-0.8,0.5-1.2
	c0-0.5-0.2-0.9-0.5-1.2l-0.1-0.1h0.1c0.9,0,1.7-0.8,1.7-1.7v-0.3h9.3v31h-59.9v-31H209.1z M177.1,416.6v-6.2h59.9v6.2h-17.5h-24.8
	H177.1z M217.3,424.9h-20.6v-6.3h20.6L217.3,424.9L217.3,424.9z"/>
<rect x="206" y="412.4" class="st0" width="2.1" height="2.1"/>
<rect x="210.1" y="412.4" class="st0" width="2.1" height="2.1"/>
<rect x="201.8" y="412.4" class="st0" width="2.1" height="2.1"/>
<rect x="180.2" y="380.4" class="st0" width="7.2" height="2.1"/>
<rect x="180.2" y="384.6" class="st0" width="4.1" height="2.1"/>
<rect x="225.6" y="403.2" class="st0" width="7.2" height="2.1"/>
<rect x="228.7" y="399" class="st0" width="4.1" height="2.1"/>
</svg>
