<?xml version="1.0" encoding="utf-8"?>
<!-- Generator: Adobe Illustrator 23.0.3, SVG Export Plug-In . SVG Version: 6.00 Build 0)  -->
<svg version="1.1" id="Capa_1" xmlns="http://www.w3.org/2000/svg" xmlns:xlink="http://www.w3.org/1999/xlink" x="0px" y="0px"
	 viewBox="175 365 64 64" style="enable-background:new 175 365 64 64;" xml:space="preserve">
<style type="text/css">
	.st0{fill:#FFFFFF;}
</style>
<g>
	<path class="st0" d="M235.6,407.3c-0.4-1.9-1.2-3.8-2.3-5.4l2.4-2.4l-4.4-4.4l-2.4,2.4c-1.7-1.1-3.5-1.9-5.4-2.3v-3.4h-1V365H175
		v45.4h26.8v3.1h3.4c0.4,1.9,1.2,3.8,2.3,5.4l-2.4,2.4l4.4,4.4l2.4-2.4c1.7,1.1,3.5,1.9,5.4,2.3v3.4h6.2v-3.4
		c1.9-0.4,3.8-1.2,5.4-2.3l2.4,2.4l4.4-4.4l-2.4-2.4c1.1-1.7,1.9-3.5,2.3-5.4h3.4v-6.2H235.6z M177.1,367.1h43.4v6.2h-43.4V367.1z
		 M201.8,408.4h-24.8v0v-33h43.4v16.5h-3.1v3.4c-1.9,0.4-3.8,1.2-5.4,2.3l-2.4-2.4l-4.4,4.4l2.4,2.4c-1.1,1.7-1.9,3.5-2.3,5.4h-3.4
		V408.4z M236.9,411.5L236.9,411.5h-3.1l-0.1,0.9c-0.3,2.2-1.2,4.3-2.5,6.1l-0.5,0.7l2.2,2.2l-1.4,1.5l-2.2-2.2l-0.7,0.5
		c-1.8,1.3-3.9,2.2-6.1,2.5l-0.9,0.1v3.1h-2.1v-3.1l-0.9-0.1c-2.2-0.3-4.3-1.2-6.1-2.5l-0.7-0.5l-2.2,2.2l-1.5-1.5l2.2-2.2l-0.5-0.7
		c-1.3-1.8-2.2-3.9-2.5-6.1l-0.1-0.9h-3.1v-2.1h3.1l0.1-0.9c0.3-2.2,1.2-4.3,2.5-6.1l0.5-0.7l-2.2-2.2l1.5-1.5l2.2,2.2l0.7-0.5
		c1.8-1.3,3.9-2.2,6.1-2.5l0.9-0.1v-3.1h2.1v3.1l0.9,0.1c2.2,0.3,4.3,1.2,6.1,2.5l0.7,0.5l2.2-2.2l1.5,1.5l-2.2,2.2l0.5,0.7
		c1.3,1.8,2.2,3.9,2.5,6.1l0.1,0.9h3.1V411.5z"/>
	<path class="st0" d="M220.4,401.1c-5.1,0-9.3,4.2-9.3,9.3c0,5.1,4.2,9.3,9.3,9.3s9.3-4.2,9.3-9.3
		C229.7,405.3,225.5,401.1,220.4,401.1z M220.4,417.6c-4,0-7.2-3.2-7.2-7.2c0-4,3.2-7.2,7.2-7.2s7.2,3.2,7.2,7.2
		C227.6,414.4,224.4,417.6,220.4,417.6z"/>
	
		<rect x="212.7" y="393.2" transform="matrix(0.9238 -0.3828 0.3828 0.9238 -134.6259 111.8366)" class="st0" width="2.1" height="2.1"/>
	<polygon class="st0" points="225.8,426.1 226.6,428 228.5,427.2 227.7,425.3 	"/>
	
		<rect x="226.1" y="393.2" transform="matrix(0.3828 -0.9238 0.9238 0.3828 -223.9892 453.1284)" class="st0" width="2.1" height="2.1"/>
	
		<rect x="212.7" y="425.6" transform="matrix(0.385 -0.9229 0.9229 0.385 -262.32 459.5831)" class="st0" width="2.1" height="2.1"/>
	<polygon class="st0" points="203.6,402.4 202.9,404.3 204.8,405.1 205.6,403.1 	"/>
	
		<rect x="235.6" y="416.1" transform="matrix(0.3828 -0.9238 0.9238 0.3828 -239.3171 476.0611)" class="st0" width="2.1" height="2.1"/>
	<polygon class="st0" points="204.8,415.8 202.9,416.6 203.6,418.5 205.6,417.7 	"/>
	
		<rect x="235.6" y="402.7" transform="matrix(0.9238 -0.3828 0.3828 0.9238 -136.518 121.3387)" class="st0" width="2.1" height="2.1"/>
	<rect x="180.2" y="369.1" class="st0" width="2.1" height="2.1"/>
	<rect x="184.3" y="369.1" class="st0" width="2.1" height="2.1"/>
	<rect x="188.4" y="369.1" class="st0" width="2.1" height="2.1"/>
	<rect x="197.7" y="369.1" class="st0" width="19.6" height="2.1"/>
	<path class="st0" d="M202.8,396.7c0.5-0.9,0.9-1.8,1.2-2.8h2v-6.2h-2c-0.3-1-0.7-1.9-1.2-2.8l1.4-1.4l-4.4-4.4l-1.4,1.4
		c-0.9-0.5-1.8-0.9-2.8-1.2v-2h-6.2v2c-1,0.3-1.9,0.7-2.8,1.2l-1.4-1.4l-4.4,4.4l1.4,1.4c-0.5,0.9-0.9,1.8-1.2,2.8h-2v6.2h2
		c0.3,1,0.7,1.9,1.2,2.8l-1.4,1.4l4.4,4.4l1.4-1.4c0.9,0.5,1.8,0.9,2.8,1.2v2h6.2v-2c1-0.3,1.9-0.7,2.8-1.2l1.4,1.4l4.4-4.4
		L202.8,396.7z M202.2,392.7c-0.3,1.3-0.8,2.5-1.5,3.6l-0.5,0.7l1.1,1.1l-1.5,1.5l-1.1-1.1l-0.7,0.5c-1.1,0.7-2.3,1.2-3.6,1.5
		l-0.8,0.2v1.6h-2.1v-1.6l-0.8-0.2c-1.3-0.3-2.5-0.8-3.6-1.5l-0.7-0.5l-1.1,1.1l-1.5-1.5l1.1-1.1l-0.5-0.7c-0.8-1.1-1.3-2.3-1.5-3.6
		l-0.2-0.8h-1.6v-2.1h1.6l0.2-0.8c0.3-1.3,0.8-2.5,1.5-3.6l0.5-0.7l-1.1-1.1l1.5-1.5l1.1,1.1l0.7-0.5c1.1-0.7,2.3-1.2,3.6-1.5
		l0.8-0.2v-1.6h2.1v1.6l0.8,0.2c1.3,0.3,2.5,0.8,3.6,1.5l0.7,0.5l1.1-1.1l1.5,1.5l-1.1,1.1l0.5,0.7c0.7,1.1,1.2,2.3,1.5,3.6l0.2,0.8
		h1.6v2.1h-1.6L202.2,392.7z"/>
	<path class="st0" d="M192.5,383.6c-4,0-7.2,3.2-7.2,7.2c0,4,3.2,7.2,7.2,7.2s7.2-3.2,7.2-7.2C199.8,386.8,196.5,383.6,192.5,383.6z
		 M192.5,396c-2.8,0-5.2-2.3-5.2-5.2c0-2.8,2.3-5.2,5.2-5.2s5.2,2.3,5.2,5.2C197.7,393.6,195.4,396,192.5,396z"/>
</g>
</svg>
