<?xml version="1.0" encoding="utf-8"?>
<!-- Generator: Adobe Illustrator 23.0.3, SVG Export Plug-In . SVG Version: 6.00 Build 0)  -->
<svg version="1.1" id="Capa_1" xmlns="http://www.w3.org/2000/svg" xmlns:xlink="http://www.w3.org/1999/xlink" x="0px" y="0px"
	 viewBox="183 373 48 48" style="enable-background:new 183 373 48 48;" xml:space="preserve">
<style type="text/css">
	.st0{fill:#3E7CCC;}
</style>
<g>
	<rect x="206.2" y="415.6" class="st0" width="1.5" height="1.5"/>
	<path class="st0" d="M231,383.8V373h-48v10.8h23.2v2.3H183V397h23.2v2.3H183v10.8h23.2v1.5h-3.9v3.9h-14.7v1.5h14.7v3.9h9.3v-3.9
		h14.7v-1.5h-14.7v-3.9h-3.9v-1.5H231v-10.8h-23.2V397H231v-10.8h-23.2v-2.3H231z M210.1,413.3v6.2h-6.2v-6.2H210.1z M229.5,400.9
		v7.7h-44.9v-7.7H229.5z M229.5,387.7v7.7h-44.9v-7.7H229.5z M184.5,382.3v-7.7h44.9v7.7H184.5z"/>
	<rect x="187.6" y="377.6" class="st0" width="19.4" height="1.5"/>
	<rect x="224.8" y="377.6" class="st0" width="1.5" height="1.5"/>
	<rect x="221.7" y="377.6" class="st0" width="1.5" height="1.5"/>
	<rect x="218.6" y="377.6" class="st0" width="1.5" height="1.5"/>
	<rect x="187.6" y="390.8" class="st0" width="19.4" height="1.5"/>
	<rect x="224.8" y="390.8" class="st0" width="1.5" height="1.5"/>
	<rect x="221.7" y="390.8" class="st0" width="1.5" height="1.5"/>
	<rect x="218.6" y="390.8" class="st0" width="1.5" height="1.5"/>
	<rect x="187.6" y="404" class="st0" width="19.4" height="1.5"/>
	<rect x="224.8" y="404" class="st0" width="1.5" height="1.5"/>
	<rect x="221.7" y="404" class="st0" width="1.5" height="1.5"/>
	<rect x="218.6" y="404" class="st0" width="1.5" height="1.5"/>
</g>
</svg>
