<?xml version="1.0" encoding="utf-8"?>
<!-- Generator: Adobe Illustrator 23.0.3, SVG Export Plug-In . SVG Version: 6.00 Build 0)  -->
<svg version="1.1" id="Capa_1" xmlns="http://www.w3.org/2000/svg" xmlns:xlink="http://www.w3.org/1999/xlink" x="0px" y="0px"
	 viewBox="183 374.2 48 45.6" style="enable-background:new 183 374.2 48 45.6;" xml:space="preserve">
<style type="text/css">
	.st0{fill:#3E7CCC;}
</style>
<path class="st0" d="M192.6,392.6c-1.8,0-3.2,1.4-3.2,3.2s1.4,3.2,3.2,3.2c1.8,0,3.2-1.4,3.2-3.2C195.8,394,194.4,392.6,192.6,392.6
	z M192.6,397.4c-0.9,0-1.6-0.7-1.6-1.6c0-0.9,0.7-1.6,1.6-1.6c0.9,0,1.6,0.7,1.6,1.6C194.2,396.6,193.5,397.4,192.6,397.4z"/>
<path class="st0" d="M217.7,382.2c-0.7-4.6-4.7-8.1-9.5-8.1c-4.7,0-8.6,3.4-9.4,7.8c-0.7,0.2-1.5,0.5-2.2,0.8
	c-1.5-2.4-4-3.8-6.8-3.8c-0.8,0-1.5,0.1-2.3,0.3l-2.6,0.8l2.6,0.8c2.1,0.6,3.8,2.4,4.4,4.5c-2.5,1.8-4.5,4-5.7,6.4h-0.8
	c-1.3,0-2.4,1.1-2.4,2.4v8c0,1.3,1.1,2.4,2.4,2.4h0.8c1.5,2.9,4,5.4,7.2,7.4v7.8h6.4v-5.1c4.6,1.3,9.7,1.4,14.4,0.4v4.7h6.4v-6.9
	c6.5-3.3,10.4-8.7,10.4-14.7C231,391.3,225.8,385.1,217.7,382.2z M208.2,375.8c4.4,0,8,3.6,8,8c0,2.1-0.8,4.1-2.3,5.6h-5.2v-1.2
	c0.8-0.1,1.4-0.4,1.9-1c0.5-0.5,0.7-1.2,0.7-1.9c0-0.7-0.2-1.2-0.5-1.7c-0.4-0.4-1-0.8-2.1-1v-2.4c0.4,0.2,0.7,0.5,0.8,1l1.6-0.2
	c-0.1-0.6-0.4-1.1-0.8-1.5c-0.4-0.4-0.9-0.6-1.6-0.7v-0.6h-0.9v0.6c-0.7,0.1-1.3,0.3-1.7,0.8c-0.4,0.5-0.7,1-0.7,1.7
	c0,0.7,0.2,1.2,0.6,1.7c0.4,0.5,1,0.8,1.8,1.1v2.6c-0.2-0.1-0.4-0.3-0.6-0.5c-0.2-0.2-0.3-0.5-0.4-0.9l-1.6,0.2
	c0.1,0.8,0.4,1.5,0.9,1.9c0.4,0.4,1,0.7,1.7,0.8v1.1h-5.3c-1.5-1.5-2.3-3.5-2.3-5.6C200.2,379.3,203.8,375.8,208.2,375.8z
	 M207.8,382.3c-0.3-0.1-0.5-0.3-0.6-0.5c-0.1-0.2-0.2-0.4-0.2-0.6c0-0.2,0.1-0.5,0.2-0.7c0.1-0.2,0.3-0.3,0.6-0.4L207.8,382.3
	L207.8,382.3z M208.7,386.8v-2.4c0.4,0.1,0.7,0.3,0.8,0.5c0.2,0.2,0.2,0.4,0.2,0.7c0,0.3-0.1,0.6-0.3,0.8
	C209.2,386.6,209,386.8,208.7,386.8z M219.5,411.6l-0.5,0.2v6.3h-3.2V413l-1,0.3c-2.3,0.6-4.6,0.9-7,0.9c-3,0-5.8-0.4-8.6-1.3
	l-1-0.3v5.7H195V411l-0.4-0.2c-3.3-1.9-5.8-4.5-7.2-7.4l-0.2-0.5h-1.8c-0.4,0-0.8-0.4-0.8-0.8v-8c0-0.4,0.4-0.8,0.8-0.8h1.8l0.2-0.5
	c1.2-2.5,3.2-4.7,5.8-6.5l0.4-0.3l-0.1-0.5c-0.4-2-1.5-3.8-3.1-5c2.1,0.2,4,1.5,5,3.5l0.3,0.7l0.7-0.3c0.7-0.3,1.3-0.6,2-0.8
	c0,0,0,0,0,0.1c0,2.1,0.6,4,1.8,5.6H199v1.6h2.8h12.7h2.8v-1.6H216c1.1-1.5,1.7-3.4,1.8-5.4c7.1,2.7,11.6,8.2,11.6,14.2
	C229.4,403.6,225.7,408.6,219.5,411.6z"/>
</svg>
