<?xml version="1.0" encoding="utf-8"?>
<!-- Generator: Adobe Illustrator 23.0.3, SVG Export Plug-In . SVG Version: 6.00 Build 0)  -->
<svg version="1.1" id="Capa_1" xmlns="http://www.w3.org/2000/svg" xmlns:xlink="http://www.w3.org/1999/xlink" x="0px" y="0px"
	 viewBox="183 373 48 48" style="enable-background:new 183 373 48 48;" xml:space="preserve">
<style type="text/css">
	.st0{fill:#3E7CCC;}
</style>
<g>
	<path class="st0" d="M189.9,397H224c3.8,0,7-3.1,7-7s-3.1-7-7-7h-3.9c-0.4-4.3-4-7.7-8.5-7.7c-1.4,0-2.7,0.3-3.9,0.9
		c-2-2.1-4.8-3.3-7.7-3.3c-5.7,0-10.4,4.5-10.8,10.1c-3.5,0.4-6.2,3.3-6.2,6.9C183,393.9,186.1,397,189.9,397z M189.9,384.7h0.8
		v-0.8c0-5.1,4.2-9.3,9.3-9.3c2.7,0,5.2,1.2,7,3.2l0.4,0.5l0.6-0.3c1.1-0.7,2.4-1,3.6-1c3.8,0,7,3.1,7,7v0.8h5.4
		c3,0,5.4,2.4,5.4,5.4c0,3-2.4,5.4-5.4,5.4h-34.1c-3,0-5.4-2.4-5.4-5.4C184.5,387.1,186.9,384.7,189.9,384.7z"/>
	<path class="st0" d="M198.4,418h7v1.5h-2.3v1.5h2.3h6.2h2.3v-1.5h-2.3V418h7V404h-20.1L198.4,418L198.4,418z M210.1,419.5H207V418
		h3.1V419.5z M200,405.6h17v10.8h-5.4h-6.2H200V405.6L200,405.6z"/>
	<path class="st0" d="M183.7,421h10.8v-15.5h-10.8V421z M185.3,407.1h7.7v12.4h-7.7V407.1z"/>
	<path class="st0" d="M222.4,421h7.7v-12.4h-7.7V421z M224,419.5V418h4.6v1.5H224z M228.6,410.2v6.2H224v-6.2H228.6z"/>
	<rect x="188.4" y="417.2" class="st0" width="1.5" height="1.5"/>
	<polygon class="st0" points="188.4,400.1 188.4,404 189.9,404 189.9,401.7 199.2,401.7 199.2,398.6 197.7,398.6 197.7,400.1 	"/>
	<polygon class="st0" points="227.1,404 227.1,400.1 217.8,400.1 217.8,398.6 216.2,398.6 216.2,401.7 225.5,401.7 225.5,404 	"/>
	<rect x="207.7" y="398.6" class="st0" width="1.5" height="4.6"/>
</g>
</svg>
