<?xml version="1.0" encoding="utf-8"?>
<!-- Generator: Adobe Illustrator 23.0.3, SVG Export Plug-In . SVG Version: 6.00 Build 0)  -->
<svg version="1.1" id="Capa_1" xmlns="http://www.w3.org/2000/svg" xmlns:xlink="http://www.w3.org/1999/xlink" x="0px" y="0px"
	 viewBox="183 373 48 48" style="enable-background:new 183 373 48 48;" xml:space="preserve">
<style type="text/css">
	.st0{fill:#3E7CCC;}
</style>
<path class="st0" d="M229.5,400.5v-5.1c0-3.7-0.9-7.2-2.5-10.3l0,0c0,0,0,0,0,0c-3.7-7.2-11.3-12.1-19.9-12.1
	c-12.4,0-22.4,10.1-22.4,22.4v5.1c-0.9,0.9-1.5,2.1-1.5,3.4c0,2.6,2.1,4.6,4.6,4.6v0.8c0,1.3,1,2.3,2.3,2.3h4.6c1.3,0,2.3-1,2.3-2.3
	v-10.8c0-1.3-1-2.3-2.3-2.3H190c-1.3,0-2.3,1-2.3,2.3v0.8c-0.5,0-1.1,0.1-1.5,0.3v-4.1c0-3.4,0.8-6.6,2.2-9.4
	c4.6-4.9,11.4-7.8,18.7-7.8c7.3,0,14.1,2.8,18.6,7.8c1.4,2.8,2.2,6,2.2,9.4v4.1c-0.5-0.2-1-0.3-1.5-0.3v-0.8c0-1.3-1-2.3-2.3-2.3
	h-4.6c-1.3,0-2.3,1-2.3,2.3v10.8c0,1.3,1,2.3,2.3,2.3h4.6c0.3,0,0.5-0.1,0.8-0.1v2.5c0,2.1-1.7,3.9-3.9,3.9h-5.4v-3.1h-10.8v6.2
	h10.8v-1.5h5.4c3,0,5.4-2.4,5.4-5.4v-4.6v-0.8c2.6,0,4.6-2.1,4.6-4.6C231,402.6,230.4,401.4,229.5,400.5z M189.2,398.5
	c0-0.4,0.3-0.8,0.8-0.8h4.6c0.4,0,0.8,0.3,0.8,0.8v10.8c0,0.4-0.3,0.8-0.8,0.8H190c-0.4,0-0.8-0.3-0.8-0.8v-0.8v-9.3V398.5z
	 M187.7,407.1c-1.7,0-3.1-1.4-3.1-3.1c0-1.7,1.4-3.1,3.1-3.1V407.1z M207,376.7c-5.6,0-10.9,1.6-15.2,4.4c3.8-4.1,9.2-6.6,15.2-6.6
	c6,0,11.4,2.5,15.2,6.6C217.9,378.3,212.6,376.7,207,376.7z M206.3,419.4v-3.1h7.7v1.5v1.5H206.3z M224.9,409.4
	c0,0.4-0.3,0.8-0.8,0.8h-4.6c-0.4,0-0.8-0.3-0.8-0.8v-10.8c0-0.4,0.3-0.8,0.8-0.8h4.6c0.4,0,0.8,0.3,0.8,0.8v0.8v8.5v0.8V409.4z
	 M226.4,407.1v-6.2c1.7,0,3.1,1.4,3.1,3.1S228.1,407.1,226.4,407.1z"/>
<rect x="206.3" y="403.2" class="st0" width="1.5" height="1.5"/>
<rect x="209.4" y="403.2" class="st0" width="1.5" height="1.5"/>
<rect x="203.2" y="403.2" class="st0" width="1.5" height="1.5"/>
</svg>
