<?xml version="1.0" encoding="utf-8"?>
<!-- Generator: Adobe Illustrator 23.0.3, SVG Export Plug-In . SVG Version: 6.00 Build 0)  -->
<svg version="1.1" id="Capa_1" xmlns="http://www.w3.org/2000/svg" xmlns:xlink="http://www.w3.org/1999/xlink" x="0px" y="0px"
	 viewBox="167.5 313 47.6 50" style="enable-background:new 167.5 313 47.6 50;" xml:space="preserve">
<style type="text/css">
	.st0{fill:#3E7CCC;}
</style>
<g>
	<path class="st0" d="M193.8,361.6l-7.2-6.1c0,0,0,0,0,0l-5-4.3v-7c0-0.5-0.4-0.8-0.8-0.8c-0.5,0-0.8,0.4-0.8,0.8v7l-12.2,10.5
		c-0.3,0.3-0.4,0.8-0.1,1.2c0.3,0.3,0.8,0.4,1.2,0.1l6.7-5.8l4.4,2.3v2.8c0,0.5,0.4,0.8,0.8,0.8s0.8-0.4,0.8-0.8v-2.8l4.4-2.3
		l6.7,5.8c0.2,0.1,0.3,0.2,0.5,0.2c0.2,0,0.5-0.1,0.6-0.3C194.2,362.4,194.2,361.9,193.8,361.6z M176.9,355.9l3.1-2.6v4.3
		L176.9,355.9z M181.6,357.5v-4.3l3.1,2.6L181.6,357.5z"/>
	<path class="st0" d="M207.8,339.4C207.8,339.4,207.8,339.4,207.8,339.4c-0.5,0-0.8,0.4-0.8,0.8c0,1.8-0.5,3.3-1.5,4.3c0,0,0,0,0,0
		l0,0c-1.7,1.7-4.8,2-8.7,0.7c-4.1-1.4-8.4-4.2-12.3-8.1c-3.9-3.9-6.7-8.2-8.1-12.3c-1.3-3.9-1-7,0.7-8.7c1.7-1.7,4.8-2,8.7-0.7
		c4.1,1.4,8.4,4.2,12.3,8.1c3,3,5.4,6.4,7,9.7c0.2,0.4,0.7,0.6,1.1,0.4c0.4-0.2,0.6-0.7,0.4-1.1c-1.7-3.5-4.2-7-7.3-10.1
		c-4-4-8.6-7-12.9-8.5c-4.5-1.5-8.2-1.1-10.4,1.1c0,0,0,0,0,0l-0.8,0.8c-2.8,2.8-3.8,7-2.8,11.9c1,4.8,3.8,9.6,7.8,13.7
		c5.9,5.9,11.6,7.5,15.3,7.8c0.5,0,1.1,0.1,1.6,0.1c3.6,0,6.9-1.1,8.7-2.9l0.8-0.8c0,0,0,0,0,0c1.3-1.3,2-3.2,2-5.4
		C208.6,339.8,208.3,339.4,207.8,339.4z M195.7,347.6c-3.5-0.3-8.8-1.8-14.3-7.4c-6-6-8.7-13.6-7.4-19c0.1,1.3,0.4,2.7,0.9,4.1
		c1.4,4.3,4.4,8.9,8.5,12.9c4,4,8.6,7,12.9,8.5c1.1,0.4,2.1,0.6,3.1,0.8C198.2,347.7,197,347.7,195.7,347.6z"/>
	<path class="st0" d="M214.9,328.5l-3.7-3.7c-0.3-0.3-0.8-0.3-1.2,0c-0.3,0.3-0.3,0.8,0,1.2l0.2,0.2l-1.7,1.7
		c-0.3,0.3-0.3,0.8,0,1.2c0.2,0.2,0.4,0.2,0.6,0.2c0.2,0,0.4-0.1,0.6-0.2l1.7-1.7l1.7,1.7l-11.5,11.5c-0.3,0.3-0.3,0.8,0,1.2
		c0.2,0.2,0.4,0.2,0.6,0.2s0.4-0.1,0.6-0.2l12.1-12.1c0.2-0.2,0.2-0.4,0.2-0.6C215.1,328.9,215,328.7,214.9,328.5z"/>
</g>
</svg>
