<?xml version="1.0" encoding="utf-8"?>
<!-- Generator: Adobe Illustrator 23.0.3, SVG Export Plug-In . SVG Version: 6.00 Build 0)  -->
<svg version="1.1" id="Capa_1" xmlns="http://www.w3.org/2000/svg" xmlns:xlink="http://www.w3.org/1999/xlink" x="0px" y="0px"
	 viewBox="109.2 385.5 49.4 50" style="enable-background:new 109.2 385.5 49.4 50;" xml:space="preserve">
<style type="text/css">
	.st0{fill:#3E7CCC;}
</style>
<g>
	<path class="st0" d="M141.1,430.7V430c0-1.1-0.7-2.1-1.8-2.3l-4.6-1.1v-2.3l0.4-0.2c0.7-0.4,1.2-1.2,1.2-2.1v-1.6
		c0-0.7-0.3-1.3-0.8-1.8c-0.5-0.5-1.2-0.7-1.8-0.6c-1.2,0.1-2.2,1.2-2.2,2.5v1.4c0,0.9,0.4,1.6,1.2,2.1l0.4,0.2v2.3l-4.6,1.1
		c-1.1,0.3-1.8,1.2-1.8,2.3v0.6c1.8,2,4.3,3.3,7.2,3.3C136.8,433.9,139.3,432.6,141.1,430.7z M143.5,424.3c0-5.3-4.3-9.6-9.6-9.6
		c-5.3,0-9.6,4.3-9.6,9.6c0,1.6,0.4,3,1,4.3c0.4-1.2,1.5-2.2,2.8-2.5l3.4-0.8v-0.2c-1-0.7-1.6-1.9-1.6-3.2v-1.4c0-2.1,1.6-4,3.6-4.1
		c1.1-0.1,2.2,0.3,3,1c0.8,0.8,1.3,1.8,1.3,2.9v1.6c0,1.2-0.6,2.4-1.6,3.2v0.2l3.4,0.8c1.3,0.3,2.3,1.3,2.8,2.5
		C143.1,427.4,143.5,425.9,143.5,424.3z M144.6,421.2c0.3,1,0.5,2.1,0.5,3.2c0,6.1-5,11.2-11.2,11.2c-6.1,0-11.2-5-11.2-11.2
		c0-1.1,0.2-2.2,0.5-3.2l0.6-1.6c0.4-0.7,0.8-1.4,1.3-2.1l-4.7-5.9h-6.8v-15.9H128v15.9h-5.2l3.5,4.7c2-1.9,4.7-3.1,7.7-3.1
		c3,0,5.7,1.2,7.7,3.1l3.5-4.7h-5.2v-15.9h14.3v15.9h-6.8l-4.7,5.9c0.5,0.6,0.9,1.3,1.3,2.1L144.6,421.2z M152.7,410.1v-13h-11.4v13
		H152.7z M126.5,410.1v-13h-11.4v13H126.5z M116.8,400.2h8v6.4h-8V400.2z M117.8,405.6h6v-4.4h-6V405.6z M143,400.7h8v6.4h-8V400.7z
		 M144,406.1h6v-4.4h-6V406.1z"/>
	<g>
		<rect x="118.8" y="388.7" class="st0" width="1.6" height="1.6"/>
		<path class="st0" d="M109.2,385.5v35h13.6l0.7-1.6h-12.7v-25.5H157V419h-12.7l0.7,1.6h13.6v-35H109.2z M157,391.9h-46.2v-4.8H157
			V391.9z"/>
		<rect x="115.6" y="388.7" class="st0" width="1.6" height="1.6"/>
		<rect x="112.4" y="388.7" class="st0" width="1.6" height="1.6"/>
	</g>
</g>
</svg>
