<?xml version="1.0" encoding="utf-8"?>
<!-- Generator: Adobe Illustrator 23.0.3, SVG Export Plug-In . SVG Version: 6.00 Build 0)  -->
<svg version="1.1" id="Capa_1" xmlns="http://www.w3.org/2000/svg" xmlns:xlink="http://www.w3.org/1999/xlink" x="0px" y="0px"
	 viewBox="245.9 375 50 50" style="enable-background:new 245.9 375 50 50;" xml:space="preserve">
<style type="text/css">
	.st0{fill:#3E7CCC;}
</style>
<path class="st0" d="M254,379v4.8h1.6v-4h4v-1.6h-4.8C254.3,378.2,254,378.6,254,379z"/>
<path class="st0" d="M287,378.2h-4.8v1.6h4v4h1.6V379C287.8,378.6,287.5,378.2,287,378.2z"/>
<path class="st0" d="M286.2,396h-4v1.6h4.8c0.4,0,0.8-0.4,0.8-0.8v-4.8h-1.6V396z"/>
<path class="st0" d="M255.6,391.9H254v4.8c0,0.4,0.4,0.8,0.8,0.8h4.8V396h-4V391.9z"/>
<path class="st0" d="M268.5,387.1H262v-4h-1.6v9.7h1.6v-4h6.5v4h1.6v-9.7h-1.6V387.1z"/>
<path class="st0" d="M276.5,383.1h-4c-0.4,0-0.8,0.4-0.8,0.8v8.1c0,0.4,0.4,0.8,0.8,0.8h4c2.7,0,4.8-2.2,4.8-4.8
	S279.2,383.1,276.5,383.1z M276.5,391.1h-3.2v-6.5h3.2c1.8,0,3.2,1.4,3.2,3.2S278.3,391.1,276.5,391.1z"/>
<path class="st0" d="M267.7,402.4h6.5v1.6h-6.5V402.4z"/>
<path class="st0" d="M295.1,413.7h-9.7v-2.4c0-0.4-0.4-0.8-0.8-0.8h-9.7v-3.2h13.7c1.3,0,2.4-1.1,2.4-2.4v-27.4
	c0-1.3-1.1-2.4-2.4-2.4h-35.5c-1.3,0-2.4,1.1-2.4,2.4v27.4c0,1.3,1.1,2.4,2.4,2.4h13.7v3.2h-9.7c-0.4,0-0.8,0.4-0.8,0.8v2.4h-9.7
	c-0.4,0-0.8,0.4-0.8,0.8V425h1.6v-9.7h22.6v9.7h1.6v-9.7h22.6v9.7h1.6v-10.5C295.9,414.1,295.5,413.7,295.1,413.7z M252.4,377.4
	c0-0.4,0.4-0.8,0.8-0.8h35.5c0.4,0,0.8,0.4,0.8,0.8v21.8h-37.1V377.4z M252.4,404.8v-4h37.1v4c0,0.4-0.4,0.8-0.8,0.8h-35.5
	C252.7,405.6,252.4,405.3,252.4,404.8z M268.5,407.3h4.8v3.2h-4.8V407.3z M258,413.7v-1.6h25.8v1.6H258z"/>
<path class="st0" d="M273.3,418.5h1.6v3.2h-1.6V418.5z"/>
<path class="st0" d="M266.9,418.5h1.6v3.2h-1.6V418.5z"/>
</svg>
