<?xml version="1.0" encoding="utf-8"?>
<!-- Generator: Adobe Illustrator 23.0.3, SVG Export Plug-In . SVG Version: 6.00 Build 0)  -->
<svg version="1.1" id="Capa_1" xmlns="http://www.w3.org/2000/svg" xmlns:xlink="http://www.w3.org/1999/xlink" x="0px" y="0px"
	 viewBox="277.3 370.5 40.4 50" style="enable-background:new 277.3 370.5 40.4 50;" xml:space="preserve">
<style type="text/css">
	.st0{fill:#3E7CCC;}
</style>
<path class="st0" d="M290.3,406.2c-0.4,0-0.7,0.3-0.7,0.7c0,0.4,0.3,0.7,0.7,0.7h14.4c0.4,0,0.7-0.3,0.7-0.7c0-0.4-0.3-0.7-0.7-0.7
	H290.3z"/>
<path class="st0" d="M305.4,411c0-0.4-0.3-0.7-0.7-0.7h-14.4c-0.4,0-0.7,0.3-0.7,0.7c0,0.4,0.3,0.7,0.7,0.7h14.4
	C305.1,411.7,305.4,411.4,305.4,411z"/>
<g>
	<path class="st0" d="M290.7,393.7c0.4-0.2,0.5-0.7,0.3-1c-0.9-1.5-1.4-3-1.6-4.1c-0.1-1-0.1-2.6,0.7-3.7c0.4-0.6,1-1.1,1.5-1.4
		c0.3-0.1,0.7-0.2,0.9-0.2c0.4,0.2,0.9,1.5,1,2c0,0,0,0,0,0c0.7,1.7,0.4,2-0.1,2.4c-0.3,0.1-0.5,0.4-0.6,0.7c-0.3,0.9,0,2.4,0.8,3.8
		c0.2,0.3,0.4,0.7,0.7,1.1c0.3,0.3,0.5,0.7,0.8,1c1.1,1.2,2.4,2,3.4,2c0.3,0,0.6-0.1,0.9-0.3c0.5-0.4,0.8-0.5,2.3,0.7c0,0,0,0,0,0
		c0.4,0.3,1.5,1.1,1.6,1.6c0,0.1-0.2,0.5-0.4,0.8c-0.4,0.4-1.1,0.8-1.8,1c-1.3,0.3-2.9-0.1-3.8-0.5c-1.3-0.7-2.9-2.1-4.4-3.9
		c-0.3-0.3-0.7-0.4-1-0.1c-0.3,0.3-0.4,0.7-0.1,1c1.6,2,3.3,3.6,4.9,4.3c0.9,0.4,2.1,0.8,3.4,0.8c0.5,0,0.9,0,1.4-0.2
		c1-0.2,1.9-0.8,2.5-1.4c0,0,1-1,0.8-2c-0.1-1-1.1-1.8-2.2-2.6c-1.6-1.2-2.6-1.7-4.1-0.7c0,0,0,0-0.1,0c-0.3,0-1.3-0.4-2.2-1.5
		c-0.2-0.3-0.5-0.6-0.7-0.9c-0.2-0.3-0.4-0.6-0.6-0.9c-0.7-1.2-0.8-2.2-0.7-2.5c0,0,0,0,0.1,0c1.4-1.1,1.3-2.2,0.6-4.1
		c-0.4-1.2-0.9-2.4-1.8-2.8c-0.8-0.4-2.1,0.2-2.1,0.2c-0.8,0.4-1.6,1.1-2.2,1.9c-0.9,1.5-1.1,3.4-0.9,4.7c0.2,1.3,0.8,2.9,1.8,4.6
		C289.9,393.8,290.4,393.9,290.7,393.7z"/>
	<path class="st0" d="M302.3,390.8c0.1,0,0.2,0.1,0.3,0.1c0.3,0,0.5-0.2,0.7-0.4c0.3-0.6,0.4-1.2,0.3-1.8c-0.1-0.6-0.3-1.2-0.6-1.7
		c-0.4-0.5-0.9-0.9-1.4-1.2c-0.6-0.3-1.2-0.4-1.9-0.3c-0.4,0-0.7,0.4-0.7,0.8c0,0.4,0.4,0.7,0.8,0.7c0.4,0,0.8,0,1.1,0.2
		c0.3,0.2,0.6,0.4,0.8,0.7c0.2,0.3,0.3,0.7,0.4,1c0,0.4,0,0.7-0.2,1.1C301.8,390.2,302,390.6,302.3,390.8z"/>
	<path class="st0" d="M299.4,383.1c0,0,0.1,0,0.1,0c0.9,0,1.7,0.2,2.5,0.6c1,0.5,1.9,1.2,2.5,2.1c0.6,0.9,1,1.9,1.1,3
		c0.1,0.9,0,1.8-0.3,2.6c-0.1,0.4,0.1,0.8,0.4,0.9c0.1,0,0.2,0,0.2,0c0.3,0,0.6-0.2,0.7-0.5c0.4-1,0.5-2.1,0.4-3.2
		c-0.1-1.3-0.6-2.6-1.4-3.8c-0.8-1.1-1.9-2-3.1-2.6c-1-0.5-2.1-0.7-3.2-0.7c0,0,0,0,0,0c-0.4,0-0.7,0.3-0.7,0.7v0
		C298.7,382.8,299,383.1,299.4,383.1z"/>
</g>
<path class="st0" d="M314,370.5h-33c-2,0-3.7,1.6-3.7,3.7v42.7c0,2,1.6,3.7,3.7,3.7h33c2,0,3.7-1.6,3.7-3.7v-42.7
	C317.7,372.1,316,370.5,314,370.5z M291,372h13v1.2c0,0.3-0.2,0.5-0.5,0.5h-11.9c-0.3,0-0.5-0.2-0.5-0.5V372z M314,419h-33
	c-1.1,0-2-0.8-2.2-1.8h17c0.4,0,0.7-0.3,0.7-0.7c0-0.4-0.3-0.7-0.7-0.7h-17v-41.6c0-1.2,1-2.2,2.2-2.2h8.5v1.2c0,1.1,0.9,2,2,2h11.9
	c1.1,0,2-0.9,2-2V372h8.5c1.2,0,2.2,1,2.2,2.2v41.6h-22c-0.4,0-0.7,0.3-0.7,0.7c0,0.4,0.3,0.7,0.7,0.7h22
	C316,418.2,315.1,419,314,419z"/>
</svg>
