<?xml version="1.0" encoding="utf-8"?>
<!-- Generator: Adobe Illustrator 23.0.3, SVG Export Plug-In . SVG Version: 6.00 Build 0)  -->
<svg version="1.1" id="Capa_1" xmlns="http://www.w3.org/2000/svg" xmlns:xlink="http://www.w3.org/1999/xlink" x="0px" y="0px"
	 viewBox="161.8 350.4 50 57.8" style="enable-background:new 161.8 350.4 50 57.8;" xml:space="preserve">
<style type="text/css">
	.st0{fill:#3E7CCC;}
</style>
<g>
	<g>
		<g>
			<path class="st0" d="M197.7,387.6h-23.8c-0.3,0-0.5,0.1-0.7,0.3l-11.4,11.4l1.3,1.3l11.2-11.2h22.4c-0.2,1.1-0.8,2.9-2.8,2.9
				h-10.5v1.9h10.5c3.8,0,4.8-3.7,4.8-5.7C198.6,388,198.2,387.6,197.7,387.6z"/>
		</g>
	</g>
	<g>
		<g>
			<path class="st0" d="M209.8,381.2c-0.4-0.4-1-0.4-1.3,0l-8.6,8.6l1.3,1.3l7.8-7.8c1.3,1.7,1,4.1-0.6,5.5L197.3,400h-19.6
				c-0.3,0-0.5,0.1-0.7,0.3l-6.7,6.7l1.3,1.3l6.4-6.4h19.6c0.3,0,0.5-0.1,0.7-0.3l11.4-11.4C213.3,386.6,211.4,382.7,209.8,381.2z"
				/>
		</g>
	</g>
	<g>
		<g>
			<path class="st0" d="M204.4,363.8h-3.4c-0.3-0.9-0.6-1.7-1-2.5l2.4-2.4c0.4-0.4,0.4-1,0-1.3l-4-4c-0.4-0.4-1-0.4-1.3,0l-2.4,2.4
				c-0.8-0.4-1.6-0.8-2.5-1v-3.4c0-0.5-0.4-1-1-1h-5.7c-0.5,0-1,0.4-1,1v3.4c-0.9,0.3-1.7,0.6-2.5,1l-2.4-2.4c-0.4-0.4-1-0.4-1.3,0
				l-4,4c-0.4,0.4-0.4,1,0,1.3l2.4,2.4c-0.4,0.8-0.8,1.6-1,2.5H172c-0.5,0-1,0.4-1,1v5.7c0,0.5,0.4,1,1,1h3.4c0.3,0.9,0.6,1.7,1,2.5
				l-2.4,2.4c-0.4,0.4-0.4,1,0,1.3l4,4c0.4,0.4,1,0.4,1.3,0l2.4-2.4c0.8,0.4,1.6,0.8,2.5,1v3.4c0,0.5,0.4,1,1,1h5.7c0.5,0,1-0.4,1-1
				v-3.4c0.9-0.3,1.7-0.6,2.5-1l2.4,2.4c0.2,0.2,0.4,0.3,0.7,0.3c0.3,0,0.5-0.1,0.7-0.3l4-4c0.4-0.4,0.4-1,0-1.3l-2.4-2.4
				c0.4-0.8,0.8-1.6,1-2.5h3.4c0.5,0,1-0.4,1-1v-5.7C205.3,364.2,204.9,363.8,204.4,363.8z M203.4,369.5h-3.2
				c-0.4,0-0.8,0.3-0.9,0.7c-0.3,1.2-0.8,2.3-1.4,3.4c-0.2,0.4-0.2,0.9,0.1,1.2l2.3,2.3l-2.7,2.7l-2.3-2.3c-0.3-0.3-0.8-0.4-1.2-0.1
				c-1,0.6-2.2,1.1-3.4,1.4c-0.4,0.1-0.7,0.5-0.7,0.9v3.2h-3.8v-3.2c0-0.4-0.3-0.8-0.7-0.9c-1.2-0.3-2.3-0.8-3.4-1.4
				c-0.4-0.2-0.9-0.2-1.2,0.1l-2.3,2.3L176,377l2.3-2.3c0.3-0.3,0.4-0.8,0.1-1.2c-0.6-1-1.1-2.2-1.4-3.4c-0.1-0.4-0.5-0.7-0.9-0.7
				h-3.2v-3.8h3.2c0.4,0,0.8-0.3,0.9-0.7c0.3-1.2,0.8-2.3,1.4-3.4c0.2-0.4,0.2-0.9-0.1-1.2l-2.3-2.3l2.7-2.7l2.3,2.3
				c0.3,0.3,0.8,0.4,1.2,0.1c1-0.6,2.2-1.1,3.4-1.4c0.4-0.1,0.7-0.5,0.7-0.9v-3.2h3.8v3.2c0,0.4,0.3,0.8,0.7,0.9
				c1.2,0.3,2.3,0.8,3.4,1.4c0.4,0.2,0.9,0.2,1.2-0.1l2.3-2.3l2.7,2.7l-2.3,2.3c-0.3,0.3-0.4,0.8-0.1,1.2c0.6,1,1.1,2.2,1.4,3.4
				c0.1,0.4,0.5,0.7,0.9,0.7h3.2V369.5L203.4,369.5z"/>
		</g>
	</g>
	<path class="st0" d="M188.2,361.9c-3.2,0-5.7,2.6-5.7,5.7s2.6,5.7,5.7,5.7c3.2,0,5.7-2.6,5.7-5.7
		C193.9,364.4,191.3,361.9,188.2,361.9z M188.2,371.4c-2.1,0-3.8-1.7-3.8-3.8s1.7-3.8,3.8-3.8s3.8,1.7,3.8,3.8
		S190.3,371.4,188.2,371.4z"/>
	<path class="st0" d="M188.2,361.9c-3.2,0-5.7,2.6-5.7,5.7s2.6,5.7,5.7,5.7c3.2,0,5.7-2.6,5.7-5.7
		C193.9,364.4,191.3,361.9,188.2,361.9z M188.2,371.4c-2.1,0-3.8-1.7-3.8-3.8s1.7-3.8,3.8-3.8s3.8,1.7,3.8,3.8
		S190.3,371.4,188.2,371.4z"/>
</g>
</svg>
