<?xml version="1.0" encoding="utf-8"?>
<!-- Generator: Adobe Illustrator 23.0.3, SVG Export Plug-In . SVG Version: 6.00 Build 0)  -->
<svg version="1.1" id="Capa_1" xmlns="http://www.w3.org/2000/svg" xmlns:xlink="http://www.w3.org/1999/xlink" x="0px" y="0px"
	 viewBox="195.4 365.7 53 50" style="enable-background:new 195.4 365.7 53 50;" xml:space="preserve">
<style type="text/css">
	.st0{fill:#3E7CCC;}
</style>
<g>
	<path class="st0" d="M222.6,385.4c-0.1,0-0.2,0-0.3,0c-1.1-0.1-2-1.1-2-2.2c0-0.5-0.4-1-1-1c-0.5,0-1,0.4-1,1
		c0,1.9,1.3,3.6,3.1,4.1v1c0,0.5,0.4,1,1,1c0.5,0,1-0.4,1-1v-0.9c2.1-0.4,3.6-2.4,3.3-4.6c-0.2-2.1-2-3.8-4.2-3.8
		c-1.2,0-2.2-1-2.2-2.2c0-1.2,1-2.2,2.2-2.2c1.2,0,2.2,1,2.2,2.2c0,0.5,0.4,1,1,1c0.5,0,1-0.4,1-1c0-2-1.4-3.7-3.4-4.1v-0.9
		c0-0.5-0.4-1-1-1c-0.5,0-1,0.4-1,1v1c-2,0.6-3.3,2.5-3.1,4.6c0.3,2.1,2.1,3.7,4.2,3.7c1.2,0,2.2,1,2.2,2.2
		C224.8,384.4,223.8,385.4,222.6,385.4z"/>
	<path class="st0" d="M208.2,380.1c0,7.9,6.4,14.3,14.3,14.3s14.3-6.4,14.3-14.3s-6.4-14.3-14.3-14.3
		C214.6,365.7,208.2,372.1,208.2,380.1z M222.5,367.7c6.8,0,12.3,5.5,12.3,12.3c0,6.8-5.5,12.3-12.3,12.3s-12.3-5.5-12.3-12.3
		C210.2,373.2,215.7,367.7,222.5,367.7z"/>
	<path class="st0" d="M241.7,399.7l-7.7,3.7c-1.1-2-3.1-3.3-5.4-3.3l-7.1-0.2c-1.1,0-2.2-0.3-3.2-0.8l-0.7-0.4
		c-3.7-1.9-8.2-1.9-11.9,0l0-1.6c0-0.5-0.4-1-1-1l-7.8-0.2c-0.5,0-1,0.4-1,1l-0.5,17.2c0,0.5,0.4,1,1,1l7.8,0.2h0c0.5,0,1-0.4,1-1
		l0-0.8l2-1.1c0.8-0.4,1.7-0.5,2.6-0.3l12.1,3.4c0,0,0,0,0.1,0c0.9,0.2,1.8,0.3,2.7,0.3c1.9,0,3.8-0.4,5.5-1.2c0,0,0.1,0,0.1-0.1
		l17.6-11.4c0.4-0.3,0.6-0.9,0.3-1.3C247,399.4,244.1,398.6,241.7,399.7z M197.4,413l0.4-15.2l5.9,0.2l-0.4,15.2L197.4,413z
		 M229.3,412.8c-2.1,1-4.5,1.2-6.8,0.8l-12.1-3.4c-1.4-0.4-2.8-0.2-4.1,0.4l-1,0.6l0.3-10.1c3.3-2.2,7.5-2.4,11-0.6l0.7,0.4
		c1.3,0.7,2.7,1,4.1,1.1l7.1,0.2c2,0.1,3.7,1.5,4.1,3.5l-10.6-0.3c-0.5,0-1,0.4-1,1c0,0.5,0.4,1,1,1l11.7,0.3h0c0.5,0,1-0.4,1-1
		c0-0.4,0-0.9-0.1-1.3l7.9-3.7c0,0,0,0,0,0c1.1-0.6,2.5-0.4,3.4,0.5L229.3,412.8z"/>
</g>
</svg>
