<?xml version="1.0" encoding="utf-8"?>
<!-- Generator: Adobe Illustrator 23.0.3, SVG Export Plug-In . SVG Version: 6.00 Build 0)  -->
<svg version="1.1" id="Capa_1" xmlns="http://www.w3.org/2000/svg" xmlns:xlink="http://www.w3.org/1999/xlink" x="0px" y="0px"
	 viewBox="228.3 416.5 59.6 50" style="enable-background:new 228.3 416.5 59.6 50;" xml:space="preserve">
<style type="text/css">
	.st0{fill:#3E7CCC;}
</style>
<g>
	<g>
		<path class="st0" d="M277.7,416.5c-4.6,0-8.1,3.7-8.1,8.2s3.7,8.1,8.1,8.1s8.2-3.7,8.2-8.2C285.9,420.1,282.3,416.5,277.7,416.5z
			 M277.7,431.1c-3.5,0-6.4-2.9-6.4-6.4c0-3.5,2.9-6.3,6.4-6.3c3.5,0,6.4,2.9,6.4,6.4C284.1,428.3,281.3,431.1,277.7,431.1z"/>
	</g>
	<g>
		<path class="st0" d="M280.3,426c-0.1-0.2-0.1-0.3-0.2-0.4c-0.1-0.1-0.1-0.3-0.2-0.4c-0.1-0.1-0.2-0.2-0.3-0.3
			c-0.1-0.1-0.2-0.2-0.4-0.3c-0.1-0.1-0.3-0.2-0.4-0.2c-0.2-0.1-0.3-0.2-0.4-0.2c-0.2-0.1-0.3-0.1-0.4-0.2c-0.1,0-0.2-0.1-0.2-0.1
			s-0.2-0.1-0.2-0.1s-0.2-0.1-0.2-0.1c-0.1-0.1-0.1-0.1-0.2-0.2s-0.1-0.1-0.1-0.2c-0.1-0.1-0.1-0.2-0.1-0.2c0-0.1,0-0.2,0-0.3
			c0-0.1,0.1-0.2,0.1-0.2c0.1-0.1,0.1-0.2,0.1-0.2s0.1-0.1,0.2-0.2c0.1-0.1,0.2-0.1,0.3-0.1c0.1-0.1,0.2-0.1,0.3-0.1
			c0.1,0,0.1,0,0.2,0s0.1,0,0.2,0c0.1,0,0.2,0,0.3,0.1c0.1,0,0.2,0.1,0.3,0.1s0.2,0.1,0.2,0.1c0.1,0,0.2,0.1,0.2,0.1l0.3,0.1
			l0.1-0.3l0.1-0.9v-0.2l-0.2-0.1c-0.1,0-0.2-0.1-0.2-0.1s-0.1-0.1-0.2-0.1c-0.1,0-0.2-0.1-0.3-0.1s-0.2-0.1-0.3-0.1h-0.1v-0.8v-0.3
			h-0.3h-0.8H277v0.3v0.8H277c-0.2,0.1-0.3,0.1-0.5,0.2c-0.2,0.1-0.3,0.2-0.4,0.3s-0.2,0.2-0.3,0.4c-0.1,0.1-0.2,0.3-0.2,0.4
			c-0.1,0.2-0.1,0.3-0.2,0.5c-0.1,0.2-0.1,0.4-0.1,0.6c0,0.2,0,0.3,0.1,0.4c0.1,0.2,0.1,0.3,0.2,0.4c0.1,0.1,0.2,0.3,0.2,0.4
			c0.1,0.1,0.2,0.2,0.3,0.3c0.1,0.1,0.2,0.2,0.4,0.3c0.1,0.1,0.3,0.2,0.4,0.2c0.2,0.1,0.3,0.2,0.4,0.2c0.2,0.1,0.3,0.1,0.4,0.2
			c0.1,0,0.2,0.1,0.2,0.1c0.1,0.1,0.2,0.1,0.2,0.1c0.1,0.1,0.1,0.1,0.2,0.1c0.1,0.1,0.1,0.1,0.2,0.2s0.1,0.1,0.1,0.2
			c0,0.1,0.1,0.2,0.1,0.3s0,0.2,0,0.3c0,0.1-0.1,0.2-0.1,0.2c-0.1,0.1-0.1,0.1-0.2,0.2s-0.1,0.1-0.2,0.2c-0.1,0.1-0.2,0.1-0.2,0.1
			c-0.1,0-0.2,0.1-0.3,0.1c-0.1,0-0.1,0-0.2,0c-0.1,0-0.2,0-0.2,0c-0.1,0-0.2,0-0.3,0c-0.1,0-0.2-0.1-0.3-0.1
			c-0.1,0-0.2-0.1-0.3-0.1c-0.1-0.1-0.2-0.1-0.3-0.1c-0.1,0-0.1-0.1-0.2-0.1c-0.1,0-0.1-0.1-0.2-0.1l-0.3-0.2l-0.1,0.4l-0.1,1v0.2
			l0.2,0.1c0.2-0.1,0.3,0,0.5,0.1c0.1,0.1,0.3,0.1,0.4,0.1c0.1,0.1,0.3,0.1,0.4,0.1s0.3,0.1,0.4,0.1h0.1v0.8v0.3h0.3h0.8h0.3v-0.3
			v-0.9h0.1c0.2-0.1,0.3-0.1,0.5-0.2c0.2-0.1,0.3-0.2,0.4-0.3c0.1-0.1,0.2-0.2,0.3-0.4c0.1-0.1,0.2-0.3,0.3-0.4
			c0.1-0.2,0.1-0.3,0.2-0.5c0.1-0.2,0.1-0.3,0.1-0.6C280.4,426.3,280.4,426.1,280.3,426z"/>
	</g>
	<g>
		<path class="st0" d="M273.8,433.9c-0.3-0.4-0.9-0.4-1.3-0.2l-9.1,7.2l-11.7-4.9c-0.3-0.1-0.6-0.1-0.8,0.1l-12.6,9
			c-0.4,0.3-0.5,0.8-0.2,1.2c0.2,0.3,0.4,0.4,0.7,0.4c0.2,0,0.3-0.1,0.5-0.2l12.2-8.7l11.8,4.9c0.3,0.1,0.7,0.1,0.9-0.1l9.5-7.5
			C274,435,274.1,434.3,273.8,433.9z"/>
	</g>
	<path class="st0" d="M287,464.7h-4.2v-26c0-0.5-0.4-0.9-0.9-0.9h-8.3c-0.5,0-0.9,0.4-0.9,0.9v26h-3v-17c0-0.5-0.4-0.9-0.9-0.9h-8.3
		c-0.5,0-0.9,0.4-0.9,0.9v17h-3v-18.4c0-0.5-0.4-0.9-0.9-0.9h-8.3c-0.5,0-0.9,0.4-0.9,0.9v18.4h-3v-13.1c0-0.5-0.4-0.9-0.9-0.9h-8.3
		c-0.5,0-0.9,0.4-0.9,0.9v13.1h-4.2c-0.5,0-0.9,0.4-0.9,0.9s0.4,0.9,0.9,0.9h5.1h8.3h4.9h8.3h4.8h8.3h4.8h8.3h5.1
		c0.5,0,0.9-0.4,0.9-0.9C287.9,465.1,287.5,464.7,287,464.7z M241.6,464.7h-6.5v-12.2h6.5V464.7z M254.8,464.7h-6.5v-17.5h6.5V464.7
		z M267.9,464.7h-6.5v-16.1h6.5V464.7z M281,464.7h-6.5v-25.1h6.5V464.7z"/>
</g>
</svg>
