<?xml version="1.0" encoding="utf-8"?>
<!-- Generator: Adobe Illustrator 23.0.3, SVG Export Plug-In . SVG Version: 6.00 Build 0)  -->
<svg version="1.1" id="Capa_1" xmlns="http://www.w3.org/2000/svg" xmlns:xlink="http://www.w3.org/1999/xlink" x="0px" y="0px"
	 viewBox="258.3 360.3 60.6 50" style="enable-background:new 258.3 360.3 60.6 50;" xml:space="preserve">
<style type="text/css">
	.st0{fill:#3E7CCC;}
</style>
<g>
	<path class="st0" d="M315,360.3h-5.7c-0.5,0-0.9,0.4-0.9,0.9c0,0.5,0.4,0.9,0.9,0.9h5.7c1.1,0,2,0.9,2,2v13.7c0,1.1-0.9,2-2,2h-21
		c-0.2,0-0.5,0.1-0.6,0.3l-5.2,5.2v-4.5c0-0.5-0.4-0.9-0.9-0.9h-1.7c-1.1,0-2-0.9-2-2v-13.7c0-1.1,0.9-2,2-2h26.8
		c0.5,0,0.9-0.4,0.9-0.9c0-0.5-0.4-0.9-0.9-0.9h-26.8c-2.1,0-3.8,1.7-3.8,3.8v13.7c0,2.1,1.7,3.8,3.8,3.8h0.8v5.8
		c0,0.4,0.2,0.7,0.6,0.8c0.1,0,0.2,0.1,0.3,0.1c0.2,0,0.5-0.1,0.6-0.3l6.4-6.4H315c2.1,0,3.8-1.7,3.8-3.8v-13.7
		C318.8,362,317.1,360.3,315,360.3z"/>
	<path class="st0" d="M295.4,391.5c-0.5-0.5-1.1-0.7-1.7-0.7s-1.3,0.3-1.7,0.7l-5.5,5.5c-2.2-1.1-4.1-2.2-6.2-4
		c-0.4-0.3-0.9-0.3-1.3,0.1c-0.3,0.4-0.3,0.9,0.1,1.3c2.5,2.1,4.6,3.2,7.1,4.5c0.3,0.2,0.8,0.1,1-0.2l3-3l9.7,9.7
		c-3.1,2.7-7.6,3.6-12.7,2.6c-5.7-1.1-11.7-4.6-16.9-9.9s-8.7-11.3-9.9-16.9c-1-5.1-0.1-9.5,2.6-12.7l9.7,9.7l-3,3
		c-0.3,0.3-0.3,0.7-0.2,1c1.8,3.5,3.2,6,6.8,9.6c0.4,0.4,0.9,0.4,1.3,0c0.4-0.4,0.4-0.9,0-1.3c-3.2-3.2-4.6-5.5-6.2-8.6l5.5-5.5
		c0.5-0.5,0.7-1.1,0.7-1.7s-0.3-1.3-0.7-1.7l-8.8-8.8c-0.5-0.5-1.1-0.7-1.7-0.7s-1.3,0.3-1.7,0.7l-2.4,2.4
		c-3.6,3.6-4.9,8.9-3.7,14.9c1.2,6,4.9,12.4,10.3,17.9c5.5,5.5,11.8,9.2,17.9,10.3c1.4,0.3,2.8,0.4,4.2,0.4c4.3,0,8-1.4,10.8-4.2
		l2.4-2.4c0.5-0.5,0.7-1.1,0.7-1.7s-0.3-1.3-0.7-1.7L295.4,391.5z M266.1,365.6c0.1-0.1,0.3-0.2,0.5-0.2c0.2,0,0.4,0.1,0.5,0.2
		l8.8,8.8c0.1,0.1,0.2,0.3,0.2,0.5c0,0.2-0.1,0.4-0.2,0.5l-1.7,1.7l-9.8-9.8L266.1,365.6z M302.9,402.5l-1.7,1.7l-9.8-9.8l1.7-1.7
		c0.1-0.1,0.3-0.2,0.5-0.2c0.2,0,0.4,0.1,0.5,0.2l8.8,8.8C303.2,401.8,303.2,402.2,302.9,402.5z"/>
	<g>
		<path class="st0" d="M297.3,376.5l0.4-2.9h-1.4v-1.8h1.7l0.3-1.7h-1.4v-1.8h1.7l0.4-2.8h1.7l-0.4,2.8h1.5l0.4-2.8h1.7l-0.4,2.8
			h1.3v1.8h-1.6l-0.3,1.7h1.4v1.8h-1.7l-0.4,2.9h-1.7l0.4-2.9h-1.5l-0.4,2.9H297.3z M301.2,371.8l0.3-1.7H300l-0.2,1.7H301.2z"/>
	</g>
</g>
</svg>
