<?xml version="1.0" encoding="utf-8"?>
<!-- Generator: Adobe Illustrator 23.0.3, SVG Export Plug-In . SVG Version: 6.00 Build 0)  -->
<svg version="1.1" id="Capa_1" xmlns="http://www.w3.org/2000/svg" xmlns:xlink="http://www.w3.org/1999/xlink" x="0px" y="0px"
	 viewBox="301.5 375.4 51.4 49" style="enable-background:new 301.5 375.4 51.4 49;" xml:space="preserve">
<style type="text/css">
	.st0{fill:#3E7CCC;}
</style>
<path class="st0" d="M327.2,403.1l-1.4-1.4l-4.2,4.2l-1.7-1.7l4.2-4.2l-1.4-1.4l-1.1,1.1l-3.2,3.2l-0.7-0.7c-0.8-0.8-2-0.8-2.8,0
	l-1,1c-0.7,0.7-0.8,1.9-0.1,2.7l-11.6,11.6c-0.8,0.7-0.8,2-0.1,2.8c0,0,0,0,0.1,0.1l3.3,3.3c0.7,0.8,2,0.8,2.8,0.1c0,0,0,0,0.1-0.1
	l11.6-11.6c0.8,0.7,2,0.6,2.7-0.1l1-1c0.8-0.7,0.8-2,0.1-2.8c0,0,0,0-0.1-0.1l-0.7-0.7l3.1-3.2L327.2,403.1z M307.1,422.3l-3.4-3.3
	l11.7-11.6l1.7,1.7l1.6,1.7L307.1,422.3z M321.4,410.5l-1.3-1.3l-0.5-0.5l-4.1-4.1l1-1l5.9,6L321.4,410.5z"/>
<path class="st0" d="M351.3,378.1l-3.4-3.4c-0.3-0.3-0.8-0.4-1.2-0.1l-6.7,4c-0.3,0.2-0.5,0.5-0.5,0.8l-0.1,2.8l-11.7,11.7l-1.7,1.7
	l1.4,1.4l13.7-13.7c0.2-0.2,0.3-0.4,0.3-0.7l0.1-2.6l5.6-3.3l2.4,2.4l-3.2,5.6l-2.7,0.1c-0.3,0-0.5,0.1-0.7,0.3l-13.7,13.7l1.4,1.4
	l1.7-1.7l11.7-11.6l2.8-0.1c0.3,0,0.6-0.2,0.8-0.5l4-6.7C351.7,378.9,351.6,378.4,351.3,378.1z"/>
<path class="st0" d="M335.3,413.9c-0.8,4.9,2.5,9.5,7.4,10.3c2.9,0.5,5.8-0.5,7.9-2.6c0.4-0.4,0.3-1-0.1-1.4
	c-0.1-0.1-0.2-0.2-0.4-0.2l-5.5-1.5c-0.5-0.2-1-0.6-1.2-1.1c-0.3-0.7-0.3-1.6-0.1-2.3c0.4-1.5,1.7-2.6,2.8-2.3l5.5,1.5
	c0.1,0,0.2,0,0.3,0c0.5,0,1-0.4,1-1c0-0.2,0-0.3-0.1-0.5c-0.4-1.4-1.2-2.7-2.3-3.8c-1.7-1.7-4-2.6-6.3-2.6c-1.2,0-2.4,0.2-3.5,0.7
	l-21.3-21.3c0.8-4.9-2.4-9.5-7.3-10.4c-2.3-0.4-4.6,0.1-6.5,1.4c-0.4,0.3-0.6,0.9-0.3,1.4c0.1,0.1,0.2,0.2,0.3,0.3l4.5,2.5
	c1,0.6,1.2,2.2,0.4,3.6c-0.8,1.4-2.3,2.1-3.3,1.6l-4.1-2.2c-0.5-0.3-1.1-0.1-1.3,0.4c-0.1,0.2-0.1,0.3-0.1,0.5
	c0.3,4.9,4.6,8.7,9.5,8.4c1-0.1,2-0.3,3-0.7L335.3,413.9z M330.4,397 M346.6,410.9c-0.3-0.1-0.6-0.1-0.9-0.1
	c-2.1,0.2-3.9,1.7-4.3,3.8c-0.3,1.2-0.3,2.4,0.2,3.6c0.4,1.1,1.3,1.9,2.5,2.3l3.6,1c-3.3,2-7.6,0.9-9.6-2.4
	c-0.9-1.6-1.2-3.4-0.8-5.2c0.1-0.3,0-0.7-0.3-0.9l-22.1-22.1c-0.3-0.3-0.8-0.4-1.2-0.1c-1,0.5-2.1,0.8-3.3,0.8c-3,0-5.6-1.8-6.6-4.6
	l2.2,1.2c0.5,0.3,1.1,0.4,1.7,0.4c1.8-0.1,3.4-1.2,4.3-2.8c1.3-2.4,0.8-5.2-1.1-6.3l-2.9-1.6c3.6-1.3,7.7,0.6,9,4.2
	c0.5,1.3,0.5,2.6,0.2,3.9c-0.1,0.3,0,0.7,0.3,0.9l22.2,22.2c0.3,0.3,0.8,0.4,1.1,0.2c1-0.5,2.1-0.8,3.3-0.8c2.5,0,4.8,1.3,6,3.5
	L346.6,410.9z"/>
</svg>
