<?xml version="1.0" encoding="utf-8"?>
<!-- Generator: Adobe Illustrator 23.0.3, SVG Export Plug-In . SVG Version: 6.00 Build 0)  -->
<svg version="1.1" id="Capa_1" xmlns="http://www.w3.org/2000/svg" xmlns:xlink="http://www.w3.org/1999/xlink" x="0px" y="0px"
	 viewBox="175 375.3 64 43.4" style="enable-background:new 175 375.3 64 43.4;" xml:space="preserve">
<style type="text/css">
	.st0{fill:#3E7CCC;}
</style>
<path class="st0" d="M202.9,385.6c-4.5,0-8.3,3.7-8.3,8.3s3.7,8.3,8.3,8.3c4.5,0,8.3-3.7,8.3-8.3S207.4,385.6,202.9,385.6z
	 M202.9,400.1c-3.4,0-6.2-2.8-6.2-6.2c0-3.4,2.8-6.2,6.2-6.2c3.4,0,6.2,2.8,6.2,6.2C209.1,397.3,206.3,400.1,202.9,400.1z"/>
<polygon class="st0" points="201.8,394.4 200.5,393.2 199.1,394.6 201.9,397.5 206.8,391.5 205.2,390.2 "/>
<path class="st0" d="M235.9,398v-4.1c0-3.5-2.1-6.4-5.2-7.6v-10.9H175v37.2h18.2l-2.1,6.2h23.5l-2.1-6.2h3.7v3.1
	c0,1.7,1.4,3.1,3.1,3.1h16.5c1.7,0,3.1-1.4,3.1-3.1v-14.5C239,399.4,237.6,398,235.9,398z M216.3,401.1v4.1h-34.1v-22.7h41.3v4.1
	h0.1c-0.7,0.4-1.3,0.8-1.8,1.4c-1.6,1.6-2.4,3.6-2.4,5.8v4.1C217.7,398,216.3,399.4,216.3,401.1z M233.8,393.9v4.1l-12.4,0v-4.1
	c0-1.7,0.6-3.2,1.8-4.4c1.2-1.2,2.7-1.8,4.4-1.8h0C231.1,387.7,233.8,390.5,233.8,393.9z M211.8,416.6H194l1.4-4.1h15L211.8,416.6z
	 M211.9,410.4h-18h-16.8v-33h51.6v8.3c-0.3,0-0.7-0.1-1-0.1c0,0,0,0,0,0c-0.7,0-1.4,0.1-2.1,0.3v-5.4h-45.4v26.8h36.1v3.1
	L211.9,410.4L211.9,410.4z M236.9,415.6c0,0.6-0.5,1-1,1h-16.5c-0.6,0-1-0.5-1-1v-14.5c0-0.6,0.5-1,1-1h15.4h1.1l0,0
	c0.6,0,1,0.5,1,1V415.6z"/>
<rect x="222.5" y="407.3" class="st0" width="2.1" height="2.1"/>
<rect x="226.6" y="407.3" class="st0" width="2.1" height="2.1"/>
<rect x="230.7" y="407.3" class="st0" width="2.1" height="2.1"/>
</svg>
