<?xml version="1.0" encoding="utf-8"?>
<!-- Generator: Adobe Illustrator 23.0.3, SVG Export Plug-In . SVG Version: 6.00 Build 0)  -->
<svg version="1.1" id="Capa_1" xmlns="http://www.w3.org/2000/svg" xmlns:xlink="http://www.w3.org/1999/xlink" x="0px" y="0px"
	 viewBox="183.3 365 47.5 64" style="enable-background:new 183.3 365 47.5 64;" xml:space="preserve">
<style type="text/css">
	.st0{fill:#FFFFFF;}
	.st1{fill:#3E7CCC;}
</style>
<rect x="212.2" y="417.6" class="st0" width="5.2" height="2.1"/>
<path class="st1" d="M230.7,388.7c0-5.7-2-11.1-5.7-15.4l0,0l-0.7-0.7c-4.5-4.8-10.8-7.5-17.4-7.5c-0.8,0-1.6,0-2.4,0.1
	c-0.8,0.1-1.6,0.2-2.4,0.4c-0.4,0.1-0.8,0.2-1.2,0.3c-4.3,1.1-8.3,3.5-11.3,6.8l-0.7,0.7l0,0c-3.7,4.3-5.7,9.8-5.7,15.4
	c0,6,2.3,11.8,6.4,16.2c1.8,2,4,3.6,6.4,4.9c-0.5,0.3-0.9,0.7-1.3,1c-1.4,1.4-2.3,3.3-2.5,5.3l-0.9,12.8h31.1l-0.9-12.8v0
	c-0.2-2-1-3.9-2.5-5.3c-0.4-0.4-0.8-0.7-1.3-1.1c2.4-1.2,4.6-2.9,6.5-4.9C228.5,400.5,230.7,394.8,230.7,388.7z M197.8,397.8
	c0,0-0.1,0-0.1,0.1c-0.6-2.6-0.9-5.3-1-8.1h9.3v0.1C201.7,390.3,198.4,393.6,197.8,397.8z M185.4,387.7c0.2-4.8,2-9.3,5.1-12.9
	c1.6,1.5,3.4,2.8,5.3,3.9c-0.7,2.8-1,5.8-1.1,9H185.4z M191.9,373.2c0.5-0.4,0.9-0.9,1.4-1.3c0.1-0.1,0.1-0.1,0.2-0.2
	c0.5-0.4,1-0.7,1.5-1.1c0.1-0.1,0.2-0.1,0.2-0.2c0.5-0.3,1-0.6,1.6-0.9c0.1-0.1,0.2-0.1,0.3-0.1c0.5-0.3,1.1-0.5,1.6-0.8
	c0.1,0,0.2-0.1,0.3-0.1c0.6-0.2,1.1-0.4,1.7-0.6c0.1,0,0.2-0.1,0.3-0.1h0c-1.9,2-3.5,5-4.6,8.7C194.7,375.7,193.2,374.6,191.9,373.2
	C191.8,373.3,191.8,373.2,191.9,373.2z M213.3,368c0.6,0.2,1.2,0.4,1.7,0.6c0.1,0,0.2,0.1,0.3,0.1c0.6,0.2,1.1,0.5,1.7,0.8
	c0.1,0.1,0.2,0.1,0.3,0.1c0.5,0.3,1.1,0.6,1.6,0.9c0.1,0.1,0.2,0.1,0.2,0.2c0.5,0.3,1,0.7,1.5,1.1c0.1,0.1,0.1,0.1,0.2,0.1
	c0.5,0.4,1,0.8,1.4,1.3c0,0,0,0,0,0c-1.3,1.3-2.9,2.4-4.5,3.3c-1.1-3.6-2.7-6.6-4.6-8.7c0,0,0,0,0,0C213.2,368,213.2,368,213.3,368z
	 M223.6,374.8c3.1,3.6,4.8,8.2,5.1,12.9h-9.3c-0.1-3.2-0.5-6.3-1.1-9C220.2,377.6,222,376.3,223.6,374.8z M206,379.4
	c-2.7-0.1-5.3-0.8-7.7-1.8c1.7-5.6,4.5-9.7,7.7-10.4V379.4z M208,367.2c3.2,0.7,6.1,4.7,7.7,10.4c-2.4,1.1-5.1,1.7-7.7,1.8V367.2z
	 M208,381.5c2.9-0.1,5.7-0.8,8.3-1.9c0.6,2.5,0.9,5.2,1,8.1H208V381.5z M197.7,379.6c2.6,1.1,5.4,1.8,8.3,1.9v6.2h-9.3
	C196.8,384.8,197.1,382.1,197.7,379.6z M207,391.8c4,0,7.2,3.2,7.2,7.2c0,4-3.2,7.2-7.2,7.2c-4,0-7.2-3.2-7.2-7.2
	C199.8,395.1,203,391.8,207,391.8z M208,389.8L208,389.8l9.3-0.1c-0.1,2.8-0.4,5.5-1,8.1c0,0-0.1,0-0.1-0.1
	C215.6,393.6,212.3,390.3,208,389.8z M219.4,389.8h9.3c-0.2,4.8-2,9.3-5.1,12.9c-1.6-1.5-3.4-2.9-5.3-3.9
	C218.9,396,219.3,392.9,219.4,389.8z M185.4,389.8h9.3c0.1,3.1,0.4,6.2,1.1,9c-1.9,1-3.7,2.4-5.3,3.9
	C187.4,399.1,185.6,394.5,185.4,389.8z M219.6,416.3l0.7,10.6h-26.7l0.7-10.6c0.1-1.5,0.8-2.9,1.9-4c1.2-1.2,2.9-1.9,4.6-1.9h1.4
	l4.7,9.4l5.6-9.4h0.7c1.7,0,3.3,0.7,4.6,1.9C218.8,413.4,219.5,414.8,219.6,416.3z M213.2,408.4h-1.8l-4.3,7.1l-3.6-7.1h-2.7
	c-0.8,0-1.6,0.1-2.3,0.3c-2.5-1-4.7-2.6-6.7-4.4c1.7-1.7,3.8-3.1,5.9-4.1c0.5,4.6,4.5,8.3,9.2,8.3c4.8,0,8.7-3.6,9.2-8.3
	c2.2,1,4.2,2.4,5.9,4.1c-1.9,1.9-4.1,3.4-6.6,4.4l0,0.1C214.8,408.5,214,408.4,213.2,408.4z"/>
</svg>
