<?xml version="1.0" encoding="utf-8"?>
<!-- Generator: Adobe Illustrator 23.0.3, SVG Export Plug-In . SVG Version: 6.00 Build 0)  -->
<svg version="1.1" id="Capa_1" xmlns="http://www.w3.org/2000/svg" xmlns:xlink="http://www.w3.org/1999/xlink" x="0px" y="0px"
	 viewBox="188.5 365 36.8 61.8" style="enable-background:new 188.5 365 36.8 61.8;" xml:space="preserve">
<style type="text/css">
	.st0{fill:#3E7CCC;}
</style>
<path class="st0" d="M219.9,402.6c1.6-11.9-1.6-24.3-9.2-33.3L207,365l-3.7,4.3c-7.6,9-10.8,21.4-9.2,33.3
	c-3.5,3.5-5.5,8.2-5.5,13.1c0,3,0.8,6,2.2,8.7l1.3,2.4l0.6-2.7c0.7-3.4,2.6-6.3,5.3-8.4c0.4,0.9,0.9,1.7,1.3,2.6l0.3,0.5h14.7
	l0.3-0.5c0.5-0.8,0.9-1.7,1.3-2.6c2.7,2.1,4.6,5.1,5.3,8.4l0.6,2.7l1.3-2.4c1.4-2.7,2.2-5.7,2.2-8.7
	C225.4,410.8,223.4,406,219.9,402.6z M204.9,370.6l2.1-2.5l2.1,2.5c1.4,1.6,2.6,3.3,3.6,5.2h-11.5
	C202.3,374,203.5,372.2,204.9,370.6z M191.5,421c-0.6-1.7-0.9-3.5-0.9-5.3c0-3.9,1.4-7.6,3.9-10.6c0.6,3,1.4,5.9,2.6,8.7
	C194.6,415.6,192.6,418.1,191.5,421z M213.1,416.7h-12.3c-6.7-11.9-6.7-27-0.7-38.9h13.7C219.8,389.7,219.8,404.8,213.1,416.7z
	 M222.5,421c-1.2-2.9-3.1-5.3-5.6-7.2c1.2-2.8,2.1-5.7,2.6-8.7c2.5,2.9,3.9,6.7,3.9,10.6C223.3,417.5,223,419.3,222.5,421z"/>
<rect x="205.9" y="408.5" class="st0" width="2.1" height="2"/>
<rect x="201.8" y="408.5" class="st0" width="2.1" height="2"/>
<rect x="210" y="408.5" class="st0" width="2.1" height="2"/>
<path class="st0" d="M207,398.3c2.8,0,5.1-2.3,5.1-5.1s-2.3-5.1-5.1-5.1s-5.1,2.3-5.1,5.1S204.1,398.3,207,398.3z M207,390.1
	c1.7,0,3.1,1.4,3.1,3.1c0,1.7-1.4,3.1-3.1,3.1c-1.7,0-3.1-1.4-3.1-3.1C203.9,391.5,205.3,390.1,207,390.1z"/>
<rect x="205.9" y="420.8" class="st0" width="2" height="5.1"/>
<rect x="211.1" y="423.9" class="st0" width="2" height="5.1"/>
<rect x="200.8" y="423.9" class="st0" width="2" height="5.1"/>
</svg>
