<?xml version="1.0" encoding="utf-8"?>
<!-- Generator: Adobe Illustrator 16.0.0, SVG Export Plug-In . SVG Version: 6.00 Build 0)  -->
<!DOCTYPE svg PUBLIC "-//W3C//DTD SVG 1.1//EN" "http://www.w3.org/Graphics/SVG/1.1/DTD/svg11.dtd">
<svg version="1.1" id="Layer_1" xmlns="http://www.w3.org/2000/svg" xmlns:xlink="http://www.w3.org/1999/xlink" x="0px" y="0px"
	 width="24px" height="24px" viewBox="0 0 24 24" enable-background="new 0 0 24 24" xml:space="preserve">
<linearGradient id="SVGID_1_" gradientUnits="userSpaceOnUse" x1="0" y1="12" x2="24" y2="12">
	<stop  offset="0" style="stop-color:#9D1F61"/>
	<stop  offset="1" style="stop-color:#EB222A"/>
</linearGradient>
<path fill-rule="evenodd" clip-rule="evenodd" fill="url(#SVGID_1_)" d="M12,0c6.646,0,12,5.384,12,12c0,6.646-5.354,12-12,12
	C5.385,24,0,18.646,0,12C0,5.384,5.385,0,12,0L12,0z"/>
<g>
	<path fill="#FFFFFF" d="M9.292,18.601c-0.438,0-0.875-0.167-1.209-0.501l-3.455-3.454c-0.668-0.668-0.668-1.751,0-2.419
		c0.668-0.667,1.75-0.667,2.418,0l2.246,2.246l7.207-7.207c0.668-0.668,1.75-0.668,2.418,0c0.668,0.667,0.668,1.75,0,2.418
		L10.501,18.1C10.167,18.434,9.729,18.601,9.292,18.601z"/>
</g>
</svg>
