<?xml version="1.0" encoding="utf-8"?>
<!-- Generator: Adobe Illustrator 16.0.0, SVG Export Plug-In . SVG Version: 6.00 Build 0)  -->
<!DOCTYPE svg PUBLIC "-//W3C//DTD SVG 1.1//EN" "http://www.w3.org/Graphics/SVG/1.1/DTD/svg11.dtd">
<svg version="1.1" id="layer_1" xmlns="http://www.w3.org/2000/svg" xmlns:xlink="http://www.w3.org/1999/xlink" x="0px" y="0px"
	 width="285px" height="246.818px" viewBox="0 0 285 246.818" enable-background="new 0 0 285 246.818" xml:space="preserve">
<path fill="#CCD5D5" d="M285,123.409c0,0-63.801,79.166-142.499,79.166C63.799,202.575,0,123.409,0,123.409
	S63.799,44.24,142.501,44.24C221.199,44.24,285,123.409,285,123.409z"/>
<linearGradient id="SVGID_1_" gradientUnits="userSpaceOnUse" x1="90.5732" y1="123.4092" x2="217.2441" y2="123.4092">
	<stop  offset="0" style="stop-color:#9D1F60"/>
	<stop  offset="1" style="stop-color:#EC1E28"/>
</linearGradient>
<path fill="url(#SVGID_1_)" d="M217.244,123.409c0,34.979-28.35,63.334-63.334,63.334c-34.976,0-63.336-28.355-63.336-63.334
	s28.36-63.333,63.336-63.333C188.895,60.077,217.244,88.431,217.244,123.409z"/>
<path fill="#212121" d="M181.615,123.409c0,15.305-12.406,27.709-27.706,27.709c-15.305,0-27.711-12.404-27.711-27.709
	c0-15.303,12.406-27.708,27.711-27.708C169.209,95.701,181.615,108.106,181.615,123.409z"/>
<circle fill="#FFDE00" cx="132.7" cy="104.822" r="14.896"/>
<path fill="#212121" d="M277.332,118.184h-8.162c-2.664-59.476-50.549-107.369-110.029-110.04V0h-10.448v8.144
	c-59.48,2.66-107.385,50.558-110.049,110.04h-8.126v10.448h8.126c2.671,59.486,50.569,107.383,110.049,110.043v8.144h10.448v-8.144
	c59.48-2.67,107.365-50.564,110.029-110.043h8.162V118.184z M159.141,228.227v-7.88h-10.448v7.882
	c-53.72-2.644-96.947-45.871-99.599-99.597h7.888v-10.448h-7.888c2.642-53.723,45.879-96.948,99.599-99.589v7.879h10.448v-7.879
	c53.723,2.65,96.941,45.873,99.586,99.589h-7.865v10.448h7.865C256.082,182.351,212.857,225.575,159.141,228.227z"/>
<path fill="#9D1F60" d="M43.734,48.656c-2.88,0-5.224-2.338-5.224-5.226V13.236c0-2.885,2.343-5.222,5.224-5.222h30.195
	c2.887,0,5.227,2.337,5.227,5.222c0,2.887-2.34,5.226-5.227,5.226H48.961v24.969C48.961,46.318,46.624,48.656,43.734,48.656z"/>
<path fill="#9D1F60" d="M264.08,238.806h-30.195c-2.883,0-5.219-2.336-5.219-5.222s2.336-5.224,5.219-5.224h24.973v-24.975
	c0-2.885,2.346-5.224,5.223-5.224c2.887,0,5.225,2.339,5.225,5.224v30.198C269.305,236.47,266.967,238.806,264.08,238.806z"/>
<path fill="#9D1F60" d="M73.929,238.806H43.734c-2.88,0-5.224-2.336-5.224-5.222v-30.198c0-2.885,2.343-5.224,5.224-5.224
	c2.89,0,5.227,2.339,5.227,5.224v24.975h24.968c2.887,0,5.227,2.338,5.227,5.224S76.816,238.806,73.929,238.806z"/>
<path fill="#9D1F60" d="M264.08,48.656c-2.877,0-5.223-2.338-5.223-5.226V18.461h-24.973c-2.883,0-5.219-2.338-5.219-5.226
	c0-2.885,2.336-5.222,5.219-5.222h30.195c2.887,0,5.225,2.337,5.225,5.222v30.195C269.305,46.318,266.967,48.656,264.08,48.656z"/>
</svg>
