<?xml version="1.0" encoding="utf-8"?>
<!-- Generator: Adobe Illustrator 16.0.0, SVG Export Plug-In . SVG Version: 6.00 Build 0)  -->
<!DOCTYPE svg PUBLIC "-//W3C//DTD SVG 1.1//EN" "http://www.w3.org/Graphics/SVG/1.1/DTD/svg11.dtd">
<svg version="1.1" id="layer_1" xmlns="http://www.w3.org/2000/svg" xmlns:xlink="http://www.w3.org/1999/xlink" x="0px" y="0px"
	 width="285px" height="296px" viewBox="0 0 285 296" enable-background="new 0 0 285 296" xml:space="preserve">
<g>
	<rect y="16.443" fill="#CCD5D5" width="187.343" height="234.284"/>
	<rect x="12.269" y="45.627" fill="#B6C0C0" width="144.498" height="193.855"/>
	<rect x="21.993" y="35.892" fill="#CCD5D5" width="144.499" height="193.866"/>
	<rect x="31.723" y="26.173" fill="#FFFFFF" width="144.499" height="193.854"/>
	<g>
		<path fill="#212121" d="M55.336,0c-9.068,0-16.449,7.381-16.449,16.443h6.708c0-5.372,4.369-9.736,9.741-9.736
			c5.366,0,9.741,4.364,9.741,9.736v7.225c0,5.372-4.375,9.736-9.741,9.736v6.707c9.062,0,16.443-7.381,16.443-16.443v-7.242
			C71.768,7.37,64.392,0,55.336,0z"/>
		<path fill="#212121" d="M100.724,0c-9.062,0-16.443,7.381-16.443,16.443h6.702c0-5.372,4.37-9.736,9.741-9.736
			c5.372,0,9.741,4.364,9.741,9.736v7.225c0,5.372-4.37,9.736-9.741,9.736v6.707c9.067,0,16.443-7.381,16.443-16.443v-7.242
			C117.156,7.37,109.786,0,100.724,0z"/>
		<path fill="#212121" d="M146.112,0c-9.063,0-16.443,7.381-16.443,16.443h6.703c0-5.372,4.369-9.736,9.74-9.736
			s9.741,4.364,9.741,9.736v7.225c0,5.372-4.37,9.736-9.741,9.736v6.707c9.068,0,16.443-7.381,16.443-16.443v-7.242
			C162.55,7.37,155.175,0,146.112,0z"/>
	</g>
	<rect x="80.167" y="58.263" fill="#212121" width="75.797" height="5.021"/>
	<rect x="80.167" y="74.473" fill="#212121" width="59.583" height="5.026"/>
	<rect x="80.167" y="97.167" fill="#212121" width="75.797" height="5.032"/>
	<rect x="80.167" y="113.376" fill="#212121" width="55.374" height="5.032"/>
	<rect x="80.167" y="136.076" fill="#212121" width="27.164" height="5.026"/>
	<rect x="80.167" y="152.285" fill="#212121" width="17.439" height="5.026"/>
	<g>
		<g>
			<linearGradient id="SVGID_1_" gradientUnits="userSpaceOnUse" x1="44.6094" y1="187.2197" x2="67.6318" y2="187.2197">
				<stop  offset="0" style="stop-color:#9D1F60"/>
				<stop  offset="1" style="stop-color:#EC1E28"/>
			</linearGradient>
			<path fill="url(#SVGID_1_)" d="M61.637,175.708H50.61c-3.307,0-6,2.689-6,5.995v11.033c0,3.301,2.694,5.994,6,5.994h11.027
				c3.306,0,5.995-2.693,5.995-5.994v-11.033C67.632,178.397,64.943,175.708,61.637,175.708z M64.281,192.736
				c0,1.457-1.181,2.645-2.644,2.645H50.61c-1.464,0-2.644-1.188-2.644-2.645v-11.033c0-1.458,1.18-2.644,2.644-2.644h11.027
				c1.463,0,2.644,1.186,2.644,2.644V192.736z"/>
			<linearGradient id="SVGID_2_" gradientUnits="userSpaceOnUse" x1="44.6094" y1="70.5039" x2="67.6318" y2="70.5039">
				<stop  offset="0" style="stop-color:#9D1F60"/>
				<stop  offset="1" style="stop-color:#EC1E28"/>
			</linearGradient>
			<path fill="url(#SVGID_2_)" d="M61.637,58.987H50.61c-3.307,0-6,2.694-6,6v11.027c0,3.307,2.694,6.006,6,6.006h11.027
				c3.306,0,5.995-2.699,5.995-6.006V64.987C67.632,61.681,64.943,58.987,61.637,58.987z M64.281,76.015
				c0,1.464-1.181,2.655-2.644,2.655H50.61c-1.464,0-2.644-1.191-2.644-2.655V64.987c0-1.458,1.18-2.649,2.644-2.649h11.027
				c1.463,0,2.644,1.191,2.644,2.649V76.015z"/>
			<linearGradient id="SVGID_3_" gradientUnits="userSpaceOnUse" x1="44.6094" y1="109.4072" x2="67.6318" y2="109.4072">
				<stop  offset="0" style="stop-color:#9D1F60"/>
				<stop  offset="1" style="stop-color:#EC1E28"/>
			</linearGradient>
			<path fill="url(#SVGID_3_)" d="M61.637,97.891H50.61c-3.307,0-6,2.694-6,6v11.032c0,3.307,2.694,6.001,6,6.001h11.027
				c3.306,0,5.995-2.694,5.995-6.001v-11.032C67.632,100.584,64.943,97.891,61.637,97.891z M64.281,114.923
				c0,1.459-1.181,2.65-2.644,2.65H50.61c-1.464,0-2.644-1.191-2.644-2.65v-11.032c0-1.458,1.18-2.649,2.644-2.649h11.027
				c1.463,0,2.644,1.191,2.644,2.649V114.923z"/>
			<linearGradient id="SVGID_4_" gradientUnits="userSpaceOnUse" x1="44.6094" y1="148.3135" x2="67.6318" y2="148.3135">
				<stop  offset="0" style="stop-color:#9D1F60"/>
				<stop  offset="1" style="stop-color:#EC1E28"/>
			</linearGradient>
			<path fill="url(#SVGID_4_)" d="M61.637,136.8H50.61c-3.307,0-6,2.694-6,6v11.027c0,3.306,2.694,6,6,6h11.027
				c3.306,0,5.995-2.694,5.995-6V142.8C67.632,139.494,64.943,136.8,61.637,136.8z M64.281,153.827c0,1.458-1.181,2.65-2.644,2.65
				H50.61c-1.464,0-2.644-1.191-2.644-2.65V142.8c0-1.464,1.18-2.655,2.644-2.655h11.027c1.463,0,2.644,1.191,2.644,2.655V153.827z"
				/>
		</g>
	</g>
	<path fill="#212121" d="M55.932,75.686c-0.596,0-1.175-0.267-1.554-0.729L49.073,68.5c-0.707-0.857-0.579-2.126,0.278-2.828
		c0.852-0.712,2.121-0.584,2.828,0.273l3.563,4.33l9.04-13.949c0.601-0.93,1.843-1.197,2.778-0.59
		c0.929,0.606,1.197,1.848,0.59,2.777l-10.532,16.26c-0.35,0.534-0.935,0.879-1.575,0.907C56.003,75.686,55.97,75.686,55.932,75.686
		z"/>
	<path fill="#212121" d="M55.932,114.59c-0.596,0-1.175-0.267-1.554-0.729l-5.305-6.457c-0.707-0.858-0.579-2.127,0.278-2.828
		c0.852-0.707,2.121-0.584,2.828,0.273l3.563,4.331l9.04-13.938c0.601-0.935,1.843-1.202,2.778-0.601
		c0.929,0.607,1.197,1.848,0.59,2.783l-10.532,16.254c-0.35,0.534-0.935,0.879-1.575,0.913
		C56.003,114.59,55.97,114.59,55.932,114.59z"/>
	<path fill="#FFFFFF" d="M128.989,208.383c0-29.028,23.533-52.562,52.562-52.562v-17.531c-38.704,0-70.086,31.388-70.086,70.092
		c0,38.711,31.382,70.086,70.086,70.086v-17.52C152.522,260.949,128.989,237.418,128.989,208.383z"/>
	<path fill="#FFFFFF" d="M164.026,208.383c0-9.676,7.848-17.518,17.524-17.518v-17.531c-19.353,0-35.043,15.691-35.043,35.049
		c0,19.352,15.69,35.043,35.043,35.043v-17.52C171.874,225.906,164.026,218.059,164.026,208.383z"/>
	<path fill="#FFFFFF" d="M251.644,208.383c0-38.705-31.381-70.092-70.093-70.092v17.531c29.034,0,52.567,23.533,52.567,52.562
		c0,29.035-23.533,52.566-52.567,52.566v17.52C220.263,278.469,251.644,247.094,251.644,208.383z"/>
	<path fill="#FFFFFF" d="M216.594,208.383c0-19.357-15.685-35.049-35.043-35.049v17.531c9.677,0,17.524,7.842,17.524,17.518
		s-7.848,17.523-17.524,17.523v17.52C200.909,243.426,216.594,227.734,216.594,208.383z"/>
	<g>
		<linearGradient id="SVGID_5_" gradientUnits="userSpaceOnUse" x1="93.9399" y1="208.3848" x2="269.1621" y2="208.3848">
			<stop  offset="0" style="stop-color:#9D1F60"/>
			<stop  offset="1" style="stop-color:#EC1E28"/>
		</linearGradient>
		<path fill="url(#SVGID_5_)" d="M181.551,120.772c-48.381,0-87.611,39.224-87.611,87.611c0,48.381,39.23,87.617,87.611,87.617
			c48.387,0,87.611-39.236,87.611-87.617C269.162,159.996,229.938,120.772,181.551,120.772z M181.551,278.469
			c-38.704,0-70.086-31.375-70.086-70.086c0-38.705,31.382-70.092,70.086-70.092c38.712,0,70.093,31.388,70.093,70.092
			C251.644,247.094,220.263,278.469,181.551,278.469z"/>
		<linearGradient id="SVGID_6_" gradientUnits="userSpaceOnUse" x1="128.9893" y1="208.3848" x2="234.1191" y2="208.3848">
			<stop  offset="0" style="stop-color:#9D1F60"/>
			<stop  offset="1" style="stop-color:#EC1E28"/>
		</linearGradient>
		<path fill="url(#SVGID_6_)" d="M181.551,155.821c-29.028,0-52.562,23.533-52.562,52.562c0,29.035,23.533,52.566,52.562,52.566
			c29.034,0,52.567-23.531,52.567-52.566C234.118,179.354,210.585,155.821,181.551,155.821z M181.551,243.426
			c-19.353,0-35.043-15.691-35.043-35.043c0-19.357,15.69-35.049,35.043-35.049c19.358,0,35.043,15.691,35.043,35.049
			C216.594,227.734,200.909,243.426,181.551,243.426z"/>
		<linearGradient id="SVGID_7_" gradientUnits="userSpaceOnUse" x1="164.0264" y1="208.3848" x2="199.0747" y2="208.3848">
			<stop  offset="0" style="stop-color:#9D1F60"/>
			<stop  offset="1" style="stop-color:#EC1E28"/>
		</linearGradient>
		<circle fill="url(#SVGID_7_)" cx="181.551" cy="208.386" r="17.521"/>
	</g>
	<polygon fill="#FFDE00" points="250.169,167.562 226.854,163.08 222.366,139.771 247.787,104.934 256.979,132.955 285,142.147 	"/>
	<path fill="#212121" d="M263.282,125.837c-3.686-3.237-9.298-2.883-12.547,0.808l-70.605,80.316c-0.66,0.75-0.678,1.887,0,2.666
		c0.73,0.83,2.004,0.92,2.848,0.182l80.305-70.61c0.278-0.242,0.566-0.531,0.814-0.808
		C267.339,134.706,266.98,129.087,263.282,125.837z"/>
	<linearGradient id="SVGID_8_" gradientUnits="userSpaceOnUse" x1="193.8633" y1="103.6694" x2="207.8257" y2="103.6694">
		<stop  offset="0" style="stop-color:#9D1F60"/>
		<stop  offset="1" style="stop-color:#EC1E28"/>
	</linearGradient>
	<rect x="193.863" y="96.685" fill="url(#SVGID_8_)" width="13.962" height="13.969"/>
	<rect x="215.167" y="96.685" fill="#212121" width="13.963" height="13.969"/>
	<linearGradient id="SVGID_9_" gradientUnits="userSpaceOnUse" x1="215.167" y1="82.3652" x2="229.1304" y2="82.3652">
		<stop  offset="0" style="stop-color:#9D1F60"/>
		<stop  offset="1" style="stop-color:#EC1E28"/>
	</linearGradient>
	<rect x="215.167" y="75.381" fill="url(#SVGID_9_)" width="13.963" height="13.969"/>
	<rect x="236.472" y="75.381" fill="#212121" width="13.957" height="13.969"/>
	<rect x="257.775" y="75.381" fill="#212121" width="13.963" height="13.969"/>
	<rect x="257.775" y="54.082" fill="#212121" width="13.963" height="13.963"/>
	<linearGradient id="SVGID_10_" gradientUnits="userSpaceOnUse" x1="236.4717" y1="61.0635" x2="250.4292" y2="61.0635">
		<stop  offset="0" style="stop-color:#9D1F60"/>
		<stop  offset="1" style="stop-color:#EC1E28"/>
	</linearGradient>
	<rect x="236.472" y="54.082" fill="url(#SVGID_10_)" width="13.957" height="13.963"/>
	<linearGradient id="SVGID_11_" gradientUnits="userSpaceOnUse" x1="257.7754" y1="39.7598" x2="271.7383" y2="39.7598">
		<stop  offset="0" style="stop-color:#9D1F60"/>
		<stop  offset="1" style="stop-color:#EC1E28"/>
	</linearGradient>
	<rect x="257.775" y="32.778" fill="url(#SVGID_11_)" width="13.963" height="13.963"/>
	<linearGradient id="SVGID_12_" gradientUnits="userSpaceOnUse" x1="194.04" y1="86.5752" x2="207.6543" y2="86.5752">
		<stop  offset="0" style="stop-color:#9D1F60"/>
		<stop  offset="1" style="stop-color:#EC1E28"/>
	</linearGradient>
	<path fill="url(#SVGID_12_)" d="M199.188,93.513c-0.536,0-1.038-0.242-1.374-0.654l-3.367-4.099
		c-0.625-0.755-0.519-1.875,0.242-2.494c0.755-0.631,1.875-0.513,2.494,0.248l1.834,2.223l5.371-8.291
		c0.531-0.82,1.634-1.056,2.453-0.525c0.825,0.531,1.063,1.628,0.525,2.453l-6.693,10.325c-0.307,0.478-0.824,0.772-1.391,0.808
		C199.247,93.507,199.218,93.513,199.188,93.513z"/>
	<linearGradient id="SVGID_13_" gradientUnits="userSpaceOnUse" x1="215.3428" y1="65.2695" x2="228.9551" y2="65.2695">
		<stop  offset="0" style="stop-color:#9D1F60"/>
		<stop  offset="1" style="stop-color:#EC1E28"/>
	</linearGradient>
	<path fill="url(#SVGID_13_)" d="M220.485,72.208c-0.524,0-1.031-0.236-1.367-0.649l-3.373-4.104
		c-0.619-0.755-0.514-1.875,0.248-2.494c0.754-0.625,1.881-0.519,2.494,0.248l1.828,2.223l5.371-8.29
		c0.536-0.82,1.639-1.062,2.459-0.525c0.825,0.531,1.056,1.633,0.525,2.453L221.972,71.4c-0.307,0.472-0.819,0.778-1.386,0.802
		C220.551,72.203,220.515,72.208,220.485,72.208z"/>
</g>
</svg>
