<?xml version="1.0" encoding="utf-8"?>
<!-- Generator: Adobe Illustrator 16.0.0, SVG Export Plug-In . SVG Version: 6.00 Build 0)  -->
<!DOCTYPE svg PUBLIC "-//W3C//DTD SVG 1.1//EN" "http://www.w3.org/Graphics/SVG/1.1/DTD/svg11.dtd">
<svg version="1.1" id="layer_1" xmlns="http://www.w3.org/2000/svg" xmlns:xlink="http://www.w3.org/1999/xlink" x="0px" y="0px"
	 width="73.462px" height="80px" viewBox="0 0 73.462 80" enable-background="new 0 0 73.462 80" xml:space="preserve">
<g>
	<path fill="#FFDE00" d="M34.151,62.792l7.187-6.258l7.187,6.258c0,0,6.057-2.545,8.047-12.039c-9.84-2.536-20.626-2.536-30.466,0
		C28.097,60.247,34.151,62.792,34.151,62.792z"/>
	<linearGradient id="SVGID_1_" gradientUnits="userSpaceOnUse" x1="9.2148" y1="65.377" x2="73.4614" y2="65.377">
		<stop  offset="0" style="stop-color:#9D1F60"/>
		<stop  offset="1" style="stop-color:#EC1E28"/>
	</linearGradient>
	<path fill="url(#SVGID_1_)" d="M66.542,54.362c-3.146-1.524-6.502-2.714-9.971-3.609c-1.99,9.494-8.047,12.039-8.047,12.039
		l-7.187-6.258l-7.187,6.258c0,0-6.054-2.545-8.046-12.039c-3.47,0.895-6.825,2.084-9.971,3.608
		c-4.268,2.068-6.919,6.457-6.919,11.199v6.174c0,0,9.534,8.267,32.123,8.267c22.589,0,32.124-8.267,32.124-8.267v-6.174
		C73.461,60.818,70.81,56.429,66.542,54.362z"/>
	<g>
		<polygon fill="#B6C0C0" points="33.575,38.829 33.576,38.83 33.577,38.829 		"/>
		<path fill="#B6C0C0" d="M52.139,49.769c-4.666-4.628-3.096-10.781-3.057-10.926c-2.291,1.66-4.932,2.608-7.745,2.608
			c-2.819,0-5.467-0.952-7.761-2.621c0.002,0.011,1.663,6.26-3.055,10.939c0,3.737,10.815,6.766,10.815,6.766
			s10.817-3.029,10.817-6.766H52.139z"/>
		<polygon fill="#B6C0C0" points="49.084,38.829 49.083,38.842 49.09,38.837 		"/>
	</g>
	<path fill="#212121" d="M46.682,61.188l-5.345-4.654l-5.344,4.654l3.226,3.886L36.76,79.879c1.465,0.076,2.984,0.122,4.577,0.122
		s3.114-0.045,4.578-0.122l-2.458-14.805L46.682,61.188z"/>
	<path fill="#212121" d="M37.907,14.273c0,0,5.539,8.578,19.213,6.738C56.529,7.865,49.261,4.756,41.337,4.756
		c-8.062,0-15.445,3.216-15.807,16.946C25.713,21.473,30.596,15.384,37.907,14.273z"/>
	<path fill="#CCD5D5" d="M57.774,22.693c-0.207-0.021-0.41,0.014-0.611,0.076c0-0.607-0.019-1.189-0.043-1.758
		c-13.674,1.84-19.213-6.738-19.213-6.738c-7.311,1.111-12.193,7.199-12.376,7.429c-0.009,0.351-0.017,0.702-0.017,1.066
		c-0.201-0.062-0.405-0.096-0.613-0.075c-1.437,0.145-2.414,2.328-2.187,4.875c0.228,2.547,1.576,4.496,3.012,4.351
		c0.179-0.018,0.351-0.068,0.515-0.146c1.251,4.927,3.897,9.038,7.334,11.538c2.294,1.669,4.941,2.622,7.763,2.622
		c2.815,0,5.46-0.95,7.753-2.614c3.441-2.5,6.092-6.611,7.344-11.546c0.164,0.078,0.336,0.128,0.517,0.146
		c1.437,0.145,2.784-1.803,3.011-4.351C60.19,25.021,59.21,22.838,57.774,22.693z"/>
	<path fill="#212121" d="M52.568,40.496H41.263c-0.39,0-0.706-0.316-0.706-0.706c0-0.39,0.316-0.705,0.706-0.705h11.305
		c3.815,0,6.919-3.104,6.919-6.919c0-0.389,0.316-0.706,0.706-0.706c0.389,0,0.706,0.317,0.706,0.706
		C60.899,36.759,57.161,40.496,52.568,40.496z"/>
	<linearGradient id="SVGID_2_" gradientUnits="userSpaceOnUse" x1="21.6606" y1="11.0381" x2="61.0142" y2="11.0381">
		<stop  offset="0" style="stop-color:#9D1F60"/>
		<stop  offset="1" style="stop-color:#EC1E28"/>
	</linearGradient>
	<path fill="url(#SVGID_2_)" d="M61.014,18.282c0-10.422-8.458-18.281-19.677-18.281c-11.217,0-19.677,7.859-19.677,18.281
		c0,0.866,0,3.793,0,3.793h1.396v-3.793c0-9.784,7.688-16.884,18.28-16.884s18.28,7.101,18.28,16.884v3.793h1.396
		C61.014,22.075,61.014,19.147,61.014,18.282z"/>
	<path fill="#282D33" d="M41.337,1.397c-10.593,0-18.28,7.101-18.28,16.884v1.795v1.532c0,0.257,0.21,0.466,0.466,0.466
		c0.257,0,0.465-0.209,0.465-0.466v-1.532v-1.795c0-9.244,7.296-15.953,17.349-15.953c10.054,0,17.35,6.709,17.35,15.953v1.795
		v1.532c0,0.257,0.209,0.466,0.466,0.466s0.465-0.209,0.465-0.466v-1.532v-1.795C59.618,8.498,51.93,1.397,41.337,1.397z"/>
	<path fill="#484E5B" d="M22.484,20.081c0,1.82,0,11.729,0,13.321c1.579,0,3.183-1.292,3.183-2.872v-7.579
		C25.667,21.372,24.063,20.081,22.484,20.081z"/>
	<path fill="#484E5B" d="M60.193,20.081c-1.579,0-3.185,1.292-3.185,2.871v7.579c0,1.579,1.605,2.872,3.185,2.872
		C60.193,31.498,60.193,21.773,60.193,20.081z"/>
	<linearGradient id="SVGID_3_" gradientUnits="userSpaceOnUse" x1="19.9258" y1="26.7412" x2="22.4839" y2="26.7412">
		<stop  offset="0" style="stop-color:#9D1F60"/>
		<stop  offset="1" style="stop-color:#EC1E28"/>
	</linearGradient>
	<path fill="url(#SVGID_3_)" d="M22.484,33.402c-1.407,0-2.558-1.151-2.558-2.558v-8.206c0-1.406,1.151-2.558,2.558-2.558V33.402z"
		/>
	<circle fill="#CCD5D5" cx="22.484" cy="19.329" r="2.069"/>
	<linearGradient id="SVGID_4_" gradientUnits="userSpaceOnUse" x1="60.1929" y1="26.7412" x2="62.7505" y2="26.7412">
		<stop  offset="0" style="stop-color:#9D1F60"/>
		<stop  offset="1" style="stop-color:#EC1E28"/>
	</linearGradient>
	<path fill="url(#SVGID_4_)" d="M60.193,33.402c1.407,0,2.558-1.151,2.558-2.558v-8.206c0-1.406-1.15-2.558-2.558-2.558V33.402z"/>
	<circle fill="#CCD5D5" cx="60.193" cy="19.329" r="2.069"/>
	<path fill="#484E5B" d="M44.084,41.647h-5.517c-0.854,0-1.553-0.698-1.553-1.552v-0.609c0-0.854,0.698-1.552,1.553-1.552h5.517
		c0.854,0,1.552,0.698,1.552,1.552v0.609C45.636,40.949,44.938,41.647,44.084,41.647z"/>
	<polygon fill="#B6C0C0" points="64.72,23.854 62.75,22.74 62.75,30.742 64.72,29.628 64.72,26.742 	"/>
	<polygon fill="#B6C0C0" points="17.957,29.628 19.926,30.742 19.926,22.74 17.957,23.854 17.957,26.742 	"/>
	<path fill="#FFDE00" d="M22.047,48.862V38.457c0-0.489-0.396-0.885-0.886-0.885h-1.556v-3.263l-4.28,3.095
		c-0.152,0.108-0.333,0.167-0.52,0.167H0.886C0.396,37.572,0,37.968,0,38.457v10.405c0,0.489,0.396,0.885,0.886,0.885h20.275
		C21.65,49.747,22.047,49.352,22.047,48.862z"/>
	<g>
		<path fill="#212121" d="M17.598,39.434c-1.297,0-2.353,1.055-2.353,2.353c0,0.313,0.254,0.568,0.569,0.568
			c0.313,0,0.568-0.255,0.568-0.568c0-0.671,0.544-1.216,1.215-1.216c0.67,0,1.215,0.545,1.215,1.216
			c0,0.454-0.192,0.614-0.628,0.93c-0.488,0.355-1.156,0.841-1.156,2.001c0,0.314,0.254,0.568,0.569,0.568
			c0.313,0,0.568-0.254,0.568-0.568c0-0.581,0.26-0.77,0.688-1.081c0.462-0.336,1.096-0.798,1.096-1.851
			C19.949,40.489,18.894,39.434,17.598,39.434z"/>
		<path fill="#212121" d="M17.598,46.702c-0.314,0-0.569,0.301-0.569,0.615s0.254,0.569,0.569,0.569
			c0.313,0,0.568-0.255,0.568-0.569v-0.094C18.166,46.908,17.911,46.702,17.598,46.702z"/>
		<rect x="2.19" y="39.737" fill="#212121" width="6.257" height="1.128"/>
		<rect x="9.774" y="39.737" fill="#212121" width="3.413" height="1.128"/>
		<rect x="6.929" y="43.096" fill="#212121" width="6.258" height="1.128"/>
		<rect x="2.19" y="43.096" fill="#212121" width="3.413" height="1.128"/>
		<rect x="2.19" y="46.455" fill="#212121" width="8.152" height="1.127"/>
	</g>
	<path fill="#212121" d="M67.442,65.107c0.04-0.249,0.062-0.504,0.062-0.764c0-0.26-0.021-0.517-0.062-0.765l-1.604-0.255
		c-0.048-0.141-0.104-0.279-0.173-0.412l0.955-1.315c-0.299-0.416-0.665-0.782-1.082-1.081l-1.314,0.955
		c-0.133-0.066-0.27-0.125-0.412-0.172l-0.255-1.604c-0.249-0.04-0.504-0.063-0.765-0.063c-0.26,0-0.516,0.023-0.765,0.063
		l-0.255,1.604c-0.143,0.047-0.279,0.106-0.412,0.172l-1.314-0.955c-0.417,0.299-0.783,0.665-1.082,1.081l0.955,1.315
		c-0.066,0.133-0.125,0.271-0.173,0.412l-1.604,0.255c-0.041,0.249-0.063,0.505-0.063,0.765c0,0.26,0.021,0.516,0.063,0.764
		l1.604,0.256c0.048,0.142,0.106,0.28,0.171,0.412l-0.953,1.316c0.299,0.415,0.665,0.781,1.082,1.08l1.314-0.954
		c0.133,0.066,0.27,0.124,0.412,0.172l0.255,1.603c0.249,0.042,0.505,0.063,0.765,0.063c0.261,0,0.516-0.021,0.765-0.063
		l0.255-1.603c0.143-0.048,0.279-0.105,0.412-0.172l1.314,0.954c0.417-0.299,0.783-0.666,1.082-1.08l-0.955-1.316
		c0.068-0.132,0.125-0.271,0.173-0.412L67.442,65.107z M62.792,66.074c-0.957,0-1.732-0.775-1.732-1.731
		c0-0.957,0.775-1.732,1.732-1.732c0.955,0,1.731,0.775,1.731,1.732C64.523,65.299,63.747,66.074,62.792,66.074z"/>
	<path fill="#212121" d="M58.672,70.459c0.041-0.249,0.062-0.504,0.062-0.764c0-0.26-0.021-0.516-0.062-0.765l-1.604-0.255
		c-0.047-0.143-0.105-0.28-0.174-0.413l0.957-1.314c-0.301-0.417-0.666-0.782-1.083-1.081l-1.315,0.953
		c-0.132-0.065-0.269-0.124-0.412-0.172l-0.254-1.603c-0.25-0.042-0.504-0.064-0.766-0.064c-0.259,0-0.514,0.022-0.764,0.064
		l-0.256,1.603c-0.142,0.048-0.279,0.107-0.411,0.172l-1.313-0.953c-0.419,0.299-0.783,0.664-1.083,1.081l0.954,1.314
		c-0.065,0.133-0.125,0.271-0.172,0.413l-1.604,0.255c-0.042,0.25-0.063,0.505-0.063,0.765c0,0.26,0.021,0.516,0.063,0.764
		l1.604,0.255c0.047,0.142,0.106,0.28,0.172,0.413l-0.954,1.316c0.3,0.416,0.664,0.781,1.083,1.081l1.313-0.955
		c0.132,0.067,0.27,0.125,0.411,0.172l0.256,1.603c0.25,0.042,0.505,0.063,0.764,0.063c0.262,0,0.516-0.021,0.766-0.063l0.254-1.603
		c0.144-0.047,0.28-0.105,0.412-0.172l1.315,0.955c0.417-0.3,0.782-0.666,1.083-1.081l-0.957-1.316
		c0.069-0.133,0.127-0.271,0.174-0.413L58.672,70.459z M54.022,71.426c-0.957,0-1.731-0.775-1.731-1.731
		c0-0.957,0.774-1.733,1.731-1.733s1.732,0.776,1.732,1.733C55.754,70.651,54.979,71.426,54.022,71.426z"/>
</g>
</svg>
