<?xml version="1.0" encoding="utf-8"?>
<!-- Generator: Adobe Illustrator 16.0.0, SVG Export Plug-In . SVG Version: 6.00 Build 0)  -->
<!DOCTYPE svg PUBLIC "-//W3C//DTD SVG 1.1//EN" "http://www.w3.org/Graphics/SVG/1.1/DTD/svg11.dtd">
<svg version="1.1" id="layer_1" xmlns="http://www.w3.org/2000/svg" xmlns:xlink="http://www.w3.org/1999/xlink" x="0px" y="0px"
	 width="77.292px" height="80px" viewBox="0 0 77.292 80" enable-background="new 0 0 77.292 80" xml:space="preserve">
<path fill="#CCD5D5" d="M18.445,73.177v2.028c0,2.648,9.044,4.794,20.201,4.794s20.202-2.146,20.202-4.794v-2.028H18.445z"/>
<ellipse fill="#212121" cx="38.646" cy="73.177" rx="20.201" ry="4.794"/>
<path fill="#212121" d="M73.039,18.102H4.252C1.913,18.102,0,19.944,0,22.196v40.318c0,2.252,1.914,4.094,4.253,4.094h68.786
	c2.339,0,4.253-1.842,4.253-4.094V22.196C77.292,19.944,75.378,18.102,73.039,18.102z M71.477,60.686H5.814V24.023h65.662V60.686z"
	/>
<linearGradient id="SVGID_1_" gradientUnits="userSpaceOnUse" x1="4.7485" y1="42.355" x2="72.543" y2="42.355">
	<stop  offset="0" style="stop-color:#9D1F60"/>
	<stop  offset="1" style="stop-color:#EC1E28"/>
</linearGradient>
<rect x="4.749" y="22.958" fill="url(#SVGID_1_)" width="67.794" height="38.795"/>
<rect x="31.091" y="66.608" fill="#CCD5D5" width="15.109" height="6.569"/>
<path fill="#212121" d="M27.353,20.51c-0.437,0-0.792-0.354-0.792-0.791v-8.478h-7c-0.437,0-0.791-0.354-0.791-0.791
	s0.354-0.791,0.791-0.791h7.791c0.437,0,0.791,0.354,0.791,0.791v9.269C28.144,20.156,27.79,20.51,27.353,20.51z"/>
<path fill="#212121" d="M35.624,19.471c-0.437,0-0.792-0.354-0.792-0.791V3.441c0-0.437,0.354-0.792,0.792-0.792
	s0.79,0.354,0.79,0.792v15.239C36.414,19.117,36.061,19.471,35.624,19.471z"/>
<path fill="#212121" d="M59.064,17.343h-9.582c-0.437,0-0.791-0.354-0.791-0.792c0-0.437,0.354-0.791,0.791-0.791h8.791v-5.219
	c0-0.437,0.355-0.791,0.791-0.791c0.437,0,0.791,0.354,0.791,0.791v6.01C59.855,16.989,59.501,17.343,59.064,17.343z"/>
<path fill="#212121" d="M44.023,14.617c-0.438,0-0.791-0.354-0.791-0.791V6.448c0-0.436,0.353-0.791,0.791-0.791h7.255
	c0.436,0,0.79,0.354,0.79,0.791c0,0.438-0.354,0.792-0.79,0.792h-6.464v6.587C44.814,14.263,44.46,14.617,44.023,14.617z"/>
<path fill="#B6C0C0" d="M60.102,32.05c-0.242,0-0.482,0.019-0.717,0.046c0.053-0.428,0.09-0.861,0.09-1.304
	c0-5.663-4.591-10.254-10.253-10.254c-2.447,0-4.692,0.86-6.456,2.292c-0.6-5.405-5.18-9.609-10.746-9.609
	c-5.973,0-10.816,4.844-10.816,10.818c0,1.08,0.163,2.122,0.458,3.106c-0.614-0.14-1.253-0.22-1.91-0.22
	c-4.755,0-8.608,3.854-8.608,8.609c0,4.754,3.853,8.608,8.608,8.608h40.351c3.341,0,6.047-2.707,6.047-6.046
	C66.148,34.757,63.442,32.05,60.102,32.05z"/>
<circle fill="#CCD5D5" cx="19.123" cy="34.724" r="7.545"/>
<circle fill="#B6C0C0" cx="28.222" cy="37.087" r="5.748"/>
<circle fill="#CCD5D5" cx="28.391" cy="35.708" r="5.142"/>
<circle fill="#B6C0C0" cx="60.103" cy="38.097" r="6.046"/>
<circle fill="#B6C0C0" cx="37.796" cy="37.104" r="6.408"/>
<circle fill="#CCD5D5" cx="39.343" cy="36.33" r="6.408"/>
<circle fill="#CCD5D5" cx="60.493" cy="37.729" r="5.498"/>
<circle fill="#B6C0C0" cx="45.062" cy="19.63" r="7.868"/>
<circle fill="#CCD5D5" cx="44.558" cy="18.681" r="6.79"/>
<circle fill="#B6C0C0" cx="59.296" cy="31.264" r="2.825"/>
<circle fill="#CCD5D5" cx="59.116" cy="30.923" r="2.438"/>
<circle fill="#B6C0C0" cx="49.221" cy="30.793" r="10.254"/>
<circle fill="#CCD5D5" cx="49.817" cy="29.854" r="9.144"/>
<circle fill="#B6C0C0" cx="32.02" cy="24.039" r="10.817"/>
<circle fill="#CCD5D5" cx="31.327" cy="22.732" r="9.335"/>
<path fill="#FFDE00" d="M33.437,47.245V32.973c0-1.165-0.946-2.109-2.11-2.109c-1.166,0-2.109,0.944-2.109,2.109v14.271h-3.149
	l5.258,9.106l5.258-9.106H33.437z"/>
<path fill="#FFDE00" d="M51.41,40.002l-5.259-9.106l-5.258,9.106h3.148v14.271c0,1.165,0.946,2.109,2.11,2.109
	c1.166,0,2.108-0.944,2.108-2.109V40.002H51.41z"/>
<g>
	<circle fill="#FFDE00" cx="19.562" cy="10.451" r="2.705"/>
	<path fill="#212121" d="M19.562,8.482c1.088,0,1.968,0.881,1.968,1.969c0,1.087-0.88,1.969-1.968,1.969
		c-1.086,0-1.969-0.881-1.969-1.969C17.593,9.363,18.475,8.482,19.562,8.482 M19.562,7.01c-1.897,0-3.441,1.543-3.441,3.441
		s1.543,3.441,3.441,3.441s3.441-1.544,3.441-3.441S21.459,7.01,19.562,7.01L19.562,7.01z"/>
</g>
<g>
	<path fill="#FFDE00" d="M35.688,6.146c-1.492,0-2.706-1.213-2.706-2.705s1.214-2.705,2.706-2.705c1.491,0,2.705,1.213,2.705,2.705
		S37.18,6.146,35.688,6.146z"/>
	<path fill="#212121" d="M35.688,1.473c1.087,0,1.968,0.881,1.968,1.969c0,1.087-0.881,1.969-1.968,1.969
		c-1.088,0-1.969-0.882-1.969-1.969C33.719,2.354,34.601,1.473,35.688,1.473 M35.688,0c-1.898,0-3.441,1.544-3.441,3.441
		s1.543,3.441,3.441,3.441c1.897,0,3.44-1.544,3.44-3.441S37.586,0,35.688,0L35.688,0z"/>
</g>
<g>
	<circle fill="#FFDE00" cx="51.278" cy="6.448" r="2.705"/>
	<path fill="#212121" d="M51.278,4.479c1.087,0,1.97,0.881,1.97,1.969c0,1.087-0.882,1.969-1.97,1.969
		c-1.086,0-1.968-0.881-1.968-1.969C49.31,5.361,50.191,4.479,51.278,4.479 M51.278,3.007c-1.897,0-3.441,1.543-3.441,3.441
		S49.38,9.89,51.278,9.89c1.898,0,3.443-1.543,3.443-3.441S53.176,3.007,51.278,3.007L51.278,3.007z"/>
</g>
<g>
	<path fill="#FFDE00" d="M59.007,13.246c-1.491,0-2.705-1.213-2.705-2.704c0-1.492,1.214-2.705,2.705-2.705s2.704,1.213,2.704,2.705
		C61.711,12.033,60.498,13.246,59.007,13.246z"/>
	<path fill="#212121" d="M59.007,8.573c1.087,0,1.969,0.881,1.969,1.969c0,1.087-0.882,1.968-1.969,1.968s-1.969-0.881-1.969-1.968
		C57.038,9.454,57.92,8.573,59.007,8.573 M59.007,7.1c-1.897,0-3.441,1.544-3.441,3.441c0,1.897,1.544,3.44,3.441,3.44
		s3.44-1.543,3.44-3.44C62.447,8.644,60.904,7.1,59.007,7.1L59.007,7.1z"/>
</g>
<path fill="#212121" d="M37.54,21.923h-0.87c-0.06-0.393-0.165-0.77-0.304-1.13l0.755-0.436c0.155-0.089,0.208-0.287,0.118-0.442
	l-0.486-0.841c-0.089-0.154-0.287-0.208-0.442-0.119l-0.755,0.436c-0.246-0.305-0.522-0.582-0.827-0.827l0.436-0.755
	c0.089-0.155,0.037-0.353-0.119-0.442l-0.84-0.486c-0.156-0.089-0.354-0.037-0.443,0.118l-0.436,0.755
	c-0.36-0.14-0.738-0.244-1.13-0.303V16.58c0-0.179-0.145-0.324-0.325-0.324h-0.971c-0.179,0-0.324,0.145-0.324,0.324v0.871
	c-0.393,0.06-0.77,0.164-1.13,0.303L29.012,17c-0.089-0.155-0.287-0.208-0.441-0.118l-0.841,0.486
	c-0.155,0.089-0.208,0.288-0.119,0.442l0.436,0.755c-0.304,0.245-0.583,0.522-0.827,0.827l-0.755-0.436
	c-0.156-0.089-0.354-0.036-0.442,0.119l-0.485,0.841c-0.089,0.155-0.037,0.353,0.118,0.442l0.754,0.436
	c-0.14,0.36-0.243,0.738-0.303,1.13h-0.871c-0.178,0-0.324,0.145-0.324,0.324v0.971c0,0.179,0.146,0.324,0.324,0.324h0.871
	c0.06,0.393,0.164,0.771,0.303,1.13l-0.754,0.436c-0.155,0.089-0.207,0.288-0.118,0.442l0.485,0.841
	c0.089,0.155,0.287,0.208,0.442,0.118l0.755-0.436c0.244,0.304,0.522,0.582,0.827,0.827l-0.436,0.755
	c-0.089,0.155-0.036,0.353,0.119,0.443l0.841,0.485c0.155,0.09,0.352,0.037,0.441-0.119l0.436-0.754
	c0.36,0.141,0.737,0.244,1.13,0.304v0.871c0,0.179,0.145,0.323,0.324,0.323h0.971c0.18,0,0.325-0.145,0.325-0.323v-0.871
	c0.392-0.06,0.77-0.163,1.13-0.304l0.436,0.754c0.089,0.155,0.287,0.209,0.443,0.119l0.84-0.485c0.156-0.09,0.208-0.288,0.119-0.443
	l-0.436-0.755c0.305-0.245,0.582-0.522,0.827-0.827l0.755,0.436c0.155,0.09,0.353,0.037,0.442-0.118l0.486-0.841
	c0.089-0.155,0.037-0.354-0.118-0.442l-0.755-0.436c0.14-0.36,0.244-0.737,0.304-1.13h0.87c0.179,0,0.323-0.145,0.323-0.324v-0.971
	C37.863,22.068,37.719,21.923,37.54,21.923z"/>
<circle fill="#CCD5D5" cx="31.387" cy="22.732" r="2.797"/>
<path fill="#212121" d="M23.597,34.135h-0.633c-0.044-0.285-0.119-0.56-0.221-0.822l0.549-0.317
	c0.112-0.065,0.149-0.208,0.085-0.322l-0.354-0.611c-0.063-0.113-0.208-0.151-0.321-0.086l-0.549,0.317
	c-0.178-0.222-0.379-0.424-0.602-0.601l0.318-0.55c0.065-0.113,0.027-0.257-0.086-0.322l-0.612-0.353
	c-0.112-0.065-0.256-0.026-0.322,0.086l-0.315,0.549c-0.263-0.102-0.537-0.177-0.823-0.221V30.25c0-0.13-0.104-0.235-0.235-0.235
	H18.77c-0.13,0-0.237,0.105-0.237,0.235v0.632c-0.285,0.044-0.559,0.119-0.82,0.221l-0.317-0.549
	c-0.066-0.112-0.21-0.151-0.322-0.086l-0.612,0.353c-0.112,0.065-0.151,0.209-0.085,0.322l0.317,0.55
	c-0.222,0.177-0.423,0.379-0.602,0.601l-0.55-0.317c-0.111-0.065-0.255-0.027-0.32,0.086l-0.354,0.611
	c-0.064,0.113-0.025,0.257,0.087,0.322l0.548,0.317c-0.103,0.262-0.178,0.537-0.221,0.822h-0.634c-0.129,0-0.235,0.105-0.235,0.235
	v0.707c0,0.129,0.106,0.235,0.235,0.235h0.634c0.043,0.286,0.119,0.56,0.221,0.821l-0.548,0.317
	c-0.113,0.065-0.152,0.209-0.087,0.322l0.354,0.612c0.065,0.112,0.209,0.151,0.32,0.086l0.55-0.317
	c0.179,0.222,0.38,0.424,0.602,0.601l-0.317,0.55c-0.066,0.113-0.027,0.257,0.085,0.322l0.612,0.354
	c0.112,0.065,0.256,0.026,0.322-0.086l0.317-0.548c0.261,0.102,0.535,0.177,0.82,0.22v0.633c0,0.131,0.107,0.236,0.237,0.236h0.706
	c0.131,0,0.235-0.105,0.235-0.236v-0.633c0.286-0.043,0.56-0.119,0.823-0.22l0.315,0.548c0.066,0.113,0.209,0.151,0.322,0.086
	l0.612-0.354c0.113-0.065,0.152-0.208,0.086-0.322l-0.318-0.55c0.223-0.177,0.424-0.379,0.602-0.601l0.549,0.317
	c0.113,0.065,0.257,0.026,0.321-0.086l0.354-0.612c0.064-0.113,0.027-0.257-0.085-0.322l-0.549-0.317
	c0.102-0.261,0.177-0.536,0.221-0.821h0.633c0.13,0,0.235-0.106,0.235-0.235v-0.707C23.832,34.241,23.727,34.135,23.597,34.135z"/>
<circle fill="#CCD5D5" cx="19.122" cy="34.724" r="2.033"/>
</svg>
