<?xml version="1.0" encoding="utf-8"?>
<!-- Generator: Adobe Illustrator 16.0.0, SVG Export Plug-In . SVG Version: 6.00 Build 0)  -->
<!DOCTYPE svg PUBLIC "-//W3C//DTD SVG 1.1//EN" "http://www.w3.org/Graphics/SVG/1.1/DTD/svg11.dtd">
<svg version="1.1" id="layer_1" xmlns="http://www.w3.org/2000/svg" xmlns:xlink="http://www.w3.org/1999/xlink" x="0px" y="0px"
	 width="81.698px" height="80px" viewBox="0 0 81.698 80" enable-background="new 0 0 81.698 80" xml:space="preserve">
<g>
	<path fill="#212121" d="M80.337,49.368h-3.66c-0.252-1.65-0.688-3.239-1.277-4.751l3.174-1.832c0.65-0.376,0.873-1.208,0.498-1.86
		l-2.043-3.537c-0.377-0.651-1.207-0.875-1.857-0.498l-3.178,1.833c-1.027-1.282-2.195-2.448-3.477-3.477l1.834-3.176
		c0.377-0.651,0.152-1.484-0.498-1.86l-3.537-2.042c-0.65-0.376-1.484-0.153-1.859,0.498l-1.832,3.173
		c-1.514-0.59-3.102-1.025-4.752-1.276v-3.661c0-0.751-0.609-1.361-1.361-1.361h-4.083c-0.752,0-1.361,0.61-1.361,1.361v3.661
		c-1.651,0.25-3.238,0.686-4.75,1.276l-1.832-3.173c-0.377-0.651-1.209-0.875-1.86-0.498l-3.537,2.042
		c-0.651,0.376-0.874,1.209-0.499,1.86l1.834,3.176c-1.282,1.029-2.447,2.194-3.477,3.477l-3.176-1.833
		c-0.651-0.376-1.483-0.153-1.86,0.498l-2.042,3.537c-0.375,0.652-0.152,1.483,0.498,1.86l3.173,1.832
		c-0.589,1.512-1.025,3.101-1.276,4.751h-3.66c-0.75,0-1.361,0.61-1.361,1.361v4.084c0,0.752,0.611,1.361,1.361,1.361h3.66
		c0.251,1.65,0.688,3.239,1.276,4.75l-3.173,1.833c-0.65,0.375-0.873,1.208-0.498,1.86l2.042,3.537
		c0.377,0.65,1.209,0.874,1.86,0.498l3.176-1.833c1.029,1.281,2.194,2.447,3.477,3.477l-1.834,3.176
		c-0.375,0.651-0.152,1.483,0.499,1.859l3.537,2.042c0.651,0.376,1.483,0.153,1.86-0.498l1.832-3.173
		c1.512,0.589,3.099,1.025,4.75,1.277v3.66c0,0.752,0.609,1.361,1.361,1.361h4.083c0.752,0,1.361-0.609,1.361-1.361v-3.66
		c1.65-0.251,3.238-0.688,4.752-1.277l1.832,3.173c0.375,0.651,1.209,0.875,1.859,0.498l3.537-2.042
		c0.65-0.376,0.875-1.208,0.498-1.859l-1.834-3.176c1.281-1.029,2.449-2.195,3.477-3.477l3.178,1.833
		c0.65,0.376,1.48,0.152,1.857-0.498l2.043-3.537c0.375-0.651,0.152-1.484-0.498-1.86l-3.174-1.833c0.59-1.512,1.025-3.1,1.277-4.75
		h3.66c0.752,0,1.361-0.609,1.361-1.361v-4.084C81.698,49.978,81.089,49.368,80.337,49.368z"/>
	<circle fill="#CCD5D5" cx="54.469" cy="52.771" r="16.337"/>
	<path fill="#FFDE00" d="M54.47,44.331c2.355,0,4.486,0.969,6.017,2.526l5.584-5.583c-2.961-2.987-7.064-4.84-11.601-4.84
		c-4.539,0-8.643,1.853-11.603,4.84l5.583,5.583C49.982,45.3,52.113,44.331,54.47,44.331z"/>
	<path fill="#EC1E28" d="M70.806,52.771c0-4.485-1.809-8.545-4.734-11.498l-5.584,5.583c1.496,1.524,2.422,3.61,2.422,5.914
		c0,2.357-0.969,4.487-2.527,6.018l5.584,5.584C68.954,61.413,70.806,57.31,70.806,52.771z"/>
	<path fill="#9D1F60" d="M46.029,52.771c0-2.304,0.926-4.39,2.422-5.914l-5.583-5.583c-2.927,2.952-4.735,7.012-4.735,11.498
		c0,4.538,1.852,8.642,4.84,11.602l5.584-5.584C46.999,57.258,46.029,55.129,46.029,52.771z"/>
	<path fill="#212121" d="M57.192,52.771c0,1.504-1.219,2.723-2.722,2.723c-1.504,0-2.723-1.219-2.723-2.723
		c0-2.747,2.723-12.33,2.723-12.33S57.192,50.024,57.192,52.771z"/>
	<circle fill="#CCD5D5" cx="54.47" cy="52.771" r="1.361"/>
	<path fill="#FFFFFF" d="M59.925,65.372H49.013c-0.408,0-0.74-0.333-0.74-0.741v-1.786c0-0.409,0.332-0.741,0.74-0.741h10.912
		c0.408,0,0.74,0.332,0.74,0.741v1.786C60.665,65.04,60.333,65.372,59.925,65.372z"/>
	<path fill="#212121" d="M38.235,22.742l-2.289-0.373c0.013-1.057-0.099-2.094-0.313-3.1l2.169-0.822
		c0.445-0.169,0.671-0.667,0.501-1.112l-0.916-2.419c-0.168-0.445-0.667-0.669-1.112-0.5l-2.172,0.823
		c-0.513-0.906-1.122-1.753-1.819-2.527l1.469-1.799c0.303-0.369,0.248-0.912-0.121-1.213l-2.002-1.637
		c-0.369-0.301-0.913-0.247-1.214,0.122l-1.468,1.796c-0.885-0.521-1.834-0.957-2.841-1.281l0.372-2.288
		c0.078-0.47-0.24-0.913-0.711-0.989l-2.553-0.416c-0.471-0.077-0.914,0.242-0.99,0.713l-0.373,2.287
		c-1.057-0.011-2.094,0.1-3.1,0.314l-0.821-2.17c-0.169-0.445-0.667-0.669-1.112-0.5L14.4,6.569
		c-0.445,0.169-0.67,0.666-0.501,1.111l0.823,2.172c-0.906,0.512-1.754,1.123-2.527,1.819l-1.799-1.47
		c-0.368-0.301-0.912-0.247-1.213,0.122l-1.637,2.003c-0.302,0.369-0.247,0.911,0.122,1.213l1.797,1.468
		c-0.522,0.885-0.956,1.834-1.281,2.84l-2.288-0.373c-0.47-0.077-0.913,0.242-0.99,0.712l-0.416,2.553
		c-0.077,0.47,0.241,0.913,0.712,0.99l2.288,0.372c-0.011,1.058,0.1,2.095,0.314,3.1l-2.17,0.822
		c-0.444,0.168-0.669,0.667-0.501,1.112l0.916,2.418c0.17,0.445,0.667,0.669,1.112,0.501l2.173-0.823
		c0.512,0.906,1.121,1.753,1.818,2.527l-1.47,1.798c-0.3,0.369-0.246,0.912,0.123,1.213l2.003,1.637
		c0.369,0.301,0.912,0.246,1.214-0.122l1.468-1.797c0.885,0.522,1.833,0.957,2.838,1.281l-0.371,2.288
		c-0.078,0.47,0.242,0.913,0.713,0.99l2.553,0.416c0.469,0.077,0.912-0.242,0.988-0.712l0.373-2.288
		c1.057,0.011,2.095-0.1,3.1-0.314l0.822,2.169c0.168,0.445,0.666,0.669,1.111,0.5l2.419-0.916c0.445-0.169,0.67-0.667,0.501-1.112
		l-0.823-2.172c0.907-0.513,1.755-1.122,2.526-1.818l1.799,1.469c0.369,0.301,0.912,0.247,1.214-0.122l1.638-2.003
		c0.301-0.369,0.246-0.912-0.123-1.213l-1.797-1.468c0.523-0.885,0.957-1.833,1.281-2.839l2.287,0.372
		c0.471,0.077,0.914-0.242,0.99-0.712l0.416-2.554C39.023,23.262,38.705,22.819,38.235,22.742z"/>
	<circle fill="#CCD5D5" cx="21.717" cy="22.237" r="8.168"/>
	<path fill="#212121" d="M20.023,45.893c-0.023-0.276-0.27-0.48-0.545-0.455l-1.349,0.123c-0.146-0.589-0.356-1.16-0.626-1.704
		l1.106-0.78c0.227-0.16,0.281-0.473,0.121-0.7l-0.87-1.232c-0.158-0.227-0.473-0.282-0.699-0.122l-1.105,0.78
		c-0.415-0.432-0.88-0.824-1.395-1.164l0.568-1.227c0.115-0.252,0.006-0.551-0.246-0.667l-1.369-0.632
		c-0.252-0.117-0.549-0.007-0.666,0.245l-0.568,1.226c-0.591-0.171-1.191-0.271-1.789-0.308l-0.123-1.347
		c-0.023-0.277-0.27-0.481-0.545-0.456l-1.502,0.137c-0.276,0.025-0.48,0.27-0.455,0.546l0.121,1.348
		C7.5,39.649,6.928,39.859,6.385,40.13l-0.78-1.106c-0.16-0.227-0.474-0.281-0.7-0.122l-1.233,0.87
		c-0.226,0.16-0.281,0.473-0.122,0.7l0.78,1.105c-0.432,0.415-0.824,0.88-1.163,1.394L1.94,42.404
		c-0.252-0.117-0.55-0.007-0.667,0.245l-0.632,1.368c-0.116,0.252-0.007,0.551,0.245,0.667l1.227,0.567
		c-0.172,0.592-0.272,1.192-0.308,1.79l-1.347,0.123c-0.277,0.025-0.48,0.27-0.455,0.546l0.136,1.501
		c0.025,0.276,0.27,0.48,0.545,0.455l1.349-0.122c0.146,0.589,0.355,1.16,0.625,1.703l-1.105,0.78
		c-0.227,0.16-0.281,0.473-0.121,0.701L2.3,53.961c0.159,0.227,0.473,0.281,0.701,0.121l1.105-0.779
		c0.415,0.432,0.879,0.824,1.394,1.163l-0.567,1.227c-0.117,0.252-0.007,0.551,0.246,0.667l1.367,0.633
		c0.254,0.117,0.552,0.006,0.669-0.246l0.566-1.226c0.592,0.171,1.191,0.271,1.789,0.309l0.123,1.347
		c0.023,0.276,0.27,0.48,0.546,0.455l1.501-0.137c0.276-0.025,0.48-0.269,0.455-0.545l-0.121-1.349
		c0.588-0.146,1.16-0.356,1.703-0.626l0.779,1.106c0.162,0.227,0.475,0.282,0.701,0.122l1.232-0.869
		c0.227-0.16,0.28-0.473,0.121-0.7l-0.779-1.105c0.432-0.416,0.824-0.88,1.164-1.395l1.226,0.567
		c0.253,0.116,0.552,0.007,0.667-0.245l0.633-1.369c0.117-0.251,0.006-0.55-0.244-0.667l-1.227-0.567
		c0.171-0.591,0.271-1.192,0.309-1.789l1.348-0.123c0.275-0.025,0.479-0.27,0.453-0.546L20.023,45.893z"/>
	<circle fill="#CCD5D5" cx="10.082" cy="47.552" r="4.083"/>
	<g>
		<path fill="#CCD5D5" d="M49.15,0c-0.6,0-1.09,0.49-1.09,1.089v19.608c0,0.599,0.49,1.089,1.09,1.089s1.09-0.49,1.09-1.089V1.089
			C50.24,0.49,49.75,0,49.15,0z"/>
		<path fill="#CCD5D5" d="M60.679,0c-0.598,0-1.088,0.49-1.088,1.089v19.608c0,0.599,0.49,1.089,1.088,1.089
			c0.6,0,1.09-0.49,1.09-1.089V1.089C61.769,0.49,61.278,0,60.679,0z"/>
		<path fill="#CCD5D5" d="M72.21,0c-0.6,0-1.092,0.49-1.092,1.089v19.608c0,0.599,0.492,1.089,1.092,1.089
			c0.598,0,1.088-0.49,1.088-1.089V1.089C73.298,0.49,72.808,0,72.21,0z"/>
	</g>
	<circle fill="#212121" cx="72.208" cy="8.624" r="2.451"/>
	<circle fill="#212121" cx="60.679" cy="15.349" r="2.451"/>
	<circle fill="#212121" cx="49.15" cy="5.741" r="2.451"/>
	<g>
		<path fill="#CCD5D5" d="M19.232,67.534c1.27,0,2.307-1.038,2.307-2.308c0-1.268-1.037-2.307-2.307-2.307h-9.096
			c-1.27,0-2.308,1.039-2.308,2.307c0,1.27,1.038,2.308,2.308,2.308H19.232z"/>
		<path fill="#CCD5D5" d="M20.359,73.488h-9.096c-1.27,0-2.309,1.038-2.309,2.308c0,1.268,1.039,2.307,2.309,2.307h9.096
			c1.268,0,2.307-1.039,2.307-2.307C22.666,74.526,21.626,73.488,20.359,73.488z"/>
	</g>
	<circle fill="#212121" cx="19.125" cy="65.226" r="3.54"/>
	<circle fill="#212121" cx="11.369" cy="75.796" r="3.541"/>
	<path fill="#212121" d="M50.033,64.22c-0.114,0-0.239-0.048-0.336-0.135c-0.096-0.106-0.145-0.221-0.145-0.345
		c0-0.125,0.059-0.25,0.145-0.346c0.184-0.173,0.5-0.173,0.682,0.01c0.087,0.086,0.135,0.211,0.135,0.336
		c0,0.125-0.048,0.239-0.135,0.335C50.283,64.172,50.158,64.22,50.033,64.22z"/>
	<path fill="#212121" d="M55.471,63.74c0-0.27,0.212-0.481,0.479-0.481l0,0c0.259,0,0.472,0.211,0.472,0.481l0,0
		c0,0.259-0.213,0.48-0.472,0.48l0,0C55.683,64.22,55.471,64,55.471,63.74z M52.513,63.74c0-0.27,0.21-0.481,0.479-0.481l0,0
		c0.259,0,0.48,0.211,0.48,0.481l0,0c0,0.259-0.222,0.48-0.48,0.48l0,0C52.723,64.22,52.513,64,52.513,63.74z"/>
	<path fill="#212121" d="M58.899,64.22c-0.123,0-0.238-0.048-0.334-0.135c-0.098-0.106-0.146-0.221-0.146-0.345
		c0-0.125,0.049-0.25,0.146-0.346c0.172-0.173,0.498-0.173,0.672,0c0.096,0.097,0.145,0.221,0.145,0.346
		c0,0.125-0.049,0.239-0.135,0.335C59.142,64.172,59.024,64.22,58.899,64.22z"/>
</g>
</svg>
