<?xml version="1.0" encoding="utf-8"?>
<!-- Generator: Adobe Illustrator 16.0.0, SVG Export Plug-In . SVG Version: 6.00 Build 0)  -->
<!DOCTYPE svg PUBLIC "-//W3C//DTD SVG 1.1//EN" "http://www.w3.org/Graphics/SVG/1.1/DTD/svg11.dtd">
<svg version="1.1" id="layer_1" xmlns="http://www.w3.org/2000/svg" xmlns:xlink="http://www.w3.org/1999/xlink" x="0px" y="0px"
	 width="87.438px" height="80px" viewBox="0 0 87.438 80" enable-background="new 0 0 87.438 80" xml:space="preserve">
<g>
	<g>
		<path fill="#B6C0C0" d="M52.648,13.147c-0.122,0-0.248-0.028-0.364-0.088c-4.489-2.303-9.339-3.47-14.42-3.47
			c-3.236,0-6.427,0.486-9.486,1.446c-0.426,0.13-0.871-0.104-1.003-0.524c-0.133-0.421,0.102-0.871,0.524-1.004
			c3.213-1.009,6.566-1.52,9.965-1.52c5.336,0,10.434,1.227,15.149,3.646c0.394,0.202,0.55,0.684,0.347,1.078
			C53.22,12.988,52.94,13.147,52.648,13.147z"/>
		<path fill="#B6C0C0" d="M14.116,62.127c-3.541-4.018-6.016-8.893-7.155-14.096c-0.488-2.221-0.734-4.511-0.734-6.807
			c0-5.847,1.608-11.559,4.651-16.52c0.23-0.376,0.113-0.87-0.264-1.101c-0.375-0.231-0.87-0.115-1.1,0.263
			C6.315,29.08,4.627,35.082,4.627,41.225c0,2.412,0.259,4.817,0.771,7.148c1.198,5.468,3.796,10.59,7.516,14.813
			c0.159,0.18,0.38,0.271,0.602,0.271c0.188,0,0.377-0.065,0.529-0.199C14.376,62.966,14.408,62.459,14.116,62.127z"/>
		<path fill="#B6C0C0" d="M70.3,40.425c-0.442,0-0.8,0.358-0.8,0.8c0,8.658-3.431,16.739-9.657,22.755
			c-5.928,5.728-13.734,8.882-21.979,8.882c-1.637,0-3.28-0.127-4.887-0.375c-0.439-0.063-0.846,0.231-0.913,0.669
			c-0.068,0.437,0.231,0.846,0.668,0.913c1.687,0.262,3.414,0.393,5.131,0.393c8.662,0,16.863-3.313,23.09-9.329
			c6.543-6.321,10.146-14.813,10.146-23.908C71.101,40.783,70.742,40.425,70.3,40.425z"/>
		<path fill="#B6C0C0" d="M75.838,42.025c-0.442,0-0.8-0.358-0.8-0.801c0-19.347-15.096-35.63-34.367-37.069
			c-0.441-0.032-0.773-0.417-0.739-0.857c0.033-0.441,0.421-0.779,0.857-0.739C60.893,4.06,76.639,21.044,76.639,41.225
			C76.639,41.667,76.28,42.025,75.838,42.025z"/>
		<path fill="#B6C0C0" d="M0.802,33.713c-0.058,0-0.116-0.006-0.175-0.02c-0.433-0.096-0.704-0.524-0.607-0.955
			c1.956-8.756,6.957-16.625,14.083-22.158c0.35-0.271,0.852-0.208,1.124,0.141c0.271,0.349,0.208,0.853-0.142,1.124
			C8.252,17.15,3.457,24.694,1.582,33.087C1.5,33.46,1.169,33.713,0.802,33.713z"/>
		<path fill="#B6C0C0" d="M37.864,78.398c-1.257,0-2.525-0.063-3.766-0.188c-12.693-1.277-24.062-9.215-29.669-20.717
			c-0.193-0.398-0.672-0.561-1.07-0.369c-0.398,0.194-0.563,0.673-0.37,1.07c5.848,11.998,17.708,20.278,30.947,21.608
			C35.232,79.934,36.553,80,37.864,80c0.441,0,0.799-0.359,0.799-0.801S38.306,78.398,37.864,78.398z"/>
		<path fill="#B6C0C0" d="M60.399,72.594c-0.244,0-0.486-0.112-0.645-0.325c-0.264-0.355-0.188-0.856,0.17-1.12
			c4.819-3.56,8.753-8.281,11.371-13.651c0.194-0.398,0.673-0.562,1.071-0.369c0.397,0.194,0.562,0.674,0.368,1.071
			c-2.732,5.601-6.834,10.524-11.86,14.238C60.731,72.542,60.565,72.594,60.399,72.594z"/>
	</g>
	<linearGradient id="SVGID_1_" gradientUnits="userSpaceOnUse" x1="10.9648" y1="41.2256" x2="64.7617" y2="41.2256">
		<stop  offset="0" style="stop-color:#9D1F60"/>
		<stop  offset="1" style="stop-color:#EC1E28"/>
	</linearGradient>
	<path fill="url(#SVGID_1_)" d="M59.003,24.604c-4.925-6.255-12.56-10.276-21.139-10.276c-8.58,0-16.215,4.021-21.141,10.276
		c-3.603,4.576-5.759,10.345-5.759,16.621c0,6.277,2.156,12.046,5.759,16.622c4.926,6.255,12.561,10.277,21.141,10.277
		c8.579,0,16.214-4.022,21.139-10.277c3.604-4.576,5.759-10.345,5.759-16.622C64.762,34.948,62.606,29.179,59.003,24.604z"/>
	<path fill="#212121" d="M65.829,41.225c0-0.001,0-0.002,0-0.002c-0.002-6.331-2.071-12.306-5.987-17.28
		C54.497,17.154,46.486,13.26,37.864,13.26S21.23,17.154,15.886,23.943c-3.916,4.974-5.987,10.949-5.988,17.279c0,0,0,0.002,0,0.003
		c0,0.002,0,0.003,0,0.004c0.001,6.33,2.072,12.305,5.988,17.279c5.345,6.79,13.356,10.683,21.979,10.683
		c0.042,0,0.084-0.004,0.127-0.004c0.002,0,0.002,0,0.004,0l0.384-0.01c0,0,0.002,0,0.003,0c8.423-0.154,16.222-4.016,21.46-10.669
		c3.915-4.974,5.984-10.949,5.986-17.279C65.829,41.228,65.829,41.227,65.829,41.225z M58.669,56.525
		c-0.29-0.127-0.594-0.236-0.889-0.359c-0.373-0.152-0.744-0.308-1.125-0.452c-0.445-0.169-0.898-0.325-1.354-0.48
		c-0.381-0.13-0.76-0.264-1.146-0.386c-0.47-0.146-0.949-0.279-1.428-0.413c-0.286-0.081-0.564-0.173-0.854-0.248
		c1.593-3.696,2.492-7.715,2.61-11.895h9.169C63.444,47.465,61.749,52.354,58.669,56.525z M21.575,54.848
		c-0.39,0.122-0.771,0.257-1.155,0.388c-0.452,0.155-0.905,0.31-1.348,0.479c-0.38,0.144-0.752,0.299-1.126,0.453
		c-0.293,0.122-0.598,0.231-0.887,0.358c-3.079-4.171-4.776-9.06-4.984-14.232h9.172c0.129,4.116,1.092,8.134,2.777,11.854
		c-0.348,0.089-0.687,0.194-1.032,0.292C22.517,54.571,22.041,54.703,21.575,54.848z M17.058,25.926
		c0.292,0.128,0.597,0.238,0.893,0.36c0.372,0.152,0.741,0.307,1.119,0.451c0.447,0.169,0.903,0.325,1.359,0.481
		c0.379,0.13,0.756,0.263,1.142,0.384c0.472,0.148,0.954,0.281,1.435,0.416c0.333,0.093,0.661,0.196,0.998,0.282
		c-1.643,3.703-2.595,7.72-2.75,11.858h-9.179C12.282,34.984,13.979,30.097,17.058,25.926z M48.914,53.516
		c-0.526-0.105-1.057-0.19-1.59-0.279c-0.374-0.063-0.745-0.134-1.122-0.188c-0.568-0.083-1.142-0.146-1.714-0.211
		c-0.347-0.04-0.691-0.089-1.038-0.124c-0.652-0.062-1.306-0.103-1.96-0.144c-0.274-0.016-0.547-0.043-0.822-0.057
		c-0.579-0.027-1.158-0.033-1.736-0.044V42.293h13.417c-0.121,4.016-1.016,7.873-2.592,11.404
		C49.476,53.636,49.198,53.572,48.914,53.516z M34.219,52.572c-0.647,0.041-1.295,0.081-1.939,0.142
		c-0.355,0.034-0.704,0.084-1.057,0.125c-0.567,0.065-1.133,0.127-1.697,0.21c-0.381,0.055-0.757,0.126-1.137,0.191
		c-0.526,0.087-1.052,0.172-1.573,0.275c-0.226,0.044-0.447,0.096-0.671,0.142c-1.67-3.555-2.631-7.411-2.764-11.364h13.416v10.176
		c-0.579,0.011-1.158,0.017-1.735,0.044C34.78,52.526,34.5,52.555,34.219,52.572z M26.813,28.935
		c0.528,0.104,1.063,0.19,1.597,0.279c0.372,0.063,0.741,0.133,1.114,0.187c0.57,0.083,1.144,0.146,1.719,0.212
		c0.346,0.04,0.689,0.089,1.036,0.123c0.649,0.062,1.302,0.103,1.954,0.143c0.277,0.018,0.552,0.045,0.829,0.058
		c0.579,0.028,1.158,0.034,1.736,0.043v10.177H23.388c0.159-3.977,1.106-7.832,2.733-11.37
		C26.352,28.836,26.581,28.889,26.813,28.935z M38.932,40.157V29.98c0.578-0.01,1.157-0.016,1.734-0.043
		c0.28-0.013,0.556-0.041,0.835-0.058c0.651-0.041,1.301-0.081,1.948-0.143c0.351-0.034,0.697-0.083,1.045-0.124
		c0.572-0.065,1.143-0.127,1.709-0.21c0.378-0.055,0.749-0.125,1.124-0.188c0.532-0.089,1.062-0.174,1.587-0.278
		c0.233-0.046,0.463-0.1,0.694-0.148c1.625,3.538,2.573,7.393,2.733,11.37H38.932z M48.285,26.889
		c-0.45,0.088-0.907,0.163-1.362,0.239c-0.401,0.067-0.802,0.138-1.208,0.196c-0.463,0.066-0.931,0.118-1.398,0.172
		c-0.403,0.047-0.804,0.101-1.208,0.139c-0.488,0.045-0.977,0.074-1.467,0.107c-0.389,0.026-0.775,0.061-1.165,0.079
		c-0.514,0.024-1.03,0.027-1.545,0.037V16.25c4.072,2.724,7.377,6.368,9.688,10.568C48.508,26.84,48.397,26.868,48.285,26.889z
		 M36.796,27.859c-0.516-0.01-1.032-0.013-1.547-0.037c-0.382-0.018-0.761-0.052-1.142-0.078c-0.498-0.034-0.996-0.063-1.49-0.109
		c-0.398-0.038-0.791-0.09-1.187-0.136c-0.475-0.055-0.951-0.107-1.422-0.175c-0.397-0.058-0.792-0.127-1.188-0.193
		c-0.462-0.078-0.925-0.153-1.384-0.243c-0.11-0.021-0.218-0.047-0.328-0.069c2.312-4.198,5.616-7.842,9.688-10.566V27.859z
		 M27.402,55.57c0.506-0.1,1.02-0.185,1.532-0.27c0.345-0.057,0.688-0.118,1.035-0.168c0.548-0.079,1.102-0.142,1.655-0.204
		c0.316-0.036,0.631-0.078,0.949-0.108c0.631-0.061,1.265-0.101,1.9-0.14c0.244-0.015,0.488-0.038,0.732-0.051
		c0.53-0.023,1.061-0.027,1.591-0.038v11.495c-4.049-2.753-7.333-6.361-9.643-10.465C27.236,55.605,27.319,55.586,27.402,55.57z
		 M38.932,54.592c0.53,0.011,1.061,0.015,1.592,0.038c0.243,0.013,0.486,0.036,0.731,0.051c0.636,0.039,1.27,0.079,1.9,0.14
		c0.317,0.03,0.632,0.072,0.949,0.108c0.553,0.063,1.106,0.125,1.654,0.204c0.347,0.051,0.691,0.112,1.034,0.168
		c0.513,0.085,1.027,0.17,1.533,0.27c0.158,0.029,0.312,0.066,0.468,0.099c-2.303,4.282-5.657,7.989-9.861,10.792V54.592z
		 M54.473,40.157c-0.153-4.139-1.106-8.155-2.747-11.858c0.338-0.087,0.668-0.19,1.004-0.284c0.477-0.133,0.955-0.266,1.426-0.413
		c0.387-0.122,0.767-0.256,1.148-0.387c0.455-0.155,0.908-0.311,1.352-0.479c0.381-0.144,0.75-0.299,1.123-0.452
		c0.295-0.122,0.601-0.232,0.891-0.359c3.08,4.171,4.775,9.059,4.984,14.231H54.473z M57.267,24.184
		c-0.188,0.079-0.371,0.163-0.561,0.238c-0.347,0.141-0.697,0.276-1.051,0.408c-0.422,0.157-0.85,0.309-1.281,0.454
		c-0.367,0.124-0.735,0.245-1.106,0.359c-0.433,0.134-0.87,0.257-1.31,0.379c-0.383,0.105-0.765,0.21-1.151,0.307
		c-0.011,0.003-0.021,0.005-0.032,0.007c-2.163-4.11-5.19-7.758-8.931-10.634C47.802,16.621,53.234,19.586,57.267,24.184z
		 M33.887,15.702c-3.741,2.876-6.769,6.524-8.932,10.634c-0.015-0.003-0.027-0.006-0.04-0.009c-0.382-0.095-0.759-0.199-1.136-0.303
		c-0.445-0.123-0.888-0.249-1.326-0.384c-0.367-0.113-0.731-0.233-1.093-0.355c-0.435-0.146-0.866-0.299-1.292-0.458
		c-0.351-0.13-0.699-0.265-1.043-0.404c-0.19-0.076-0.375-0.16-0.564-0.24C22.493,19.586,27.927,16.62,33.887,15.702z M18.46,58.267
		c0.19-0.08,0.377-0.164,0.568-0.24c0.339-0.138,0.683-0.27,1.028-0.399c0.436-0.162,0.876-0.32,1.324-0.468
		c0.348-0.118,0.698-0.233,1.053-0.342c0.458-0.141,0.919-0.273,1.386-0.4c0.354-0.098,0.708-0.196,1.066-0.285
		c0.037-0.009,0.073-0.017,0.108-0.025c2.2,4.098,5.291,7.757,9.109,10.672C28.059,65.898,22.542,62.92,18.46,58.267z
		 M42.289,66.674c3.656-2.888,6.58-6.478,8.656-10.516c0.324,0.082,0.644,0.169,0.965,0.258c0.465,0.127,0.929,0.259,1.386,0.4
		c0.354,0.109,0.704,0.225,1.052,0.342c0.447,0.148,0.889,0.306,1.324,0.468c0.346,0.129,0.689,0.262,1.028,0.399
		c0.19,0.077,0.378,0.161,0.567,0.24C53.335,62.749,48.073,65.679,42.289,66.674z"/>
	<path fill="#FFDE00" d="M66.87,51.883c-10.461,0-18.97-8.509-18.97-18.969c0-10.459,8.509-18.968,18.97-18.968
		c10.459,0,18.969,8.509,18.969,18.968C85.839,43.374,77.329,51.883,66.87,51.883z"/>
	<path fill="#212121" d="M66.87,12.345c-11.361,0-20.57,9.209-20.57,20.57c0,11.36,9.209,20.569,20.57,20.569
		s20.568-9.209,20.568-20.569C87.438,21.554,78.231,12.345,66.87,12.345z M66.87,50.281c-9.576,0-17.369-7.791-17.369-17.367
		c0-9.577,7.793-17.368,17.369-17.368s17.367,7.791,17.367,17.368C84.237,42.49,76.446,50.281,66.87,50.281z"/>
	<path fill="#212121" d="M66.87,31.58c-2.264,0-3.412-1.002-3.412-2.979c0-1.642,1.53-2.979,3.412-2.979
		c1.881,0,3.412,1.336,3.412,2.979c0,0.737,0.597,1.334,1.334,1.334s1.335-0.597,1.335-1.334c0-2.688-2.035-4.938-4.747-5.505v-1.18
		c0-0.736-0.598-1.334-1.334-1.334c-0.737,0-1.335,0.598-1.335,1.334v1.18c-2.712,0.567-4.747,2.818-4.747,5.505
		c0,2.73,1.598,5.647,6.082,5.647c2.264,0,3.412,1.002,3.412,2.979c0,1.643-1.531,2.979-3.412,2.979
		c-1.882,0-3.412-1.336-3.412-2.979c0-0.737-0.599-1.334-1.335-1.334c-0.737,0-1.335,0.597-1.335,1.334
		c0,2.688,2.035,4.939,4.747,5.506v1.18c0,0.737,0.598,1.334,1.335,1.334c0.736,0,1.334-0.598,1.334-1.334v-1.18
		c2.712-0.566,4.747-2.817,4.747-5.506C72.951,34.498,71.354,31.58,66.87,31.58z"/>
	<circle fill="#212121" cx="10.196" cy="15.51" r="3.165"/>
	<path fill="#FFDE00" d="M10.195,19.208c-2.039,0-3.698-1.659-3.698-3.698s1.659-3.699,3.698-3.699c2.04,0,3.699,1.66,3.699,3.699
		S12.235,19.208,10.195,19.208z M10.195,12.878c-1.45,0-2.631,1.181-2.631,2.631s1.181,2.63,2.631,2.63
		c1.451,0,2.631-1.18,2.631-2.63S11.646,12.878,10.195,12.878z"/>
	<circle fill="#212121" cx="6.18" cy="50.343" r="3.164"/>
	<path fill="#FFDE00" d="M6.179,54.041c-2.039,0-3.697-1.658-3.697-3.697c0-2.04,1.658-3.698,3.697-3.698s3.698,1.658,3.698,3.698
		C9.877,52.382,8.218,54.041,6.179,54.041z M6.179,47.712c-1.45,0-2.63,1.181-2.63,2.631s1.18,2.631,2.63,2.631
		c1.451,0,2.631-1.181,2.631-2.631S7.63,47.712,6.179,47.712z"/>
	<circle fill="#212121" cx="13.36" cy="70.498" r="3.165"/>
	<path fill="#FFDE00" d="M13.361,74.196c-2.04,0-3.699-1.658-3.699-3.698c0-2.039,1.659-3.698,3.699-3.698
		c2.038,0,3.697,1.659,3.697,3.698C17.058,72.538,15.399,74.196,13.361,74.196z M13.361,67.867c-1.451,0-2.632,1.18-2.632,2.63
		c0,1.451,1.181,2.631,2.632,2.631c1.449,0,2.63-1.18,2.63-2.631C15.991,69.047,14.81,67.867,13.361,67.867z"/>
	<circle fill="#212121" cx="48.676" cy="72.936" r="3.164"/>
	<path fill="#FFDE00" d="M48.675,76.635c-2.039,0-3.698-1.659-3.698-3.699c0-2.038,1.659-3.698,3.698-3.698
		c2.041,0,3.699,1.66,3.699,3.698C52.374,74.976,50.716,76.635,48.675,76.635z M48.675,70.306c-1.45,0-2.63,1.181-2.63,2.63
		c0,1.452,1.18,2.632,2.63,2.632c1.451,0,2.63-1.18,2.63-2.632C51.306,71.487,50.126,70.306,48.675,70.306z"/>
	<circle fill="#212121" cx="46.3" cy="3.699" r="3.164"/>
	<path fill="#FFDE00" d="M46.3,7.397c-2.039,0-3.698-1.659-3.698-3.698s1.659-3.698,3.698-3.698s3.699,1.659,3.699,3.698
		S48.339,7.397,46.3,7.397z M46.3,1.068c-1.45,0-2.631,1.18-2.631,2.631S44.85,6.33,46.3,6.33s2.631-1.18,2.631-2.631
		S47.75,1.068,46.3,1.068z"/>
	<circle fill="#212121" cx="37.863" cy="41.226" r="3.165"/>
	<path fill="#FFDE00" d="M37.864,44.924c-2.04,0-3.699-1.659-3.699-3.699c0-2.039,1.659-3.697,3.699-3.697
		c2.038,0,3.697,1.658,3.697,3.697C41.562,43.265,39.902,44.924,37.864,44.924z M37.864,38.595c-1.451,0-2.632,1.18-2.632,2.63
		c0,1.451,1.181,2.631,2.632,2.631c1.449,0,2.63-1.18,2.63-2.631C40.494,39.774,39.313,38.595,37.864,38.595z"/>
	<circle fill="#212121" cx="28.609" cy="22.292" r="3.165"/>
	<path fill="#FFDE00" d="M28.61,25.99c-2.041,0-3.699-1.66-3.699-3.699s1.658-3.698,3.699-3.698c2.038,0,3.697,1.659,3.697,3.698
		S30.648,25.99,28.61,25.99z M28.61,19.66c-1.452,0-2.632,1.181-2.632,2.631s1.18,2.631,2.632,2.631c1.449,0,2.629-1.18,2.629-2.631
		S30.06,19.66,28.61,19.66z"/>
	<circle fill="#212121" cx="25.446" cy="54.684" r="3.165"/>
	<path fill="#FFDE00" d="M25.445,58.382c-2.038,0-3.698-1.659-3.698-3.698s1.66-3.698,3.698-3.698c2.039,0,3.699,1.659,3.699,3.698
		S27.484,58.382,25.445,58.382z M25.445,52.053c-1.45,0-2.63,1.181-2.63,2.631c0,1.451,1.18,2.631,2.63,2.631
		c1.451,0,2.632-1.18,2.632-2.631C28.077,53.234,26.896,52.053,25.445,52.053z"/>
</g>
</svg>
