<svg id="OBJECTS" xmlns="http://www.w3.org/2000/svg" xmlns:xlink="http://www.w3.org/1999/xlink" viewBox="0 0 278 242"><defs><style>.cls-1,.cls-2,.cls-3{opacity:0.8;}.cls-1{fill:url(#linear-gradient);}.cls-2{fill:url(#linear-gradient-2);}.cls-3{fill:url(#linear-gradient-3);}</style><linearGradient id="linear-gradient" x1="253.31" y1="118.67" x2="0" y2="118.67" gradientTransform="translate(0 0)" gradientUnits="userSpaceOnUse"><stop offset="0" stop-color="#9f1ee5"/><stop offset="0.2" stop-color="#8b1cdc"/><stop offset="0.62" stop-color="#5815c5"/><stop offset="1" stop-color="#230fae"/></linearGradient><linearGradient id="linear-gradient-2" x1="278" y1="145.04" x2="10.05" y2="145.04" xlink:href="#linear-gradient"/><linearGradient id="linear-gradient-3" x1="266.13" y1="123.49" x2="21.93" y2="123.49" xlink:href="#linear-gradient"/></defs><title>banner-bg</title><path class="cls-1" d="M72.49,14s-173.7,84.35,16.66,185.81S272.08,175.52,225.84,92.65C178.81,8.36,150.23-19.92,72.49,14Z"/><path class="cls-2" d="M24.15,107.78S-52.4,277.87,151.31,235.1s120.5-131.31,35-164C99.42,37.74,60.77,34.5,24.15,107.78Z"/><path class="cls-3" d="M21.93,125.59s7.3,179.89,164.67,54.89S234,15,146.07,23.74C56.68,32.59,21.92,46.5,21.93,125.59Z"/></svg>