<?xml version="1.0" encoding="utf-8"?>
<!-- Generator: Adobe Illustrator 23.0.3, SVG Export Plug-In . SVG Version: 6.00 Build 0)  -->
<svg version="1.1" id="Isolation_Mode" xmlns="http://www.w3.org/2000/svg" xmlns:xlink="http://www.w3.org/1999/xlink" x="0px"
	 y="0px" viewBox="0 0 99 99" style="enable-background:new 0 0 99 99;" xml:space="preserve">
<style type="text/css">
	.st0{fill:#E8CB4A;}
	.st1{fill:#E73747;}
	.st2{fill:#FFFFFF;}
</style>
<rect x="46.3" y="17.8" class="st0" width="6.6" height="6.6"/>
<rect x="24.3" y="70.8" class="st0" width="7.7" height="7.7"/>
<rect x="67.5" y="70.3" class="st0" width="7.5" height="7.5"/>
<rect x="13.5" y="39.4" class="st1" width="72.5" height="20.3"/>
<path d="M83.1,17.8c-0.5,0-1-0.2-1.4-0.6l0,0c-0.8-0.8-0.8-2,0-2.7s2-0.8,2.7,0l0,0c0.8,0.8,0.8,2,0,2.7
	C84.1,17.6,83.6,17.8,83.1,17.8z"/>
<path class="st2" d="M37.5,43.4c-0.8,0-1.4,0.4-1.7,1.3l-1.8,5.9L32.3,45c-0.4-1.1-1-1.6-1.8-1.6c-0.8,0-1.4,0.5-1.7,1.6L27,50.5
	l-1.8-5.9c-0.3-0.9-0.8-1.3-1.7-1.3c-0.5,0-0.9,0.2-1.2,0.5c-0.3,0.3-0.5,0.7-0.5,1.2c0,0.2,0,0.5,0.1,0.7l3,8.1
	c0.4,1.1,1.1,1.7,2.1,1.7c0.9,0,1.5-0.5,1.8-1.6l1.7-4.9l1.7,4.9c0.4,1,1,1.6,1.8,1.6c0.9,0,1.6-0.6,2.1-1.7l3-8.1
	c0.1-0.3,0.1-0.5,0.1-0.7c0-0.5-0.2-0.9-0.5-1.2C38.4,43.6,38,43.4,37.5,43.4z"/>
<path class="st2" d="M75.9,43.4c-0.8,0-1.4,0.4-1.7,1.3l-1.8,5.9L70.6,45c-0.4-1.1-1-1.6-1.8-1.6c-0.8,0-1.4,0.5-1.7,1.6l-1.8,5.6
	l-1.8-5.9c-0.3-0.9-0.8-1.3-1.7-1.3c-0.5,0-0.9,0.2-1.2,0.5c-0.3,0.3-0.5,0.7-0.5,1.2c0,0.2,0,0.5,0.1,0.7l3,8.1
	c0.4,1.1,1.1,1.7,2.1,1.7c0.9,0,1.5-0.5,1.8-1.6l1.7-4.9l1.7,4.9c0.4,1,1,1.6,1.8,1.6c0.9,0,1.6-0.6,2.1-1.7l3-8.1
	c0.1-0.3,0.1-0.5,0.1-0.7c0-0.5-0.2-0.9-0.5-1.2C76.7,43.6,76.3,43.4,75.9,43.4z"/>
<path class="st2" d="M56.7,43.4c-0.8,0-1.4,0.4-1.7,1.3l-1.8,5.9L51.5,45c-0.4-1.1-1-1.6-1.8-1.6c-0.8,0-1.4,0.5-1.7,1.6l-1.8,5.6
	l-1.8-5.9c-0.3-0.9-0.8-1.3-1.7-1.3c-0.5,0-0.9,0.2-1.2,0.5c-0.3,0.3-0.5,0.7-0.5,1.2c0,0.2,0,0.5,0.1,0.7l3,8.1
	c0.4,1.1,1.1,1.7,2.1,1.7c0.9,0,1.5-0.5,1.8-1.6l1.7-4.9l1.7,4.9c0.4,1,1,1.6,1.8,1.6c0.9,0,1.6-0.6,2.1-1.7l3-8.1
	c0.1-0.3,0.1-0.5,0.1-0.7c0-0.5-0.2-0.9-0.5-1.2C57.6,43.6,57.2,43.4,56.7,43.4z"/>
<path d="M89.6,20.5c-0.6-0.9-1.8-1.1-2.7-0.4s-1.1,1.8-0.4,2.7c2.7,3.7,4.7,7.7,6.2,11.9c-4.6-5-11.6-9.2-20-11.9
	c-1.6-4.5-3.6-8.5-5.9-11.8c-1.4-2-2.8-3.7-4.4-5.2c4.7,1.4,9.2,3.6,13.3,6.5c0.9,0.6,2.1,0.4,2.7-0.5c0.6-0.9,0.4-2.1-0.5-2.7
	C69.7,3.1,59.8,0,49.5,0c-13.2,0-25.7,5.1-35,14.5S0,36.3,0,49.5c0,13.2,5.1,25.7,14.5,35S36.3,99,49.5,99s25.7-5.1,35-14.5
	S99,62.7,99,49.5C99,39,95.7,29,89.6,20.5z M88.7,55.3v-3.9H95c-1,7.5-7.6,14.5-18.1,19.1c-0.5-0.7-1.2-1.4-2-1.8
	c0.4-1.7,0.7-3.4,1-5.2h4.6C85,63.5,88.7,59.8,88.7,55.3z M83.7,32.1c6.6,4.3,10.6,9.8,11.3,15.4h-6.3v-3.8c0-4.5-3.7-8.2-8.2-8.2
	h-4.6c-0.5-2.8-1.1-5.5-1.8-8.2C77.7,28.7,80.9,30.3,83.7,32.1z M72,35.5H51.4V28c2.2-0.6,4-2.4,4.7-4.5c4.7,0.4,9.3,1.2,13.5,2.5
	C70.6,28.9,71.4,32.1,72,35.5z M51.4,4c5.5,0.9,9.6,5.3,12.2,9.1c1.7,2.4,3.1,5.2,4.4,8.3c-3.7-0.9-7.6-1.5-11.7-1.9
	c-0.6-2.5-2.5-4.4-4.9-5.1V4z M52.7,21.2c0,1.7-1.4,3.2-3.2,3.2s-3.2-1.4-3.2-3.2s1.4-3.2,3.2-3.2S52.7,19.5,52.7,21.2z M47.6,28
	v7.5H27c0.6-3.4,1.4-6.6,2.3-9.6c4.2-1.2,8.8-2,13.5-2.5C43.6,25.6,45.3,27.3,47.6,28z M47.6,4v10.4c-2.4,0.7-4.3,2.6-4.9,5.1
	c-4.1,0.3-8,1-11.7,1.9c1.3-3.1,2.8-5.9,4.4-8.3C37.9,9.3,42.1,4.9,47.6,4z M36.5,5.8c-1.5,1.5-3,3.2-4.3,5.2
	c-2.3,3.3-4.3,7.4-5.9,11.8C17.9,25.5,11,29.6,6.4,34.6C11.1,20.8,22.4,10,36.5,5.8z M18.9,63.5h4.2c0.3,1.7,0.6,3.5,1,5.2
	c-0.8,0.5-1.4,1.1-2,1.8C11.6,65.9,5,58.9,4,51.4h6.6v3.9C10.6,59.8,14.3,63.5,18.9,63.5z M10.6,43.7v3.8H4
	c0.7-5.7,4.7-11.1,11.3-15.4c2.8-1.9,6.1-3.5,9.6-4.8c-0.7,2.6-1.3,5.3-1.8,8.1h-4.2C14.3,35.5,10.6,39.2,10.6,43.7z M6.4,64.4
	c3.5,3.8,8.4,7.2,14.4,9.8c0,0.2,0,0.3,0,0.5c0,3.9,3.2,7,7,7c0.2,0,0.5,0,0.7,0c2.3,4.8,5,8.7,8,11.6C22.4,89.1,11.2,78.2,6.4,64.4
	z M24.6,74.7c0-1.7,1.4-3.2,3.2-3.2s3.2,1.4,3.2,3.2c0,1.7-1.4,3.2-3.2,3.2S24.6,76.4,24.6,74.7z M47.6,95
	c-5.9-0.9-11.4-6.2-15.5-14.8c0.7-0.6,1.3-1.2,1.8-2c4.4,0.9,9,1.4,13.7,1.5V95z M47.6,75.8c-4.4-0.1-8.6-0.6-12.7-1.4
	c-0.1-3.8-3.2-6.8-7-6.8c-0.3-1.4-0.6-2.7-0.8-4.1h20.6V75.8z M18.9,59.7c-2.4,0-4.4-2-4.4-4.4V43.7c0-2.4,2-4.4,4.4-4.4h55.4h0h0
	h6.3c2.4,0,4.4,2,4.4,4.4v11.6c0,2.4-2,4.4-4.4,4.4H18.9z M71.2,71.5c0.3,0,0.6,0.1,0.9,0.1c0,0,0,0,0,0c1.3,0.4,2.2,1.6,2.2,3
	c0,1.7-1.4,3.2-3.2,3.2S68,76.4,68,74.7C68,72.9,69.5,71.5,71.2,71.5z M64.2,74.5c-4.1,0.8-8.4,1.3-12.7,1.4V63.5H72
	c-0.2,1.4-0.5,2.8-0.8,4.1C67.4,67.7,64.3,70.7,64.2,74.5z M51.4,95V79.7c4.7-0.1,9.3-0.6,13.7-1.5c0.5,0.8,1.1,1.5,1.8,2
	C62.8,88.8,57.3,94,51.4,95z M62.5,93.2c3-2.9,5.7-6.8,8-11.6c0.2,0,0.5,0,0.7,0c3.9,0,7-3.2,7-7c0-0.2,0-0.3,0-0.5
	c6-2.6,10.9-5.9,14.4-9.8C87.8,78.2,76.6,89.1,62.5,93.2z"/>
</svg>
