<?xml version="1.0" encoding="utf-8"?>
<!-- Generator: Adobe Illustrator 23.0.3, SVG Export Plug-In . SVG Version: 6.00 Build 0)  -->
<svg version="1.1" id="Layer_1" xmlns="http://www.w3.org/2000/svg" xmlns:xlink="http://www.w3.org/1999/xlink" x="0px" y="0px"
	 viewBox="0 0 110.9 99" style="enable-background:new 0 0 110.9 99;" xml:space="preserve">
<style type="text/css">
	.st0{fill:#E8CB4A;}
	.st1{fill:#E73747;}
	.st2{fill:#FFFFFF;}
</style>
<rect x="28.9" y="90.7" class="st0" width="35.8" height="4.8"/>
<path class="st1" d="M88.8,47.6L81.7,51l-5.3,2.9c0,0-1.6,2.2-1.6,4.5s-2,3.6,0,7c2,3.4,2.2,4.9,1.5,8.5s0-0.7,1.2,3.6
	c1.1,4.3,1.8,5.3,3.1,6.6s5.2,4.5,5.2,4.5l3.1,0.3l5-1.6l3.2-4.3c0,0,4.4,0.7,3.7-1.2c-0.7-1.9,2.6-6.4,2.6-6.4s0.5-0.9,0.8-1.6
	c0.3-0.7,0.3,0,0.9-2.4c0.6-2.4,1.8-4.5,1.6-5.7c-0.3-1.3,0.1-1.5,0-4.2c0-2.7,0.3-1.7,0-4.7c-0.3-3,1.3-2.4-0.3-3
	c-1.5-0.6-4.3-4-5.6-4.5c-1.3-0.5-6.9-1.9-6.9-1.9l-2.4,0.6"/>
<path class="st2" d="M86.6,66.3c-0.9-0.8-2.2-0.8-3.1,0.1c-0.8,0.9-0.8,2.2,0.1,3.1l3.3,3.2c0.4,0.4,0.9,0.6,1.5,0.6h0
	c0.6,0,1.1-0.2,1.5-0.7l10.2-10.6c0.8-0.9,0.8-2.2-0.1-3.1c-0.9-0.8-2.2-0.8-3.1,0.1l-8.7,9L86.6,66.3z"/>
<path d="M102.1,39.7c4.9,0,8.8-3.9,8.8-8.6V8.6c0-4.7-4-8.6-8.8-8.6H17.6c-4.9,0-8.8,3.9-8.8,8.6v5.7c-4.9,0.1-8.8,4.1-8.8,9v49.6
	c0,5,4,9,9,9h27L35,86.4h-4.1c-3.5,0-6.3,2.8-6.3,6.3c0,3.5,2.8,6.3,6.3,6.3h31.9c3.5,0,6.3-2.8,6.3-6.3c0-3.5-2.8-6.3-6.3-6.3h-4.1
	l-1.1-4.5h21c1,1.2,2.1,2.4,3.3,3.5c0.6,0.5,2.2,2,3.9,3.3c3.2,2.5,4.5,2.9,5.3,3c0.1,0,0.2,0,0.3,0c1,0,3.3-0.4,8.3-5.1
	c3.2-3,6-6.4,7.4-8.9c4.4-7.9,4-19.3,3.4-25.4c-0.1-0.8-0.6-1.5-1.4-1.8l-15.6-6.1v-4.7H102.1z M64.7,92.7c0,1.1-0.9,2-2,2H30.9
	c-1.1,0-2-0.9-2-2s0.9-2,2-2h5.8c0,0,0,0,0,0c0,0,0,0,0,0h20.2c0,0,0,0,0,0c0,0,0,0,0,0h5.8C63.8,90.7,64.7,91.6,64.7,92.7z
	 M54.2,86.4H39.4l1.1-4.5h12.6L54.2,86.4z M103.3,75.6c-1.1,2-3.6,5-6.3,7.5c-3.2,3-5.1,4-5.7,4.2c-1.3-0.6-5.3-3.8-6.5-5
	c-5.3-5-8.1-10.6-8.4-16.6c-0.1-2.8-0.2-8.7,0-11.8l15.1-5.7l14.9,5.8C107.1,63,106,70.8,103.3,75.6z M89.3,44.4l-15.7,5.9
	c-0.7,0.3-1.3,0.9-1.4,1.7c-0.4,3-0.3,11.1-0.1,13.9c0,0.4,0.1,0.9,0.1,1.3H55.4c-1.2,0-2.2,1-2.2,2.2c0,1.2,1,2.2,2.2,2.2H73
	c0.6,2.1,1.4,4.1,2.5,6H9c-2.6,0-4.7-2.1-4.7-4.7v-1.4h34.1c1.2,0,2.2-1,2.2-2.2c0-1.2-1-2.2-2.2-2.2H4.3V23.3c0-2.5,2-4.5,4.4-4.6
	v12.5c0,4.7,4,8.6,8.8,8.6h38c1.2,0,2.2-1,2.2-2.2c0-1.2-1-2.2-2.2-2.2h-38c-2.5,0-4.5-1.9-4.5-4.3V8.6c0-2.4,2-4.3,4.5-4.3h84.5
	c2.5,0,4.5,1.9,4.5,4.3v22.5c0,2.4-2,4.3-4.5,4.3H72.8c-1.2,0-2.2,1-2.2,2.2c0,1.2,1,2.2,2.2,2.2h16.4L89.3,44.4L89.3,44.4z"/>
<path class="st1" d="M79.6,23.7c-0.6,0-1.1,0.2-1.5,0.6c-0.4,0.4-0.6,0.9-0.6,1.5c0,0.6,0.2,1.1,0.6,1.5l0,0
	c0.4,0.4,0.9,0.6,1.5,0.6c0.6,0,1.1-0.2,1.5-0.6c0.4-0.4,0.6-0.9,0.6-1.5c0-0.6-0.2-1.1-0.6-1.5C80.7,23.9,80.2,23.7,79.6,23.7z"/>
<path class="st1" d="M91.6,26.1c0,2.5,3.1,2.9,3.9,0.9l6-14.9c0.1-0.2,0.1-0.4,0.1-0.7c0-1.1-0.6-2-1.7-2.2c-1-0.2-1.9,0.3-2.3,1.3
	l-6,14.8C91.6,25.7,91.6,25.9,91.6,26.1z"/>
<path class="st1" d="M73.5,23.6c0-1.4-0.5-2.5-1.7-3.2c-0.7-0.5-1.7-0.8-2.5-1c-0.3-0.1-1.1-0.3-1.4-0.5c-0.1-0.1-0.2-0.2-0.2-0.3
	c0-0.2,0.1-0.3,0.2-0.4c0.2-0.2,0.5-0.2,0.7-0.2c0.3,0,0.6,0.1,0.8,0.2l0.5,0.2c0.3,0.1,0.7,0.2,1,0.2c0.5,0,0.9-0.2,1.2-0.5
	c0.3-0.3,0.5-0.7,0.5-1.2c0-0.8-0.5-1.3-1.2-1.7c-0.8-0.4-1.7-0.6-2.6-0.6c-1.3,0-2.5,0.3-3.5,1.2c-0.9,0.8-1.4,1.8-1.4,3.1
	c0,1.2,0.4,2.2,1.4,2.8c0.7,0.4,1.7,0.7,2.5,1c0.5,0.1,1,0.3,1.4,0.5c0.1,0,0.3,0.1,0.3,0.2c0.1,0.1,0.1,0.2,0.1,0.4
	c0,0.3-0.1,0.4-0.3,0.6c-0.3,0.2-0.6,0.3-0.9,0.3c-0.5,0-1.1-0.2-1.6-0.4c-0.4-0.1-0.9-0.3-1.3-0.3c-0.5,0-0.8,0.2-1.2,0.5
	c-0.3,0.3-0.4,0.8-0.4,1.2v0.1c0,0.9,0.7,1.4,1.4,1.7c0.9,0.4,2,0.6,3.1,0.6c1.3,0,2.6-0.3,3.7-1.2C73,25.9,73.5,24.8,73.5,23.6z"/>
<path class="st1" d="M37.7,15.3h-0.8l0-1.8c0-0.5-0.2-1-0.6-1.3c-0.4-0.4-0.8-0.6-1.3-0.6c-0.5,0-1,0.2-1.4,0.6
	c-0.4,0.4-0.6,0.8-0.6,1.4v1.8h-0.3c-0.5,0-0.9,0.2-1.3,0.5C31.1,16.1,31,16.5,31,17c0,0.5,0.2,0.9,0.5,1.2c0.3,0.4,0.8,0.5,1.3,0.5
	h0.4v7.2c0,0.3,0,0.5,0.1,0.8c0.1,0.2,0.2,0.4,0.4,0.6c0.4,0.4,0.8,0.6,1.4,0.6c0.5,0,1-0.2,1.4-0.6c0.4-0.4,0.5-0.8,0.5-1.4l0-7.1
	h0.8c0.5,0,0.9-0.2,1.2-0.5c0.3-0.3,0.5-0.7,0.5-1.2s-0.2-0.9-0.5-1.2C38.6,15.4,38.2,15.3,37.7,15.3z"/>
<path class="st1" d="M22.6,15.5v-3.7c0-0.5-0.2-1-0.6-1.4c-0.4-0.4-0.8-0.6-1.4-0.6c-0.5,0-1,0.2-1.4,0.6c-0.4,0.4-0.6,0.8-0.6,1.4
	v14.1c0,0.5,0.2,1,0.6,1.3c0.4,0.4,0.8,0.6,1.4,0.6c0.5,0,1-0.2,1.4-0.6c0.4-0.4,0.6-0.8,0.6-1.4v-5.8c0-0.5,0.2-0.9,0.5-1.2
	c0.4-0.4,0.8-0.5,1.3-0.5c0.5,0,0.9,0.2,1.2,0.5c0.3,0.4,0.5,0.8,0.5,1.3v5.8c0,0.5,0.2,1,0.6,1.4c0.4,0.4,0.8,0.6,1.4,0.6
	c0.5,0,1-0.2,1.4-0.6c0.4-0.4,0.6-0.8,0.6-1.4v-6.3C30,15.5,25.9,13.6,22.6,15.5z"/>
<path class="st1" d="M62.1,19c-0.1-0.3-0.3-0.7-0.5-1c-0.3-0.4-0.6-0.8-0.9-1.2c-1.2-1.2-2.5-1.7-4.2-1.7c-1.1,0-2.1,0.3-3,0.8
	c-0.4-0.7-1.5-1.1-2.3-0.8c-0.9,0.3-1.2,1.1-1.2,2v13.7c0,0.5,0.2,1,0.6,1.4c0.4,0.4,0.8,0.6,1.4,0.6s1-0.2,1.4-0.6
	c0.4-0.4,0.6-0.8,0.6-1.3v-4.4c0.8,0.4,1.7,0.6,2.6,0.6c1.6,0,3.1-0.5,4.2-1.7c1.2-1.2,1.7-2.6,1.7-4.2C62.5,20.4,62.4,19.7,62.1,19
	z M56.5,23.2c-1.3,0-2.3-1-2.3-2.3c0-1.3,1-2.3,2.3-2.3c1.3,0,2.3,1,2.3,2.3C58.8,22.2,57.8,23.2,56.5,23.2z"/>
<path class="st1" d="M46.8,15.3H46l0-1.8c0-0.5-0.2-1-0.6-1.3c-0.4-0.4-0.8-0.6-1.3-0.6c-0.5,0-1,0.2-1.4,0.6
	c-0.4,0.4-0.6,0.8-0.6,1.4v1.8h-0.3c-0.5,0-0.9,0.2-1.3,0.5c-0.4,0.3-0.5,0.7-0.5,1.2c0,0.5,0.2,0.9,0.5,1.2
	c0.3,0.4,0.8,0.5,1.3,0.5h0.4v7.2c0,0.3,0,0.5,0.1,0.8c0.1,0.2,0.2,0.4,0.4,0.6c0.4,0.4,0.8,0.6,1.3,0.6c0.5,0,1-0.2,1.4-0.6
	c0.4-0.4,0.5-0.8,0.5-1.4l0-7.1h0.8c0.5,0,0.9-0.2,1.2-0.5c0.3-0.3,0.5-0.7,0.5-1.2s-0.2-0.9-0.5-1.2C47.7,15.4,47.3,15.3,46.8,15.3
	z"/>
<path class="st1" d="M87.7,26.6l6-14.9c0.1-0.2,0.1-0.4,0.1-0.6c0-1.1-0.6-2-1.7-2.2c-1-0.2-1.9,0.3-2.3,1.3L84,25
	c-0.1,0.2-0.1,0.4-0.1,0.6C83.8,28.1,87,28.6,87.7,26.6z"/>
<path class="st1" d="M79.6,20.9c0.6,0,1.1-0.2,1.5-0.6c0.4-0.4,0.6-0.9,0.6-1.5c0-0.6-0.2-1.1-0.6-1.5c-0.4-0.4-0.9-0.6-1.5-0.6
	s-1.1,0.2-1.5,0.6c-0.4,0.4-0.7,0.9-0.7,1.5c0,0.6,0.2,1.1,0.7,1.5C78.5,20.7,79,20.9,79.6,20.9z"/>
<path d="M64.2,35.4L64.2,35.4c-1.2,0-2.2,1-2.2,2.2c0,1.2,1,2.2,2.2,2.2h0c1.2,0,2.2-1,2.2-2.2S65.4,35.4,64.2,35.4z"/>
<path d="M46.8,67.2L46.8,67.2c-1.2,0-2.2,1-2.2,2.2c0,1.2,1,2.2,2.2,2.2h0c1.2,0,2.2-1,2.2-2.2C49,68.2,48,67.2,46.8,67.2z"/>
</svg>
