<?xml version="1.0" encoding="utf-8"?>
<!-- Generator: Adobe Illustrator 23.0.3, SVG Export Plug-In . SVG Version: 6.00 Build 0)  -->
<svg version="1.1" id="Layer_1" xmlns="http://www.w3.org/2000/svg" xmlns:xlink="http://www.w3.org/1999/xlink" x="0px" y="0px"
	 viewBox="0 0 99 99" style="enable-background:new 0 0 99 99;" xml:space="preserve">
<style type="text/css">
	.st0{fill:#E8CB4A;}
	.st1{fill:#E73747;}
</style>
<g>
	<rect x="36.5" y="74.2" class="st0" width="26" height="12.4"/>
	<rect x="20.6" y="21.3" class="st0" width="20.9" height="7"/>
	<rect x="8.3" y="55.7" width="82.5" height="4.1"/>
	<path d="M66,88.4l-2.1-16.5c-0.1-1-1-1.8-2-1.8H37.1c-1,0-1.9,0.8-2,1.8L33,88.4c0,0.1,0,0.2,0,0.3c0,1.1,0.9,2.1,2.1,2.1h28.9
		c0.1,0,0.2,0,0.3,0C65.3,90.6,66.1,89.6,66,88.4z M37.4,86.6l1.5-12.4h21.1l1.5,12.4H37.4z"/>
	<path d="M70.1,86.6H28.9c-1.1,0-2.1,0.9-2.1,2.1v6.2c0,2.3,1.8,4.1,4.1,4.1h37.1c2.3,0,4.1-1.8,4.1-4.1v-6.2
		C72.2,87.5,71.3,86.6,70.1,86.6z M68.1,94.9H30.9v-4.1h37.1V94.9z"/>
	<path d="M94.9,45.4v22.7c0,1.1-0.9,2.1-2.1,2.1H6.2c-1.1,0-2.1-0.9-2.1-2.1V6.2C4.1,5,5,4.1,6.2,4.1h47.4V0H6.2C2.8,0,0,2.8,0,6.2
		v61.9c0,3.4,2.8,6.2,6.2,6.2h86.6c3.4,0,6.2-2.8,6.2-6.2V45.4H94.9z"/>
	<rect x="22.7" y="94.9" width="53.6" height="4.1"/>
	<path d="M12.4,10.3c-1.1,0-2.1,0.9-2.1,2.1v39.2h4.1V14.4h33v-4.1H12.4z"/>
	<path class="st1" d="M96.9,18.6h-5.2c-0.2-0.6-0.5-1.2-0.7-1.8l3.7-3.7c0.8-0.8,0.8-2.1,0-2.9l-5.8-5.8c-0.8-0.8-2.1-0.8-2.9,0
		L82.2,8c-0.6-0.3-1.2-0.5-1.8-0.7V2.1c0-1.1-0.9-2.1-2.1-2.1h-8.3c-1.1,0-2.1,0.9-2.1,2.1v5.2c-0.6,0.2-1.2,0.5-1.8,0.7l-3.7-3.7
		c-0.8-0.8-2.1-0.8-2.9,0l-5.8,5.8c-0.8,0.8-0.8,2.1,0,2.9l3.7,3.7c-0.3,0.6-0.5,1.2-0.7,1.8h-5.2c-1.1,0-2.1,0.9-2.1,2.1v8.3
		c0,1.1,0.9,2.1,2.1,2.1h5.2c0.2,0.6,0.5,1.2,0.7,1.8l-3.7,3.7c-0.8,0.8-0.8,2.1,0,2.9l5.8,5.8c0.8,0.8,2.1,0.8,2.9,0l3.7-3.7
		c0.6,0.3,1.2,0.5,1.8,0.7v5.2c0,1.1,0.9,2.1,2.1,2.1h8.3c1.1,0,2.1-0.9,2.1-2.1v-5.2c0.6-0.2,1.2-0.5,1.8-0.7l3.7,3.7
		c0.8,0.8,2.1,0.8,2.9,0l5.8-5.8c0.8-0.8,0.8-2.1,0-2.9L91,32.7c0.3-0.6,0.5-1.2,0.7-1.8h5.2c1.1,0,2.1-0.9,2.1-2.1v-8.3
		C99,19.5,98.1,18.6,96.9,18.6z M94.9,26.8h-4.7c-0.9,0-1.8,0.6-2,1.5c-0.3,1.3-0.9,2.6-1.5,3.7c-0.5,0.8-0.3,1.8,0.3,2.5l3.3,3.3
		l-2.9,2.9l-3.3-3.3c-0.7-0.7-1.7-0.8-2.5-0.3c-1.2,0.7-2.4,1.2-3.7,1.5c-0.9,0.2-1.5,1.1-1.5,2v4.7h-4.1l0-4.7c0-0.9-0.6-1.8-1.5-2
		c-1.3-0.3-2.6-0.9-3.7-1.5c-0.8-0.5-1.8-0.3-2.5,0.3l-3.3,3.3l-2.9-2.9l3.3-3.3c0.7-0.7,0.8-1.7,0.3-2.5c-0.7-1.2-1.2-2.4-1.5-3.7
		c-0.2-0.9-1.1-1.5-2-1.5h-4.7v-4.1h4.7c0.9,0,1.8-0.6,2-1.5c0.3-1.3,0.9-2.6,1.5-3.7c0.5-0.8,0.3-1.8-0.3-2.5l-3.3-3.3l2.9-2.9
		l3.3,3.3c0.7,0.7,1.7,0.8,2.5,0.3c1.2-0.7,2.4-1.2,3.7-1.5c0.9-0.2,1.5-1.1,1.5-2V4.1h4.1v4.7c0,0.9,0.6,1.8,1.5,2
		c1.3,0.3,2.6,0.9,3.7,1.5c0.8,0.5,1.8,0.3,2.5-0.3l3.3-3.3l2.9,2.9L87,14.9c-0.7,0.7-0.8,1.7-0.3,2.5c0.7,1.2,1.2,2.4,1.5,3.7
		c0.2,0.9,1.1,1.5,2,1.5h4.7L94.9,26.8L94.9,26.8z"/>
	<path class="st1" d="M74.2,16.5c-4.6,0-8.3,3.7-8.3,8.3s3.7,8.3,8.3,8.3c4.6,0,8.3-3.7,8.3-8.3S78.8,16.5,74.2,16.5z M74.2,28.9
		c-2.3,0-4.1-1.8-4.1-4.1s1.8-4.1,4.1-4.1c2.3,0,4.1,1.8,4.1,4.1S76.5,28.9,74.2,28.9z"/>
	<path d="M41.2,18.6H20.6c-1.1,0-2.1,0.9-2.1,2.1v8.3c0,1.1,0.9,2.1,2.1,2.1h20.6c1.1,0,2.1-0.9,2.1-2.1v-8.3
		C43.3,19.5,42.4,18.6,41.2,18.6z M39.2,26.8H22.7v-4.1h16.5V26.8z"/>
	<rect x="18.6" y="35.1" width="4.1" height="4.1"/>
	<rect x="26.8" y="35.1" width="4.1" height="4.1"/>
	<rect x="18.6" y="43.3" width="24.7" height="4.1"/>
</g>
</svg>
