<?xml version="1.0" encoding="utf-8"?>
<!-- Generator: Adobe Illustrator 23.0.3, SVG Export Plug-In . SVG Version: 6.00 Build 0)  -->
<svg version="1.1" id="Layer_1" xmlns="http://www.w3.org/2000/svg" xmlns:xlink="http://www.w3.org/1999/xlink" x="0px" y="0px"
	 viewBox="0 0 99 94" style="enable-background:new 0 0 99 94;" xml:space="preserve">
<style type="text/css">
	.st0{fill:#E73747;}
	.st1{fill:#E8CB4A;}
</style>
<g>
	<polygon class="st0" points="95.7,14.2 56.3,15.2 70.3,1.7 95.7,1.7 	"/>
	<polygon class="st1" points="50.4,28.1 46.7,28.1 41.7,34.8 49.3,52.8 58.4,34.8 	"/>
	<polygon class="st0" points="75.5,81.1 23.1,81.1 23.1,40.2 49.3,62.2 75.5,40.2 	"/>
	<path d="M92.4,0H6.6C3,0,0,3,0,6.6v8.3c0,0.9,0.7,1.6,1.6,1.6h42.9c0.9,0,1.6-0.6,1.6-1.5c0-0.9-0.7-1.8-1.6-1.8H3.3V6.6
		c0-1.8,1.5-3.3,3.3-3.3h85.8c1.8,0,3.3,1.5,3.3,3.3v6.6H44.5c-0.9,0-1.6,0.7-1.6,1.6s0.7,1.6,1.6,1.6h52.9c0.9,0,1.6-0.7,1.6-1.6
		V6.6C99,3,96,0,92.4,0z"/>
	<path d="M97.4,9.8c-0.9,0-1.6,0.7-1.6,1.6v75.9c0,1.8-1.5,3.3-3.3,3.3H6.6c-1.8,0-3.3-1.5-3.3-3.3V11.4c0-0.9-0.7-1.6-1.6-1.6
		S0,10.5,0,11.4v75.9C0,91,3,94,6.6,94h85.8c3.6,0,6.6-3,6.6-6.6v-76C99,10.5,98.3,9.8,97.4,9.8z"/>
	<g>
		<path class="st0" d="M8.3,6.6c-0.9,0-1.6,0.7-1.6,1.6s0.7,1.6,1.6,1.6h1.6c0.9,0,1.6-0.7,1.6-1.6s-0.7-1.6-1.6-1.6H8.3z"/>
		<path class="st0" d="M16.5,6.6c-0.9,0-1.6,0.7-1.6,1.6s0.7,1.6,1.6,1.6h1.6c0.9,0,1.6-0.7,1.6-1.6s-0.7-1.6-1.6-1.6H16.5z"/>
		<path class="st0" d="M24.8,6.6c-0.9,0-1.6,0.7-1.6,1.6s0.7,1.7,1.6,1.7h1.6c0.9,0,1.6-0.7,1.6-1.6c0-0.9-0.7-1.6-1.6-1.6L24.8,6.6
			L24.8,6.6z"/>
	</g>
	<path d="M25.1,39.5c-1.7,0-3.1,1.4-3.1,3.1v35.8c0,1.7,1.4,3.1,3.1,3.1h48.9c1.7,0,3.1-1.4,3.1-3.1V42.6c0-1.7-1.4-3.1-3.1-3.1
		H56.1v-2.6H60c0.5,0,1-0.3,1.2-0.9c0.2-0.5,0-1.1-0.4-1.4l-10.5-9.2c-0.5-0.4-1.2-0.4-1.7,0l-10.5,9.2c-0.4,0.4-0.6,0.9-0.4,1.4
		c0.2,0.5,0.7,0.9,1.2,0.9h3.9v2.6H25.1z M44.3,34.3h-1.8l7-6.1l7,6.1h-1.8c-0.7,0-1.3,0.6-1.3,1.3v10.5c0,0.7,0.6,1.3,1.3,1.3
		s1.3-0.6,1.3-1.3v-3.9h17.9c0.1,0,0.3,0,0.3,0.1c0.1,0.1,0.1,0.2,0.1,0.3v35.8c0,0.1-0.1,0.3-0.1,0.3c-0.1,0.1-0.2,0.1-0.3,0.1
		H25.1c-0.1,0-0.3,0-0.3-0.1c-0.1-0.1-0.1-0.2-0.1-0.3V42.6c0-0.1,0.1-0.3,0.1-0.3s0.2-0.1,0.3-0.1h17.9v3.9c0,0.7,0.6,1.3,1.3,1.3
		s1.3-0.6,1.3-1.3V35.6C45.6,34.8,45,34.3,44.3,34.3z"/>
	<path d="M27.5,45.2c-0.4,0.6-0.3,1.4,0.2,1.8L47,62.2c1.5,1.2,3.6,1.2,5.1,0l19.3-15.2c0.4-0.3,0.6-0.8,0.5-1.2
		c-0.1-0.5-0.4-0.9-0.8-1c-0.4-0.2-0.9-0.1-1.3,0.2L50.4,60.2c-0.5,0.4-1.3,0.4-1.8,0L29.3,45C28.8,44.6,27.9,44.7,27.5,45.2z"/>
	<path d="M40.7,63.1c-0.5-0.1-1,0-1.3,0.3L27.6,73.9c-0.4,0.3-0.5,0.8-0.4,1.3c0.1,0.5,0.4,0.9,0.9,1s1,0,1.3-0.3l11.8-10.5
		c0.4-0.3,0.5-0.8,0.4-1.3C41.5,63.7,41.2,63.3,40.7,63.1z"/>
	<path d="M71.4,73.9L59.6,63.4c-0.5-0.5-1.3-0.4-1.8,0.1c-0.5,0.5-0.4,1.3,0.1,1.8l11.8,10.5c0.3,0.3,0.8,0.4,1.3,0.3s0.8-0.5,0.9-1
		C71.9,74.7,71.7,74.2,71.4,73.9z"/>
</g>
</svg>
