<?xml version="1.0" encoding="utf-8"?>
<!-- Generator: Adobe Illustrator 23.0.3, SVG Export Plug-In . SVG Version: 6.00 Build 0)  -->
<svg version="1.1" id="Layer_1" xmlns="http://www.w3.org/2000/svg" xmlns:xlink="http://www.w3.org/1999/xlink" x="0px" y="0px"
	 viewBox="0 0 93.2 99" style="enable-background:new 0 0 93.2 99;" xml:space="preserve">
<style type="text/css">
	.st0{fill:#E8CB4A;}
	.st1{fill:#FFFFFF;}
	.st2{fill:#E73747;}
</style>
<g>
	<path class="st0" d="M47.7,58.6h-1.6c-5.2,0-9.4-4.2-9.4-9.4v-1.6c0-5.2,4.2-9.4,9.4-9.4h1.6c5.2,0,9.4,4.2,9.4,9.4v1.6
		C57.1,54.4,52.9,58.6,47.7,58.6z"/>
	<path class="st1" d="M51.9,38.1H41.7c-0.9,0-1.7-0.7-1.7-1.7V26.2c0-0.9,0.7-1.7,1.7-1.7h10.3c0.9,0,1.7,0.7,1.7,1.7v10.3
		C53.6,37.4,52.8,38.1,51.9,38.1z"/>
	<path class="st0" d="M71.3,19.9H57.1c-1,0-1.7-0.8-1.7-1.7V3.9"/>
	<polygon class="st2" points="92.5,45.7 74.3,56.7 74.3,30.5 90.5,40.5 	"/>
	<polygon class="st2" points="1.3,45.7 19.5,56.7 19.5,30.5 3.3,40.5 	"/>
	<path d="M43.6,52c0.5,0.6,1.3,0.6,1.9,0.2l6.8-5.6c0.6-0.5,0.7-1.3,0.2-1.9c-0.5-0.6-1.3-0.7-1.9-0.2l-5.8,4.7l-2.1-2.4
		c-0.5-0.6-1.3-0.6-1.9-0.2c-0.6,0.5-0.6,1.3-0.1,1.9L43.6,52z"/>
	<path d="M46.6,61c7,0,12.7-5.7,12.7-12.7c0-3.3-1.3-6.4-3.5-8.8v-8.8c0-5-4-9-9-9c-5,0-9,4-9,9v8.5c-3.7,3.6-4.8,9.1-2.8,13.8
		C36.8,57.9,41.4,61,46.6,61z M40.4,30.8c0-3.5,2.8-6.3,6.3-6.3s6.3,2.8,6.3,6.3v6.6c-3.9-2.3-8.7-2.3-12.6-0.1V30.8z M46.6,38.4
		c5.5,0,9.9,4.5,9.9,9.9s-4.5,9.9-9.9,9.9s-9.9-4.5-9.9-9.9c0-2.6,1-5.2,2.9-7S43.9,38.4,46.6,38.4z"/>
	<path d="M55.4,0.5C55.4,0.5,55.4,0.5,55.4,0.5C55.1,0.2,54.7,0,54.3,0c-0.1,0-0.1,0-0.2,0l-0.1,0c0,0-0.1,0-0.1,0H26.6
		c-4.7,0-8.5,3.8-8.5,8.5v20.8L2.8,38.6c-1.7,1.1-2.8,3-2.8,5v44C0,93.9,5.1,99,11.4,99h70.4c6.3,0,11.4-5.1,11.4-11.4v-44
		c0-2-1.1-3.9-2.8-5l-14.8-9.1c0,0-0.1-0.1-0.1-0.1l-0.4-0.2V23c0-0.3-0.1-0.7-0.3-0.9 M88.9,40.9c0.9,0.6,1.5,1.6,1.5,2.7v2.5
		l-15.4,9.4V32.3L88.9,40.9z M55.7,4.9l13,14.5h-7.2c-3.2,0-5.8-2.6-5.8-5.8V4.9z M26.6,2.7H53v10.9c0,4.7,3.8,8.5,8.5,8.5h9.6
		l1.2,1.4v33.7L46.6,72.9L20.8,57.2V8.5C20.8,5.3,23.4,2.7,26.6,2.7z M4.2,40.9l13.9-8.4v23L2.7,46.1v-2.5
		C2.7,42.5,3.3,41.5,4.2,40.9z M81.8,96.3H11.4c-4.8,0-8.7-3.9-8.7-8.7V49.3L18.5,59c0.1,0.1,0.3,0.3,0.5,0.3l26.9,16.4
		c0.4,0.3,1,0.3,1.4,0l26.9-16.4c0.2-0.1,0.4-0.2,0.5-0.3l15.8-9.6v38.3C90.4,92.4,86.6,96.3,81.8,96.3z"/>
</g>
</svg>
