<?xml version="1.0" encoding="utf-8"?>
<!-- Generator: Adobe Illustrator 23.0.3, SVG Export Plug-In . SVG Version: 6.00 Build 0)  -->
<svg version="1.1" id="Layer_1" xmlns="http://www.w3.org/2000/svg" xmlns:xlink="http://www.w3.org/1999/xlink" x="0px" y="0px"
	 viewBox="0 0 102.8 96" style="enable-background:new 0 0 102.8 96;" xml:space="preserve">
<style type="text/css">
	.st0{fill:#E8CB4A;}
	.st1{fill:#E73747;}
	.st2{stroke:#000000;stroke-miterlimit:10;}
</style>
<rect x="47.2" y="71.3" class="st0" width="16.3" height="10.9"/>
<rect x="75.6" y="48" class="st0" width="24.6" height="8.1"/>
<rect x="1.8" y="84.3" class="st1" width="44.1" height="9.4"/>
<path class="st2" d="M97.2,46.3V9c0-4.7-3.8-8.5-8.5-8.5H14.1C9.4,0.5,5.6,4.3,5.6,9v25.4c-2.8,0-5.1,2.3-5.1,5.1v50.9
	c0,2.8,2.3,5.1,5.1,5.1h37.3c2.8,0,5.1-2.3,5.1-5.1h14.2c1.6,0,3.1-0.7,4-2c1-1.3,1.3-2.9,0.9-4.4l-3.3-12.2h9.7v18.7
	c0,2.8,2.3,5.1,5.1,5.1h18.7c2.8,0,5.1-2.3,5.1-5.1v-39C102.3,48.6,100,46.3,97.2,46.3z M45.9,91.7c0,0.9-2,1.7-3,1.7H4.3
	c-0.9,0-1.7-0.8-1.7-1.7v-5.9h43.3V91.7z M45.9,83.6H2.6V46.3h43.3V83.6z M45.9,44.2H2.6v-4.7c0-0.9,0.8-3,1.7-3h39.9
	c0.9,0,1.7,2,1.7,3V44.2z M63.9,84.9c0.1,0.5,0,2.3-0.3,2.7c-0.3,0.4-0.8,0.7-1.3,0.7H48v-4.7h15.5L63.9,84.9z M48,81.5v-9.8h12.3
	l2.3,9.8H48z M73.4,69.6H48V56.9h25.4V69.6z M73.4,51.4v3.4H48V39.5c0-2.8-2.3-5.1-5.1-5.1H7.7V9c0-2.8,2.3-6.4,5.1-6.4h75.9
	c2.8,0,6.4,3.6,6.4,6.4v37.3H78.5C75.7,46.3,73.4,48.6,73.4,51.4z M100.2,91.7c0,0.9-2,1.7-3,1.7H77.3c-0.9,0-1.7-0.8-1.7-1.7v-5.9
	h24.6V91.7z M100.2,83.6H75.6V58.2h24.6V83.6z M100.2,56.1H75.6v-5.9c0-0.9,0.8-1.7,1.7-1.7h21.2c0.9,0,1.7,0.8,1.7,1.7V56.1z"/>
<rect x="9.3" y="66.7" transform="matrix(0.7071 -0.7071 0.7071 0.7071 -44.2133 29.9704)" width="9.6" height="3.4"/>
<rect x="13.2" y="65" transform="matrix(0.7071 -0.7071 0.7071 0.7071 -39.0391 39.0697)" width="28.8" height="3.4"/>
<rect x="18.7" y="54.8" transform="matrix(0.7071 -0.7071 0.7071 0.7071 -32.3405 34.889)" width="14.4" height="3.4"/>
<rect x="80.2" y="65.8" transform="matrix(0.7071 -0.7071 0.7071 0.7071 -22.5001 80.7005)" class="st1" width="12" height="3.4"/>
<rect x="83.6" y="72.6" transform="matrix(0.7071 -0.7071 0.7071 0.7071 -26.3098 85.0898)" class="st1" width="12" height="3.4"/>
<rect x="44.2" y="24.3" transform="matrix(0.7071 -0.7071 0.7071 0.7071 -3.2953 43.9383)" class="st1" width="14.4" height="3.4"/>
<rect x="59.5" y="20.9" transform="matrix(0.7071 -0.7071 0.7071 0.7071 3.5761 53.7416)" class="st1" width="14.4" height="3.4"/>
<rect x="50" y="32.7" transform="matrix(0.7071 -0.7071 0.7071 0.7071 -8.3004 48.8227)" class="st1" width="9.6" height="3.4"/>
<rect x="58.5" y="12.4" transform="matrix(0.7071 -0.7071 0.7071 0.7071 8.5706 48.8604)" class="st1" width="9.6" height="3.4"/>
<rect x="12.4" y="7.3" width="3.4" height="3.4"/>
<rect x="19.2" y="7.3" width="3.4" height="3.4"/>
<rect x="25.9" y="7.3" width="3.4" height="3.4"/>
</svg>
