<?xml version="1.0" encoding="utf-8"?>
<!-- Generator: Adobe Illustrator 23.0.3, SVG Export Plug-In . SVG Version: 6.00 Build 0)  -->
<svg version="1.1" id="Layer_1" xmlns="http://www.w3.org/2000/svg" xmlns:xlink="http://www.w3.org/1999/xlink" x="0px" y="0px"
	 viewBox="0 0 99 102" style="enable-background:new 0 0 99 102;" xml:space="preserve">
<style type="text/css">
	.st0{fill:#E8CB4A;}
	.st1{fill:#E73747;}
</style>
<polyline class="st0" points="17,50.5 3.8,40.3 17,30.2 "/>
<polyline class="st0" points="82.7,30.1 95.2,41.2 81.3,50.4 "/>
<path class="st1" d="M53,10.1h-8.5c-1.1,0,0-0.9,0-1.9V5.2c0-1.1,0.9-1.9,1.9-1.9H53c1.1,0,1.9,0.9,1.9,1.9v2.9
	C54.9,9.2,54.1,10.1,53,10.1z"/>
<polygon class="st1" points="53.7,64.8 43.3,64.8 3.3,100.2 95.7,100.2 "/>
<path d="M99,40.8c0-0.1,0-0.2-0.1-0.3c0-0.1-0.1-0.2-0.1-0.3c0-0.1-0.1-0.2-0.2-0.3c-0.1-0.1-0.1-0.2-0.2-0.3c0,0,0-0.1-0.1-0.1
	L82.5,27.3V14.5c0-2.7-2.2-5-5-5H59.7L52.5,1c-1.8-1.4-4.2-1.4-6,0l-7.2,8.6H21.4c-2.7,0-5,2.2-5,5v12.8L0.6,39.6c0,0,0,0.1-0.1,0.1
	c-0.1,0.1-0.2,0.2-0.2,0.3c-0.1,0.1-0.1,0.2-0.2,0.3c0,0.1-0.1,0.2-0.1,0.3c0,0.1-0.1,0.2-0.1,0.3c0,0,0,0.1,0,0.1V97
	c0,1,0.3,2.1,1,2.9c0,0,0,0,0,0c0,0,0,0,0.1,0c0.9,1.2,2.4,1.9,3.9,1.9h89.1c1.5,0,3-0.7,3.9-2c0,0,0,0,0,0c0,0,0,0,0,0
	c0.6-0.8,1-1.9,1-2.9L99,40.8C99,40.9,99,40.9,99,40.8z M48.5,3.6c0.6-0.5,1.4-0.5,2,0l3.8,6h-9.6L48.5,3.6z M5.4,98.7l43.1-33.5
	c0.6-0.5,1.4-0.5,2,0l43.2,33.5H5.4z M95.7,96.1L52.5,62.6c-1.8-1.4-4.2-1.4-6,0L3.3,96.1V43.5l27,21c0.7,0.6,1.8,0.4,2.3-0.3
	c0.6-0.7,0.4-1.8-0.3-2.3L4.9,40.5l11.6-9v20.8c0,0.9,0.7,1.7,1.7,1.7c0.9,0,1.6-0.7,1.6-1.7V14.5c0-0.9,0.7-1.6,1.7-1.6h56.1
	c0.9,0,1.7,0.7,1.7,1.6v37.7c0,0.9,0.7,1.7,1.7,1.7c0.9,0,1.7-0.7,1.7-1.7V31.5l11.6,9L66.6,61.9c-0.5,0.4-0.7,0.9-0.6,1.5
	c0.1,0.6,0.5,1.1,1,1.3c0.6,0.2,1.2,0.1,1.6-0.2l27.1-21L95.7,96.1L95.7,96.1z"/>
<path class="st1" d="M69.3,42.6V36c0-10.9-8.9-19.8-19.8-19.8c-10.9,0-19.8,8.9-19.8,19.8c0,10.9,8.9,19.8,19.8,19.8
	c0.9,0,1.6-0.7,1.6-1.7c0-0.9-0.7-1.6-1.6-1.6C40.4,52.5,33,45.1,33,36c0-9.1,7.4-16.5,16.5-16.5C58.6,19.5,66,26.9,66,36v6.6
	c0,1.8-1.5,3.3-3.3,3.3c-1.8,0-3.3-1.5-3.3-3.3V36c0-0.9-0.7-1.7-1.6-1.7c-0.9,0-1.7,0.7-1.7,1.7c0,3.6-3,6.6-6.6,6.6
	c-3.6,0-6.6-3-6.6-6.6c0-3.6,3-6.6,6.6-6.6c0.9,0,1.6-0.7,1.6-1.7c0-0.9-0.7-1.7-1.6-1.7c-4.4,0-8.3,2.9-9.5,7.2s0.6,8.8,4.3,11.1
	c3.8,2.3,8.6,1.9,11.9-1.1c0.4,3.5,3.4,6.1,6.9,5.9C66.6,49,69.3,46.1,69.3,42.6z"/>
</svg>
