<?xml version="1.0" encoding="utf-8"?>
<!-- Generator: Adobe Illustrator 23.0.3, SVG Export Plug-In . SVG Version: 6.00 Build 0)  -->
<svg version="1.1" id="Layer_1" xmlns="http://www.w3.org/2000/svg" xmlns:xlink="http://www.w3.org/1999/xlink" x="0px" y="0px"
	 viewBox="0 0 99 87.7" style="enable-background:new 0 0 99 87.7;" xml:space="preserve">
<style type="text/css">
	.st0{fill:#E73747;}
	.st1{fill:#FFFFFF;}
	.st2{fill:#E8CB4A;}
</style>
<g>
	<polygon class="st0" points="93.6,49.5 66.6,2.6 40,2.6 40,2.6 67,49.5 	"/>
	<polyline class="st1" points="27.6,11.5 1.7,59.6 16.5,79.6 41.3,32.7 	"/>
	<polyline class="st2" points="95.6,62.4 41,63.6 30.9,86.3 84,84.7 	"/>
	<g>
		<path d="M65.1,3l26.5,46.1H69L42.5,3H65.1 M66.9,0H37.3l30,52.1h29.5L66.9,0L66.9,0z"/>
	</g>
	<g>
		<path d="M93.9,64.6L82.5,84.7h-50l11.4-20.1H93.9 M99,61.6H42.1L27.3,87.7h56.9L99,61.6L99,61.6z"/>
	</g>
	<g>
		<path d="M28.3,12.5L40,32.6L14.8,76.5l-11.3-20L28.3,12.5 M28.2,6.5L0,56.5l14.8,26.1l28.7-50L28.2,6.5L28.2,6.5z"/>
	</g>
</g>
</svg>
