<?xml version="1.0" encoding="utf-8"?>
<!-- Generator: Adobe Illustrator 23.0.3, SVG Export Plug-In . SVG Version: 6.00 Build 0)  -->
<svg version="1.1" id="Layer_1" xmlns="http://www.w3.org/2000/svg" xmlns:xlink="http://www.w3.org/1999/xlink" x="0px" y="0px"
	 viewBox="0 0 72.8 99" style="enable-background:new 0 0 72.8 99;" xml:space="preserve">
<style type="text/css">
	.st0{fill:#E73747;}
	.st1{fill:#E8CB4A;stroke:#000000;stroke-miterlimit:10;}
</style>
<polyline class="st0" points="68.2,26 45.8,26 45.8,4.7 "/>
<rect x="21.4" y="51.7" class="st0" width="15" height="25.8"/>
<rect x="36.4" y="51.7" class="st1" width="15" height="25.8"/>
<g>
	<path d="M72.2,26.6l-26-26C45.8,0.2,45.3,0,44.8,0H8.1C3.6,0,0,3.6,0,8.1v82.8C0,95.4,3.6,99,8.1,99h56.6c4.5,0,8.1-3.6,8.1-8.1V28
		C72.8,27.5,72.6,27,72.2,26.6z M46.7,6.7L66.1,26H50.9c-2.3,0-4.2-1.9-4.2-4.2L46.7,6.7L46.7,6.7z M68.9,90.9
		c0,2.3-1.9,4.2-4.2,4.2H8.1c-2.3,0-4.2-1.9-4.2-4.2V8.1c0-2.3,1.9-4.2,4.2-4.2h34.7v18c0,4.5,3.6,8.1,8.1,8.1h18L68.9,90.9
		L68.9,90.9z"/>
</g>
<g>
	<path d="M51.5,49.3H21.3c-1.1,0-2,0.9-2,2v26.2c0,1.1,0.9,2,2,2h30.1c1.1,0,2-0.9,2-2V51.3C53.4,50.2,52.5,49.3,51.5,49.3z
		 M23.3,53.2h11.2V58H23.3V53.2z M34.4,75.5H23.3v-4.8h11.2V75.5z M34.4,66.9L34.4,66.9H23.3v-5h11.2V66.9z M49.5,75.5H38.3v-4.8
		h11.2V75.5z M49.5,66.9H38.3v-5h11.2V66.9z M49.5,58H38.3v-4.8h11.2V58z"/>
</g>
</svg>
