<?xml version="1.0" encoding="utf-8"?>
<!-- Generator: Adobe Illustrator 23.0.3, SVG Export Plug-In . SVG Version: 6.00 Build 0)  -->
<svg version="1.1" id="Layer_1" xmlns="http://www.w3.org/2000/svg" xmlns:xlink="http://www.w3.org/1999/xlink" x="0px" y="0px"
	 viewBox="0 0 72.8 99" style="enable-background:new 0 0 72.8 99;" xml:space="preserve">
<style type="text/css">
	.st0{fill:#E73747;}
</style>
<polyline class="st0" points="68.1,26.5 46.4,26.5 46.4,5.7 "/>
<g>
	<path d="M72.2,26.6l-26-26C45.8,0.2,45.3,0,44.8,0H8.1C3.6,0,0,3.6,0,8.1v82.8C0,95.4,3.6,99,8.1,99h56.6c4.5,0,8.1-3.6,8.1-8.1V28
		C72.8,27.5,72.6,27,72.2,26.6z M46.7,6.7L66.1,26H50.9c-2.3,0-4.2-1.9-4.2-4.2L46.7,6.7L46.7,6.7z M68.9,90.9
		c0,2.3-1.9,4.2-4.2,4.2H8.1c-2.3,0-4.2-1.9-4.2-4.2V8.1c0-2.3,1.9-4.2,4.2-4.2h34.7v18c0,4.5,3.6,8.1,8.1,8.1h18V90.9z"/>
</g>
<g>
	<path class="st0" d="M52,49.7H20.7c-1.1,0-2,0.9-2,2c0,1.1,0.9,2,2,2H52c1.1,0,2-0.9,2-2C54,50.6,53.1,49.7,52,49.7z"/>
</g>
<g>
	<path class="st0" d="M52,58.4H20.7c-1.1,0-2,0.9-2,2c0,1.1,0.9,2,2,2H52c1.1,0,2-0.9,2-2C54,59.3,53.1,58.4,52,58.4z"/>
</g>
<g>
	<path class="st0" d="M52,67.2H20.7c-1.1,0-2,0.9-2,2s0.9,2,2,2H52c1.1,0,2-0.9,2-2S53.1,67.2,52,67.2z"/>
</g>
<g>
	<path class="st0" d="M41.9,75.9H20.7c-1.1,0-2,0.9-2,2c0,1.1,0.9,2,2,2h21.1c1.1,0,2-0.9,2-2C43.8,76.8,42.9,75.9,41.9,75.9z"/>
</g>
</svg>
