<?xml version="1.0" encoding="utf-8"?>
<!-- Generator: Adobe Illustrator 23.0.3, SVG Export Plug-In . SVG Version: 6.00 Build 0)  -->
<svg version="1.1" id="Layer_1" xmlns="http://www.w3.org/2000/svg" xmlns:xlink="http://www.w3.org/1999/xlink" x="0px" y="0px"
	 viewBox="0 0 83.9 99" style="enable-background:new 0 0 83.9 99;" xml:space="preserve">
<style type="text/css">
	.st0{fill:#FFFFFF;}
	.st1{fill:#E73747;}
</style>
<rect x="24" y="35.3" class="st0" width="10.9" height="9.1"/>
<rect x="48" y="35.3" class="st0" width="10.9" height="9.1"/>
<path d="M73.6,75.6c6.6-9.9,10.3-21.9,10.3-33.6c0-23.1-18.8-42-42-42C18.8,0,0,18.8,0,42C0,64,17.1,82.2,38.7,83.8v12
	c0,1,0.5,2,1.3,2.6c0.8,0.6,1.9,0.8,2.9,0.4C55.7,94.6,66.3,86.6,73.6,75.6z M40.6,79.7c-21.9,0-38.3-18.5-36.9-40.8
	C5,19.9,20.5,4.4,39.5,3.2c22.2-1.4,40.8,16.3,40.8,38.2c0,19.5-12.1,42.8-36.1,53L43.9,83c0-1.4-0.9-2.8-2.3-3.2
	C41.3,79.7,41,79.7,40.6,79.7z"/>
<path class="st1" d="M35.8,30.7H23.5c-1.7,0-3.1,1.4-3.1,3.1V46c0,1.7,1.4,3.1,3.1,3.1h9.2c-0.2,2.8-1.9,5.2-4.4,6.5
	c-1.5,0.8-2.1,2.6-1.4,4.1c0.8,1.5,2.6,2.1,4.1,1.4c4.8-2.4,7.8-7.3,7.8-12.7c0-3.3,0-11.4,0-14.6C38.9,32,37.5,30.7,35.8,30.7z
	 M32.7,42.9h-6.1v-6.1h6.1V42.9z"/>
<path class="st1" d="M60.4,30.7H48.1c-1.7,0-3.1,1.4-3.1,3.1V46c0,1.7,1.4,3.1,3.1,3.1h9.2c-0.2,2.8-1.9,5.2-4.4,6.5
	c-1.5,0.8-2.1,2.6-1.4,4.1c0.8,1.5,2.6,2.1,4.1,1.4c4.8-2.4,7.8-7.3,7.8-12.7c0-3.3,0-11.4,0-14.6C63.5,32,62.1,30.7,60.4,30.7z
	 M57.3,42.9h-6.1v-6.1h6.1V42.9z"/>
</svg>
