<?xml version="1.0" encoding="utf-8"?>
<!-- Generator: Adobe Illustrator 23.0.3, SVG Export Plug-In . SVG Version: 6.00 Build 0)  -->
<svg version="1.1" id="Isolation_Mode" xmlns="http://www.w3.org/2000/svg" xmlns:xlink="http://www.w3.org/1999/xlink" x="0px"
	 y="0px" viewBox="0 0 495.8 496" style="enable-background:new 0 0 495.8 496;" xml:space="preserve">
<style type="text/css">
	.st0{fill:#E73747;}
	.st1{fill:#E8CB4A;}
	.st2{fill:#FFFFFF;}
</style>
<path class="st0" d="M373.5,447.8h-43.4l-7.1-20.5c-5.4-1.7-10.6-3.8-15.5-6.4l-19.5,9.5l-30.7-30.7l9.5-19.5
	c-2.6-5-4.7-10.2-6.4-15.5l-20.5-7.1v-43.4l20.5-7.1c1.7-5.4,3.8-10.6,6.4-15.5l-9.5-19.5l30.7-30.7l19.5,9.5
	c5-2.6,10.2-4.7,15.5-6.4l7.1-20.5h43.4l7.1,20.5c5.4,1.7,10.6,3.8,15.5,6.4l19.5-9.5l30.7,30.7l-9.5,19.5c2.6,5,4.7,10.2,6.4,15.5
	l20.5,7.1v43.4l-20.5,7.1c-1.7,5.4-3.8,10.6-6.4,15.5l9.5,19.5l-30.7,30.7l-19.5-9.5c-5,2.6-10.2,4.7-15.5,6.4L373.5,447.8z
	 M373.5,447.8"/>
<path class="st1" d="M56,80c-13.2,0-24-10.8-24-24c0-13.2,10.8-24,24-24c13.2,0,24,10.8,24,24C80,69.2,69.2,80,56,80L56,80z M56,80"
	/>
<circle class="st2" cx="349.7" cy="336.5" r="53.7"/>
<path class="st1" d="M56,367.8c-13.2,0-24-10.8-24-24c0-13.2,10.8-24,24-24c13.2,0,24,10.8,24,24C80,357.1,69.2,367.8,56,367.8
	L56,367.8z M56,367.8"/>
<path d="M287.9,335.9c0,35.3,28.7,64,64,64c35.3,0,64-28.7,64-64c0-35.3-28.7-64-64-64C316.6,271.9,287.9,300.6,287.9,335.9
	L287.9,335.9z M399.8,335.9c0,26.5-21.5,48-48,48c-26.5,0-48-21.5-48-48c0-26.5,21.5-48,48-48C378.3,287.9,399.8,309.4,399.8,335.9
	L399.8,335.9z M399.8,335.9"/>
<path d="M319.9,335.9c0,17.6,14.3,32,32,32v-16c-8.8,0-16-7.2-16-16c0-8.8,7.2-16,16-16c8.8,0,16,7.2,16,16h16c0-17.6-14.3-32-32-32
	C334.2,303.9,319.9,318.2,319.9,335.9L319.9,335.9z M319.9,335.9"/>
<path d="M495.3,207.9h-8c-45.6,0-91.2-10.8-131.9-31.1l-3.6-1.8v-7.1c0-13.2-10.8-24-24-24v-32c13.2,0,24-10.8,24-24V24
	c0-13.2-10.8-24-24-24H24C10.8,0,0,10.8,0,24v64c0,13.2,10.8,24,24,24v32c-13.2,0-24,10.8-24,24v64c0,13.2,10.8,24,24,24v32
	c-13.2,0-24,10.8-24,24v64c0,13.2,10.8,24,24,24h204c23.9,47.1,67.6,82.9,122,95.8l1.8,0.4l1.8-0.4
	c83.7-19.7,142.1-93.5,142.1-179.4V215.9L495.3,207.9z M335.9,167.9v14.6c-25.4,11.2-52.3,18.8-80,22.6v-45.2h72
	C332.3,159.9,335.9,163.5,335.9,167.9L335.9,167.9z M335.9,24v64c0,4.4-3.6,8-8,8H111.9V16h215.9C332.3,16,335.9,19.6,335.9,24
	L335.9,24z M16,88V24c0-4.4,3.6-8,8-8h72v80H24C19.6,96,16,92.4,16,88L16,88z M40,112h271.9v32H40V112z M16,231.9v-64
	c0-4.4,3.6-8,8-8h215.9v46.9c-8,0.6-16,1.1-24,1.1h-8v32H24C19.6,239.9,16,236.3,16,231.9L16,231.9z M40,255.9h167.9v32H40V255.9z
	 M16,375.8v-64c0-4.4,3.6-8,8-8h72v80H24C19.6,383.8,16,380.3,16,375.8L16,375.8z M111.9,383.8v-80h96v12.3c0,6.7,0.5,13.2,1.2,19.7
	h-81.1v16h83.5c2.2,11,5.3,21.7,9.3,32H111.9z M479.8,316.2c0,77.9-52.5,144.8-127.9,163.4C276.4,461,223.9,394,223.9,316.2v-92.3
	c44.2-1.1,88.2-11.7,127.9-31c39.7,19.2,83.5,29.8,127.9,31V316.2z M479.8,316.2"/>
<rect x="127.9" y="48" width="191.9" height="16"/>
<rect x="32" y="191.9" width="159.9" height="16"/>
</svg>
