<?xml version="1.0" encoding="utf-8"?>
<!-- Generator: Adobe Illustrator 23.0.3, SVG Export Plug-In . SVG Version: 6.00 Build 0)  -->
<svg version="1.1" id="Layer_1" xmlns="http://www.w3.org/2000/svg" xmlns:xlink="http://www.w3.org/1999/xlink" x="0px" y="0px"
	 viewBox="0 0 496 496" style="enable-background:new 0 0 496 496;" xml:space="preserve">
<style type="text/css">
	.st0{fill:#E73747;}
	.st1{fill:#E8CB4A;}
</style>
<g>
	<path class="st0" d="M336,120c0,48.6-39.4,88-88,88s-88-39.4-88-88s39.4-88,88-88S336,71.4,336,120L336,120z M336,120"/>
	<rect x="32" y="240" class="st1" width="128" height="48"/>
	<rect x="32" y="304" class="st1" width="128" height="48"/>
	<rect x="176" y="416" class="st1" width="80" height="48"/>
	<rect x="272" y="416" class="st1" width="96" height="48"/>
	<rect x="384" y="416" class="st1" width="80" height="48"/>
	<path d="M365.6,144c1.6-7.8,2.4-15.8,2.4-24C368,53.8,314.2,0,248,0S128,53.8,128,120c0,8.2,0.8,16.2,2.4,24H0v352h496V144H365.6z
		 M480,160v48H329.3c14.2-13.1,25.1-29.5,31.7-48H480z M184.4,128c1.1,19.1,5.6,35.8,11.9,50.1c-11.7,5-19.5,10.7-23.2,13.8
		c-16.2-16.9-26.8-39.2-28.7-63.9H184.4z M351.6,128c-1.9,24.7-12.4,47-28.7,63.9c-3.8-3.1-11.5-8.8-23.2-13.8
		c6.3-14.3,10.9-31.1,11.9-50.1H351.6z M284.4,172.8c-8.2-2.3-17.7-4-28.4-4.6V128h39.6C294.5,145,290.2,160,284.4,172.8
		L284.4,172.8z M240,214.2c-6.2-6.4-13.8-15.4-20.7-26.8c6.2-1.5,13.1-2.6,20.7-3.1V214.2z M256,184.2c7.6,0.5,14.5,1.6,20.7,3.1
		c-6.9,11.4-14.5,20.4-20.7,26.8V184.2z M256,112V71.8c10.7-0.6,20.2-2.3,28.4-4.6C290.2,80,294.5,95,295.6,112H256z M256,55.8V25.8
		c6.2,6.4,13.8,15.4,20.7,26.8C270.6,54.2,263.7,55.3,256,55.8L256,55.8z M271.4,18.8c14.5,3.4,27.9,9.8,39.4,18.5
		c-3.5,2.6-9.6,6.6-18.3,10.2C285.7,35.7,278.1,26.1,271.4,18.8L271.4,18.8z M240,25.9v29.9c-7.6-0.5-14.5-1.6-20.7-3.1
		C226.2,41.3,233.8,32.3,240,25.9L240,25.9z M203.6,47.5c-8.7-3.6-14.8-7.6-18.3-10.2c11.5-8.7,24.8-15.2,39.4-18.5
		C217.9,26.1,210.3,35.7,203.6,47.5L203.6,47.5z M240,71.8V112h-39.6c1.1-17,5.4-32,11.2-44.8C219.8,69.5,229.3,71.2,240,71.8
		L240,71.8z M240,128v40.2c-10.7,0.6-20.2,2.3-28.4,4.6c-5.8-12.8-10.1-27.8-11.2-44.8H240z M185.2,202.7c3.5-2.6,9.6-6.6,18.3-10.2
		c6.8,11.8,14.3,21.4,21,28.8C210.1,217.9,196.7,211.5,185.2,202.7L185.2,202.7z M292.4,192.5c8.7,3.6,14.8,7.6,18.3,10.2
		c-11.5,8.7-24.8,15.2-39.4,18.5C278.1,213.9,285.7,204.3,292.4,192.5L292.4,192.5z M351.6,112h-40c-1.1-19.1-5.6-35.8-11.9-50.1
		c11.7-5,19.5-10.7,23.2-13.8C339.2,65,349.7,87.3,351.6,112L351.6,112z M173.1,48.1c3.8,3.1,11.5,8.8,23.2,13.8
		c-6.3,14.3-10.9,31.1-11.9,50.1h-40C146.3,87.3,156.8,65,173.1,48.1L173.1,48.1z M135,160c6.6,18.5,17.5,34.9,31.7,48H16v-48H135z
		 M16,480V224h172.4c17.6,10.1,37.9,16,59.6,16c21.7,0,42-5.9,59.6-16H480v256H16z M16,480"/>
	<path d="M176,320h288v-64H176V320z M192,272h256v32H192V272z M192,272"/>
	<path d="M176,400h288v-64H176V400z M192,352h256v32H192V352z M192,352"/>
	<path d="M32,464h48v-96H32V464z M48,384h16v64H48V384z M48,384"/>
	<path d="M96,464h64v-96H96V464z M112,384h32v64h-32V384z M112,384"/>
	<rect x="32" y="176" width="16" height="16"/>
	<rect x="64" y="176" width="16" height="16"/>
	<rect x="96" y="176" width="16" height="16"/>
</g>
</svg>
