<?xml version="1.0" encoding="utf-8"?>
<!-- Generator: Adobe Illustrator 23.0.3, SVG Export Plug-In . SVG Version: 6.00 Build 0)  -->
<svg version="1.1" id="Layer_1" xmlns="http://www.w3.org/2000/svg" xmlns:xlink="http://www.w3.org/1999/xlink" x="0px" y="0px"
	 viewBox="0 0 496 496" style="enable-background:new 0 0 496 496;" xml:space="preserve">
<style type="text/css">
	.st0{fill:#E8CB4A;}
	.st1{fill:#E73747;}
</style>
<g>
	<rect x="40" y="144" class="st0" width="176" height="16"/>
	<rect x="40" y="240" class="st0" width="176" height="16"/>
	<rect x="40" y="336" class="st0" width="176" height="16"/>
	<path class="st0" d="M472,152H328c-8.8,0-16-7.2-16-16V64h176v72C488,144.8,480.8,152,472,152L472,152z M472,152"/>
	<path class="st1" d="M472,488H328c-8.8,0-16-7.2-16-16v-72h176v72C488,480.8,480.8,488,472,488L472,488z M472,488"/>
	<rect x="64" y="144" width="160" height="16"/>
	<rect x="64" y="336" width="160" height="16"/>
	<rect x="32" y="240" width="160" height="16"/>
	<path d="M328,160h144c13.2,0,24-10.8,24-24V24c0-13.2-10.8-24-24-24h-46.1c-9.1,0-17.4,5.1-21.5,13.3L395.1,32H328
		c-13.2,0-24,10.8-24,24v24h-8c-13.2,0-24,10.8-24,24v136h-16v-8c0-13.2-10.8-24-24-24v-16c13.2,0,24-10.8,24-24v-32
		c0-13.2-10.8-24-24-24H24c-13.2,0-24,10.8-24,24v32c0,13.2,10.8,24,24,24v16c-13.2,0-24,10.8-24,24v32c0,13.2,10.8,24,24,24v16
		c-13.2,0-24,10.8-24,24v32c0,13.2,10.8,24,24,24h208c13.2,0,24-10.8,24-24v-32c0-13.2-10.8-24-24-24v-16c13.2,0,24-10.8,24-24v-8
		h16v152c0,13.2,10.8,24,24,24h8v40c0,13.2,10.8,24,24,24h144c13.2,0,24-10.8,24-24V360c0-13.2-10.8-24-24-24h-46.1
		c-9.1,0-17.4,5.1-21.5,13.3l-9.4,18.7H328c-13.2,0-24,10.8-24,24v24h-8c-4.4,0-8-3.6-8-8V104c0-4.4,3.6-8,8-8h8v40
		C304,149.2,314.8,160,328,160L328,160z M16,168v-32c0-4.4,3.6-8,8-8h208c4.4,0,8,3.6,8,8v32c0,4.4-3.6,8-8,8H24
		C19.6,176,16,172.4,16,168L16,168z M40,192h176v16H40V192z M240,328v32c0,4.4-3.6,8-8,8H24c-4.4,0-8-3.6-8-8v-32c0-4.4,3.6-8,8-8
		h208C236.4,320,240,323.6,240,328L240,328z M216,304H40v-16h176V304z M240,264c0,4.4-3.6,8-8,8H24c-4.4,0-8-3.6-8-8v-32
		c0-4.4,3.6-8,8-8h208c4.4,0,8,3.6,8,8V264z M320,392c0-4.4,3.6-8,8-8h76.9l13.8-27.6c1.4-2.7,4.1-4.4,7.2-4.4H472c4.4,0,8,3.6,8,8
		v112c0,4.4-3.6,8-8,8H328c-4.4,0-8-3.6-8-8V392z M320,56c0-4.4,3.6-8,8-8h76.9l13.8-27.6c1.4-2.7,4.1-4.4,7.2-4.4H472
		c4.4,0,8,3.6,8,8v112c0,4.4-3.6,8-8,8H328c-4.4,0-8-3.6-8-8V56z M320,56"/>
	<rect x="32" y="144" class="st0" width="16" height="16"/>
	<rect x="32" y="336" class="st0" width="16" height="16"/>
	<rect x="208" y="240" class="st0" width="16" height="16"/>
</g>
</svg>
