<?xml version="1.0" encoding="utf-8"?>
<!-- Generator: Adobe Illustrator 23.0.3, SVG Export Plug-In . SVG Version: 6.00 Build 0)  -->
<svg version="1.1" id="Layer_1" xmlns="http://www.w3.org/2000/svg" xmlns:xlink="http://www.w3.org/1999/xlink" x="0px" y="0px"
	 viewBox="0 0 497 495.8" style="enable-background:new 0 0 497 495.8;" xml:space="preserve">
<style type="text/css">
	.st0{fill:#E73747;}
	.st1{fill:#E8CB4A;}
</style>
<g>
	<path class="st0" d="M343.8,199.9c-79.5,0-143.9,64.4-143.9,143.9c0,79.5,64.4,143.9,143.9,143.9c79.5,0,143.9-64.4,143.9-143.9
		C487.8,264.3,423.3,199.9,343.8,199.9L343.8,199.9z M343.8,391.8c-26.5,0-48-21.5-48-48c0-26.5,21.5-48,48-48c26.5,0,48,21.5,48,48
		C391.8,370.3,370.3,391.8,343.8,391.8L343.8,391.8z M343.8,391.8"/>
	<path class="st1" d="M497,55.6L391.8,0v32H287.9v48h103.9v32L497,55.6z M497,55.6"/>
	<path class="st1" d="M255.9,111.9V80l-103.9,56l103.9,56v-32h111.9v-48H255.9z M255.9,111.9"/>
	<path d="M343.8,191.9c-2.7,0-5.3,0.3-8,0.4v-32.4h-16V194c-41,6.6-76.5,29.4-99.7,61.9H32v111.9h162c0.9,5.4,2,10.8,3.4,16H16V80
		h16v96h135.9v-16H48V80h32V48h191.9V32H80V16h239.9v16h16V0H68.7L0,68.7v331.2h202.7c22.3,56.1,77.1,96,141.1,96
		c83.8,0,151.9-68.1,151.9-151.9C495.8,260.1,427.6,191.9,343.8,191.9L343.8,191.9z M27.3,64L64,27.3V64H27.3z M450.5,259.8
		l-57.4,57.4c-5.2-9.5-13.1-17.4-22.6-22.6l57.4-57.4C436.3,243.8,443.8,251.4,450.5,259.8L450.5,259.8z M303.9,343.8
		c0-22.1,17.9-40,40-40s40,17.9,40,40c0,22-17.9,40-40,40S303.9,365.9,303.9,343.8L303.9,343.8z M48,351.8v-80h162.1
		c-11.6,21.4-18.2,45.9-18.2,72c0,2.7,0.3,5.3,0.4,8H48z M343.8,207.9c25.9,0,50,7.4,70.7,20l-60.8,60.8c-3.2-0.6-6.5-0.9-9.8-0.9
		c-30.9,0-56,25.1-56,56c0,3.4,0.4,6.6,0.9,9.8l-60.8,60.9c-12.6-20.6-20-44.8-20-70.7C207.9,268.9,268.9,207.9,343.8,207.9
		L343.8,207.9z M237.2,427.9l57.4-57.4c5.2,9.5,13.1,17.4,22.6,22.6l-57.4,57.4C251.4,443.8,243.8,436.3,237.2,427.9L237.2,427.9z
		 M343.8,479.8c-25.9,0-50-7.4-70.7-20l60.8-60.8c3.2,0.6,6.5,0.9,9.8,0.9c30.9,0,56-25.1,56-56c0-3.4-0.4-6.6-0.9-9.8l60.8-60.9
		c12.6,20.6,20,44.8,20,70.7C479.8,418.8,418.8,479.8,343.8,479.8L343.8,479.8z M343.8,479.8"/>
	<path d="M367.8,343.8c0-13.2-10.8-24-24-24c-13.2,0-24,10.8-24,24c0,13.2,10.8,24,24,24C357.1,367.8,367.8,357.1,367.8,343.8
		L367.8,343.8z M335.8,343.8c0-4.4,3.6-8,8-8c4.4,0,8,3.6,8,8c0,4.4-3.6,8-8,8C339.4,351.8,335.8,348.2,335.8,343.8L335.8,343.8z
		 M335.8,343.8"/>
	<rect x="319.9" y="80" width="16" height="32"/>
	<rect x="32" y="191.9" width="167.9" height="16"/>
	<rect x="32" y="223.9" width="167.9" height="16"/>
	<path d="M343.8,239.9v-16c-5.7,0-11.5,0.4-17.1,1.2l2.3,15.8C333.9,240.2,338.9,239.9,343.8,239.9L343.8,239.9z M343.8,239.9"/>
	<path d="M314.1,244.2l-4.6-15.3c-50.4,15-85.7,62.3-85.7,115h16C239.9,298.2,270.4,257.2,314.1,244.2L314.1,244.2z M314.1,244.2"/>
</g>
</svg>
