<?xml version="1.0" encoding="utf-8"?>
<!-- Generator: Adobe Illustrator 23.0.3, SVG Export Plug-In . SVG Version: 6.00 Build 0)  -->
<svg version="1.1" id="Layer_1" xmlns="http://www.w3.org/2000/svg" xmlns:xlink="http://www.w3.org/1999/xlink" x="0px" y="0px"
	 viewBox="0 0 499 495.6" style="enable-background:new 0 0 499 495.6;" xml:space="preserve">
<style type="text/css">
	.st0{fill:#E8CB4A;}
	.st1{fill:#E73747;}
	.st2{fill:#FFFFFF;}
</style>
<g>
	<path class="st0" d="M172.5,0c-33.8,0-65.6,13.2-89.6,37.1l-3.7,3.7C58,47.1,43.4,66.6,43.4,88.9v71h40v-16
		c30.7,0,60.2-12.2,81.9-33.9l6.1-6.1l6,6.1c21.7,21.7,51.2,33.9,81.9,33.9v16h40v-33.2C299.2,56.8,242.3,0,172.5,0L172.5,0z
		 M172.5,0"/>
	<path d="M291.2,151.9h-24v-16h-8c-28.8,0-55.9-11.2-76.2-31.6l-11.7-11.7l-11.7,11.7c-20.4,20.4-47.4,31.6-76.2,31.6h-8v16h-24
		c-13.2,0-24,10.8-24,24v32c0,13.2,10.8,24,24,24h27.1c7.3,28.1,26.9,51.2,52.8,63.1v2.1l-61.6,10.3c-19.9,3.3-36.5,17.1-43.4,36.1
		L0,415.6h275.2v-16h-95.9v-48.8c17.8-3.6,31.2-19.1,31.8-37.7l59.1,9.8c1,0.2,2.1,0.4,3.1,0.6l3.8-15.5c-1.4-0.3-2.8-0.6-4.2-0.9
		L211.2,297v-2.1c18-8.3,33.1-22,43-39.1h13c13.2,0,24-10.8,24-24c13.2,0,24-10.8,24-24v-32C315.2,162.6,304.4,151.9,291.2,151.9
		L291.2,151.9z M51.4,215.8c-4.4,0-8-3.6-8-8v-32c0-4.4,3.6-8,8-8h24v40c0,2.7,0.2,5.3,0.4,8H51.4z M163.3,399.7H77.6l5.5-22
		l-15.5-3.9l-6.5,25.9H22.8l18.5-50.9c4.9-13.5,16.8-23.4,31-25.8l59.1-9.9c0.7,18.7,14.1,34.1,31.8,37.7V399.7z M195.3,311.7
		c0,13.2-10.8,24-24,24c-13.2,0-24-10.8-24-24v-11.1c7.7,2,15.7,3.2,24,3.2c8.3,0,16.3-1.2,24-3.2V311.7z M251.2,207.8
		c0,11.4-2.4,22.2-6.7,32h-42.7c-3.3-9.3-12.1-16-22.5-16h-16c-13.2,0-24,10.8-24,24c0,13.2,10.8,24,24,24h16
		c10.4,0,19.2-6.7,22.5-16h33.3c-14.6,19.4-37.7,32-63.8,32c-44.1,0-79.9-35.9-79.9-79.9v-56.2c30.1-1.9,58-14.5,79.5-36l0.4-0.4
		l0.4,0.4c21.5,21.5,49.5,34.1,79.5,36V207.8z M187.3,247.8c0,4.4-3.6,8-8,8h-16c-4.4,0-8-3.6-8-8c0-4.4,3.6-8,8-8h16
		C183.7,239.8,187.3,243.4,187.3,247.8L187.3,247.8z M267.2,239.8h-5.6c0.9-2.6,1.7-5.3,2.5-8h11.1
		C275.2,236.2,271.6,239.8,267.2,239.8L267.2,239.8z M299.2,207.8c0,4.4-3.6,8-8,8v-32h-16v32h-8.4c0.2-2.6,0.4-5.3,0.4-8v-40h24
		c4.4,0,8,3.6,8,8V207.8z M299.2,207.8"/>
	<path class="st1" d="M401.3,495.6h-60.5l-5.4-22c-4.9-1.7-9.6-3.6-14.1-5.9L302,479.4l-42.7-43.1l11.6-19.4
		c-2.2-4.6-4.2-9.3-5.8-14.3l-21.9-5.5v-60.9l21.9-5.5c1.6-4.9,3.6-9.7,5.8-14.3l-11.6-19.4l42.7-43.1l19.3,11.7
		c4.5-2.3,9.3-4.2,14.1-5.9l5.4-22h60.5l5.4,22c4.9,1.6,9.6,3.6,14.1,5.9l19.3-11.7l42.8,43.1l-11.6,19.4c2.2,4.6,4.2,9.3,5.8,14.3
		l21.9,5.5v60.9l-21.9,5.5c-1.6,4.9-3.6,9.7-5.8,14.3l11.6,19.4l-42.7,43.1l-19.3-11.7c-4.5,2.3-9.3,4.2-14.1,5.9L401.3,495.6z
		 M401.3,495.6"/>
	<circle class="st2" cx="371.7" cy="369.2" r="75"/>
	<path d="M371.1,447.6c-44.1,0-79.9-35.9-79.9-79.9c0-44.1,35.9-79.9,79.9-79.9c44.1,0,79.9,35.9,79.9,79.9
		C451,411.8,415.2,447.6,371.1,447.6L371.1,447.6z M371.1,303.7c-35.3,0-63.9,28.7-63.9,63.9c0,35.3,28.7,63.9,63.9,63.9
		c35.3,0,63.9-28.7,63.9-63.9C435.1,332.4,406.4,303.7,371.1,303.7L371.1,303.7z M371.1,303.7"/>
	<path d="M371.1,415.6c-26.4,0-48-21.5-48-48c0-26.4,21.5-48,48-48c26.4,0,48,21.5,48,48h-16c0-17.6-14.3-32-32-32
		c-17.6,0-32,14.3-32,32c0,17.6,14.3,32,32,32V415.6z M371.1,415.6"/>
	<path d="M131.3,175.9c0,4.4-3.6,8-8,8c-4.4,0-8-3.6-8-8c0-4.4,3.6-8,8-8C127.7,167.9,131.3,171.4,131.3,175.9L131.3,175.9z
		 M131.3,175.9"/>
	<path d="M227.2,175.9c0,4.4-3.6,8-8,8c-4.4,0-8-3.6-8-8c0-4.4,3.6-8,8-8C223.7,167.9,227.2,171.4,227.2,175.9L227.2,175.9z
		 M227.2,175.9"/>
</g>
</svg>
