<?xml version="1.0" encoding="utf-8"?>
<!-- Generator: Adobe Illustrator 23.0.3, SVG Export Plug-In . SVG Version: 6.00 Build 0)  -->
<svg version="1.1" id="Layer_1" xmlns="http://www.w3.org/2000/svg" xmlns:xlink="http://www.w3.org/1999/xlink" x="0px" y="0px"
	 viewBox="0 0 496 496" style="enable-background:new 0 0 496 496;" xml:space="preserve">
<style type="text/css">
	.st0{fill:#E8CB4A;}
	.st1{fill:#E73747;}
</style>
<g>
	<path class="st0" d="M232,288l-104-56v32H32v48h96v32L232,288z M232,288"/>
	<path d="M0,0v432h248v-16H16V80h464v280h16V0H0z M16,64V16h464v48H16z M16,64"/>
	<path d="M384,232v-24h16v-48h-80v48h16v24h16v-24h16v24H384z M336,176h48v16h-48V176z M336,176"/>
	<path d="M360,336c-13.2,0-24,10.8-24,24c0,13.2,10.8,24,24,24c13.2,0,24-10.8,24-24C384,346.8,373.2,336,360,336L360,336z M360,368
		c-4.4,0-8-3.6-8-8s3.6-8,8-8c4.4,0,8,3.6,8,8S364.4,368,360,368L360,368z M360,368"/>
	<path class="st1" d="M360,224c-75,0-136,61-136,136s61,136,136,136s136-61,136-136S435,224,360,224L360,224z M360,456
		c-53,0-96-43-96-96s43-96,96-96s96,43,96,96S413,456,360,456L360,456z M360,456"/>
	<path d="M32,376c0,13.2,10.8,24,24,24c13.2,0,24-10.8,24-24c0-13.2-10.8-24-24-24C42.8,352,32,362.8,32,376L32,376z M64,376
		c0,4.4-3.6,8-8,8c-4.4,0-8-3.6-8-8c0-4.4,3.6-8,8-8C60.4,368,64,371.6,64,376L64,376z M64,376"/>
	<path d="M96,376c0,13.2,10.8,24,24,24c13.2,0,24-10.8,24-24c0-13.2-10.8-24-24-24C106.8,352,96,362.8,96,376L96,376z M128,376
		c0,4.4-3.6,8-8,8c-4.4,0-8-3.6-8-8c0-4.4,3.6-8,8-8C124.4,368,128,371.6,128,376L128,376z M128,376"/>
	<path d="M160,376c0,13.2,10.8,24,24,24c13.2,0,24-10.8,24-24c0-13.2-10.8-24-24-24C170.8,352,160,362.8,160,376L160,376z M192,376
		c0,4.4-3.6,8-8,8c-4.4,0-8-3.6-8-8c0-4.4,3.6-8,8-8C188.4,368,192,371.6,192,376L192,376z M192,376"/>
	<path d="M360,256c-57.3,0-104,46.7-104,104s46.7,104,104,104s104-46.7,104-104S417.3,256,360,256L360,256z M447.6,368
		c-1.7,18.3-8.9,34.9-20,48.3l-16.7-16.7l-11.3,11.3l16.7,16.7c-13.3,11.1-30,18.4-48.3,20V424h-16v23.6c-18.3-1.7-34.9-8.9-48.3-20
		l16.7-16.7l-11.3-11.3l-16.7,16.7c-11.1-13.3-18.4-30-20-48.3H296v-16h-23.6c1.7-18.3,8.9-34.9,20-48.3l16.7,16.7l11.3-11.3
		l-16.7-16.7c13.3-11.1,30-18.4,48.3-20V296h16v-23.6c18.3,1.7,34.9,8.9,48.3,20l-16.7,16.7l11.3,11.3l16.7-16.7
		c11.1,13.3,18.4,30,20,48.3H424v16H447.6z M447.6,368"/>
	<path d="M32,96v64h96V96H32z M112,144H48v-32h64V144z M112,144"/>
	<path d="M240,96h-96v64h96V96z M224,144h-64v-32h64V144z M224,144"/>
	<rect x="32" y="176" width="208" height="16"/>
	<rect x="32" y="208" width="208" height="16"/>
	<rect x="32" y="32" width="16" height="16"/>
	<rect x="64" y="32" width="16" height="16"/>
	<rect x="96" y="32" width="16" height="16"/>
</g>
</svg>
