<?xml version="1.0" encoding="utf-8"?>
<!-- Generator: Adobe Illustrator 23.0.3, SVG Export Plug-In . SVG Version: 6.00 Build 0)  -->
<svg version="1.1" id="Layer_1" xmlns="http://www.w3.org/2000/svg" xmlns:xlink="http://www.w3.org/1999/xlink" x="0px" y="0px"
	 viewBox="0 0 495.8 496" style="enable-background:new 0 0 495.8 496;" xml:space="preserve">
<style type="text/css">
	.st0{fill:#E8CB4A;}
	.st1{fill:#E73747;}
</style>
<g>
	<rect x="48" y="72" class="st0" width="80" height="64"/>
	<rect x="88" y="263.9" class="st0" width="80" height="64"/>
	<rect x="247.9" y="8" class="st0" width="80" height="64"/>
	<path d="M247.9,207.9v-8h8v-56h64v40h16v-40h64v40h16V0H0v399.9h255.9v-16h-40v-48h32v-16h-72v-48h72v-16h-32v-48H247.9z
		 M239.9,191.9h-64v-48h64V191.9z M120,335.9v48H56v-48H120z M16,319.9v-48h64v48H16z M16,255.9v-48h24v48H16z M16,191.9v-48h64v48
		H16z M255.9,64V16h64v48H255.9z M279.9,80v48h-64V80H279.9z M239.9,64h-64V16h64V64z M199.9,80v48h-64V80H199.9z M120,128H56V80h64
		V128z M40,128H16V80h24V128z M96,144h64v48H96V144z M295.9,128V80h64v32h16V80h24v48H295.9z M399.9,64h-64V16h64V64z M80,16v32h16
		V16h64v48H16V16H80z M16,335.9h24v48H16V335.9z M199.9,383.9h-64v-48h64V383.9z M159.9,319.9H96v-48h64V319.9z M199.9,255.9h-64
		v-32h-16v32H56v-48h144V255.9z M199.9,255.9"/>
	<path class="st1" d="M367.9,496l-1.6-0.3c-73.2-14.7-126.4-79.5-126.4-154.2V191.9h8c40.2,0,78.7-12.3,111.4-35.7l8.6-6.1l8.6,6.1
		c32.7,23.4,71.2,35.7,111.4,35.7h8v149.6c0,74.7-53.2,139.5-126.4,154.2L367.9,496z M367.9,496"/>
	<path d="M457,221.8c-30.2-4.2-58.8-14.3-84.9-30.2l-4.2-2.5l-4.1,2.5c-26.1,15.9-54.7,26-84.9,30.2l-6.9,1v118.7
		c0,57.1,38.6,107,94,121.3l2,0.5l2-0.5c55.3-14.3,94-64.1,94-121.3V222.8L457,221.8z M447.9,341.5c0,49.2-32.8,92.1-80,105.2
		c-47.2-13.1-80-56.1-80-105.2V236.6c28.2-4.7,55.1-14.4,80-28.8c24.9,14.4,51.7,24.1,80,28.8V341.5z M447.9,341.5"/>
</g>
</svg>
