<?xml version="1.0" encoding="utf-8"?>
<!-- Generator: Adobe Illustrator 23.0.3, SVG Export Plug-In . SVG Version: 6.00 Build 0)  -->
<svg version="1.1" id="Layer_1" xmlns="http://www.w3.org/2000/svg" xmlns:xlink="http://www.w3.org/1999/xlink" x="0px" y="0px"
	 viewBox="0 0 98 98" style="enable-background:new 0 0 98 98;" xml:space="preserve">
<style type="text/css">
	.st0{fill:#E73747;}
</style>
<g>
	<path class="st0" d="M18,0c-3.6,0-6.5,2.9-6.5,6.5c0,3.6,2.9,6.5,6.5,6.5c3.6,0,6.5-2.9,6.5-6.5C24.5,2.9,21.6,0,18,0z M18,9.8
		c-1.8,0-3.3-1.5-3.3-3.3s1.5-3.3,3.3-3.3s3.3,1.5,3.3,3.3C21.2,8.3,19.8,9.8,18,9.8z"/>
	<path class="st0" d="M18,9.8c-0.9,0-1.6,0.7-1.6,1.6v11.4c0,0.9,0.7,1.6,1.6,1.6c0.9,0,1.6-0.7,1.6-1.6V11.4
		C19.6,10.5,18.9,9.8,18,9.8z"/>
	<path d="M91.5,19.6c-3.6,0-6.5,2.9-6.5,6.5c0,3.6,2.9,6.5,6.5,6.5c3.6,0,6.5-2.9,6.5-6.5C98,22.5,95.1,19.6,91.5,19.6z M91.5,29.4
		c-1.8,0-3.3-1.5-3.3-3.3s1.5-3.3,3.3-3.3c1.8,0,3.3,1.5,3.3,3.3C94.7,27.9,93.3,29.4,91.5,29.4z"/>
	<path d="M88.3,21.7l-14.1-6.8c-0.8-0.4-1.8-0.1-2.2,0.8c-0.4,0.8-0.1,1.8,0.8,2.2l14.1,6.8c0.2,0.1,0.5,0.2,0.7,0.2
		c0.6,0,1.2-0.3,1.5-0.9C89.5,23,89.1,22.1,88.3,21.7z"/>
	<path d="M73.5,84.9c-3.6,0-6.5,2.9-6.5,6.5c0,3.6,2.9,6.5,6.5,6.5s6.5-2.9,6.5-6.5C80,87.9,77.1,84.9,73.5,84.9z M73.5,94.7
		c-1.8,0-3.3-1.5-3.3-3.3c0-1.8,1.5-3.3,3.3-3.3s3.3,1.5,3.3,3.3C76.8,93.3,75.3,94.7,73.5,94.7z"/>
	<path d="M8.2,73.5c-3.6,0-6.5,2.9-6.5,6.5c0,3.6,2.9,6.5,6.5,6.5s6.5-2.9,6.5-6.5C14.7,76.4,11.8,73.5,8.2,73.5z M8.2,83.3
		c-1.8,0-3.3-1.5-3.3-3.3c0-1.8,1.5-3.3,3.3-3.3s3.3,1.5,3.3,3.3C11.4,81.8,10,83.3,8.2,83.3z"/>
	<path d="M70.3,87l-14.1-6.8c-0.8-0.4-1.8-0.1-2.2,0.8c-0.4,0.8-0.1,1.8,0.8,2.2l14.1,6.8c0.2,0.1,0.5,0.2,0.7,0.2
		c0.6,0,1.2-0.3,1.5-0.9C71.5,88.4,71.1,87.4,70.3,87z"/>
	<path d="M49,44.1c-3.6,0-6.5,2.9-6.5,6.5c0,3.6,2.9,6.5,6.5,6.5c3.6,0,6.5-2.9,6.5-6.5C55.5,47,52.6,44.1,49,44.1z M49,53.9
		c-1.8,0-3.3-1.5-3.3-3.3c0-1.8,1.5-3.3,3.3-3.3c1.8,0,3.3,1.5,3.3,3.3C52.3,52.4,50.8,53.9,49,53.9z"/>
	<path d="M46.1,46.3l-10.8-8.4c-0.7-0.6-1.7-0.4-2.3,0.3c-0.6,0.7-0.4,1.7,0.3,2.3l10.8,8.4c0.3,0.2,0.7,0.3,1,0.3
		c0.5,0,1-0.2,1.3-0.6C47,47.9,46.8,46.9,46.1,46.3z"/>
	<path class="st0" d="M78.4,49c-3.6,0-6.5,2.9-6.5,6.5c0,3.6,2.9,6.5,6.5,6.5c3.6,0,6.5-2.9,6.5-6.5C84.9,51.9,82,49,78.4,49z
		 M78.4,58.8c-1.8,0-3.3-1.5-3.3-3.3c0-1.8,1.5-3.3,3.3-3.3c1.8,0,3.3,1.5,3.3,3.3C81.7,57.3,80.2,58.8,78.4,58.8z"/>
	<path d="M42.1,16.9c-0.6-0.7-1.6-0.8-2.3-0.2l-11.3,9.7c-0.7,0.6-0.8,1.6-0.2,2.3c0.3,0.4,0.8,0.6,1.2,0.6c0.4,0,0.8-0.1,1.1-0.4
		l11.3-9.7C42.6,18.6,42.7,17.6,42.1,16.9z"/>
	<path d="M78.1,43.1l-9.8-13.1c-0.5-0.7-1.6-0.9-2.3-0.3c-0.7,0.5-0.9,1.6-0.3,2.3l9.8,13.1c0.3,0.4,0.8,0.7,1.3,0.7
		c0.3,0,0.7-0.1,1-0.3C78.5,44.9,78.6,43.8,78.1,43.1z"/>
	<path d="M64.7,65.8c-0.5-0.7-1.6-0.9-2.3-0.3l-9.1,6.8c-0.7,0.5-0.9,1.6-0.3,2.3c0.3,0.4,0.8,0.7,1.3,0.7c0.3,0,0.7-0.1,1-0.3
		l9.1-6.8C65.1,67.6,65.2,66.6,64.7,65.8z"/>
	<path d="M22.9,78.4H11.4c-0.9,0-1.6,0.7-1.6,1.6s0.7,1.6,1.6,1.6h11.4c0.9,0,1.6-0.7,1.6-1.6S23.8,78.4,22.9,78.4z"/>
	<path class="st0" d="M18,21.2c-9.9,0-18,8.1-18,18s8.1,18,18,18s18-8.1,18-18C35.9,29.3,27.9,21.2,18,21.2z M18,53.9
		c-8.1,0-14.7-6.6-14.7-14.7S9.9,24.5,18,24.5c8.1,0,14.7,6.6,14.7,14.7S26.1,53.9,18,53.9z"/>
	<path class="st0" d="M18,27.8c-3.6,0-6.5,2.9-6.5,6.5c0,3.6,2.9,6.5,6.5,6.5c3.6,0,6.5-2.9,6.5-6.5C24.5,30.7,21.6,27.8,18,27.8z
		 M18,37.6c-1.8,0-3.3-1.5-3.3-3.3c0-1.8,1.5-3.3,3.3-3.3s3.3,1.5,3.3,3.3C21.2,36.1,19.8,37.6,18,37.6z"/>
	<path class="st0" d="M22.7,44.1h-9.5c-2.8,0-5.1,2.2-5.1,4.9v4.3c0,0.6,0.3,1.1,0.8,1.4c2.7,1.6,5.8,2.4,9,2.4c3.1,0,6.2-0.8,9-2.4
		c0.5-0.3,0.8-0.8,0.8-1.4V49C27.8,46.3,25.5,44.1,22.7,44.1z M24.5,52.4c-4.1,2-9,2-13.1,0V49c0-0.9,0.8-1.7,1.8-1.7h9.5
		c1,0,1.8,0.7,1.8,1.7L24.5,52.4L24.5,52.4z"/>
	<path class="st0" d="M78.4,42.5c-9.9,0-18,8.1-18,18c0,9.9,8.1,18,18,18c9.9,0,18-8.1,18-18C96.4,50.5,88.3,42.5,78.4,42.5z
		 M78.4,75.1c-8.1,0-14.7-6.6-14.7-14.7s6.6-14.7,14.7-14.7c8.1,0,14.7,6.6,14.7,14.7S86.5,75.1,78.4,75.1z"/>
	<path class="st0" d="M83.1,65.3h-9.5c-2.8,0-5.1,2.2-5.1,4.9v4.3c0,0.6,0.3,1.1,0.8,1.4c2.7,1.6,5.8,2.4,9,2.4c3.1,0,6.2-0.8,9-2.4
		c0.5-0.3,0.8-0.8,0.8-1.4v-4.3C88.2,67.5,85.9,65.3,83.1,65.3z M84.9,73.6c-4.1,2-9,2-13.1,0v-3.3c0-0.9,0.8-1.7,1.8-1.7h9.5
		c1,0,1.8,0.7,1.8,1.7L84.9,73.6L84.9,73.6z"/>
	<path d="M39.2,62.1c-9.9,0-18,8.1-18,18c0,9.9,8.1,18,18,18c9.9,0,18-8.1,18-18S49.1,62.1,39.2,62.1z M39.2,94.7
		c-8.1,0-14.7-6.6-14.7-14.7s6.6-14.7,14.7-14.7c8.1,0,14.7,6.6,14.7,14.7S47.3,94.7,39.2,94.7z"/>
	<path d="M39.2,68.6c-3.6,0-6.5,2.9-6.5,6.5c0,3.6,2.9,6.5,6.5,6.5s6.5-2.9,6.5-6.5C45.7,71.5,42.8,68.6,39.2,68.6z M39.2,78.4
		c-1.8,0-3.3-1.5-3.3-3.3s1.5-3.3,3.3-3.3c1.8,0,3.3,1.5,3.3,3.3C42.5,76.9,41,78.4,39.2,78.4z"/>
	<path d="M43.9,84.9h-9.5c-2.8,0-5.1,2.2-5.1,4.9v4.3c0,0.6,0.3,1.1,0.8,1.4c2.7,1.6,5.8,2.4,9,2.4c3.1,0,6.2-0.8,9-2.4
		c0.5-0.3,0.8-0.8,0.8-1.4v-4.3C49,87.1,46.7,84.9,43.9,84.9z M45.7,93.2c-4.1,2-9,2-13.1,0v-3.3c0-0.9,0.8-1.7,1.8-1.7h9.5
		c1,0,1.8,0.7,1.8,1.7L45.7,93.2L45.7,93.2z"/>
	<path d="M57.2,0c-9.9,0-18,8.1-18,18s8.1,18,18,18s18-8.1,18-18C75.1,8.1,67.1,0,57.2,0z M57.2,32.7c-8.1,0-14.7-6.6-14.7-14.7
		S49.1,3.3,57.2,3.3c8.1,0,14.7,6.6,14.7,14.7S65.3,32.7,57.2,32.7z"/>
	<path d="M57.2,6.5c-3.6,0-6.5,2.9-6.5,6.5c0,3.6,2.9,6.5,6.5,6.5c3.6,0,6.5-2.9,6.5-6.5C63.7,9.5,60.8,6.5,57.2,6.5z M57.2,16.3
		c-1.8,0-3.3-1.5-3.3-3.3c0-1.8,1.5-3.3,3.3-3.3c1.8,0,3.3,1.5,3.3,3.3C60.4,14.9,59,16.3,57.2,16.3z"/>
	<path d="M61.9,22.9h-9.5c-2.8,0-5.1,2.2-5.1,4.9v4.3c0,0.6,0.3,1.1,0.8,1.4c2.7,1.6,5.8,2.4,9,2.4c3.1,0,6.2-0.8,9-2.4
		c0.5-0.3,0.8-0.8,0.8-1.4v-4.3C67,25.1,64.7,22.9,61.9,22.9z M63.7,31.1c-4.1,2-9,2-13.1,0v-3.3c0-0.9,0.8-1.7,1.8-1.7h9.5
		c1,0,1.8,0.7,1.8,1.7L63.7,31.1L63.7,31.1z"/>
</g>
</svg>
