<?xml version="1.0" encoding="utf-8"?>
<!-- Generator: Adobe Illustrator 23.0.3, SVG Export Plug-In . SVG Version: 6.00 Build 0)  -->
<svg version="1.1" id="Layer_1" xmlns="http://www.w3.org/2000/svg" xmlns:xlink="http://www.w3.org/1999/xlink" x="0px" y="0px"
	 viewBox="0 0 496 496" style="enable-background:new 0 0 496 496;" xml:space="preserve">
<style type="text/css">
	.st0{fill:#E73747;}
	.st1{fill:#E8CB4A;}
	.st2{fill:#FFFFFF;}
</style>
<path class="st0" d="M312,280H144c-8.8,0-16-7.2-16-16v-32c0-8.8,7.2-16,16-16h168V280z M312,280"/>
<path class="st1" d="M352,184H184v-64h168c8.8,0,16,7.2,16,16v32C368,176.8,360.8,184,352,184L352,184z M352,184"/>
<path class="st1" d="M352,376H184v-64h168c8.8,0,16,7.2,16,16v32C368,368.8,360.8,376,352,376L352,376z M352,376"/>
<path d="M424,168h16c0-22.1-17.9-40-40-40v16C413.2,144,424,154.8,424,168L424,168z M424,168"/>
<path d="M72,168H56c0,22.1,17.9,40,40,40v-16C82.8,192,72,181.2,72,168L72,168z M72,168"/>
<path d="M241,76.9l14-7.8C242.3,46.2,218.2,32,192,32v16C212.3,48,231.1,59.1,241,76.9L241,76.9z M241,76.9"/>
<path d="M496,448v-16H310.5c-3.3-9.3-12.1-16-22.5-16h-8v-32h72c13.2,0,24-10.8,24-24v-32c0-13.2-10.8-24-24-24v-16
	c13.2,0,24-10.8,24-24v-24h24c39.7,0,72-32.3,72-72c0-34.2-24-62.9-56.1-70.2c0-0.6,0.1-1.2,0.1-1.8c0-44.1-35.9-80-80-80
	c-23.1,0-44.7,9.9-59.8,26.9C257.2,16.7,226.4,0,192,0C137.2,0,92.2,42.6,88.3,96.4C52.2,100.3,24,130.9,24,168
	c0,39.7,32.3,72,72,72h24v24c0,13.2,10.8,24,24,24v16c-13.2,0-24,10.8-24,24v32c0,13.2,10.8,24,24,24h72v32h-8
	c-10.4,0-19.2,6.7-22.5,16H0v16h184v16H0v16h185.5c3.3,9.3,12.1,16,22.5,16h80c10.4,0,19.2-6.7,22.5-16H496v-16H312v-16H496z
	 M40,168c0-30.9,25.1-56,56-56h8v-8c0-48.5,39.5-88,88-88c43.2,0,79.7,30.8,86.8,73.3l15.8-2.6c-1.7-10.4-5.1-20.2-9.5-29.2
	c12.1-16,30.8-25.5,51-25.5c35.3,0,64,28.7,64,64c-9.3,0-18.4,1.8-27,5.2l6,14.8c6.7-2.7,13.7-4.1,21-4.1c30.9,0,56,25.1,56,56
	c0,30.9-25.1,56-56,56h-25.5c-3.3-9.3-12.1-16-22.5-16v-16c13.2,0,24-10.8,24-24v-32c0-13.2-10.8-24-24-24H144
	c-13.2,0-24,10.8-24,24v32c0,13.2,10.8,24,24,24v16c-10.4,0-19.2,6.7-22.5,16H96C65.1,224,40,198.9,40,168L40,168z M144,176
	c-4.4,0-8-3.6-8-8v-32c0-4.4,3.6-8,8-8h208c4.4,0,8,3.6,8,8v32c0,4.4-3.6,8-8,8H144z M336,192v16H160v-16H336z M136,264v-32
	c0-4.4,3.6-8,8-8h208c4.4,0,8,3.6,8,8v32c0,4.4-3.6,8-8,8H144C139.6,272,136,268.4,136,264L136,264z M160,288h176v16H160V288z
	 M136,360v-32c0-4.4,3.6-8,8-8h208c4.4,0,8,3.6,8,8v32c0,4.4-3.6,8-8,8H144C139.6,368,136,364.4,136,360L136,360z M232,384h32v32
	h-32V384z M296,472c0,4.4-3.6,8-8,8h-80c-4.4,0-8-3.6-8-8v-32c0-4.4,3.6-8,8-8h80c4.4,0,8,3.6,8,8V472z M296,472"/>
<rect x="216" y="144" width="128" height="16"/>
<rect x="216" y="336" width="128" height="16"/>
<rect x="152" y="240" class="st2" width="128" height="16"/>
<rect x="328" y="240" width="16" height="16"/>
<rect x="152" y="336" width="16" height="16"/>
<rect x="152" y="144" width="16" height="16"/>
</svg>
