<?xml version="1.0" encoding="utf-8"?>
<!-- Generator: Adobe Illustrator 23.0.3, SVG Export Plug-In . SVG Version: 6.00 Build 0)  -->
<svg version="1.1" id="Layer_1" xmlns="http://www.w3.org/2000/svg" xmlns:xlink="http://www.w3.org/1999/xlink" x="0px" y="0px"
	 viewBox="0 0 503 503" style="enable-background:new 0 0 503 503;" xml:space="preserve">
<style type="text/css">
	.st0{fill:#E73747;stroke:#000000;stroke-width:14;stroke-miterlimit:10;}
	.st1{fill:#E8CB4A;}
	.st2{fill:#FFFFFF;stroke:#000000;stroke-width:14;stroke-miterlimit:10;}
	.st3{fill:#FFFFFF;}
</style>
<g>
	<circle class="st0" cx="368.5" cy="134.5" r="65.5"/>
	<rect x="120" y="431" class="st1" width="96" height="32"/>
	<rect x="120" y="143" class="st1" width="96" height="32"/>
	<rect x="120" y="287" class="st1" width="96" height="32"/>
	<path d="M360,471c13.2,0,24-10.8,24-24s-10.8-24-24-24c-13.2,0-24,10.8-24,24S346.8,471,360,471L360,471z M360,439c4.4,0,8,3.6,8,8
		c0,4.4-3.6,8-8,8s-8-3.6-8-8C352,442.6,355.6,439,360,439L360,439z M360,439"/>
	<path d="M224,423H112v48h112V423z M176,439v16h-16v-16H176z M128,439h16v16h-16V439z M208,455h-16v-16h16V455z M208,455"/>
	<path d="M224,183v-48H112v48H224z M160,167v-16h16v16H160z M208,167h-16v-16h16V167z M128,151h16v16h-16V151z M128,151"/>
	<path d="M392,359c13.2,0,24-10.8,24-24v-64c0-13.2-10.8-24-24-24H128v-32h142.3v-16H104c-4.4,0-8-3.6-8-8v-64c0-4.4,3.6-8,8-8h144
		v-16H104c-13.2,0-24,10.8-24,24v64c0,13.2,10.8,24,24,24h8v32h-8c-13.2,0-24,10.8-24,24v8H32V149.5c9.3-3.3,16-12.1,16-22.5
		c0-13.2-10.8-24-24-24c-13.2,0-24,10.8-24,24c0,10.4,6.7,19.2,16,22.5V295h64v16H16v145.5C6.7,459.8,0,468.6,0,479
		c0,13.2,10.8,24,24,24c13.2,0,24-10.8,24-24c0-10.4-6.7-19.2-16-22.5V327h48v8c0,13.2,10.8,24,24,24h8v32h-8c-13.2,0-24,10.8-24,24
		v64c0,13.2,10.8,24,24,24h288c13.2,0,24-10.8,24-24v-64c0-13.2-10.8-24-24-24h-8v-32H392z M24,119c4.4,0,8,3.6,8,8c0,4.4-3.6,8-8,8
		c-4.4,0-8-3.6-8-8C16,122.6,19.6,119,24,119L24,119z M24,487c-4.4,0-8-3.6-8-8c0-4.4,3.6-8,8-8c4.4,0,8,3.6,8,8
		C32,483.4,28.4,487,24,487L24,487z M96,335v-64c0-4.4,3.6-8,8-8h288c4.4,0,8,3.6,8,8v64c0,4.4-3.6,8-8,8H104
		C99.6,343,96,339.4,96,335L96,335z M400,415v64c0,4.4-3.6,8-8,8H104c-4.4,0-8-3.6-8-8v-64c0-4.4,3.6-8,8-8h288
		C396.4,407,400,410.6,400,415L400,415z M368,391H128v-32h240V391z M368,391"/>
	<path d="M360,279c-13.2,0-24,10.8-24,24c0,13.2,10.8,24,24,24c13.2,0,24-10.8,24-24C384,289.8,373.2,279,360,279L360,279z M360,311
		c-4.4,0-8-3.6-8-8s3.6-8,8-8s8,3.6,8,8S364.4,311,360,311L360,311z M360,311"/>
	<path d="M112,327h112v-48H112V327z M160,311v-16h16v16H160z M208,311h-16v-16h16V311z M128,295h16v16h-16V295z M128,295"/>
	<path class="st2" d="M496,165.2v-60.3l-31.5-8.3c-0.3-0.9-0.7-1.7-1.1-2.6l16.4-28.1l-42.7-42.7L409,39.6c-0.9-0.4-1.7-0.7-2.6-1.1
		L398.2,7h-60.3l-8.3,31.5c-0.9,0.3-1.7,0.7-2.6,1.1l-28.1-16.4l-42.7,42.7L272.6,94c-0.4,0.9-0.7,1.7-1.1,2.6l-31.5,8.3v60.3
		l31.5,8.3c0.3,0.9,0.7,1.7,1.1,2.6l-16.4,28.1l42.7,42.7l28.1-16.4c0.9,0.4,1.7,0.7,2.6,1.1l8.3,31.5h60.3l8.3-31.5
		c0.9-0.3,1.7-0.7,2.6-1.1l28.1,16.4l42.7-42.7L463.4,176c0.4-0.9,0.7-1.7,1.1-2.6L496,165.2z M368,199c-36.3,0-65.6-30.3-63.9-67
		c1.5-32.8,28.1-59.4,60.9-60.9c36.7-1.7,67,27.6,67,63.9C432,170.3,403.3,199,368,199L368,199z M368,199"/>
	<path d="M368,207c-39.7,0-72-32.3-72-72s32.3-72,72-72s72,32.3,72,72S407.7,207,368,207L368,207z M368,79c-30.9,0-56,25.1-56,56
		s25.1,56,56,56s56-25.1,56-56S398.9,79,368,79L368,79z M368,79"/>
	<path class="st3" d="M368,175c-22.1,0-40-17.9-40-40c0-22.1,17.9-40,40-40s40,17.9,40,40C408,157.1,390.1,175,368,175L368,175z
		 M368,111c-13.2,0-24,10.8-24,24c0,13.2,10.8,24,24,24s24-10.8,24-24C392,121.8,381.2,111,368,111L368,111z M368,111"/>
</g>
</svg>
