<?xml version="1.0" encoding="utf-8"?>
<!-- Generator: Adobe Illustrator 23.0.3, SVG Export Plug-In . SVG Version: 6.00 Build 0)  -->
<svg version="1.1" id="Layer_1" xmlns="http://www.w3.org/2000/svg" xmlns:xlink="http://www.w3.org/1999/xlink" x="0px" y="0px"
	 viewBox="0 0 496 496" style="enable-background:new 0 0 496 496;" xml:space="preserve">
<style type="text/css">
	.st0{fill:#E73747;}
	.st1{fill:#E8CB4A;}
</style>
<rect x="224" y="320" class="st0" width="48" height="48"/>
<rect x="288" y="320" class="st0" width="48" height="48"/>
<rect x="224" y="224" class="st1" width="48" height="48"/>
<rect x="32" y="384" class="st1" width="80" height="80"/>
<path d="M192,48V32c-39.7,0-72,32.3-72,72h16C136,73.1,161.1,48,192,48L192,48z M192,48"/>
<path d="M424,168h16c0-22.1-17.9-40-40-40v16C413.2,144,424,154.8,424,168L424,168z M424,168"/>
<path d="M176,464h144v-48H176V464z M240,448h-16v-16h16V448z M256,432h16v16h-16V432z M304,448h-16v-16h16V448z M192,432h16v16h-16
	V432z M192,432"/>
<rect x="160" y="320" width="16" height="48"/>
<rect x="192" y="320" width="16" height="48"/>
<rect x="288" y="224" width="16" height="48"/>
<rect x="320" y="224" width="16" height="48"/>
<rect x="32" y="288" width="16" height="48"/>
<rect x="64" y="288" width="16" height="48"/>
<rect x="96" y="288" width="16" height="48"/>
<path d="M472,256H368v-16h32c39.7,0,72-32.3,72-72c0-34.2-24-62.9-56.1-70.2c0-0.6,0.1-1.2,0.1-1.8c0-44.1-35.9-80-80-80
	c-23.1,0-44.7,9.9-59.8,26.9C257.2,16.7,226.4,0,192,0C137.2,0,92.2,42.6,88.3,96.4C52.2,100.3,24,130.9,24,168
	c0,39.7,32.3,72,72,72h32v16H24c-13.2,0-24,10.8-24,24v192c0,13.2,10.8,24,24,24h448c13.2,0,24-10.8,24-24V280
	C496,266.8,485.2,256,472,256L472,256z M472,272c4.4,0,8,3.6,8,8v72H368v-80H472z M352,288H144v-72c0-4.4,3.6-8,8-8h192
	c4.4,0,8,3.6,8,8V288z M144,304h208v80H144V304z M96,224c-30.9,0-56-25.1-56-56c0-30.9,25.1-56,56-56h8v-8c0-48.5,39.5-88,88-88
	c43.2,0,79.7,30.8,86.8,73.3l15.8-2.6c-1.7-10.4-5-20.2-9.5-29.2c12.1-16,30.8-25.5,51-25.5c35.3,0,64,28.7,64,64
	c-9.3,0-18.4,1.8-27,5.2l6,14.8c6.7-2.7,13.7-4.1,21-4.1c30.9,0,56,25.1,56,56c0,30.9-25.1,56-56,56h-32v-8c0-13.2-10.8-24-24-24
	H152c-13.2,0-24,10.8-24,24v8H96z M24,272h104v80H16v-72C16,275.6,19.6,272,24,272L24,272z M16,472V368h112v104c0,2.8,0.6,5.5,1.5,8
	H24C19.6,480,16,476.4,16,472L16,472z M336,480H152c-4.4,0-8-3.6-8-8v-72h208v72c0,4.4-3.6,8-8,8H336z M472,480H366.5
	c0.9-2.5,1.5-5.2,1.5-8V368h112v104C480,476.4,476.4,480,472,480L472,480z M472,480"/>
<rect x="448" y="288" width="16" height="48"/>
<rect x="416" y="288" width="16" height="48"/>
<rect x="384" y="288" width="16" height="48"/>
<rect x="384" y="384" class="st1" width="80" height="80"/>
</svg>
