<?xml version="1.0" encoding="utf-8"?>
<!-- Generator: Adobe Illustrator 23.0.3, SVG Export Plug-In . SVG Version: 6.00 Build 0)  -->
<svg version="1.1" id="Layer_1" xmlns="http://www.w3.org/2000/svg" xmlns:xlink="http://www.w3.org/1999/xlink" x="0px" y="0px"
	 viewBox="0 0 496 503" style="enable-background:new 0 0 496 503;" xml:space="preserve">
<style type="text/css">
	.st0{fill:#E73747;}
	.st1{fill:#FFFFFF;stroke:#000000;stroke-width:14;stroke-miterlimit:10;}
	.st2{fill:#E8CB4A;}
</style>
<g>
	<path class="st0" d="M168,495H24c-8.8,0-16-7.2-16-16v-72h176v72C184,487.8,176.8,495,168,495L168,495z M168,495"/>
	<path class="st0" d="M472,495H328c-8.8,0-16-7.2-16-16v-72h176v72C488,487.8,480.8,495,472,495L472,495z M472,495"/>
	<path class="st1" d="M376,63c-6.3,0-12.5,0.8-18.6,2.2C340,29.6,304,7,264,7c-32.1,0-62.5,15-82.1,40.3c-2-0.2-4-0.3-5.9-0.3
		c-23.2,0-44.4,12.6-55.7,32.5c-2.8-0.3-5.6-0.5-8.3-0.5c-39.7,0-72,32.3-72,72s32.3,72,72,72h56v-16c0-8.8,7.2-16,16-16v-32
		c-8.8,0-16-7.2-16-16v-16c0-8.8,7.2-16,16-16h128c8.8,0,16,7.2,16,16v16c0,8.8-7.2,16-16,16v32c8.8,0,16,7.2,16,16v16h48
		c44.1,0,80-35.9,80-80S420.1,63,376,63L376,63z M376,63"/>
	<rect x="112" y="375" width="48" height="16"/>
	<path d="M472,343h-57.4c-6.4,0-12.4,2.5-17,7l-25,25H328c-13.2,0-24,10.8-24,24v32h-33.5c-2.4-6.8-7.7-12.1-14.5-14.5V327h56
		c13.2,0,24-10.8,24-24v-16c0-10.4-6.7-19.2-16-22.5v-19c9.3-3.3,16-12.1,16-22.5v-16c0-10.4-6.7-19.2-16-22.5v-19
		c9.3-3.3,16-12.1,16-22.5v-16c0-13.2-10.8-24-24-24H184c-13.2,0-24,10.8-24,24v16c0,10.4,6.7,19.2,16,22.5v19
		c-9.3,3.3-16,12.1-16,22.5v16c0,10.4,6.7,19.2,16,22.5v19c-9.3,3.3-16,12.1-16,22.5v16c0,13.2,10.8,24,24,24h56v89.5
		c-6.8,2.4-12.1,7.7-14.5,14.5H192v-64c0-13.2-10.8-24-24-24h-57.4c-6.4,0-12.4,2.5-17,7l-25,25H24c-13.2,0-24,10.8-24,24v80
		c0,13.2,10.8,24,24,24h144c13.2,0,24-10.8,24-24v-32h33.5c3.3,9.3,12.1,16,22.5,16c10.4,0,19.2-6.7,22.5-16H304v32
		c0,13.2,10.8,24,24,24h144c13.2,0,24-10.8,24-24V367C496,353.8,485.2,343,472,343L472,343z M304,247v16H192v-16H304z M304,167v16
		H192v-16H304z M176,127c0-4.4,3.6-8,8-8h128c4.4,0,8,3.6,8,8v16c0,4.4-3.6,8-8,8H184c-4.4,0-8-3.6-8-8V127z M176,207
		c0-4.4,3.6-8,8-8h128c4.4,0,8,3.6,8,8v16c0,4.4-3.6,8-8,8H184c-4.4,0-8-3.6-8-8V207z M176,303v-16c0-4.4,3.6-8,8-8h128
		c4.4,0,8,3.6,8,8v16c0,4.4-3.6,8-8,8H184C179.6,311,176,307.4,176,303L176,303z M176,479c0,4.4-3.6,8-8,8H24c-4.4,0-8-3.6-8-8v-80
		c0-4.4,3.6-8,8-8h51.3l29.7-29.7c1.5-1.5,3.5-2.3,5.7-2.3H168c4.4,0,8,3.6,8,8V479z M248,447c-4.4,0-8-3.6-8-8c0-4.4,3.6-8,8-8
		c4.4,0,8,3.6,8,8C256,443.4,252.4,447,248,447L248,447z M480,479c0,4.4-3.6,8-8,8H328c-4.4,0-8-3.6-8-8v-80c0-4.4,3.6-8,8-8h51.3
		l29.7-29.7c1.5-1.5,3.5-2.3,5.7-2.3H472c4.4,0,8,3.6,8,8V479z M480,479"/>
	<rect x="416" y="375" width="48" height="16"/>
	<path d="M424,143c0-26.5-21.5-48-48-48v16c17.6,0,32,14.4,32,32c0,17.6-14.4,32-32,32v16C402.5,191,424,169.5,424,143L424,143z
		 M424,143"/>
	<path d="M112,127v-16c-22.1,0-40,17.9-40,40h16C88,137.8,98.8,127,112,127L112,127z M112,127"/>
	<path d="M264,55c15,0,29,5.8,39.6,16.4l11.3-11.3C301.3,46.5,283.2,39,264,39s-37.3,7.5-50.9,21.1l11.3,11.3
		C235,60.8,249,55,264,55L264,55z M264,55"/>
	<path class="st2" d="M32,242.3V319h16v-76.7l18.3,18.3l11.3-11.3L40,211.7L2.3,249.3l11.3,11.3L32,242.3z M32,242.3"/>
	<rect x="32" y="335" class="st2" width="16" height="16"/>
	<path class="st2" d="M418.3,292.7l37.7,37.7l37.7-37.7l-11.3-11.3L464,299.7V223h-16v76.7l-18.3-18.3L418.3,292.7z M418.3,292.7"/>
	<rect x="448" y="191" class="st2" width="16" height="16"/>
</g>
</svg>
