<?xml version="1.0" encoding="utf-8"?>
<!-- Generator: Adobe Illustrator 23.0.3, SVG Export Plug-In . SVG Version: 6.00 Build 0)  -->
<svg version="1.1" id="Isolation_Mode" xmlns="http://www.w3.org/2000/svg" xmlns:xlink="http://www.w3.org/1999/xlink" x="0px"
	 y="0px" viewBox="0 0 92.4 99" style="enable-background:new 0 0 92.4 99;" xml:space="preserve">
<style type="text/css">
	.st0{fill:#E73747;}
</style>
<g>
	<path d="M90.4,66.1c-1.3-1.1-3.1-1.6-4.7-1.3L50.4,71l-10-10c-0.3-0.3-0.8-0.5-1.3-0.5H21.3c0-1-0.8-1.8-1.8-1.8h-7.1H0v3.6h10.7
		v24.9H0v3.6h12.4h7.1c1,0,1.8-0.8,1.8-1.8h4.9l19,9.5c0.8,0.4,1.7,0.6,2.6,0.6c1,0,2-0.3,2.9-0.8l38.8-22.6c1.8-1,2.9-3,2.9-5
		C92.4,68.8,91.7,67.2,90.4,66.1z M17.8,87.1h-3.6V62.2h3.6V87.1z M87.8,72.5L49,95.1c-0.7,0.4-1.5,0.4-2.1,0.1l-19.4-9.7
		c-0.2-0.1-0.5-0.2-0.8-0.2h-5.3V64h17l14,14c0.6,0.6,1,1.4,1,2.3c0,1.8-1.5,3.3-3.2,3.3c-0.9,0-1.7-0.3-2.3-1l-9.2-9.2l-2.5,2.5
		l9.2,9.2c1.3,1.3,3,2,4.8,2c3.8,0,6.8-3.1,6.8-6.8c0-1.8-0.7-3.5-2-4.8L53.5,74l32.8-5.7c0.7-0.1,1.3,0.1,1.8,0.5
		c0.5,0.4,0.8,1.1,0.8,1.7C88.9,71.4,88.5,72.1,87.8,72.5z"/>
	<rect x="40.1" y="27.6" transform="matrix(0.6727 -0.7399 0.7399 0.6727 -4.2507 49.0604)" width="26.4" height="3.6"/>
	<path d="M46.2,29.3c2.9,0,5.3-2.4,5.3-5.3s-2.4-5.3-5.3-5.3c-2.9,0-5.3,2.4-5.3,5.3C40.9,26.9,43.3,29.3,46.2,29.3z M46.2,22.2
		c1,0,1.8,0.8,1.8,1.8c0,1-0.8,1.8-1.8,1.8c-1,0-1.8-0.8-1.8-1.8C44.4,23,45.2,22.2,46.2,22.2z"/>
	<path d="M55.1,34.7c0,2.9,2.4,5.3,5.3,5.3s5.3-2.4,5.3-5.3s-2.4-5.3-5.3-5.3S55.1,31.7,55.1,34.7z M62.2,34.7c0,1-0.8,1.8-1.8,1.8
		s-1.8-0.8-1.8-1.8s0.8-1.8,1.8-1.8S62.2,33.7,62.2,34.7z"/>
	<path class="st0" d="M52,67c0.3,0.4,0.8,0.6,1.3,0.6s1-0.2,1.3-0.6l28.2-29.7c8.1-8.5,8.1-22.4,0-30.9C78.9,2.3,73.6,0,68,0
		c-5.6,0-10.8,2.3-14.7,6.4C49.4,2.3,44.2,0,38.6,0C33,0,27.8,2.3,23.8,6.4c-8.1,8.5-8.1,22.4,0,30.9L52,67z M26.4,8.9
		c3.3-3.4,7.6-5.3,12.2-5.3c4.6,0,8.9,1.9,12.2,5.3l1.2,1.3c0.7,0.7,1.9,0.7,2.6,0l1.2-1.3c3.3-3.4,7.6-5.3,12.2-5.3
		c4.6,0,8.9,1.9,12.2,5.3c6.8,7.2,6.8,18.8,0,26L53.3,63.2L26.4,34.8C19.6,27.7,19.6,16,26.4,8.9z"/>
	<rect x="44.4" y="42.7" width="3.6" height="3.6"/>
	<rect x="51.6" y="42.7" width="3.6" height="3.6"/>
	<rect x="58.7" y="42.7" width="3.6" height="3.6"/>
</g>
</svg>
