<?xml version="1.0" encoding="utf-8"?>
<!-- Generator: Adobe Illustrator 23.0.3, SVG Export Plug-In . SVG Version: 6.00 Build 0)  -->
<svg version="1.1" id="Layer_1" xmlns="http://www.w3.org/2000/svg" xmlns:xlink="http://www.w3.org/1999/xlink" x="0px" y="0px"
	 viewBox="0 0 494 492.5" style="enable-background:new 0 0 494 492.5;" xml:space="preserve">
<style type="text/css">
	.st0{fill:#E73747;}
	.st1{fill:#E8CB4A;}
	.st2{fill:#FFFFFF;}
</style>
<g>
	<path class="st0" d="M231.8,351.7c0,26.5-21.5,48-48,48c-26.5,0-48-21.5-48-48c0-26.5,21.5-48,48-48
		C210.3,303.7,231.8,325.2,231.8,351.7L231.8,351.7z M231.8,351.7"/>
	<rect x="271.8" y="32" class="st1" width="48" height="127.9"/>
	<rect x="207.8" y="63.9" class="st1" width="48" height="95.9"/>
	<rect x="143.9" y="95.9" class="st1" width="48" height="63.9"/>
	<path d="M0,68.6v315h110.6c6.9,15.6,18.6,28.6,33.2,37.1v71.7l40-20l40,20v-71.7c14.7-8.5,26.4-21.5,33.2-37.1h94.6V0H68.6L0,68.6z
		 M63.9,27.3v36.7H27.3L63.9,27.3z M207.8,466.7l-24-12l-24,12v-38.7c7.6,2.4,15.6,3.7,24,3.7c8.4,0,16.4-1.3,24-3.7V466.7z
		 M183.8,415.6c-35.3,0-63.9-28.7-63.9-63.9s28.7-63.9,63.9-63.9c35.3,0,63.9,28.7,63.9,63.9S219.1,415.6,183.8,415.6L183.8,415.6z
		 M335.7,367.7h-73.6c1.1-5.2,1.6-10.5,1.6-16c0-44.1-35.9-79.9-79.9-79.9c-44.1,0-79.9,35.9-79.9,79.9c0,5.5,0.6,10.8,1.6,16H16
		V79.9h63.9V16h255.8V367.7z M335.7,367.7"/>
	<path class="st2" d="M173.7,370.2L157.5,354l-11.3,11.3l31.8,31.8l44.9-89.9l-14.3-7.1L173.7,370.2z M173.7,370.2"/>
	<rect x="32" y="175.8" width="16" height="16"/>
	<rect x="63.9" y="175.8" width="127.9" height="16"/>
	<rect x="32" y="207.8" width="16" height="16"/>
	<rect x="63.9" y="207.8" width="127.9" height="16"/>
	<rect x="32" y="239.8" width="16" height="16"/>
	<rect x="63.9" y="239.8" width="127.9" height="16"/>
	<path d="M423.6,118.9L494,71.9L423.6,25V48h-24v16h40v-9l25.6,17l-25.6,17v-9h-71.9v16h56V118.9z M423.6,118.9"/>
	<rect x="367.7" y="48" width="16" height="16"/>
	<path d="M423.6,167.9h-56v16h71.9v-9l25.6,17l-25.6,17v-9h-71.9v16h56v22.9l70.4-46.9l-70.4-46.9V167.9z M423.6,167.9"/>
	<path d="M423.6,287.8h-56v16h71.9v-9l25.6,17l-25.6,17v-9.1h-40v16h24v22.9l70.4-46.9l-70.4-46.9V287.8z M423.6,287.8"/>
	<rect x="367.7" y="319.7" width="16" height="16"/>
</g>
</svg>
