<?xml version="1.0" encoding="utf-8"?>
<!-- Generator: Adobe Illustrator 23.0.3, SVG Export Plug-In . SVG Version: 6.00 Build 0)  -->
<svg version="1.1" id="Layer_1" xmlns="http://www.w3.org/2000/svg" xmlns:xlink="http://www.w3.org/1999/xlink" x="0px" y="0px"
	 viewBox="0 0 496 496" style="enable-background:new 0 0 496 496;" xml:space="preserve">
<style type="text/css">
	.st0{fill:#E8CB4A;}
	.st1{fill:#E73747;}
	.st2{fill:#FFFFFF;}
</style>
<rect x="192" y="240" class="st0" width="112" height="96"/>
<rect x="192" y="96" class="st1" width="112" height="96"/>
<rect x="336" y="240" class="st0" width="112" height="96"/>
<rect x="48" y="240" class="st0" width="112" height="96"/>
<path d="M296,48c12.6,0,24.6,4.9,33.6,13.7l11.2-11.4C328.8,38.5,312.8,32,296,32s-32.8,6.5-44.8,18.3l11.2,11.4
	C271.4,52.9,283.4,48,296,48L296,48z M296,48"/>
<path d="M432,128c0-17.6-14.4-32-32-32v16c8.8,0,16,7.2,16,16c0,8.8-7.2,16-16,16v16C417.6,160,432,145.6,432,128L432,128z M432,128
	"/>
<path d="M80,128H64c0,17.6,14.4,32,32,32v-16C87.2,144,80,136.8,80,128L80,128z M80,128"/>
<path d="M112,224h128v16h16v-16h128v16h16v-32H256v-16h-16v16H96v32h16V224z M112,224"/>
<path d="M456,96h-0.7c-11.1-19.1-31.7-32-55.3-32c-4.4,0-8.8,0.5-13.1,1.4C373.9,26.5,337.6,0,296,0c-26.9,0-51.8,11-69.7,29.9
	C212.9,11.3,191.3,0,168,0c-37,0-67.5,28.1-71.5,64c-0.2,0-0.3,0-0.5,0c-23.6,0-44.3,12.9-55.3,32H40c-22.1,0-40,17.9-40,40v240
	c0,22.1,17.9,40,40,40h132.9l-10.7,32H136c-13.2,0-24,10.8-24,24v24h272v-24c0-13.2-10.8-24-24-24h-26.2l-10.7-32H456
	c22.1,0,40-17.9,40-40V136C496,113.9,478.1,96,456,96L456,96z M33.9,112.9c-1.2,4.9-1.9,9.9-1.9,15.1c0,35.3,28.7,64,64,64h80v-16
	H96c-26.5,0-48-21.5-48-48c0-26.5,21.5-48,48-48c13,0,25.2,5.1,34.3,14.4l11.4-11.2c-8.2-8.4-18.4-14.2-29.4-17.1
	C115.2,38,139.1,16,168,16c19.7,0,37.8,10.4,47.9,27.2c-1.9,3-3.8,6-5.4,9.2l14.2,7.3C238.5,32.7,265.8,16,296,16
	c37,0,68.9,25.1,77.7,61.1l2.1,8.6l8.3-2.9c5.2-1.8,10.6-2.8,15.9-2.8c26.5,0,48,21.5,48,48c0,26.5-21.5,48-48,48h-80v16h80
	c35.3,0,64-28.7,64-64c0-5.2-0.7-10.3-1.9-15.1c10.3,2.7,17.9,12,17.9,23.1v216H16V136C16,124.9,23.6,115.6,33.9,112.9L33.9,112.9z
	 M322.2,464H360c4.4,0,8,3.6,8,8v8H128v-8c0-4.4,3.6-8,8-8h160v-16H179.1l10.7-32h116.5L322.2,464z M456,400H40
	c-13.2,0-24-10.8-24-24v-8h464v8C480,389.2,469.2,400,456,400L456,400z M456,400"/>
<path class="st2" d="M288,112h-80v64h80V112z M272,160h-48v-32h48V160z M272,160"/>
<path d="M208,320h80v-64h-80V320z M224,272h48v32h-48V272z M224,272"/>
<path d="M352,320h80v-64h-80V320z M368,272h48v32h-48V272z M368,272"/>
<path d="M144,256H64v64h80V256z M128,304H80v-32h48V304z M128,304"/>
</svg>
