<?xml version="1.0" encoding="utf-8"?>
<!-- Generator: Adobe Illustrator 23.0.3, SVG Export Plug-In . SVG Version: 6.00 Build 0)  -->
<svg version="1.1" id="Layer_1" xmlns="http://www.w3.org/2000/svg" xmlns:xlink="http://www.w3.org/1999/xlink" x="0px" y="0px"
	 viewBox="0 0 100.5 100.5" style="enable-background:new 0 0 100.5 100.5;" xml:space="preserve">
<style type="text/css">
	.st0{fill:#E73747;stroke:#000000;stroke-width:3;stroke-miterlimit:10;}
	.st1{fill:#E8CB4A;}
	.st2{fill:#FFFFFF;}
</style>
<g>
	<circle class="st0" cx="78.2" cy="78.2" r="20.8"/>
	<polygon class="st1" points="36.7,27.1 36.7,20.8 30.3,20.8 30.3,14.4 24,14.4 24,8 17.6,8 17.6,1.6 11.2,1.6 11.2,39.9 17.6,39.9 
		24,39.9 30.3,39.9 36.7,39.9 43.1,39.9 43.1,27.1 	"/>
	<rect x="16.8" y="67.1" transform="matrix(0.7071 -0.7071 0.7071 0.7071 -39.6628 41.5691)" width="27.1" height="3.2"/>
	<path d="M36.7,70.3c-2.6,0-4.8,2.1-4.8,4.8c0,2.6,2.1,4.8,4.8,4.8s4.8-2.1,4.8-4.8C41.5,72.4,39.4,70.3,36.7,70.3z M36.7,76.6
		c-0.9,0-1.6-0.7-1.6-1.6s0.7-1.6,1.6-1.6c0.9,0,1.6,0.7,1.6,1.6S37.6,76.6,36.7,76.6z"/>
	<path d="M24,67.1c2.6,0,4.8-2.1,4.8-4.8c0-2.6-2.1-4.8-4.8-4.8s-4.8,2.1-4.8,4.8C19.2,64.9,21.3,67.1,24,67.1z M24,60.7
		c0.9,0,1.6,0.7,1.6,1.6s-0.7,1.6-1.6,1.6s-1.6-0.7-1.6-1.6S23.1,60.7,24,60.7z"/>
	<path d="M49.5,0c-8.6,0-16.9,2.2-24.3,6.4h-6.1V0H9.6v20.3C3.3,28.8,0,38.9,0,49.5C0,76.8,22.2,99,49.5,99c6.1,0,12-1.1,17.6-3.2
		c-1.1-0.7-2.1-1.5-3-2.3c-4.2,1.4-8.6,2.1-13,2.3V51.1h44.6c-0.2,4.5-0.9,8.8-2.3,13c0.9,0.9,1.6,1.9,2.3,3
		c2.1-5.6,3.2-11.6,3.2-17.6C99,22.2,76.8,0,49.5,0z M95.8,47.9H82.1l11.7-11.7C95,39.9,95.6,43.8,95.8,47.9z M87.7,23.4L69.9,41.2
		l2.3,2.3l17.3-17.3c1.2,2.1,2.3,4.3,3.2,6.6L77.6,47.9h-9.9l2.1-2.1l-2.3-2.3l-4.3,4.3h-9.9l30-30C84.9,19.6,86.4,21.5,87.7,23.4z
		 M72.5,14.4l3.1-3.1c1.9,1.3,3.8,2.8,5.5,4.4l-30,30v-9.9l19.4-19.4l-2.3-2.3L51.1,31.3v-9.9L66.2,6.3c2.3,0.9,4.5,2,6.6,3.2
		l-2.6,2.6L72.5,14.4z M51.1,16.9V3.2c4.1,0.1,8,0.8,11.7,1.9L51.1,16.9z M38.3,28.7h3.2v9.6h-3.2V28.7z M35.1,25.5v12.8h-3.2v-16
		h3.2V25.5z M28.7,19.2v19.2h-3.2V16h3.2V19.2z M22.4,9.6v3.2v25.5h-3.2V9.6H22.4z M12.8,3.2H16v3.2v31.9h-3.2V3.2z M16,41.5h3.2
		h3.2h3.2h3.2h3.2h3.2h3.2h6.4v-16h-6.4v-6.4h-6.4v-6.4h-6.4V9.9C32.3,5.8,40,3.5,47.9,3.2v44.7H3.3c0.3-7.8,2.4-15.2,6.3-21.8v15.4
		H16z M47.9,95.8C23.6,94.9,4.1,75.4,3.2,51.1h44.7V95.8z"/>
	<path class="st2" d="M78.2,70.3c1.8,0,3.2,1.4,3.2,3.2h3.2c0-3-2-5.4-4.8-6.2v-3.4h-3.2v3.4c-2.7,0.7-4.8,3.2-4.8,6.2
		c0,3.5,2.9,6.4,6.4,6.4c1.8,0,3.2,1.4,3.2,3.2s-1.4,3.2-3.2,3.2S75,84.8,75,83h-3.2c0,3,2,5.4,4.8,6.2v3.4h3.2v-3.4
		c2.7-0.7,4.8-3.2,4.8-6.2c0-3.5-2.9-6.4-6.4-6.4c-1.8,0-3.2-1.4-3.2-3.2C75,71.7,76.5,70.3,78.2,70.3z"/>
	<rect x="89.4" y="76.6" class="st2" width="3.2" height="3.2"/>
	<rect x="63.9" y="76.6" class="st2" width="3.2" height="3.2"/>
</g>
</svg>
