<?xml version="1.0" encoding="utf-8"?>
<!-- Generator: Adobe Illustrator 23.0.3, SVG Export Plug-In . SVG Version: 6.00 Build 0)  -->
<svg version="1.1" id="Layer_1" xmlns="http://www.w3.org/2000/svg" xmlns:xlink="http://www.w3.org/1999/xlink" x="0px" y="0px"
	 viewBox="0 0 94.8 99.5" style="enable-background:new 0 0 94.8 99.5;" xml:space="preserve">
<style type="text/css">
	.st0{fill:#E73747;}
	.st1{fill:#E8CB4A;}
	.st2{stroke:#000000;stroke-miterlimit:10;}
</style>
<g>
	<path class="st0" d="M13.4,12.6l-1.6,17.9c0,0,2.9,4.1,2.9,5.4c0,1.4,2.3,8.4,3.1,9c0.8,0.6,4.4,4.5,4.4,4.5l4.7,5.6l7.4,4.9
		l5.2,4.3l8.4,2.4c0,0,4.1,2.8,5.4,2.8c1.3,0,4.8,0,4.8,0h5.5v-1.1c0,0-2.6-1.4-6.4-2.8c-3.7-1.4-7.8-3.7-8.5-4.1
		c-0.6-0.4-5-3.4-5-3.4s-3.3-2.2-4.3-2.6c-1-0.4-5.2-5-5.2-5l-5.7-6l-3.3-4.3l-2.5-7l-5-8L14.7,19L13.4,12.6z"/>
	<polygon class="st1" points="34.2,87.9 17.8,87.9 25.2,78.2 34.2,80.2 	"/>
	<path class="st2" d="M52.7,96.1L38.5,84c0,0,0,0,0,0l-10-8.6V61.6c0-0.9-0.7-1.6-1.6-1.6c-0.9,0-1.6,0.7-1.6,1.6v13.8L1.1,96.1
		c-0.7,0.6-0.8,1.6-0.2,2.3c0.6,0.7,1.6,0.8,2.3,0.2l13.3-11.4l8.7,4.6v5.5c0,0.9,0.7,1.6,1.6,1.6c0.9,0,1.6-0.7,1.6-1.6v-5.5
		l8.7-4.6l13.3,11.4c0.3,0.3,0.7,0.4,1.1,0.4c0.5,0,0.9-0.2,1.2-0.6C53.4,97.7,53.4,96.7,52.7,96.1z M19.2,84.9l6.1-5.2v8.4
		L19.2,84.9z M28.5,88.1v-8.4l6.1,5.2L28.5,88.1z"/>
	<path d="M80.3,52.3C80.3,52.3,80.3,52.3,80.3,52.3c-0.9,0-1.6,0.7-1.6,1.6c0,3.6-1,6.5-3,8.5c0,0,0,0,0,0l0,0
		c-3.4,3.4-9.6,3.9-17.2,1.4c-8-2.7-16.7-8.4-24.3-16s-13.3-16.3-16-24.3c-2.6-7.7-2.1-13.8,1.4-17.2c3.4-3.4,9.6-3.9,17.2-1.4
		c8,2.7,16.7,8.4,24.3,16c6,6,10.8,12.6,13.9,19.2c0.4,0.8,1.4,1.2,2.2,0.8c0.8-0.4,1.2-1.4,0.8-2.2c-3.3-6.9-8.3-13.8-14.5-20.1
		c-8-8-17.1-13.9-25.6-16.8c-8.9-3-16.2-2.2-20.6,2.2c0,0,0,0,0,0l-1.5,1.5c-5.5,5.5-7.5,13.9-5.5,23.6c2,9.5,7.5,19.1,15.5,27.1
		c11.6,11.6,22.9,14.8,30.4,15.5c1.1,0.1,2.2,0.1,3.2,0.1c7.1,0,13.6-2.1,17.2-5.7l1.5-1.5c0,0,0,0,0,0c2.6-2.6,3.9-6.3,3.9-10.8
		C82,53,81.2,52.3,80.3,52.3z M56.4,68.5c-6.9-0.6-17.5-3.6-28.4-14.6C16.2,42.1,10.7,27.1,13.4,16.3c0.2,2.5,0.7,5.3,1.7,8.2
		c2.8,8.5,8.8,17.6,16.8,25.6c8,8,17.1,13.9,25.6,16.8c2.1,0.7,4.2,1.2,6.1,1.5C61.4,68.7,59,68.7,56.4,68.5z"/>
	<path class="st0" d="M94.3,30.7L87,23.4c-0.6-0.6-1.7-0.6-2.3,0c-0.6,0.6-0.6,1.7,0,2.3l0.4,0.4l-3.5,3.5c-0.6,0.6-0.6,1.7,0,2.3
		c0.3,0.3,0.7,0.5,1.2,0.5c0.4,0,0.8-0.2,1.2-0.5l3.5-3.5l3.5,3.5L68,54.7c-0.6,0.6-0.6,1.7,0,2.3c0.3,0.3,0.7,0.5,1.2,0.5
		s0.8-0.2,1.2-0.5l24-24c0.3-0.3,0.5-0.7,0.5-1.2S94.6,31,94.3,30.7z"/>
</g>
</svg>
