<?xml version="1.0" encoding="utf-8"?>
<!-- Generator: Adobe Illustrator 23.0.3, SVG Export Plug-In . SVG Version: 6.00 Build 0)  -->
<svg version="1.1" id="Layer_1" xmlns="http://www.w3.org/2000/svg" xmlns:xlink="http://www.w3.org/1999/xlink" x="0px" y="0px"
	 viewBox="0 0 93.8 95" style="enable-background:new 0 0 93.8 95;" xml:space="preserve">
<style type="text/css">
	.st0{fill:#E8CB4A;}
	.st1{fill:#E73747;}
</style>
<g>
	<path class="st0" d="M63.3,83l-6.8,8.3c-5.9,3-12.9,2.9-18.8-0.1L31,83.4l11.6-8.2l-1.2-14l10.9,0.5l-1.2,13.9L63.3,83z"/>
	<rect x="15.1" y="28.4" class="st1" width="13.2" height="10.8"/>
	<rect x="65.1" y="28.9" class="st1" width="14.3" height="11.1"/>
	<path d="M60.5,85.8v-1.2c0-2.1-1.4-3.9-3.4-4.4L48.4,78v-4.4l0.8-0.4c1.4-0.8,2.3-2.3,2.3-3.9v-3c0-1.3-0.5-2.5-1.5-3.3
		c-0.9-0.9-2.2-1.3-3.5-1.2c-2.3,0.2-4.1,2.3-4.1,4.8v2.7c0,1.6,0.9,3.1,2.3,3.9l0.8,0.4V78l-8.7,2.2c-2,0.5-3.4,2.3-3.4,4.4v1.2
		c3.3,3.8,8.2,6.2,13.6,6.2S57.2,89.6,60.5,85.8z M65.1,73.8c0-10-8.1-18.2-18.2-18.2s-18.2,8.1-18.2,18.2c0,2.9,0.7,5.7,2,8.2
		c0.8-2.3,2.8-4.1,5.3-4.8l6.4-1.6v-0.4c-1.9-1.4-3-3.7-3-6v-2.7c0-4.1,3-7.5,6.9-7.9c2.1-0.2,4.2,0.5,5.8,2
		c1.6,1.4,2.5,3.5,2.5,5.6v3c0,2.4-1.1,4.6-3,6v0.4l6.4,1.6c2.5,0.6,4.4,2.4,5.3,4.8C64.4,79.5,65.1,76.8,65.1,73.8z M67.2,67.8
		c0.6,1.9,0.9,3.9,0.9,6.1c0,11.7-9.5,21.2-21.2,21.2s-21.2-9.5-21.2-21.2c0-2.1,0.3-4.1,0.9-6.1l1.2-3c0.7-1.4,1.5-2.7,2.4-3.9
		l-8.8-11.2h-13V19.3h27.2v30.3h-10l6.6,8.9c3.8-3.7,9-5.9,14.6-5.9s10.8,2.3,14.6,5.9l6.6-8.9h-10V19.3h27.2v30.3h-13l-8.8,11.2
		c1,1.2,1.8,2.5,2.4,3.9L67.2,67.8z M82.6,46.8V22.1H61v24.6H82.6z M32.8,46.8V22.1H11.2v24.6H32.8z M14.5,27.9h15.1V40H14.5V27.9z
		 M16.3,38.2h11.4v-8.4H16.3V38.2z M64.2,28.9h15.1V41H64.2V28.9z M66.1,39.2h11.4v-8.4H66.1V39.2z"/>
	<g>
		<rect x="18.2" y="6.1" width="3" height="3"/>
		<path d="M0,0v66.6h25.9l1.2-3H3V15.1h87.8v48.4H66.6l1.3,3h25.9V0H0z M90.8,12.1H3V3h87.8V12.1z"/>
		<rect x="12.1" y="6.1" width="3" height="3"/>
		<rect x="6.1" y="6.1" width="3" height="3"/>
	</g>
</g>
</svg>
