<?xml version="1.0" encoding="utf-8"?>
<!-- Generator: Adobe Illustrator 23.0.3, SVG Export Plug-In . SVG Version: 6.00 Build 0)  -->
<svg version="1.1" id="Isolation_Mode" xmlns="http://www.w3.org/2000/svg" xmlns:xlink="http://www.w3.org/1999/xlink" x="0px"
	 y="0px" viewBox="0 0 98 98" style="enable-background:new 0 0 98 98;" xml:space="preserve">
<style type="text/css">
	.st0{fill:#E8CB4A;}
	.st1{fill:#E73747;}
</style>
<rect x="12.6" y="49" class="st0" width="74.1" height="13.2"/>
<path d="M15.8,7.9v9.5H19V9.5h7.9V6.3h-9.5C16.5,6.3,15.8,7,15.8,7.9z"/>
<path d="M80.6,6.3h-9.5v3.2H79v7.9h3.2V7.9C82.2,7,81.5,6.3,80.6,6.3z"/>
<path d="M79,41.1h-7.9v3.2h9.5c0.9,0,1.6-0.7,1.6-1.6v-9.5H79V41.1z"/>
<path d="M19,33.2h-3.2v9.5c0,0.9,0.7,1.6,1.6,1.6h9.5v-3.2H19V33.2z"/>
<path class="st1" d="M44.3,23.7H31.6v-7.9h-3.2v19h3.2v-7.9h12.6v7.9h3.2v-19h-3.2V23.7z"/>
<path class="st1" d="M60.1,15.8h-7.9c-0.9,0-1.6,0.7-1.6,1.6v15.8c0,0.9,0.7,1.6,1.6,1.6h7.9c5.2,0,9.5-4.3,9.5-9.5
	S65.3,15.8,60.1,15.8z M60.1,31.6h-6.3V19h6.3c3.5,0,6.3,2.8,6.3,6.3S63.6,31.6,60.1,31.6z"/>
<path d="M42.7,53.7h12.6v3.2H42.7V53.7z"/>
<path d="M96.4,75.9h-19v-4.7c0-0.9-0.7-1.6-1.6-1.6h-19v-6.3h26.9c2.6,0,4.7-2.1,4.7-4.7V4.7c0-2.6-2.1-4.7-4.7-4.7H14.2
	c-2.6,0-4.7,2.1-4.7,4.7v53.7c0,2.6,2.1,4.7,4.7,4.7h26.9v6.3h-19c-0.9,0-1.6,0.7-1.6,1.6v4.7h-19c-0.9,0-1.6,0.7-1.6,1.6V98h3.2V79
	h44.3v19h3.2V79h44.3v19H98V77.5C98,76.6,97.3,75.9,96.4,75.9z M12.6,4.7c0-0.9,0.7-1.6,1.6-1.6h69.5c0.9,0,1.6,0.7,1.6,1.6v42.7
	H12.6V4.7z M12.6,58.5v-7.9h72.7v7.9c0,0.9-0.7,1.6-1.6,1.6H14.2C13.4,60.1,12.6,59.4,12.6,58.5z M44.3,63.2h9.5v6.3h-9.5V63.2z
	 M23.7,75.9v-3.2h50.6v3.2H23.7z"/>
<path d="M53.7,85.4h3.2v6.3h-3.2V85.4z"/>
<path d="M41.1,85.4h3.2v6.3h-3.2V85.4z"/>
</svg>
