<?xml version="1.0" encoding="utf-8"?>
<!-- Generator: Adobe Illustrator 23.0.3, SVG Export Plug-In . SVG Version: 6.00 Build 0)  -->
<svg version="1.1" id="Layer_1" xmlns="http://www.w3.org/2000/svg" xmlns:xlink="http://www.w3.org/1999/xlink" x="0px" y="0px"
	 viewBox="0 0 99 96.4" style="enable-background:new 0 0 99 96.4;" xml:space="preserve">
<style type="text/css">
	.st0{fill:#E73747;}
	.st1{fill:#E8CB4A;}
</style>
<g>
	<polygon class="st0" points="88.3,20.8 75.6,20.8 77.5,6.5 93.2,5.5 	"/>
	
		<rect x="12.3" y="60.8" transform="matrix(0.7071 0.7071 -0.7071 0.7071 60.2089 9.5007)" class="st1" width="12.7" height="33.3"/>
	
		<rect x="67.6" y="-1.4" transform="matrix(0.7071 0.7071 -0.7071 0.7071 38.4399 -43.7055)" class="st0" width="8.8" height="51.9"/>
	<path d="M49.6,55.5L47,52.8L38.8,61l-3.3-3.3l8.2-8.2l-2.6-2.6L39,49l-6.1,6.1l-1.4-1.4c-1.5-1.5-3.9-1.5-5.5,0l-1.9,1.9
		c-1.4,1.4-1.5,3.7-0.2,5.2L1.6,83.1C0.1,84.6,0,87,1.5,88.5c0,0,0.1,0.1,0.1,0.1L8,95c1.4,1.5,3.8,1.6,5.3,0.1c0,0,0.1-0.1,0.1-0.1
		l22.4-22.4c1.5,1.3,3.8,1.2,5.2-0.2l1.9-1.9c1.5-1.4,1.6-3.8,0.1-5.3c0,0-0.1-0.1-0.1-0.1l-1.4-1.4l6.1-6.2L49.6,55.5z M10.7,92.3
		l-6.5-6.4l22.5-22.4l3.3,3.3l3.1,3.2L10.7,92.3z M38.4,69.6l-2.5-2.5l-1-1l-7.9-8l1.9-1.9l11.3,11.5L38.4,69.6z"/>
	<path d="M96.1,7.2l-6.6-6.6c-0.6-0.6-1.6-0.7-2.3-0.3L74.3,7.9c-0.6,0.3-0.9,0.9-0.9,1.6l-0.2,5.3L50.6,37.3l-3.3,3.3l2.6,2.6
		l26.4-26.3c0.3-0.3,0.5-0.8,0.5-1.3l0.2-5l10.7-6.4l4.5,4.5l-6.2,10.7l-5.1,0.2c-0.5,0-0.9,0.2-1.3,0.5L53.2,46.5l2.6,2.6l3.3-3.3
		l22.6-22.4l5.4-0.2c0.6,0,1.2-0.4,1.6-0.9l7.7-12.9C96.8,8.7,96.7,7.8,96.1,7.2z"/>
	<path d="M65.1,76.2c-1.6,9.4,4.8,18.4,14.2,19.9c5.6,0.9,11.3-0.9,15.2-5c0.7-0.8,0.6-2-0.2-2.7c-0.2-0.2-0.4-0.3-0.7-0.4L83,85.3
		c-1-0.3-1.9-1.1-2.2-2.2c-0.6-1.4-0.6-3-0.2-4.5c0.8-3,3.3-5.1,5.4-4.5L96.6,77c0.2,0,0.3,0,0.5,0c1,0,1.9-0.8,1.9-1.9
		c0-0.3-0.1-0.6-0.2-0.9C98,71.5,96.5,69,94.4,67c-3.2-3.3-7.6-5.1-12.2-5.1c-2.3,0-4.7,0.5-6.8,1.4l-41-41
		c1.6-9.4-4.7-18.4-14.1-20c-4.4-0.8-8.9,0.2-12.5,2.7C6.8,5.5,6.6,6.7,7.2,7.5C7.3,7.8,7.6,8,7.8,8.1l8.6,4.8
		c1.9,1.1,2.3,4.3,0.7,7s-4.5,4.1-6.4,3.1l-8-4.3c-0.9-0.5-2.1-0.2-2.6,0.7c-0.2,0.3-0.3,0.7-0.2,1C0.6,30,8.8,37.2,18.4,36.6
		c2-0.1,3.9-0.6,5.7-1.4L65.1,76.2z M55.7,43.6 M87,70.5c-0.6-0.2-1.1-0.2-1.7-0.2c-4.1,0.3-7.5,3.4-8.3,7.4
		c-0.6,2.3-0.5,4.7,0.4,6.9c0.8,2.1,2.6,3.7,4.7,4.4l7,1.9c-6.4,3.8-14.7,1.7-18.5-4.7c-1.8-3-2.3-6.6-1.5-10c0.1-0.6,0-1.3-0.5-1.8
		L25.8,31.7c-0.6-0.6-1.5-0.7-2.2-0.3c-2,1-4.1,1.6-6.3,1.6c-5.7,0-10.8-3.6-12.7-8.9l4.3,2.4c1,0.6,2.1,0.9,3.3,0.9
		c3.5-0.2,6.6-2.2,8.2-5.4c2.6-4.6,1.6-10.1-2.2-12.2l-5.5-3.1c7-2.5,14.8,1.2,17.3,8.2c0.9,2.4,1,5.1,0.4,7.6
		c-0.1,0.6,0,1.3,0.5,1.8l42.7,42.7c0.6,0.6,1.5,0.7,2.2,0.3c2-1,4.1-1.6,6.3-1.6c4.8,0,9.2,2.5,11.7,6.7L87,70.5z"/>
</g>
</svg>
