<?xml version="1.0" encoding="utf-8"?>
<!-- Generator: Adobe Illustrator 23.0.3, SVG Export Plug-In . SVG Version: 6.00 Build 0)  -->
<svg version="1.1" id="Isolation_Mode" xmlns="http://www.w3.org/2000/svg" xmlns:xlink="http://www.w3.org/1999/xlink" x="0px"
	 y="0px" viewBox="0 0 99 93.3" style="enable-background:new 0 0 99 93.3;" xml:space="preserve">
<style type="text/css">
	.st0{fill:#E73747;}
	.st1{fill:#E8CB4A;}
	.st2{fill:#FFFFFF;}
</style>
<g>
	<circle class="st0" cx="50.7" cy="26.6" r="23.3"/>
	<rect x="3.7" y="57.9" class="st1" width="11.7" height="31.7"/>
	<path class="st2" d="M50.8,36.8c-0.2,0-0.4-0.1-0.6,0c-2.1-0.2-3.7-2-3.7-4.2c0-1-0.8-1.8-1.8-1.8s-1.8,0.8-1.8,1.8
		c0,3.5,2.4,6.7,5.8,7.6V42c0,1,0.8,1.8,1.8,1.8s1.8-0.8,1.8-1.8v-1.7c3.9-0.8,6.6-4.5,6.2-8.5c-0.4-4-3.8-7.1-7.8-7.1
		c-2.3,0-4.2-1.9-4.2-4.2s1.9-4.2,4.2-4.2s4.2,1.9,4.2,4.2c0,1,0.8,1.8,1.8,1.8s1.8-0.8,1.8-1.8c0-3.7-2.6-6.9-6.3-7.7v-1.7
		c0-1-0.8-1.8-1.8-1.8s-1.8,0.8-1.8,1.8V13c-3.8,1-6.3,4.7-5.7,8.6c0.5,3.9,3.9,6.8,7.8,6.8c2.3,0,4.1,1.8,4.2,4.1
		C54.9,34.8,53.1,36.7,50.8,36.8z"/>
	<path d="M23.9,26.7c0,14.8,12,26.7,26.7,26.7s26.7-12,26.7-26.7S65.4,0,50.7,0C35.9,0,23.9,12,23.9,26.7z M50.7,3.7
		c12.7,0,23,10.3,23,23s-10.3,23-23,23s-23-10.3-23-23C27.6,14,37.9,3.7,50.7,3.7z"/>
	<path d="M86.5,63.5L72,70.3c-2-3.7-5.8-6.1-10-6.2l-13.3-0.4c-2.1-0.1-4.2-0.6-6.1-1.6l-1.4-0.7c-6.9-3.6-15.2-3.6-22.2,0l0.1-3.1
		c0-1-0.8-1.9-1.8-1.9L2.8,56.1c-1,0-1.9,0.8-1.9,1.8L0,90c0,1,0.8,1.9,1.8,1.9l14.6,0.4h0.1c1,0,1.8-0.8,1.8-1.8l0-1.5l3.8-2
		c1.5-0.8,3.2-1,4.9-0.5l22.7,6.4c0,0,0.1,0,0.1,0c1.6,0.3,3.3,0.5,5,0.5c3.5,0,7.1-0.8,10.3-2.2c0.1,0,0.2-0.1,0.2-0.1l32.9-21.3
		c0.8-0.5,1.1-1.6,0.6-2.5C96.3,62.9,90.9,61.3,86.5,63.5z M3.7,88.3l0.8-28.4l10.9,0.3l-0.8,28.4L3.7,88.3z M63.4,87.8
		c-4,1.8-8.5,2.3-12.8,1.4L28,82.9c-2.5-0.7-5.3-0.4-7.6,0.8l-1.9,1L19,65.9c6.1-4.1,14-4.5,20.6-1.1l1.4,0.7c2.4,1.2,5,1.9,7.7,2
		l13.3,0.4c3.7,0.1,6.9,2.8,7.7,6.4l-19.9-0.5c-1,0-1.9,0.8-1.9,1.8c0,1,0.8,1.9,1.8,1.9L71.5,78h0.1c1,0,1.8-0.8,1.8-1.8
		c0-0.8,0-1.6-0.2-2.4l14.8-7c0,0,0,0,0,0c2.1-1.1,4.6-0.7,6.4,0.9L63.4,87.8z"/>
</g>
</svg>
