<?xml version="1.0" encoding="utf-8"?>
<!-- Generator: Adobe Illustrator 23.0.3, SVG Export Plug-In . SVG Version: 6.00 Build 0)  -->
<svg version="1.1" id="Layer_1" xmlns="http://www.w3.org/2000/svg" xmlns:xlink="http://www.w3.org/1999/xlink" x="0px" y="0px"
	 viewBox="0 0 99 81.7" style="enable-background:new 0 0 99 81.7;" xml:space="preserve">
<style type="text/css">
	.st0{fill:#E8CB4A;}
	.st1{fill:#E73747;}
	.st2{fill:#FFFFFF;}
</style>
<g>
	<rect x="16.1" y="5.9" transform="matrix(0.7071 -0.7071 0.7071 0.7071 -6.9987 19.4682)" class="st0" width="7.7" height="24.5"/>
	
		<rect x="60.1" y="49.9" transform="matrix(0.7071 -0.7071 0.7071 0.7071 -25.2241 63.4682)" class="st0" width="7.7" height="24.5"/>
	<path class="st1" d="M91.3,1.9h-46c-3.3,0-6,2.7-6,6v19c0,3.3,2.7,6,6,6h1.2v8.3h4.9l6.6-8.3h33.2c3.3,0,6-2.7,6-6v-19
		C97.3,4.6,94.6,1.9,91.3,1.9z"/>
	<path d="M92.8,0h-9.3C82.6,0,82,0.7,82,1.5c0,0.8,0.7,1.5,1.5,1.5h9.3c1.8,0,3.3,1.5,3.3,3.3v22.4c0,1.8-1.5,3.3-3.3,3.3H58.5
		c-0.4,0-0.8,0.2-1,0.4L49,40.8v-7.4c0-0.8-0.7-1.5-1.5-1.5h-2.8c-1.8,0-3.3-1.5-3.3-3.3V6.2c0-1.8,1.5-3.3,3.3-3.3h43.9
		c0.8,0,1.5-0.7,1.5-1.5C90,0.7,89.4,0,88.6,0H44.7c-3.4,0-6.2,2.8-6.2,6.2v22.4c0,3.4,2.8,6.2,6.2,6.2H46v9.5
		c0,0.6,0.4,1.1,0.9,1.4c0.2,0.1,0.4,0.1,0.6,0.1c0.4,0,0.8-0.1,1-0.4l10.5-10.5h33.7c3.4,0,6.2-2.8,6.2-6.2V6.2
		C99,2.8,96.2,0,92.8,0z"/>
	<path d="M60.7,50.9c-0.8-0.8-1.8-1.2-2.9-1.2c-1.1,0-2.1,0.4-2.9,1.2l-9,9c-3.6-1.9-6.7-3.6-10.1-6.6c-0.6-0.5-1.5-0.4-2.1,0.2
		c-0.5,0.6-0.4,1.5,0.2,2.1c4,3.4,7.5,5.3,11.6,7.4c0.6,0.3,1.3,0.2,1.7-0.3l4.8-4.8L68,73.8c-5.1,4.4-12.4,5.9-20.7,4.3
		c-9.3-1.8-19.1-7.5-27.7-16.1S5.4,43.6,3.6,34.4c-1.6-8.3-0.1-15.5,4.3-20.7l15.9,15.9L19,34.4c-0.5,0.5-0.6,1.1-0.3,1.7
		c2.9,5.6,5.3,9.8,11.2,15.7c0.6,0.6,1.5,0.6,2.1,0c0.6-0.6,0.6-1.5,0-2.1c-5.3-5.3-7.5-9-10.2-14l9-9C31.5,26,32,25,32,23.9
		c0-1.1-0.4-2.1-1.2-2.9L16.4,6.7c-0.8-0.8-1.8-1.2-2.9-1.2s-2.1,0.4-2.9,1.2l-3.9,3.9c-5.9,5.9-8.1,14.5-6.1,24.4
		c1.9,9.9,7.9,20.2,16.9,29.2c9,9,19.3,15,29.2,16.9c2.3,0.5,4.6,0.7,6.8,0.7c7,0,13.1-2.3,17.6-6.8l3.9-3.9
		c0.8-0.8,1.2-1.8,1.2-2.9c0-1.1-0.4-2.1-1.2-2.9L60.7,50.9z M12.8,8.7c0.2-0.2,0.5-0.3,0.8-0.3s0.6,0.1,0.8,0.3l14.4,14.4
		c0.2,0.2,0.3,0.5,0.3,0.8c0,0.3-0.1,0.6-0.3,0.8l-2.8,2.8L9.9,11.6L12.8,8.7z M73,69l-2.8,2.8L54.2,55.8L57,53
		c0.2-0.2,0.5-0.3,0.8-0.3c0.3,0,0.6,0.1,0.8,0.3L73,67.4C73.4,67.8,73.4,68.5,73,69z"/>
	<g>
		<path class="st2" d="M63.8,26.5l0.7-4.7h-2.2v-3H65l0.4-2.7h-2.3v-3h2.8l0.7-4.6h2.8l-0.7,4.6h2.4l0.7-4.6h2.8l-0.7,4.6h2.2v3
			h-2.7L73,18.8h2.2v3h-2.7l-0.7,4.7H69l0.7-4.7h-2.4l-0.7,4.7H63.8z M70.2,18.8l0.4-2.7h-2.4l-0.4,2.7H70.2z"/>
	</g>
</g>
</svg>
