<?xml version="1.0" encoding="utf-8"?>
<!-- Generator: Adobe Illustrator 23.0.3, SVG Export Plug-In . SVG Version: 6.00 Build 0)  -->
<svg version="1.1" id="Layer_1" xmlns="http://www.w3.org/2000/svg" xmlns:xlink="http://www.w3.org/1999/xlink" x="0px" y="0px"
	 viewBox="0 0 85.6 99" style="enable-background:new 0 0 85.6 99;" xml:space="preserve">
<style type="text/css">
	.st0{fill:none;stroke:#E73747;stroke-width:10;stroke-miterlimit:10;}
	.st1{fill:#E8CB4A;}
</style>
<g>
	<g>
		<g>
			<path d="M61.5,63.6H20.7c-0.4,0-0.8,0.2-1.2,0.5L0,83.6L2.3,86l19.1-19.1h38.3c-0.3,1.9-1.4,4.9-4.7,4.9H37V75H55
				c6.4,0,8.2-6.4,8.2-9.8C63.1,64.3,62.4,63.6,61.5,63.6z"/>
		</g>
	</g>
	<g>
		<g>
			<path d="M82.2,52.7c-0.6-0.6-1.7-0.6-2.3,0L65.2,67.3l2.3,2.3l13.4-13.4c2.2,2.9,1.8,7.1-1,9.5L60.8,84.8H27.2
				c-0.4,0-0.8,0.2-1.2,0.5L14.7,96.7L17,99l10.9-10.9h33.6c0.4,0,0.8-0.2,1.2-0.5L82.2,68C88.3,61.9,84.9,55.3,82.2,52.7z"/>
		</g>
	</g>
	<g>
		<g>
			<path d="M72.9,22.8H67c-0.4-1.5-1-2.9-1.8-4.3l4.1-4.1c0.6-0.6,0.6-1.7,0-2.3l-6.9-6.9c-0.6-0.6-1.7-0.6-2.3,0L56,9.3
				c-1.4-0.7-2.8-1.3-4.3-1.8V1.6C51.7,0.7,51,0,50.1,0h-9.8c-0.9,0-1.6,0.7-1.6,1.6v5.9c-1.5,0.4-2.9,1-4.3,1.8l-4.1-4.1
				c-0.6-0.6-1.7-0.6-2.3,0L21,12.1c-0.6,0.6-0.6,1.7,0,2.3l4.1,4.1c-0.7,1.4-1.3,2.8-1.8,4.3h-5.9c-0.9,0-1.6,0.7-1.6,1.6v9.8
				c0,0.9,0.7,1.6,1.6,1.6h5.9c0.4,1.5,1,2.9,1.8,4.3L21,44.3c-0.6,0.6-0.6,1.7,0,2.3l6.9,6.9c0.6,0.6,1.7,0.6,2.3,0l4.1-4.1
				c1.4,0.7,2.8,1.3,4.3,1.8v5.9c0,0.9,0.7,1.6,1.6,1.6h9.8c0.9,0,1.6-0.7,1.6-1.6v-5.9c1.5-0.4,2.9-1,4.3-1.8l4.1,4.1
				c0.3,0.3,0.7,0.5,1.2,0.5c0.4,0,0.8-0.2,1.2-0.5l6.9-6.9c0.6-0.6,0.6-1.7,0-2.3l-4.1-4.1c0.7-1.4,1.3-2.8,1.8-4.3h5.9
				c0.9,0,1.6-0.7,1.6-1.6v-9.8C74.5,23.6,73.8,22.8,72.9,22.8z M71.3,32.6h-5.5c-0.8,0-1.4,0.5-1.6,1.3c-0.5,2-1.3,4-2.4,5.7
				c-0.4,0.6-0.3,1.5,0.2,2l3.9,3.9l-4.6,4.6l-3.9-3.9c-0.5-0.5-1.4-0.6-2-0.2c-1.8,1.1-3.7,1.9-5.7,2.4c-0.7,0.2-1.3,0.8-1.3,1.6
				v5.5h-6.5V50c0-0.8-0.5-1.4-1.3-1.6c-2-0.5-4-1.3-5.7-2.4c-0.6-0.4-1.5-0.3-2,0.2L29,50.1l-4.6-4.6l3.9-3.9
				c0.5-0.5,0.6-1.4,0.2-2c-1.1-1.8-1.9-3.7-2.4-5.7c-0.2-0.7-0.8-1.3-1.6-1.3h-5.5v-6.5h5.5c0.8,0,1.4-0.5,1.6-1.3
				c0.5-2,1.3-4,2.4-5.7c0.4-0.6,0.3-1.5-0.2-2l-3.9-3.9L29,8.6l3.9,3.9c0.5,0.5,1.4,0.6,2,0.2c1.8-1.1,3.7-1.9,5.7-2.4
				c0.7-0.2,1.3-0.8,1.3-1.6V3.3h6.5v5.5c0,0.8,0.5,1.4,1.3,1.6c2,0.5,4,1.3,5.7,2.4c0.6,0.4,1.5,0.3,2-0.2l3.9-3.9l4.6,4.6
				l-3.9,3.9c-0.5,0.5-0.6,1.4-0.2,2c1.1,1.8,1.9,3.7,2.4,5.7c0.2,0.7,0.8,1.3,1.6,1.3h5.5V32.6L71.3,32.6z"/>
		</g>
	</g>
	<g>
		<g>
			<path class="st0" d="M45.2,19.6c-5.4,0-9.8,4.4-9.8,9.8s4.4,9.8,9.8,9.8c5.4,0,9.8-4.4,9.8-9.8C55,24,50.6,19.6,45.2,19.6z
				 M45.2,35.9c-3.6,0-6.5-2.9-6.5-6.5s2.9-6.5,6.5-6.5c3.6,0,6.5,2.9,6.5,6.5S48.8,35.9,45.2,35.9z"/>
		</g>
	</g>
	<g>
		<g>
			<path d="M45.2,19.6c-5.4,0-9.8,4.4-9.8,9.8s4.4,9.8,9.8,9.8c5.4,0,9.8-4.4,9.8-9.8C55,24,50.6,19.6,45.2,19.6z M45.2,35.9
				c-3.6,0-6.5-2.9-6.5-6.5s2.9-6.5,6.5-6.5c3.6,0,6.5,2.9,6.5,6.5S48.8,35.9,45.2,35.9z"/>
		</g>
	</g>
	<circle class="st1" cx="45.2" cy="29.4" r="6.5"/>
</g>
</svg>
