<?xml version="1.0" encoding="utf-8"?>
<!-- Generator: Adobe Illustrator 23.0.3, SVG Export Plug-In . SVG Version: 6.00 Build 0)  -->
<svg version="1.1" id="Layer_1" xmlns="http://www.w3.org/2000/svg" xmlns:xlink="http://www.w3.org/1999/xlink" x="0px" y="0px"
	 viewBox="0 0 109.6 92" style="enable-background:new 0 0 109.6 92;" xml:space="preserve">
<style type="text/css">
	.st0{fill:#E73747;}
	.st1{fill:#E8CB4A;}
	.st2{fill:#FFFFFF;}
</style>
<g>
	<circle class="st0" cx="91.1" cy="15" r="12.8"/>
	<rect x="9.4" y="64.6" class="st1" width="18.6" height="24.1"/>
	<rect x="59.2" y="57.7" class="st0" width="14.8" height="32.1"/>
	<g>
		<path d="M91.1,0c-8.4,0-15,6.7-15,15.1s6.7,15,15,15s15.1-6.7,15.1-15.1S99.4,0,91.1,0z M91.1,26.8c-6.5,0-11.8-5.3-11.8-11.8
			S84.7,3.3,91.1,3.3c6.5,0,11.8,5.3,11.8,11.8S97.6,26.8,91.1,26.8z"/>
	</g>
	<g>
		<path class="st2" d="M95.8,17.4c-0.1-0.3-0.1-0.5-0.3-0.8c-0.1-0.2-0.2-0.5-0.4-0.7c-0.2-0.2-0.3-0.4-0.5-0.6s-0.4-0.4-0.7-0.5
			c-0.2-0.2-0.5-0.3-0.7-0.4c-0.3-0.1-0.5-0.3-0.8-0.4c-0.3-0.1-0.6-0.2-0.8-0.3c-0.1,0-0.3-0.1-0.4-0.2c-0.1-0.1-0.3-0.1-0.4-0.2
			c-0.1-0.1-0.3-0.1-0.4-0.2c-0.1-0.1-0.2-0.2-0.3-0.3c-0.1-0.1-0.2-0.2-0.2-0.4c-0.1-0.1-0.1-0.3-0.1-0.4c0-0.2,0-0.3,0-0.5
			c0-0.1,0.1-0.3,0.1-0.4c0.1-0.1,0.1-0.3,0.2-0.4c0.1-0.1,0.2-0.2,0.3-0.3c0.1-0.1,0.3-0.2,0.5-0.2c0.2-0.1,0.3-0.1,0.5-0.1
			c0.1,0,0.2,0,0.3,0c0.1,0,0.2,0,0.3,0c0.2,0,0.3,0,0.5,0.1c0.2,0,0.4,0.1,0.5,0.1s0.3,0.1,0.4,0.1c0.2,0,0.3,0.1,0.4,0.1l0.5,0.2
			l0.1-0.6l0.2-1.7V7.8l-0.4-0.1c-0.1,0-0.3-0.1-0.4-0.1c-0.1,0-0.2-0.1-0.4-0.1c-0.1,0-0.3-0.1-0.5-0.1c-0.2,0-0.3-0.1-0.5-0.1
			h-0.1V5.8V5.3h-0.5h-1.4h-0.5v0.5v1.6h-0.1c-0.3,0.1-0.6,0.2-0.9,0.4c-0.3,0.1-0.5,0.3-0.7,0.5c-0.2,0.2-0.4,0.4-0.6,0.7
			c-0.2,0.2-0.3,0.5-0.4,0.8c-0.1,0.3-0.2,0.6-0.3,0.9c-0.1,0.3-0.1,0.7-0.1,1c0,0.3,0,0.5,0.1,0.8c0.1,0.3,0.1,0.5,0.3,0.8
			c0.1,0.2,0.3,0.5,0.4,0.7c0.2,0.2,0.3,0.4,0.5,0.6s0.4,0.4,0.7,0.5c0.2,0.2,0.5,0.3,0.7,0.4c0.3,0.1,0.6,0.3,0.8,0.4
			c0.3,0.1,0.6,0.2,0.8,0.3c0.1,0,0.3,0.1,0.4,0.2c0.1,0.1,0.3,0.1,0.4,0.2s0.2,0.2,0.3,0.2c0.1,0.1,0.2,0.2,0.3,0.3
			c0.1,0.1,0.1,0.2,0.2,0.4c0,0.1,0.1,0.3,0.1,0.5c0,0.2,0,0.3,0,0.5c0,0.1-0.1,0.3-0.2,0.4s-0.2,0.2-0.3,0.3
			c-0.1,0.1-0.2,0.2-0.4,0.3c-0.1,0.1-0.3,0.1-0.4,0.2c-0.1,0-0.3,0.1-0.5,0.1c-0.1,0-0.2,0-0.4,0c-0.1,0-0.3,0-0.4,0
			c-0.2,0-0.4,0-0.5,0c-0.2,0-0.4-0.1-0.5-0.1c-0.2,0-0.4-0.1-0.6-0.2c-0.2-0.1-0.4-0.1-0.6-0.2c-0.1,0-0.2-0.1-0.3-0.1
			c-0.1,0-0.2-0.1-0.3-0.1l-0.6-0.3l-0.1,0.7l-0.2,1.9V22l0.3,0.1c0.4-0.1,0.6,0,0.9,0.1c0.2,0.1,0.5,0.2,0.7,0.2
			c0.2,0.1,0.5,0.1,0.8,0.2c0.3,0.1,0.5,0.1,0.8,0.1H90v1.6v0.5h0.5H92h0.5v-0.5v-1.7h0.1c0.3-0.1,0.6-0.2,0.9-0.4
			c0.3-0.1,0.5-0.3,0.8-0.5c0.2-0.2,0.4-0.4,0.6-0.7c0.2-0.2,0.3-0.5,0.5-0.8c0.1-0.3,0.2-0.6,0.3-0.9c0.1-0.3,0.1-0.6,0.1-1
			C95.9,17.9,95.9,17.7,95.8,17.4z"/>
	</g>
	<g>
		<path d="M83.8,32c-0.5-0.7-1.7-0.8-2.4-0.3L64.7,45.1l-21.6-9c-0.5-0.2-1.1-0.1-1.6,0.2L18.4,52.8c-0.7,0.5-0.9,1.6-0.4,2.3
			c0.3,0.5,0.8,0.7,1.3,0.7c0.3,0,0.6-0.1,0.9-0.3l22.4-16l21.7,9c0.5,0.2,1.2,0.1,1.7-0.2l17.5-13.9C84.2,33.9,84.4,32.8,83.8,32z"
			/>
	</g>
	<path d="M108,88.7h-7.6V40.8c0-0.9-0.7-1.7-1.7-1.7H83.5c-0.9,0-1.7,0.7-1.7,1.7v47.9h-5.6V57.4c0-0.9-0.7-1.7-1.7-1.7H59.3
		c-0.9,0-1.7,0.7-1.7,1.7v31.3h-5.6V54.9c0-0.9-0.7-1.7-1.7-1.7H35.2c-0.9,0-1.7,0.7-1.7,1.7v33.8H28V64.6c0-0.9-0.7-1.7-1.7-1.7
		H11.1c-0.9,0-1.7,0.7-1.7,1.7v24.1H1.7c-0.9,0-1.7,0.7-1.7,1.7S0.7,92,1.7,92H11h15.2h9.1h15.2h8.9h15.2h8.9h15.2h9.3
		c0.9,0,1.7-0.7,1.7-1.7C109.7,89.4,109,88.7,108,88.7z M24.6,88.7H12.7V66.3h11.9V88.7z M48.8,88.7H36.9V56.5h11.9V88.7z
		 M72.9,88.7H61V59h11.9V88.7z M97.1,88.7H85.2V42.5h11.9V88.7z"/>
</g>
</svg>
